<svg aria-hidden="true" focusable="false" data-prefix="fab" data-icon="gitbook"  role="img"  viewBox="0 0 209 152" fill="none" xmlns="http://www.w3.org/2000/svg">
<path d="M94.05 126.791C97.3156 126.791 100.255 129.403 100.255 132.995C100.255 136.261 97.6422 139.2 94.05 139.2C90.7844 139.2 87.8453 136.588 87.8453 132.995C87.8453 129.403 90.7844 126.791 94.05 126.791ZM190.059 88.9094C186.794 88.9094 183.855 86.297 183.855 82.7048C183.855 79.4391 186.467 76.5001 190.059 76.5001C193.325 76.5001 196.264 79.1126 196.264 82.7048C196.264 85.9704 193.325 88.9094 190.059 88.9094ZM190.059 63.7641C179.609 63.7641 171.119 72.2548 171.119 82.7048C171.119 84.6641 171.445 86.6235 172.098 88.5829L109.725 121.892C106.133 116.667 100.255 113.728 94.05 113.728C86.8656 113.728 80.3344 117.974 77.0688 124.178L20.9 94.7876C15.0219 91.5219 10.45 82.0516 11.1031 72.9079C11.4297 68.336 13.0625 64.7438 15.3484 63.4376C16.9813 62.4579 18.6141 62.7845 20.9 63.7641L21.2266 64.0907C36.2484 71.9282 84.9063 97.4001 86.8656 98.3798C90.1313 99.686 91.7641 100.339 97.3156 97.7266L197.897 45.4766C199.53 44.8235 201.162 43.5173 201.162 41.2313C201.162 38.2923 198.223 36.986 198.223 36.986C192.345 34.3735 183.528 30.1282 175.037 26.2094C156.75 17.7188 135.85 7.92195 126.706 3.02351C118.869 -1.2218 112.337 2.37039 111.358 3.02351L109.072 4.0032C67.5984 24.9032 12.7359 52.0079 9.47032 53.9673C3.91876 57.2329 0.326572 64.0907 9.77889e-06 72.5813C-0.653115 85.9704 6.2047 100.013 16.0016 104.911L75.4359 135.608C76.7422 144.752 84.9062 151.936 94.05 151.936C104.5 151.936 112.664 143.772 112.991 133.322L178.303 98.0532C181.569 100.666 185.814 101.972 190.059 101.972C200.509 101.972 209 93.4813 209 83.0313C209 72.2548 200.509 63.7641 190.059 63.7641Z" fill="currentColor"/>
</svg>
