<svg aria-hidden="true" focusable="false" data-prefix="fab" data-icon="google-calendar" role="img" viewBox="0 0 192 192" fill="none" xmlns="http://www.w3.org/2000/svg">
<path d="M104.848 79.5679L110.325 87.3626L118.752 81.2532V125.493H127.811V67.3492H120.227L104.848 79.5679Z" fill="#1E88E5"/>
<path d="M90.3119 94.736C93.6826 91.7866 95.7893 87.3626 95.7893 82.728C95.7893 73.4586 87.5733 65.8746 77.6719 65.8746C69.2453 65.8746 61.8719 71.1413 59.9759 78.936L68.8239 81.2533C69.6666 77.672 73.4586 75.144 77.6719 75.144C82.7279 75.144 86.7306 78.5146 86.7306 82.728C86.7306 86.9413 82.7279 90.312 77.6719 90.312H72.4053V99.5813H77.6719C83.3599 99.5813 88.2053 103.584 88.2053 108.219C88.2053 113.064 83.5706 116.856 77.8826 116.856C72.8266 116.856 68.4026 113.696 67.7706 109.272L58.9226 110.747C60.3973 119.384 68.6133 125.915 78.0933 125.915C88.8373 125.915 97.4746 117.909 97.4746 108.008C97.2639 102.741 94.5253 97.896 90.3119 94.736Z" fill="#1E88E5"/>
<path d="M149.088 191.432H42.9124V149.088H149.088V191.432Z" fill="#FBC02D"/>
<path d="M191.432 149.088V42.912H149.088V149.088H191.432Z" fill="#4CAF50"/>
<path d="M149.088 42.912V0.567993H16.3681C7.52009 0.567993 0.357422 7.73066 0.357422 16.5787V149.299H42.7014V42.912H149.088Z" fill="#1E88E5"/>
<path d="M149.088 149.088V191.432L191.432 149.088H149.088Z" fill="#E53935"/>
<path d="M175.632 0.567993H149.088V42.912H191.432V16.368C191.432 7.51999 184.48 0.567993 175.632 0.567993Z" fill="#1565C0"/>
<path d="M16.3681 191.432H42.9121V149.088H0.568115V175.632C0.568115 184.48 7.52012 191.432 16.3681 191.432Z" fill="#1565C0"/>
</svg>
