<svg viewBox="0 0 111 137" fill="none" xmlns="http://www.w3.org/2000/svg">
<path d="M55.1216 107.55C74.1077 107.55 91.1095 97.7332 100.603 81.2898C110.096 64.8494 110.096 45.2168 100.603 28.7748C91.1095 12.3318 74.1077 2.51614 55.1216 2.51614C36.1349 2.51614 19.1321 12.3318 9.64162 28.7748C0.148334 45.2168 0.148336 64.8494 9.63906 81.2898C19.1321 97.7332 36.1349 107.55 55.1216 107.55ZM55.1216 0C75.0172 0 92.834 10.2876 102.782 27.5189C112.73 44.7472 112.73 65.319 102.782 82.5488C92.834 99.7797 75.0172 110.066 55.1216 110.066C35.226 110.066 17.4092 99.7797 7.45931 82.5488C-2.48644 65.319 -2.48644 44.7472 7.45931 27.5189C17.4092 10.2876 35.226 0 55.1216 0Z" fill="white"/>
<path d="M100.601 28.7272H9.64053L55.1205 107.502L100.601 28.7272ZM8.55066 27.4697H101.691C101.917 27.4697 102.124 27.5881 102.237 27.7844C102.348 27.9777 102.348 28.2176 102.237 28.4124L55.6659 109.074C55.4404 109.462 54.8006 109.462 54.5761 109.074L8.00674 28.4124C7.89294 28.2176 7.89294 27.9777 8.00674 27.7844C8.11747 27.5881 8.32612 27.4697 8.55066 27.4697Z" fill="white"/>
<path d="M99.5096 134.483L55.118 57.5966L10.7254 134.483H99.5096ZM55.118 53.823C55.5671 53.823 55.9839 54.0614 56.2079 54.451L102.778 135.113C103.002 135.501 103.002 135.981 102.778 136.37C102.553 136.76 102.138 137 101.688 137H8.54714C8.09602 137 7.68334 136.76 7.45624 136.37C7.23171 135.981 7.23171 135.501 7.45624 135.113L54.0271 54.451C54.2527 54.0614 54.6679 53.823 55.118 53.823Z" fill="white"/>
<path d="M54.5402 133.686C54.7827 133.686 55.0149 133.828 55.118 134.065L55.6188 135.218C55.7567 135.539 55.6096 135.909 55.2913 136.047C54.9698 136.185 54.6023 136.037 54.4633 135.719L53.964 134.565C53.8261 134.246 53.9733 133.875 54.2916 133.738C54.3726 133.703 54.4577 133.686 54.5402 133.686ZM57.0409 130.584C57.125 130.584 57.2101 130.602 57.2911 130.636C57.6099 130.774 57.757 131.145 57.6186 131.464L57.1183 132.62C56.9804 132.935 56.6103 133.082 56.2904 132.946C55.972 132.809 55.8264 132.438 55.9643 132.118L56.4631 130.963C56.5667 130.727 56.7984 130.584 57.0409 130.584ZM52.5414 129.069C52.7839 129.069 53.0162 129.209 53.1192 129.447L53.6195 130.602C53.7564 130.921 53.6108 131.291 53.2919 131.43C52.9721 131.564 52.6019 131.42 52.464 131.103L51.9637 129.947C51.8258 129.629 51.9714 129.257 52.2913 129.121C52.3738 129.084 52.4579 129.069 52.5414 129.069ZM59.0412 125.967C59.1238 125.967 59.2089 125.984 59.2914 126.019C59.6102 126.157 59.7558 126.528 59.619 126.846L59.1186 128C58.9797 128.319 58.6132 128.467 58.2907 128.327C57.9724 128.189 57.8252 127.819 57.9631 127.501L58.4635 126.346C58.567 126.109 58.7977 125.967 59.0412 125.967ZM50.5411 124.451C50.7851 124.451 51.0168 124.591 51.1204 124.83L51.6192 125.984C51.7576 126.301 51.6115 126.673 51.2916 126.811C50.9717 126.948 50.6031 126.801 50.4652 126.484L49.9649 125.329C49.8265 125.01 49.9726 124.64 50.2925 124.502C50.3735 124.466 50.4576 124.451 50.5411 124.451ZM61.0415 121.35C61.1241 121.35 61.2082 121.366 61.2907 121.4C61.609 121.54 61.7546 121.91 61.6183 122.228L61.1179 123.383C60.9795 123.701 60.6119 123.848 60.29 123.709C59.9711 123.572 59.8256 123.201 59.9635 122.882L60.4628 121.729C60.5658 121.491 60.798 121.35 61.0415 121.35ZM48.5408 119.832C48.7858 119.832 49.017 119.974 49.1201 120.21L49.6189 121.366C49.7583 121.684 49.6112 122.056 49.2913 122.194C48.9694 122.33 48.6044 122.183 48.4659 121.866L47.9646 120.712C47.8277 120.392 47.9748 120.022 48.2922 119.884C48.3747 119.849 48.4598 119.832 48.5408 119.832ZM63.0408 116.732C63.1234 116.732 63.2085 116.749 63.2895 116.784C63.6078 116.92 63.755 117.292 63.6171 117.611L63.1167 118.764C62.9788 119.083 62.6087 119.226 62.2898 119.093C61.9715 118.954 61.8243 118.584 61.9622 118.264L62.4631 117.11C62.5661 116.874 62.7968 116.732 63.0408 116.732ZM46.542 115.215C46.7855 115.215 47.0177 115.357 47.1208 115.593L47.6191 116.749C47.758 117.066 47.6109 117.436 47.2915 117.576C46.9716 117.714 46.6025 117.566 46.4661 117.246L45.9653 116.094C45.8289 115.775 45.9745 115.405 46.2929 115.267C46.3744 115.231 46.4595 115.215 46.542 115.215ZM65.0396 112.114C65.1232 112.114 65.2073 112.13 65.2883 112.165C65.6081 112.303 65.7543 112.675 65.6158 112.993L65.117 114.146C64.9802 114.465 64.6116 114.61 64.2901 114.475C63.9703 114.336 63.8247 113.966 63.9626 113.647L64.4619 112.493C64.5639 112.255 64.7971 112.114 65.0396 112.114ZM44.5432 110.596C44.7857 110.596 45.0174 110.739 45.121 110.975L45.6198 112.13C45.7577 112.449 45.6121 112.819 45.2937 112.957C44.9723 113.098 44.6037 112.948 44.4658 112.63L43.9655 111.475C43.8286 111.155 43.9742 110.787 44.293 110.647C44.3756 110.612 44.4591 110.596 44.5432 110.596ZM67.04 107.494C67.1225 107.494 67.2076 107.512 67.2901 107.546C67.6085 107.685 67.7546 108.055 67.6177 108.375L67.1174 109.529C66.9779 109.848 66.6104 109.994 66.2894 109.856C65.9706 109.719 65.825 109.347 65.9619 109.029L66.4622 107.874C66.5653 107.637 66.7959 107.494 67.04 107.494ZM42.5439 105.979C42.7854 105.979 43.0171 106.121 43.1206 106.356L43.622 107.512C43.7573 107.832 43.6117 108.201 43.2944 108.34C42.9735 108.478 42.6044 108.33 42.4655 108.011L41.9662 106.858C41.8283 106.538 41.9739 106.168 42.2938 106.03C42.3753 105.996 42.4604 105.979 42.5439 105.979ZM69.0387 102.877C69.1228 102.877 69.2079 102.895 69.2889 102.929C69.6078 103.067 69.7534 103.438 69.6165 103.757L69.1162 104.911C68.9767 105.23 68.6066 105.373 68.2898 105.238C67.9699 105.1 67.8238 104.73 67.9622 104.41L68.461 103.256C68.5656 103.02 68.7963 102.877 69.0387 102.877ZM40.5436 101.361C40.7861 101.361 41.0173 101.501 41.1203 101.74L41.6217 102.895C41.7586 103.214 41.613 103.583 41.2941 103.722C40.9747 103.859 40.6046 103.713 40.4652 103.394L39.9674 102.239C39.828 101.92 39.9751 101.551 40.295 101.412C40.3749 101.376 40.4611 101.361 40.5436 101.361ZM71.0391 98.2587C71.1216 98.2587 71.2067 98.2757 71.2882 98.3105C71.6066 98.45 71.7537 98.8201 71.6158 99.1369L71.1165 100.293C70.9786 100.612 70.6095 100.759 70.2886 100.62C69.9702 100.482 69.8241 100.112 69.961 99.7936L70.4613 98.6391C70.5644 98.4007 70.7956 98.2587 71.0391 98.2587ZM38.5433 96.7423C38.7883 96.7423 39.0195 96.8838 39.121 97.1212L39.6219 98.2756C39.7598 98.5955 39.6111 98.9657 39.2943 99.1036C38.9744 99.2415 38.6043 99.0933 38.4659 98.7775L37.9671 97.6215C37.8292 97.3032 37.9758 96.932 38.2946 96.7936C38.3756 96.7587 38.4607 96.7423 38.5433 96.7423ZM73.0379 93.6419C73.1219 93.6419 73.207 93.6588 73.2885 93.6937C73.6069 93.8316 73.7525 94.2017 73.6161 94.5216L73.1153 95.6755C72.9789 95.9929 72.6098 96.14 72.2889 96.0021C71.97 95.8652 71.8234 95.4941 71.9613 95.1742L72.4601 94.0212C72.5637 93.7839 72.7959 93.6419 73.0379 93.6419ZM36.5435 92.125C36.787 92.125 37.0192 92.267 37.1222 92.5033L37.6215 93.6588C37.7594 93.9771 37.6138 94.3473 37.294 94.4867C36.9741 94.6231 36.605 94.4765 36.4671 94.1591L35.9667 93.0047C35.8288 92.6848 35.9744 92.3147 36.2943 92.1768C36.3768 92.1419 36.4609 92.125 36.5435 92.125ZM75.0397 89.025C75.1207 89.025 75.2058 89.0404 75.2883 89.0763C75.6072 89.2132 75.7528 89.5843 75.6159 89.9032L75.1156 91.0571C74.9767 91.376 74.6091 91.5216 74.2892 91.3863C73.9693 91.2468 73.8237 90.8767 73.9616 90.5583L74.4604 89.4028C74.564 89.1655 74.7957 89.025 75.0397 89.025ZM34.5442 87.5071C34.7882 87.5071 35.0199 87.6486 35.1234 87.8859L35.6222 89.0404C35.7601 89.3577 35.6146 89.7304 35.2947 89.8668C34.9722 90.0052 34.6047 89.8581 34.4683 89.5408L33.9664 88.3853C33.8295 88.0664 33.9756 87.6978 34.294 87.5584C34.3765 87.5235 34.4606 87.5071 34.5442 87.5071ZM77.0385 84.4067C77.121 84.4067 77.2061 84.422 77.2876 84.4579C77.606 84.5963 77.7531 84.9665 77.6152 85.2848L77.1149 86.4393C76.9765 86.7576 76.6094 86.9048 76.288 86.7668C75.9681 86.6284 75.8225 86.2573 75.9604 85.94L76.4608 84.7855C76.5638 84.5471 76.795 84.4067 77.0385 84.4067ZM32.5438 82.8887C32.7879 82.8887 33.0201 83.0318 33.1231 83.2676L33.6219 84.422C33.7603 84.7419 33.6142 85.112 33.2943 85.2499C32.975 85.3878 32.6074 85.2412 32.468 84.9224L31.9676 83.7684C31.8307 83.4485 31.9763 83.0794 32.2937 82.94C32.3777 82.9056 32.4613 82.8887 32.5438 82.8887ZM79.0378 79.7883C79.1214 79.7883 79.2054 79.8052 79.2864 79.84C79.6063 79.9764 79.7519 80.3481 79.614 80.668L79.1152 81.8219C78.9758 82.1392 78.6056 82.2864 78.2868 82.1495C77.9684 82.0116 77.8228 81.6404 77.9592 81.3206L78.4601 80.1661C78.5631 79.9303 78.7953 79.7883 79.0378 79.7883ZM30.545 78.2719C30.7885 78.2719 31.0198 78.4134 31.1228 78.6507L31.6221 79.8052C31.76 80.1251 31.6139 80.4937 31.2945 80.6331C30.9772 80.7725 30.6055 80.6229 30.4676 80.304L29.9683 79.1485C29.8304 78.8301 29.9776 78.461 30.2974 78.3231C30.3774 78.2873 30.4625 78.2719 30.545 78.2719ZM81.0366 75.1699C81.1201 75.1699 81.2058 75.1868 81.2868 75.2217C81.6051 75.3596 81.7522 75.7312 81.6143 76.0496L81.114 77.2025C80.9771 77.5224 80.606 77.667 80.2871 77.5316C79.9688 77.3922 79.8232 77.0221 79.9595 76.7032L80.4588 75.5492C80.5619 75.3119 80.7941 75.1699 81.0366 75.1699ZM28.5447 73.6535C28.7882 73.6535 29.0194 73.795 29.124 74.0339L29.6228 75.1868C29.7607 75.5052 29.6141 75.8753 29.2952 76.0137C28.9743 76.1526 28.6067 76.0045 28.4688 75.6871L27.968 74.5317C27.8316 74.2133 27.9772 73.8442 28.2956 73.7048C28.3771 73.6689 28.4622 73.6535 28.5447 73.6535ZM83.0379 70.5515C83.1205 70.5515 83.2056 70.5684 83.2871 70.6023C83.6054 70.7412 83.7515 71.1113 83.6147 71.4312L83.1143 72.5857C82.9764 72.903 82.6089 73.0496 82.2874 72.9117C81.9675 72.7753 81.822 72.4037 81.9599 72.0853L82.4592 70.9309C82.5638 70.6935 82.7944 70.5515 83.0379 70.5515ZM26.5459 69.0351C26.7884 69.0351 27.0201 69.1771 27.1237 69.4145L27.624 70.5684C27.7604 70.8883 27.6148 71.2584 27.2964 71.3963C26.974 71.5358 26.6064 71.3861 26.4685 71.0703L25.9692 69.9148C25.8313 69.5959 25.9769 69.2248 26.2968 69.0869C26.3783 69.052 26.4634 69.0351 26.5459 69.0351ZM85.0372 65.9347C85.1198 65.9347 85.2049 65.9516 85.2859 65.9864C85.6047 66.1228 85.7514 66.4945 85.6134 66.8144L85.1147 67.9673C84.9752 68.2856 84.6051 68.4302 84.2867 68.2949C83.9668 68.157 83.8207 67.7868 83.9592 67.468L84.4595 66.3125C84.5625 66.0767 84.7932 65.9347 85.0372 65.9347ZM24.5466 64.4183C24.7881 64.4183 25.0203 64.5598 25.1234 64.7961L25.6247 65.9516C25.7606 66.2699 25.6145 66.6401 25.2971 66.778C24.9778 66.9148 24.6071 66.7692 24.4682 66.4504L23.9689 65.2964C23.831 64.9791 23.9766 64.6074 24.2965 64.4695C24.378 64.4337 24.4631 64.4183 24.5466 64.4183ZM87.036 61.3163C87.1201 61.3163 87.2037 61.3322 87.2862 61.3681C87.6051 61.506 87.7507 61.8761 87.6138 62.195L87.1134 63.3489C86.9755 63.6688 86.608 63.8159 86.2855 63.678C85.9672 63.5386 85.8211 63.1685 85.9579 62.8511L86.4583 61.6956C86.5613 61.4573 86.7935 61.3163 87.036 61.3163ZM22.5463 59.7984C22.7903 59.7984 23.0226 59.9419 23.123 60.1787L23.6249 61.3347C23.7602 61.6531 23.6141 62.0232 23.2943 62.1601C22.9774 62.298 22.6073 62.1524 22.4679 61.8335L21.9701 60.678C21.8307 60.3597 21.9763 59.9896 22.2977 59.8501C22.3777 59.8168 22.4628 59.7984 22.5463 59.7984ZM89.0364 56.6984C89.1189 56.6984 89.204 56.7148 89.2855 56.7497C89.6038 56.8876 89.751 57.2577 89.6131 57.5776L89.1138 58.7321C88.9759 59.0494 88.6083 59.195 88.2858 59.0596C87.967 58.9217 87.8214 58.5501 87.9583 58.2317L88.4571 57.0773C88.5606 56.8399 88.7929 56.6984 89.0364 56.6984ZM20.5465 55.1815C20.7885 55.1815 21.0197 55.3245 21.1227 55.5593L21.6246 56.7148C21.7609 57.0347 21.6143 57.4048 21.297 57.5427C20.9771 57.6811 20.607 57.534 20.4691 57.2152L19.9698 56.0612C19.8303 55.7413 19.9775 55.3712 20.2974 55.2333C20.3773 55.1995 20.4635 55.1815 20.5465 55.1815ZM91.0351 52.0811C91.1192 52.0811 91.2043 52.098 91.2853 52.1328C91.6042 52.2707 91.7513 52.6409 91.6129 52.9607L91.1125 54.1137C90.9736 54.432 90.6035 54.5781 90.2862 54.4428C89.9663 54.3034 89.8207 53.9332 89.9586 53.6144L90.4589 52.4589C90.562 52.2231 90.7927 52.0811 91.0351 52.0811ZM18.5462 50.5631C18.7912 50.5631 19.0219 50.7051 19.1265 50.9435L19.6243 52.098C19.7632 52.4163 19.6166 52.7864 19.2967 52.9249C18.9768 53.0612 18.6067 52.9167 18.4713 52.5973L17.9695 51.4428C17.8316 51.1229 17.9771 50.7543 18.297 50.6149C18.377 50.58 18.4636 50.5631 18.5462 50.5631ZM93.0355 47.4627C93.118 47.4627 93.2031 47.4786 93.2846 47.5144C93.6045 47.6539 93.7501 48.0225 93.6122 48.3413L93.1129 49.4953C92.974 49.8142 92.6074 49.9608 92.285 49.8229C91.9666 49.685 91.8195 49.3148 91.9574 48.9965L92.4577 47.842C92.5608 47.6037 92.792 47.4627 93.0355 47.4627ZM16.5469 45.9447C16.7909 45.9447 17.0231 46.0883 17.1262 46.3256L17.6239 47.4786C17.7634 47.7985 17.6173 48.1686 17.2974 48.3065C16.9775 48.4444 16.6089 48.2973 16.471 47.9799L15.9691 46.8244C15.8338 46.5061 15.9794 46.136 16.2967 45.9965C16.3808 45.9617 16.4633 45.9447 16.5469 45.9447ZM95.0348 42.8448C95.1183 42.8448 95.2024 42.8612 95.2849 42.8961C95.6033 43.034 95.7504 43.4041 95.6125 43.724L95.1122 44.8785C94.9738 45.1958 94.6052 45.3439 94.2837 45.206C93.9654 45.0681 93.8198 44.698 93.9562 44.3766L94.457 43.2236C94.5601 42.9863 94.7923 42.8448 95.0348 42.8448ZM14.5491 41.3279C14.7906 41.3279 15.0228 41.4699 15.1258 41.7073L15.6251 42.8612C15.763 43.1811 15.6169 43.5502 15.2976 43.6891C14.9777 43.826 14.6101 43.6789 14.4707 43.3615L13.9703 42.2061C13.8335 41.8887 13.9791 41.5176 14.2964 41.3797C14.3805 41.3433 14.463 41.3279 14.5491 41.3279ZM97.0351 38.2274C97.1176 38.2274 97.2027 38.2444 97.2837 38.2792C97.6036 38.4161 97.7492 38.7888 97.6113 39.1061L97.111 40.2616C96.9731 40.5789 96.6055 40.7256 96.2841 40.5892C95.9657 40.4498 95.8186 40.0796 95.9565 39.7613L96.4558 38.6068C96.5604 38.3684 96.7911 38.2274 97.0351 38.2274ZM12.5462 36.7095C12.7902 36.7095 13.0225 36.8515 13.1255 37.0899L13.6248 38.2444C13.7627 38.5617 13.6171 38.9328 13.2972 39.0697C12.9748 39.2092 12.6098 39.061 12.4704 38.7421L11.97 37.5892C11.8331 37.2709 11.9803 36.9018 12.2976 36.7613C12.3801 36.7264 12.4637 36.7095 12.5462 36.7095ZM99.0349 33.6096C99.1174 33.6096 99.2025 33.625 99.284 33.6608C99.6024 33.7987 99.7495 34.1689 99.6116 34.4888L99.1123 35.6417C98.9734 35.9606 98.6068 36.1061 98.2844 35.9693C97.9645 35.8314 97.8189 35.4602 97.9568 35.1429L98.4572 33.99C98.5607 33.75 98.7914 33.6096 99.0349 33.6096ZM10.549 32.0917C10.7915 32.0917 11.0221 32.2331 11.1252 32.4705L11.6271 33.625C11.7634 33.9448 11.6168 34.316 11.2995 34.4529C10.977 34.5923 10.6095 34.4426 10.4716 34.1253L9.97225 32.9724C9.83281 32.6525 9.97994 32.2823 10.2998 32.1429C10.3798 32.1096 10.4664 32.0917 10.549 32.0917ZM101.034 28.9912C101.117 28.9912 101.202 29.0076 101.284 29.0425C101.603 29.1793 101.748 29.551 101.612 29.8704L101.112 31.0248C100.972 31.3432 100.602 31.4867 100.284 31.3524C99.9648 31.213 99.8177 30.8429 99.9561 30.523L100.456 29.37C100.559 29.1327 100.79 28.9912 101.034 28.9912ZM8.54865 27.4758C8.79113 27.4758 9.02335 27.6163 9.1264 27.8536L9.62673 29.0076C9.76361 29.3275 9.6175 29.6966 9.29915 29.8345C8.97927 29.9724 8.60914 29.8253 8.47124 29.5059L7.97192 28.354C7.83402 28.0356 7.97961 27.6655 8.2995 27.5261C8.38101 27.4912 8.46611 27.4758 8.54865 27.4758Z" fill="white"/>
<path d="M101.191 133.887C101.434 133.887 101.666 134.03 101.769 134.265L102.268 135.421C102.406 135.74 102.26 136.111 101.942 136.248C101.621 136.384 101.252 136.239 101.114 135.921L100.613 134.766C100.475 134.448 100.623 134.076 100.941 133.939C101.022 133.905 101.108 133.887 101.191 133.887ZM9.70517 132.37C9.78873 132.37 9.87383 132.386 9.95533 132.422C10.2752 132.56 10.4208 132.93 10.2829 133.248L9.7836 134.403C9.6457 134.723 9.27557 134.867 8.95466 134.732C8.63733 134.593 8.49175 134.223 8.62811 133.905L9.12845 132.75C9.232 132.511 9.46371 132.37 9.70517 132.37ZM99.1907 129.269C99.4348 129.269 99.6655 129.41 99.7685 129.648L100.269 130.803C100.407 131.122 100.26 131.492 99.9413 131.63C99.6193 131.767 99.2528 131.621 99.1133 131.303L98.613 130.147C98.4766 129.83 98.6222 129.46 98.9406 129.32C99.0231 129.285 99.1082 129.269 99.1907 129.269ZM11.7055 127.752C11.7891 127.752 11.8742 127.769 11.9557 127.804C12.2755 127.942 12.4211 128.312 12.2832 128.632L11.7839 129.786C11.645 130.103 11.2774 130.249 10.955 130.114C10.6377 129.975 10.4916 129.604 10.6274 129.285L11.1288 128.131C11.2318 127.894 11.464 127.752 11.7055 127.752ZM97.1904 124.65C97.4344 124.65 97.6667 124.794 97.7697 125.031L98.269 126.184C98.4069 126.504 98.2608 126.875 97.9414 127.012C97.6216 127.15 97.254 127.003 97.1146 126.686L96.6142 125.531C96.4773 125.21 96.6234 124.841 96.9418 124.702C97.0243 124.668 97.1079 124.65 97.1904 124.65ZM13.7058 123.135C13.7894 123.135 13.8745 123.15 13.9544 123.187C14.2743 123.325 14.4215 123.695 14.282 124.013L13.7843 125.168C13.6448 125.486 13.2772 125.633 12.9548 125.496C12.638 125.357 12.4919 124.987 12.6272 124.668L13.1291 123.513C13.2321 123.276 13.4644 123.135 13.7058 123.135ZM95.1916 120.034C95.4341 120.034 95.6663 120.175 95.7694 120.412L96.2697 121.567C96.4066 121.887 96.261 122.255 95.9421 122.395C95.6212 122.53 95.2521 122.386 95.1142 122.067L94.6139 120.912C94.476 120.594 94.6231 120.223 94.9415 120.085C95.024 120.05 95.1081 120.034 95.1916 120.034ZM15.7056 118.517C15.7887 118.517 15.8748 118.532 15.9548 118.569C16.2747 118.706 16.4218 119.077 16.2824 119.395L15.783 120.549C15.6451 120.867 15.2776 121.015 14.9551 120.877C14.6383 120.739 14.4886 120.367 14.6275 120.05L15.1294 118.896C15.2325 118.657 15.4637 118.517 15.7056 118.517ZM93.1913 115.415C93.4353 115.415 93.667 115.557 93.7706 115.796L94.2694 116.949C94.4078 117.267 94.2607 117.637 93.9418 117.775C93.6194 117.916 93.2533 117.766 93.1154 117.449L92.6151 116.293C92.4767 115.976 92.6228 115.606 92.9427 115.467C93.0237 115.431 93.1088 115.415 93.1913 115.415ZM17.706 113.898C17.7885 113.898 17.8736 113.915 17.9551 113.95C18.275 114.088 18.4206 114.458 18.2827 114.778L17.7808 115.933C17.6455 116.249 17.2779 116.396 16.9554 116.26C16.6356 116.122 16.4889 115.751 16.6279 115.431L17.1256 114.278C17.2292 114.04 17.4609 113.898 17.706 113.898ZM91.1925 110.797C91.436 110.797 91.6672 110.94 91.7703 111.176L92.2706 112.33C92.4075 112.65 92.2614 113.022 91.943 113.158C91.6221 113.298 91.253 113.148 91.1151 112.832L90.6148 111.677C90.4779 111.358 90.6235 110.987 90.9424 110.849C91.0249 110.815 91.11 110.797 91.1925 110.797ZM19.7053 109.281C19.7888 109.281 19.8714 109.297 19.9554 109.333C20.2727 109.47 20.4183 109.841 20.283 110.16L19.7811 111.314C19.6432 111.632 19.2716 111.777 18.9547 111.642C18.6349 111.502 18.4888 111.132 18.6272 110.815L19.126 109.659C19.229 109.422 19.4612 109.281 19.7053 109.281ZM89.1922 106.18C89.4357 106.18 89.6669 106.322 89.771 106.559L90.2703 107.713C90.4082 108.032 90.2611 108.402 89.9427 108.54C89.6218 108.678 89.2542 108.531 89.1163 108.212L88.6155 107.058C88.4791 106.741 88.6247 106.37 88.9431 106.231C89.0246 106.196 89.1097 106.18 89.1922 106.18ZM21.7056 104.663C21.7866 104.663 21.8717 104.678 21.9557 104.715C22.2731 104.853 22.4187 105.223 22.2818 105.541L21.7814 106.697C21.6446 107.014 21.2744 107.16 20.9551 107.023C20.6352 106.885 20.4891 106.514 20.6275 106.196L21.1263 105.042C21.2293 104.804 21.4616 104.663 21.7056 104.663ZM87.1934 101.562C87.4369 101.562 87.6691 101.704 87.7712 101.941L88.27 103.096C88.4079 103.415 88.2623 103.785 87.9424 103.922C87.624 104.062 87.2539 103.914 87.116 103.595L86.6167 102.441C86.4788 102.121 86.6259 101.751 86.9443 101.613C87.0258 101.579 87.1109 101.562 87.1934 101.562ZM23.7059 100.045C23.7884 100.045 23.872 100.062 23.9545 100.097C24.2719 100.234 24.419 100.605 24.2821 100.924L23.7818 102.079C23.6423 102.396 23.2773 102.543 22.9549 102.406C22.635 102.269 22.4894 101.897 22.6273 101.579L23.1266 100.423C23.2297 100.187 23.4619 100.045 23.7059 100.045ZM85.1941 96.9433C85.4366 96.9433 85.6673 97.0863 85.7708 97.3226L86.2712 98.4766C86.4091 98.7964 86.2619 99.1666 85.9436 99.306C85.6237 99.4403 85.2546 99.2958 85.1167 98.9769L84.6164 97.824C84.4785 97.5041 84.6241 97.1329 84.9439 96.9961C85.0255 96.9612 85.1106 96.9433 85.1941 96.9433ZM25.7031 95.4279C25.7857 95.4279 25.8723 95.4433 25.9523 95.4797C26.2722 95.6176 26.4178 95.9877 26.2799 96.306L25.7806 97.459C25.6427 97.7789 25.2751 97.926 24.9526 97.7881C24.6353 97.6487 24.4887 97.2785 24.6251 96.9612L25.1269 95.8057C25.23 95.5699 25.4607 95.4279 25.7031 95.4279ZM83.1928 92.3249C83.4363 92.3249 83.6685 92.4669 83.7715 92.7053L84.2708 93.8597C84.4087 94.1781 84.2632 94.5482 83.9433 94.6866C83.6208 94.8255 83.2548 94.6789 83.1164 94.359L82.616 93.2046C82.4797 92.8862 82.6253 92.5161 82.9436 92.3767C83.0262 92.3418 83.1102 92.3249 83.1928 92.3249ZM27.7035 90.8085C27.786 90.8085 27.8711 90.8254 27.9526 90.8597C28.2725 90.9992 28.4181 91.3683 28.2802 91.6882L27.7809 92.8421C27.643 93.1605 27.2754 93.3091 26.953 93.1697C26.6346 93.0318 26.4885 92.6617 26.6254 92.3433L27.1257 91.1873C27.2288 90.9515 27.461 90.8085 27.7035 90.8085ZM81.1935 87.7065C81.4375 87.7065 81.6682 87.85 81.7712 88.0874L82.2721 89.2403C82.41 89.5602 82.2639 89.9314 81.9445 90.0682C81.6231 90.2061 81.2555 90.059 81.1176 89.7417L80.6173 88.5877C80.4794 88.2678 80.626 87.8977 80.9448 87.7583C81.0258 87.7249 81.1109 87.7065 81.1935 87.7065ZM29.7028 86.1916C29.7863 86.1916 29.8714 86.208 29.9529 86.2429C30.2728 86.3808 30.4184 86.7509 30.2805 87.0708L29.7812 88.2238C29.6418 88.5426 29.2742 88.6908 28.9533 88.5529C28.6349 88.4134 28.4888 88.0448 28.6257 87.7249L29.1261 86.5695C29.2281 86.3331 29.4603 86.1916 29.7028 86.1916ZM79.1947 83.0897C79.4387 83.0897 79.6704 83.2317 79.7724 83.469L80.2717 84.623C80.4096 84.9428 80.2625 85.313 79.9442 85.4509C79.6253 85.5893 79.2552 85.4422 79.1173 85.1223L78.6185 83.9668C78.4801 83.6495 78.6262 83.2793 78.946 83.1414C79.027 83.1066 79.1111 83.0897 79.1947 83.0897ZM31.7031 81.5733C31.7867 81.5733 31.8718 81.5886 31.9517 81.6245C32.2732 81.7629 32.4187 82.1331 32.2793 82.4514L31.7815 83.6069C31.6395 83.9253 31.2709 84.0714 30.9521 83.9345C30.6353 83.795 30.4881 83.4265 30.6245 83.1076L31.1264 81.9521C31.2294 81.7137 31.4617 81.5733 31.7031 81.5733ZM77.1944 78.4713C77.4384 78.4713 77.6691 78.6133 77.7721 78.8522L78.2724 80.0051C78.4093 80.3234 78.2637 80.6951 77.9449 80.8315C77.625 80.9709 77.2548 80.8238 77.1169 80.5054L76.6181 79.3499C76.4797 79.0326 76.6258 78.6625 76.9457 78.523C77.0267 78.4882 77.1118 78.4713 77.1944 78.4713ZM33.7029 76.9549C33.7855 76.9549 33.8721 76.9718 33.9521 77.0066C34.2719 77.1446 34.4191 77.5157 34.2796 77.8346L33.7793 78.9901C33.6424 79.3058 33.2723 79.453 32.9524 79.3161C32.6341 79.1782 32.4885 78.8081 32.6248 78.4882L33.1252 77.3342C33.2287 77.0969 33.4594 76.9549 33.7029 76.9549ZM75.194 73.8544C75.438 73.8544 75.6687 73.9964 75.7733 74.2338L76.2721 75.3867C76.4105 75.7066 76.2644 76.0777 75.9445 76.2146C75.6236 76.3525 75.2576 76.2054 75.1182 75.8881L74.6178 74.7326C74.4809 74.4142 74.6265 74.0441 74.9454 73.9062C75.0264 73.8713 75.1115 73.8544 75.194 73.8544ZM35.7032 72.338C35.7858 72.338 35.8709 72.3534 35.9524 72.3893C36.2707 72.5272 36.4168 72.8973 36.28 73.2162L35.7781 74.3717C35.6417 74.689 35.2742 74.8361 34.9527 74.6993C34.6328 74.5598 34.4857 74.1897 34.6252 73.8713L35.1229 72.7158C35.2275 72.4785 35.4582 72.338 35.7032 72.338ZM73.1952 69.2376C73.4377 69.2376 73.6699 69.378 73.773 69.6154L74.2733 70.7709C74.4112 71.0882 74.2656 71.4583 73.9457 71.5978C73.6233 71.7331 73.2573 71.587 73.1178 71.2687L72.6185 70.1157C72.4806 69.7974 72.6277 69.4257 72.9461 69.2888C73.0276 69.253 73.1127 69.2376 73.1952 69.2376ZM37.7025 67.7197C37.7851 67.7197 37.8686 67.7366 37.9527 67.7709C38.27 67.9104 38.4156 68.2795 38.2803 68.5978L37.7799 69.7533C37.6431 70.0706 37.274 70.2203 36.952 70.0798C36.6321 69.9414 36.486 69.5703 36.6255 69.253L37.1233 68.0985C37.2263 67.8616 37.4585 67.7197 37.7025 67.7197ZM71.1964 64.6192C71.44 64.6192 71.6706 64.7597 71.7742 64.9986L72.273 66.1525C72.4109 66.4698 72.2643 66.8415 71.9454 66.9794C71.6271 67.1158 71.2569 66.9702 71.119 66.6518L70.6182 65.4974C70.4818 65.179 70.6274 64.8089 70.9458 64.671C71.0283 64.6346 71.1124 64.6192 71.1964 64.6192ZM39.7029 63.1013C39.7864 63.1013 39.869 63.1182 39.953 63.153C40.2698 63.291 40.4159 63.6611 40.2806 63.981L39.7787 65.1349C39.6393 65.4538 39.2717 65.6019 38.9518 65.4625C38.6325 65.3246 38.4864 64.9545 38.6243 64.6346L39.1236 63.4791C39.2266 63.2443 39.4588 63.1013 39.7029 63.1013ZM69.1961 59.9998C69.4386 59.9998 69.6703 60.1428 69.7739 60.3786L70.2742 61.5331C70.4106 61.853 70.265 62.2241 69.9466 62.3626C69.6242 62.4989 69.2566 62.3518 69.1187 62.035L68.6194 60.8805C68.4815 60.5606 68.6271 60.1895 68.947 60.0526C69.0285 60.0177 69.112 59.9998 69.1961 59.9998ZM41.7001 58.4844C41.7852 58.4844 41.8693 58.4998 41.9503 58.5357C42.2691 58.6741 42.4163 59.0442 42.2779 59.3626L41.7791 60.517C41.6396 60.8354 41.2695 60.981 40.9511 60.8441C40.6323 60.7052 40.4867 60.3361 40.6236 60.0177L41.1239 58.8622C41.2269 58.6259 41.4592 58.4844 41.7001 58.4844ZM67.1958 55.3824C67.4393 55.3824 67.6705 55.5244 67.7735 55.7618L68.2739 56.9163C68.4118 57.2346 68.2662 57.6047 67.9463 57.7426C67.6264 57.8821 67.2578 57.7349 67.1194 57.4151L66.6191 56.2621C66.4812 55.9438 66.6283 55.5721 66.9467 55.4342C67.0282 55.3994 67.1133 55.3824 67.1958 55.3824ZM43.7004 53.8645C43.783 53.8645 43.8696 53.8814 43.9496 53.9163C44.2695 54.0557 44.4166 54.4243 44.2772 54.7442L43.7778 55.8997C43.6399 56.217 43.2714 56.3641 42.9499 56.2262C42.6326 56.0883 42.4855 55.7177 42.6224 55.3994L43.1242 54.2454C43.2273 54.008 43.458 53.8645 43.7004 53.8645ZM65.1965 50.763C65.439 50.763 65.6712 50.9061 65.7742 51.1434L66.2751 52.2979C66.413 52.6162 66.2659 52.9879 65.9475 53.1243C65.6261 53.2637 65.2585 53.1166 65.1191 52.7982L64.6203 51.6437C64.4824 51.3239 64.628 50.9537 64.9463 50.8148C65.0289 50.781 65.1129 50.763 65.1965 50.763ZM45.7008 49.2477C45.7833 49.2477 45.8699 49.2646 45.9499 49.2994C46.2698 49.4373 46.4154 49.8085 46.2775 50.1273L45.7782 51.2813C45.6403 51.5986 45.2727 51.7473 44.9518 51.6089C44.6329 51.47 44.4858 51.1009 44.6242 50.781L45.123 49.627C45.225 49.3897 45.4573 49.2477 45.7008 49.2477ZM63.1977 46.1472C63.4412 46.1472 63.6724 46.2892 63.7755 46.525L64.2748 47.6795C64.4111 47.9994 64.2655 48.3695 63.9472 48.5074C63.6273 48.6453 63.2572 48.4982 63.1193 48.1798L62.62 47.0269C62.4821 46.707 62.6292 46.3359 62.9475 46.199C63.0301 46.1641 63.1141 46.1472 63.1977 46.1472ZM47.7001 44.6308C47.7836 44.6308 47.8687 44.6462 47.9502 44.6821C48.2701 44.8205 48.4157 45.1917 48.2778 45.509L47.7785 46.6634C47.6406 46.9818 47.2715 47.1299 46.949 46.991C46.6322 46.8516 46.4851 46.4825 46.6215 46.1641L47.1233 45.0086C47.2264 44.7713 47.4586 44.6308 47.7001 44.6308ZM61.1974 41.5293C61.4399 41.5293 61.6721 41.6698 61.7751 41.9082L62.2755 43.0637C62.4123 43.381 62.2668 43.7511 61.9479 43.8906C61.627 44.0259 61.2594 43.8803 61.12 43.5614L60.6212 42.4075C60.4828 42.0886 60.6289 41.7185 60.9472 41.5806C61.0287 41.5447 61.1138 41.5293 61.1974 41.5293ZM49.6999 40.0114C49.784 40.0114 49.869 40.0294 49.9506 40.0627C50.2699 40.2021 50.416 40.5722 50.2766 40.8906L49.7773 42.0461C49.6384 42.3634 49.2693 42.5105 48.9494 42.3726C48.631 42.2358 48.4854 41.8646 48.6218 41.5447L49.1221 40.3903C49.2257 40.1544 49.4579 40.0114 49.6999 40.0114ZM59.1971 36.911C59.4411 36.911 59.6718 37.0524 59.7748 37.2898L60.2751 38.4443C60.4136 38.7626 60.2675 39.1343 59.9476 39.2706C59.6267 39.4101 59.2591 39.2604 59.1197 38.9446L58.6208 37.7901C58.483 37.4708 58.6296 37.1006 58.9484 36.9612C59.0294 36.9274 59.1145 36.911 59.1971 36.911ZM51.7002 35.3941C51.7827 35.3941 51.8678 35.412 51.9493 35.4443C52.2677 35.5837 52.4148 35.9539 52.2769 36.2738L51.7766 37.4282C51.6387 37.7466 51.2721 37.8937 50.9497 37.7542C50.6298 37.6163 50.4842 37.2473 50.6221 36.9274L51.1214 35.7719C51.2245 35.5371 51.4567 35.3941 51.7002 35.3941ZM57.1983 32.2936C57.4408 32.2936 57.673 32.4346 57.776 32.6719L58.2764 33.8274C58.4143 34.1458 58.2671 34.5159 57.9488 34.6538C57.6279 34.7907 57.2603 34.6435 57.1209 34.3262L56.6205 33.1723C56.4837 32.8534 56.6292 32.4833 56.9481 32.3444C57.0306 32.3095 57.1142 32.2936 57.1983 32.2936ZM53.6995 30.7757C53.782 30.7757 53.8671 30.7926 53.9497 30.8274C54.268 30.9669 54.4136 31.337 54.2772 31.6543L53.7754 32.8098C53.6375 33.1297 53.2673 33.2738 52.95 33.1374C52.6301 32.9995 52.483 32.6289 52.6224 32.3105L53.1217 31.155C53.2248 30.9177 53.4555 30.7757 53.6995 30.7757ZM55.1979 27.6742C55.4415 27.6742 55.6737 27.8162 55.7772 28.0546L56.276 29.209C56.4139 29.5264 56.2683 29.8991 55.9485 30.0344C55.6275 30.1738 55.26 30.0252 55.1221 29.7078L54.6212 28.5539C54.4833 28.2366 54.6305 27.8664 54.9488 27.727C55.0313 27.6921 55.1154 27.6742 55.1979 27.6742Z" fill="white"/>
<path d="M55.1226 0.00787354C55.8178 0.00787354 56.3817 0.571419 56.3817 1.26656V55.0405C56.3817 55.7341 55.8178 56.2991 55.1226 56.2991C54.4275 56.2991 53.8641 55.7341 53.8641 55.0405V1.26656C53.8641 0.571419 54.4275 0.00787354 55.1226 0.00787354Z" fill="white"/>
</svg>
