<svg width="598" height="985" viewBox="0 0 598 985" fill="none" xmlns="http://www.w3.org/2000/svg">
<g opacity="0.6">
<path d="M445.752 356.196C543.837 356.196 623.35 276.683 623.35 178.598C623.35 80.5134 543.837 1 445.752 1C347.668 1 268.154 80.5134 268.154 178.598C268.154 276.683 347.668 356.196 445.752 356.196Z" stroke="url(#paint0_linear)" stroke-width="0.4" stroke-miterlimit="10"/>
<path d="M456.514 363.791C554.599 363.791 634.112 284.278 634.112 186.193C634.112 88.1086 554.599 8.59521 456.514 8.59521C358.429 8.59521 278.916 88.1086 278.916 186.193C278.916 284.278 358.429 363.791 456.514 363.791Z" stroke="url(#paint1_linear)" stroke-width="0.4" stroke-miterlimit="10"/>
<path d="M467.279 371.391C565.363 371.391 644.877 291.878 644.877 193.793C644.877 95.7087 565.363 16.1953 467.279 16.1953C369.194 16.1953 289.681 95.7087 289.681 193.793C289.681 291.878 369.194 371.391 467.279 371.391Z" stroke="url(#paint2_linear)" stroke-width="0.4" stroke-miterlimit="10"/>
<path d="M478.04 378.987C576.125 378.987 655.638 299.473 655.638 201.389C655.638 103.304 576.125 23.7905 478.04 23.7905C379.955 23.7905 300.442 103.304 300.442 201.389C300.442 299.473 379.955 378.987 478.04 378.987Z" stroke="url(#paint3_linear)" stroke-width="0.4" stroke-miterlimit="10"/>
<path d="M488.806 386.587C586.891 386.587 666.404 307.074 666.404 208.989C666.404 110.904 586.891 31.3909 488.806 31.3909C390.721 31.3909 311.208 110.904 311.208 208.989C311.208 307.074 390.721 386.587 488.806 386.587Z" stroke="url(#paint4_linear)" stroke-width="0.4" stroke-miterlimit="10"/>
<path d="M499.568 394.182C597.652 394.182 677.166 314.669 677.166 216.584C677.166 118.499 597.652 38.9861 499.568 38.9861C401.483 38.9861 321.97 118.499 321.97 216.584C321.97 314.669 401.483 394.182 499.568 394.182Z" stroke="url(#paint5_linear)" stroke-width="0.4" stroke-miterlimit="10"/>
<path d="M510.334 401.782C608.418 401.782 687.932 322.269 687.932 224.184C687.932 126.1 608.418 46.5862 510.334 46.5862C412.249 46.5862 332.736 126.1 332.736 224.184C332.736 322.269 412.249 401.782 510.334 401.782Z" stroke="url(#paint6_linear)" stroke-width="0.4" stroke-miterlimit="10"/>
<path d="M521.095 409.377C619.18 409.377 698.693 329.864 698.693 231.779C698.693 133.695 619.18 54.1814 521.095 54.1814C423.01 54.1814 343.497 133.695 343.497 231.779C343.497 329.864 423.01 409.377 521.095 409.377Z" stroke="url(#paint7_linear)" stroke-width="0.4" stroke-miterlimit="10"/>
<path d="M531.861 416.978C629.946 416.978 709.459 337.464 709.459 239.38C709.459 141.295 629.946 61.7817 531.861 61.7817C433.776 61.7817 354.263 141.295 354.263 239.38C354.263 337.464 433.776 416.978 531.861 416.978Z" stroke="url(#paint8_linear)" stroke-width="0.4" stroke-miterlimit="10"/>
<path d="M542.622 424.573C640.707 424.573 720.22 345.06 720.22 246.975C720.22 148.89 640.707 69.377 542.622 69.377C444.538 69.377 365.024 148.89 365.024 246.975C365.024 345.06 444.538 424.573 542.622 424.573Z" stroke="url(#paint9_linear)" stroke-width="0.4" stroke-miterlimit="10"/>
<path d="M553.388 432.173C651.473 432.173 730.986 352.66 730.986 254.575C730.986 156.49 651.473 76.9771 553.388 76.9771C455.304 76.9771 375.79 156.49 375.79 254.575C375.79 352.66 455.304 432.173 553.388 432.173Z" stroke="url(#paint10_linear)" stroke-width="0.4" stroke-miterlimit="10"/>
<path d="M564.149 439.768C662.233 439.768 741.747 360.255 741.747 262.17C741.747 164.086 662.233 84.5723 564.149 84.5723C466.064 84.5723 386.551 164.086 386.551 262.17C386.551 360.255 466.064 439.768 564.149 439.768Z" stroke="url(#paint11_linear)" stroke-width="0.4" stroke-miterlimit="10"/>
<path d="M574.915 447.368C672.999 447.368 752.513 367.855 752.513 269.77C752.513 171.686 672.999 92.1724 574.915 92.1724C476.83 92.1724 397.317 171.686 397.317 269.77C397.317 367.855 476.83 447.368 574.915 447.368Z" stroke="url(#paint12_linear)" stroke-width="0.4" stroke-miterlimit="10"/>
<path d="M585.676 454.964C683.761 454.964 763.274 375.45 763.274 277.366C763.274 179.281 683.761 99.7676 585.676 99.7676C487.592 99.7676 408.078 179.281 408.078 277.366C408.078 375.45 487.592 454.964 585.676 454.964Z" stroke="url(#paint13_linear)" stroke-width="0.4" stroke-miterlimit="10"/>
<path d="M596.438 462.564C694.522 462.564 774.036 383.051 774.036 284.966C774.036 186.881 694.522 107.368 596.438 107.368C498.353 107.368 418.84 186.881 418.84 284.966C418.84 383.051 498.353 462.564 596.438 462.564Z" stroke="url(#paint14_linear)" stroke-width="0.4" stroke-miterlimit="10"/>
<path d="M607.204 470.159C705.288 470.159 784.802 390.646 784.802 292.561C784.802 194.476 705.288 114.963 607.204 114.963C509.119 114.963 429.606 194.476 429.606 292.561C429.606 390.646 509.119 470.159 607.204 470.159Z" stroke="url(#paint15_linear)" stroke-width="0.4" stroke-miterlimit="10"/>
<path d="M617.965 477.759C716.05 477.759 795.563 398.246 795.563 300.161C795.563 202.077 716.05 122.563 617.965 122.563C519.881 122.563 440.367 202.077 440.367 300.161C440.367 398.246 519.881 477.759 617.965 477.759Z" stroke="url(#paint16_linear)" stroke-width="0.4" stroke-miterlimit="10"/>
<path d="M628.731 485.354C726.816 485.354 806.329 405.841 806.329 307.756C806.329 209.672 726.816 130.158 628.731 130.158C530.647 130.158 451.133 209.672 451.133 307.756C451.133 405.841 530.647 485.354 628.731 485.354Z" stroke="url(#paint17_linear)" stroke-width="0.4" stroke-miterlimit="10"/>
<path d="M639.491 492.954C737.576 492.954 817.089 413.441 817.089 315.356C817.089 217.272 737.576 137.758 639.491 137.758C541.407 137.758 461.893 217.272 461.893 315.356C461.893 413.441 541.407 492.954 639.491 492.954Z" stroke="url(#paint18_linear)" stroke-width="0.4" stroke-miterlimit="10"/>
<path d="M650.257 500.55C748.342 500.55 827.855 421.036 827.855 322.952C827.855 224.867 748.342 145.354 650.257 145.354C552.173 145.354 472.659 224.867 472.659 322.952C472.659 421.036 552.173 500.55 650.257 500.55Z" stroke="url(#paint19_linear)" stroke-width="0.4" stroke-miterlimit="10"/>
<path d="M661.019 508.15C759.104 508.15 838.617 428.636 838.617 330.552C838.617 232.467 759.104 152.954 661.019 152.954C562.934 152.954 483.421 232.467 483.421 330.552C483.421 428.636 562.934 508.15 661.019 508.15Z" stroke="url(#paint20_linear)" stroke-width="0.4" stroke-miterlimit="10"/>
<path d="M671.785 515.745C769.869 515.745 849.383 436.232 849.383 338.147C849.383 240.063 769.869 160.549 671.785 160.549C573.7 160.549 494.187 240.063 494.187 338.147C494.187 436.232 573.7 515.745 671.785 515.745Z" stroke="url(#paint21_linear)" stroke-width="0.4" stroke-miterlimit="10"/>
<path d="M682.546 523.345C780.631 523.345 860.144 443.832 860.144 345.747C860.144 247.662 780.631 168.149 682.546 168.149C584.462 168.149 504.948 247.662 504.948 345.747C504.948 443.832 584.462 523.345 682.546 523.345Z" stroke="url(#paint22_linear)" stroke-width="0.4" stroke-miterlimit="10"/>
<path d="M693.312 530.945C791.397 530.945 870.91 451.432 870.91 353.347C870.91 255.263 791.397 175.749 693.312 175.749C595.228 175.749 515.714 255.263 515.714 353.347C515.714 451.432 595.228 530.945 693.312 530.945Z" stroke="url(#paint23_linear)" stroke-width="0.4" stroke-miterlimit="10"/>
<path d="M704.074 538.541C802.159 538.541 881.672 459.027 881.672 360.943C881.672 262.858 802.159 183.344 704.074 183.344C605.989 183.344 526.476 262.858 526.476 360.943C526.476 459.027 605.989 538.541 704.074 538.541Z" stroke="url(#paint24_linear)" stroke-width="0.4" stroke-miterlimit="10"/>
<path d="M714.84 546.141C812.924 546.141 892.438 466.627 892.438 368.543C892.438 270.458 812.924 190.945 714.84 190.945C616.755 190.945 537.242 270.458 537.242 368.543C537.242 466.627 616.755 546.141 714.84 546.141Z" stroke="url(#paint25_linear)" stroke-width="0.4" stroke-miterlimit="10"/>
<path d="M725.601 553.736C823.686 553.736 903.199 474.223 903.199 376.138C903.199 278.053 823.686 198.54 725.601 198.54C627.517 198.54 548.003 278.053 548.003 376.138C548.003 474.223 627.517 553.736 725.601 553.736Z" stroke="url(#paint26_linear)" stroke-width="0.4" stroke-miterlimit="10"/>
<path d="M736.366 561.336C834.451 561.336 913.964 481.823 913.964 383.738C913.964 285.653 834.451 206.14 736.366 206.14C638.281 206.14 558.768 285.653 558.768 383.738C558.768 481.823 638.281 561.336 736.366 561.336Z" stroke="url(#paint27_linear)" stroke-width="0.4" stroke-miterlimit="10"/>
<path d="M747.128 568.931C845.212 568.931 924.726 489.418 924.726 391.333C924.726 293.248 845.212 213.735 747.128 213.735C649.043 213.735 569.53 293.248 569.53 391.333C569.53 489.418 649.043 568.931 747.128 568.931Z" stroke="url(#paint28_linear)" stroke-width="0.4" stroke-miterlimit="10"/>
<path d="M757.889 576.531C855.974 576.531 935.487 497.018 935.487 398.933C935.487 300.849 855.974 221.335 757.889 221.335C659.804 221.335 580.291 300.849 580.291 398.933C580.291 497.018 659.804 576.531 757.889 576.531Z" stroke="url(#paint29_linear)" stroke-width="0.4" stroke-miterlimit="10"/>
<path d="M768.655 584.127C866.74 584.127 946.253 504.613 946.253 406.529C946.253 308.444 866.74 228.931 768.655 228.931C670.57 228.931 591.057 308.444 591.057 406.529C591.057 504.613 670.57 584.127 768.655 584.127Z" stroke="url(#paint30_linear)" stroke-width="0.4" stroke-miterlimit="10"/>
<path d="M765.994 811.046C864.079 811.046 943.592 731.533 943.592 633.448C943.592 535.364 864.079 455.85 765.994 455.85C667.909 455.85 588.396 535.364 588.396 633.448C588.396 731.533 667.909 811.046 765.994 811.046Z" stroke="url(#paint31_linear)" stroke-width="0.4" stroke-miterlimit="10"/>
<path d="M749.66 815.857C847.744 815.857 927.258 736.344 927.258 638.259C927.258 540.175 847.744 460.661 749.66 460.661C651.575 460.661 572.062 540.175 572.062 638.259C572.062 736.344 651.575 815.857 749.66 815.857Z" stroke="url(#paint32_linear)" stroke-width="0.4" stroke-miterlimit="10"/>
<path d="M733.325 820.668C831.41 820.668 910.923 741.155 910.923 643.07C910.923 544.986 831.41 465.472 733.325 465.472C635.24 465.472 555.727 544.986 555.727 643.07C555.727 741.155 635.24 820.668 733.325 820.668Z" stroke="url(#paint33_linear)" stroke-width="0.4" stroke-miterlimit="10"/>
<path d="M716.99 825.479C815.075 825.479 894.588 745.966 894.588 647.881C894.588 549.796 815.075 470.283 716.99 470.283C618.906 470.283 539.392 549.796 539.392 647.881C539.392 745.966 618.906 825.479 716.99 825.479Z" stroke="url(#paint34_linear)" stroke-width="0.4" stroke-miterlimit="10"/>
<path d="M700.655 830.294C798.739 830.294 878.253 750.781 878.253 652.696C878.253 554.612 798.739 475.098 700.655 475.098C602.57 475.098 523.057 554.612 523.057 652.696C523.057 750.781 602.57 830.294 700.655 830.294Z" stroke="url(#paint35_linear)" stroke-width="0.4" stroke-miterlimit="10"/>
<path d="M684.32 835.105C782.405 835.105 861.918 755.592 861.918 657.507C861.918 559.423 782.405 479.909 684.32 479.909C586.235 479.909 506.722 559.423 506.722 657.507C506.722 755.592 586.235 835.105 684.32 835.105Z" stroke="url(#paint36_linear)" stroke-width="0.4" stroke-miterlimit="10"/>
<path d="M667.985 839.916C766.07 839.916 845.583 760.403 845.583 662.318C845.583 564.234 766.07 484.72 667.985 484.72C569.901 484.72 490.387 564.234 490.387 662.318C490.387 760.403 569.901 839.916 667.985 839.916Z" stroke="url(#paint37_linear)" stroke-width="0.4" stroke-miterlimit="10"/>
<path d="M651.65 844.727C749.734 844.727 829.248 765.214 829.248 667.129C829.248 569.044 749.734 489.531 651.65 489.531C553.565 489.531 474.052 569.044 474.052 667.129C474.052 765.214 553.565 844.727 651.65 844.727Z" stroke="url(#paint38_linear)" stroke-width="0.4" stroke-miterlimit="10"/>
<path d="M635.315 849.538C733.4 849.538 812.913 770.024 812.913 671.94C812.913 573.855 733.4 494.342 635.315 494.342C537.23 494.342 457.717 573.855 457.717 671.94C457.717 770.024 537.23 849.538 635.315 849.538Z" stroke="url(#paint39_linear)" stroke-width="0.4" stroke-miterlimit="10"/>
<path d="M618.98 854.354C717.065 854.354 796.578 774.84 796.578 676.756C796.578 578.671 717.065 499.158 618.98 499.158C520.896 499.158 441.382 578.671 441.382 676.756C441.382 774.84 520.896 854.354 618.98 854.354Z" stroke="url(#paint40_linear)" stroke-width="0.4" stroke-miterlimit="10"/>
<path d="M602.646 859.165C700.731 859.165 780.244 779.651 780.244 681.567C780.244 583.482 700.731 503.969 602.646 503.969C504.561 503.969 425.048 583.482 425.048 681.567C425.048 779.651 504.561 859.165 602.646 859.165Z" stroke="url(#paint41_linear)" stroke-width="0.4" stroke-miterlimit="10"/>
<path d="M586.31 863.976C684.395 863.976 763.908 784.462 763.908 686.378C763.908 588.293 684.395 508.78 586.31 508.78C488.225 508.78 408.712 588.293 408.712 686.378C408.712 784.462 488.225 863.976 586.31 863.976Z" stroke="url(#paint42_linear)" stroke-width="0.4" stroke-miterlimit="10"/>
<path d="M569.975 868.786C668.06 868.786 747.573 789.273 747.573 691.188C747.573 593.104 668.06 513.59 569.975 513.59C471.891 513.59 392.377 593.104 392.377 691.188C392.377 789.273 471.891 868.786 569.975 868.786Z" stroke="url(#paint43_linear)" stroke-width="0.4" stroke-miterlimit="10"/>
<path d="M553.641 873.602C651.726 873.602 731.239 794.088 731.239 696.004C731.239 597.919 651.726 518.406 553.641 518.406C455.556 518.406 376.043 597.919 376.043 696.004C376.043 794.088 455.556 873.602 553.641 873.602Z" stroke="url(#paint44_linear)" stroke-width="0.4" stroke-miterlimit="10"/>
<path d="M537.306 878.413C635.391 878.413 714.904 798.899 714.904 700.815C714.904 602.73 635.391 523.217 537.306 523.217C439.222 523.217 359.708 602.73 359.708 700.815C359.708 798.899 439.222 878.413 537.306 878.413Z" stroke="url(#paint45_linear)" stroke-width="0.4" stroke-miterlimit="10"/>
<path d="M520.971 883.223C619.055 883.223 698.569 803.71 698.569 705.625C698.569 607.541 619.055 528.027 520.971 528.027C422.886 528.027 343.373 607.541 343.373 705.625C343.373 803.71 422.886 883.223 520.971 883.223Z" stroke="url(#paint46_linear)" stroke-width="0.4" stroke-miterlimit="10"/>
<path d="M504.636 888.034C602.721 888.034 682.234 808.521 682.234 710.436C682.234 612.352 602.721 532.838 504.636 532.838C406.551 532.838 327.038 612.352 327.038 710.436C327.038 808.521 406.551 888.034 504.636 888.034Z" stroke="url(#paint47_linear)" stroke-width="0.4" stroke-miterlimit="10"/>
<path d="M488.301 892.845C586.386 892.845 665.899 813.332 665.899 715.247C665.899 617.162 586.386 537.649 488.301 537.649C390.217 537.649 310.703 617.162 310.703 715.247C310.703 813.332 390.217 892.845 488.301 892.845Z" stroke="url(#paint48_linear)" stroke-width="0.4" stroke-miterlimit="10"/>
<path d="M471.966 897.66C570.05 897.66 649.564 818.147 649.564 720.062C649.564 621.978 570.05 542.464 471.966 542.464C373.881 542.464 294.368 621.978 294.368 720.062C294.368 818.147 373.881 897.66 471.966 897.66Z" stroke="url(#paint49_linear)" stroke-width="0.4" stroke-miterlimit="10"/>
<path d="M455.631 902.471C553.716 902.471 633.229 822.958 633.229 724.873C633.229 626.789 553.716 547.275 455.631 547.275C357.546 547.275 278.033 626.789 278.033 724.873C278.033 822.958 357.546 902.471 455.631 902.471Z" stroke="url(#paint50_linear)" stroke-width="0.4" stroke-miterlimit="10"/>
<path d="M439.292 907.282C537.377 907.282 616.89 827.769 616.89 729.684C616.89 631.599 537.377 552.086 439.292 552.086C341.207 552.086 261.694 631.599 261.694 729.684C261.694 827.769 341.207 907.282 439.292 907.282Z" stroke="url(#paint51_linear)" stroke-width="0.4" stroke-miterlimit="10"/>
<path d="M422.956 912.093C521.041 912.093 600.554 832.58 600.554 734.495C600.554 636.41 521.041 556.897 422.956 556.897C324.872 556.897 245.358 636.41 245.358 734.495C245.358 832.58 324.872 912.093 422.956 912.093Z" stroke="url(#paint52_linear)" stroke-width="0.4" stroke-miterlimit="10"/>
<path d="M406.622 916.909C504.706 916.909 584.22 837.396 584.22 739.311C584.22 641.226 504.706 561.713 406.622 561.713C308.537 561.713 229.024 641.226 229.024 739.311C229.024 837.396 308.537 916.909 406.622 916.909Z" stroke="url(#paint53_linear)" stroke-width="0.4" stroke-miterlimit="10"/>
<path d="M390.287 921.72C488.372 921.72 567.885 842.207 567.885 744.122C567.885 646.037 488.372 566.524 390.287 566.524C292.202 566.524 212.689 646.037 212.689 744.122C212.689 842.207 292.202 921.72 390.287 921.72Z" stroke="url(#paint54_linear)" stroke-width="0.4" stroke-miterlimit="10"/>
<path d="M373.952 926.531C472.037 926.531 551.55 847.017 551.55 748.933C551.55 650.848 472.037 571.335 373.952 571.335C275.868 571.335 196.354 650.848 196.354 748.933C196.354 847.017 275.868 926.531 373.952 926.531Z" stroke="url(#paint55_linear)" stroke-width="0.4" stroke-miterlimit="10"/>
<path d="M357.617 931.342C455.701 931.342 535.215 851.828 535.215 753.744C535.215 655.659 455.701 576.146 357.617 576.146C259.532 576.146 180.019 655.659 180.019 753.744C180.019 851.828 259.532 931.342 357.617 931.342Z" stroke="url(#paint56_linear)" stroke-width="0.4" stroke-miterlimit="10"/>
<path d="M341.282 936.153C439.367 936.153 518.88 856.639 518.88 758.555C518.88 660.47 439.367 580.957 341.282 580.957C243.197 580.957 163.684 660.47 163.684 758.555C163.684 856.639 243.197 936.153 341.282 936.153Z" stroke="url(#paint57_linear)" stroke-width="0.4" stroke-miterlimit="10"/>
<path d="M324.947 940.968C423.032 940.968 502.545 861.454 502.545 763.37C502.545 665.285 423.032 585.772 324.947 585.772C226.863 585.772 147.349 665.285 147.349 763.37C147.349 861.454 226.863 940.968 324.947 940.968Z" stroke="url(#paint58_linear)" stroke-width="0.4" stroke-miterlimit="10"/>
<path d="M308.613 945.779C406.697 945.779 486.211 866.265 486.211 768.181C486.211 670.096 406.697 590.583 308.613 590.583C210.528 590.583 131.015 670.096 131.015 768.181C131.015 866.265 210.528 945.779 308.613 945.779Z" stroke="url(#paint59_linear)" stroke-width="0.4" stroke-miterlimit="10"/>
<path d="M292.277 950.59C390.362 950.59 469.875 871.076 469.875 772.992C469.875 674.907 390.362 595.394 292.277 595.394C194.192 595.394 114.679 674.907 114.679 772.992C114.679 871.076 194.192 950.59 292.277 950.59Z" stroke="url(#paint60_linear)" stroke-width="0.4" stroke-miterlimit="10"/>
<path d="M275.943 955.4C374.027 955.4 453.541 875.887 453.541 777.802C453.541 679.718 374.027 600.204 275.943 600.204C177.858 600.204 98.3445 679.718 98.3445 777.802C98.3445 875.887 177.858 955.4 275.943 955.4Z" stroke="url(#paint61_linear)" stroke-width="0.4" stroke-miterlimit="10"/>
<path d="M259.608 960.216C357.693 960.216 437.206 880.702 437.206 782.618C437.206 684.533 357.693 605.02 259.608 605.02C161.523 605.02 82.0099 684.533 82.0099 782.618C82.0099 880.702 161.523 960.216 259.608 960.216Z" stroke="url(#paint62_linear)" stroke-width="0.4" stroke-miterlimit="10"/>
<path d="M243.272 965.027C341.357 965.027 420.87 885.513 420.87 787.429C420.87 689.344 341.357 609.831 243.272 609.831C145.187 609.831 65.6741 689.344 65.6741 787.429C65.6741 885.513 145.187 965.027 243.272 965.027Z" stroke="url(#paint63_linear)" stroke-width="0.4" stroke-miterlimit="10"/>
<path d="M226.938 969.837C325.022 969.837 404.536 890.324 404.536 792.239C404.536 694.155 325.022 614.641 226.938 614.641C128.853 614.641 49.3396 694.155 49.3396 792.239C49.3396 890.324 128.853 969.837 226.938 969.837Z" stroke="url(#paint64_linear)" stroke-width="0.4" stroke-miterlimit="10"/>
<path d="M210.603 974.648C308.688 974.648 388.201 895.135 388.201 797.05C388.201 698.965 308.688 619.452 210.603 619.452C112.518 619.452 33.0049 698.965 33.0049 797.05C33.0049 895.135 112.518 974.648 210.603 974.648Z" stroke="url(#paint65_linear)" stroke-width="0.4" stroke-miterlimit="10"/>
<path d="M194.268 979.459C292.353 979.459 371.866 899.946 371.866 801.861C371.866 703.777 292.353 624.263 194.268 624.263C96.1838 624.263 16.6704 703.777 16.6704 801.861C16.6704 899.946 96.1838 979.459 194.268 979.459Z" stroke="url(#paint66_linear)" stroke-width="0.4" stroke-miterlimit="10"/>
<path d="M177.933 984.275C276.017 984.275 355.531 904.761 355.531 806.677C355.531 708.592 276.017 629.079 177.933 629.079C79.8479 629.079 0.334595 708.592 0.334595 806.677C0.334595 904.761 79.8479 984.275 177.933 984.275Z" stroke="url(#paint67_linear)" stroke-width="0.4" stroke-miterlimit="10"/>
</g>
<defs>
<linearGradient id="paint0_linear" x1="581.288" y1="317.124" x2="347.74" y2="-4.5272" gradientUnits="userSpaceOnUse">
<stop stop-color="#DEFB48"/>
<stop offset="1" stop-color="#03B3FF"/>
</linearGradient>
<linearGradient id="paint1_linear" x1="592.049" y1="324.72" x2="358.502" y2="3.068" gradientUnits="userSpaceOnUse">
<stop stop-color="#DEFB48"/>
<stop offset="1" stop-color="#03B3FF"/>
</linearGradient>
<linearGradient id="paint2_linear" x1="602.814" y1="332.32" x2="369.267" y2="10.6681" gradientUnits="userSpaceOnUse">
<stop stop-color="#DEFB48"/>
<stop offset="1" stop-color="#03B3FF"/>
</linearGradient>
<linearGradient id="paint3_linear" x1="613.575" y1="339.915" x2="380.028" y2="18.2633" gradientUnits="userSpaceOnUse">
<stop stop-color="#DEFB48"/>
<stop offset="1" stop-color="#03B3FF"/>
</linearGradient>
<linearGradient id="paint4_linear" x1="624.341" y1="347.515" x2="390.794" y2="25.8637" gradientUnits="userSpaceOnUse">
<stop stop-color="#DEFB48"/>
<stop offset="1" stop-color="#03B3FF"/>
</linearGradient>
<linearGradient id="paint5_linear" x1="635.103" y1="355.111" x2="401.556" y2="33.4589" gradientUnits="userSpaceOnUse">
<stop stop-color="#DEFB48"/>
<stop offset="1" stop-color="#03B3FF"/>
</linearGradient>
<linearGradient id="paint6_linear" x1="645.869" y1="362.711" x2="412.322" y2="41.059" gradientUnits="userSpaceOnUse">
<stop stop-color="#DEFB48"/>
<stop offset="1" stop-color="#03B3FF"/>
</linearGradient>
<linearGradient id="paint7_linear" x1="656.63" y1="370.306" x2="423.083" y2="48.6542" gradientUnits="userSpaceOnUse">
<stop stop-color="#DEFB48"/>
<stop offset="1" stop-color="#03B3FF"/>
</linearGradient>
<linearGradient id="paint8_linear" x1="667.396" y1="377.906" x2="433.849" y2="56.2545" gradientUnits="userSpaceOnUse">
<stop stop-color="#DEFB48"/>
<stop offset="1" stop-color="#03B3FF"/>
</linearGradient>
<linearGradient id="paint9_linear" x1="678.158" y1="385.501" x2="444.611" y2="63.8498" gradientUnits="userSpaceOnUse">
<stop stop-color="#DEFB48"/>
<stop offset="1" stop-color="#03B3FF"/>
</linearGradient>
<linearGradient id="paint10_linear" x1="688.924" y1="393.102" x2="455.377" y2="71.4499" gradientUnits="userSpaceOnUse">
<stop stop-color="#DEFB48"/>
<stop offset="1" stop-color="#03B3FF"/>
</linearGradient>
<linearGradient id="paint11_linear" x1="699.684" y1="400.697" x2="466.137" y2="79.0451" gradientUnits="userSpaceOnUse">
<stop stop-color="#DEFB48"/>
<stop offset="1" stop-color="#03B3FF"/>
</linearGradient>
<linearGradient id="paint12_linear" x1="710.45" y1="408.297" x2="476.903" y2="86.6452" gradientUnits="userSpaceOnUse">
<stop stop-color="#DEFB48"/>
<stop offset="1" stop-color="#03B3FF"/>
</linearGradient>
<linearGradient id="paint13_linear" x1="721.212" y1="415.892" x2="487.664" y2="94.2404" gradientUnits="userSpaceOnUse">
<stop stop-color="#DEFB48"/>
<stop offset="1" stop-color="#03B3FF"/>
</linearGradient>
<linearGradient id="paint14_linear" x1="731.973" y1="423.492" x2="498.426" y2="101.841" gradientUnits="userSpaceOnUse">
<stop stop-color="#DEFB48"/>
<stop offset="1" stop-color="#03B3FF"/>
</linearGradient>
<linearGradient id="paint15_linear" x1="742.739" y1="431.088" x2="509.192" y2="109.436" gradientUnits="userSpaceOnUse">
<stop stop-color="#DEFB48"/>
<stop offset="1" stop-color="#03B3FF"/>
</linearGradient>
<linearGradient id="paint16_linear" x1="753.501" y1="438.688" x2="519.953" y2="117.036" gradientUnits="userSpaceOnUse">
<stop stop-color="#DEFB48"/>
<stop offset="1" stop-color="#03B3FF"/>
</linearGradient>
<linearGradient id="paint17_linear" x1="764.267" y1="446.283" x2="530.719" y2="124.631" gradientUnits="userSpaceOnUse">
<stop stop-color="#DEFB48"/>
<stop offset="1" stop-color="#03B3FF"/>
</linearGradient>
<linearGradient id="paint18_linear" x1="775.027" y1="453.883" x2="541.48" y2="132.231" gradientUnits="userSpaceOnUse">
<stop stop-color="#DEFB48"/>
<stop offset="1" stop-color="#03B3FF"/>
</linearGradient>
<linearGradient id="paint19_linear" x1="785.793" y1="461.478" x2="552.246" y2="139.827" gradientUnits="userSpaceOnUse">
<stop stop-color="#DEFB48"/>
<stop offset="1" stop-color="#03B3FF"/>
</linearGradient>
<linearGradient id="paint20_linear" x1="796.554" y1="469.078" x2="563.007" y2="147.426" gradientUnits="userSpaceOnUse">
<stop stop-color="#DEFB48"/>
<stop offset="1" stop-color="#03B3FF"/>
</linearGradient>
<linearGradient id="paint21_linear" x1="807.32" y1="476.674" x2="573.773" y2="155.022" gradientUnits="userSpaceOnUse">
<stop stop-color="#DEFB48"/>
<stop offset="1" stop-color="#03B3FF"/>
</linearGradient>
<linearGradient id="paint22_linear" x1="818.082" y1="484.273" x2="584.535" y2="162.622" gradientUnits="userSpaceOnUse">
<stop stop-color="#DEFB48"/>
<stop offset="1" stop-color="#03B3FF"/>
</linearGradient>
<linearGradient id="paint23_linear" x1="828.848" y1="491.874" x2="595.301" y2="170.222" gradientUnits="userSpaceOnUse">
<stop stop-color="#DEFB48"/>
<stop offset="1" stop-color="#03B3FF"/>
</linearGradient>
<linearGradient id="paint24_linear" x1="839.609" y1="499.469" x2="606.062" y2="177.817" gradientUnits="userSpaceOnUse">
<stop stop-color="#DEFB48"/>
<stop offset="1" stop-color="#03B3FF"/>
</linearGradient>
<linearGradient id="paint25_linear" x1="850.375" y1="507.069" x2="616.828" y2="185.417" gradientUnits="userSpaceOnUse">
<stop stop-color="#DEFB48"/>
<stop offset="1" stop-color="#03B3FF"/>
</linearGradient>
<linearGradient id="paint26_linear" x1="861.137" y1="514.664" x2="627.59" y2="193.013" gradientUnits="userSpaceOnUse">
<stop stop-color="#DEFB48"/>
<stop offset="1" stop-color="#03B3FF"/>
</linearGradient>
<linearGradient id="paint27_linear" x1="871.901" y1="522.264" x2="638.354" y2="200.613" gradientUnits="userSpaceOnUse">
<stop stop-color="#DEFB48"/>
<stop offset="1" stop-color="#03B3FF"/>
</linearGradient>
<linearGradient id="paint28_linear" x1="882.663" y1="529.86" x2="649.116" y2="208.208" gradientUnits="userSpaceOnUse">
<stop stop-color="#DEFB48"/>
<stop offset="1" stop-color="#03B3FF"/>
</linearGradient>
<linearGradient id="paint29_linear" x1="893.424" y1="537.46" x2="659.877" y2="215.808" gradientUnits="userSpaceOnUse">
<stop stop-color="#DEFB48"/>
<stop offset="1" stop-color="#03B3FF"/>
</linearGradient>
<linearGradient id="paint30_linear" x1="904.19" y1="545.055" x2="670.643" y2="223.403" gradientUnits="userSpaceOnUse">
<stop stop-color="#DEFB48"/>
<stop offset="1" stop-color="#03B3FF"/>
</linearGradient>
<linearGradient id="paint31_linear" x1="901.529" y1="771.975" x2="667.982" y2="450.323" gradientUnits="userSpaceOnUse">
<stop stop-color="#DEFB48"/>
<stop offset="1" stop-color="#03B3FF"/>
</linearGradient>
<linearGradient id="paint32_linear" x1="885.195" y1="776.786" x2="651.648" y2="455.134" gradientUnits="userSpaceOnUse">
<stop stop-color="#DEFB48"/>
<stop offset="1" stop-color="#03B3FF"/>
</linearGradient>
<linearGradient id="paint33_linear" x1="868.86" y1="781.597" x2="635.313" y2="459.945" gradientUnits="userSpaceOnUse">
<stop stop-color="#DEFB48"/>
<stop offset="1" stop-color="#03B3FF"/>
</linearGradient>
<linearGradient id="paint34_linear" x1="852.526" y1="786.407" x2="618.979" y2="464.756" gradientUnits="userSpaceOnUse">
<stop stop-color="#DEFB48"/>
<stop offset="1" stop-color="#03B3FF"/>
</linearGradient>
<linearGradient id="paint35_linear" x1="836.19" y1="791.223" x2="602.643" y2="469.571" gradientUnits="userSpaceOnUse">
<stop stop-color="#DEFB48"/>
<stop offset="1" stop-color="#03B3FF"/>
</linearGradient>
<linearGradient id="paint36_linear" x1="819.855" y1="796.034" x2="586.308" y2="474.382" gradientUnits="userSpaceOnUse">
<stop stop-color="#DEFB48"/>
<stop offset="1" stop-color="#03B3FF"/>
</linearGradient>
<linearGradient id="paint37_linear" x1="803.521" y1="800.845" x2="569.973" y2="479.193" gradientUnits="userSpaceOnUse">
<stop stop-color="#DEFB48"/>
<stop offset="1" stop-color="#03B3FF"/>
</linearGradient>
<linearGradient id="paint38_linear" x1="787.185" y1="805.655" x2="553.638" y2="484.004" gradientUnits="userSpaceOnUse">
<stop stop-color="#DEFB48"/>
<stop offset="1" stop-color="#03B3FF"/>
</linearGradient>
<linearGradient id="paint39_linear" x1="770.85" y1="810.466" x2="537.303" y2="488.815" gradientUnits="userSpaceOnUse">
<stop stop-color="#DEFB48"/>
<stop offset="1" stop-color="#03B3FF"/>
</linearGradient>
<linearGradient id="paint40_linear" x1="754.516" y1="815.282" x2="520.969" y2="493.63" gradientUnits="userSpaceOnUse">
<stop stop-color="#DEFB48"/>
<stop offset="1" stop-color="#03B3FF"/>
</linearGradient>
<linearGradient id="paint41_linear" x1="738.181" y1="820.093" x2="504.634" y2="498.442" gradientUnits="userSpaceOnUse">
<stop stop-color="#DEFB48"/>
<stop offset="1" stop-color="#03B3FF"/>
</linearGradient>
<linearGradient id="paint42_linear" x1="721.845" y1="824.904" x2="488.298" y2="503.252" gradientUnits="userSpaceOnUse">
<stop stop-color="#DEFB48"/>
<stop offset="1" stop-color="#03B3FF"/>
</linearGradient>
<linearGradient id="paint43_linear" x1="705.511" y1="829.715" x2="471.964" y2="508.063" gradientUnits="userSpaceOnUse">
<stop stop-color="#DEFB48"/>
<stop offset="1" stop-color="#03B3FF"/>
</linearGradient>
<linearGradient id="paint44_linear" x1="689.176" y1="834.53" x2="455.629" y2="512.879" gradientUnits="userSpaceOnUse">
<stop stop-color="#DEFB48"/>
<stop offset="1" stop-color="#03B3FF"/>
</linearGradient>
<linearGradient id="paint45_linear" x1="672.842" y1="839.341" x2="439.294" y2="517.689" gradientUnits="userSpaceOnUse">
<stop stop-color="#DEFB48"/>
<stop offset="1" stop-color="#03B3FF"/>
</linearGradient>
<linearGradient id="paint46_linear" x1="656.506" y1="844.152" x2="422.959" y2="522.5" gradientUnits="userSpaceOnUse">
<stop stop-color="#DEFB48"/>
<stop offset="1" stop-color="#03B3FF"/>
</linearGradient>
<linearGradient id="paint47_linear" x1="640.171" y1="848.963" x2="406.624" y2="527.311" gradientUnits="userSpaceOnUse">
<stop stop-color="#DEFB48"/>
<stop offset="1" stop-color="#03B3FF"/>
</linearGradient>
<linearGradient id="paint48_linear" x1="623.837" y1="853.774" x2="390.29" y2="532.122" gradientUnits="userSpaceOnUse">
<stop stop-color="#DEFB48"/>
<stop offset="1" stop-color="#03B3FF"/>
</linearGradient>
<linearGradient id="paint49_linear" x1="607.501" y1="858.589" x2="373.954" y2="536.937" gradientUnits="userSpaceOnUse">
<stop stop-color="#DEFB48"/>
<stop offset="1" stop-color="#03B3FF"/>
</linearGradient>
<linearGradient id="paint50_linear" x1="591.166" y1="863.4" x2="357.619" y2="541.748" gradientUnits="userSpaceOnUse">
<stop stop-color="#DEFB48"/>
<stop offset="1" stop-color="#03B3FF"/>
</linearGradient>
<linearGradient id="paint51_linear" x1="574.827" y1="868.211" x2="341.28" y2="546.559" gradientUnits="userSpaceOnUse">
<stop stop-color="#DEFB48"/>
<stop offset="1" stop-color="#03B3FF"/>
</linearGradient>
<linearGradient id="paint52_linear" x1="558.491" y1="873.021" x2="324.944" y2="551.37" gradientUnits="userSpaceOnUse">
<stop stop-color="#DEFB48"/>
<stop offset="1" stop-color="#03B3FF"/>
</linearGradient>
<linearGradient id="paint53_linear" x1="542.157" y1="877.837" x2="308.61" y2="556.186" gradientUnits="userSpaceOnUse">
<stop stop-color="#DEFB48"/>
<stop offset="1" stop-color="#03B3FF"/>
</linearGradient>
<linearGradient id="paint54_linear" x1="525.822" y1="882.648" x2="292.275" y2="560.997" gradientUnits="userSpaceOnUse">
<stop stop-color="#DEFB48"/>
<stop offset="1" stop-color="#03B3FF"/>
</linearGradient>
<linearGradient id="paint55_linear" x1="509.488" y1="887.459" x2="275.941" y2="565.808" gradientUnits="userSpaceOnUse">
<stop stop-color="#DEFB48"/>
<stop offset="1" stop-color="#03B3FF"/>
</linearGradient>
<linearGradient id="paint56_linear" x1="493.152" y1="892.27" x2="259.605" y2="570.618" gradientUnits="userSpaceOnUse">
<stop stop-color="#DEFB48"/>
<stop offset="1" stop-color="#03B3FF"/>
</linearGradient>
<linearGradient id="paint57_linear" x1="476.817" y1="897.081" x2="243.27" y2="575.429" gradientUnits="userSpaceOnUse">
<stop stop-color="#DEFB48"/>
<stop offset="1" stop-color="#03B3FF"/>
</linearGradient>
<linearGradient id="paint58_linear" x1="460.483" y1="901.896" x2="226.936" y2="580.245" gradientUnits="userSpaceOnUse">
<stop stop-color="#DEFB48"/>
<stop offset="1" stop-color="#03B3FF"/>
</linearGradient>
<linearGradient id="paint59_linear" x1="444.148" y1="906.707" x2="210.601" y2="585.056" gradientUnits="userSpaceOnUse">
<stop stop-color="#DEFB48"/>
<stop offset="1" stop-color="#03B3FF"/>
</linearGradient>
<linearGradient id="paint60_linear" x1="427.812" y1="911.518" x2="194.265" y2="589.866" gradientUnits="userSpaceOnUse">
<stop stop-color="#DEFB48"/>
<stop offset="1" stop-color="#03B3FF"/>
</linearGradient>
<linearGradient id="paint61_linear" x1="411.478" y1="916.329" x2="177.931" y2="594.677" gradientUnits="userSpaceOnUse">
<stop stop-color="#DEFB48"/>
<stop offset="1" stop-color="#03B3FF"/>
</linearGradient>
<linearGradient id="paint62_linear" x1="395.143" y1="921.144" x2="161.596" y2="599.493" gradientUnits="userSpaceOnUse">
<stop stop-color="#DEFB48"/>
<stop offset="1" stop-color="#03B3FF"/>
</linearGradient>
<linearGradient id="paint63_linear" x1="378.807" y1="925.955" x2="145.26" y2="604.303" gradientUnits="userSpaceOnUse">
<stop stop-color="#DEFB48"/>
<stop offset="1" stop-color="#03B3FF"/>
</linearGradient>
<linearGradient id="paint64_linear" x1="362.473" y1="930.766" x2="128.926" y2="609.114" gradientUnits="userSpaceOnUse">
<stop stop-color="#DEFB48"/>
<stop offset="1" stop-color="#03B3FF"/>
</linearGradient>
<linearGradient id="paint65_linear" x1="346.138" y1="935.577" x2="112.591" y2="613.925" gradientUnits="userSpaceOnUse">
<stop stop-color="#DEFB48"/>
<stop offset="1" stop-color="#03B3FF"/>
</linearGradient>
<linearGradient id="paint66_linear" x1="329.804" y1="940.388" x2="96.2566" y2="618.736" gradientUnits="userSpaceOnUse">
<stop stop-color="#DEFB48"/>
<stop offset="1" stop-color="#03B3FF"/>
</linearGradient>
<linearGradient id="paint67_linear" x1="313.468" y1="945.203" x2="79.9208" y2="623.551" gradientUnits="userSpaceOnUse">
<stop stop-color="#DEFB48"/>
<stop offset="1" stop-color="#03B3FF"/>
</linearGradient>
</defs>
</svg>
