<svg width="1440" height="1612" viewBox="0 0 1440 1612" fill="none" xmlns="http://www.w3.org/2000/svg">
<path d="M1342.54 1140.26C1391.73 1063.87 1387.07 955.753 1332.18 900.01L1103.45 667.73C1048.56 611.986 918.5 583.28 814.43 603.929L380.737 689.994C276.659 710.643 151.267 790.051 102.077 866.444L-102.898 1184.79C-152.088 1261.18 -147.426 1369.3 -92.5374 1425.04L136.181 1657.32C191.07 1713.06 321.132 1741.77 425.202 1721.12L858.895 1635.05C962.973 1614.41 1088.37 1535 1137.56 1458.6L1342.54 1140.26Z" stroke="url(#paint0_linear)" stroke-miterlimit="10"/>
<path d="M1357.63 1165.62C1410.52 1087.88 1409.61 975.161 1355.62 915.136L1130.65 665.008C1076.66 604.983 945.047 570.372 838.175 588.085L392.831 661.914C285.959 679.627 155.256 757.729 102.37 835.475L-117.998 1159.43C-170.884 1237.17 -169.974 1349.89 -115.988 1409.91L108.987 1660.04C162.973 1720.07 294.586 1754.68 401.458 1736.97L846.802 1663.14C953.674 1645.42 1084.38 1567.32 1137.26 1489.58L1357.63 1165.62Z" stroke="url(#paint1_linear)" stroke-miterlimit="10"/>
<path d="M1372.12 1192.57C1428.82 1113.56 1431.9 996.181 1378.99 931.732L1158.47 663.163C1105.55 598.714 972.566 557.89 862.948 572.453L406.168 633.119C296.549 647.674 160.48 724.233 103.779 803.245L-132.482 1132.48C-189.183 1211.49 -192.27 1328.87 -139.352 1393.32L81.1667 1661.89C134.084 1726.33 267.067 1767.16 376.685 1752.6L833.466 1691.93C943.084 1677.37 1079.15 1600.82 1135.85 1521.8L1372.12 1192.57Z" stroke="url(#paint2_linear)" stroke-miterlimit="10"/>
<path d="M1385.93 1221.15C1446.57 1140.96 1453.9 1018.88 1402.23 949.868L1186.91 662.264C1135.24 593.248 1001.08 545.918 888.781 557.086L420.802 603.64C308.501 614.807 167.01 689.562 106.375 769.753L-146.285 1103.91C-206.92 1184.1 -214.249 1306.18 -162.582 1375.2L52.7375 1662.8C104.405 1731.81 238.566 1779.14 350.868 1767.98L818.847 1721.42C931.149 1710.26 1072.64 1635.5 1133.27 1555.31L1385.93 1221.15Z" stroke="url(#paint3_linear)" stroke-miterlimit="10"/>
<path d="M1399 1251.4C1463.69 1170.13 1475.51 1043.3 1425.28 969.579L1215.94 662.346C1165.71 588.621 1030.58 534.469 915.651 542.019L436.757 573.464C321.836 581.015 174.876 653.688 110.189 734.964L-159.369 1073.65C-224.056 1154.92 -235.88 1281.75 -185.646 1355.47L23.6898 1662.71C73.9243 1736.43 209.052 1790.58 323.981 1783.03L802.875 1751.59C917.796 1744.04 1064.76 1671.37 1129.44 1590.09L1399 1251.4Z" stroke="url(#paint4_linear)" stroke-miterlimit="10"/>
<path d="M1411.25 1283.38C1480.12 1201.12 1496.69 1069.53 1448.09 990.948L1245.55 663.494C1196.95 584.917 1061.08 523.633 943.606 527.306L454.114 542.637C336.652 546.317 184.2 616.631 115.334 698.888L-171.621 1041.67C-240.486 1123.93 -257.06 1255.53 -208.456 1334.11L-5.91893 1661.56C42.6852 1740.14 178.557 1801.42 296.026 1797.75L785.518 1782.42C902.98 1778.74 1055.43 1708.42 1124.3 1626.16L1411.25 1283.38Z" stroke="url(#paint5_linear)" stroke-miterlimit="10"/>
<path d="M1422.61 1317.11C1495.77 1233.98 1517.36 1097.59 1470.59 1014.02L1275.71 665.764C1228.94 582.193 1092.56 513.454 972.638 513.019L472.912 511.182C352.989 510.739 195.02 578.394 121.864 661.53L-182.978 1007.95C-256.133 1091.08 -277.724 1227.47 -230.956 1311.04L-36.0732 1659.29C10.6947 1742.87 147.073 1811.6 266.996 1812.04L766.721 1813.88C886.645 1814.32 1044.61 1746.66 1117.77 1663.53L1422.61 1317.11Z" stroke="url(#paint6_linear)" stroke-miterlimit="10"/>
<path d="M1432.99 1352.64C1510.56 1268.77 1537.43 1127.56 1492.71 1038.86L1306.38 669.236C1261.66 580.536 1125.03 504.017 1002.75 499.204L493.205 479.125C370.923 474.305 207.421 538.992 129.857 622.879L-193.355 972.423C-270.918 1056.3 -297.789 1197.51 -253.071 1286.21L-66.7354 1655.82C-22.0174 1744.52 114.614 1821.04 236.888 1825.86L746.435 1845.94C868.709 1850.76 1032.22 1786.07 1109.78 1702.18L1432.99 1352.64Z" stroke="url(#paint7_linear)" stroke-miterlimit="10"/>
<path d="M1442.31 1390C1524.39 1305.5 1556.83 1159.48 1514.39 1065.51L1337.53 673.943C1295.09 579.98 1158.47 495.356 1033.95 485.89L515.042 446.467C390.512 437.009 221.471 498.403 139.387 582.908L-202.662 935.048C-284.745 1019.55 -317.179 1165.57 -274.741 1259.54L-97.8791 1651.11C-55.4406 1745.07 81.1748 1829.69 205.697 1839.16L724.607 1878.58C849.137 1888.04 1018.18 1826.65 1100.26 1742.14L1442.31 1390Z" stroke="url(#paint8_linear)" stroke-miterlimit="10"/>
<path d="M1450.49 1429.23C1537.21 1344.25 1575.48 1193.42 1535.55 1094.05L1369.13 679.983C1329.19 580.622 1192.9 487.561 1066.24 473.18L538.469 413.274C411.819 398.901 237.244 456.67 150.523 541.658L-210.846 895.816C-297.567 980.804 -335.842 1131.63 -295.905 1231L-129.49 1645.07C-89.553 1744.43 46.7458 1837.49 173.397 1851.87L701.172 1911.78C827.822 1926.15 1002.4 1868.38 1089.12 1783.39L1450.49 1429.23Z" stroke="url(#paint9_linear)" stroke-miterlimit="10"/>
<path d="M1457.42 1470.37C1548.88 1385.05 1593.28 1229.42 1556.1 1124.52L1401.14 687.42C1363.95 582.526 1228.27 480.696 1099.62 461.123L563.535 379.57C434.89 359.997 254.799 413.793 163.345 499.121L-217.779 854.673C-309.241 939.993 -353.642 1095.63 -316.459 1200.52L-161.498 1637.63C-124.307 1742.52 11.375 1844.35 140.02 1863.92L676.106 1945.47C804.751 1965.05 984.842 1911.25 1076.3 1825.92L1457.42 1470.37Z" stroke="url(#paint10_linear)" stroke-miterlimit="10"/>
<path d="M1463.03 1513.46C1559.34 1427.96 1610.16 1267.56 1575.97 1157L1433.51 696.33C1399.32 585.778 1264.58 474.838 1134.09 449.788L590.302 345.401C459.805 320.351 274.237 369.81 177.931 455.304L-223.399 811.584C-319.704 897.086 -370.533 1057.49 -336.341 1168.04L-193.877 1628.71C-159.685 1739.26 -24.9457 1850.2 105.544 1875.25L649.33 1979.64C779.827 2004.69 965.395 1955.23 1061.7 1869.74L1463.03 1513.46Z" stroke="url(#paint11_linear)" stroke-miterlimit="10"/>
<path d="M1467.22 1558.51C1568.48 1473.01 1626.02 1307.87 1595.1 1191.54L1466.22 706.788C1435.29 590.458 1301.84 470.068 1169.65 439.24L618.819 310.801C486.636 279.981 295.631 324.723 194.378 410.225L-227.577 766.544C-328.838 852.047 -386.377 1017.19 -355.455 1133.52L-226.58 1618.27C-195.649 1734.6 -62.1999 1854.99 69.9912 1885.82L620.822 2014.25C753.005 2045.07 944.01 2000.33 1045.26 1914.83L1467.22 1558.51Z" stroke="url(#paint12_linear)" stroke-miterlimit="10"/>
<path d="M1469.89 1605.57C1576.2 1520.23 1640.76 1350.41 1613.35 1228.19L1499.19 718.86C1471.8 596.634 1339.99 466.445 1206.29 429.555L649.132 275.82C515.429 238.93 319.058 278.558 212.748 363.894L-230.245 719.485C-336.555 804.822 -401.115 974.639 -373.714 1096.87L-259.553 1606.19C-232.16 1728.42 -100.349 1858.61 33.3539 1895.5L590.508 2049.23C724.211 2086.12 920.582 2046.49 1026.89 1961.16L1469.89 1605.57Z" stroke="url(#paint13_linear)" stroke-miterlimit="10"/>
<path d="M1470.93 1654.65C1582.38 1569.68 1654.27 1395.24 1630.68 1267L1532.4 732.628C1508.81 604.394 1379.03 464.066 1243.99 420.805L681.289 240.508C546.257 197.239 344.583 231.359 233.136 316.331L-231.29 670.402C-342.736 755.374 -414.626 929.814 -391.04 1058.05L-292.755 1592.42C-269.169 1720.66 -139.392 1860.98 -4.35194 1904.25L558.351 2084.54C693.383 2127.81 895.057 2093.69 1006.5 2008.72L1470.93 1654.65Z" stroke="url(#paint14_linear)" stroke-miterlimit="10"/>
<path d="M1470.24 1705.78C1586.92 1621.38 1666.45 1442.39 1646.96 1308.04L1565.76 748.159C1546.28 613.799 1418.92 463.009 1282.76 413.059L715.339 204.911C579.174 154.961 372.3 183.145 255.614 267.555L-230.601 619.268C-347.279 703.67 -426.806 882.661 -407.32 1017.01L-326.123 1576.89C-306.637 1711.25 -179.282 1862.04 -43.1177 1911.99L524.302 2120.14C660.466 2170.09 867.34 2141.9 984.026 2057.49L1470.24 1705.78Z" stroke="url(#paint15_linear)" stroke-miterlimit="10"/>
<path d="M1467.72 1758.99C1589.72 1675.37 1677.19 1491.93 1662.1 1351.35L1599.23 765.55C1584.15 624.97 1459.64 463.36 1322.57 406.406L751.327 169.084C614.244 112.13 402.273 133.958 280.276 217.585L-228.092 566.069C-350.081 649.695 -437.546 833.134 -422.461 973.707L-359.594 1559.5C-344.509 1700.08 -220.003 1861.69 -82.9285 1918.65L488.306 2155.97C625.388 2212.92 837.359 2191.1 959.356 2107.47L1467.72 1758.99Z" stroke="url(#paint16_linear)" stroke-miterlimit="10"/>
<path d="M1463.26 1814.29C1590.65 1731.67 1686.38 1543.89 1676 1396.99L1632.75 784.87C1622.37 637.973 1501.16 465.204 1363.39 400.936L789.309 133.111C651.546 68.844 434.597 83.8582 307.218 166.48L-223.62 510.768C-351.007 593.39 -446.743 781.174 -436.359 928.07L-393.105 1540.19C-382.729 1687.09 -261.516 1859.86 -123.753 1924.13L450.331 2191.95C588.094 2256.22 805.044 2241.2 932.422 2158.58L1463.26 1814.29Z" stroke="url(#paint17_linear)" stroke-miterlimit="10"/>
<path d="M1456.74 1871.69C1589.59 1790.31 1693.9 1598.3 1688.55 1445L1666.24 806.194C1660.89 652.895 1543.43 468.633 1405.23 396.712L829.326 97.0308C691.12 25.118 469.35 32.8586 336.502 114.237L-217.098 453.358C-349.946 534.737 -454.262 726.747 -448.912 880.046L-426.6 1518.86C-421.25 1672.16 -303.788 1856.42 -165.59 1928.34L410.315 2228.02C548.521 2299.93 770.29 2292.19 903.138 2210.81L1456.74 1871.69Z" stroke="url(#paint18_linear)" stroke-miterlimit="10"/>
<path d="M1448.04 1931.21C1586.41 1851.32 1699.63 1655.22 1699.63 1495.44V829.6C1699.63 669.819 1586.41 473.716 1448.04 393.826L871.416 60.9181C733.044 -18.9727 506.605 -18.9727 368.232 60.9181L-208.4 393.834C-346.78 473.724 -460 669.827 -460 829.608V1495.45C-460 1655.23 -346.78 1851.33 -208.408 1931.22L368.224 2264.14C506.597 2344.03 733.036 2344.03 871.408 2264.14L1448.04 1931.21Z" stroke="url(#paint19_linear)" stroke-miterlimit="10"/>
<defs>
<linearGradient id="paint0_linear" x1="16.3955" y1="549.18" x2="1578.75" y2="1269.84" gradientUnits="userSpaceOnUse">
<stop stop-color="#0B0A15"/>
<stop offset="0.505208" stop-color="#0F2EEE"/>
<stop offset="1" stop-color="#03B3FF"/>
</linearGradient>
<linearGradient id="paint1_linear" x1="0.3455" y1="534.227" x2="1603.04" y2="1275.08" gradientUnits="userSpaceOnUse">
<stop stop-color="#0B0A15"/>
<stop offset="0.505208" stop-color="#0F2EEE"/>
<stop offset="1" stop-color="#03B3FF"/>
</linearGradient>
<linearGradient id="paint2_linear" x1="-15.6267" y1="519.098" x2="1627.42" y2="1279.88" gradientUnits="userSpaceOnUse">
<stop stop-color="#0B0A15"/>
<stop offset="0.505208" stop-color="#0F2EEE"/>
<stop offset="1" stop-color="#03B3FF"/>
</linearGradient>
<linearGradient id="paint3_linear" x1="-31.4948" y1="503.852" x2="1651.86" y2="1284.27" gradientUnits="userSpaceOnUse">
<stop stop-color="#0B0A15"/>
<stop offset="0.505208" stop-color="#0F2EEE"/>
<stop offset="1" stop-color="#03B3FF"/>
</linearGradient>
<linearGradient id="paint4_linear" x1="-47.2608" y1="488.514" x2="1676.28" y2="1288.27" gradientUnits="userSpaceOnUse">
<stop stop-color="#0B0A15"/>
<stop offset="0.505208" stop-color="#0F2EEE"/>
<stop offset="1" stop-color="#03B3FF"/>
</linearGradient>
<linearGradient id="paint5_linear" x1="-62.8616" y1="473.142" x2="1700.63" y2="1291.9" gradientUnits="userSpaceOnUse">
<stop stop-color="#0B0A15"/>
<stop offset="0.505208" stop-color="#0F2EEE"/>
<stop offset="1" stop-color="#03B3FF"/>
</linearGradient>
<linearGradient id="paint6_linear" x1="-78.2705" y1="455.816" x2="1726.63" y2="1291.7" gradientUnits="userSpaceOnUse">
<stop stop-color="#0B0A15"/>
<stop offset="0.505208" stop-color="#0F2EEE"/>
<stop offset="1" stop-color="#03B3FF"/>
</linearGradient>
<linearGradient id="paint7_linear" x1="-93.4463" y1="420.761" x2="1767.92" y2="1259.92" gradientUnits="userSpaceOnUse">
<stop stop-color="#0B0A15"/>
<stop offset="0.505208" stop-color="#0F2EEE"/>
<stop offset="1" stop-color="#03B3FF"/>
</linearGradient>
<linearGradient id="paint8_linear" x1="-108.353" y1="384.559" x2="1808.92" y2="1225.93" gradientUnits="userSpaceOnUse">
<stop stop-color="#0B0A15"/>
<stop offset="0.505208" stop-color="#0F2EEE"/>
<stop offset="1" stop-color="#03B3FF"/>
</linearGradient>
<linearGradient id="paint9_linear" x1="-122.972" y1="347.207" x2="1849.54" y2="1189.74" gradientUnits="userSpaceOnUse">
<stop stop-color="#0B0A15"/>
<stop offset="0.505208" stop-color="#0F2EEE"/>
<stop offset="1" stop-color="#03B3FF"/>
</linearGradient>
<linearGradient id="paint10_linear" x1="-137.226" y1="308.656" x2="1889.69" y2="1151.21" gradientUnits="userSpaceOnUse">
<stop stop-color="#0B0A15"/>
<stop offset="0.505208" stop-color="#0F2EEE"/>
<stop offset="1" stop-color="#03B3FF"/>
</linearGradient>
<linearGradient id="paint11_linear" x1="-151.093" y1="268.88" x2="1929.27" y2="1110.29" gradientUnits="userSpaceOnUse">
<stop stop-color="#0B0A15"/>
<stop offset="0.505208" stop-color="#0F2EEE"/>
<stop offset="1" stop-color="#03B3FF"/>
</linearGradient>
<linearGradient id="paint12_linear" x1="-164.502" y1="227.83" x2="1968.2" y2="1066.87" gradientUnits="userSpaceOnUse">
<stop stop-color="#0B0A15"/>
<stop offset="0.505208" stop-color="#0F2EEE"/>
<stop offset="1" stop-color="#03B3FF"/>
</linearGradient>
<linearGradient id="paint13_linear" x1="-177.416" y1="185.471" x2="2006.34" y2="1020.88" gradientUnits="userSpaceOnUse">
<stop stop-color="#0B0A15"/>
<stop offset="0.505208" stop-color="#0F2EEE"/>
<stop offset="1" stop-color="#03B3FF"/>
</linearGradient>
<linearGradient id="paint14_linear" x1="-189.781" y1="141.771" x2="2043.57" y2="972.262" gradientUnits="userSpaceOnUse">
<stop stop-color="#0B0A15"/>
<stop offset="0.505208" stop-color="#0F2EEE"/>
<stop offset="1" stop-color="#03B3FF"/>
</linearGradient>
<linearGradient id="paint15_linear" x1="-201.532" y1="96.6953" x2="2079.74" y2="920.925" gradientUnits="userSpaceOnUse">
<stop stop-color="#0B0A15"/>
<stop offset="0.505208" stop-color="#0F2EEE"/>
<stop offset="1" stop-color="#03B3FF"/>
</linearGradient>
<linearGradient id="paint16_linear" x1="-212.611" y1="50.2106" x2="2114.73" y2="866.81" gradientUnits="userSpaceOnUse">
<stop stop-color="#0B0A15"/>
<stop offset="0.505208" stop-color="#0F2EEE"/>
<stop offset="1" stop-color="#03B3FF"/>
</linearGradient>
<linearGradient id="paint17_linear" x1="-222.959" y1="2.33367" x2="2148.34" y2="809.937" gradientUnits="userSpaceOnUse">
<stop stop-color="#0B0A15"/>
<stop offset="0.505208" stop-color="#0F2EEE"/>
<stop offset="1" stop-color="#03B3FF"/>
</linearGradient>
<linearGradient id="paint18_linear" x1="-232.51" y1="-46.9846" x2="2180.44" y2="750.231" gradientUnits="userSpaceOnUse">
<stop stop-color="#0B0A15"/>
<stop offset="0.505208" stop-color="#0F2EEE"/>
<stop offset="1" stop-color="#03B3FF"/>
</linearGradient>
<linearGradient id="paint19_linear" x1="-241.195" y1="-97.7298" x2="2210.82" y2="687.692" gradientUnits="userSpaceOnUse">
<stop stop-color="#0B0A15"/>
<stop offset="0.505208" stop-color="#0F2EEE"/>
<stop offset="1" stop-color="#03B3FF"/>
</linearGradient>
</defs>
</svg>
