<svg viewBox="0 0 145 137" fill="none" xmlns="http://www.w3.org/2000/svg">
<path d="M98.4333 25.8659C92.7588 25.8659 88.1407 30.4829 88.1407 36.156C88.1407 41.8321 92.7588 46.4491 98.4333 46.4491C100.243 46.4491 102.021 45.9732 103.575 45.0758C106.754 43.2381 108.725 39.8211 108.725 36.156C108.725 30.4829 104.109 25.8659 98.4333 25.8659ZM98.4333 47.2936C92.2932 47.2936 87.2957 42.2972 87.2957 36.156C87.2957 30.0175 92.2932 25.0212 98.4333 25.0212C104.574 25.0212 109.57 30.0175 109.57 36.156C109.57 40.1225 107.436 43.8193 103.997 45.808C102.315 46.7795 100.391 47.2936 98.4333 47.2936Z" fill="white"/>
<path d="M123.64 69.5142C121.83 69.5142 120.052 69.9896 118.497 70.8885C115.321 72.7235 113.347 76.1417 113.347 79.8052C113.347 85.4814 117.965 90.0983 123.64 90.0983C129.314 90.0983 133.931 85.4814 133.931 79.8052C133.931 74.1322 129.314 69.5142 123.64 69.5142ZM123.64 90.9428C117.5 90.9428 112.502 85.9453 112.502 79.8052C112.502 75.8397 114.639 72.1435 118.074 70.1569C119.759 69.1844 121.684 68.6692 123.64 68.6692C129.78 68.6692 134.776 73.6667 134.776 79.8052C134.776 85.9453 129.78 90.9428 123.64 90.9428Z" fill="white"/>
<path d="M118.349 70.9873C118.204 70.9873 118.062 70.9137 117.984 70.7768L103.478 45.6717C103.36 45.47 103.43 45.211 103.631 45.0949C103.831 44.9794 104.091 45.0453 104.209 45.2498L118.715 70.3543C118.832 70.556 118.763 70.8144 118.559 70.9311C118.494 70.9687 118.421 70.9873 118.349 70.9873Z" fill="white"/>
<path d="M20.9598 69.5142C15.2853 69.5142 10.6673 74.1322 10.6673 79.8052C10.6673 85.4814 15.2853 90.0983 20.9598 90.0983C26.6355 90.0983 31.2524 85.4814 31.2524 79.8052C31.2524 76.1417 29.2804 72.7235 26.1016 70.8885C24.5464 69.9896 22.7687 69.5142 20.9598 69.5142ZM20.9598 90.9428C14.82 90.9428 9.82245 85.9453 9.82245 79.8052C9.82245 73.6667 14.82 68.6692 20.9598 68.6692C22.9154 68.6692 24.8421 69.1844 26.5241 70.1569C29.9631 72.1435 32.0971 75.8413 32.0971 79.8052C32.0971 85.9453 27.1008 90.9428 20.9598 90.9428Z" fill="white"/>
<path d="M97.8783 115.572C92.2027 115.572 87.5857 120.189 87.5857 125.862C87.5857 131.539 92.2027 136.155 97.8783 136.155C103.553 136.155 108.169 131.539 108.169 125.862C108.169 120.189 103.553 115.572 97.8783 115.572ZM97.8783 137C91.7371 137 86.7397 132.004 86.7397 125.862C86.7397 119.723 91.7371 114.727 97.8783 114.727C104.018 114.727 109.013 119.723 109.013 125.862C109.013 132.004 104.018 137 97.8783 137Z" fill="white"/>
<path d="M87.0269 126.229H57.6924C57.4596 126.229 57.271 126.042 57.271 125.807C57.271 125.574 57.4596 125.384 57.6924 125.384H87.0269C87.2602 125.384 87.4493 125.574 87.4493 125.807C87.4493 126.042 87.2602 126.229 87.0269 126.229Z" fill="white"/>
<path d="M47.0942 115.572C41.4185 115.572 36.8005 120.189 36.8005 125.862C36.8005 131.539 41.4185 136.155 47.0942 136.155C52.7687 136.155 57.3846 131.539 57.3846 125.862C57.3846 120.189 52.7687 115.572 47.0942 115.572ZM47.0942 137C40.9529 137 35.956 132.004 35.956 125.862C35.956 119.723 40.9529 114.727 47.0942 114.727C53.2343 114.727 58.2296 119.723 58.2296 125.862C58.2296 132.004 53.2343 137 47.0942 137Z" fill="white"/>
<path d="M46.1662 25.8659C40.4922 25.8659 35.8741 30.4829 35.8741 36.156C35.8741 39.8238 37.8481 43.2403 41.0237 45.0758C42.5807 45.9732 44.3584 46.4491 46.1662 46.4491C51.8407 46.4491 56.4577 41.8321 56.4577 36.156C56.4577 30.4829 51.8407 25.8659 46.1662 25.8659ZM46.1662 47.2936C44.2107 47.2936 42.2852 46.7795 40.6012 45.808C37.1656 43.8214 35.0291 40.1225 35.0291 36.156C35.0291 30.0175 40.0261 25.0212 46.1662 25.0212C52.3074 25.0212 57.3027 30.0175 57.3027 36.156C57.3027 42.2972 52.3074 47.2936 46.1662 47.2936Z" fill="white"/>
<path d="M26.369 70.9862C26.2985 70.9862 26.2247 70.9676 26.1585 70.93C25.9565 70.8134 25.8872 70.555 26.0039 70.3532L40.5107 45.2487C40.6285 45.047 40.8858 44.9794 41.0864 45.0938C41.2892 45.21 41.359 45.4689 41.2407 45.6706L26.7353 70.7757C26.6559 70.9126 26.5135 70.9862 26.369 70.9862Z" fill="white"/>
<path d="M72.3447 50.7019C67.0883 50.7019 61.9043 52.0915 57.3517 54.7192C48.1047 60.0573 42.3599 70.0076 42.3599 80.6851C42.3599 91.3637 48.1047 101.311 57.3517 106.653C61.9043 109.281 67.0883 110.669 72.3447 110.669C77.6011 110.669 82.785 109.281 87.3377 106.653C96.5852 101.311 102.328 91.3637 102.328 80.6851C102.328 70.0076 96.5852 60.0573 87.3377 54.7192C82.785 52.0915 77.6011 50.7019 72.3447 50.7019ZM72.3447 111.513C66.9405 111.513 61.6111 110.085 56.9292 107.384C47.4222 101.893 41.5159 91.6624 41.5159 80.6851C41.5159 69.7067 47.4222 59.4768 56.9292 53.9875C61.6111 51.2857 66.9405 49.8569 72.3447 49.8569C77.7489 49.8569 83.0794 51.2857 87.7602 53.9875C97.2677 59.4768 103.171 69.7067 103.171 80.6851C103.171 91.6624 97.2677 101.896 87.7602 107.384C83.0794 110.085 77.7489 111.513 72.3447 111.513Z" fill="white"/>
<path d="M72.2325 65.3536C69.5492 65.3536 66.9019 66.064 64.5773 67.4051C59.8557 70.1331 56.9206 75.2139 56.9206 80.6661C56.9206 86.1177 59.8557 91.1985 64.5773 93.9265C66.9019 95.2665 69.5492 95.9763 72.2325 95.9763C74.9168 95.9763 77.5641 95.2665 79.8881 93.9265C84.6108 91.1985 87.5433 86.1177 87.5433 80.6661C87.5433 75.2139 84.6108 70.1331 79.8881 67.4051C77.5641 66.064 74.9168 65.3536 72.2325 65.3536ZM72.2325 97.6652C69.2526 97.6652 66.3131 96.878 63.7324 95.3886C58.4901 92.3603 55.2322 86.7184 55.2322 80.6661C55.2322 74.6132 58.4901 68.9702 63.7324 65.943C66.3131 64.4541 69.2526 63.6653 72.2325 63.6653C75.2118 63.6653 78.1507 64.4541 80.7326 65.943C85.9765 68.9702 89.2322 74.6132 89.2322 80.6661C89.2322 86.7184 85.9765 92.3603 80.7326 95.3886C78.1507 96.878 75.2118 97.6652 72.2325 97.6652Z" fill="white"/>
<path d="M75.9662 40.6529C75.9531 40.6529 75.9422 40.6529 75.9291 40.6502C75.1005 40.5766 74.2588 40.5292 73.4263 40.5074C73.1935 40.5003 73.0093 40.3084 73.0164 40.0734C73.0202 39.8417 73.2399 39.6787 73.4481 39.6635C74.2986 39.6863 75.1588 39.7338 76.0027 39.809C76.2355 39.8297 76.4062 40.0347 76.3876 40.268C76.368 40.4883 76.1826 40.6529 75.9662 40.6529ZM68.3771 40.69C68.1628 40.69 67.9802 40.5292 67.9567 40.3106C67.936 40.0778 68.1034 39.8728 68.3362 39.8483C69.1833 39.7649 70.0414 39.7076 70.8897 39.6754C71.1606 39.6465 71.3187 39.8483 71.3275 40.0838C71.3351 40.316 71.1541 40.5128 70.9213 40.5204C70.0899 40.5499 69.2482 40.6066 68.419 40.6889C68.406 40.69 68.3912 40.69 68.3771 40.69ZM80.9724 41.4129C80.9441 41.4129 80.913 41.4101 80.883 41.4036C80.0723 41.2275 79.2432 41.0754 78.4183 40.9506C78.1888 40.914 78.0286 40.6993 78.064 40.4697C78.1005 40.2391 78.3218 40.0838 78.5448 40.1154C79.3865 40.2424 80.2337 40.3989 81.0618 40.5788C81.2891 40.6284 81.4347 40.8524 81.3851 41.0803C81.342 41.2771 81.1676 41.4129 80.9724 41.4129ZM63.3796 41.5028C63.1866 41.5028 63.0127 41.3693 62.9674 41.1746C62.9162 40.9473 63.0579 40.7211 63.2858 40.6682C64.1156 40.4796 64.96 40.316 65.7974 40.1781C66.0214 40.1432 66.2449 40.2986 66.2815 40.5292C66.3191 40.7598 66.1626 40.9756 65.9331 41.0133C65.1116 41.1468 64.2851 41.3076 63.4723 41.4919C63.4417 41.4995 63.4096 41.5028 63.3796 41.5028ZM85.845 42.7899C85.7987 42.7899 85.7513 42.7823 85.7049 42.7659C84.9177 42.4901 84.1136 42.2355 83.315 42.0082C83.0914 41.946 82.9612 41.7138 83.0228 41.4876C83.0865 41.2635 83.3215 41.131 83.5445 41.1964C84.3606 41.4281 85.18 41.686 85.9851 41.9684C86.2048 42.0463 86.3204 42.2873 86.2425 42.5065C86.1814 42.682 86.0184 42.7899 85.845 42.7899ZM58.5211 42.9279C58.3472 42.9279 58.1864 42.8232 58.1232 42.6509C58.0436 42.4318 58.1586 42.1903 58.3756 42.1107C59.1764 41.8206 59.9958 41.5519 60.8086 41.3136C61.0305 41.246 61.2676 41.3752 61.3325 41.5988C61.399 41.8228 61.2698 42.0578 61.0463 42.1238C60.2493 42.3565 59.4468 42.6204 58.664 42.9039C58.6165 42.9213 58.5686 42.9279 58.5211 42.9279ZM90.5083 44.7634C90.4456 44.7634 90.3808 44.7481 90.3208 44.7193C89.5756 44.3464 88.8096 43.9947 88.0431 43.6693C87.8283 43.5788 87.7269 43.3318 87.818 43.1165C87.9096 42.9028 88.1603 42.8008 88.3719 42.8924C89.1542 43.2222 89.9359 43.5831 90.697 43.9626C90.9052 44.0672 90.9903 44.3207 90.8856 44.5295C90.8136 44.6773 90.6626 44.7634 90.5083 44.7634ZM53.878 44.9504C53.7237 44.9504 53.5749 44.867 53.5018 44.7203C53.3939 44.5115 53.4768 44.2591 53.685 44.1534C54.4373 43.7663 55.2169 43.3989 55.9992 43.0582C56.2118 42.9677 56.4599 43.0625 56.5536 43.2762C56.6463 43.4894 56.5504 43.7385 56.3367 43.8334C55.5696 44.1665 54.807 44.5274 54.0688 44.9041C54.0083 44.9362 53.9407 44.9504 53.878 44.9504ZM94.8903 47.3C94.8096 47.3 94.7295 47.2788 94.6564 47.2297C93.9646 46.7685 93.2483 46.3237 92.5276 45.9061C92.3259 45.7889 92.2578 45.5321 92.3733 45.3277C92.49 45.1259 92.7506 45.06 92.9501 45.1756C93.6861 45.6002 94.4171 46.056 95.1253 46.5254C95.3194 46.6557 95.3722 46.9195 95.243 47.1114C95.1607 47.2335 95.0272 47.3 94.8903 47.3ZM49.5206 47.5317C49.387 47.5317 49.2534 47.4685 49.1733 47.3475C49.0419 47.1556 49.0915 46.8917 49.2845 46.7609C49.9845 46.2833 50.7106 45.8221 51.4428 45.3887C51.6434 45.2693 51.904 45.3353 52.0217 45.5354C52.14 45.736 52.0746 45.9949 51.8729 46.1132C51.1571 46.5401 50.4446 46.9931 49.7588 47.4598C49.6857 47.5094 49.6045 47.5317 49.5206 47.5317ZM98.924 50.3627C98.8269 50.3627 98.7271 50.3295 98.6481 50.2603C98.0157 49.7162 97.361 49.1847 96.7002 48.6831C96.5138 48.5419 96.4773 48.2759 96.6196 48.0916C96.7608 47.9057 97.0257 47.8692 97.2122 48.0115C97.886 48.5239 98.5554 49.0647 99.1982 49.6208C99.3781 49.7751 99.3955 50.0395 99.2434 50.2161C99.1584 50.3131 99.0428 50.3627 98.924 50.3627ZM45.5213 50.6353C45.4041 50.6353 45.2874 50.5879 45.2045 50.4919C45.0502 50.3175 45.0655 50.0498 45.241 49.8961C45.8794 49.334 46.5434 48.7845 47.2145 48.2639C47.3982 48.1227 47.6643 48.1559 47.8077 48.3413C47.9499 48.525 47.9156 48.7889 47.7313 48.9333C47.0755 49.4431 46.4257 49.9789 45.7993 50.529C45.7186 50.601 45.6194 50.6353 45.5213 50.6353ZM102.545 53.903C102.429 53.903 102.314 53.8567 102.23 53.764C101.67 53.142 101.086 52.5341 100.494 51.9562C100.328 51.7932 100.324 51.5256 100.486 51.3587C100.651 51.1936 100.92 51.1898 101.084 51.3522C101.687 51.9432 102.285 52.5652 102.858 53.1987C103.014 53.3715 103 53.6386 102.827 53.794C102.746 53.8681 102.644 53.903 102.545 53.903ZM41.9368 54.211C41.8387 54.211 41.7384 54.1767 41.6588 54.1053C41.4833 53.9532 41.4669 53.6849 41.6201 53.5094C42.1827 52.8754 42.7715 52.249 43.3739 51.6466C43.5391 51.482 43.8062 51.4809 43.9703 51.6466C44.136 51.8118 44.136 52.08 43.9703 52.2457C43.3815 52.8323 42.8036 53.4478 42.2541 54.0687C42.1696 54.1636 42.0546 54.211 41.9368 54.211ZM105.695 57.8669C105.563 57.8669 105.431 57.8042 105.348 57.6864C104.872 57.0033 104.368 56.3273 103.851 55.6775C103.705 55.4949 103.737 55.2288 103.919 55.0833C104.1 54.9399 104.367 54.9677 104.512 55.152C105.04 55.8143 105.555 56.5051 106.042 57.2034C106.175 57.3953 106.129 57.6586 105.937 57.7922C105.862 57.8429 105.778 57.8669 105.695 57.8669ZM38.8267 58.2054C38.7438 58.2054 38.6621 58.1836 38.5885 58.134C38.396 58.0004 38.347 57.7393 38.4789 57.5463C38.9543 56.8469 39.4629 56.1507 39.9857 55.4791C40.1291 55.2937 40.3935 55.2621 40.5788 55.4055C40.762 55.5488 40.7953 55.8143 40.6519 55.9975C40.1411 56.6561 39.6423 57.3364 39.1762 58.0228C39.0933 58.1405 38.9608 58.2054 38.8267 58.2054ZM108.33 62.1905C108.177 62.1905 108.031 62.1098 107.957 61.967C107.566 61.2278 107.15 60.4929 106.719 59.7864C106.598 59.5863 106.661 59.3284 106.861 59.2047C107.058 59.0837 107.319 59.1463 107.439 59.3448C107.88 60.0698 108.305 60.8184 108.703 61.5729C108.812 61.7778 108.733 62.0351 108.526 62.1431C108.463 62.1763 108.396 62.1905 108.33 62.1905ZM36.2367 62.5569C36.1729 62.5569 36.1058 62.5427 36.0437 62.5105C35.8376 62.4048 35.7547 62.1496 35.8627 61.9425C36.2514 61.1825 36.669 60.4313 37.1013 59.7035C37.2207 59.5007 37.4807 59.4375 37.6797 59.5568C37.8814 59.6757 37.9463 59.9336 37.8274 60.1358C37.4028 60.8472 36.9933 61.5848 36.6128 62.3273C36.5376 62.4729 36.3904 62.5569 36.2367 62.5569ZM110.406 66.8096C110.235 66.8096 110.074 66.7061 110.011 66.536C109.718 65.7597 109.396 64.9806 109.055 64.2201C108.959 64.007 109.053 63.7557 109.266 63.6608C109.478 63.5659 109.729 63.6586 109.825 63.8734C110.174 64.6492 110.502 65.4451 110.801 66.2383C110.884 66.4564 110.774 66.7006 110.554 66.7808C110.505 66.8009 110.456 66.8096 110.406 66.8096ZM34.2087 67.1945C34.1601 67.1945 34.11 67.188 34.0631 67.17C33.8434 67.0899 33.7311 66.8473 33.8102 66.6287C34.1035 65.8278 34.4235 65.0308 34.7642 64.2539C34.858 64.0402 35.1065 63.9421 35.3192 64.037C35.5318 64.1291 35.6304 64.3788 35.5378 64.5925C35.2047 65.3513 34.8912 66.1342 34.6034 66.9176C34.5401 67.0899 34.3793 67.1945 34.2087 67.1945ZM111.892 71.649C111.7 71.649 111.527 71.5182 111.481 71.3263C111.288 70.5178 111.065 69.705 110.822 68.9074C110.753 68.6845 110.877 68.4484 111.101 68.3803C111.323 68.3137 111.56 68.4375 111.627 68.6605C111.879 69.4733 112.105 70.3036 112.302 71.1295C112.356 71.3557 112.216 71.5831 111.99 71.637C111.958 71.6458 111.925 71.649 111.892 71.649ZM32.7716 72.0519C32.7418 72.0519 32.7087 72.0486 32.6777 72.0415C32.4493 71.9887 32.3071 71.763 32.3611 71.5356C32.5509 70.707 32.7684 69.8734 33.0088 69.0595C33.0747 68.8365 33.3141 68.7079 33.5327 68.7739C33.7573 68.8398 33.8843 69.0759 33.8178 69.2988C33.5823 70.0964 33.368 70.9136 33.1838 71.7232C33.1391 71.9194 32.9646 72.0519 32.7716 72.0519ZM112.762 76.6367C112.551 76.6367 112.368 76.4764 112.343 76.2605C112.253 75.4346 112.134 74.5994 111.99 73.7801C111.949 73.5505 112.104 73.3314 112.334 73.2916C112.557 73.2507 112.781 73.4039 112.822 73.6345C112.969 74.4724 113.09 75.3239 113.183 76.1668C113.21 76.3995 113.041 76.6089 112.81 76.6334C112.794 76.6356 112.779 76.6367 112.762 76.6367ZM31.9519 77.0494C31.9365 77.0494 31.9212 77.0483 31.909 77.0483C31.6763 77.0238 31.5053 76.8166 31.5307 76.5838C31.6144 75.7443 31.7269 74.8894 31.8658 74.0472C31.9035 73.8166 32.1263 73.6628 32.35 73.6994C32.5816 73.737 32.7372 73.9534 32.6986 74.184C32.5631 75.0099 32.4527 75.8467 32.3712 76.6694C32.3489 76.8858 32.1636 77.0494 31.9519 77.0494ZM31.7579 82.1117C31.5294 82.1117 31.341 81.9296 31.3354 81.7012C31.3277 81.3692 31.3222 81.0372 31.3222 80.7041C31.3222 80.1813 31.3322 79.6585 31.3531 79.1379C31.3629 78.9051 31.536 78.717 31.7909 78.7312C32.0236 78.741 32.2057 78.9383 32.1967 79.17C32.178 79.6803 32.1671 80.1917 32.1671 80.7041C32.1671 81.0307 32.1727 81.3561 32.1803 81.6789C32.1859 81.9122 32.0027 82.1063 31.769 82.1117H31.7579ZM112.934 83.66C112.926 83.66 112.915 83.66 112.908 83.6578C112.675 83.6447 112.498 83.4441 112.511 83.2113C112.564 82.3805 112.589 81.5349 112.589 80.7041C112.589 80.0548 112.573 79.405 112.543 78.7584C112.532 78.5262 112.711 78.3272 112.943 78.3152C113.209 78.3043 113.374 78.4842 113.386 78.7186C113.417 79.3777 113.434 80.0401 113.434 80.7041C113.434 81.5535 113.407 82.4148 113.354 83.2642C113.342 83.4872 113.156 83.66 112.934 83.66ZM32.1925 87.155C31.9874 87.155 31.8074 87.0051 31.7767 86.7957C31.6509 85.9595 31.5506 85.1046 31.4765 84.2558C31.4556 84.023 31.6287 83.8192 31.8616 83.7968C32.0821 83.7717 32.296 83.9489 32.3182 84.1817C32.3897 85.0141 32.489 85.8504 32.6105 86.6709C32.6456 86.9015 32.4858 87.1157 32.2563 87.1495C32.2354 87.1534 32.2134 87.155 32.1925 87.155ZM112.305 88.6847C112.279 88.6847 112.253 88.682 112.226 88.676C111.997 88.6329 111.846 88.4127 111.889 88.1832C112.043 87.3649 112.173 86.5319 112.278 85.707C112.307 85.4753 112.519 85.3113 112.75 85.3418C112.98 85.3696 113.145 85.58 113.116 85.8117C113.01 86.6534 112.877 87.505 112.719 88.3396C112.682 88.543 112.504 88.6847 112.305 88.6847ZM33.2557 92.105C33.0715 92.105 32.9014 91.9824 32.8485 91.797C32.6192 90.9782 32.413 90.1419 32.2354 89.3127C32.1859 89.0854 32.3315 88.8613 32.5607 88.8117C32.7869 88.7621 33.0115 88.9088 33.0617 89.1361C33.2345 89.9478 33.4378 90.7672 33.6624 91.5691C33.7246 91.7932 33.5943 92.026 33.3702 92.0876C33.3326 92.1007 33.2944 92.105 33.2557 92.105ZM111.054 93.5922C111.011 93.5922 110.968 93.5851 110.925 93.5721C110.702 93.4995 110.581 93.2624 110.652 93.0405C110.909 92.2451 111.142 91.4345 111.347 90.6315C111.403 90.4052 111.632 90.2657 111.859 90.3251C112.086 90.3834 112.223 90.614 112.165 90.8403C111.956 91.6618 111.717 92.4888 111.456 93.2984C111.399 93.4772 111.233 93.5922 111.054 93.5922ZM34.9256 96.885C34.7609 96.885 34.6055 96.7885 34.5363 96.626C34.2054 95.8405 33.8952 95.0369 33.6172 94.2371C33.5414 94.0174 33.6591 93.7781 33.8778 93.7013C34.0947 93.6238 34.3395 93.7394 34.4158 93.9613C34.6873 94.742 34.9893 95.5275 35.3148 96.2995C35.4053 96.5143 35.305 96.7629 35.0896 96.8528C35.0357 96.8741 34.9795 96.885 34.9256 96.885ZM109.203 98.3046C109.144 98.3046 109.083 98.2915 109.025 98.2637C108.814 98.1667 108.721 97.9142 108.82 97.7038C109.173 96.9482 109.505 96.1714 109.808 95.3983C109.894 95.1835 110.139 95.0772 110.356 95.1612C110.574 95.2473 110.682 95.491 110.595 95.708C110.285 96.4968 109.945 97.2879 109.586 98.0587C109.515 98.2141 109.363 98.3046 109.203 98.3046ZM37.1754 101.422C37.0299 101.422 36.8876 101.347 36.8091 101.209C36.3833 100.47 35.9777 99.7105 35.6015 98.9533C35.498 98.7434 35.5841 98.4899 35.7924 98.3885C35.9995 98.2822 36.253 98.37 36.3593 98.5782C36.7268 99.3191 37.1236 100.063 37.5418 100.788C37.6584 100.989 37.5892 101.247 37.3875 101.363C37.3199 101.403 37.2485 101.422 37.1754 101.422ZM106.78 102.751C106.703 102.751 106.625 102.73 106.555 102.687C106.358 102.563 106.298 102.303 106.424 102.104C106.866 101.401 107.291 100.672 107.691 99.9411C107.802 99.7373 108.058 99.6615 108.262 99.7716C108.468 99.8839 108.543 100.14 108.433 100.347C108.025 101.092 107.59 101.835 107.138 102.553C107.057 102.682 106.92 102.751 106.78 102.751ZM39.9721 105.641C39.8456 105.641 39.7186 105.584 39.6357 105.473C39.1255 104.795 38.6266 104.093 38.1573 103.386C38.0281 103.191 38.0798 102.929 38.275 102.8C38.468 102.673 38.7308 102.723 38.8605 102.919C39.3206 103.612 39.8091 104.301 40.309 104.965C40.4513 105.151 40.4137 105.415 40.2283 105.555C40.1498 105.614 40.062 105.641 39.9721 105.641ZM103.824 106.861C103.73 106.861 103.634 106.83 103.556 106.766C103.376 106.617 103.348 106.353 103.497 106.172C104.021 105.534 104.533 104.864 105.024 104.183C105.158 103.993 105.422 103.951 105.612 104.086C105.803 104.224 105.844 104.487 105.71 104.676C105.21 105.372 104.685 106.055 104.151 106.705C104.066 106.809 103.947 106.861 103.824 106.861ZM43.2714 109.483C43.1629 109.483 43.0517 109.439 42.9699 109.356C42.3811 108.75 41.8 108.115 41.2429 107.467C41.0897 107.289 41.1104 107.022 41.2881 106.872C41.4658 106.719 41.7302 106.738 41.8829 106.915C42.4286 107.55 42.9977 108.175 43.5756 108.765C43.7364 108.931 43.732 109.198 43.5669 109.361C43.484 109.442 43.3782 109.483 43.2714 109.483ZM100.381 110.572C100.269 110.572 100.158 110.527 100.074 110.441C99.9129 110.274 99.9194 110.005 100.09 109.844C100.695 109.267 101.287 108.668 101.852 108.063C102.01 107.89 102.278 107.88 102.447 108.039C102.618 108.197 102.628 108.464 102.47 108.636C101.896 109.254 101.29 109.867 100.672 110.457C100.589 110.534 100.485 110.572 100.381 110.572ZM47.0254 112.882C46.9338 112.882 46.8395 112.851 46.762 112.789C46.0991 112.258 45.4439 111.701 44.812 111.133C44.6414 110.975 44.6277 110.708 44.782 110.534C44.9412 110.362 45.2078 110.351 45.3801 110.505C45.9977 111.066 46.6394 111.61 47.2892 112.13C47.4713 112.274 47.5002 112.539 47.3563 112.722C47.2707 112.828 47.1491 112.882 47.0254 112.882ZM96.5029 113.827C96.3715 113.827 96.2445 113.767 96.1627 113.655C96.0237 113.468 96.0635 113.203 96.2527 113.065C96.9227 112.568 97.5872 112.048 98.2212 111.514C98.3995 111.366 98.6666 111.387 98.8144 111.567C98.9654 111.745 98.9414 112.012 98.7637 112.159C98.1149 112.705 97.4379 113.237 96.7531 113.743C96.6768 113.8 96.5901 113.827 96.5029 113.827ZM51.1729 115.788C51.0966 115.788 51.0203 115.768 50.9532 115.728C50.2216 115.28 49.5015 114.808 48.8124 114.322C48.6205 114.189 48.5742 113.926 48.7077 113.734C48.8435 113.542 49.1068 113.498 49.2965 113.631C49.9736 114.105 50.6774 114.568 51.3932 115.006C51.5905 115.129 51.6532 115.387 51.5344 115.587C51.4526 115.716 51.3136 115.788 51.1729 115.788ZM92.249 116.573C92.1024 116.573 91.9574 116.497 91.8805 116.356C91.7649 116.154 91.8385 115.897 92.0402 115.784L92.4851 115.529C93.0629 115.195 93.631 114.849 94.1876 114.489C94.3844 114.364 94.6455 114.417 94.772 114.614C94.899 114.81 94.8429 115.07 94.6466 115.197C94.0775 115.565 93.4974 115.92 92.9059 116.261L92.454 116.518C92.3908 116.555 92.3193 116.573 92.249 116.573ZM55.6503 118.157C55.5909 118.157 55.5337 118.146 55.4764 118.121C54.7007 117.771 53.9287 117.391 53.178 116.996C52.9714 116.884 52.8924 116.63 53.0036 116.426C53.1104 116.216 53.3661 116.139 53.5738 116.249C54.307 116.636 55.0648 117.009 55.8237 117.352C56.0363 117.446 56.1311 117.698 56.0357 117.909C55.9638 118.067 55.8117 118.157 55.6503 118.157ZM87.6828 118.771C87.516 118.771 87.3595 118.67 87.2924 118.505C87.2041 118.291 87.3077 118.045 87.5241 117.954C88.2944 117.642 89.0669 117.3 89.8182 116.94C90.0231 116.842 90.2788 116.926 90.3791 117.136C90.4822 117.348 90.3922 117.599 90.184 117.701C89.4175 118.069 88.6292 118.418 87.8436 118.739C87.7896 118.761 87.7357 118.771 87.6828 118.771ZM60.3845 119.954C60.3436 119.954 60.3027 119.945 60.2607 119.932C59.4468 119.682 58.6329 119.404 57.8386 119.1C57.6211 119.018 57.5109 118.776 57.5938 118.558C57.6778 118.34 57.9225 118.228 58.1373 118.312C58.9164 118.607 59.7134 118.881 60.5088 119.127C60.7317 119.195 60.8582 119.432 60.7879 119.654C60.7317 119.835 60.566 119.954 60.3845 119.954ZM82.8837 120.381C82.6984 120.381 82.5267 120.255 82.4749 120.067C82.416 119.841 82.5496 119.611 82.7758 119.551C83.5766 119.335 84.3862 119.093 85.1756 118.827C85.3964 118.754 85.6357 118.872 85.7098 119.095C85.7834 119.314 85.6651 119.554 85.4449 119.628C84.6375 119.898 83.8127 120.148 82.9928 120.368C82.9579 120.376 82.9192 120.381 82.8837 120.381ZM65.3078 121.143C65.2822 121.143 65.2593 121.141 65.2337 121.136C64.3979 120.987 63.5551 120.811 62.7281 120.614C62.5019 120.56 62.3618 120.329 62.4168 120.103C62.473 119.877 62.7003 119.736 62.9266 119.789C63.7361 119.986 64.5609 120.158 65.3803 120.304C65.6098 120.343 65.763 120.564 65.7221 120.792C65.6861 120.998 65.5084 121.143 65.3078 121.143ZM77.9195 121.382C77.7135 121.382 77.5325 121.229 77.503 121.018C77.4709 120.787 77.6328 120.574 77.8634 120.542C78.6904 120.428 79.5223 120.288 80.334 120.122C80.5586 120.077 80.786 120.225 80.8323 120.454C80.8786 120.682 80.7298 120.904 80.5003 120.951C79.6711 121.119 78.8218 121.263 77.9795 121.378C77.9593 121.382 77.9397 121.382 77.9195 121.382ZM70.338 121.712C70.3325 121.712 70.3238 121.712 70.3173 121.71C69.4657 121.667 68.6087 121.598 67.767 121.502C67.5342 121.475 67.368 121.268 67.3952 121.035C67.4208 120.802 67.6438 120.639 67.8608 120.662C68.6856 120.755 69.5252 120.824 70.3603 120.867C70.5926 120.878 70.773 121.076 70.7594 121.31C70.7507 121.534 70.562 121.712 70.338 121.712ZM72.8713 121.76C72.6413 121.76 72.451 121.572 72.4499 121.341C72.4472 121.109 72.6331 120.917 72.867 120.915C73.6951 120.904 74.5379 120.869 75.3709 120.804C75.5922 120.785 75.8065 120.962 75.8228 121.195C75.8419 121.427 75.6675 121.629 75.4347 121.649C74.5842 121.712 73.724 121.748 72.8773 121.76H72.8713Z" fill="white"/>
<path d="M72.2718 1.68852C69.0619 1.68852 65.8956 2.53771 63.1136 4.14364C57.4658 7.4037 53.956 13.4821 53.956 20.0035C53.956 26.5273 57.4658 32.6057 63.1136 35.8659C65.8956 37.4719 69.0619 38.3197 72.2718 38.3197C75.4833 38.3197 78.6496 37.4719 81.4288 35.8659C87.0783 32.6057 90.5875 26.5273 90.5875 20.0035C90.5875 13.481 87.0783 7.4037 81.4288 4.14364C78.6496 2.53771 75.4833 1.68852 72.2718 1.68852ZM72.2718 40.0107C68.7642 40.0107 65.3063 39.0834 62.2692 37.3297C56.1002 33.7659 52.2666 27.1285 52.2666 20.0035C52.2666 12.8798 56.1002 6.24142 62.2692 2.68011C65.3063 0.926443 68.7642 0 72.2718 0C75.7788 0 79.2362 0.926443 82.2738 2.68011C88.4434 6.24142 92.2785 12.8798 92.2785 20.0035C92.2785 27.1295 88.4434 33.7681 82.2738 37.3297C79.2362 39.0834 75.7788 40.0107 72.2718 40.0107Z" fill="white"/>
<path d="M73.2661 9.78421C73.2524 9.78421 73.2405 9.78421 73.2274 9.78208C72.9581 9.75771 72.6877 9.74447 72.4162 9.74103C72.185 9.73787 71.9986 9.54597 71.9997 9.31434C72.0019 9.08166 72.1905 8.89636 72.4211 8.89636H72.4265C72.7209 8.89958 73.0131 8.91517 73.3042 8.9403C73.5348 8.96255 73.706 9.16769 73.6848 9.39933C73.6651 9.61875 73.4809 9.78421 73.2661 9.78421ZM69.0956 10.2307C68.9157 10.2307 68.7484 10.1151 68.6906 9.93533C68.6213 9.71247 68.7445 9.47527 68.9686 9.40592C69.2477 9.31886 69.5301 9.24156 69.8136 9.17641C70.0453 9.12244 70.2666 9.26593 70.3195 9.49304C70.3724 9.72015 70.2317 9.94754 70.0033 10.0005C69.7416 10.06 69.4783 10.1304 69.2199 10.2109C69.1796 10.2242 69.1365 10.2307 69.0956 10.2307ZM76.5272 10.6093C76.4711 10.6093 76.4144 10.5981 76.3604 10.5738C76.1135 10.469 75.86 10.371 75.6026 10.285C75.3824 10.2098 75.2641 9.97054 75.3393 9.74899C75.4129 9.52929 75.6522 9.40909 75.8741 9.48535C76.1511 9.57798 76.4247 9.68384 76.6935 9.79849C76.9088 9.89008 77.008 10.1381 76.9176 10.3533C76.8472 10.5132 76.6902 10.6093 76.5272 10.6093ZM66.0825 11.7287C65.9511 11.7287 65.8208 11.6681 65.738 11.5511C65.6039 11.3613 65.6475 11.099 65.8377 10.9621C66.0749 10.7932 66.3186 10.6323 66.5732 10.4811C66.7705 10.362 67.0295 10.4261 67.1521 10.6268C67.2715 10.8263 67.2061 11.0857 67.0066 11.2059C66.7716 11.3459 66.5464 11.4947 66.3273 11.6503C66.2532 11.7033 66.1665 11.7287 66.0825 11.7287ZM79.3702 12.4058C79.271 12.4058 79.1718 12.3716 79.0917 12.301C78.8894 12.1234 78.679 11.9513 78.4614 11.7883C78.2755 11.6482 78.2379 11.3835 78.3775 11.1969C78.5176 11.0105 78.7836 10.9753 78.9679 11.1133C79.205 11.2885 79.4302 11.4727 79.6493 11.6657C79.8238 11.8203 79.8423 12.086 79.6891 12.2623C79.6052 12.3574 79.4885 12.4058 79.3702 12.4058ZM63.686 14.0888C63.5988 14.0888 63.5116 14.0623 63.4352 14.0062C63.2477 13.8694 63.2084 13.6036 63.3464 13.4162C63.5192 13.1811 63.7024 12.9529 63.8953 12.7301C64.0474 12.5548 64.3157 12.535 64.4912 12.6882C64.6662 12.8415 64.6858 13.1094 64.5326 13.2838C64.3544 13.4889 64.1865 13.6996 64.0262 13.918C63.9439 14.0292 63.8157 14.0888 63.686 14.0888ZM81.5154 14.9978C81.3731 14.9978 81.2336 14.9239 81.154 14.7915C81.015 14.5586 80.8694 14.3305 80.7135 14.1086C80.5783 13.918 80.6268 13.6533 80.8165 13.5196C81.0057 13.3862 81.2707 13.4326 81.4042 13.6234C81.571 13.8627 81.7297 14.1075 81.8807 14.359C81.9995 14.5586 81.9336 14.818 81.7329 14.9382C81.6648 14.9779 81.5918 14.9978 81.5154 14.9978ZM62.135 17.0746C62.0909 17.0746 62.0467 17.068 62.0015 17.0524C61.7812 16.9785 61.6607 16.7403 61.7349 16.5187C61.827 16.2408 61.9322 15.966 62.0467 15.6957C62.1372 15.4819 62.3853 15.3826 62.6006 15.4742C62.8143 15.5658 62.9135 15.8138 62.8236 16.0277C62.7173 16.276 62.6213 16.5285 62.5363 16.7856C62.4779 16.9621 62.3117 17.0746 62.135 17.0746ZM82.7551 18.1233C82.5632 18.1233 82.3882 17.9899 82.343 17.7935C82.2841 17.5299 82.2138 17.2676 82.1353 17.0106C82.0671 16.7866 82.1914 16.5494 82.4155 16.4822C82.6385 16.415 82.8745 16.5386 82.9416 16.7612C83.0277 17.0402 83.1035 17.3237 83.1689 17.6093C83.2185 17.8367 83.0762 18.0627 82.8478 18.1136C82.8184 18.1202 82.7873 18.1233 82.7551 18.1233ZM61.5844 20.3932H61.5833C61.3489 20.391 61.1597 20.2013 61.1625 19.9675C61.1635 19.674 61.1788 19.3817 61.2033 19.0906C61.2241 18.859 61.4356 18.6869 61.6607 18.7057C61.8913 18.7255 62.0652 18.9296 62.0445 19.1623C62.0227 19.4315 62.008 19.7017 62.0069 19.9731C62.0058 20.2047 61.8177 20.3932 61.5844 20.3932ZM82.965 21.4819C82.9514 21.4819 82.9372 21.4805 82.9241 21.4795C82.6913 21.4565 82.5212 21.2503 82.5447 21.0187C82.5714 20.7505 82.5856 20.4802 82.591 20.209C82.5954 19.9763 82.784 19.7899 83.0212 19.7944C83.2539 19.7976 83.4404 19.9906 83.4355 20.2232C83.4306 20.5178 83.4137 20.8101 83.3864 21.1013C83.3641 21.3186 83.1787 21.4819 82.965 21.4819ZM62.0974 23.7162C61.918 23.7162 61.7534 23.6027 61.6962 23.424C61.6068 23.1461 61.5261 22.8636 61.4601 22.5791C61.4072 22.352 61.5473 22.1238 61.773 22.0708C62.0015 22.0155 62.2266 22.1569 62.2806 22.384C62.3433 22.6476 62.4174 22.9078 62.5003 23.1659C62.5717 23.3888 62.4496 23.626 62.2266 23.6964C62.1835 23.7096 62.1405 23.7162 62.0974 23.7162ZM82.1167 24.7377C82.059 24.7377 82.0023 24.7266 81.9456 24.7012C81.7329 24.6075 81.6359 24.3582 81.7319 24.1442C81.8398 23.8973 81.9368 23.6458 82.0262 23.3899C82.1047 23.1693 82.343 23.0534 82.5643 23.1296C82.784 23.2056 82.8996 23.446 82.8249 23.6667C82.7273 23.9447 82.6216 24.217 82.5027 24.4849C82.4346 24.6438 82.2787 24.7377 82.1167 24.7377ZM63.614 26.7206C63.4837 26.7206 63.354 26.6589 63.27 26.5443C63.0989 26.3072 62.938 26.0634 62.7859 25.8119C62.6655 25.6123 62.7271 25.3531 62.9277 25.2327C63.1278 25.1115 63.3878 25.1755 63.5083 25.3741C63.6484 25.6067 63.7972 25.8317 63.9559 26.0512C64.0927 26.2399 64.0496 26.5033 63.861 26.6391C63.7852 26.6941 63.6991 26.7206 63.614 26.7206ZM80.3057 27.5711C80.2054 27.5711 80.1051 27.5369 80.0244 27.4652C79.8516 27.3106 79.8358 27.0427 79.9912 26.8686C80.1711 26.6666 80.3422 26.457 80.5031 26.242C80.6432 26.0557 80.9114 26.0192 81.0946 26.1592C81.2816 26.3005 81.3192 26.5641 81.1791 26.7505C81.003 26.9842 80.8176 27.2103 80.6208 27.4311C80.5374 27.5237 80.4213 27.5711 80.3057 27.5711ZM65.9822 29.1085C65.8961 29.1085 65.8088 29.082 65.7325 29.0259C65.4981 28.8549 65.2686 28.6717 65.0456 28.4809C64.869 28.3287 64.8494 28.0629 65.0004 27.8853C65.1525 27.709 65.4207 27.6878 65.5962 27.84C65.8023 28.0166 66.0138 28.1855 66.2314 28.3454C66.4211 28.4843 66.4609 28.7466 66.324 28.9354C66.2412 29.0489 66.1136 29.1085 65.9822 29.1085ZM77.7064 29.7051C77.5625 29.7051 77.4218 29.6313 77.3411 29.4968C77.225 29.2948 77.2926 29.0378 77.4943 28.9187C77.7282 28.7821 77.9555 28.6354 78.178 28.4819C78.3699 28.3485 78.6315 28.3959 78.7651 28.5878C78.8987 28.7786 78.8512 29.0423 78.6604 29.1746C78.4211 29.3411 78.1725 29.4989 77.9212 29.648C77.853 29.6876 77.7789 29.7051 77.7064 29.7051ZM68.9779 30.6406C68.9342 30.6406 68.8901 30.6339 68.8476 30.6207C68.5695 30.5302 68.2948 30.4275 68.0249 30.3163C67.8085 30.2247 67.7082 29.9798 67.7965 29.7636C67.8859 29.5474 68.1318 29.4449 68.3488 29.5354C68.5979 29.639 68.8519 29.734 69.1087 29.8176C69.3306 29.8893 69.4505 30.1276 69.3802 30.3494C69.3202 30.5267 69.155 30.6406 68.9779 30.6406ZM74.5717 30.9262C74.3788 30.9262 74.2032 30.7904 74.1601 30.5929C74.1105 30.3658 74.2539 30.1408 74.4823 30.09C74.7456 30.0339 75.0084 29.9666 75.2663 29.8872C75.4947 29.821 75.7264 29.9468 75.7923 30.1707C75.861 30.3933 75.7329 30.6295 75.5111 30.6945C75.2297 30.7806 74.9468 30.8534 74.6622 30.9161C74.6312 30.9228 74.6028 30.9262 74.5717 30.9262ZM72.2995 31.1686C72.0051 31.1686 71.714 31.1567 71.4218 31.1335C71.1912 31.1157 71.0168 30.9129 71.0369 30.6803C71.0544 30.4473 71.2561 30.2798 71.49 30.293C71.7593 30.3139 72.0297 30.324 72.2995 30.324C72.5334 30.324 72.722 30.5135 72.722 30.7464C72.722 30.9802 72.5334 31.1686 72.2995 31.1686Z" fill="white"/>
<path d="M124.541 92.2299C121.33 92.2299 118.163 93.0793 115.382 94.6837C109.732 97.9448 106.223 104.023 106.223 110.544C106.223 117.068 109.732 123.146 115.382 126.407C118.163 128.012 121.33 128.864 124.541 128.864C127.751 128.864 130.917 128.012 133.698 126.407C139.347 123.146 142.855 117.068 142.855 110.544C142.855 104.023 139.347 97.9448 133.698 94.6837C130.917 93.0793 127.751 92.2299 124.541 92.2299ZM124.541 130.552C121.033 130.552 117.574 129.623 114.538 127.87C108.367 124.309 104.533 117.67 104.533 110.544C104.533 103.42 108.367 96.7814 114.538 93.2199C117.574 91.4678 121.033 90.5399 124.541 90.5399C128.046 90.5399 131.505 91.4678 134.542 93.2199C140.713 96.7836 144.544 103.42 144.544 110.544C144.544 117.67 140.713 124.307 134.542 127.87C131.505 129.623 128.046 130.552 124.541 130.552Z" fill="white"/>
<path d="M125.534 100.324C125.521 100.324 125.507 100.324 125.494 100.322C125.225 100.299 124.957 100.286 124.683 100.281C124.452 100.279 124.266 100.087 124.267 99.8545C124.27 99.6218 124.476 99.4386 124.693 99.4364C124.988 99.4408 125.28 99.4566 125.569 99.4816C125.802 99.504 125.974 99.7079 125.953 99.9407C125.933 100.159 125.75 100.324 125.534 100.324ZM121.361 100.772C121.182 100.772 121.014 100.656 120.959 100.475C120.888 100.254 121.012 100.017 121.236 99.9472C121.514 99.8589 121.796 99.7842 122.082 99.7166C122.31 99.6648 122.535 99.8071 122.588 100.033C122.638 100.262 122.499 100.487 122.271 100.54C122.008 100.602 121.744 100.673 121.487 100.754C121.444 100.765 121.402 100.772 121.361 100.772ZM128.794 101.149C128.738 101.149 128.681 101.138 128.629 101.115C128.378 101.009 128.127 100.912 127.871 100.826C127.65 100.751 127.531 100.512 127.605 100.29C127.679 100.069 127.92 99.9494 128.141 100.026C128.418 100.119 128.69 100.223 128.961 100.34C129.176 100.43 129.275 100.679 129.182 100.894C129.113 101.052 128.957 101.149 128.794 101.149ZM118.349 102.27C118.218 102.27 118.088 102.207 118.006 102.094C117.87 101.904 117.915 101.638 118.104 101.505C118.341 101.335 118.585 101.174 118.839 101.023C119.037 100.903 119.298 100.969 119.417 101.167C119.537 101.369 119.473 101.628 119.273 101.746C119.04 101.886 118.814 102.035 118.594 102.192C118.52 102.243 118.434 102.27 118.349 102.27ZM131.638 102.946C131.539 102.946 131.439 102.912 131.359 102.843C131.157 102.664 130.944 102.491 130.73 102.327C130.543 102.187 130.504 101.925 130.644 101.738C130.786 101.549 131.051 101.516 131.236 101.654C131.469 101.827 131.698 102.013 131.916 102.207C132.091 102.361 132.108 102.627 131.955 102.802C131.87 102.899 131.756 102.946 131.638 102.946ZM115.953 104.63C115.865 104.63 115.778 104.603 115.703 104.549C115.515 104.411 115.475 104.146 115.614 103.958C115.787 103.721 115.97 103.493 116.163 103.272C116.316 103.095 116.582 103.077 116.759 103.231C116.933 103.383 116.953 103.651 116.8 103.828C116.622 104.031 116.454 104.241 116.293 104.458C116.211 104.571 116.083 104.63 115.953 104.63ZM133.783 105.538C133.639 105.538 133.499 105.464 133.418 105.333C133.28 105.1 133.135 104.869 132.98 104.65C132.844 104.458 132.891 104.193 133.082 104.06C133.272 103.927 133.537 103.974 133.67 104.165C133.837 104.404 133.995 104.65 134.146 104.899C134.266 105.1 134.2 105.358 133.999 105.479C133.93 105.518 133.856 105.538 133.783 105.538ZM114.403 107.614C114.359 107.614 114.314 107.608 114.27 107.595C114.049 107.518 113.93 107.281 114.003 107.058C114.096 106.782 114.2 106.506 114.314 106.237C114.406 106.025 114.652 105.925 114.869 106.015C115.082 106.106 115.183 106.354 115.091 106.569C114.987 106.817 114.891 107.071 114.803 107.326C114.745 107.502 114.579 107.614 114.403 107.614ZM135.023 108.663C134.83 108.663 134.656 108.529 134.61 108.334C134.551 108.07 134.482 107.808 134.402 107.552C134.334 107.328 134.459 107.091 134.684 107.024C134.904 106.953 135.141 107.08 135.209 107.301C135.296 107.579 135.371 107.864 135.436 108.151C135.486 108.377 135.343 108.603 135.116 108.654C135.085 108.662 135.054 108.663 135.023 108.663ZM113.852 110.933H113.85C113.615 110.933 113.428 110.741 113.429 110.509C113.432 110.216 113.447 109.923 113.471 109.632C113.491 109.4 113.707 109.227 113.929 109.249C114.16 109.268 114.332 109.473 114.313 109.706C114.289 109.973 114.276 110.242 114.274 110.515C114.273 110.748 114.084 110.933 113.852 110.933ZM135.233 112.021H135.191C134.958 111.997 134.789 111.79 134.811 111.559C134.839 111.291 134.853 111.022 134.858 110.748C134.862 110.515 135.031 110.323 135.289 110.335C135.522 110.339 135.708 110.531 135.703 110.764C135.697 111.058 135.681 111.351 135.653 111.643C135.631 111.86 135.447 112.021 135.233 112.021ZM114.366 114.26C114.186 114.26 114.022 114.145 113.963 113.964C113.873 113.686 113.794 113.404 113.727 113.12C113.674 112.892 113.817 112.665 114.042 112.612C114.279 112.56 114.497 112.7 114.55 112.926C114.611 113.191 114.686 113.451 114.767 113.709C114.839 113.93 114.716 114.169 114.494 114.24C114.451 114.253 114.409 114.26 114.366 114.26ZM134.384 115.279C134.327 115.279 134.269 115.268 134.213 115.241C134.001 115.147 133.902 114.9 133.999 114.686C134.107 114.436 134.205 114.186 134.293 113.93C134.371 113.71 134.61 113.594 134.831 113.67C135.051 113.747 135.168 113.986 135.092 114.208C134.994 114.486 134.889 114.757 134.771 115.026C134.701 115.184 134.546 115.279 134.384 115.279ZM115.881 117.26C115.751 117.26 115.621 117.203 115.538 117.085C115.366 116.848 115.205 116.606 115.053 116.353C114.933 116.156 114.995 115.894 115.195 115.774C115.394 115.655 115.655 115.718 115.775 115.917C115.915 116.147 116.064 116.373 116.223 116.593C116.36 116.78 116.317 117.044 116.129 117.182C116.052 117.236 115.967 117.26 115.881 117.26ZM132.574 118.111C132.474 118.111 132.374 118.077 132.294 118.005C132.12 117.851 132.103 117.583 132.258 117.409C132.438 117.207 132.608 116.999 132.771 116.782C132.912 116.597 133.177 116.56 133.362 116.7C133.549 116.841 133.586 117.106 133.446 117.291C133.27 117.526 133.086 117.752 132.89 117.971C132.806 118.064 132.691 118.111 132.574 118.111ZM118.25 119.649C118.163 119.649 118.075 119.624 118.001 119.569C117.762 119.395 117.535 119.212 117.313 119.022C117.136 118.869 117.114 118.604 117.269 118.428C117.421 118.249 117.685 118.229 117.864 118.381C118.068 118.557 118.28 118.726 118.498 118.887C118.687 119.022 118.727 119.287 118.591 119.476C118.509 119.589 118.38 119.649 118.25 119.649ZM129.973 120.246C129.831 120.246 129.688 120.173 129.61 120.039C129.492 119.836 129.56 119.578 129.759 119.46C129.994 119.322 130.223 119.178 130.444 119.022C130.632 118.891 130.896 118.936 131.031 119.128C131.164 119.32 131.118 119.582 130.927 119.716C130.688 119.882 130.441 120.041 130.188 120.188C130.121 120.229 130.048 120.246 129.973 120.246ZM121.244 121.181C121.201 121.181 121.157 121.174 121.115 121.162C120.838 121.072 120.562 120.97 120.291 120.857C120.076 120.765 119.975 120.52 120.064 120.304C120.152 120.089 120.401 119.987 120.617 120.076C120.866 120.181 121.12 120.274 121.377 120.358C121.599 120.429 121.719 120.668 121.648 120.889C121.588 121.069 121.423 121.181 121.244 121.181ZM126.839 121.467C126.645 121.467 126.471 121.332 126.428 121.133C126.379 120.907 126.522 120.681 126.75 120.632C127.013 120.575 127.276 120.507 127.533 120.427C127.763 120.36 127.995 120.487 128.061 120.711C128.129 120.935 128.001 121.17 127.778 121.237C127.498 121.321 127.213 121.394 126.929 121.456C126.899 121.463 126.869 121.467 126.839 121.467ZM124.568 121.709C124.273 121.709 123.982 121.698 123.69 121.673C123.458 121.657 123.284 121.454 123.303 121.222C123.321 120.989 123.526 120.817 123.758 120.834C124.026 120.855 124.296 120.864 124.568 120.864C124.802 120.864 124.99 121.054 124.99 121.286C124.99 121.521 124.802 121.709 124.568 121.709Z" fill="white"/>
<path d="M20.0061 92.2299C16.7966 92.2299 13.63 93.0793 10.8485 94.6837C5.19924 97.9448 1.68983 104.023 1.68983 110.544C1.68983 117.068 5.19924 123.146 10.8485 126.407C13.63 128.012 16.7966 128.864 20.0061 128.864C23.2178 128.864 26.3841 128.012 29.1635 126.407C34.8139 123.146 38.3209 117.068 38.3209 110.544C38.3209 104.023 34.8139 97.9448 29.1635 94.6837C26.3841 93.0793 23.2178 92.2299 20.0061 92.2299ZM20.0061 130.552C16.4989 130.552 13.041 129.623 10.0047 127.87C3.83394 124.309 0 117.67 0 110.544C0 103.42 3.83394 96.7814 10.0047 93.2199C13.041 91.4678 16.4989 90.5399 20.0061 90.5399C23.5134 90.5399 26.971 91.4678 30.0084 93.2199C36.1795 96.7836 40.0109 103.42 40.0109 110.544C40.0109 117.67 36.1795 124.307 30.0084 127.87C26.971 129.623 23.5134 130.552 20.0061 130.552Z" fill="white"/>
<path d="M21.0001 100.324C20.9859 100.324 20.9737 100.324 20.9604 100.322C20.6915 100.299 20.4234 100.286 20.1499 100.281C19.9183 100.279 19.732 100.087 19.733 99.8545C19.7362 99.6218 19.9403 99.4386 20.1597 99.4364C20.4543 99.4408 20.7466 99.4566 21.0356 99.4816C21.2683 99.504 21.4393 99.7079 21.4181 99.9407C21.3983 100.159 21.2154 100.324 21.0001 100.324ZM16.8269 100.772C16.6469 100.772 16.4804 100.656 16.4242 100.475C16.3546 100.254 16.4783 100.017 16.7022 99.9472C16.9801 99.8589 17.2612 99.7842 17.5469 99.7166C17.7798 99.6648 18.0013 99.8071 18.0532 100.033C18.1051 100.262 17.9651 100.487 17.7367 100.54C17.473 100.602 17.2107 100.673 16.9536 100.754C16.9105 100.765 16.8676 100.772 16.8269 100.772ZM24.2605 101.149C24.2041 101.149 24.148 101.138 24.094 101.115C23.8446 101.009 23.5932 100.912 23.3372 100.826C23.1156 100.751 22.9976 100.512 23.0715 100.29C23.1453 100.069 23.387 99.9494 23.6075 100.026C23.8844 100.119 24.1567 100.223 24.4269 100.34C24.6422 100.43 24.7415 100.679 24.6488 100.894C24.5792 101.052 24.4238 101.149 24.2605 101.149ZM13.8146 102.27C13.6846 102.27 13.5544 102.207 13.4718 102.094C13.3371 101.904 13.3813 101.638 13.571 101.505C13.808 101.335 14.0518 101.174 14.3056 101.023C14.5017 100.903 14.7632 100.969 14.8835 101.167C15.0036 101.369 14.9395 101.628 14.7378 101.746C14.5052 101.886 14.2802 102.035 14.0607 102.192C13.9866 102.243 13.9006 102.27 13.8146 102.27ZM27.1039 102.946C27.0046 102.946 26.9054 102.912 26.8247 102.843C26.623 102.664 26.4112 102.491 26.196 102.327C26.0086 102.187 25.971 101.925 26.11 101.738C26.2524 101.549 26.5171 101.516 26.7023 101.654C26.9361 101.827 27.1635 102.013 27.3829 102.207C27.5571 102.361 27.5748 102.627 27.4202 102.802C27.3366 102.899 27.2217 102.946 27.1039 102.946ZM11.419 104.63C11.3319 104.63 11.2448 104.603 11.1688 104.549C10.9812 104.411 10.9415 104.146 11.0805 103.958C11.2525 103.721 11.4357 103.493 11.6297 103.272C11.7808 103.095 12.049 103.077 12.2242 103.231C12.3997 103.383 12.4196 103.651 12.266 103.828C12.0874 104.031 11.9198 104.241 11.76 104.458C11.6771 104.571 11.5493 104.63 11.419 104.63ZM29.249 105.538C29.1056 105.538 28.9656 105.464 28.8851 105.333C28.7472 105.1 28.6005 104.869 28.4449 104.65C28.3104 104.458 28.3578 104.193 28.5476 104.06C28.7371 103.927 29.0031 103.974 29.1365 104.165C29.3031 104.404 29.4619 104.65 29.612 104.899C29.7321 105.1 29.6659 105.358 29.465 105.479C29.3967 105.518 29.3229 105.538 29.249 105.538ZM9.86946 107.614C9.82421 107.614 9.78027 107.608 9.73606 107.595C9.51451 107.518 9.39642 107.281 9.4692 107.058C9.56292 106.782 9.66666 106.506 9.78027 106.237C9.87289 106.025 10.1188 105.925 10.3351 106.015C10.5479 106.106 10.6493 106.354 10.5566 106.569C10.4518 106.817 10.356 107.071 10.2699 107.326C10.2114 107.502 10.046 107.614 9.86946 107.614ZM30.4897 108.663C30.2967 108.663 30.1215 108.529 30.0762 108.334C30.0177 108.07 29.9481 107.808 29.8687 107.552C29.8004 107.328 29.9251 107.091 30.149 107.024C30.3706 106.953 30.6077 107.08 30.675 107.301C30.761 107.579 30.8373 107.864 30.9024 108.151C30.9519 108.377 30.8097 108.603 30.5823 108.654C30.5516 108.662 30.5207 108.663 30.4897 108.663ZM9.31808 110.933H9.317C9.08198 110.933 8.89351 110.741 8.89559 110.509C8.89771 110.216 8.91227 109.923 8.93636 109.632C8.9573 109.4 9.16588 109.227 9.39403 109.249C9.62566 109.268 9.79902 109.473 9.77787 109.706C9.7559 109.973 9.74265 110.242 9.74053 110.515C9.73949 110.748 9.55076 110.933 9.31808 110.933ZM30.6983 112.021H30.6575C30.4246 111.997 30.2549 111.79 30.2779 111.559C30.3044 111.291 30.3187 111.022 30.3243 110.748C30.3288 110.515 30.536 110.323 30.7544 110.335C30.9871 110.339 31.1737 110.531 31.1692 110.764C31.1636 111.058 31.1472 111.351 31.1194 111.643C31.0975 111.86 30.9122 112.021 30.6983 112.021ZM9.83081 114.26C9.6521 114.26 9.4867 114.145 9.42951 113.964C9.34005 113.686 9.25959 113.404 9.19341 113.12C9.14047 112.892 9.28156 112.665 9.50785 112.612C9.74369 112.56 9.96317 112.7 10.0161 112.926C10.077 113.191 10.1519 113.451 10.2334 113.709C10.3052 113.93 10.1829 114.169 9.95995 114.24C9.91683 114.253 9.87393 114.26 9.83081 114.26ZM29.8502 115.279C29.7938 115.279 29.7353 115.268 29.6792 115.241C29.4663 115.147 29.3692 114.9 29.465 114.686C29.5733 114.436 29.6702 114.186 29.7596 113.93C29.838 113.71 30.0762 113.594 30.2978 113.67C30.5173 113.747 30.6332 113.986 30.5582 114.208C30.4611 114.486 30.3552 114.757 30.2372 115.026C30.1678 115.184 30.0122 115.279 29.8502 115.279ZM11.3475 117.26C11.2173 117.26 11.0871 117.203 11.0045 117.085C10.8324 116.848 10.6712 116.606 10.519 116.353C10.3989 116.156 10.4608 115.894 10.6614 115.774C10.861 115.655 11.1212 115.718 11.2417 115.917C11.3817 116.147 11.5304 116.373 11.6893 116.593C11.8261 116.78 11.783 117.044 11.5955 117.182C11.5183 117.236 11.4323 117.26 11.3475 117.26ZM28.0402 118.111C27.9409 118.111 27.8395 118.077 27.759 118.005C27.5857 117.851 27.5692 117.583 27.7246 117.409C27.9046 117.207 28.0743 116.999 28.2376 116.782C28.3777 116.597 28.6434 116.56 28.8287 116.7C29.0151 116.841 29.0526 117.106 28.9126 117.291C28.7361 117.526 28.5508 117.752 28.3567 117.971C28.2728 118.064 28.1561 118.111 28.0402 118.111ZM13.7166 119.649C13.6293 119.649 13.5422 119.624 13.4673 119.569C13.2291 119.395 13.0019 119.212 12.779 119.022C12.6025 118.869 12.5805 118.604 12.7349 118.428C12.886 118.249 13.1518 118.229 13.3294 118.381C13.5334 118.557 13.7452 118.726 13.9646 118.887C14.1534 119.022 14.1942 119.287 14.0573 119.476C13.9747 119.589 13.8466 119.649 13.7166 119.649ZM25.4395 120.246C25.2973 120.246 25.1549 120.173 25.0766 120.039C24.9585 119.836 25.026 119.578 25.2256 119.46C25.4593 119.322 25.6888 119.178 25.9104 119.022C26.1002 118.891 26.3614 118.936 26.4972 119.128C26.6306 119.32 26.5843 119.582 26.3934 119.716C26.1542 119.882 25.9072 120.041 25.6546 120.188C25.5861 120.229 25.5144 120.246 25.4395 120.246ZM16.7109 121.181C16.668 121.181 16.6238 121.174 16.5807 121.162C16.3041 121.072 16.0283 120.97 15.758 120.857C15.5417 120.765 15.4414 120.52 15.5298 120.304C15.619 120.089 15.865 119.987 16.0823 120.076C16.3326 120.181 16.5863 120.274 16.8422 120.358C17.0651 120.429 17.1842 120.668 17.1146 120.889C17.054 121.069 16.8885 121.181 16.7109 121.181ZM22.3049 121.467C22.1119 121.467 21.9367 121.332 21.8946 121.133C21.8451 120.907 21.9886 120.681 22.2157 120.632C22.4793 120.575 22.7416 120.507 22.9997 120.427C23.2271 120.36 23.4598 120.487 23.527 120.711C23.5942 120.935 23.4664 121.17 23.2446 121.237C22.9645 121.321 22.6799 121.394 22.3954 121.456C22.3658 121.463 22.3358 121.467 22.3049 121.467ZM20.0329 121.709C19.7396 121.709 19.4474 121.698 19.1562 121.673C18.9246 121.657 18.7502 121.454 18.7701 121.222C18.7878 120.989 18.9929 120.817 19.2235 120.834C19.4924 120.855 19.7627 120.864 20.0329 120.864C20.268 120.864 20.4554 121.054 20.4554 121.286C20.4554 121.521 20.268 121.709 20.0329 121.709Z" fill="white"/>
<path d="M72.3348 110.933C72.1015 110.933 71.9123 110.746 71.9123 110.511V19.9762C71.9123 19.7435 72.1015 19.5537 72.3348 19.5537C72.5681 19.5537 72.7567 19.7435 72.7567 19.9762V110.511C72.7567 110.746 72.5681 110.933 72.3348 110.933Z" fill="white"/>
<path d="M124.605 110.981C124.535 110.981 124.462 110.961 124.394 110.924L45.9891 65.6572C45.7874 65.5389 45.7193 65.2821 45.836 65.0793C45.9521 64.8782 46.2099 64.81 46.4116 64.9272L124.816 110.195C125.019 110.309 125.087 110.567 124.971 110.77C124.894 110.906 124.75 110.981 124.605 110.981Z" fill="white"/>
<path d="M20.067 110.981C19.9215 110.981 19.7801 110.907 19.7031 110.771C19.585 110.568 19.6543 110.31 19.8563 110.195L98.2598 64.9278C98.4615 64.8101 98.7205 64.8782 98.8377 65.0799C98.9549 65.2827 98.8862 65.5401 98.6823 65.6578L20.2774 110.925C20.2126 110.962 20.1398 110.981 20.067 110.981Z" fill="white"/>
</svg>
