<svg width="1005" height="320" viewBox="0 0 1005 320" fill="none" xmlns="http://www.w3.org/2000/svg">
<g opacity="0.4" filter="url(#filter0_d)">
<path d="M33.2647 24.1082L120.018 24.1082V43.9754H56.1119V75.1006H113.892V94.9678H56.1119L56.1119 140H33.2647V24.1082ZM120.925 57.3857H141.785V67.9815C143.882 64.7807 146.862 62.1869 150.725 60.2002C154.699 58.1031 158.838 57.0546 163.142 57.0546H174.4V76.5906H163.142C157.293 76.5906 152.547 78.3566 148.904 81.8885C145.262 85.4205 143.441 89.9458 143.441 95.4644V140H120.925V57.3857ZM208.702 141.324C201.749 141.324 195.568 140 190.16 137.351C184.862 134.592 180.723 130.729 177.743 125.762C174.873 120.795 173.438 115.056 173.438 108.544V89.1732C173.438 82.6612 174.928 76.9218 177.908 71.955C180.888 66.8778 185.027 62.9596 190.325 60.2002C195.734 57.4409 201.914 56.0612 208.868 56.0612H223.768C230.722 56.0612 236.848 57.4409 242.145 60.2002C247.554 62.9596 251.748 66.8778 254.728 71.955C257.708 76.9218 259.198 82.6612 259.198 89.1732V108.544C259.198 115.056 257.708 120.795 254.728 125.762C251.748 130.729 247.554 134.592 242.145 137.351C236.848 140 230.667 141.324 223.603 141.324H208.702ZM223.272 121.954C227.355 121.954 230.611 120.574 233.04 117.815C235.468 114.945 236.682 111.248 236.682 106.723V90.6632C236.682 86.1379 235.468 82.4956 233.04 79.7363C230.611 76.8666 227.411 75.4317 223.437 75.4317H209.199C205.226 75.4317 202.025 76.8666 199.597 79.7363C197.168 82.4956 195.954 86.1379 195.954 90.6632V106.723C195.954 111.248 197.168 114.945 199.597 117.815C202.025 120.574 205.17 121.954 209.033 121.954H223.272ZM364.453 56.0612C372.841 56.0612 379.574 58.8206 384.651 64.3392C389.728 69.7475 392.267 76.8666 392.267 85.6964V140H369.751V85.6964C369.751 82.606 369.033 80.1778 367.598 78.4118C366.163 76.5354 364.287 75.5973 361.969 75.5973H354.85C351.76 75.5973 349.056 76.7562 346.738 79.074C344.42 81.2815 342.985 84.2616 342.433 88.0143V140H319.917V85.862C319.917 82.7715 319.2 80.2881 317.765 78.4118C316.33 76.5354 314.454 75.5973 312.136 75.5973H305.679C302.478 75.5973 299.664 77.0321 297.235 79.9018C294.807 82.7715 293.262 86.5242 292.6 91.1599V140H270.084V57.3857H290.944V66.9882C292.931 63.677 295.469 61.028 298.56 59.0413C301.761 57.0546 304.962 56.0612 308.162 56.0612H317.434C321.407 56.0612 324.994 57.1098 328.195 59.2069C331.506 61.304 334.1 64.2288 335.976 67.9815C338.405 64.2288 341.274 61.304 344.585 59.2069C348.007 57.1098 351.594 56.0612 355.347 56.0612H364.453ZM464.905 140C460.159 140 456.296 138.565 453.316 135.695C450.335 132.826 448.845 129.073 448.845 124.437V24.1082L504.142 24.1082C512.972 24.1082 520.698 25.7638 527.321 29.075C534.053 32.3862 539.241 37.0771 542.883 43.1476C546.636 49.2181 548.512 56.2268 548.512 64.1737V96.6234C548.512 110.861 544.815 121.678 537.42 129.073C530.025 136.358 519.153 140 504.805 140H464.905ZM504.142 119.802C511.206 119.802 516.559 117.76 520.202 113.676C523.844 109.592 525.665 103.577 525.665 95.63V65.167C525.665 58.8757 523.623 53.8538 519.539 50.1011C515.456 46.238 510.103 44.3065 503.48 44.3065H471.693V119.802H504.142ZM576.185 140C571.439 140 567.576 138.565 564.596 135.695C561.616 132.826 560.126 129.073 560.126 124.437V24.1082L648.535 24.1082V43.9754H582.973V70.796H643.568V90.6632H582.973V120.133H648.535V140H576.185ZM659.119 24.1082L745.872 24.1082V43.9754H681.966V75.1006H739.747V94.9678H681.966V140H659.119V24.1082ZM755.726 24.1082H778.573V140H755.726V24.1082ZM873.987 140C864.274 140 857.155 137.793 852.63 133.378C848.105 128.963 845.842 122.12 845.842 112.848V76.5906H831.273V57.3857H846.504V32.3862L868.358 32.3862V57.3857H889.881V76.5906H868.358V111.855C868.358 114.945 868.91 117.208 870.014 118.643C871.228 120.078 873.104 120.795 875.643 120.795H889.881V140H873.987ZM930.2 141.324C923.246 141.324 917.065 140 911.657 137.351C906.359 134.592 902.22 130.729 899.24 125.762C896.371 120.795 894.936 115.056 894.936 108.544V89.1732C894.936 82.6612 896.426 76.9218 899.406 71.955C902.386 66.8778 906.525 62.9596 911.823 60.2002C917.231 57.4409 923.412 56.0612 930.365 56.0612H945.266C952.219 56.0612 958.345 57.4409 963.643 60.2002C969.051 62.9596 973.245 66.8778 976.225 71.955C979.206 76.9218 980.696 82.6612 980.696 89.1732V108.544C980.696 115.056 979.206 120.795 976.225 125.762C973.245 130.729 969.051 134.592 963.643 137.351C958.345 140 952.164 141.324 945.1 141.324H930.2ZM944.769 121.954C948.853 121.954 952.109 120.574 954.537 117.815C956.965 114.945 958.179 111.248 958.179 106.723V90.6632C958.179 86.1379 956.965 82.4956 954.537 79.7363C952.109 76.8666 948.908 75.4317 944.935 75.4317H930.697C926.723 75.4317 923.522 76.8666 921.094 79.7363C918.666 82.4956 917.452 86.1379 917.452 90.6632V106.723C917.452 111.248 918.666 114.945 921.094 117.815C923.522 120.574 926.668 121.954 930.531 121.954H944.769ZM61.741 199.975H24.9867L24.9867 180.108H121.342V199.975H84.5882V296H61.741V199.975ZM144.76 296C140.014 296 136.151 294.565 133.171 291.695C130.191 288.826 128.701 285.073 128.701 280.437V180.108H217.11V199.975H151.548V226.796H212.143V246.663H151.548V276.133H217.11V296H144.76ZM227.694 180.108H314.447V199.975H250.541V231.101H308.321V250.968H250.541V296H227.694V180.108ZM324.301 180.108H347.148V296H324.301V180.108Z" fill="#0B0A15"/>
</g>
<defs>
<filter id="filter0_d" x="0.986694" y="0.108215" width="1003.71" height="319.892" filterUnits="userSpaceOnUse" color-interpolation-filters="sRGB">
<feFlood flood-opacity="0" result="BackgroundImageFix"/>
<feColorMatrix in="SourceAlpha" type="matrix" values="0 0 0 0 0 0 0 0 0 0 0 0 0 0 0 0 0 0 127 0"/>
<feOffset/>
<feGaussianBlur stdDeviation="12"/>
<feColorMatrix type="matrix" values="0 0 0 0 0.282353 0 0 0 0 0.942196 0 0 0 0 0.984314 0 0 0 0.6 0"/>
<feBlend mode="normal" in2="BackgroundImageFix" result="effect1_dropShadow"/>
<feBlend mode="normal" in="SourceGraphic" in2="effect1_dropShadow" result="shape"/>
</filter>
</defs>
</svg>
