<svg viewBox="0 0 153 137" fill="none" xmlns="http://www.w3.org/2000/svg">
<path d="M23.2691 114.705H130.488L76.8796 21.8522L23.2691 114.705ZM132.772 117.342H20.9852C20.515 117.342 20.0778 117.092 19.8421 116.683C19.6076 116.276 19.6076 115.773 19.8421 115.364L75.7364 18.5556C75.9709 18.1472 76.4068 17.8966 76.8796 17.8966C77.3497 17.8966 77.7855 18.1472 78.02 18.5556L133.913 115.364C134.151 115.773 134.151 116.276 133.913 116.683C133.679 117.092 133.244 117.342 132.772 117.342Z" fill="white"/>
<path d="M75.6501 0.90961C75.4188 0.90961 75.2234 0.728848 75.2109 0.494294C75.1968 0.252846 75.3846 0.0446191 75.6262 0.0320256C75.9226 0.0148723 76.2222 0.00341979 76.5257 0H76.53C76.7705 0 76.9648 0.194494 76.9681 0.433662C76.9729 0.676195 76.777 0.876443 76.536 0.878723C76.2461 0.883337 75.96 0.892457 75.675 0.90961H75.6501ZM80.0334 1.13048C80.0095 1.13048 79.9878 1.12934 79.9639 1.12473C79.68 1.08011 79.3961 1.04238 79.1111 1.00916C78.869 0.980556 78.6959 0.763156 78.7236 0.521762C78.7507 0.279174 78.9857 0.108674 79.211 0.136141C79.5096 0.170447 79.8059 0.209368 80.1012 0.257407C80.3412 0.295188 80.504 0.520621 80.466 0.760875C80.4318 0.977136 80.2451 1.13048 80.0334 1.13048ZM72.1749 1.40624C71.9746 1.40624 71.7939 1.26776 71.7472 1.0641C71.6913 0.828403 71.84 0.592709 72.0767 0.537775C72.3671 0.471388 72.6591 0.408474 72.9555 0.35354C73.1867 0.31234 73.4212 0.465688 73.4658 0.705941C73.5114 0.945109 73.3534 1.17282 73.1146 1.21858C72.8328 1.27118 72.5527 1.33073 72.2737 1.39364C72.2417 1.40162 72.207 1.40624 72.1749 1.40624ZM83.4423 1.97718C83.3951 1.97718 83.3462 1.9692 83.299 1.95433C83.0281 1.86047 82.7556 1.77351 82.4788 1.69231C82.2465 1.62364 82.1124 1.37877 82.1813 1.1465C82.2514 0.913082 82.4924 0.780308 82.7285 0.848975C83.0167 0.933656 83.3017 1.02518 83.5851 1.12131C83.8152 1.20029 83.9363 1.45086 83.8576 1.67971C83.7935 1.86275 83.6252 1.97718 83.4423 1.97718ZM68.836 2.48982C68.6667 2.48982 68.5044 2.39027 68.4322 2.22205C68.3361 1.99895 68.4414 1.74035 68.6645 1.64649C68.9402 1.52978 69.2171 1.41883 69.4977 1.31352C69.723 1.23004 69.9792 1.34213 70.0639 1.57099C70.1497 1.7987 70.0351 2.05155 69.8077 2.13737C69.5363 2.23806 69.2708 2.34337 69.0081 2.45546C68.9516 2.47951 68.8946 2.48982 68.836 2.48982ZM86.6553 3.39715C86.5831 3.39715 86.5098 3.38 86.4447 3.34227C86.1906 3.20608 85.9377 3.07222 85.6793 2.94406C85.4605 2.8388 85.3726 2.5745 85.4812 2.3571C85.5897 2.1397 85.8519 2.05041 86.0685 2.15685C86.3372 2.29071 86.6037 2.42799 86.8659 2.57217C87.0787 2.68887 87.1563 2.95665 87.0396 3.16835C86.9609 3.31481 86.8094 3.39715 86.6553 3.39715ZM65.7332 4.13175C65.5878 4.13175 65.4472 4.06081 65.3625 3.93037C65.2306 3.72556 65.2903 3.45323 65.4949 3.32278C65.7468 3.16146 66.0009 3.00469 66.262 2.85368C66.4688 2.73008 66.7391 2.80102 66.8612 3.01044C66.9839 3.21981 66.9128 3.48872 66.7033 3.61227C66.4563 3.75759 66.2115 3.90637 65.9699 4.06081C65.8977 4.1089 65.8141 4.13175 65.7332 4.13175ZM89.58 5.34464C89.4839 5.34464 89.3879 5.31375 89.3043 5.2485C89.0801 5.07116 88.851 4.8961 88.6198 4.72674C88.4233 4.58376 88.3809 4.30795 88.5237 4.11232C88.667 3.91663 88.9427 3.87429 89.1371 4.01619C89.3797 4.19353 89.6175 4.37548 89.852 4.56086C90.042 4.71187 90.074 4.98882 89.9231 5.17875C89.8362 5.28857 89.707 5.34464 89.58 5.34464ZM62.9513 6.27721C62.8335 6.27721 62.7135 6.22912 62.6288 6.13532C62.4654 5.95678 62.4768 5.67875 62.6549 5.51286C62.8747 5.31147 63.0989 5.11351 63.3291 4.92129C63.5169 4.76452 63.7937 4.78857 63.949 4.97389C64.1048 5.1604 64.082 5.43849 63.8952 5.59407C63.6732 5.77716 63.4604 5.96709 63.2487 6.1605C63.1657 6.23943 63.0577 6.27721 62.9513 6.27721ZM92.1269 7.75896C92.007 7.75896 91.8865 7.70863 91.7985 7.6125C91.6085 7.39738 91.4153 7.18801 91.215 6.98201C91.0456 6.80809 91.0489 6.53006 91.2221 6.35955C91.3968 6.19253 91.6759 6.19595 91.843 6.36873C92.0537 6.58385 92.2572 6.80353 92.4554 7.02663C92.6177 7.20745 92.6008 7.48548 92.4212 7.64795C92.3376 7.72237 92.2323 7.75896 92.1269 7.75896ZM60.5748 8.86311C60.4798 8.86311 60.3859 8.83222 60.3061 8.77159C60.1139 8.62286 60.0808 8.34596 60.2268 8.15489C60.4114 7.918 60.6003 7.68459 60.7925 7.45573C60.9455 7.26922 61.2262 7.24637 61.4113 7.40308C61.598 7.55871 61.6208 7.83674 61.465 8.02211C61.2788 8.2418 61.0992 8.46609 60.9227 8.69152C60.837 8.80362 60.7056 8.86311 60.5748 8.86311ZM94.2309 10.5703C94.0849 10.5703 93.9394 10.4959 93.858 10.3621C93.7071 10.1183 93.5491 9.87922 93.3868 9.64347C93.2528 9.44209 93.3032 9.16981 93.5046 9.03247C93.7038 8.89633 93.9785 8.94551 94.1142 9.1469C94.2825 9.39405 94.4475 9.64467 94.6044 9.89866C94.7325 10.1057 94.6684 10.3758 94.4622 10.504C94.3916 10.5486 94.3123 10.5703 94.2309 10.5703ZM58.6684 11.8141C58.6011 11.8141 58.53 11.7992 58.4627 11.7637C58.2488 11.6493 58.1685 11.3827 58.2819 11.1688C58.4214 10.9033 58.568 10.6424 58.7189 10.385C58.8437 10.1733 59.1124 10.1057 59.3209 10.2282C59.5304 10.3506 59.5999 10.6207 59.4767 10.8289C59.3312 11.0772 59.1928 11.3267 59.0576 11.5795C58.98 11.7306 58.8274 11.8141 58.6684 11.8141ZM95.8295 13.6986C95.6558 13.6986 95.4908 13.5957 95.4224 13.4252C95.3149 13.1597 95.1993 12.8954 95.0799 12.6356C94.9795 12.4148 95.0777 12.1539 95.2976 12.0521C95.5147 11.9525 95.778 12.0487 95.88 12.2695C96.0049 12.5418 96.1238 12.8164 96.2356 13.0933C96.3273 13.3176 96.2198 13.5762 95.9935 13.6666C95.9408 13.6883 95.8844 13.6986 95.8295 13.6986ZM57.2978 15.0465C57.2522 15.0465 57.2066 15.0397 57.1604 15.0248C56.9308 14.9504 56.8038 14.7021 56.8793 14.4721C56.9715 14.1861 57.0714 13.9034 57.1756 13.6231C57.2603 13.3966 57.5116 13.281 57.7396 13.3645C57.9698 13.4504 58.0827 13.7021 58.0002 13.9309C57.8976 14.1986 57.8037 14.4698 57.7157 14.7433C57.6539 14.9287 57.4823 15.0465 57.2978 15.0465ZM96.8652 17.0546C96.6628 17.0546 96.4793 16.9128 96.4359 16.7091C96.3729 16.4276 96.3078 16.1473 96.2356 15.8715C96.1742 15.6358 96.3159 15.3955 96.5504 15.3349C96.7838 15.2742 97.0243 15.4138 97.0862 15.6484C97.1627 15.9368 97.23 16.2285 97.2941 16.5214C97.3467 16.7583 97.1958 16.9929 96.9602 17.0443C96.9271 17.0512 96.8951 17.0546 96.8652 17.0546ZM56.5014 18.4678C56.4797 18.4678 56.4602 18.4666 56.4374 18.4632C56.1958 18.4289 56.0303 18.2058 56.0656 17.9666C56.1079 17.6691 56.1573 17.3739 56.2132 17.0798C56.2555 16.8407 56.4879 16.6816 56.7235 16.7285C56.9628 16.772 57.1219 17.002 57.0758 17.2412C57.0253 17.5226 56.9764 17.8064 56.9362 18.0913C56.9042 18.311 56.7153 18.4678 56.5014 18.4678ZM97.3093 20.5377C97.0748 20.5377 96.881 20.3534 96.8696 20.1177C96.8582 19.8294 96.8397 19.5422 96.8169 19.2573C96.7963 19.0159 96.9771 18.8019 97.2197 18.7836C97.4363 18.7641 97.6719 18.9414 97.6936 19.1852C97.7153 19.4804 97.7359 19.779 97.7484 20.0777C97.7598 20.3214 97.5698 20.5262 97.3288 20.5365C97.3207 20.5377 97.3147 20.5377 97.3093 20.5377ZM56.3001 21.9759C56.0634 21.9759 55.8663 21.7871 55.8609 21.548C55.8549 21.3501 55.8528 21.1532 55.8528 20.9542L55.8549 20.651C55.856 20.4106 56.0531 20.2173 56.2957 20.2173H56.2979C56.5405 20.2184 56.7359 20.4163 56.7338 20.6601L56.7327 20.9542C56.7327 21.1453 56.7338 21.3352 56.7408 21.524C56.7463 21.7677 56.5541 21.9691 56.3125 21.9759H56.3001ZM97.1567 24.0458C97.1372 24.0458 97.1193 24.0447 97.0998 24.0424C96.8582 24.0104 96.6899 23.7907 96.7209 23.5493C96.7567 23.2667 96.7887 22.9817 96.8137 22.6957C96.8343 22.4531 97.0699 22.27 97.2876 22.2952C97.5297 22.3158 97.7093 22.5274 97.6903 22.7689C97.6637 23.0698 97.6306 23.3674 97.5926 23.6637C97.5633 23.8856 97.3744 24.0458 97.1567 24.0458ZM56.6985 25.4636C56.4922 25.4636 56.3093 25.3194 56.268 25.11C56.2083 24.8193 56.1573 24.5253 56.1079 24.2278C56.0699 23.9887 56.2327 23.7632 56.4727 23.7255C56.7153 23.6843 56.9373 23.8502 56.9764 24.0893C57.022 24.3742 57.0725 24.6569 57.1284 24.9383C57.1767 25.1764 57.022 25.4075 56.7843 25.4555C56.7555 25.4612 56.7267 25.4636 56.6985 25.4636ZM96.4076 27.4751C96.3653 27.4751 96.3181 27.4694 96.2757 27.4556C96.0434 27.3824 95.9153 27.1364 95.9875 26.9053C96.0733 26.6329 96.1525 26.3583 96.2231 26.0803C96.2861 25.8446 96.5287 25.705 96.761 25.7668C96.9966 25.8286 97.1361 26.0677 97.0748 26.3023C96.9977 26.5941 96.9179 26.8824 96.8273 27.1684C96.767 27.3549 96.5938 27.4751 96.4076 27.4751ZM57.6881 28.8333C57.5106 28.8333 57.345 28.7269 57.2761 28.5541C57.1686 28.2749 57.0654 27.9934 56.9704 27.7097C56.8906 27.4808 57.0128 27.2302 57.2429 27.1513C57.4731 27.0735 57.7212 27.1959 57.8004 27.4247C57.8927 27.6971 57.9926 27.966 58.0952 28.2326C58.1858 28.4591 58.0735 28.7143 57.846 28.8024C57.7934 28.823 57.7396 28.8333 57.6881 28.8333ZM95.0777 30.7293C95.0115 30.7293 94.9404 30.7133 94.8785 30.6812C94.6614 30.5714 94.5756 30.3071 94.6853 30.0896C94.8161 29.8345 94.9442 29.5748 95.0631 29.3139C95.1662 29.0919 95.4279 28.9958 95.6455 29.0976C95.8675 29.1994 95.9636 29.4603 95.8627 29.6812C95.7367 29.9523 95.6032 30.2224 95.468 30.489C95.3926 30.6412 95.2368 30.7293 95.0777 30.7293ZM59.2384 31.9788C59.0896 31.9788 58.9458 31.9033 58.8633 31.7659C58.7086 31.5108 58.5587 31.2533 58.416 30.9902C58.2993 30.7773 58.378 30.5096 58.5897 30.3917C58.7992 30.2785 59.0701 30.3528 59.1868 30.5668C59.323 30.8185 59.4674 31.0668 59.6151 31.3128C59.7421 31.5199 59.6742 31.79 59.4653 31.9158C59.3963 31.9582 59.3176 31.9788 59.2384 31.9788ZM93.2137 33.7067C93.1225 33.7067 93.0286 33.6768 92.9499 33.6171C92.7539 33.4722 92.7164 33.1964 92.8625 33.0015C93.0329 32.7719 93.2023 32.5394 93.3651 32.3037C93.5035 32.1024 93.7771 32.0531 93.9769 32.1893C94.1761 32.3277 94.2277 32.6024 94.0892 32.8012C93.921 33.0488 93.7451 33.2914 93.5654 33.5292C93.478 33.6448 93.3467 33.7067 93.2137 33.7067ZM61.3049 34.8178C61.1811 34.8178 61.0601 34.7663 60.9732 34.6642C60.7762 34.44 60.5851 34.2099 60.3989 33.9765C60.2475 33.7854 60.2795 33.5096 60.4684 33.3576C60.6573 33.2078 60.9352 33.2377 61.0861 33.4271C61.2658 33.6529 61.4504 33.8739 61.6366 34.0899C61.7956 34.2728 61.7766 34.5508 61.592 34.7087C61.5095 34.782 61.4069 34.8178 61.3049 34.8178ZM90.8681 36.3236C90.7514 36.3236 90.6358 36.2753 90.549 36.1836C90.3828 36.0055 90.391 35.7271 90.5685 35.5626C90.7791 35.3655 90.9827 35.1642 91.1808 34.9595C91.3512 34.7869 91.6313 34.7831 91.8018 34.9514C91.9782 35.1207 91.9804 35.3997 91.811 35.5729C91.6004 35.7868 91.3898 35.9996 91.1694 36.2042C91.0847 36.2845 90.9767 36.3236 90.8681 36.3236ZM63.822 37.266C63.7226 37.266 63.6255 37.2329 63.543 37.1666C63.3128 36.9766 63.0854 36.7823 62.8601 36.582C62.6804 36.4219 62.6652 36.1429 62.827 35.9632C62.9893 35.7808 63.265 35.7651 63.4469 35.9274C63.6597 36.1173 63.8784 36.3052 64.1004 36.487C64.2877 36.6417 64.3154 36.9175 64.1623 37.1047C64.0749 37.2111 63.949 37.266 63.822 37.266ZM88.1209 38.5041C87.9803 38.5041 87.8397 38.4358 87.755 38.3087C87.621 38.1073 87.6769 37.8348 87.8783 37.6986C88.1176 37.5406 88.3532 37.3762 88.5856 37.2079C88.7799 37.0673 89.0556 37.1085 89.2 37.3061C89.3417 37.5032 89.2972 37.7778 89.0991 37.9206C88.8602 38.0959 88.6133 38.2653 88.3646 38.4298C88.2892 38.4813 88.2056 38.5041 88.1209 38.5041ZM66.7185 39.2549C66.6463 39.2549 66.5681 39.2353 66.5008 39.1979C66.2413 39.0491 65.9846 38.8955 65.7294 38.7376C65.5237 38.6095 65.4629 38.337 65.591 38.1312C65.7208 37.9266 65.9916 37.8636 66.1979 37.9917C66.4389 38.1437 66.6864 38.2914 66.9356 38.4309C67.1462 38.5514 67.2217 38.8201 67.1006 39.0307C67.0203 39.1735 66.8726 39.2549 66.7185 39.2549ZM85.042 40.1864C84.8748 40.1864 84.7125 40.0892 84.6392 39.9242C84.5421 39.7022 84.6425 39.4438 84.8656 39.3455C85.1267 39.231 85.3862 39.1083 85.6424 38.9824C85.8622 38.8749 86.1233 38.9655 86.2308 39.1816C86.3394 39.4003 86.2503 39.6658 86.0316 39.7711C85.764 39.9035 85.4926 40.0284 85.2179 40.1484C85.1609 40.175 85.1012 40.1864 85.042 40.1864ZM69.9152 40.7194C69.8647 40.7194 69.8158 40.7102 69.7664 40.6933C69.4814 40.5924 69.2013 40.4838 68.9267 40.3704C68.7014 40.2803 68.5923 40.0241 68.6851 39.7993C68.7768 39.5719 69.032 39.4644 69.2583 39.5572C69.5238 39.6658 69.7914 39.7673 70.0628 39.865C70.2908 39.947 70.4097 40.1988 70.3282 40.4279C70.2642 40.6076 70.0959 40.7194 69.9152 40.7194ZM81.7188 41.3181C81.5213 41.3181 81.3416 41.1841 81.2911 40.9827C81.2325 40.7482 81.3769 40.5099 81.6114 40.4518C81.8909 40.3829 82.1678 40.3085 82.4435 40.2276C82.6791 40.1598 82.9207 40.2949 82.988 40.5272C83.0591 40.7607 82.9239 41.0044 82.6905 41.0706C82.4023 41.1542 82.1151 41.2345 81.8231 41.304C81.7889 41.3133 81.752 41.3181 81.7188 41.3181ZM73.3127 41.6118C73.2872 41.6118 73.2622 41.6107 73.2383 41.6064C72.943 41.5548 72.6466 41.4989 72.3546 41.4348C72.1179 41.3822 71.9692 41.1488 72.0197 40.9105C72.0707 40.6749 72.3019 40.5251 72.5413 40.5756C72.8214 40.6369 73.1032 40.6923 73.387 40.74C73.6248 40.7813 73.786 41.0066 73.7459 41.247C73.7084 41.4598 73.5217 41.6118 73.3127 41.6118ZM78.2486 41.8626C78.0195 41.8626 77.8273 41.6862 77.8116 41.4538C77.7921 41.2128 77.975 41.0022 78.2176 40.9827C78.5037 40.962 78.7898 40.9371 79.0748 40.905C79.3125 40.8806 79.5345 41.0527 79.5611 41.2915C79.5861 41.5342 79.4135 41.7513 79.173 41.7779C78.8755 41.8121 78.5792 41.8398 78.2806 41.8615C78.2703 41.8615 78.26 41.8626 78.2486 41.8626ZM76.8101 41.9104C76.5083 41.9104 76.2097 41.9049 75.9123 41.8914C75.6707 41.8821 75.4818 41.6769 75.491 41.4332C75.5024 41.1922 75.6761 40.9827 75.9508 41.0147C76.2358 41.0272 76.5208 41.0321 76.8101 41.0321C77.0538 41.0321 77.2476 41.2286 77.2476 41.4712C77.2476 41.7149 77.0538 41.9104 76.8101 41.9104Z" fill="white"/>
<path d="M95.0781 11.9664C94.9261 11.9664 94.7774 11.8875 94.6971 11.7456L94.2601 10.9835C94.1401 10.773 94.2107 10.5041 94.424 10.3829C94.6319 10.2627 94.9023 10.3348 95.0222 10.5465L95.4592 11.3085C95.5792 11.519 95.5075 11.788 95.2958 11.9092C95.228 11.9481 95.1514 11.9664 95.0781 11.9664ZM96.8276 15.0169C96.6757 15.0169 96.528 14.9392 96.4466 14.7973L96.0085 14.034C95.8875 13.8247 95.9602 13.5546 96.1708 13.4345C96.3782 13.3132 96.6491 13.3841 96.7707 13.5958L97.2098 14.359C97.3287 14.5684 97.257 14.8385 97.0475 14.9586C96.9764 14.9975 96.902 15.0169 96.8276 15.0169ZM98.5772 18.0686C98.4263 18.0686 98.2764 17.9885 98.1961 17.8478L97.7591 17.0846C97.6354 16.874 97.7114 16.6051 97.9193 16.4839C98.1299 16.3648 98.4013 16.4358 98.5202 16.6463L98.9582 17.4095C99.0798 17.62 99.0055 17.889 98.7959 18.0102C98.7259 18.0491 98.6515 18.0686 98.5772 18.0686ZM100.326 21.1179C100.175 21.1179 100.027 21.039 99.9445 20.8983L99.5076 20.1362C99.3876 19.9246 99.4582 19.6568 99.671 19.5344C99.8772 19.4153 100.148 19.4863 100.27 19.698L100.707 20.46C100.828 20.6694 100.756 20.9395 100.545 21.0596C100.477 21.0997 100.401 21.1179 100.326 21.1179ZM102.075 24.1696C101.922 24.1696 101.775 24.0907 101.694 23.9476L101.256 23.1856C101.137 22.9739 101.208 22.7061 101.419 22.5849C101.629 22.4658 101.899 22.5368 102.018 22.7485L102.457 23.5117C102.576 23.7211 102.504 23.9911 102.295 24.1112C102.225 24.1502 102.149 24.1696 102.075 24.1696ZM103.826 27.2212C103.674 27.2212 103.524 27.1412 103.445 26.9993L103.007 26.2372C102.884 26.0256 102.958 25.7578 103.167 25.6365C103.376 25.5152 103.647 25.5873 103.77 25.799L104.207 26.5611C104.327 26.7716 104.256 27.0405 104.043 27.1617C103.974 27.2018 103.899 27.2212 103.826 27.2212ZM105.573 30.2706C105.422 30.2706 105.273 30.1905 105.192 30.0498L104.756 29.2854C104.635 29.0761 104.708 28.8071 104.918 28.687C105.128 28.568 105.398 28.6367 105.518 28.8495L105.954 29.6127C106.075 29.8232 106.004 30.091 105.793 30.2134C105.723 30.2512 105.649 30.2706 105.573 30.2706ZM107.323 33.3213C107.172 33.3213 107.024 33.242 106.942 33.1014L106.503 32.3371C106.385 32.1277 106.455 31.8588 106.667 31.7375C106.875 31.6173 107.144 31.6872 107.266 31.8989L107.705 32.6634C107.827 32.8724 107.751 33.1427 107.544 33.2626C107.475 33.3017 107.399 33.3213 107.323 33.3213ZM109.072 36.373C108.921 36.373 108.774 36.2916 108.691 36.151L108.254 35.3889C108.132 35.1783 108.207 34.9096 108.416 34.7891C108.627 34.6669 108.896 34.7402 109.017 34.9503L109.453 35.7124C109.574 35.9241 109.503 36.1917 109.291 36.3144C109.222 36.3535 109.146 36.373 109.072 36.373ZM110.823 39.4221C110.67 39.4221 110.522 39.3434 110.442 39.2022L110.004 38.439C109.882 38.2289 109.955 37.9586 110.166 37.8386C110.372 37.7181 110.644 37.7892 110.766 38.002L111.204 38.7642C111.324 38.9748 111.252 39.2435 111.04 39.364C110.971 39.4036 110.896 39.4221 110.823 39.4221ZM112.57 42.4738C112.419 42.4738 112.269 42.3946 112.189 42.2518L111.753 41.4897C111.632 41.2801 111.704 41.0104 111.914 40.8904C112.126 40.7699 112.394 40.841 112.515 41.0538L112.952 41.8159C113.074 42.0254 112.999 42.2941 112.79 42.4152C112.72 42.4543 112.647 42.4738 112.57 42.4738ZM114.321 45.5245C114.17 45.5245 114.022 45.4463 113.939 45.3036L113.502 44.5414C113.38 44.3297 113.454 44.0621 113.664 43.9394C113.873 43.8195 114.142 43.8917 114.265 44.1034L114.701 44.8666C114.823 45.0767 114.75 45.3448 114.541 45.4659C114.472 45.506 114.396 45.5245 114.321 45.5245ZM116.07 48.5735C115.917 48.5735 115.769 48.4959 115.689 48.3553L115.252 47.591C115.131 47.3815 115.203 47.1112 115.414 46.9912C115.624 46.8734 115.893 46.9407 116.014 47.1546L116.451 47.9156C116.571 48.1284 116.499 48.396 116.288 48.5176C116.219 48.5551 116.143 48.5735 116.07 48.5735ZM117.82 51.6264C117.667 51.6264 117.519 51.5476 117.44 51.4043L117.001 50.6422C116.879 50.4294 116.952 50.1618 117.162 50.0419C117.369 49.9224 117.641 49.9925 117.763 50.2031L118.202 50.9663C118.321 51.178 118.249 51.4467 118.038 51.5672C117.97 51.6068 117.893 51.6264 117.82 51.6264ZM119.568 54.677C119.417 54.677 119.269 54.5956 119.186 54.4561L118.749 53.6929C118.627 53.4823 118.702 53.2147 118.911 53.092C119.123 52.972 119.391 53.0431 119.512 53.2548L119.948 54.017C120.071 54.2297 119.997 54.4974 119.788 54.6184C119.717 54.6586 119.644 54.677 119.568 54.677ZM121.318 57.7261C121.167 57.7261 121.019 57.6484 120.937 57.5068L120.5 56.7446C120.378 56.5319 120.45 56.2664 120.662 56.1416C120.869 56.0238 121.139 56.0933 121.262 56.306L121.699 57.0682C121.82 57.2777 121.746 57.548 121.536 57.6669C121.467 57.7082 121.393 57.7261 121.318 57.7261ZM123.067 60.7767C122.914 60.7767 122.766 60.698 122.687 60.5569L122.248 59.7953C122.129 59.582 122.2 59.3144 122.411 59.1922C122.621 59.0744 122.891 59.145 123.011 59.3556L123.449 60.121C123.568 60.3305 123.496 60.5992 123.286 60.7197C123.217 60.7594 123.14 60.7767 123.067 60.7767ZM124.817 63.8274C124.665 63.8274 124.517 63.7481 124.436 63.6086L123.999 62.8454C123.875 62.6337 123.949 62.3661 124.159 62.2434C124.369 62.1246 124.638 62.1957 124.76 62.4074L125.198 63.1695C125.319 63.3801 125.247 63.6488 125.035 63.7677C124.967 63.8089 124.891 63.8274 124.817 63.8274ZM126.565 66.8775C126.414 66.8775 126.266 66.7999 126.184 66.6571L125.748 65.895C125.626 65.6833 125.7 65.4157 125.909 65.2941C126.12 65.1752 126.388 65.2463 126.51 65.458L126.947 66.2213C127.067 66.433 126.995 66.7006 126.786 66.8195C126.714 66.8607 126.641 66.8775 126.565 66.8775ZM128.316 69.9293C128.165 69.9293 128.015 69.8506 127.935 69.7084L127.496 68.9451C127.376 68.7351 127.447 68.4669 127.659 68.347C127.864 68.227 128.136 68.2954 128.259 68.5082L128.697 69.2703C128.818 69.482 128.743 69.7523 128.535 69.8712C128.467 69.9125 128.39 69.9293 128.316 69.9293ZM130.064 72.9789C129.912 72.9789 129.763 72.9012 129.683 72.759L129.246 71.9969C129.126 71.7852 129.197 71.5176 129.41 71.3954C129.619 71.2787 129.888 71.3482 130.008 71.5599L130.445 72.322C130.566 72.5327 130.494 72.8003 130.282 72.9202C130.214 72.9604 130.139 72.9789 130.064 72.9789ZM131.814 76.0306C131.661 76.0306 131.514 75.9514 131.433 75.8119L130.996 75.0465C130.873 74.8369 130.947 74.5683 131.157 74.4467C131.364 74.3256 131.635 74.3978 131.758 74.6095L132.196 75.3727C132.315 75.5828 132.243 75.852 132.034 75.972C131.962 76.0122 131.888 76.0306 131.814 76.0306ZM133.563 79.0818C133.412 79.0818 133.262 79.002 133.182 78.8604L132.745 78.0982C132.624 77.8865 132.697 77.62 132.906 77.4984C133.116 77.3774 133.387 77.4496 133.508 77.6607L133.944 78.4228C134.065 78.6345 133.991 78.9011 133.781 79.0227C133.713 79.0639 133.638 79.0818 133.563 79.0818ZM135.312 82.1314C135.16 82.1314 135.013 82.0527 134.931 81.9116L134.494 81.1494C134.373 80.9383 134.444 80.669 134.657 80.5491C134.864 80.4275 135.134 80.4997 135.255 80.7114L135.693 81.4746C135.815 81.6852 135.742 81.9528 135.531 82.0744C135.463 82.113 135.388 82.1314 135.312 82.1314ZM137.061 85.1832C136.909 85.1832 136.761 85.1039 136.68 84.9622L136.243 84.199C136.123 83.9895 136.195 83.7208 136.405 83.5997C136.615 83.4792 136.885 83.5503 137.005 83.7631L137.443 84.5253C137.564 84.7359 137.49 85.0046 137.28 85.1256C137.211 85.1636 137.136 85.1832 137.061 85.1832ZM138.812 88.2338C138.659 88.2338 138.512 88.1557 138.431 88.0129L137.993 87.2508C137.87 87.0391 137.944 86.7715 138.154 86.6499C138.362 86.5288 138.633 86.6021 138.756 86.8127L139.193 87.5759C139.313 87.786 139.242 88.0542 139.029 88.1763C138.962 88.2154 138.885 88.2338 138.812 88.2338ZM140.56 91.2829C140.408 91.2829 140.259 91.2052 140.178 91.0647L139.742 90.2998C139.621 90.0908 139.694 89.8205 139.904 89.7016C140.114 89.5827 140.385 89.6522 140.504 89.8639L140.94 90.6261C141.062 90.8378 140.989 91.1054 140.778 91.2281C140.709 91.266 140.636 91.2829 140.56 91.2829ZM142.309 94.3357C142.158 94.3357 142.011 94.257 141.928 94.1137L141.492 93.3516C141.37 93.1388 141.442 92.8712 141.653 92.7534C141.861 92.6318 142.13 92.7029 142.252 92.9124L142.691 93.6756C142.813 93.8884 142.737 94.156 142.529 94.2776C142.461 94.3162 142.385 94.3357 142.309 94.3357ZM144.059 97.3864C143.907 97.3864 143.759 97.306 143.679 97.1644L143.24 96.4022C143.119 96.1927 143.192 95.924 143.402 95.8024C143.613 95.6824 143.882 95.7546 144.003 95.9653L144.44 96.7274C144.56 96.9391 144.489 97.2078 144.277 97.3278C144.209 97.3679 144.133 97.3864 144.059 97.3864ZM145.809 100.437C145.656 100.437 145.508 100.358 145.428 100.217L144.989 99.4529C144.868 99.2434 144.941 98.9758 145.152 98.8542C145.359 98.7342 145.63 98.8026 145.751 99.0154L146.19 99.7775C146.309 99.987 146.238 100.258 146.026 100.376C145.959 100.416 145.883 100.437 145.809 100.437ZM147.556 103.487C147.405 103.487 147.256 103.41 147.175 103.266L146.739 102.503C146.618 102.291 146.691 102.024 146.901 101.903C147.113 101.785 147.38 101.855 147.501 102.066L147.938 102.83C148.06 103.04 147.985 103.309 147.777 103.429C147.706 103.469 147.633 103.487 147.556 103.487ZM149.178 106.318C149.027 106.318 148.881 106.238 148.798 106.095L148.487 105.555C148.367 105.344 148.44 105.077 148.65 104.953C148.86 104.835 149.128 104.906 149.25 105.117L149.561 105.657C149.683 105.87 149.609 106.137 149.4 106.259C149.328 106.298 149.255 106.318 149.178 106.318Z" fill="white"/>
<path d="M76.9133 10.1168C70.9335 10.1168 66.0671 14.9821 66.0671 20.9629C66.0671 26.9426 70.9335 31.809 76.9133 31.809C82.8941 31.809 87.7584 26.9426 87.7584 20.9629C87.7584 14.9821 82.8941 10.1168 76.9133 10.1168ZM76.9133 33.5677C69.9635 33.5677 64.3089 27.9129 64.3089 20.9629C64.3089 14.0129 69.9635 8.35815 76.9133 8.35815C83.8625 8.35815 89.5171 14.0129 89.5171 20.9629C89.5171 27.9129 83.8625 33.5677 76.9133 33.5677Z" fill="white"/>
<path d="M130.319 95.993C130.087 95.993 129.893 95.8133 129.881 95.5809C129.868 95.3383 130.054 95.1304 130.295 95.1168C130.592 95.0995 130.891 95.0881 131.194 95.087H131.199C131.439 95.087 131.634 95.2781 131.637 95.518C131.641 95.7617 131.446 95.962 131.205 95.9642C130.915 95.9691 130.628 95.9772 130.343 95.993H130.319ZM134.703 96.2139C134.68 96.2139 134.656 96.2117 134.634 96.2095C134.349 96.1645 134.065 96.127 133.781 96.0912C133.539 96.0641 133.365 95.8464 133.394 95.6065C133.42 95.3649 133.654 95.1912 133.88 95.2205C134.179 95.2553 134.475 95.2927 134.77 95.3421C135.011 95.3796 135.173 95.6037 135.135 95.8453C135.101 96.0608 134.915 96.2139 134.703 96.2139ZM126.844 96.4918C126.643 96.4918 126.462 96.3523 126.414 96.152C126.359 95.9132 126.508 95.6787 126.744 95.6233C127.034 95.5549 127.327 95.4941 127.624 95.4371C127.857 95.3969 128.091 95.5516 128.135 95.7905C128.18 96.0288 128.023 96.2584 127.785 96.3029C127.501 96.3572 127.222 96.4153 126.944 96.4782C126.908 96.4875 126.876 96.4918 126.844 96.4918ZM138.113 97.0618C138.064 97.0618 138.015 97.0547 137.969 97.0368C137.697 96.9429 137.425 96.8582 137.149 96.7757C136.915 96.7057 136.782 96.4619 136.852 96.2302C136.921 95.9978 137.162 95.8627 137.398 95.9322C137.685 96.0168 137.971 96.1097 138.253 96.2057C138.484 96.2861 138.606 96.5341 138.528 96.7643C138.463 96.9472 138.293 97.0618 138.113 97.0618ZM123.508 97.5753C123.335 97.5753 123.173 97.4749 123.101 97.3066C123.008 97.0835 123.113 96.8273 123.335 96.7312C123.611 96.6145 123.886 96.5043 124.168 96.3995C124.392 96.3148 124.647 96.4288 124.732 96.6568C124.819 96.8843 124.702 97.1372 124.476 97.2241C124.207 97.3229 123.942 97.4303 123.68 97.5422C123.621 97.5639 123.564 97.5753 123.508 97.5753ZM141.323 98.4807C141.252 98.4807 141.18 98.4623 141.114 98.427C140.862 98.2885 140.607 98.1566 140.349 98.0285C140.133 97.9221 140.044 97.6578 140.15 97.4396C140.258 97.2219 140.522 97.1329 140.738 97.2404C141.009 97.3717 141.274 97.5128 141.535 97.6556C141.748 97.7745 141.827 98.0378 141.71 98.2527C141.63 98.3982 141.479 98.4807 141.323 98.4807ZM120.404 99.2151C120.261 99.2151 120.119 99.144 120.035 99.0148C119.903 98.8091 119.963 98.5388 120.166 98.4063C120.42 98.2462 120.671 98.0872 120.934 97.9373C121.142 97.8147 121.411 97.8831 121.534 98.0964C121.656 98.3054 121.584 98.5746 121.375 98.6967C121.126 98.8422 120.884 98.9899 120.643 99.144C120.57 99.1934 120.486 99.2151 120.404 99.2151ZM144.246 100.427C144.151 100.427 144.053 100.398 143.974 100.333C143.749 100.155 143.52 99.9794 143.289 99.8101C143.093 99.6673 143.05 99.3927 143.192 99.1956C143.336 99.0013 143.612 98.9568 143.807 99.0995C144.049 99.2781 144.286 99.4567 144.522 99.6445C144.71 99.7943 144.742 100.071 144.592 100.263C144.503 100.371 144.375 100.427 144.246 100.427ZM117.624 101.36C117.507 101.36 117.388 101.312 117.301 101.218C117.137 101.039 117.149 100.762 117.328 100.599C117.548 100.396 117.772 100.197 118.002 100.005C118.189 99.8481 118.466 99.8709 118.622 100.059C118.779 100.244 118.754 100.523 118.567 100.68C118.347 100.863 118.132 101.05 117.922 101.245C117.838 101.323 117.732 101.36 117.624 101.36ZM146.797 102.842C146.676 102.842 146.555 102.791 146.47 102.695C146.28 102.481 146.083 102.27 145.885 102.066C145.715 101.893 145.717 101.613 145.892 101.444C146.068 101.276 146.347 101.278 146.515 101.452C146.723 101.667 146.928 101.886 147.126 102.11C147.287 102.291 147.271 102.568 147.09 102.732C147.007 102.807 146.902 102.842 146.797 102.842ZM115.248 103.946C115.154 103.946 115.059 103.915 114.979 103.852C114.786 103.705 114.752 103.428 114.899 103.239C115.084 102.999 115.273 102.769 115.465 102.539C115.622 102.354 115.898 102.331 116.085 102.485C116.271 102.643 116.293 102.919 116.135 103.104C115.951 103.323 115.772 103.55 115.596 103.775C115.508 103.886 115.378 103.946 115.248 103.946ZM148.902 105.654C148.755 105.654 148.611 105.58 148.529 105.447C148.377 105.203 148.219 104.961 148.058 104.727C147.921 104.526 147.974 104.253 148.173 104.117C148.375 103.98 148.649 104.029 148.784 104.228C148.952 104.476 149.119 104.727 149.276 104.983C149.404 105.189 149.34 105.459 149.133 105.587C149.061 105.632 148.983 105.654 148.902 105.654ZM113.341 106.897C113.274 106.897 113.203 106.881 113.136 106.847C112.921 106.734 112.842 106.467 112.954 106.253C113.094 105.984 113.24 105.726 113.393 105.466C113.515 105.257 113.789 105.187 113.993 105.311C114.204 105.433 114.275 105.703 114.15 105.914C114.004 106.159 113.865 106.41 113.731 106.662C113.654 106.812 113.5 106.897 113.341 106.897ZM150.499 108.783C150.325 108.783 150.162 108.678 150.092 108.509C149.984 108.242 149.869 107.979 149.75 107.719C149.65 107.498 149.747 107.239 149.966 107.135C150.185 107.035 150.447 107.131 150.548 107.353C150.674 107.623 150.792 107.898 150.905 108.177C150.995 108.404 150.889 108.658 150.663 108.749C150.61 108.772 150.554 108.783 150.499 108.783ZM111.968 110.132C111.924 110.132 111.878 110.126 111.833 110.111C111.603 110.036 111.475 109.789 111.552 109.558C111.645 109.27 111.744 108.988 111.848 108.704C111.934 108.479 112.188 108.366 112.416 108.45C112.641 108.533 112.757 108.788 112.671 109.015C112.57 109.283 112.476 109.556 112.387 109.829C112.326 110.015 112.154 110.132 111.968 110.132ZM151.533 112.137C151.331 112.137 151.15 111.999 151.106 111.791C151.043 111.512 150.977 111.232 150.905 110.953C150.843 110.72 150.985 110.479 151.22 110.418C151.452 110.357 151.694 110.497 151.755 110.732C151.831 111.02 151.899 111.311 151.963 111.603C152.018 111.843 151.865 112.075 151.628 112.127C151.596 112.132 151.565 112.137 151.533 112.137ZM111.175 113.554C111.151 113.554 111.129 113.554 111.11 113.55C110.869 113.516 110.703 113.293 110.738 113.051C110.78 112.756 110.828 112.462 110.884 112.167C110.928 111.93 111.159 111.768 111.395 111.815C111.634 111.86 111.791 112.088 111.748 112.327C111.695 112.608 111.649 112.893 111.607 113.177C111.576 113.398 111.388 113.554 111.175 113.554ZM151.982 115.619C151.747 115.619 151.554 115.438 151.543 115.199C151.53 114.91 151.512 114.627 151.488 114.341C151.466 114.099 151.648 113.885 151.888 113.867C152.124 113.84 152.342 114.024 152.364 114.265C152.388 114.563 152.408 114.861 152.421 115.163C152.433 115.405 152.244 115.608 152.001 115.619H151.982ZM110.973 117.06C110.736 117.06 110.54 116.87 110.532 116.632C110.528 116.437 110.525 116.238 110.524 116.043L110.528 115.733C110.53 115.49 110.761 115.304 110.974 115.302C111.218 115.307 111.41 115.505 111.408 115.749L111.404 116.04C111.405 116.228 111.408 116.42 111.413 116.607C111.418 116.851 111.227 117.051 110.986 117.06H110.973ZM151.828 119.128C151.809 119.128 151.79 119.128 151.771 119.126C151.529 119.092 151.361 118.873 151.392 118.631C151.427 118.348 151.459 118.064 151.483 117.778C151.505 117.534 151.738 117.358 151.959 117.375C152.201 117.398 152.38 117.611 152.36 117.854C152.333 118.151 152.302 118.451 152.264 118.746C152.234 118.967 152.046 119.128 151.828 119.128ZM111.369 120.549C111.165 120.549 110.982 120.404 110.939 120.196C110.88 119.903 110.827 119.608 110.78 119.311C110.743 119.074 110.905 118.847 111.145 118.808C111.388 118.77 111.609 118.934 111.649 119.173C111.694 119.459 111.744 119.743 111.799 120.022C111.848 120.261 111.694 120.493 111.457 120.54C111.427 120.547 111.398 120.549 111.369 120.549ZM151.08 122.559C151.035 122.559 150.991 122.552 150.947 122.538C150.715 122.467 150.586 122.219 150.658 121.989C150.745 121.715 150.824 121.441 150.896 121.161C150.958 120.929 151.202 120.786 151.432 120.849C151.668 120.911 151.809 121.15 151.747 121.385C151.67 121.675 151.587 121.966 151.499 122.249C151.44 122.437 151.266 122.559 151.08 122.559ZM112.357 123.917C112.184 123.917 112.016 123.812 111.949 123.637C111.84 123.36 111.74 123.079 111.64 122.793C111.563 122.563 111.687 122.315 111.916 122.237C112.146 122.158 112.394 122.279 112.473 122.511C112.566 122.782 112.664 123.052 112.769 123.318C112.855 123.544 112.745 123.799 112.517 123.888C112.465 123.908 112.411 123.917 112.357 123.917ZM149.75 125.813C149.685 125.813 149.613 125.797 149.55 125.766C149.336 125.651 149.248 125.387 149.358 125.171C149.491 124.918 149.617 124.659 149.736 124.397C149.838 124.176 150.102 124.08 150.318 124.181C150.54 124.282 150.636 124.543 150.535 124.765C150.41 125.037 150.278 125.307 150.141 125.574C150.064 125.724 149.91 125.813 149.75 125.813ZM113.91 127.063C113.763 127.063 113.616 126.988 113.534 126.852C113.379 126.596 113.232 126.338 113.088 126.073C112.972 125.862 113.048 125.595 113.261 125.48C113.472 125.363 113.743 125.436 113.858 125.651C113.996 125.904 114.138 126.151 114.287 126.398C114.411 126.605 114.347 126.876 114.138 127.002C114.067 127.044 113.99 127.063 113.91 127.063ZM147.886 128.789C147.793 128.789 147.699 128.76 147.62 128.7C147.427 128.554 147.388 128.28 147.534 128.085C147.706 127.855 147.875 127.623 148.037 127.386C148.175 127.187 148.451 127.137 148.65 127.274C148.848 127.412 148.897 127.685 148.761 127.884C148.591 128.132 148.415 128.376 148.235 128.615C148.15 128.728 148.017 128.789 147.886 128.789ZM115.976 129.902C115.852 129.902 115.73 129.85 115.642 129.75C115.447 129.525 115.257 129.295 115.069 129.059C114.918 128.869 114.95 128.594 115.139 128.442C115.33 128.293 115.606 128.322 115.758 128.514C115.937 128.737 116.121 128.959 116.307 129.176C116.468 129.357 116.447 129.636 116.262 129.797C116.18 129.868 116.077 129.902 115.976 129.902ZM145.543 131.406C145.427 131.406 145.31 131.359 145.223 131.269C145.057 131.091 145.066 130.814 145.243 130.648C145.452 130.449 145.654 130.248 145.854 130.045C146.026 129.87 146.303 129.867 146.477 130.036C146.65 130.205 146.653 130.486 146.486 130.657C146.276 130.872 146.064 131.082 145.845 131.288C145.758 131.368 145.651 131.406 145.543 131.406ZM118.494 132.349C118.395 132.349 118.296 132.318 118.213 132.25C117.984 132.06 117.756 131.869 117.532 131.668C117.352 131.507 117.335 131.227 117.498 131.046C117.657 130.866 117.935 130.85 118.117 131.012C118.332 131.204 118.55 131.388 118.772 131.572C118.96 131.726 118.987 132.003 118.833 132.191C118.747 132.296 118.62 132.349 118.494 132.349ZM142.794 133.589C142.653 133.589 142.512 133.52 142.429 133.393C142.295 133.192 142.35 132.917 142.55 132.782C142.79 132.624 143.025 132.461 143.257 132.292C143.454 132.15 143.729 132.193 143.871 132.39C144.014 132.585 143.971 132.861 143.775 133.004C143.533 133.18 143.286 133.35 143.038 133.516C142.962 133.565 142.879 133.589 142.794 133.589ZM121.39 134.341C121.317 134.341 121.24 134.32 121.173 134.282C120.913 134.132 120.654 133.98 120.401 133.822C120.194 133.694 120.134 133.422 120.263 133.216C120.39 133.011 120.663 132.948 120.868 133.078C121.111 133.227 121.358 133.375 121.606 133.518C121.818 133.638 121.891 133.907 121.771 134.117C121.691 134.259 121.543 134.341 121.39 134.341ZM139.715 135.269C139.546 135.269 139.386 135.173 139.312 135.009C139.212 134.787 139.316 134.529 139.539 134.43C139.799 134.315 140.059 134.193 140.317 134.067C140.535 133.963 140.796 134.05 140.903 134.266C141.011 134.486 140.923 134.749 140.705 134.856C140.436 134.988 140.166 135.113 139.891 135.234C139.833 135.258 139.774 135.269 139.715 135.269ZM124.585 135.804C124.536 135.804 124.485 135.797 124.438 135.778C124.153 135.677 123.873 135.57 123.597 135.457C123.372 135.363 123.264 135.107 123.357 134.883C123.446 134.658 123.702 134.552 123.93 134.641C124.195 134.752 124.462 134.854 124.732 134.95C124.962 135.033 125.08 135.284 125 135.513C124.933 135.692 124.765 135.804 124.585 135.804ZM136.392 136.402C136.194 136.402 136.014 136.269 135.964 136.067C135.906 135.833 136.049 135.594 136.286 135.537C136.563 135.467 136.84 135.393 137.115 135.312C137.351 135.243 137.592 135.38 137.661 135.612C137.731 135.844 137.597 136.088 137.362 136.155C137.076 136.24 136.788 136.318 136.495 136.39C136.461 136.399 136.425 136.402 136.392 136.402ZM127.984 136.698C127.959 136.698 127.934 136.695 127.909 136.691C127.612 136.642 127.318 136.582 127.025 136.519C126.788 136.467 126.638 136.236 126.691 135.996C126.743 135.76 126.974 135.609 127.213 135.661C127.493 135.722 127.773 135.778 128.057 135.827C128.296 135.867 128.458 136.092 128.417 136.332C128.379 136.548 128.194 136.698 127.984 136.698ZM132.922 136.946C132.694 136.946 132.501 136.77 132.485 136.54C132.467 136.296 132.649 136.088 132.892 136.07C133.178 136.05 133.465 136.02 133.75 135.992C133.982 135.963 134.208 136.137 134.236 136.378C134.261 136.62 134.088 136.836 133.848 136.866C133.551 136.897 133.254 136.926 132.955 136.946H132.922ZM131.48 136.997C131.179 136.997 130.88 136.991 130.583 136.977C130.341 136.969 130.152 136.763 130.162 136.519C130.173 136.278 130.343 136.083 130.622 136.099C130.907 136.113 131.191 136.116 131.48 136.116C131.724 136.116 131.919 136.313 131.919 136.557C131.919 136.801 131.724 136.997 131.48 136.997Z" fill="white"/>
<path d="M22.361 136.972H21.4812C21.2397 136.972 21.0429 136.776 21.0429 136.532C21.0429 136.288 21.2397 136.091 21.4812 136.091H22.361C22.6048 136.091 22.8016 136.288 22.8016 136.532C22.8016 136.776 22.6048 136.972 22.361 136.972ZM25.8773 136.972H24.9985C24.7559 136.972 24.5591 136.776 24.5591 136.532C24.5591 136.288 24.7559 136.091 24.9985 136.091H25.8773C26.121 136.091 26.3178 136.288 26.3178 136.532C26.3178 136.776 26.121 136.972 25.8773 136.972ZM29.3935 136.972H28.5147C28.2732 136.972 28.0753 136.776 28.0753 136.532C28.0753 136.288 28.2732 136.091 28.5147 136.091H29.3935C29.6383 136.091 29.834 136.288 29.834 136.532C29.834 136.776 29.6383 136.972 29.3935 136.972ZM32.9107 136.972H32.0308C31.7909 136.972 31.5916 136.776 31.5916 136.532C31.5916 136.288 31.7909 136.091 32.0308 136.091H32.9107C33.1544 136.091 33.3504 136.288 33.3504 136.532C33.3504 136.776 33.1544 136.972 32.9107 136.972ZM36.4282 136.972H35.5472C35.3067 136.972 35.1086 136.776 35.1086 136.532C35.1086 136.288 35.3067 136.091 35.5472 136.091H36.4282C36.6719 136.091 36.8673 136.288 36.8673 136.532C36.8673 136.776 36.6719 136.972 36.4282 136.972ZM39.943 136.972H39.0658C38.8242 136.972 38.6261 136.776 38.6261 136.532C38.6261 136.288 38.8242 136.091 39.0658 136.091H39.943C40.1867 136.091 40.3837 136.288 40.3837 136.532C40.3837 136.776 40.1867 136.972 39.943 136.972ZM43.4605 136.972H42.5827C42.3406 136.972 42.1425 136.776 42.1425 136.532C42.1425 136.288 42.3406 136.091 42.5827 136.091H43.4605C43.7053 136.091 43.9002 136.288 43.9002 136.532C43.9002 136.776 43.7053 136.972 43.4605 136.972ZM46.9769 136.972H46.0991C45.8565 136.972 45.6584 136.776 45.6584 136.532C45.6584 136.288 45.8565 136.091 46.0991 136.091H46.9769C47.2228 136.091 47.416 136.288 47.416 136.532C47.416 136.776 47.2228 136.972 46.9769 136.972ZM50.4955 136.972H49.6155C49.3729 136.972 49.1759 136.776 49.1759 136.532C49.1759 136.288 49.3729 136.091 49.6155 136.091H50.4955C50.7392 136.091 50.9335 136.288 50.9335 136.532C50.9335 136.776 50.7392 136.972 50.4955 136.972ZM54.0113 136.972H53.1325C52.8898 136.972 52.6923 136.776 52.6923 136.532C52.6923 136.288 52.8898 136.091 53.1325 136.091H54.0113C54.2551 136.091 54.451 136.288 54.451 136.532C54.451 136.776 54.2551 136.972 54.0113 136.972ZM57.5277 136.972H56.6489C56.4063 136.972 56.2081 136.776 56.2081 136.532C56.2081 136.288 56.4063 136.091 56.6489 136.091H57.5277C57.7715 136.091 57.9669 136.288 57.9669 136.532C57.9669 136.776 57.7715 136.972 57.5277 136.972ZM61.0452 136.972H60.1653C59.9227 136.972 59.7245 136.776 59.7245 136.532C59.7245 136.288 59.9227 136.091 60.1653 136.091H61.0452C61.289 136.091 61.4833 136.288 61.4833 136.532C61.4833 136.776 61.289 136.972 61.0452 136.972ZM64.5611 136.972H63.6812C63.4396 136.972 63.242 136.776 63.242 136.532C63.242 136.288 63.4396 136.091 63.6812 136.091H64.5611C64.8048 136.091 65.0008 136.288 65.0008 136.532C65.0008 136.776 64.8048 136.972 64.5611 136.972ZM68.0775 136.972H67.1987C66.9571 136.972 66.7579 136.776 66.7579 136.532C66.7579 136.288 66.9571 136.091 67.1987 136.091H68.0775C68.3212 136.091 68.5167 136.288 68.5167 136.532C68.5167 136.776 68.3212 136.972 68.0775 136.972ZM71.5934 136.972H70.7151C70.4735 136.972 70.2754 136.776 70.2754 136.532C70.2754 136.288 70.4735 136.091 70.7151 136.091H71.5934C71.8371 136.091 72.0331 136.288 72.0331 136.532C72.0331 136.776 71.8371 136.972 71.5934 136.972ZM75.1109 136.972H74.232C73.9894 136.972 73.7918 136.776 73.7918 136.532C73.7918 136.288 73.9894 136.091 74.232 136.091H75.1109C75.3546 136.091 75.5489 136.288 75.5489 136.532C75.5489 136.776 75.3546 136.972 75.1109 136.972ZM78.6273 136.972H77.7485C77.5058 136.972 77.3077 136.776 77.3077 136.532C77.3077 136.288 77.5058 136.091 77.7485 136.091H78.6273C78.8721 136.091 79.0664 136.288 79.0664 136.532C79.0664 136.776 78.8721 136.972 78.6273 136.972ZM82.1442 136.972H81.2649C81.0233 136.972 80.8252 136.776 80.8252 136.532C80.8252 136.288 81.0233 136.091 81.2649 136.091H82.1442C82.388 136.091 82.5828 136.288 82.5828 136.532C82.5828 136.776 82.388 136.972 82.1442 136.972ZM85.6606 136.972H84.7818C84.5392 136.972 84.3427 136.776 84.3427 136.532C84.3427 136.288 84.5392 136.091 84.7818 136.091H85.6606C85.9044 136.091 86.1014 136.288 86.1014 136.532C86.1014 136.776 85.9044 136.972 85.6606 136.972ZM89.1781 136.972H88.2982C88.0556 136.972 87.8575 136.776 87.8575 136.532C87.8575 136.288 88.0556 136.091 88.2982 136.091H89.1781C89.4208 136.091 89.6162 136.288 89.6162 136.532C89.6162 136.776 89.4208 136.972 89.1781 136.972ZM92.694 136.972H91.8141C91.572 136.972 91.3749 136.776 91.3749 136.532C91.3749 136.288 91.572 136.091 91.8141 136.091H92.694C92.9377 136.091 93.1348 136.288 93.1348 136.532C93.1348 136.776 92.9377 136.972 92.694 136.972ZM96.2104 136.972H95.3305C95.09 136.972 94.8914 136.776 94.8914 136.532C94.8914 136.288 95.09 136.091 95.3305 136.091H96.2104C96.4541 136.091 96.6512 136.288 96.6512 136.532C96.6512 136.776 96.4541 136.972 96.2104 136.972ZM99.7268 136.972H98.848C98.6064 136.972 98.4083 136.776 98.4083 136.532C98.4083 136.288 98.6064 136.091 98.848 136.091H99.7268C99.9706 136.091 100.167 136.288 100.167 136.532C100.167 136.776 99.9706 136.972 99.7268 136.972ZM103.244 136.972H102.364C102.123 136.972 101.926 136.776 101.926 136.532C101.926 136.288 102.123 136.091 102.364 136.091H103.244C103.486 136.091 103.683 136.288 103.683 136.532C103.683 136.776 103.486 136.972 103.244 136.972ZM106.76 136.972H105.881C105.639 136.972 105.442 136.776 105.442 136.532C105.442 136.288 105.639 136.091 105.881 136.091H106.76C107.005 136.091 107.201 136.288 107.201 136.532C107.201 136.776 107.005 136.972 106.76 136.972ZM110.277 136.972H109.398C109.155 136.972 108.959 136.776 108.959 136.532C108.959 136.288 109.155 136.091 109.398 136.091H110.277C110.521 136.091 110.717 136.288 110.717 136.532C110.717 136.776 110.521 136.972 110.277 136.972ZM113.794 136.972H112.915C112.673 136.972 112.476 136.776 112.476 136.532C112.476 136.288 112.673 136.091 112.915 136.091H113.794C114.037 136.091 114.233 136.288 114.233 136.532C114.233 136.776 114.037 136.972 113.794 136.972ZM117.31 136.972H116.431C116.188 136.972 115.992 136.776 115.992 136.532C115.992 136.288 116.188 136.091 116.431 136.091H117.31C117.554 136.091 117.751 136.288 117.751 136.532C117.751 136.776 117.554 136.972 117.31 136.972ZM120.827 136.972H119.948C119.705 136.972 119.508 136.776 119.508 136.532C119.508 136.288 119.705 136.091 119.948 136.091H120.827C121.071 136.091 121.267 136.288 121.267 136.532C121.267 136.776 121.071 136.972 120.827 136.972ZM124.343 136.972H123.463C123.221 136.972 123.025 136.776 123.025 136.532C123.025 136.288 123.221 136.091 123.463 136.091H124.343C124.587 136.091 124.784 136.288 124.784 136.532C124.784 136.776 124.587 136.972 124.343 136.972ZM127.86 136.972H126.981C126.739 136.972 126.542 136.776 126.542 136.532C126.542 136.288 126.739 136.091 126.981 136.091H127.86C128.103 136.091 128.3 136.288 128.3 136.532C128.3 136.776 128.103 136.972 127.86 136.972ZM131.376 136.972H130.497C130.257 136.972 130.058 136.776 130.058 136.532C130.058 136.288 130.257 136.091 130.497 136.091H131.376C131.62 136.091 131.816 136.288 131.816 136.532C131.816 136.776 131.62 136.972 131.376 136.972Z" fill="white"/>
<path d="M131.387 105.204C125.407 105.204 120.541 110.071 120.541 116.05C120.541 122.029 125.407 126.895 131.387 126.895C137.369 126.895 142.233 122.029 142.233 116.05C142.233 110.071 137.369 105.204 131.387 105.204ZM131.387 128.654C124.44 128.654 118.785 123 118.785 116.05C118.785 109.101 124.44 103.445 131.387 103.445C138.339 103.445 143.991 109.101 143.991 116.05C143.991 123 138.339 128.654 131.387 128.654Z" fill="white"/>
<path d="M19.7974 95.9951C19.5651 95.9951 19.3706 95.8154 19.358 95.5799C19.3443 95.3372 19.5308 95.1315 19.7734 95.119C20.0697 95.1016 20.3684 95.0902 20.6704 95.087H20.6761C20.9176 95.087 21.1109 95.2802 21.1144 95.5207C21.119 95.7628 20.9244 95.9642 20.6819 95.9669C20.3936 95.9712 20.1063 95.9794 19.8226 95.9951H19.7974ZM24.1786 96.216C24.1569 96.216 24.1317 96.2139 24.1111 96.2117C23.8262 96.1672 23.5413 96.1292 23.2564 96.0939C23.0161 96.0662 22.8433 95.8491 22.8708 95.6086C22.8982 95.3671 23.1351 95.1934 23.356 95.2232C23.6546 95.2574 23.9521 95.2949 24.2484 95.3443C24.4887 95.3823 24.6512 95.6065 24.6135 95.8475C24.5791 96.063 24.3914 96.216 24.1786 96.216ZM16.3224 96.494C16.1221 96.494 15.9402 96.3545 15.8933 96.152C15.8384 95.9153 15.986 95.6787 16.2228 95.6233C16.5134 95.5571 16.8064 95.4952 17.1016 95.4393C17.335 95.3991 17.5684 95.5516 17.613 95.7926C17.6577 96.0309 17.501 96.2606 17.2618 96.3056C16.978 96.3572 16.7 96.4174 16.4208 96.4804C16.3888 96.4896 16.3533 96.494 16.3224 96.494ZM27.5884 97.0639C27.5404 97.0639 27.4935 97.0574 27.4454 97.039C27.1731 96.9472 26.9008 96.8604 26.625 96.7779C26.3904 96.7084 26.2588 96.4647 26.3275 96.2323C26.3961 96 26.6387 95.8648 26.8733 95.9349C27.1616 96.0195 27.4465 96.1118 27.7303 96.2079C27.9592 96.2882 28.0827 96.5363 28.0038 96.7665C27.9409 96.9494 27.7726 97.0639 27.5884 97.0639ZM12.9835 97.578C12.8119 97.578 12.6483 97.477 12.5773 97.3066C12.4835 97.0857 12.5888 96.8294 12.8119 96.7334C13.0876 96.6167 13.3646 96.507 13.6449 96.4017C13.8691 96.317 14.1243 96.4315 14.2101 96.6568C14.2948 96.8864 14.1804 97.1394 13.955 97.2241C13.6838 97.325 13.4183 97.4325 13.1552 97.5422C13.0991 97.5666 13.0407 97.578 12.9835 97.578ZM30.8026 98.485C30.7293 98.485 30.6571 98.4666 30.5909 98.4291C30.3392 98.2929 30.0863 98.1615 29.8265 98.0307C29.6091 97.9243 29.521 97.66 29.6274 97.4439C29.7361 97.2268 29.9993 97.135 30.2156 97.2425C30.4856 97.3766 30.7521 97.5172 31.0143 97.66C31.2271 97.7767 31.3058 98.0448 31.188 98.2554C31.1071 98.4025 30.9556 98.485 30.8026 98.485ZM9.87808 99.2173C9.7351 99.2173 9.59207 99.1468 9.50853 99.017C9.37695 98.8113 9.4353 98.5415 9.64011 98.4107C9.89415 98.2484 10.1459 98.0915 10.4056 97.9395C10.615 97.819 10.885 97.8858 11.0063 98.0986C11.131 98.3081 11.0601 98.5768 10.8496 98.6989C10.6024 98.8444 10.3587 98.9942 10.1161 99.1489C10.0417 99.1978 9.95821 99.2173 9.87808 99.2173ZM33.7262 100.432C33.6312 100.432 33.5313 100.401 33.4515 100.336C33.2263 100.157 32.9983 99.9843 32.766 99.8123C32.5705 99.6717 32.5271 99.397 32.6699 99.2005C32.8164 99.0034 33.0911 98.9611 33.2844 99.1044C33.527 99.2803 33.7658 99.461 33.9982 99.6489C34.1892 99.7987 34.2191 100.078 34.0693 100.266C33.9813 100.375 33.8543 100.432 33.7262 100.432ZM7.09878 101.365C6.97979 101.365 6.8608 101.318 6.77384 101.222C6.61251 101.046 6.62163 100.767 6.80245 100.601C7.02099 100.401 7.24637 100.201 7.47636 100.009C7.66174 99.8524 7.93863 99.8752 8.09426 100.063C8.25103 100.249 8.22698 100.526 8.0428 100.682C7.82078 100.865 7.6068 101.055 7.3963 101.25C7.31276 101.325 7.20522 101.365 7.09878 101.365ZM36.2731 102.847C36.1543 102.847 36.0327 102.796 35.9458 102.7C35.7558 102.485 35.5604 102.277 35.3612 102.07C35.1918 101.895 35.1951 101.616 35.3693 101.449C35.5441 101.281 35.8231 101.283 35.9903 101.456C36.201 101.672 36.4034 101.89 36.6026 102.115C36.7628 102.296 36.7481 102.573 36.5684 102.734C36.4838 102.809 36.3785 102.847 36.2731 102.847ZM4.72224 103.949C4.62724 103.949 4.53345 103.92 4.45332 103.86C4.26111 103.71 4.22567 103.433 4.37326 103.243C4.55863 103.006 4.74629 102.771 4.9385 102.544C5.09527 102.359 5.37216 102.333 5.55868 102.49C5.74519 102.646 5.7669 102.924 5.61242 103.112C5.42596 103.33 5.24628 103.553 5.07008 103.782C4.98312 103.89 4.85268 103.949 4.72224 103.949ZM38.3798 105.654C38.2322 105.654 38.0878 105.583 38.0053 105.449C37.8533 105.205 37.6975 104.964 37.5363 104.729C37.399 104.528 37.4505 104.255 37.6519 104.12C37.8522 103.982 38.1258 104.031 38.2631 104.232C38.4309 104.478 38.5948 104.729 38.7517 104.983C38.8809 105.189 38.8168 105.461 38.6105 105.59C38.54 105.634 38.4596 105.654 38.3798 105.654ZM2.81595 106.901C2.74843 106.901 2.67748 106.886 2.61 106.849C2.39488 106.736 2.31476 106.469 2.42691 106.256C2.5688 105.991 2.71526 105.731 2.86633 105.471C2.98987 105.261 3.26107 105.194 3.46701 105.315C3.67644 105.438 3.74733 105.707 3.62264 105.918C3.47847 106.167 3.33999 106.414 3.20385 106.669C3.12721 106.816 2.975 106.901 2.81595 106.901ZM39.9747 108.781C39.801 108.781 39.637 108.678 39.5675 108.506C39.4612 108.242 39.3444 107.979 39.225 107.717C39.1268 107.498 39.2228 107.236 39.4449 107.135C39.6658 107.035 39.9253 107.131 40.0273 107.353C40.15 107.623 40.27 107.898 40.3807 108.176C40.4724 108.399 40.365 108.655 40.1408 108.748C40.0854 108.769 40.0306 108.781 39.9747 108.781ZM1.4463 110.135C1.40168 110.135 1.35478 110.129 1.30902 110.115C1.07903 110.039 0.952005 109.792 1.02751 109.56C1.12023 109.274 1.21978 108.99 1.32389 108.711C1.40857 108.483 1.66256 108.368 1.89028 108.455C2.11685 108.539 2.23242 108.792 2.14888 109.02C2.0459 109.286 1.95205 109.559 1.86395 109.831C1.80218 110.017 1.63167 110.135 1.4463 110.135ZM41.0093 112.135C40.8063 112.135 40.6255 111.994 40.581 111.789C40.518 111.507 40.454 111.229 40.3807 110.953C40.3204 110.718 40.461 110.477 40.6955 110.415C40.9279 110.354 41.1705 110.495 41.2308 110.73C41.3067 111.018 41.3751 111.309 41.4392 111.601C41.4919 111.839 41.3409 112.073 41.1043 112.127C41.0717 112.131 41.0413 112.135 41.0093 112.135ZM0.649922 113.557C0.62593 113.557 0.607582 113.557 0.585869 113.552C0.344421 113.518 0.178536 113.295 0.213983 113.053C0.256323 112.758 0.304362 112.462 0.360436 112.169C0.402776 111.93 0.63619 111.771 0.870799 111.815C1.10991 111.86 1.26782 112.09 1.2232 112.329C1.17283 112.61 1.12479 112.895 1.08473 113.179C1.05156 113.4 0.863903 113.557 0.649922 113.557ZM41.4566 115.617C41.2232 115.617 41.0294 115.434 41.0169 115.199C41.0044 114.91 40.9887 114.624 40.9631 114.338C40.9436 114.097 41.1222 113.883 41.3648 113.862C41.5961 113.836 41.8181 114.021 41.8398 114.265C41.8648 114.56 41.8821 114.859 41.8957 115.159C41.906 115.401 41.7198 115.608 41.4745 115.617H41.4566ZM0.448536 117.063C0.212842 117.063 0.0160149 116.875 0.0091753 116.636C0.00347566 116.439 0.00227986 116.24 0 116.045L0.00227985 115.74C0.00347406 115.499 0.201389 115.307 0.440557 115.307H0.445117C0.688845 115.307 0.883337 115.505 0.881057 115.749L0.879918 116.042C0.881058 116.23 0.883337 116.422 0.889091 116.612C0.893651 116.854 0.703718 117.058 0.46113 117.063H0.448536ZM41.3051 119.126C41.2861 119.126 41.2655 119.124 41.247 119.121C41.0066 119.093 40.8372 118.871 40.8681 118.629C40.9051 118.345 40.9371 118.062 40.961 117.776C40.9827 117.532 41.2128 117.349 41.4359 117.374C41.6786 117.393 41.8572 117.609 41.8349 117.85C41.8121 118.149 41.779 118.446 41.7399 118.744C41.7106 118.965 41.5206 119.126 41.3051 119.126ZM0.84561 120.554C0.640803 120.554 0.45771 120.409 0.415369 120.198C0.355876 119.908 0.302082 119.616 0.256322 119.318C0.218542 119.079 0.381063 118.851 0.620177 118.812C0.863904 118.773 1.08472 118.938 1.12479 119.177C1.16941 119.461 1.21978 119.745 1.27585 120.026C1.32389 120.265 1.1694 120.495 0.933711 120.545C0.903964 120.549 0.875357 120.554 0.84561 120.554ZM40.5571 122.556C40.5126 122.556 40.4681 122.549 40.4241 122.535C40.1918 122.465 40.0637 122.216 40.1359 121.984C40.2216 121.714 40.3009 121.436 40.3742 121.161C40.4371 120.927 40.6782 120.786 40.9105 120.847C41.145 120.909 41.2861 121.148 41.2253 121.382C41.1477 121.673 41.0652 121.961 40.9756 122.247C40.9175 122.435 40.7449 122.556 40.5571 122.556ZM1.83648 123.921C1.65914 123.921 1.49325 123.814 1.42459 123.642C1.317 123.363 1.21517 123.081 1.11909 122.8C1.03897 122.57 1.16143 122.319 1.39142 122.241C1.62136 122.162 1.8697 122.284 1.94863 122.514C2.04129 122.784 2.13856 123.054 2.24382 123.32C2.33311 123.546 2.2221 123.803 1.99553 123.89C1.94293 123.91 1.89027 123.921 1.83648 123.921ZM39.2277 125.81C39.161 125.81 39.0915 125.797 39.0296 125.764C38.8119 125.651 38.7273 125.386 38.8374 125.169C38.9677 124.913 39.0937 124.657 39.2147 124.395C39.3157 124.174 39.58 124.08 39.7972 124.179C40.0181 124.282 40.1131 124.541 40.0127 124.762C39.8867 125.035 39.7559 125.302 39.6186 125.571C39.542 125.722 39.3868 125.81 39.2277 125.81ZM3.38695 127.068C3.23816 127.068 3.09399 126.993 3.01278 126.854C2.85715 126.599 2.70728 126.341 2.5631 126.078C2.44754 125.865 2.52646 125.597 2.73816 125.482C2.94753 125.365 3.21873 125.441 3.33429 125.656C3.47391 125.906 3.61575 126.156 3.7634 126.4C3.88922 126.61 3.82289 126.878 3.61461 127.004C3.5448 127.046 3.46587 127.068 3.38695 127.068ZM37.3637 128.789C37.2709 128.789 37.1769 128.76 37.0982 128.698C36.9044 128.554 36.867 128.277 37.0125 128.085C37.1862 127.855 37.3534 127.621 37.5157 127.386C37.6541 127.185 37.9277 127.135 38.128 127.272C38.3256 127.41 38.3771 127.682 38.2398 127.884C38.0693 128.13 37.8946 128.373 37.7149 128.613C37.6269 128.726 37.4972 128.789 37.3637 128.789ZM5.45337 129.907C5.32982 129.907 5.2085 129.855 5.12154 129.752C4.92477 129.529 4.73483 129.298 4.54718 129.063C4.39611 128.873 4.42819 128.597 4.61699 128.447C4.80578 128.297 5.08381 128.327 5.23483 128.517C5.4145 128.742 5.59868 128.961 5.7852 129.178C5.94538 129.361 5.92481 129.64 5.74058 129.799C5.65823 129.87 5.5552 129.907 5.45337 129.907ZM35.0236 131.406C34.9058 131.406 34.7891 131.359 34.7011 131.267C34.535 131.091 34.5443 130.814 34.7201 130.646C34.9307 130.449 35.1332 130.249 35.3335 130.043C35.504 129.87 35.7835 129.867 35.954 130.034C36.1298 130.205 36.1336 130.483 35.9632 130.655C35.7558 130.872 35.5409 131.079 35.3232 131.288C35.2385 131.368 35.131 131.406 35.0236 131.406ZM7.97071 132.356C7.87116 132.356 7.77388 132.322 7.69148 132.255C7.46149 132.065 7.23383 131.871 7.0084 131.672C6.82877 131.509 6.8139 131.232 6.97523 131.051C7.13656 130.87 7.41345 130.852 7.59421 131.014C7.81047 131.206 8.02787 131.393 8.24875 131.576C8.4364 131.73 8.46387 132.005 8.31166 132.193C8.22356 132.3 8.09768 132.356 7.97071 132.356ZM32.2731 133.589C32.1319 133.589 31.9914 133.52 31.9078 133.396C31.7742 133.189 31.8291 132.917 32.0294 132.782C32.2693 132.624 32.5054 132.46 32.7372 132.294C32.9321 132.15 33.2078 132.193 33.3506 132.39C33.4939 132.586 33.4505 132.861 33.2545 133.004C33.0119 133.178 32.766 133.35 32.5168 133.516C32.4424 133.565 32.3588 133.589 32.2731 133.589ZM10.8679 134.343C10.7946 134.343 10.7203 134.324 10.6516 134.285C10.3884 134.137 10.131 133.982 9.87695 133.824C9.67214 133.696 9.61036 133.424 9.73738 133.218C9.86896 133.014 10.139 132.951 10.3438 133.08C10.5864 133.232 10.8336 133.377 11.0853 133.52C11.2946 133.638 11.3702 133.907 11.25 134.117C11.1699 134.261 11.0212 134.343 10.8679 134.343ZM29.1972 135.272C29.0267 135.272 28.8677 135.173 28.7921 135.009C28.6949 134.787 28.7956 134.528 29.0198 134.43C29.2807 134.313 29.5405 134.193 29.7968 134.065C30.0153 133.961 30.2785 134.05 30.3849 134.266C30.4936 134.486 30.4032 134.749 30.1858 134.856C29.918 134.986 29.6458 135.114 29.3734 135.234C29.3151 135.258 29.2556 135.272 29.1972 135.272ZM14.0614 135.809C14.0133 135.809 13.963 135.799 13.9138 135.781C13.63 135.681 13.3485 135.572 13.0716 135.459C12.8485 135.366 12.7409 135.109 12.8325 134.885C12.9263 134.66 13.1849 134.555 13.4069 134.644C13.6712 134.756 13.9401 134.856 14.2101 134.955C14.439 135.035 14.558 135.286 14.4756 135.516C14.4127 135.694 14.2422 135.809 14.0614 135.809ZM25.8721 136.402C25.673 136.402 25.4945 136.269 25.4441 136.07C25.3858 135.833 25.5311 135.596 25.7668 135.539C26.046 135.469 26.3218 135.393 26.5964 135.312C26.8309 135.243 27.0735 135.38 27.1433 135.612C27.2108 135.847 27.077 136.09 26.8435 136.158C26.5575 136.242 26.268 136.32 25.9762 136.392C25.9407 136.401 25.9064 136.402 25.8721 136.402ZM17.462 136.7C17.4357 136.7 17.4117 136.698 17.3877 136.693C17.0913 136.644 16.795 136.584 16.5032 136.521C16.2663 136.47 16.1176 136.238 16.1691 136.001C16.2194 135.764 16.4505 135.612 16.6897 135.664C16.97 135.724 17.2526 135.78 17.5341 135.829C17.7732 135.869 17.9346 136.095 17.8946 136.336C17.8568 136.55 17.6725 136.7 17.462 136.7ZM22.404 136.948C22.1751 136.948 21.9817 136.772 21.9657 136.542C21.9485 136.298 22.1293 136.088 22.3719 136.07C22.6591 136.05 22.9463 136.022 23.2301 135.992C23.4623 135.965 23.6866 136.139 23.7163 136.378C23.7427 136.622 23.5699 136.838 23.3273 136.866C23.0321 136.899 22.7346 136.926 22.4371 136.948H22.404ZM20.9588 137C20.6567 137 20.3581 136.993 20.0606 136.979C19.8191 136.971 19.6303 136.765 19.6395 136.521C19.6509 136.28 19.8111 136.085 20.0995 136.102C20.3844 136.115 20.6693 136.118 20.9588 136.118C21.2025 136.118 21.3959 136.315 21.3959 136.559C21.3959 136.803 21.2025 137 20.9588 137Z" fill="white"/>
<path d="M58.4263 12.1588C58.3508 12.1588 58.2721 12.1382 58.2043 12.0981C57.9953 11.9746 57.9253 11.7057 58.0463 11.4951L58.4925 10.7388C58.6163 10.5283 58.8877 10.4596 59.0934 10.582C59.304 10.7045 59.3741 10.9733 59.2514 11.1828L58.8063 11.9402C58.7238 12.0798 58.5772 12.1588 58.4263 12.1588ZM56.6437 15.1898C56.5682 15.1898 56.4917 15.1704 56.4227 15.1292C56.2121 15.0067 56.1426 14.7379 56.2648 14.5285L56.711 13.7687C56.8336 13.5593 57.1061 13.4906 57.3108 13.6131C57.5214 13.7366 57.5925 14.0056 57.4677 14.215L57.0225 14.9724C56.94 15.112 56.7946 15.1898 56.6437 15.1898ZM54.8632 18.2209C54.7856 18.2209 54.7101 18.2026 54.6401 18.1626C54.4306 18.0378 54.36 17.7678 54.4832 17.5584L54.9294 16.8009C55.0521 16.5904 55.3208 16.5228 55.5314 16.6453C55.7399 16.7689 55.811 17.0389 55.6872 17.2471L55.241 18.0046C55.1607 18.1442 55.013 18.2209 54.8632 18.2209ZM53.0816 21.2542C53.0062 21.2542 52.9275 21.2348 52.8575 21.1936C52.6501 21.0712 52.5795 20.8011 52.7017 20.5917L53.1468 19.8342C53.2716 19.6226 53.5392 19.5562 53.7499 19.6775C53.9583 19.8011 54.0294 20.07 53.9046 20.2793L53.4605 21.0368C53.3769 21.1764 53.2326 21.2542 53.0816 21.2542ZM51.299 24.2853C51.2225 24.2853 51.147 24.2658 51.0759 24.2246C50.8675 24.1022 50.7969 23.8333 50.9201 23.6239L51.3652 22.8642C51.4901 22.6547 51.7615 22.5861 51.9661 22.7085C52.1768 22.8321 52.2462 23.101 52.123 23.3116L51.679 24.0679C51.5954 24.2075 51.4488 24.2853 51.299 24.2853ZM49.5175 27.3175C49.4398 27.3175 49.3655 27.298 49.2944 27.2569C49.0848 27.1333 49.0143 26.8655 49.1386 26.655L49.5837 25.8963C49.7075 25.687 49.9799 25.6183 50.1857 25.7407C50.3952 25.8654 50.4647 26.1332 50.3426 26.3426L49.8953 27.1012C49.8149 27.2396 49.6673 27.3175 49.5175 27.3175ZM47.7348 30.3485C47.6605 30.3485 47.5828 30.3302 47.5128 30.289C47.3033 30.1655 47.2349 29.8954 47.357 29.686L47.8021 28.9297C47.9259 28.7203 48.1957 28.6516 48.4052 28.7729C48.6137 28.8965 48.6821 29.1654 48.5599 29.3736L48.1148 30.1322C48.0323 30.2719 47.8857 30.3485 47.7348 30.3485ZM45.9555 33.381C45.8778 33.381 45.8024 33.3604 45.7313 33.3202C45.5228 33.1975 45.4506 32.9277 45.5766 32.7182L46.0195 31.9619C46.1433 31.7502 46.4131 31.6804 46.6215 31.8028C46.8299 31.9264 46.9016 32.1964 46.7795 32.4059L46.3354 33.1633C46.2518 33.3028 46.1042 33.381 45.9555 33.381ZM44.1728 36.4127C44.0952 36.4127 44.0192 36.3937 43.9497 36.3524C43.7402 36.2286 43.6707 35.961 43.7929 35.7515L44.2401 34.9932C44.3617 34.7826 44.6337 34.7136 44.84 34.8352C45.0506 34.9595 45.1201 35.2298 44.9968 35.4394L44.5506 36.1966C44.4703 36.335 44.3216 36.4127 44.1728 36.4127ZM42.3891 39.4449C42.3137 39.4449 42.2377 39.4259 42.1671 39.3846C41.9586 39.2608 41.8892 38.9922 42.0113 38.7826L42.4575 38.0238C42.5802 37.8137 42.85 37.7458 43.0584 37.8685C43.2679 37.9917 43.3374 38.261 43.2142 38.4689L42.7691 39.2277C42.6866 39.3672 42.5411 39.4449 42.3891 39.4449ZM40.6097 42.476C40.5321 42.476 40.4561 42.4565 40.3866 42.4157C40.1771 42.2931 40.106 42.0233 40.2298 41.8137L40.676 41.057C40.7986 40.8459 41.0684 40.778 41.278 40.9007C41.4864 41.0218 41.557 41.2921 41.4321 41.5022L40.9875 42.2589C40.905 42.3995 40.7585 42.476 40.6097 42.476ZM38.8282 45.5082C38.7517 45.5082 38.6735 45.4876 38.6062 45.4463C38.3966 45.3253 38.3261 45.0566 38.4482 44.847L38.8922 44.0882C39.0182 43.8781 39.2869 43.8092 39.4953 43.9302C39.7048 44.054 39.7754 44.3227 39.6506 44.5322L39.2071 45.2922C39.1235 45.4306 38.9791 45.5082 38.8282 45.5082ZM37.0445 48.5393C36.969 48.5393 36.893 48.5225 36.8225 48.4812C36.614 48.3553 36.5429 48.0877 36.6667 47.8771L37.1118 47.1193C37.2355 46.9087 37.5064 46.8425 37.7116 46.9624C37.9217 47.0884 37.9928 47.3565 37.869 47.5655L37.4255 48.3244C37.3419 48.4628 37.1954 48.5393 37.0445 48.5393ZM35.264 51.5726C35.1858 51.5726 35.1115 51.552 35.042 51.5107C34.8314 51.3897 34.7603 51.1194 34.8851 50.9104L35.3302 50.1526C35.4529 49.9409 35.7238 49.8747 35.9322 49.9974C36.1412 50.1184 36.2112 50.3887 36.0891 50.5966L35.6413 51.3544C35.5615 51.495 35.4138 51.5726 35.264 51.5726ZM33.4814 54.6027C33.407 54.6027 33.3288 54.5842 33.2604 54.543C33.0498 54.4208 32.9798 54.1516 33.1014 53.9426L33.5465 53.1826C33.6725 52.9731 33.9422 52.9058 34.1496 53.0269C34.3586 53.1506 34.4286 53.4182 34.3059 53.6278L33.8597 54.3866C33.7788 54.5261 33.6323 54.6027 33.4814 54.6027ZM31.6998 57.6371C31.6238 57.6371 31.5462 57.6164 31.4778 57.5752C31.2694 57.452 31.1972 57.1816 31.3231 56.9737L31.7661 56.2159C31.8909 56.0064 32.1618 55.9369 32.368 56.0591C32.5759 56.1828 32.6481 56.4504 32.5222 56.6611L32.0793 57.4199C31.9962 57.5583 31.8507 57.6371 31.6998 57.6371ZM29.9192 60.6682C29.8414 60.6682 29.7659 60.6465 29.6949 60.6052C29.4855 60.4842 29.4157 60.2149 29.5393 60.0059L29.9867 59.2482C30.108 59.0365 30.3791 58.9702 30.5865 59.0913C30.7966 59.214 30.8666 59.4826 30.7428 59.6922L30.2968 60.451C30.2167 60.5916 30.0679 60.6682 29.9192 60.6682ZM28.1353 63.6982C28.0598 63.6982 27.9843 63.6808 27.9156 63.6396C27.7051 63.5137 27.6353 63.2471 27.7577 63.0365L28.204 62.2782C28.3264 62.0687 28.5987 62.0003 28.8047 62.1224C29.0141 62.2472 29.0839 62.5149 28.9603 62.7255L28.5152 63.4827C28.4328 63.6217 28.2864 63.6982 28.1353 63.6982ZM26.3561 66.7315C26.2783 66.7315 26.2028 66.712 26.1318 66.6718C25.9224 66.5486 25.8526 66.2793 25.9762 66.0698L26.4202 65.3115C26.5449 65.1009 26.8149 65.0336 27.0231 65.1557C27.2314 65.2773 27.3012 65.5471 27.1788 65.7555L26.7348 66.5138C26.6513 66.6523 26.5048 66.7315 26.3561 66.7315ZM24.5722 69.7626C24.4967 69.7626 24.42 69.7453 24.3503 69.704C24.1409 69.5808 24.0699 69.3105 24.1946 69.0998L24.6398 68.3426C24.7622 68.132 25.0345 68.0658 25.2416 68.1868C25.451 68.3095 25.522 68.5793 25.3972 68.7888L24.9521 69.5471C24.8697 69.6872 24.7232 69.7626 24.5722 69.7626ZM22.7907 72.7938C22.7151 72.7938 22.6373 72.7753 22.5675 72.7341C22.3593 72.6114 22.2895 72.3405 22.4131 72.1342L22.8582 71.3748C22.9806 71.1653 23.2518 71.0953 23.46 71.2179C23.6683 71.3417 23.7392 71.6104 23.6157 71.821L23.1706 72.5783C23.0882 72.7167 22.9417 72.7938 22.7907 72.7938ZM21.0103 75.8271C20.9324 75.8271 20.8581 75.8075 20.7871 75.7663C20.5778 75.6425 20.5068 75.3738 20.6304 75.1643L21.0766 74.407C21.1991 74.1964 21.4702 74.1264 21.6785 74.2502C21.8867 74.375 21.9577 74.6415 21.8353 74.8521L21.3879 75.6105C21.3077 75.75 21.1602 75.8271 21.0103 75.8271ZM19.2275 78.8593C19.152 78.8593 19.0742 78.8408 19.0056 78.7985C18.795 78.6747 18.7253 78.4071 18.8477 78.1965L19.2951 77.4392C19.4163 77.2297 19.6898 77.1608 19.8958 77.2835C20.1052 77.4061 20.175 77.6738 20.0525 77.8844L19.6051 78.6427C19.5251 78.7811 19.3775 78.8593 19.2275 78.8593ZM17.4471 81.8904C17.3705 81.8904 17.2926 81.8708 17.2218 81.8296C17.0158 81.7058 16.9448 81.4371 17.0684 81.2287L17.5112 80.4704C17.6371 80.2608 17.906 80.1919 18.1154 80.3146C18.3225 80.4367 18.3946 80.707 18.2698 80.9155L17.8259 81.6727C17.7424 81.8122 17.5971 81.8904 17.4471 81.8904ZM15.6656 84.921C15.5878 84.921 15.5122 84.9041 15.4413 84.8629C15.2319 84.738 15.1621 84.4694 15.2857 84.2587L15.732 83.5026C15.8544 83.293 16.1267 83.223 16.3327 83.3457C16.5432 83.4706 16.613 83.7382 16.4894 83.9477L16.0432 84.706C15.9631 84.8455 15.8143 84.921 15.6656 84.921ZM13.8818 87.9559C13.8073 87.9559 13.7296 87.9364 13.6609 87.8951C13.4504 87.7713 13.3817 87.5016 13.503 87.2931L13.9481 86.5348C14.0728 86.3242 14.3452 86.2542 14.5511 86.379C14.7605 86.5 14.8292 86.7704 14.7067 86.9783L14.2616 87.7361C14.1792 87.8777 14.0328 87.9559 13.8818 87.9559ZM12.1002 90.9854C12.0247 90.9854 11.948 90.9675 11.8771 90.9251C11.6688 90.8014 11.599 90.5327 11.7226 90.3242L12.1666 89.5654C12.2913 89.3553 12.5602 89.2885 12.7707 89.409C12.9778 89.5323 13.0476 89.8026 12.924 90.0132L12.4801 90.7704C12.3965 90.9089 12.2512 90.9854 12.1002 90.9854ZM10.3198 94.0187C10.2431 94.0187 10.1665 93.9981 10.0967 93.9574C9.88724 93.8336 9.81629 93.5633 9.94103 93.3543L10.3861 92.5976C10.5086 92.3886 10.7786 92.3186 10.988 92.4423C11.1974 92.5645 11.2672 92.8337 11.1447 93.0438L10.6962 93.8016C10.6173 93.94 10.4697 94.0187 10.3198 94.0187ZM8.53707 97.0498C8.46156 97.0498 8.38372 97.033 8.31511 96.9907C8.10569 96.8669 8.03588 96.5971 8.15948 96.3865L8.6046 95.6298C8.727 95.4181 8.99934 95.3508 9.20414 95.4745C9.41471 95.5956 9.48565 95.8659 9.36091 96.076L8.91694 96.8338C8.83454 96.9722 8.68808 97.0498 8.53707 97.0498ZM6.75666 100.083C6.67768 100.083 6.60332 100.062 6.53351 100.02C6.32414 99.9002 6.25319 99.6288 6.3768 99.4198L6.82186 98.662C6.94546 98.4514 7.21665 98.3819 7.4226 98.5057C7.63197 98.6278 7.70291 98.8992 7.58051 99.106L7.13653 99.8638C7.05413 100.004 6.90654 100.083 6.75666 100.083ZM4.97392 103.113C4.89728 103.113 4.82063 103.094 4.75196 103.053C4.54145 102.93 4.47165 102.66 4.59406 102.45L5.04145 101.692C5.16277 101.481 5.43391 101.415 5.64219 101.537C5.85156 101.661 5.92251 101.931 5.79782 102.139L5.35157 102.897C5.27144 103.036 5.12271 103.113 4.97392 103.113ZM3.19352 106.146C3.11687 106.146 3.03908 106.126 2.97042 106.086C2.76219 105.962 2.69124 105.692 2.81365 105.483L3.25876 104.726C3.38345 104.515 3.65464 104.445 3.86065 104.568C4.07001 104.691 4.14096 104.961 4.01622 105.172L3.5723 105.929C3.48876 106.068 3.34344 106.146 3.19352 106.146Z" fill="white"/>
<path d="M135.54 101.138C135.465 101.138 135.391 101.098 135.35 101.028L91.0842 23.8309C91.0234 23.7257 91.0603 23.5918 91.1667 23.53C91.2693 23.4705 91.4056 23.506 91.4653 23.6124L135.731 100.807C135.791 100.915 135.755 101.049 135.651 101.11C135.616 101.127 135.577 101.138 135.54 101.138Z" fill="white"/>
<path d="M120.925 126.01H31.2928C31.1728 126.01 31.0735 125.91 31.0735 125.79C31.0735 125.666 31.1728 125.57 31.2928 125.57H120.925C121.046 125.57 121.143 125.666 121.143 125.79C121.143 125.91 121.046 126.01 120.925 126.01Z" fill="white"/>
<path d="M16.9365 100.942C16.8987 100.942 16.8609 100.933 16.8255 100.914C16.7213 100.851 16.6848 100.714 16.7477 100.611L62.1137 23.4139C62.1756 23.3087 62.3097 23.2732 62.415 23.335C62.5192 23.3968 62.5534 23.5318 62.4937 23.6359L17.1275 100.832C17.0864 100.904 17.0108 100.942 16.9365 100.942Z" fill="white"/>
<path d="M20.8651 105.204C14.8842 105.204 10.019 110.071 10.019 116.05C10.019 122.029 14.8842 126.895 20.8651 126.895C26.846 126.895 31.7112 122.029 31.7112 116.05C31.7112 110.071 26.846 105.204 20.8651 105.204ZM20.8651 128.654C13.9151 128.654 8.2603 123 8.2603 116.05C8.2603 109.101 13.9151 103.445 20.8651 103.445C27.8151 103.445 33.4689 109.101 33.4689 116.05C33.4689 123 27.8151 128.654 20.8651 128.654Z" fill="white"/>
<path d="M20.8933 116.457C20.7617 116.457 20.6335 116.399 20.5466 116.288C20.4115 116.117 20.4241 115.871 20.5763 115.713L90.4429 43.1057C90.6145 42.9303 90.8924 42.9271 91.0661 43.0926C91.2403 43.262 91.2458 43.5416 91.0775 43.7142L23.3648 114.084L104.515 67.2325C104.724 67.1115 104.993 67.1799 105.114 67.3927C105.236 67.6033 105.164 67.8709 104.954 67.9925L21.1118 116.399C21.0443 116.439 20.9677 116.457 20.8933 116.457Z" fill="white"/>
<path d="M20.893 116.53C20.695 116.53 20.5165 116.397 20.4662 116.197C20.4078 115.963 20.5509 115.723 20.7877 115.665L118.603 91.4614C118.84 91.4023 119.078 91.5483 119.135 91.7833C119.194 92.0189 119.049 92.2567 118.814 92.3142L20.9983 116.517C20.9639 116.526 20.9262 116.53 20.893 116.53Z" fill="white"/>
<path d="M132.661 116.457C132.586 116.457 132.508 116.439 132.44 116.399L48.6007 67.9925C48.389 67.8709 48.3168 67.6033 48.4394 67.3927C48.5616 67.1821 48.8308 67.1115 49.0414 67.2325L130.19 114.084L62.4779 43.7142C62.3108 43.5416 62.3151 43.262 62.4904 43.0926C62.6641 42.9271 62.941 42.9303 63.113 43.1057L132.977 115.713C133.128 115.871 133.141 116.117 133.006 116.288C132.922 116.399 132.791 116.457 132.661 116.457Z" fill="white"/>
<path d="M132.671 116.53C132.636 116.53 132.6 116.525 132.566 116.516L34.751 92.3132C34.5165 92.2562 34.371 92.0179 34.4291 91.7823C34.4877 91.5478 34.7254 91.4034 34.9616 91.4609L132.777 115.665C133.012 115.723 133.156 115.962 133.097 116.197C133.049 116.396 132.868 116.53 132.671 116.53Z" fill="white"/>
<path d="M76.942 116.469C76.6994 116.469 76.5018 116.273 76.5018 116.029V19.2207C76.5018 18.977 76.6994 18.7814 76.942 18.7814C77.1857 18.7814 77.3806 18.977 77.3806 19.2207V116.029C77.3806 116.273 77.1857 116.469 76.942 116.469Z" fill="white"/>
</svg>
