<svg width="1440" height="1378" viewBox="0 0 1440 1378" fill="none" xmlns="http://www.w3.org/2000/svg">
<g opacity="0.2">
<path d="M1441.25 269.011C1434.27 287.16 1430.5 302.154 1429.4 316.197C1429.18 318.957 1428.92 321.709 1428.63 324.624C1427.62 334.976 1426.58 345.684 1428.07 355.852C1429.7 366.83 1436.46 376.522 1447.1 383.144C1451.45 385.853 1456.29 387.928 1461.38 389.398L1461.38 387.594C1456.6 386.175 1452.07 384.22 1448.06 381.721C1437.86 375.373 1431.38 366.097 1429.82 355.612C1428.36 345.641 1429.39 335.036 1430.4 324.779C1430.67 321.984 1430.95 319.095 1431.17 316.321C1432.26 302.437 1435.99 287.593 1442.91 269.598C1444.96 264.3 1447.55 258.787 1450.29 252.953C1454.48 244.012 1458.74 234.903 1461.38 226.008L1461.38 218.537C1459.35 229.459 1453.96 240.998 1448.67 252.263C1445.92 258.127 1443.32 263.661 1441.25 269.011Z" fill="#DEFB48"/>
<path d="M1434.22 0.00483L1392.07 0.00482632C1405 0.999306 1419.47 1.05503 1434.22 0.00483Z" fill="#DEFB48"/>
<path d="M-26.2624 1353.74C18.1763 1325.93 76.8461 1272.76 153.091 1191.2C182.908 1159.32 213.939 1124.7 243.953 1091.22C287.629 1042.49 332.796 992.104 373.634 950.897C381.795 942.629 389.683 934.553 397.313 926.747C409.011 914.77 420.062 903.458 431.755 891.773C444.126 879.419 454.101 870.186 463.154 862.71C482.204 846.983 495.586 840.433 505.111 836.485C525.922 827.994 541.328 826.472 557.638 824.856C570.927 823.544 584.669 822.185 602.15 816.96C633.189 807.602 681.237 785.364 749.037 748.975C764.683 740.475 780.449 731.508 795.696 722.836C805.375 717.332 815.38 711.644 825.089 706.226C831.553 702.625 837.914 699.14 844.07 695.771C864.212 684.737 883.236 674.317 902.444 661.714C913.07 654.753 923.328 647.376 933.243 640.243C952.652 626.281 970.981 613.096 991.12 603.421C1014.18 592.186 1043.33 586.442 1050.25 596.781C1053.36 601.287 1053.75 607.391 1054.12 613.293C1054.21 614.622 1054.29 615.942 1054.41 617.233C1055.23 626.654 1056.47 636.706 1060.04 646.381C1064.79 659.309 1073.39 671.217 1085.58 681.775C1088.55 684.347 1091.69 686.898 1094.73 689.362C1098.43 692.372 1102.26 695.479 1105.87 698.698C1111.52 703.739 1116.98 707.139 1123.06 709.402C1155.11 720.826 1202.31 701.678 1216.02 695.531C1229.82 689.204 1242.18 681.629 1254.13 674.308C1274.64 661.74 1294.01 649.866 1318.39 645.425C1334.6 642.54 1346.38 641.203 1361.98 648.589C1380.48 657.38 1396.87 670.562 1412.72 683.31C1414.11 684.429 1415.49 685.543 1416.87 686.64C1419.76 688.989 1422.67 691.36 1425.59 693.743C1437.15 703.182 1448.91 712.784 1461.38 721.893L1461.38 718.657C1449.57 709.942 1438.35 700.79 1427.33 691.789C1424.41 689.401 1421.5 687.026 1418.6 684.673C1417.22 683.567 1415.84 682.457 1414.45 681.338C1398.48 668.495 1381.96 655.211 1363.17 646.283C1346.86 638.562 1334.12 640.011 1317.9 642.896C1293 647.431 1273.41 659.434 1252.68 672.139C1240.8 679.422 1228.52 686.949 1214.87 693.203C1201.41 699.234 1155.07 718.061 1124.02 706.993C1118.28 704.858 1113.1 701.622 1107.7 696.808C1104.04 693.546 1100.19 690.417 1096.46 687.39C1093.44 684.939 1090.32 682.401 1087.38 679.859C1075.52 669.589 1067.18 658.036 1062.57 645.515C1059.11 636.111 1057.89 626.256 1057.09 617.005C1056.97 615.732 1056.89 614.429 1056.81 613.122C1056.41 606.881 1056 600.429 1052.5 595.363C1049.39 590.703 1043.06 588.843 1035.26 588.843C1021.51 588.843 1003.19 594.643 989.911 601.115C969.563 610.893 951.139 624.147 931.631 638.177C921.738 645.292 911.506 652.652 900.926 659.584C881.808 672.13 862.832 682.525 842.737 693.533C836.581 696.902 830.216 700.392 823.739 703.997C814.021 709.419 804.008 715.112 794.324 720.62C779.09 729.283 763.337 738.242 747.721 746.729C680.088 783.028 632.207 805.193 601.348 814.499C584.125 819.648 570.519 820.989 557.364 822.292C540.844 823.926 525.245 825.469 504.052 834.115C489.632 840.09 476.477 848.303 461.401 860.751C452.283 868.283 442.244 877.572 429.818 889.986C418.115 901.679 407.056 912.996 395.354 924.981C387.728 932.787 379.841 940.863 371.688 949.123C330.803 990.368 285.618 1040.78 241.921 1089.53C211.915 1123.01 180.893 1157.62 151.098 1189.47C75.0115 1270.87 16.5216 1323.89 -27.7284 1351.58L-30.759 1353.5C-41.0811 1360.05 -51.1287 1366.42 -61.9779 1374.17L-61.9779 1377.39C-50.5543 1369.14 -40.0651 1362.49 -29.2759 1355.65L-26.2624 1353.74Z" fill="#DEFB48"/>
<path d="M3.19471 1297.65C48.0791 1268.92 103.71 1219.4 178.274 1141.82C207.059 1111.88 237.219 1079.29 266.389 1047.78C312.791 997.643 360.774 945.797 403.897 903.926C411.758 896.258 419.38 888.692 426.757 881.375C438.116 870.101 448.846 859.453 460.201 848.634C470.814 838.526 479.782 830.549 487.613 824.248C507.4 808.336 521.168 802.112 530.942 798.469C549.751 791.567 563.974 790.414 579.037 789.197C591.802 788.164 605.005 787.092 621.821 782.441C652.778 773.744 701.692 751.844 771.361 715.485C786.184 707.641 801.131 699.394 815.586 691.416C825.749 685.81 836.26 680.01 846.432 674.515C852.497 671.244 858.507 668.05 864.315 664.968C884.367 654.321 903.305 644.264 922.213 632.206C932.493 625.669 942.437 618.747 952.052 612.055C971.016 598.861 988.929 586.396 1008.53 577.15C1029.6 567.059 1062.6 559.322 1069.79 571.059C1072.73 575.714 1072.85 581.964 1072.96 588.012C1072.99 589.294 1073.01 590.563 1073.06 591.81C1073.49 602.955 1074.33 612.235 1077 621.284C1081.13 635.271 1089.43 648.144 1101.67 659.533C1103.92 661.638 1106.11 663.884 1108.44 666.263C1115.38 673.37 1122.55 680.722 1132.45 685.63C1164.17 700.817 1213.94 681.776 1228.45 675.573C1242 669.641 1254.25 662.469 1266.09 655.53C1286.79 643.399 1306.34 631.945 1330.67 628.074C1347.27 625.507 1358.45 624.491 1373.67 632.078C1391.32 640.904 1406.88 653.866 1421.92 666.404L1423.43 667.66C1427.26 670.884 1431.17 674.219 1434.94 677.442C1443.54 684.785 1452.29 692.222 1461.38 699.467L1461.38 696.192C1452.92 689.393 1444.75 682.436 1436.69 675.561C1432.91 672.333 1429 668.998 1425.16 665.761L1423.65 664.501C1408.49 651.869 1392.81 638.803 1374.89 629.84C1358.94 621.893 1347.38 622.93 1330.24 625.579C1305.4 629.532 1285.64 641.109 1264.71 653.373C1252.93 660.275 1240.76 667.408 1227.36 673.272C1213.13 679.354 1164.31 698.061 1133.64 683.379C1124.16 678.681 1117.14 671.493 1110.35 664.54C1108.01 662.139 1105.8 659.876 1103.5 657.724C1091.6 646.643 1083.53 634.152 1079.53 620.594C1076.93 611.781 1076.11 602.676 1075.68 591.711C1075.64 590.481 1075.61 589.23 1075.59 587.965C1075.47 581.582 1075.35 574.985 1072.05 569.764C1069.16 565.049 1062.93 562.64 1053.81 562.64C1050.99 562.64 1047.88 562.871 1044.5 563.339C1033 564.933 1019.11 569.25 1007.35 574.882C987.558 584.219 969.554 596.748 950.496 610.006C940.903 616.685 930.979 623.586 920.747 630.097C901.925 642.095 883.03 652.13 863.029 662.752C857.216 665.839 851.207 669.032 845.133 672.307C834.948 677.807 824.433 683.606 814.265 689.217C799.82 697.186 784.881 705.429 770.088 713.261C700.59 749.529 651.848 771.361 621.079 780.007C604.52 784.589 591.451 785.648 578.81 786.672C563.558 787.907 549.151 789.077 529.986 796.107C520.015 799.823 505.998 806.159 485.911 822.306C478.02 828.654 469.001 836.679 458.336 846.838C446.964 857.674 436.226 868.335 424.854 879.617C417.485 886.93 409.864 894.496 402.015 902.152C358.845 944.07 310.84 995.941 264.413 1046.1C235.251 1077.61 205.095 1110.19 176.328 1140.11C101.914 1217.54 46.4331 1266.93 1.71582 1295.56L-0.525997 1297.02C-19.5154 1309.34 -37.5832 1321.08 -61.9908 1342.55L-61.9908 1345.99C-36.8116 1323.63 -18.4051 1311.67 0.952885 1299.1L3.19471 1297.65Z" fill="#DEFB48"/>
<path d="M-38.5527 1298.38C-7.80529 1269.91 13.0402 1256.17 35.1502 1241.59C79.7903 1212.59 134.345 1164.88 206.826 1091.45C233.96 1063.98 262.53 1034.07 290.157 1005.15C337.909 955.159 387.29 903.467 431.506 861.965C439.046 854.854 446.393 847.815 453.5 841.008C465.172 829.825 476.193 819.263 487.822 808.589C498.35 798.931 507.21 791.353 514.901 785.416C534.061 770.64 546.887 765.158 556.904 761.741C574.411 755.886 587.768 755.102 601.909 754.27C614.666 753.52 627.86 752.744 644.989 748.187C675.762 739.859 724.5 718.73 793.989 683.585C808.34 676.216 822.808 668.483 836.795 661.007C847.112 655.491 857.781 649.79 868.104 644.397C874.13 641.251 880.093 638.19 885.863 635.228C905.555 625.121 924.154 615.57 942.745 604.061C952.784 597.858 962.54 591.274 971.975 584.908C991.166 571.954 1009.29 559.721 1029.1 550.86C1050.44 541.156 1083.63 534.177 1090.45 546.321C1093.26 551.169 1093.1 557.59 1092.95 563.801C1092.92 565.023 1092.89 566.232 1092.88 567.419C1092.81 577.047 1092.94 587.279 1095.24 597.262C1098.51 611.506 1105.87 624.671 1117.11 636.39C1119.2 638.58 1121.22 640.899 1123.35 643.351C1129.72 650.664 1136.3 658.226 1145.64 663.532C1169.81 676.821 1210.2 668.942 1239.96 657.132C1254.18 651.359 1266.96 644.204 1279.31 637.286C1299.63 625.914 1318.81 615.171 1342.32 611.451C1357.29 609.153 1369.11 607.336 1384.91 615.27C1402.42 624.1 1417.67 637.311 1432.42 650.085L1432.99 650.578C1437.15 654.218 1441.39 657.99 1445.48 661.638C1450.7 666.297 1455.99 670.991 1461.37 675.659L1461.37 672.32C1456.6 668.158 1451.9 663.974 1447.24 659.824C1443.14 656.172 1438.91 652.396 1434.74 648.748L1434.16 648.251C1419.29 635.374 1403.91 622.056 1386.11 613.08C1369.55 604.759 1356.74 606.727 1341.9 609.007C1317.91 612.801 1298.52 623.655 1278 635.151C1265.72 642.027 1253.02 649.138 1238.96 654.848C1209.78 666.426 1170.28 674.223 1146.94 661.393C1138 656.318 1131.56 648.92 1125.33 641.77C1123.18 639.292 1121.14 636.951 1119.02 634.718C1108.09 623.32 1100.94 610.538 1097.76 596.726C1095.52 586.992 1095.39 576.918 1095.46 567.432C1095.47 566.258 1095.5 565.062 1095.53 563.861C1095.69 557.32 1095.86 550.556 1092.71 545.134C1089.62 539.617 1082.32 537.461 1073.29 537.461C1059.25 537.461 1041.02 542.69 1027.98 548.619C1007.97 557.569 989.756 569.867 970.471 582.885C961.057 589.238 951.327 595.809 941.331 601.982C922.826 613.435 904.273 622.96 884.628 633.046C878.858 636.008 872.892 639.073 866.852 642.22C856.517 647.621 845.844 653.326 835.521 658.843C821.543 666.318 807.084 674.043 792.763 681.399C723.441 716.458 674.87 737.522 644.277 745.804C627.414 750.288 614.361 751.059 601.737 751.801C587.412 752.641 573.883 753.438 556.03 759.41C546.402 762.689 532.84 768.39 513.263 783.491C505.513 789.471 496.601 797.097 486.018 806.806C474.371 817.496 463.338 828.071 451.657 839.264C444.554 846.066 437.211 853.105 429.684 860.203C385.421 901.753 336.019 953.47 288.241 1003.49C260.623 1032.4 232.061 1062.3 204.94 1089.76C132.588 1163.05 78.1701 1210.65 33.6371 1239.58C11.4756 1254.19 -9.45996 1267.99 -40.3616 1296.6C-46.7186 1302.48 -54.0657 1309.8 -61.9958 1318.01L-61.9958 1321.66C-53.3584 1312.67 -45.3812 1304.69 -38.5527 1298.38Z" fill="#DEFB48"/>
<path d="M-6.71154 1243.78C25.429 1213.74 47.1704 1199.26 68.1874 1185.27C113.436 1155.57 165.063 1111.4 235.581 1042.06C261.605 1016.48 289.142 988.577 315.766 961.589C363.616 913.087 413.1 862.93 457.363 822.666C464.372 816.262 471.166 809.995 477.741 803.934C490.408 792.253 502.372 781.22 515.124 769.861C525.682 760.46 534.555 753.096 542.25 747.347C562.041 732.576 575.14 727.458 585.338 724.397C601.16 719.759 613.432 719.352 626.424 718.923C639.413 718.495 652.847 718.049 670.846 713.355C701.019 705.357 748.252 685.638 815.251 653.074C830.117 645.744 845.09 638.006 859.57 630.522C870.316 624.967 881.431 619.223 892.173 613.822C897.81 610.988 903.365 608.24 908.741 605.579C928.253 595.921 946.685 586.795 965.216 575.654C974.831 569.884 984.257 563.712 993.374 557.736C1013.49 544.56 1032.49 532.116 1053.24 523.74C1074 515.227 1106.03 509.813 1112.22 521.794C1114.93 526.865 1114.5 533.449 1114.07 539.81C1114 540.933 1113.92 542.043 1113.86 543.141C1113.33 553.347 1112.99 563.322 1114.62 573.185C1116.97 587.537 1123.33 600.936 1133.51 613.007C1135.23 615.052 1137.03 617.079 1138.77 619.038C1141.75 622.386 1144.83 625.854 1147.59 629.493C1151.9 635.169 1156.28 639.258 1161.38 642.37C1184.01 655.71 1222.81 649.421 1251.57 639.082C1266.96 633.428 1280.59 626.145 1293.76 619.103C1313.24 608.695 1331.63 598.862 1353.85 595.102C1368.88 592.625 1380.76 590.666 1395.91 597.987C1413.91 606.723 1429.33 620.667 1444.23 634.157L1445.14 634.954C1448.99 638.469 1452.89 642.096 1456.67 645.602C1458.23 647.055 1459.81 648.513 1461.38 649.97L1461.38 646.584C1460.4 645.675 1459.42 644.762 1458.44 643.853C1454.66 640.343 1450.75 636.712 1446.89 633.184L1445.99 632.37C1430.95 618.764 1415.4 604.696 1397.06 595.797C1381.16 588.115 1368.31 590.233 1353.36 592.697C1330.77 596.517 1312.19 606.449 1292.53 616.959C1279.44 623.959 1265.9 631.199 1250.68 636.789C1240.94 640.291 1190.92 656.906 1162.74 640.291C1157.93 637.359 1153.77 633.467 1149.66 628.044C1146.84 624.328 1143.73 620.83 1140.72 617.444C1138.99 615.498 1137.2 613.483 1135.5 611.46C1125.6 599.723 1119.42 586.713 1117.14 572.786C1115.55 563.155 1115.89 553.317 1116.41 543.239C1116.47 542.155 1116.54 541.053 1116.61 539.943C1117.05 533.252 1117.52 526.333 1114.5 520.679C1111.38 514.644 1103.44 512.316 1093.69 512.316C1080.7 512.316 1064.51 516.453 1052.25 521.481C1031.27 529.947 1012.17 542.459 991.943 555.709C982.847 561.667 973.442 567.827 963.87 573.571C945.429 584.66 927.044 593.761 907.579 603.397C902.2 606.059 896.64 608.811 890.995 611.648C880.24 617.058 869.116 622.806 858.361 628.362C843.89 635.837 828.93 643.57 814.094 650.887C747.254 683.375 700.179 703.037 670.173 710.989C652.465 715.61 639.181 716.051 626.339 716.476C613.17 716.909 600.735 717.32 584.588 722.057C574.163 725.182 560.797 730.403 540.689 745.414C532.935 751.205 524.01 758.617 513.397 768.064C500.631 779.437 488.659 790.479 475.984 802.168C469.413 808.229 462.618 814.492 455.618 820.892C411.304 861.203 361.799 911.381 313.927 959.909C287.307 986.893 259.779 1014.79 233.768 1040.35C163.37 1109.58 111.863 1153.65 66.7471 1183.26C45.6359 1197.32 23.8087 1211.85 -8.48193 1242.03C-23.099 1255.67 -42.7828 1276.39 -61.9822 1297.16L-61.9822 1300.84C-42.2212 1279.42 -21.7573 1257.82 -6.71154 1243.78Z" fill="#DEFB48"/>
<path d="M31.6525 1184.07C60.6638 1157.46 80.9992 1143.26 102.706 1128.71C148.718 1098.35 197.525 1057.59 265.895 992.4C290.787 968.696 317.257 942.745 342.86 917.643C390.767 870.675 440.306 822.109 484.586 783.127C489.987 778.352 495.256 773.671 500.451 769.058C515.149 756.01 529.029 743.686 543.706 731.045C555.357 721.019 565.169 713.222 573.695 707.216C591.75 694.511 603.594 690.233 612.788 687.73C627.916 683.718 639.631 683.67 652.032 683.619C665.23 683.563 678.878 683.507 697.791 678.715C728.071 670.914 775.064 652.001 841.463 620.898C855.921 614.018 870.461 606.778 884.526 599.778C895.328 594.403 906.494 588.843 917.288 583.618C922.912 580.9 928.445 578.273 933.799 575.731C951.649 567.256 968.503 559.253 985.538 549.399C995.616 543.582 1005.45 537.345 1014.97 531.314C1034.85 518.698 1053.64 506.786 1074.12 498.672C1085.95 493.905 1099.74 490.669 1111.02 490.017C1123.88 489.276 1132.4 491.937 1135.01 497.527C1137.56 502.757 1136.85 509.469 1136.16 515.963C1136.05 517.039 1135.93 518.107 1135.83 519.157C1134.75 530.714 1133.97 541.121 1135.27 551.409C1137.01 565.195 1142.28 578.127 1150.92 589.842C1152.54 592.046 1154.1 594.352 1155.76 596.795C1161.21 604.815 1167.38 613.911 1176.46 620.319C1197.88 635.039 1237.08 629.968 1264.14 621.151C1280.66 615.66 1295.11 608.266 1309.08 601.116C1327.69 591.595 1345.26 582.598 1366.05 578.779C1380.01 576.262 1393.19 573.892 1407.69 580.695C1426.29 589.439 1441.88 604.181 1456.95 618.434L1457.95 619.385C1459.09 620.465 1460.23 621.571 1461.37 622.669L1461.37 619.286C1460.82 618.755 1460.26 618.219 1459.71 617.692L1458.7 616.74C1444.19 603.023 1427.75 587.472 1408.79 578.556C1393.54 571.401 1379.96 573.849 1365.59 576.438C1344.42 580.33 1326.68 589.405 1307.9 599.015C1294.01 606.122 1279.65 613.47 1263.32 618.896C1236.83 627.525 1198.56 632.571 1177.93 618.391C1169.23 612.248 1163.44 603.731 1157.85 595.496C1156.18 593.036 1154.6 590.712 1152.96 588.47C1144.56 577.081 1139.43 564.517 1137.74 551.122C1136.47 541.066 1137.25 530.791 1138.31 519.367C1138.41 518.325 1138.52 517.271 1138.64 516.204C1139.36 509.392 1140.1 502.345 1137.28 496.537C1134.22 490 1125.66 487.505 1115.18 487.505C1101.81 487.505 1085.34 491.56 1073.16 496.473C1052.46 504.673 1033.58 516.649 1013.58 529.329C1004.09 535.347 994.283 541.571 984.248 547.363C967.299 557.166 950.487 565.152 932.689 573.6C927.335 576.142 921.797 578.774 916.165 581.496C905.358 586.726 894.183 592.29 883.377 597.669C869.321 604.665 854.79 611.901 840.361 618.768C774.117 649.802 727.269 668.659 697.152 676.418C678.553 681.133 665.067 681.188 652.027 681.24C639.455 681.291 627.577 681.338 612.12 685.441C602.702 688.008 590.597 692.372 572.225 705.3C563.63 711.353 553.763 719.197 542.048 729.279C527.353 741.929 513.465 754.261 498.762 767.314C493.567 771.926 488.299 776.603 482.902 781.378C438.575 820.403 389.013 868.995 341.081 915.984C315.486 941.077 289.017 967.024 264.142 990.716C195.879 1055.79 147.179 1096.48 101.292 1126.76C79.4904 1141.36 59.0735 1155.62 29.9336 1182.35C6.67481 1203.67 -26.1473 1238.86 -55.0901 1270.16C-57.422 1272.68 -59.6981 1275.15 -61.9828 1277.64L-61.9828 1281.24C-59.0937 1278.1 -56.1874 1274.95 -53.2211 1271.75C-24.3212 1240.47 8.46229 1205.33 31.6525 1184.07Z" fill="#DEFB48"/>
<path d="M66.1856 1128.88C99.2392 1098.62 121.641 1083.63 141.402 1070.42C185.78 1041.16 235.316 1000.56 302.014 938.767C324.171 918.256 347.722 895.97 370.496 874.417C421.249 826.386 473.733 776.718 520.44 737.329C526.642 732.074 532.721 726.878 538.602 721.854C551.714 710.649 564.098 700.066 577.194 689.328C588.561 680.009 598.039 672.876 606.166 667.527C622.335 656.896 633.039 653.356 641.372 651.302C655.972 647.804 667.125 648.135 678.935 648.49C691.464 648.863 704.418 649.253 722.589 645.155C752.539 638.254 801.667 619.47 868.623 589.323C882.464 582.979 896.391 576.305 909.855 569.854C919.461 565.25 929.402 560.483 939.012 555.987C945.044 553.17 950.972 550.448 956.703 547.821C976.245 538.853 994.708 530.387 1013.28 519.864C1022.25 514.797 1031.08 509.375 1039.62 504.137C1059.25 492.091 1077.79 480.711 1098.03 473.162C1119.22 465.116 1152.95 460.692 1158.52 473.758C1162.33 482.408 1160.39 493.793 1158.51 504.809C1157.29 511.989 1156.02 519.41 1156.34 526.088C1157 540.765 1161.4 554.546 1169.41 567.054C1171.15 569.772 1173 572.49 1174.78 575.117C1177.25 578.752 1179.8 582.508 1182.14 586.357C1185.3 591.565 1188.58 595.466 1192.49 598.642C1213.41 615.132 1252.98 610.987 1280.51 602.427C1296.71 597.288 1310.99 590.249 1324.81 583.438C1343.43 574.265 1361.01 565.601 1381.63 562.189L1382.65 562.022C1396.52 559.776 1408.5 557.838 1422.6 564.787C1437.13 571.963 1449.91 583.215 1461.38 594.188L1461.38 590.892C1450.22 580.321 1437.83 569.678 1423.71 562.695C1408.89 555.391 1396.54 557.393 1382.24 559.703L1381.21 559.87C1360.22 563.342 1342.48 572.087 1323.69 581.346C1309.96 588.114 1295.75 595.114 1279.75 600.194C1265.42 604.652 1249.21 607.318 1235.29 607.519C1217.5 607.781 1203.24 604.077 1194.05 596.837C1190.38 593.85 1187.26 590.146 1184.24 585.174C1181.88 581.273 1179.3 577.492 1176.82 573.831C1175.05 571.217 1173.21 568.512 1171.48 565.82C1163.69 553.655 1159.42 540.251 1158.78 525.972C1158.47 519.534 1159.71 512.234 1160.91 505.174C1162.85 493.836 1164.84 482.108 1160.77 472.853C1157.73 465.72 1148.43 463.033 1137.16 463.033C1124.26 463.033 1108.76 466.556 1097.13 470.976C1076.67 478.602 1058.03 490.042 1038.3 502.156C1029.78 507.386 1020.96 512.795 1012.03 517.841C993.546 528.313 975.131 536.761 955.636 545.703C949.9 548.335 943.972 551.057 937.932 553.878C928.313 558.378 918.368 563.145 908.754 567.753C895.298 574.204 881.384 580.87 867.569 587.201C800.771 617.276 751.797 636.008 722.015 642.871C704.161 646.896 691.37 646.51 679.003 646.141C667.018 645.781 655.702 645.447 640.763 649.026C632.216 651.135 621.255 654.753 604.773 665.589C596.573 670.986 587.027 678.17 575.595 687.545C562.482 698.3 550.085 708.892 536.964 720.101C531.087 725.125 525.009 730.316 518.811 735.567C472.053 775.003 419.547 824.693 368.769 872.745C345.999 894.294 322.457 916.575 300.304 937.078C233.704 998.774 184.267 1039.3 139.996 1068.49C120.157 1081.76 97.6746 1096.8 64.488 1127.18C40.9249 1148.74 8.65577 1182.73 -22.709 1216.26C-36.4902 1230.97 -49.4398 1244.99 -61.9951 1258.78L-61.9951 1262.34C-48.8782 1247.9 -35.337 1233.24 -20.8914 1217.81C10.4475 1184.33 42.6824 1150.38 66.1856 1128.88Z" fill="#DEFB48"/>
<path d="M101.576 1074.09C133.643 1044.92 155.192 1029.95 178.065 1014.72C210.017 993.764 253.598 962.562 334.592 890.016C355.824 871.018 377.462 851.249 400.369 830.318C450.865 784.182 503.079 736.472 549.597 698.579C554.192 694.82 558.71 691.112 563.172 687.447C578.355 674.982 592.698 663.207 607.654 651.363C619 642.383 628.482 635.494 636.644 630.303C653.353 619.685 663.859 616.659 672.72 614.974C685.455 612.651 695.532 613.26 706.202 613.907C719.027 614.683 732.285 615.489 751.459 611.361C781.079 604.841 828.668 587.566 892.915 560.012C907.545 553.625 922.239 546.857 936.454 540.307C946.171 535.828 956.223 531.202 965.936 526.839C971.766 524.228 977.48 521.721 983.01 519.294C1001.04 511.381 1018.08 503.906 1035.37 494.484C1044.74 489.387 1053.98 483.883 1062.91 478.564C1082.97 466.604 1101.93 455.309 1122.55 448.121C1139.74 442.008 1163.58 438.647 1175.85 444.053C1179.3 445.574 1181.59 447.722 1182.63 450.444C1184.89 456.089 1183.65 463.059 1182.45 469.802C1182.28 470.754 1182.11 471.701 1181.95 472.64L1181.64 474.466C1179.93 484.569 1178.16 495.015 1178.28 505.273C1178.44 519.342 1181.9 532.6 1188.56 544.684C1190.17 547.616 1191.94 550.539 1193.66 553.364C1195.83 556.939 1198.07 560.63 1200.03 564.406C1202.02 568.238 1205.29 573.875 1210.71 578.543C1230.28 594.931 1268.07 592.226 1294.5 584.926C1311.83 580.048 1326.93 572.88 1341.53 565.945C1359.16 557.578 1375.8 549.677 1395.02 546.265L1396.04 546.085C1410.58 543.556 1423.12 541.374 1437.89 549.013C1446.31 553.385 1454.16 559.215 1461.38 565.448L1461.38 562.374C1454.48 556.557 1447.03 551.148 1439.03 546.998C1423.52 538.978 1410.59 541.229 1395.62 543.835L1394.59 544.015C1375.04 547.487 1358.25 555.456 1340.47 563.896C1325.96 570.784 1310.95 577.909 1293.82 582.727C1265.94 590.425 1229.91 591.583 1212.3 576.828C1208.36 573.438 1205.24 569.293 1202.17 563.386C1200.18 559.541 1197.92 555.816 1195.73 552.211C1194.03 549.403 1192.27 546.501 1190.68 543.612C1184.19 531.854 1180.83 518.947 1180.68 505.247C1180.56 495.187 1182.31 484.839 1184.01 474.83L1184.32 473.004C1184.48 472.074 1184.64 471.135 1184.81 470.188C1186.07 463.141 1187.37 455.858 1184.88 449.638C1183.6 446.333 1180.91 443.753 1176.85 441.969C1172.27 439.95 1166.2 439.08 1159.49 439.085C1147.34 439.085 1133.09 441.931 1121.71 445.969C1100.87 453.239 1081.81 464.594 1061.64 476.618C1052.73 481.929 1043.51 487.415 1034.18 492.491C1016.98 501.865 999.993 509.32 982.011 517.211C976.481 519.637 970.763 522.145 964.921 524.764C955.19 529.128 945.138 533.761 935.412 538.241C921.211 544.782 906.529 551.546 891.925 557.92C827.828 585.41 780.389 602.638 750.928 609.123C732.088 613.178 719.006 612.385 706.352 611.618C695.528 610.962 685.305 610.345 672.261 612.724C663.152 614.456 652.376 617.551 635.319 628.391C627.089 633.625 617.539 640.565 606.128 649.597C591.155 661.453 576.804 673.237 561.612 685.707C557.15 689.372 552.632 693.075 548.041 696.835C501.472 734.766 449.232 782.497 398.715 828.659C375.812 849.586 354.173 869.355 332.955 888.345C252.076 960.787 208.585 991.925 176.702 1012.84C153.739 1028.12 132.113 1043.15 99.9252 1072.43C74.939 1095.14 40.7194 1130.72 10.5464 1162.52C-15.6144 1190.06 -38.8817 1215.24 -61.9862 1241.01L-61.9862 1244.54C-38.2988 1218.08 -14.5128 1192.31 12.3211 1164.07C42.4683 1132.29 76.645 1096.75 101.576 1074.09Z" fill="#DEFB48"/>
<path d="M46.0946 1110.83C74.8273 1081.02 111.19 1043.77 137.552 1020.06C171.793 989.231 194.396 973.744 218.324 958.072C262.252 929.7 308.281 893.916 372.237 838.422C390.776 822.343 409.637 805.724 429.608 788.132C482.855 741.229 537.912 692.727 586.697 654.739C592.325 650.333 597.863 645.96 603.35 641.631C616.776 631.035 629.459 621.021 642.572 611.184C652.414 603.802 660.636 598.122 667.7 593.823C685.793 582.824 696.192 580.668 704.504 579.515C715.816 578.036 724.917 578.953 734.553 579.926C747.421 581.221 760.726 582.562 780.77 578.482C819.619 570.354 880.625 546.761 924.974 528.402C938.284 522.782 951.641 516.875 964.556 511.161C974.034 506.965 983.837 502.631 993.31 498.55C998.561 496.291 1003.74 494.101 1008.76 491.979C1026.88 484.319 1043.99 477.088 1061.12 468.017C1070.16 463.238 1079.11 458.068 1087.75 453.066C1107.87 441.432 1126.87 430.441 1147.51 423.712C1164.59 418.036 1188.2 415.267 1200.27 420.96C1203.78 422.614 1206.05 424.895 1207.05 427.754C1209.26 433.862 1207.63 441.325 1206.06 448.539C1205.82 449.641 1205.59 450.73 1205.37 451.81L1205.21 452.547C1203.15 462.531 1201.02 472.848 1200.62 483.037C1200.01 498.13 1203 512.314 1209.5 525.191C1210.79 527.776 1211.99 530.442 1213.25 533.263C1216.81 541.223 1220.49 549.449 1226.8 556.342C1245.81 576.613 1287.4 573.068 1308.98 567.774C1327.4 563.174 1343.29 555.874 1358.66 548.81C1375.28 541.172 1390.98 533.957 1408.78 530.502L1409.59 530.344C1424.14 527.57 1436.71 525.17 1451.17 532.273C1454.7 534.005 1458.09 536.011 1461.38 538.218L1461.38 535.479C1458.43 533.567 1455.4 531.818 1452.25 530.267C1437.06 522.804 1423.5 525.393 1409.15 528.132L1408.33 528.286C1390.24 531.801 1374.41 539.071 1357.65 546.774C1342.39 553.791 1326.59 561.044 1308.41 565.588C1287.34 570.753 1246.82 574.302 1228.57 554.841C1222.52 548.227 1218.91 540.164 1215.42 532.367C1214.15 529.521 1212.94 526.833 1211.63 524.205C1205.3 511.663 1202.39 497.835 1202.98 483.114C1203.38 473.101 1205.49 462.869 1207.53 452.972L1207.68 452.23C1207.9 451.163 1208.14 450.078 1208.38 448.985C1210.01 441.471 1211.71 433.703 1209.28 427.021C1208.09 423.583 1205.41 420.861 1201.32 418.932C1196.38 416.6 1189.64 415.606 1182.23 415.606C1170.66 415.606 1157.44 418.028 1146.76 421.577C1125.88 428.384 1106.78 439.435 1086.55 451.137C1077.92 456.126 1069 461.287 1059.99 466.045C1042.96 475.069 1025.89 482.283 1007.82 489.917C1002.8 492.039 997.618 494.23 992.359 496.493C982.872 500.578 973.069 504.916 963.583 509.112C950.676 514.822 937.328 520.729 924.048 526.336C879.807 544.652 818.946 568.19 780.29 576.278C760.619 580.282 747.498 578.962 734.814 577.684C725.037 576.698 715.799 575.768 704.191 577.286C694.997 578.563 684.062 581.221 666.452 591.924C659.32 596.262 651.038 601.985 641.136 609.413C627.998 619.272 615.305 629.29 601.867 639.899C596.384 644.229 590.846 648.597 585.222 653.003C536.386 691.033 481.299 739.557 428.03 786.486C408.064 804.074 389.203 820.689 370.672 836.763C306.807 892.184 260.855 927.908 217.017 956.221C192.999 971.952 170.319 987.491 135.958 1018.43C109.544 1042.19 73.1427 1079.48 44.3843 1109.31C15.3857 1139.35 -11.3323 1167.92 -37.3002 1196.67C-44.9945 1205.18 -53.2761 1214.42 -61.9735 1224.25L-61.9735 1227.74C-52.6289 1217.15 -43.7385 1207.23 -35.5255 1198.14C-9.58764 1169.4 17.1133 1140.85 46.0946 1110.83Z" fill="#DEFB48"/>
<path d="M89.436 1049.05C118.353 1019.79 154.716 983.467 179.449 962.201C212.649 933.618 235.877 917.642 256.028 904.641C287.226 884.79 329.444 855.865 406.015 791.828C424.207 776.624 442.815 760.819 462.52 744.093C514.812 699.693 568.878 653.784 616.81 617.79C621.418 614.313 625.949 610.876 630.428 607.481C645.277 596.224 659.303 585.589 673.945 575.019C684.816 567.174 693.865 561.233 701.611 556.861C717.248 548.043 726.803 546.084 734.789 545.287C745.445 544.31 753.992 545.532 763.037 546.83C775.314 548.588 788.006 550.41 807.39 547.075C845.103 540.353 905.873 518.196 950.218 500.789C964.445 495.087 978.702 489.026 992.487 483.167C1000.54 479.742 1008.87 476.205 1016.93 472.849C1022.81 470.406 1028.6 468.056 1034.19 465.785C1052.55 458.322 1069.89 451.275 1087.23 442.324C1095.95 437.832 1104.61 432.95 1112.98 428.23C1133.07 416.897 1152.06 406.189 1172.66 399.926C1189.62 394.667 1213.01 392.48 1224.94 398.473C1228.48 400.256 1230.74 402.661 1231.67 405.636C1233.66 411.731 1231.9 419.027 1230.2 426.083C1230.01 426.867 1229.82 427.651 1229.64 428.427C1229.29 429.915 1228.94 431.406 1228.58 432.894C1226.36 442.213 1224.06 451.849 1223.21 461.404C1221.93 475.708 1223.73 489.215 1228.56 501.547C1229.8 504.707 1231.26 507.831 1232.66 510.849C1234.35 514.476 1236.1 518.226 1237.48 522.063C1238.93 526.079 1241.39 532.025 1245.9 537.31C1261.83 555.489 1298.98 556.745 1326.74 550.221C1344.78 545.9 1360.47 538.879 1375.63 532.085C1392.14 524.69 1407.74 517.708 1425.31 514.518C1426.24 514.351 1427.17 514.184 1428.09 514.017C1439.29 511.981 1449.92 510.073 1461.38 514.287L1461.38 511.929C1449.67 507.874 1438.94 509.803 1427.66 511.852C1426.74 512.019 1425.82 512.187 1424.89 512.349C1407.02 515.594 1391.3 522.633 1374.65 530.087C1359.59 536.834 1344.01 543.813 1326.18 548.082C1299.09 554.448 1262.96 553.346 1247.66 535.9C1244.37 532.037 1241.9 527.55 1239.65 521.334C1238.24 517.408 1236.47 513.614 1234.76 509.945C1233.37 506.953 1231.93 503.858 1230.72 500.763C1226 488.739 1224.25 475.558 1225.5 461.584C1226.34 452.183 1228.62 442.624 1230.82 433.378C1231.18 431.887 1231.54 430.391 1231.89 428.903C1232.07 428.132 1232.26 427.351 1232.44 426.571C1234.21 419.233 1236.04 411.641 1233.88 404.989C1232.77 401.435 1230.12 398.589 1226.01 396.523C1220.67 393.839 1213.2 392.703 1205.03 392.703C1194.1 392.703 1181.93 394.739 1171.97 397.83C1151.12 404.17 1132.02 414.938 1111.81 426.335C1103.46 431.046 1094.83 435.916 1086.14 440.387C1068.9 449.29 1051.6 456.32 1033.29 463.757C1027.69 466.033 1021.91 468.382 1016.02 470.83C1007.94 474.191 999.612 477.731 991.553 481.156C977.776 487.012 963.532 493.064 949.335 498.757C905.097 516.122 844.49 538.227 806.974 544.91C787.976 548.176 775.468 546.385 763.376 544.653C754.185 543.337 745.501 542.089 734.557 543.097C726.301 543.924 716.455 545.935 700.441 554.966C692.622 559.386 683.5 565.37 672.561 573.265C657.897 583.853 643.862 594.492 629.001 605.762C624.522 609.157 619.991 612.59 615.387 616.067C567.403 652.095 513.307 698.03 460.99 742.451C441.293 759.177 422.685 774.978 404.502 790.178C328.03 854.129 285.889 883.003 254.747 902.82C234.523 915.868 211.217 931.899 177.91 960.568C153.117 981.885 116.711 1018.25 87.7643 1047.54C55.1608 1080.49 24.9663 1112.14 -4.5465 1144.31C-21.4741 1162.76 -41.2008 1184.57 -61.9862 1208.75L-61.9862 1212.22C-40.5621 1187.22 -20.2137 1164.72 -2.81469 1145.77C26.6768 1113.61 56.854 1081.98 89.436 1049.05Z" fill="#DEFB48"/>
<path d="M122.305 999.228C151.925 969.78 189.227 933.177 214.95 911.354C249.98 881.593 274.156 865.235 293.18 853.16C332.226 828.739 371.911 801.451 438.687 747.659C456.527 733.299 474.848 718.318 494.24 702.458C547.445 658.954 602.458 613.971 651.235 578.881C655.496 575.795 659.71 572.734 663.889 569.699C678.768 558.888 692.823 548.678 707.29 538.69C717.977 531.317 726.833 525.788 734.373 521.788C750.027 513.49 758.9 512.431 765.977 512.088C775.579 511.715 783.411 513.177 791.705 514.724C804.329 517.082 817.386 519.521 838.364 516.027C881.53 508.577 951.829 483.047 980.06 472.412C993.957 467.062 1007.86 461.382 1021.31 455.887C1029.34 452.608 1037.64 449.213 1045.68 446.002C1050.68 444.009 1055.56 442.093 1060.36 440.215C1078.88 432.95 1096.38 426.087 1113.91 417.227C1122.22 413.043 1130.48 408.495 1138.47 404.093C1158.51 393.063 1177.43 382.647 1198 376.813C1214.68 371.982 1237.72 370.362 1249.48 376.607C1253.08 378.519 1255.35 381.057 1256.22 384.156C1258.16 390.74 1256 398.555 1253.91 406.112C1253.66 407.008 1253.42 407.899 1253.18 408.778L1252.32 411.924C1249.82 421.149 1247.24 430.691 1245.94 440.173C1243.87 455.377 1245.14 469.737 1249.71 482.858C1250.71 485.709 1251.79 488.555 1252.84 491.303C1254.34 495.208 1255.87 499.245 1257.18 503.365C1258.96 509.015 1261.07 513.387 1263.8 517.138C1278.15 536.35 1313.8 539.333 1340.86 533.975C1360.37 530.04 1377.11 522.706 1393.3 515.612C1408.37 509.01 1422.6 502.769 1438.31 499.468L1439.08 499.31C1446.66 497.737 1454.02 496.224 1461.38 496.198L1461.38 494.025C1453.83 494.055 1446.33 495.598 1438.6 497.201L1437.83 497.359C1421.88 500.716 1407.54 506.996 1392.36 513.653C1376.28 520.7 1359.66 527.987 1340.4 531.866C1314.04 537.087 1279.4 534.318 1265.64 515.899C1263.05 512.35 1261.05 508.166 1259.33 502.743C1258.01 498.568 1256.46 494.5 1254.96 490.565C1253.91 487.826 1252.83 484.997 1251.85 482.176C1247.38 469.368 1246.14 455.33 1248.18 440.451C1249.45 431.102 1252.02 421.629 1254.51 412.464L1255.36 409.314C1255.6 408.439 1255.84 407.552 1256.09 406.66C1258.26 398.82 1260.5 390.719 1258.39 383.577C1257.35 379.904 1254.73 376.92 1250.57 374.717C1244.85 371.678 1236.64 370.396 1227.78 370.396C1217.58 370.396 1206.51 372.089 1197.35 374.738C1176.53 380.645 1156.61 391.61 1137.35 402.215C1129.37 406.605 1121.13 411.144 1112.86 415.311C1095.42 424.124 1077.97 430.965 1059.5 438.209C1054.7 440.091 1049.81 442.007 1044.81 444.005C1036.76 447.22 1028.46 450.615 1020.42 453.898C1006.98 459.389 993.091 465.065 979.225 470.401C894.694 502.246 852.274 511.428 837.97 513.897C817.407 517.322 804.561 514.921 792.138 512.602C783.711 511.029 775.755 509.542 765.874 509.928C758.536 510.279 749.358 511.372 733.284 519.894C725.667 523.936 716.738 529.509 705.979 536.933C691.486 546.933 677.422 557.153 662.534 567.972C658.355 571.007 654.146 574.067 649.885 577.149C601.057 612.277 546.017 657.282 492.787 700.807C473.395 716.663 455.078 731.641 437.246 745.996C370.556 799.72 330.931 826.965 291.949 851.347C272.853 863.465 248.6 879.878 213.463 909.73C187.679 931.604 150.339 968.245 120.689 997.719C90.6488 1027.54 62.5634 1056.39 34.8338 1085.92C9.31165 1113.08 -26.2838 1151.68 -61.9822 1194.91L-61.9822 1198.39C-25.731 1154.34 10.5847 1114.95 36.5098 1087.36C64.218 1057.86 92.2821 1029.03 122.305 999.228Z" fill="#DEFB48"/>
<path d="M69.1304 1037.34C97.3059 1007.86 125.803 979.124 156.25 949.5C186.35 920.167 224.329 883.637 251.103 861.33C287.693 830.797 312.915 814.126 330.794 803.015C335.445 800.139 340.126 797.31 344.648 794.575C358.232 786.358 372.279 777.858 390.124 765.47C414.159 748.773 445.931 724.525 476.687 700.807C492.598 688.445 508.887 675.632 526.132 662.065C581.223 618.724 638.195 573.908 688.541 539.363C693.71 535.797 698.833 532.221 703.921 528.668C717.119 519.46 729.589 510.759 742.256 502.533C751.587 496.476 759.247 491.958 765.664 488.722C781.786 480.612 790.389 480.024 797.809 480.127C806.202 480.32 813.151 481.975 820.507 483.732C832.47 486.587 844.841 489.536 865.078 486.827C907.026 480.92 977.188 456.894 1005.42 446.838C1020.38 441.381 1035.3 435.509 1049.73 429.825C1057.54 426.751 1065.61 423.575 1073.42 420.57C1078.23 418.722 1082.95 416.943 1087.52 415.22C1104.59 408.79 1120.71 402.716 1137 394.731C1145.73 390.461 1154.38 385.789 1162.75 381.267C1182.31 370.705 1200.79 360.725 1220.84 355.059C1237.8 350.159 1261.31 348.65 1273.42 355.23C1277.23 357.3 1279.6 360.044 1280.48 363.392C1282.34 370.169 1279.94 378.129 1277.62 385.827C1277.38 386.663 1277.12 387.491 1276.88 388.309C1276.41 389.908 1275.94 391.507 1275.46 393.106C1272.85 401.846 1270.16 410.882 1268.57 419.884C1265.84 435.294 1266.33 449.744 1270.03 462.827C1270.89 465.883 1271.9 468.944 1272.87 471.906C1274.12 475.712 1275.41 479.647 1276.42 483.625C1277.56 488.122 1279.34 493.964 1283.03 499.331C1289.5 508.504 1301.23 514.874 1316.97 517.75C1329.92 520.116 1345.15 519.975 1358.76 517.364C1377.87 513.635 1394.36 506.511 1410.31 499.618C1425.21 493.184 1439.29 487.101 1454.76 483.968L1457.11 483.496C1458.54 483.209 1459.97 482.922 1461.38 482.648L1461.38 480.496C1459.82 480.796 1458.24 481.113 1456.65 481.435L1454.31 481.906C1438.6 485.087 1424.42 491.212 1409.41 497.698C1393.57 504.539 1377.19 511.616 1358.32 515.298C1331.45 520.451 1297.59 516.216 1284.87 498.156C1281.37 493.072 1279.66 487.449 1278.56 483.123C1277.54 479.077 1276.24 475.108 1274.97 471.267C1274 468.326 1273 465.283 1272.15 462.269C1268.54 449.483 1268.06 435.337 1270.74 420.227C1272.3 411.341 1274.99 402.361 1277.58 393.676C1278.06 392.073 1278.53 390.47 1279 388.871C1279.24 388.056 1279.49 387.229 1279.74 386.402C1282.14 378.429 1284.62 370.186 1282.61 362.86C1281.59 358.942 1278.87 355.753 1274.51 353.387C1268.48 350.112 1259.82 348.736 1250.52 348.736C1240.31 348.736 1229.32 350.399 1220.21 353.031C1199.92 358.766 1181.34 368.801 1161.67 379.423C1153.32 383.933 1144.68 388.596 1135.99 392.844C1119.81 400.783 1103.73 406.836 1086.71 413.248C1082.14 414.972 1077.41 416.751 1072.59 418.602C1064.78 421.611 1056.7 424.788 1048.89 427.866C1034.47 433.541 1019.57 439.413 1004.64 444.853C920.122 474.966 878.658 482.772 864.761 484.731C844.953 487.38 832.796 484.482 821.034 481.679C813.554 479.896 806.494 478.211 797.844 478.014C790.128 477.915 781.212 478.507 764.631 486.848C758.137 490.119 750.413 494.676 741.013 500.78C728.311 509.027 715.829 517.733 702.614 526.953C697.526 530.503 692.403 534.078 687.242 537.64C636.841 572.223 579.843 617.061 524.722 660.424C507.481 673.99 491.192 686.803 475.289 699.157C444.559 722.857 412.813 747.085 388.817 763.755C371.032 776.105 357.015 784.583 343.457 792.784C338.93 795.523 334.249 798.352 329.585 801.237C311.642 812.386 286.338 829.112 249.646 859.731C222.816 882.085 184.794 918.654 154.668 948.017C124.204 977.658 95.6898 1006.41 67.4929 1035.91C19.2821 1086.31 -19.8583 1130.45 -52.1703 1170.84C-55.5653 1175.09 -58.8317 1179.24 -61.9994 1183.3L-61.9994 1186.82C-58.2958 1182.05 -54.4465 1177.15 -50.4215 1172.12C-18.1351 1131.78 20.9625 1087.69 69.1304 1037.34Z" fill="#DEFB48"/>
<path d="M101.245 988.876C129.554 959.787 158.475 931.188 189.66 901.447C217.698 874.661 258.266 836.361 286.724 813.119C316.331 788.9 341.382 770.918 367.941 754.818C373.321 751.573 378.452 748.568 383.883 745.383C397.566 737.363 411.716 729.073 429.723 716.942C452.301 701.733 481.796 680.077 510.306 658.94C526.394 646.929 542.94 634.404 560.455 621.142C613.903 580.677 669.174 538.84 718.195 506.438C722.568 503.527 726.893 500.638 731.179 497.771C745.578 488.139 759.175 479.043 773.144 470.294C783.312 463.932 791.722 459.243 798.859 455.964C813.438 449.277 821.411 449.135 827.725 449.525C835.552 450.083 842.021 451.982 848.866 453.988C860.243 457.323 872.009 460.773 891.595 458.806C933.744 454.215 1005.17 430.939 1033.93 421.144C1049.14 415.825 1064.27 410.072 1078.91 404.512C1086.11 401.773 1093.56 398.944 1100.77 396.261C1104.45 394.893 1108.07 393.565 1111.62 392.257C1130.35 385.373 1148.03 378.87 1165.62 370.28C1173.32 366.534 1181.03 362.444 1188.48 358.483C1207.47 348.393 1227.12 337.964 1247.52 332.91C1263.74 328.799 1286.15 328.139 1297.58 334.826C1301.32 337.016 1303.61 339.85 1304.38 343.249C1306.07 350.33 1303.44 358.509 1300.89 366.418C1300.66 367.134 1300.43 367.845 1300.21 368.548C1299.58 370.52 1298.95 372.492 1298.31 374.464C1295.58 382.883 1292.76 391.588 1290.9 400.269C1287.52 415.919 1287.33 430.047 1290.3 443.46C1290.82 445.818 1291.29 448.209 1291.79 450.743C1293.68 460.362 1295.64 470.307 1300.32 479.137C1305.76 489.168 1316.62 496.485 1331.75 500.3C1344.43 503.497 1359.73 504.025 1373.72 501.748C1393.74 498.444 1410.88 491.079 1427.44 483.959C1438.91 479.026 1449.9 474.336 1461.38 471.091L1461.38 468.948C1449.54 472.231 1438.31 477.028 1426.56 482.077C1410.12 489.146 1393.11 496.455 1373.36 499.717C1346.2 504.132 1313.05 498.152 1302.24 478.198C1297.71 469.638 1295.77 459.839 1293.91 450.366C1293.41 447.824 1292.94 445.423 1292.41 443.044C1289.5 429.91 1289.69 416.06 1293.01 400.693C1294.86 392.107 1297.66 383.453 1300.37 375.081C1301.01 373.101 1301.65 371.129 1302.28 369.153C1302.5 368.45 1302.73 367.742 1302.96 367.031C1305.59 358.861 1308.31 350.416 1306.49 342.803C1305.59 338.838 1302.97 335.563 1298.71 333.069C1292.16 329.236 1282.7 327.706 1272.86 327.706C1263.92 327.706 1254.66 328.971 1246.97 330.917C1226.31 336.031 1206.55 346.528 1187.43 356.679C1180 360.627 1172.31 364.712 1164.64 368.441C1147.15 376.98 1129.52 383.465 1110.85 390.333C1107.29 391.64 1103.68 392.969 1100 394.34C1092.78 397.028 1085.33 399.861 1078.12 402.596C1063.5 408.152 1048.38 413.896 1033.2 419.202C1004.52 428.971 933.281 452.187 891.359 456.753C872.219 458.673 860.667 455.291 849.496 452.016C842.531 449.975 835.951 448.047 827.871 447.468C821.274 447.061 812.971 447.202 797.925 454.103C790.702 457.425 782.211 462.154 771.961 468.566C757.966 477.332 744.356 486.437 729.945 496.077C725.658 498.945 721.337 501.834 716.969 504.74C667.893 537.172 612.596 579.035 559.117 619.521C541.602 632.78 525.056 645.305 508.982 657.311C480.493 678.431 451.023 700.07 428.48 715.257C410.528 727.349 396.408 735.627 382.751 743.625C377.552 746.673 372.177 749.824 366.784 753.077C340.135 769.233 315.007 787.267 285.318 811.554C256.804 834.843 216.193 873.178 188.134 899.99C156.928 929.752 127.989 958.364 99.6635 987.474C50.7797 1037.66 11.0949 1081.68 -21.6501 1122.07C-37.6604 1141.83 -50.8201 1159.23 -61.9908 1174.79L-61.9908 1178.44C-50.4644 1162.28 -36.7859 1144.11 -19.9484 1123.34C12.7623 1082.99 52.4043 1039.01 101.245 988.876Z" fill="#DEFB48"/>
<path d="M132.588 942.209C161.355 913.193 190.693 884.756 222.28 855.269C266.577 813.835 299.048 784.931 321.552 766.898C351.498 742.863 377.809 724.375 404.355 708.717C410.532 705.09 416.358 701.802 422.53 698.317C435.356 691.073 448.614 683.584 465.113 672.958C488.26 658.045 519.565 635.914 547.145 616.23C562.195 605.407 577.652 594.146 594.022 582.221C645.907 544.426 699.557 505.35 747.279 474.954C750.417 472.944 753.538 470.937 756.641 468.949C772.703 458.631 787.877 448.883 803.394 439.534C813.661 433.349 822.075 428.848 829.127 425.766C844.121 419.229 851.837 419.572 858.446 420.481C865.065 421.462 870.689 423.421 876.647 425.496C888.084 429.478 899.91 433.593 920.567 431.78C965.67 427.421 1040.15 403.849 1061.91 396.725C1077.07 391.628 1092.11 386.081 1106.66 380.714C1112.46 378.58 1118.21 376.458 1123.9 374.387C1128.52 372.711 1133.03 371.104 1137.47 369.526C1155.01 363.285 1171.57 357.387 1187.99 349.547C1196.09 345.689 1204.18 341.437 1212 337.326C1230.48 327.608 1249.6 317.561 1269.41 312.588C1291.14 307.016 1311.53 309.455 1320.45 314.736C1324.43 317.093 1326.84 320.145 1327.62 323.819C1329.25 331.106 1326.41 339.444 1323.67 347.511L1323.02 349.44C1322.18 351.934 1321.32 354.429 1320.45 356.924C1317.47 365.57 1314.39 374.507 1312.29 383.445C1308.78 398.418 1308.1 411.925 1310.22 424.746C1310.76 428.008 1311.49 431.261 1312.2 434.412C1313.06 438.21 1313.95 442.136 1314.5 446.097C1315.14 450.739 1316.24 456.809 1319.11 462.626C1329.52 483.176 1361.88 490.244 1388.48 486.601C1409.29 483.703 1427 476.094 1444.13 468.73C1449.98 466.214 1455.69 463.775 1461.4 461.554L1461.4 459.377C1455.39 461.691 1449.4 464.251 1443.26 466.891C1426.27 474.195 1408.69 481.748 1388.17 484.603C1362.34 488.14 1330.97 481.423 1321.01 461.752C1318.26 456.196 1317.21 450.324 1316.58 445.831C1316.03 441.785 1315.13 437.82 1314.27 433.983C1313.56 430.863 1312.83 427.635 1312.3 424.429C1310.23 411.869 1310.9 398.606 1314.35 383.886C1316.43 375.048 1319.49 366.157 1322.46 357.558C1323.32 355.055 1324.19 352.556 1325.03 350.057L1325.68 348.137C1328.51 339.816 1331.44 331.213 1329.69 323.407C1328.79 319.177 1326.06 315.683 1321.57 313.021C1314.77 308.992 1305.01 307.384 1294.89 307.384C1285.88 307.384 1276.59 308.662 1268.88 310.638C1248.83 315.675 1229.59 325.782 1211 335.56C1203.2 339.662 1195.13 343.901 1187.06 347.742C1170.74 355.535 1154.23 361.416 1136.75 367.636C1132.31 369.218 1127.79 370.825 1123.17 372.501C1117.47 374.572 1111.72 376.694 1105.92 378.828C1091.39 384.186 1076.35 389.729 1061.23 394.813C1039.54 401.916 965.25 425.432 920.379 429.765C900.202 431.54 888.602 427.502 877.38 423.597C871.323 421.488 865.601 419.495 858.772 418.483C851.841 417.527 843.778 417.163 828.265 423.931C821.132 427.052 812.632 431.596 802.288 437.828C786.745 447.194 771.563 456.951 755.484 467.277C752.385 469.27 749.264 471.272 746.126 473.282C698.353 503.713 644.672 542.81 592.762 580.622C576.396 592.543 560.939 603.803 545.897 614.618C518.343 634.285 487.064 656.399 463.956 671.286C447.508 681.879 434.275 689.354 421.476 696.581C415.299 700.071 409.461 703.367 403.271 707.002C376.634 722.716 350.246 741.256 320.219 765.355C297.676 783.418 265.163 812.361 220.827 853.829C189.222 883.333 159.864 911.792 131.079 940.825C81.557 990.72 41.3535 1034.61 8.17127 1075C-7.6975 1094.33 -20.6858 1111.29 -31.6678 1126.43C-34.8743 1131.39 -37.8877 1136.12 -40.7769 1140.65L-41.4969 1140.23C-49.2727 1151.36 -55.9598 1161.45 -61.9738 1170.74L-61.9738 1174.58C-45.7664 1149.42 -24.8395 1118.47 9.82581 1076.25C42.9523 1035.9 83.1131 992.062 132.588 942.209Z" fill="#DEFB48"/>
<path d="M1405.21 469.522C1379.57 473.037 1347.51 465.415 1338.62 444.386C1335.1 435.881 1334.06 426.459 1333.06 417.35C1332.74 414.423 1332.43 411.658 1332.05 408.902C1330.1 395.056 1331.41 380.237 1336.06 363.606C1337.73 357.626 1340.3 351.385 1343.02 344.779C1348.64 331.109 1354.46 316.972 1352.15 304.644C1351.4 300.379 1348.81 296.813 1344.45 294.035C1337.39 289.538 1326.78 287.759 1316.04 287.759C1308.43 287.759 1300.75 288.651 1294.22 290.1C1273.57 294.584 1253.79 304.918 1234.66 314.915C1227.12 318.858 1219.31 322.935 1211.55 326.604C1195.27 334.333 1178.81 340.077 1161.39 346.155C1158.64 347.115 1155.85 348.088 1153.02 349.087C1146.71 351.307 1140.21 353.644 1133.91 355.907C1118.1 361.587 1101.75 367.459 1085.22 372.74C1042.46 386.046 984.077 401.327 948.481 404.311C927.43 405.905 915.985 401.19 904.917 396.629C899.61 394.443 894.595 392.377 888.697 391.061C882.798 389.818 875.46 388.266 860.02 394.31C842.458 401.139 816.927 417.007 794.406 431.007C790.012 433.738 785.725 436.404 781.632 438.92C733.507 468.107 679.063 506.21 626.411 543.058C609.501 554.893 593.525 566.072 578.102 576.715C552.546 594.2 523.466 613.978 501.754 627.468C485.363 637.653 472.169 644.807 459.412 651.73C453.385 655.001 447.697 658.087 441.657 661.486C422.247 672.486 394.749 689.224 354.036 721.292C330.16 740.08 296.926 769.002 252.44 809.719C220.355 839.039 190.59 867.322 161.441 896.183C111.961 945.114 70.0947 990.097 37.0026 1029.89C21.7467 1048.24 9.23853 1064.35 -1.34069 1078.73C-5.20715 1084.68 -8.76501 1090.27 -12.1514 1095.59L-13.0644 1095.06C-25.0625 1112.18 -34.2957 1126.67 -42.5472 1139.62L-41.5099 1140.22C-38.4193 1135.79 -35.1487 1131.2 -31.6852 1126.42C-15.9963 1102.16 4.41199 1072.25 38.61 1031.12C71.6593 991.375 113.483 946.439 162.92 897.551C192.047 868.711 221.796 840.445 253.863 811.143C298.31 770.459 331.506 741.568 355.343 722.814C395.95 690.832 423.362 674.144 442.703 663.184C448.721 659.793 454.405 656.711 460.424 653.445C473.21 646.509 486.426 639.338 502.873 629.123C524.619 615.616 553.724 595.816 579.302 578.319C594.734 567.671 610.71 556.487 627.625 544.652C680.246 507.822 734.664 469.74 782.738 440.583C786.844 438.063 791.131 435.397 795.529 432.662C817.977 418.709 843.418 402.896 860.8 396.136C875.649 390.328 882.64 391.798 888.247 392.985C893.956 394.254 898.89 396.286 904.107 398.438C915.406 403.093 927.091 407.907 948.657 406.269C984.433 403.269 1042.99 387.949 1085.87 374.605C1102.44 369.311 1118.81 363.43 1134.64 357.746C1140.93 355.487 1147.44 353.151 1153.74 350.93C1156.57 349.931 1159.36 348.958 1162.11 348.003C1179.59 341.903 1196.09 336.142 1212.48 328.366C1220.27 324.679 1228.1 320.59 1235.66 316.638C1254.66 306.706 1274.31 296.44 1294.69 292.016C1310.01 288.612 1331.76 288.304 1343.32 295.668C1347.18 298.129 1349.47 301.258 1350.13 304.974C1352.34 316.762 1346.63 330.633 1341.11 344.05C1338.37 350.712 1335.78 357 1334.08 363.087C1329.35 379.98 1328.03 395.047 1330.01 409.154C1330.4 411.885 1330.7 414.637 1331.02 417.547C1332.04 426.794 1333.09 436.348 1336.71 445.11C1341.1 455.492 1350.92 463.439 1365.1 468.094C1377.26 472.09 1391.99 473.315 1405.52 471.464C1425.99 468.613 1443.49 461.06 1460.42 453.752C1460.74 453.61 1461.06 453.473 1461.39 453.332L1461.39 451.171C1460.78 451.433 1460.18 451.694 1459.57 451.956C1442.77 459.217 1425.4 466.71 1405.21 469.522Z" fill="#DEFB48"/>
<path d="M1380.71 450.623C1371.77 447.16 1360.17 440.366 1355.66 427.682C1352.62 418.946 1352.01 409.361 1351.41 400.093C1351.23 397.286 1351.05 394.384 1350.8 391.61C1349.57 378.245 1351.23 364.031 1355.89 348.158C1358.26 340.086 1361.35 331.98 1364.34 324.14C1365.62 320.766 1366.95 317.282 1368.2 313.852L1368.64 312.635C1371.83 303.92 1375.13 294.91 1373.63 286.543C1372.88 281.999 1370.15 278.201 1365.53 275.256C1358.27 270.627 1347.54 268.796 1336.72 268.796C1328.92 268.796 1321.08 269.748 1314.44 271.283C1294.65 275.771 1275.74 285.643 1257.44 295.189C1250.19 298.978 1242.68 302.892 1235.21 306.428C1218.84 314.208 1202.17 319.931 1184.52 325.992C1181.3 327.098 1178.02 328.225 1174.68 329.387C1170 331.016 1165.28 332.675 1160.52 334.351C1144.67 339.923 1128.28 345.684 1111.65 350.828C1068.11 363.893 1008.81 378.532 972.958 380.427C952.545 381.314 941.726 376.106 931.262 371.065C926.371 368.712 921.755 366.487 916.302 364.935C909.8 363.169 902.778 362.016 888.431 367.276C882.614 369.415 875.584 372.685 866.934 377.28C852.073 385.176 836.221 394.581 820.888 403.677C816.863 406.065 812.834 408.452 808.817 410.823C762.441 437.944 710.406 472.969 660.082 506.841C642.263 518.835 625.439 530.16 609.261 540.868C584.451 557.144 556.219 575.55 535.108 588.028C520.088 596.91 507.726 603.323 495.775 609.526C489.062 613.01 482.722 616.298 475.924 620.006C446.647 636.059 419.093 654.41 386.584 679.516C361.533 698.84 326.611 728.559 282.793 767.845C249.941 797.255 219.772 825.357 190.568 853.751C140.463 902.395 98.0989 947.22 64.6553 986.973C49.8195 1004.62 37.6628 1020.1 27.3923 1033.91C22.9258 1040.75 18.9006 1047.1 15.1071 1053.1L13.9968 1052.45C2.65467 1068.63 -6.05139 1082.32 -13.8616 1094.6L-13.0555 1095.06C-9.41626 1089.87 -5.52844 1084.44 -1.33191 1078.74C13.7011 1055.63 33.432 1027.18 66.2241 988.178C99.6249 948.471 141.946 903.698 192.004 855.102C221.191 826.725 251.339 798.639 284.174 769.246C327.956 729.99 362.84 700.306 387.852 681.012C420.276 655.975 447.748 637.675 476.927 621.674C483.704 617.979 490.035 614.695 496.739 611.214C508.716 604.999 521.104 598.569 536.171 589.662C557.317 577.162 585.578 558.738 610.406 542.45C626.592 531.737 643.425 520.408 661.244 508.414C711.538 474.564 763.547 439.555 809.872 412.464C813.892 410.094 817.922 407.706 821.947 405.314C837.258 396.231 853.089 386.839 867.907 378.965C876.472 374.417 883.42 371.181 889.147 369.076C902.92 364.026 909.59 365.111 915.736 366.787C921.009 368.287 925.548 370.473 930.358 372.788C941.049 377.936 952.104 383.26 973.056 382.351C1009.11 380.444 1068.59 365.767 1112.26 352.663C1128.94 347.506 1145.35 341.736 1161.21 336.155C1165.96 334.483 1170.68 332.825 1175.36 331.196C1178.7 330.038 1181.97 328.911 1185.2 327.805C1202.91 321.727 1219.62 315.983 1236.1 308.156C1243.61 304.602 1251.13 300.676 1258.41 296.882C1276.59 287.396 1295.38 277.584 1314.91 273.156C1330.34 269.577 1352.42 269.212 1364.42 276.859C1368.55 279.496 1370.98 282.852 1371.65 286.86C1373.06 294.747 1369.84 303.522 1366.74 312.005L1366.3 313.226C1365.05 316.643 1363.72 320.124 1362.44 323.489C1359.44 331.363 1356.34 339.503 1353.95 347.643C1349.22 363.748 1347.53 378.185 1348.79 391.786C1349.04 394.534 1349.22 397.294 1349.41 400.218C1350.01 409.61 1350.63 419.319 1353.76 428.299C1357.52 438.887 1366.58 447.224 1379.96 452.411C1391.59 456.92 1405.96 458.656 1419.37 457.169C1434.73 455.441 1448.4 450.829 1461.38 445.514L1461.38 443.422C1448.3 448.814 1434.54 453.525 1419.14 455.257C1406.05 456.706 1392.04 455.017 1380.71 450.623Z" fill="#DEFB48"/>
<path d="M1372.55 413.177C1369.44 403.691 1369.21 393.27 1368.97 383.188C1368.91 380.338 1368.85 377.65 1368.73 374.962C1368.1 361.695 1370.29 347.417 1375.4 331.308C1377.87 323.524 1380.96 315.705 1383.94 308.143C1385.41 304.41 1386.93 300.552 1388.36 296.754L1388.64 295.995C1392.01 287.028 1395.49 277.756 1394.12 269.067C1393.45 264.476 1390.81 260.601 1386.28 257.558C1378.82 252.543 1367.4 250.575 1356.17 250.575C1349.69 250.575 1343.28 251.231 1337.74 252.341C1317.14 256.375 1297.43 266.718 1278.36 276.723C1270.78 280.701 1262.93 284.82 1255.15 288.477C1240.02 295.61 1224.7 300.792 1208.48 306.279C1205.35 307.338 1202.17 308.414 1198.93 309.524C1194.53 311.033 1190.1 312.567 1185.64 314.115C1169.88 319.58 1153.58 325.234 1136.99 330.232C1096.81 341.969 1036.61 356.243 999.157 357.846C977.75 358.579 967.098 352.702 956.801 347.022C952.219 344.498 947.894 342.11 942.737 340.344C936.543 338.312 929.8 336.898 915.582 341.857C909.722 343.91 902.474 347.147 894.038 351.485C881.092 358.137 867.483 365.858 854.323 373.32C850.131 375.699 845.925 378.083 841.72 380.449C795.151 406.413 742.783 440.289 692.137 473.051C673.52 485.092 655.933 496.469 639.134 507.125C582.431 543.098 549.588 559.944 514.815 577.78L511.686 579.388C480.982 595.419 451.97 614.156 417.614 640.132C384.86 664.87 341.905 701.751 311.633 728.336C278.331 757.532 247.772 785.455 218.199 813.694C167.446 862.098 124.607 906.768 90.8628 946.457C76.3143 963.582 64.4149 978.581 54.3972 991.942C49.3306 999.666 44.8897 1006.74 40.7274 1013.37L39.4242 1012.62C28.8494 1027.76 20.7222 1040.59 13.4221 1052.12L13.9922 1052.45C18.0859 1046.61 22.5267 1040.44 27.3877 1033.91C41.7776 1011.88 60.8528 984.753 92.3889 947.645C126.085 908.003 168.882 863.384 219.588 815.023C249.139 786.801 279.681 758.895 312.962 729.717C343.208 703.153 386.129 666.306 418.835 641.603C453.098 615.69 482.028 597.01 512.625 581.034L515.746 579.435C550.557 561.577 583.439 544.709 640.223 508.69C657.03 498.025 674.618 486.648 693.243 474.603C743.863 441.862 796.206 408.003 842.719 382.065C846.929 379.699 851.138 377.311 855.33 374.932C868.473 367.474 882.065 359.766 894.976 353.131C903.335 348.836 910.498 345.634 916.268 343.615C929.886 338.865 936.264 340.194 942.098 342.106C947.075 343.812 951.327 346.157 955.828 348.639C966.369 354.447 977.261 360.461 999.242 359.711C1036.89 358.099 1097.28 343.786 1137.57 332.015C1154.21 327.004 1170.53 321.342 1186.31 315.868C1190.77 314.32 1195.2 312.786 1199.6 311.277C1202.84 310.167 1206.02 309.091 1209.15 308.032C1225.42 302.528 1240.8 297.324 1256.02 290.144C1263.84 286.466 1271.71 282.343 1279.31 278.352C1298.25 268.416 1317.83 258.141 1338.15 254.163C1352.88 251.214 1373.88 251.492 1385.16 259.075C1389.23 261.81 1391.6 265.252 1392.19 269.32C1393.49 277.546 1390.09 286.591 1386.81 295.34L1386.53 296.098C1385.11 299.883 1383.59 303.737 1382.12 307.462C1379.13 315.049 1376.03 322.902 1373.54 330.742C1368.37 347.057 1366.15 361.541 1366.78 375.026C1366.91 377.693 1366.97 380.372 1367.03 383.21C1367.26 393.42 1367.5 403.978 1370.7 413.725C1378.11 435.874 1408.14 445.523 1432.65 443.363C1442.88 442.445 1452.36 440.131 1461.4 437.121L1461.4 435.128C1452.29 438.202 1442.75 440.568 1432.46 441.494C1408.7 443.611 1379.64 434.391 1372.55 413.177Z" fill="#DEFB48"/>
<path d="M27.383 1033.91C22.522 1040.45 18.0769 1046.62 13.9875 1052.45L15.0977 1053.1C18.8913 1047.1 22.9121 1040.75 27.383 1033.91Z" fill="#DEFB48"/>
<path d="M27.383 1033.91C22.522 1040.45 18.0769 1046.62 13.9875 1052.45L15.0977 1053.1C18.8913 1047.1 22.9121 1040.75 27.383 1033.91Z" fill="#DEFB48"/>
<path d="M1410.65 421.943C1402.3 418.051 1391.61 410.682 1388.13 397.681C1385.54 387.805 1385.67 377.054 1385.79 366.655C1385.82 363.997 1385.85 361.49 1385.84 358.973C1385.76 345.664 1388.38 331.312 1393.88 315.096C1396.35 307.796 1399.33 300.458 1402.21 293.364C1403.96 289.073 1405.75 284.636 1407.42 280.268L1407.6 279.81C1410.93 271.065 1414.72 261.154 1413.36 252.255C1412.67 247.373 1409.88 243.275 1405.08 240.073C1397.51 235.028 1386.16 233.039 1375 233.039C1368.2 233.039 1361.47 233.776 1355.7 235.007C1336.2 239.079 1317.65 248.903 1299.71 258.402C1292.99 261.96 1286.04 265.642 1279.15 268.96C1262.59 276.959 1246.35 282.48 1227.53 288.871L1221.87 290.796C1218.16 292.065 1214.42 293.351 1210.66 294.645C1193.6 300.518 1175.96 306.592 1157.9 311.817C1116.49 323.438 1059 335.685 1023.91 336.855C1001.38 337.421 990.772 330.759 980.518 324.321C976.69 321.916 973.077 319.649 968.91 317.788C962.875 315.191 956.784 313.369 943.341 317.441C936.941 319.391 929.195 322.636 919.662 327.364C905.731 334.27 891.122 342.252 876.998 349.967C873.38 351.943 869.754 353.924 866.123 355.896C821.817 379.767 772.166 410.673 724.153 440.559C705.438 452.21 687.76 463.209 670.909 473.476C617.379 506.118 585.821 521.661 552.412 538.121C549.24 539.686 546.055 541.254 542.827 542.849C514.292 557.213 485.821 574.951 453.221 598.673C417.017 624.984 370.98 663.584 338.736 691.335C305.053 720.274 274.104 748.029 244.119 776.179C208.803 809.288 157.806 859.128 115.416 908.547C101.082 925.265 89.3964 939.873 79.6017 952.857C73.7419 961.743 68.8767 969.583 64.5131 976.613L63.0171 975.765C53.308 989.765 45.8365 1001.67 39.0852 1012.42L39.4196 1012.61C43.9248 1006.16 48.8713 999.302 54.3925 991.938C68.1694 970.929 86.6016 945.039 116.895 909.713C159.233 860.358 210.178 810.565 245.461 777.49C275.424 749.354 306.351 721.62 340.014 692.698C372.231 664.969 418.226 626.402 454.379 600.13C486.892 576.473 515.278 558.786 543.71 544.474C546.93 542.883 550.114 541.314 553.287 539.75C586.739 523.272 618.335 507.708 671.938 475.023C688.797 464.752 706.479 453.745 725.199 442.094C773.187 412.225 822.812 381.336 867.066 357.49C870.701 355.514 874.328 353.534 877.945 351.558C892.052 343.85 906.644 335.877 920.541 328.993C929.976 324.312 937.627 321.106 943.92 319.19C957.757 314.998 963.505 317.471 968.109 319.451C972.138 321.252 975.696 323.489 979.464 325.851C989.473 332.14 1000.82 339.26 1023.96 338.685C1059.23 337.506 1116.91 325.225 1158.44 313.57C1176.56 308.328 1194.23 302.245 1211.31 296.364C1215.07 295.07 1218.8 293.784 1222.52 292.515L1228.17 290.594C1247.04 284.182 1263.34 278.644 1280.01 270.593C1286.92 267.263 1293.89 263.572 1300.63 260.001C1318.46 250.567 1336.88 240.806 1356.11 236.79C1374.26 232.919 1393.95 234.882 1403.98 241.569C1408.33 244.463 1410.84 248.14 1411.46 252.504C1412.75 260.953 1409.21 270.216 1405.79 279.175L1405.62 279.634C1403.96 283.984 1402.16 288.413 1400.42 292.695C1397.53 299.815 1394.54 307.175 1392.05 314.526C1386.49 330.931 1383.83 345.471 1383.92 358.978C1383.93 361.472 1383.9 363.976 1383.87 366.625C1383.75 377.14 1383.62 388.01 1386.27 398.122C1389.93 411.809 1401.09 419.521 1409.8 423.58C1420.9 428.75 1434.7 431.013 1447.67 429.783C1452.39 429.329 1456.94 428.553 1461.37 427.558L1461.37 425.676C1456.88 426.701 1452.26 427.498 1447.48 427.957C1434.87 429.166 1421.44 426.971 1410.65 421.943Z" fill="#DEFB48"/>
<path d="M54.3927 991.946C48.8674 999.311 43.9208 1006.18 39.4199 1012.62L40.723 1013.37C44.8852 1006.74 49.326 999.671 54.3927 991.946Z" fill="#DEFB48"/>
<path d="M54.3927 991.946C48.8674 999.311 43.9208 1006.18 39.4199 1012.62L40.723 1013.37C44.8852 1006.74 49.326 999.671 54.3927 991.946Z" fill="#DEFB48"/>
<path d="M1402.75 382.854C1401.47 376.745 1401.6 370.448 1401.85 365.643C1402.07 361.545 1401.99 357.46 1401.92 353.508C1401.86 350.272 1401.79 346.928 1401.89 343.636C1402.31 330.296 1405.28 316.297 1411.23 299.579C1413.74 292.532 1416.68 285.446 1419.51 278.596C1421.19 274.541 1422.93 270.349 1424.55 266.217L1424.91 265.321C1428.57 256.045 1432.71 245.53 1431.37 236.074C1430.71 231.029 1427.89 226.794 1422.98 223.476C1415.3 218.28 1403.8 216.236 1392.61 216.236C1386.17 216.236 1379.83 216.913 1374.38 218.057C1354.74 222.1 1336.15 232.079 1318.17 241.732C1311.14 245.504 1303.87 249.405 1296.64 252.898C1281.28 260.344 1265.44 265.724 1248.67 271.416C1245.88 272.368 1243.04 273.328 1240.15 274.318C1237.82 275.12 1235.47 275.926 1233.12 276.736C1217.17 282.227 1200.67 287.911 1183.72 292.845C1124.62 309.481 1070.14 317.222 1044.53 317.381C1022.85 317.278 1012.94 310.222 1003.35 303.403C1000.06 301.058 996.949 298.842 993.404 296.93L993.242 296.844C988.329 294.277 982.757 291.362 969.477 294.8C963.377 296.386 955.966 299.232 946.818 303.493C931.344 310.703 914.721 319.481 898.646 327.969C895.401 329.683 892.156 331.398 888.924 333.096C846.916 354.987 800.06 383.077 754.742 410.241C734.553 422.341 715.482 433.774 697.47 444.28C648.955 472.601 619.455 486.515 588.218 501.244C582.903 503.751 577.562 506.268 572.084 508.878C543.287 522.861 514.254 540.5 480.72 564.398C443.205 591.09 396.49 629.485 363.912 656.991C329.757 685.775 298.426 713.381 268.133 741.385C232.384 774.374 180.804 824.064 138.101 873.466C123.72 890.106 111.996 904.728 102.223 917.678C96.0242 927.074 91.0089 935.261 86.5466 942.557C98.999 924.442 115.571 902.34 139.541 874.602C182.188 825.268 233.717 775.626 269.432 742.671C299.708 714.684 331.017 687.096 365.151 658.333C397.707 630.848 444.379 592.492 481.843 565.829C515.291 541.996 544.234 524.404 572.928 510.473C578.398 507.867 583.739 505.35 589.05 502.843C620.325 488.097 649.863 474.166 698.451 445.802C716.472 435.291 735.547 423.855 755.745 411.749C801.037 384.598 847.868 356.526 889.833 334.66C893.069 332.958 896.314 331.244 899.563 329.529C915.621 321.05 932.223 312.284 947.65 305.096C956.694 300.882 963.999 298.074 969.983 296.518C982.538 293.269 987.536 295.88 992.363 298.404L992.517 298.486C995.951 300.338 999.015 302.52 1002.26 304.83C1011.63 311.5 1022.25 319.057 1044.56 319.164C1081.47 318.941 1141.32 306.643 1184.27 294.555C1201.27 289.609 1217.79 283.92 1233.77 278.416C1236.13 277.606 1238.47 276.8 1240.8 275.999C1243.68 275.009 1246.52 274.048 1249.32 273.097C1266.14 267.387 1282.04 261.99 1297.5 254.493C1304.77 250.982 1312.05 247.073 1319.1 243.292C1336.96 233.703 1355.42 223.789 1374.79 219.802C1392.55 216.077 1411.93 218.186 1421.92 224.933C1426.38 227.951 1428.94 231.77 1429.53 236.305C1430.81 245.32 1426.75 255.608 1423.17 264.687L1422.82 265.582C1421.2 269.698 1419.47 273.885 1417.79 277.932C1414.94 284.803 1412 291.91 1409.47 298.996C1403.46 315.889 1400.45 330.052 1400.03 343.576C1399.93 346.911 1400 350.28 1400.06 353.534C1400.13 357.456 1400.21 361.511 1399.99 365.549C1399.73 370.457 1399.6 376.896 1400.92 383.201C1406.09 407.437 1434.9 418.655 1459.38 416.91C1460.06 416.863 1460.72 416.786 1461.38 416.722L1461.38 414.926C1460.67 414.994 1459.96 415.076 1459.24 415.127C1427.5 417.399 1406.45 400.189 1402.75 382.854Z" fill="#DEFB48"/>
<path d="M86.208 943.045L84.6649 942.183C84.9307 941.75 85.2007 941.304 85.4708 940.867C76.0747 954.498 69.0019 965.888 62.9065 975.713L63.0179 975.777C67.9132 968.717 73.3742 961.121 79.6025 952.87C81.6687 949.727 83.8676 946.453 86.208 943.045Z" fill="#DEFB48"/>
<path d="M79.5982 952.865C73.3698 961.116 67.9088 968.712 63.0136 975.772L64.5096 976.621C68.8733 969.591 73.7385 961.751 79.5982 952.865Z" fill="#DEFB48"/>
<path d="M79.5982 952.865C73.3698 961.116 67.9088 968.712 63.0136 975.772L64.5096 976.621C68.8733 969.591 73.7385 961.751 79.5982 952.865Z" fill="#DEFB48"/>
<path d="M105.488 912.773L104.159 912.044C105.008 910.625 105.882 909.168 106.783 907.676C97.8752 920.647 91.2096 931.48 85.4742 940.863C90.3651 933.769 95.8777 926.074 102.222 917.673C103.272 916.078 104.361 914.445 105.488 912.773Z" fill="#DEFB48"/>
<path d="M86.2332 943.057C86.3361 942.89 86.4389 942.719 86.5418 942.552C86.4303 942.714 86.3189 942.877 86.2074 943.04L86.2332 943.057Z" fill="#DEFB48"/>
<path d="M1416.33 368.254C1415.65 363.838 1415.54 359.098 1415.99 352.878C1416.29 348.703 1416.38 344.523 1416.46 340.481C1416.53 336.572 1416.62 332.525 1416.89 328.547C1417.78 315.786 1420.88 302.464 1426.64 286.616C1429.26 279.419 1432.3 272.188 1435.24 265.197C1437.21 260.533 1439.24 255.715 1441.11 250.956L1441.3 250.489C1445.05 241.003 1449.31 230.248 1447.98 220.548C1447.33 215.352 1444.46 210.98 1439.45 207.564C1431.67 202.249 1420.32 200.135 1409.2 200.135C1403.11 200.135 1397.09 200.77 1391.77 201.858C1372.25 205.776 1353.85 215.846 1336.05 225.585C1329.39 229.224 1322.51 232.987 1315.68 236.365C1300.1 244.111 1284.6 249.443 1266.65 255.625C1264.79 256.263 1262.9 256.911 1261 257.566L1255.09 259.615C1238.18 265.479 1220.7 271.541 1202.6 276.689C1154.88 289.831 1099.23 299.184 1067.25 299.429C1043.81 299.407 1033.96 291.559 1024.43 283.967C1021.21 281.404 1018.17 278.986 1014.65 276.881C1009.21 273.739 1003.66 271.408 990.837 274.691C975.795 278.506 952.811 290.251 932.531 300.616C928.446 302.704 924.464 304.736 920.683 306.639C877.882 327.81 829.59 355.681 782.888 382.639C762.192 394.586 742.645 405.868 724.29 416.147C699.823 429.697 674.485 443.525 654.93 452.896C643.579 458.34 633.617 462.566 623.985 466.66C615.515 470.256 607.512 473.656 598.6 477.826C572.564 490.077 544.105 506.816 511.601 528.999C483.455 548.164 444.709 577.981 396.438 617.623C358.386 648.808 323.271 679.127 289.077 710.311C253.092 743.074 201.212 792.459 158.428 841.686C143.99 858.3 132.331 872.806 122.686 885.601C116.805 894.517 112.047 902.315 107.851 909.289C119.917 891.662 136.12 870.08 159.825 842.8C202.549 793.642 254.378 744.304 290.329 711.576C324.497 680.413 359.591 650.116 397.617 618.948C445.849 579.34 484.552 549.553 512.651 530.422C545.074 508.291 573.451 491.599 599.398 479.395C608.279 475.242 616.265 471.851 624.723 468.259C634.376 464.161 644.355 459.921 655.744 454.46C675.338 445.073 700.706 431.227 725.203 417.66C743.567 407.373 763.122 396.086 783.822 384.14C830.503 357.199 878.769 329.34 921.519 308.195C925.312 306.287 929.295 304.251 933.384 302.164C953.578 291.846 976.46 280.152 991.304 276.389C1004.43 273.028 1009.57 275.998 1013.7 278.378C1017.1 280.414 1020.1 282.797 1023.26 285.318C1032.59 292.746 1043.16 301.165 1067.26 301.182C1099.39 300.933 1155.25 291.554 1203.11 278.369C1221.27 273.204 1238.77 267.134 1255.71 261.261L1261.62 259.213C1263.52 258.557 1265.4 257.909 1267.26 257.271C1285.28 251.072 1300.83 245.718 1316.52 237.921C1323.38 234.526 1330.28 230.754 1336.95 227.102C1354.63 217.432 1372.91 207.431 1392.16 203.564C1409.51 200.015 1428.53 202.244 1438.4 208.987C1442.97 212.112 1445.59 216.073 1446.18 220.775C1447.45 230.051 1443.28 240.587 1439.6 249.885L1439.42 250.352C1437.54 255.089 1435.52 259.903 1433.56 264.558C1430.61 271.57 1427.56 278.819 1424.93 286.055C1419.11 302.057 1415.98 315.525 1415.08 328.445C1414.81 332.47 1414.72 336.533 1414.64 340.464C1414.56 344.485 1414.48 348.643 1414.18 352.771C1413.73 359.119 1413.84 363.976 1414.54 368.519C1416.32 379.827 1423.5 389.708 1434.76 396.339C1442.46 400.87 1451.79 403.661 1461.39 404.449L1461.39 402.696C1440.23 400.853 1419.56 388.799 1416.33 368.254Z" fill="#DEFB48"/>
<path d="M86.2074 943.045C86.3188 942.882 86.4303 942.719 86.5417 942.556C91.004 935.26 96.0193 927.073 102.218 917.677C95.8779 926.079 90.361 933.773 85.4701 940.867C85.2 941.309 84.93 941.75 84.6643 942.183L86.2074 943.045Z" fill="#DEFB48"/>
<path d="M86.2074 943.045C86.3188 942.882 86.4303 942.719 86.5417 942.556C91.004 935.26 96.0193 927.073 102.218 917.677C95.8779 926.079 90.361 933.773 85.4701 940.867C85.2 941.309 84.93 941.75 84.6643 942.183L86.2074 943.045Z" fill="#DEFB48"/>
<path d="M125.798 880.941L124.383 880.182C124.773 879.518 125.168 878.845 125.571 878.159C117.812 889.548 111.875 899.21 106.778 907.676C111.416 900.925 116.659 893.595 122.69 885.596C123.697 884.079 124.731 882.527 125.798 880.941Z" fill="#DEFB48"/>
<path d="M1455.02 191.772C1447.22 186.409 1435.87 184.274 1424.83 184.274C1418.96 184.274 1413.17 184.879 1408.04 185.925C1388.44 189.851 1370.01 200.195 1352.18 210.199C1345.2 214.117 1337.98 218.168 1330.82 221.764C1316.54 228.949 1301.53 234.195 1285.63 239.747C1283.78 240.394 1281.91 241.045 1280.02 241.71L1274.49 243.66C1257.8 249.537 1240.54 255.615 1222.58 260.733C1174.03 274.107 1117.44 283.079 1084.96 282.569C1062.14 281.956 1052.8 273.649 1043.76 265.62C1041.13 263.288 1038.65 261.081 1035.86 259.075C1031.72 256.185 1026.56 252.585 1013.44 255.358C1007.6 256.601 1000.16 259.16 991.347 262.958C978.508 268.488 964.796 275.209 951.533 281.708C947.654 283.606 943.77 285.51 939.904 287.387C899.242 306.921 853.705 332.306 809.67 356.859C787.495 369.222 766.556 380.898 747.035 391.379C724.56 403.304 698.965 416.682 679.543 425.461C669.213 430.138 659.971 433.859 651.038 437.463C641.95 441.128 633.364 444.588 623.659 448.986C597.387 460.958 568.354 477.667 534.902 500.069C506.289 519.182 465.649 549.895 417.374 588.89C378.803 619.985 343.268 650.213 308.735 681.312C272.325 714.036 219.879 763.404 176.8 812.751C161.124 830.716 148.821 846.117 138.881 859.496C134.123 867.014 130.201 873.658 126.673 879.668C138.431 862.363 154.411 841.051 178.158 813.835C221.178 764.553 273.573 715.24 309.948 682.547C344.459 651.469 379.969 621.258 418.518 590.185C466.755 551.224 507.348 520.541 535.922 501.457C569.297 479.107 598.249 462.446 624.427 450.516C634.089 446.135 642.662 442.68 651.732 439.024C660.687 435.415 669.941 431.685 680.306 426.991C699.771 418.191 725.396 404.8 747.905 392.858C767.443 382.364 788.391 370.688 810.57 358.321C854.584 333.785 900.095 308.408 940.71 288.9C944.585 287.019 948.468 285.115 952.348 283.216C965.593 276.727 979.284 270.018 992.08 264.506C1000.79 260.755 1008.11 258.234 1013.83 257.017C1026.17 254.406 1030.77 257.617 1034.82 260.442C1037.53 262.388 1039.98 264.566 1042.57 266.867C1051.41 274.725 1061.44 283.637 1084.93 284.267C1117.56 284.803 1174.38 275.784 1223.09 262.362C1241.11 257.227 1258.39 251.14 1275.11 245.255L1280.65 243.304C1282.53 242.644 1284.4 241.988 1286.25 241.341C1302.2 235.769 1317.27 230.505 1331.65 223.265C1338.86 219.651 1346.09 215.588 1353.09 211.661C1370.79 201.725 1389.1 191.454 1408.42 187.583C1425.44 184.116 1444.18 186.405 1454 193.152C1457.83 195.779 1460.29 198.999 1461.4 202.732L1461.4 198.369C1459.91 195.9 1457.8 193.683 1455.02 191.772Z" fill="#DEFB48"/>
<path d="M105.695 912.889C106.398 911.714 107.122 910.51 107.859 909.284C107.049 910.467 106.26 911.628 105.489 912.773L105.695 912.889Z" fill="#DEFB48"/>
<path d="M105.489 912.774C106.26 911.625 107.053 910.463 107.859 909.284C112.056 902.31 116.814 894.513 122.695 885.597C116.664 893.596 111.417 900.926 106.783 907.677C105.887 909.169 105.013 910.626 104.16 912.045L105.489 912.774Z" fill="#DEFB48"/>
<path d="M105.489 912.774C106.26 911.625 107.053 910.463 107.859 909.284C112.056 902.31 116.814 894.513 122.695 885.597C116.664 893.596 111.417 900.926 106.783 907.677C105.887 909.169 105.013 910.626 104.16 912.045L105.489 912.774Z" fill="#DEFB48"/>
<path d="M1425.83 168.221C1406.57 172.083 1388.62 182.422 1371.27 192.423C1365.13 195.963 1358.77 199.624 1352.48 202.925C1336.62 211.275 1320.56 217.028 1301.96 223.689L1297.52 225.283C1279.54 231.739 1260.95 238.413 1241.42 243.853C1195.19 256.314 1140.09 264.54 1107.43 263.862C1083.53 263.138 1074.37 254.218 1065.52 245.589C1063.29 243.415 1061.18 241.367 1058.84 239.438L1058.53 239.189C1054.47 235.935 1049.88 232.249 1037.83 234.225C1031.7 235.241 1023.56 237.856 1013.65 242.001C999.92 247.736 985.286 254.663 971.132 261.359C967.724 262.971 964.312 264.587 960.908 266.186C922.445 284.086 879.674 307.062 838.313 329.284C814.583 342.032 792.164 354.073 771.426 364.699C749.367 375.865 726.46 387.268 708.358 395.069C697.911 399.579 688.562 403.132 679.526 406.574C670.194 410.124 660.55 413.793 649.979 418.422C623.72 429.987 593.204 447.129 559.276 469.381C532.643 486.81 496.019 513.764 450.419 549.496C411.18 580.188 374.508 610.584 338.309 642.412C298.615 677.231 241.698 729.69 195.961 781.87C177.662 802.75 164.103 820.042 153.597 834.663C150.566 839.7 147.733 844.595 144.96 849.452L143.776 848.83C136.164 860.237 130.475 869.809 125.576 878.159C129.502 872.398 133.892 866.195 138.877 859.482C150.772 840.69 167.906 816.45 197.281 782.925C242.954 730.817 299.815 678.41 339.47 643.625C375.649 611.814 412.294 581.44 451.508 550.77C497.069 515.067 533.655 488.139 560.245 470.74C594.095 448.54 624.526 431.441 650.695 419.918C661.223 415.31 670.422 411.808 680.161 408.105C689.218 404.658 698.58 401.096 709.065 396.574C727.21 388.759 750.147 377.336 772.236 366.156C792.995 355.521 815.418 343.476 839.157 330.724C880.497 308.515 923.247 285.552 961.667 267.673C965.075 266.07 968.487 264.454 971.899 262.842C986.032 256.155 1000.65 249.237 1014.34 243.518C1024.13 239.425 1032.14 236.849 1038.13 235.854C1049.39 234.007 1053.48 237.286 1057.42 240.454L1057.73 240.698C1060.01 242.575 1062.09 244.603 1064.29 246.746C1072.96 255.191 1082.79 264.767 1107.38 265.513C1140.2 266.194 1195.51 257.938 1241.89 245.439C1261.49 239.978 1280.11 233.295 1298.12 226.831L1302.56 225.236C1321.22 218.553 1337.34 212.78 1353.31 204.374C1359.63 201.06 1366 197.387 1372.16 193.837C1389.38 183.91 1407.2 173.643 1426.18 169.837C1436.81 167.668 1450.43 167.505 1461.38 170.951L1461.38 169.241C1455.37 167.428 1448.65 166.631 1442.05 166.631C1436.37 166.631 1430.78 167.214 1425.83 168.221Z" fill="#DEFB48"/>
<path d="M125.888 880.989C126.145 880.552 126.407 880.106 126.668 879.66C126.377 880.093 126.09 880.517 125.802 880.942L125.888 880.989Z" fill="#DEFB48"/>
<path d="M125.798 880.941C126.085 880.517 126.372 880.093 126.664 879.66C130.192 873.65 134.114 867.001 138.872 859.487C133.887 866.2 129.493 872.403 125.571 878.164C125.168 878.845 124.774 879.518 124.383 880.187L125.798 880.941Z" fill="#DEFB48"/>
<path d="M125.798 880.941C126.085 880.517 126.372 880.093 126.664 879.66C130.192 873.65 134.114 867.001 138.872 859.487C133.887 866.2 129.493 872.403 125.571 878.164C125.168 878.845 124.774 879.518 124.383 880.187L125.798 880.941Z" fill="#DEFB48"/>
<path d="M1441.79 150.467C1423.26 154.633 1406.01 164.891 1389.34 174.806C1382.97 178.591 1376.4 182.5 1369.87 186.002C1354.95 194.022 1339.74 199.586 1322.14 206.029L1318.74 207.276C1301.3 213.663 1283.27 220.273 1264.21 225.64C1218.57 238.067 1161.39 246.177 1128.24 244.921C1104.58 243.78 1095.88 234.44 1087.47 225.408C1085.2 222.965 1083.05 220.655 1080.61 218.498C1076.82 215.258 1072.12 211.22 1059.43 213.355C1054.44 214.199 1048.11 216.068 1040.6 218.91C1027.14 223.998 1012.12 230.874 997.588 237.522C993.61 239.344 989.654 241.153 985.753 242.919C948.529 259.555 907.065 280.975 866.96 301.696C842.334 314.418 819.071 326.438 797.659 336.91C776.398 347.176 752.123 358.681 733.297 366.213C724.136 369.882 715.748 372.879 707.629 375.78C698.31 379.111 688.678 382.553 678.112 386.943C605.643 416.846 482.598 503.267 356.998 612.475C280.624 678.574 234.48 727.955 213.767 751.509C192.673 775.501 178.172 794.388 166.954 810.771C165.286 813.694 163.683 816.558 162.123 819.378L161.433 819.027C154.544 829.584 148.899 839.203 143.485 848.685L143.772 848.835C146.73 844.403 149.979 839.692 153.593 834.668C166.679 812.918 183.466 788.468 215.045 752.542C263.23 697.743 325.368 642.014 358.121 613.667C483.593 504.57 606.458 418.26 678.772 388.417C689.3 384.045 698.486 380.761 708.212 377.285C716.339 374.379 724.745 371.374 733.935 367.696C752.813 360.143 777.118 348.621 798.409 338.342C819.842 327.857 843.114 315.837 867.749 303.106C907.828 282.402 949.274 260.987 986.456 244.372C990.365 242.602 994.326 240.793 998.304 238.971C1012.81 232.335 1027.8 225.468 1041.21 220.402C1048.61 217.598 1054.84 215.759 1059.71 214.936C1071.6 212.935 1075.79 216.527 1079.47 219.686C1081.85 221.778 1083.97 224.058 1086.22 226.476C1094.45 235.323 1103.79 245.349 1128.16 246.524C1161.46 247.78 1218.87 239.648 1264.67 227.183C1283.81 221.795 1301.86 215.176 1319.33 208.777L1322.73 207.529C1340.4 201.065 1355.66 195.48 1370.68 187.404C1377.24 183.885 1383.84 179.962 1390.21 176.173C1406.77 166.323 1423.9 156.138 1442.17 152.031C1448.55 150.574 1455.12 149.974 1461.38 150.158L1461.38 148.606C1460.69 148.589 1459.99 148.555 1459.3 148.555C1453.14 148.555 1447.08 149.262 1441.79 150.467Z" fill="#DEFB48"/>
<path d="M153.597 834.663C149.983 839.691 146.734 844.398 143.776 848.83L144.959 849.452C147.728 844.595 150.562 839.7 153.597 834.663Z" fill="#DEFB48"/>
<path d="M153.597 834.663C149.983 839.691 146.734 844.398 143.776 848.83L144.959 849.452C147.728 844.595 150.562 839.7 153.597 834.663Z" fill="#DEFB48"/>
<path d="M1407.8 156.652C1401.8 160.347 1395.59 164.166 1389.44 167.596C1374.03 176.216 1358.14 182.196 1339.74 189.118L1337.81 189.843C1320.09 196.513 1302.64 202.93 1283.95 208.121C1241.09 219.656 1185.46 227.187 1151.68 226.034C1126.08 224.932 1117.33 214.718 1108.87 204.841C1107.12 202.792 1105.46 200.859 1103.64 198.986L1103.29 198.634C1099.66 194.991 1095.55 190.863 1084.19 191.99C1078.36 192.578 1070.57 194.691 1061.05 198.27C1048.32 203.05 1034.54 209.102 1021.21 214.953C1017.44 216.608 1013.67 218.267 1009.93 219.892C973.887 235.37 933.709 255.324 894.856 274.622C869.325 287.306 845.205 299.283 823.082 309.605C787.559 326.176 762.504 335.191 738.268 343.91C727.728 347.703 716.831 351.626 705.21 356.114C675.672 367.769 641.238 386.012 602.873 410.338C573.275 429.079 534.645 456.483 488.063 491.783C447.675 522.346 410.386 552.326 374.062 583.438C340.944 611.733 278.163 667.398 229.781 722.296C205.523 749.829 189.989 770.854 178.471 788.66C178.12 789.316 177.772 789.968 177.425 790.615L177.266 790.538C170.751 800.736 165.526 809.892 160.686 818.636L161.432 819.014C163.185 816.326 165.02 813.578 166.953 810.758C179.667 788.48 196.479 762.504 231.024 723.295C279.342 668.47 342.058 612.861 375.146 584.595C411.445 553.505 448.712 523.542 489.07 493C535.618 457.726 574.209 430.348 603.769 411.633C642.048 387.358 676.388 369.162 705.823 357.55C717.419 353.066 728.306 349.148 738.838 345.359C763.109 336.627 788.202 327.595 823.789 310.993C845.934 300.663 870.058 288.678 895.602 275.994C934.434 256.704 974.59 236.759 1010.59 221.298C1014.34 219.669 1018.12 218.01 1021.89 216.355C1035.19 210.512 1048.95 204.468 1061.63 199.706C1071.02 196.178 1078.67 194.095 1084.36 193.525C1094.92 192.475 1098.57 196.148 1102.11 199.693L1102.45 200.04C1104.23 201.871 1105.87 203.787 1107.61 205.814C1115.89 215.485 1125.27 226.446 1151.61 227.577C1185.54 228.739 1241.38 221.182 1284.39 209.608C1303.16 204.396 1320.64 197.966 1338.39 191.283L1340.33 190.554C1358.79 183.61 1374.73 177.613 1390.25 168.929C1396.43 165.478 1402.66 161.65 1408.67 157.947C1424.94 147.933 1441.77 137.577 1459.83 133.5C1460.34 133.38 1460.86 133.286 1461.37 133.183L1461.37 131.606C1460.73 131.734 1460.09 131.841 1459.45 131.987C1441.13 136.137 1424.19 146.566 1407.8 156.652Z" fill="#DEFB48"/>
<path d="M166.953 810.77C165.02 813.591 163.185 816.339 161.432 819.026L162.122 819.378C163.683 816.557 165.286 813.694 166.953 810.77Z" fill="#DEFB48"/>
<path d="M166.953 810.77C165.02 813.591 163.185 816.339 161.432 819.026L162.122 819.378C163.683 816.557 165.286 813.694 166.953 810.77Z" fill="#DEFB48"/>
<path d="M1409.11 148.731C1394.32 157.407 1378.63 163.738 1359.65 171.115C1342.32 177.85 1325.27 184.326 1307.2 189.496C1265.05 201.185 1208.72 208.567 1173.26 207.049C1147 205.682 1138.43 194.854 1130.15 184.386C1128.76 182.637 1127.33 180.829 1125.85 179.127L1125.4 178.621C1121.82 174.583 1117.76 170.005 1105.83 171.03C1092.02 172.174 1068.9 182.025 1048.51 190.713C1044.69 192.338 1040.96 193.928 1037.41 195.412C1001.46 210.11 961.243 229.288 922.355 247.832C894.313 261.206 867.822 273.838 843.83 284.396C812.088 298.344 788.971 306.112 766.616 313.626C754.245 317.784 741.459 322.079 727.424 327.36C698.602 338.423 665.269 355.557 628.358 378.284C595.292 398.607 551.946 428.664 503.011 465.207C465.842 492.924 431.383 520.117 397.673 548.34C362.129 578.003 294.873 636.428 243.765 694.447C204.47 739.044 188.751 766.079 176.02 789.947L177.267 790.556C177.666 789.934 178.065 789.308 178.472 788.678C190.989 765.359 206.853 738.684 244.969 695.424C296.013 637.483 363.201 579.113 398.71 549.476C432.403 521.27 466.837 494.098 503.98 466.398C552.876 429.881 596.179 399.85 629.207 379.553C666.037 356.877 699.279 339.787 728.003 328.766C742.003 323.498 754.781 319.207 767.135 315.053C789.524 307.53 812.68 299.746 844.486 285.772C868.503 275.206 895.003 262.569 923.054 249.186C961.924 230.647 1002.11 211.482 1038.03 196.8C1041.59 195.309 1045.32 193.722 1049.14 192.094C1069.42 183.452 1092.41 173.657 1105.96 172.538C1117.08 171.587 1120.69 175.663 1124.19 179.603L1124.64 180.104C1126.09 181.772 1127.44 183.486 1128.88 185.304C1136.99 195.549 1146.17 207.157 1173.17 208.563C1208.79 210.089 1265.34 202.681 1307.63 190.949C1325.78 185.758 1342.87 179.268 1360.23 172.517C1379.28 165.114 1395.04 158.761 1409.93 150.026C1415.61 146.703 1421.35 143.034 1426.9 139.489C1438.06 132.361 1449.47 125.078 1461.38 119.943L1461.38 118.279C1449.12 123.47 1437.44 130.933 1426.03 138.229C1420.49 141.765 1414.77 145.426 1409.11 148.731Z" fill="#DEFB48"/>
<path d="M178.476 788.669C178.068 789.299 177.665 789.925 177.271 790.546L177.43 790.623C177.777 789.976 178.124 789.325 178.476 788.669Z" fill="#DEFB48"/>
<path d="M178.476 788.669C178.068 789.299 177.665 789.925 177.271 790.546L177.43 790.623C177.777 789.976 178.124 789.325 178.476 788.669Z" fill="#DEFB48"/>
<path d="M1426.32 130.865C1412.5 139.279 1398.26 145.263 1381.07 152.216C1363.53 159.31 1346.23 166.13 1327.32 171.557C1284.85 183.349 1226.69 190.336 1192.05 187.807C1167.01 185.702 1158.92 174.634 1151.08 163.931C1149.76 162.113 1148.38 160.236 1146.96 158.461L1146.74 158.204C1143.21 153.922 1139.22 149.07 1127.06 149.983C1122.38 150.338 1116.45 151.637 1109.43 153.836C1095.29 158.251 1078.78 165.067 1062.82 171.655C1058.81 173.31 1054.84 174.952 1050.96 176.529C1018.77 189.445 983.228 205.763 948.862 221.542C920.571 234.53 893.853 246.799 869.578 256.962C838.128 270.139 814.904 277.417 792.446 284.456C779.548 288.498 766.213 292.677 751.544 297.911C723.394 308.165 690.178 324.565 652.816 346.658C607.649 373.286 553.733 411.659 516.453 439.157C478.555 467.058 443.911 494.055 410.549 521.686C374.735 551.255 307.033 609.518 256.011 667.489C216.531 712.335 200.993 740 189.53 762.414L190.902 763.057C202.326 740.72 217.809 713.145 257.177 668.428C308.131 610.534 375.764 552.331 411.544 522.788C444.884 495.174 479.503 468.194 517.379 440.31C554.629 412.829 608.502 374.491 653.614 347.897C690.894 325.855 724.024 309.494 752.08 299.274C766.714 294.053 780.037 289.878 792.922 285.84C815.418 278.789 838.677 271.502 870.191 258.295C894.492 248.119 921.223 235.846 949.522 222.854C983.875 207.084 1019.39 190.773 1051.55 177.871C1055.44 176.289 1059.41 174.647 1063.42 172.993C1079.35 166.413 1095.83 159.615 1109.9 155.221C1116.81 153.056 1122.62 151.783 1127.17 151.436C1138.52 150.587 1142.09 154.916 1145.53 159.104L1145.74 159.357C1147.14 161.098 1148.44 162.876 1149.82 164.763C1157.48 175.23 1166.15 187.096 1191.91 189.26C1226.72 191.798 1285.11 184.789 1327.74 172.954C1346.74 167.502 1364.08 160.669 1381.65 153.558C1398.9 146.579 1413.21 140.565 1427.12 132.091C1432.9 128.584 1438.72 124.701 1444.34 120.946C1449.93 117.208 1455.6 113.431 1461.37 109.925L1461.37 108.189C1455.29 111.849 1449.34 115.823 1443.47 119.745C1437.87 123.5 1432.07 127.375 1426.32 130.865Z" fill="#DEFB48"/>
<path d="M1443.17 112.753C1430.09 121.061 1416.2 127.143 1399.4 134.229C1384.17 140.654 1366.31 147.976 1347.14 153.514C1305.86 165.075 1248.23 171.638 1213.1 168.783C1187.65 166.451 1179.69 154.95 1171.99 143.827C1170.58 141.803 1169.14 139.707 1167.61 137.74L1167.52 137.62C1164.18 133.419 1160.4 128.665 1149.37 128.897C1135.25 129.137 1110.32 139.098 1088.33 147.89C1084.47 149.433 1080.71 150.934 1077.13 152.335C1045.04 164.603 1009.53 180.245 975.178 195.377C944.242 209.003 915.02 221.876 888.769 232.159C859.972 243.42 838.038 249.773 816.824 255.915C803.549 259.76 789.819 263.734 774.623 268.861C744.866 279.097 709.283 296.217 668.861 319.746C635.31 339.224 592.08 367.897 540.38 404.967C498.171 435.175 459.399 464.829 421.849 495.611C385.735 525.128 317.536 583.309 266.56 641.336C226.866 686.503 212.039 713.86 201.259 735.957L202.6 736.557C213.342 714.542 228.118 687.284 267.696 642.249C318.603 584.299 386.733 526.178 422.817 496.686C460.342 465.922 499.088 436.289 541.272 406.099C592.938 369.059 636.12 340.412 669.633 320.955C709.973 297.473 745.466 280.396 775.125 270.194C790.286 265.08 803.999 261.111 817.261 257.27C838.505 251.119 860.474 244.758 889.34 233.471C915.62 223.175 944.855 210.298 975.808 196.662C1010.14 181.54 1045.64 165.902 1077.7 153.647C1081.29 152.241 1085.05 150.736 1088.91 149.193C1110.79 140.453 1135.58 130.542 1149.42 130.307C1159.68 130.08 1163.08 134.349 1166.35 138.473L1166.44 138.584C1167.94 140.517 1169.31 142.502 1170.77 144.607C1178.3 155.477 1186.83 167.793 1212.99 170.189C1248.28 173.056 1306.14 166.468 1347.58 154.869C1366.84 149.305 1384.74 141.962 1400.01 135.519C1416.88 128.408 1430.83 122.3 1444.01 113.932C1449.85 110.233 1455.72 106.122 1461.39 102.148L1461.4 102.144L1461.4 100.387C1461.11 100.592 1460.81 100.798 1460.52 101.004C1454.85 104.973 1448.99 109.071 1443.17 112.753Z" fill="#DEFB48"/>
<path d="M1417.35 116.058C1401.87 122.899 1385 129.977 1366.58 135.365C1326.48 146.746 1269.39 152.935 1233.8 149.763C1207.61 147.161 1199.66 135 1191.98 123.238C1190.82 121.463 1189.63 119.633 1188.39 117.884L1188.17 117.575C1185 113.199 1181.41 108.235 1170.99 107.892C1165.55 107.721 1158.38 108.934 1149.68 111.493C1136.7 115.304 1122.2 120.838 1108.17 126.191C1104.14 127.735 1100.11 129.269 1096.13 130.761C1065.98 141.906 1032.69 156 1000.49 169.631C969.074 182.928 939.402 195.488 912.676 205.415C884.277 215.969 862.437 221.777 841.322 227.397C826.349 231.379 810.866 235.498 793.304 241.255C762.664 251.513 724.664 269.482 683.414 293.221C651.445 311.589 612.013 337.162 562.868 371.395C516.526 403.638 473.579 435.89 431.575 470.003C369.574 520.189 312.658 573.351 275.425 615.857C235.448 661.474 221.324 688.591 211.221 710.422L212.532 710.979C222.597 689.234 236.67 662.224 276.522 616.74C313.708 574.29 370.56 521.188 432.501 471.053C474.479 436.966 517.4 404.731 563.712 372.509C612.823 338.298 652.217 312.751 684.156 294.404C725.324 270.712 763.23 252.786 793.776 242.558C811.299 236.814 826.756 232.704 841.708 228.726C862.862 223.098 884.732 217.276 913.199 206.701C939.955 196.761 969.644 184.193 1001.07 170.892C1033.26 157.269 1066.54 143.179 1096.66 132.047C1100.65 130.551 1104.67 129.012 1108.71 127.473C1122.71 122.132 1137.18 116.603 1150.1 112.813C1158.66 110.297 1165.66 109.105 1170.94 109.268C1180.65 109.585 1183.87 114.048 1186.99 118.36L1187.21 118.664C1188.43 120.383 1189.57 122.128 1190.77 123.971C1198.27 135.45 1206.77 148.46 1233.67 151.135C1269.42 154.32 1326.74 148.109 1367 136.685C1385.51 131.271 1402.43 124.173 1417.95 117.31C1434.35 110.066 1447.89 103.863 1460.42 95.5256C1460.74 95.3113 1461.07 95.0797 1461.39 94.8654L1461.39 93.1808C1460.8 93.5838 1460.2 94.0038 1459.6 94.3983C1447.17 102.667 1433.68 108.844 1417.35 116.058Z" fill="#DEFB48"/>
<path d="M1254.95 130.881C1227.51 128.211 1219.46 115.347 1211.66 102.907C1210.55 101.137 1209.41 99.3023 1208.23 97.5534L1208.03 97.2663C1204.9 92.7268 1201.35 87.583 1191.14 86.9057C1190.46 86.8586 1189.75 86.8327 1189.01 86.8327C1174.69 86.8327 1150.44 95.8602 1128.92 103.867C1125.15 105.269 1121.47 106.641 1117.97 107.914C1088.77 118.266 1056.52 131.361 1025.34 144.028C991.866 157.621 960.257 170.459 931.957 180.258C905.295 189.478 884.243 194.592 863.887 199.535C848.151 203.358 831.879 207.306 813.25 213.115C782.048 223.055 743.812 240.501 702.687 263.567C628.221 305.078 533.227 370.195 448.584 437.76C411.051 467.542 340.191 526.371 287.316 585.744C245.586 632.605 230.052 661.479 219.486 685.706L220.763 686.216C231.291 662.092 246.765 633.325 288.37 586.606C341.176 527.305 411.969 468.537 449.472 438.78C534.058 371.262 628.98 306.188 703.385 264.712C744.433 241.689 782.571 224.281 813.683 214.37C832.261 208.579 848.511 204.631 864.225 200.816C884.616 195.865 905.698 190.743 932.424 181.501C960.763 171.689 992.389 158.847 1025.88 145.246C1057.04 132.587 1089.28 119.496 1118.45 109.153C1121.97 107.875 1125.64 106.504 1129.42 105.098C1151.9 96.7304 1177.39 87.2401 1191.04 88.2217C1200.57 88.8518 1203.77 93.4983 1206.87 97.9906L1207.06 98.2736C1208.22 100.001 1209.37 101.823 1210.47 103.585C1218.44 116.307 1226.67 129.463 1254.81 132.202C1292.07 135.494 1347.52 129.578 1386.66 118.146C1413.49 110.087 1440.11 98.6594 1461.38 86.2841L1461.38 84.7324C1440.09 97.2106 1413.28 108.758 1386.25 116.882C1347.27 128.267 1292.04 134.156 1254.95 130.881Z" fill="#DEFB48"/>
<path d="M1273.09 111.681C1246.37 108.505 1238.47 95.3967 1230.84 82.7214C1229.74 80.891 1228.6 79.0008 1227.43 77.1918L1227.27 76.9516C1224.14 72.2408 1220.6 66.8997 1210.56 65.9009C1196.08 64.3492 1168.28 74.4441 1143.76 83.3558C1139.88 84.7618 1136.13 86.1292 1132.56 87.398C1105.87 96.6098 1076.62 108.016 1048.35 119.046C1014.69 132.175 979.88 145.746 950.277 155.224C925.141 163.257 904.827 167.706 885.186 172.01C868.752 175.611 851.755 179.331 832.127 185.123C801.063 194.484 763.667 210.928 720.986 233.989C681.811 255.092 631.765 286.319 576.263 324.294C536.068 351.749 499.384 378.455 464.127 405.931C425.587 435.869 352.707 495.186 297.625 556.068C252.055 606.443 235.899 637.718 226.108 661.667L227.351 662.134C237.103 638.288 253.195 607.133 298.632 556.903C353.65 496.095 426.461 436.837 464.967 406.921C500.207 379.458 536.866 352.77 577.039 325.331C632.507 287.382 682.51 256.181 721.642 235.1C763.645 212.407 801.989 195.543 832.526 186.34C852.103 180.562 869.073 176.845 885.482 173.253C905.157 168.945 925.505 164.491 950.702 156.437C980.343 146.951 1015.17 133.367 1048.85 120.233C1077.12 109.208 1106.35 97.8058 1133.02 88.6026C1136.59 87.3337 1140.36 85.9662 1144.23 84.5559C1167.41 76.1328 1196.25 65.6522 1210.42 67.1782C1219.82 68.1126 1223.03 72.9566 1226.14 77.6418L1226.3 77.8775C1227.45 79.665 1228.59 81.5469 1229.68 83.3686C1237.48 96.3183 1245.55 109.709 1272.93 112.963C1310.03 116.997 1367.14 111.223 1405.77 99.5289C1425.29 93.472 1444.34 85.5549 1461.38 76.5574L1461.38 75.0912C1444.25 84.1873 1425.05 92.1989 1405.37 98.3115C1366.89 109.941 1310.02 115.693 1273.09 111.681Z" fill="#DEFB48"/>
<path d="M1290.73 92.4435C1264.66 88.7913 1256.86 75.4129 1249.32 62.4761C1248.23 60.5986 1247.1 58.6567 1245.93 56.7964L1245.82 56.6292C1242.68 51.7339 1239.13 46.183 1229.2 44.867C1214.96 42.8781 1187.94 52.3212 1164.1 60.6585C1160.2 62.0216 1156.4 63.355 1152.77 64.5895C1127.03 73.1241 1098.83 83.6689 1071.56 93.8666C1036.87 106.842 1000.99 120.259 970.317 129.449C945.533 136.882 925.304 140.817 905.736 144.619C887.531 148.16 868.709 151.821 846.372 158.285C814.261 167.792 774.139 185.221 730.352 208.69C693.008 228.661 646.932 256.858 593.401 292.501C548.855 322.125 507.962 351.415 468.393 382.043C429.629 411.95 356.407 471.228 301.5 532.204C255.643 583.141 240.19 614.365 231.124 638.185L232.337 638.605C241.364 614.888 256.757 583.797 302.477 533.01C357.315 472.103 430.474 412.884 469.203 383.003C508.75 352.392 549.618 323.12 594.139 293.512C647.635 257.895 693.676 229.72 730.982 209.766C774.692 186.34 814.729 168.945 846.749 159.464C869.026 153.017 887.818 149.36 905.993 145.828C925.587 142.017 945.854 138.078 970.699 130.624C1001.41 121.42 1037.31 107.995 1072.03 95.0111C1099.29 84.8177 1127.47 74.2771 1153.2 65.7511C1156.83 64.5124 1160.64 63.1791 1164.55 61.816C1188.24 53.5301 1215.1 44.134 1229.02 46.0886C1238.35 47.3232 1241.59 52.3812 1244.72 57.2765L1244.83 57.4394C1245.98 59.2784 1247.1 61.2115 1248.19 63.0804C1255.89 76.2787 1263.84 89.9272 1290.55 93.6693C1326.94 98.3717 1383.33 93.1594 1421.74 81.5471C1436.51 76.9605 1449.76 71.045 1461.38 65.2282L1461.38 63.8308C1449.66 69.7249 1436.28 75.7343 1421.34 80.3724C1383.1 91.9289 1326.95 97.1244 1290.73 92.4435Z" fill="#DEFB48"/>
<path d="M192.72 88.6073C192.763 88.2044 192.806 87.7971 192.853 87.3942C189.616 97.9862 187.662 108.09 187.04 117.623L187.267 117.636C187.863 108.463 189.698 98.7665 192.72 88.6073Z" fill="#DEFB48"/>
<path d="M192.299 93.4252L192.479 93.4381C192.599 91.5435 192.779 89.6189 193.002 87.6856C192.908 87.9943 192.81 88.3027 192.719 88.6113C192.548 90.223 192.398 91.8349 192.299 93.4252Z" fill="#DEFB48"/>
<path d="M193.002 87.6816C193.049 87.2744 193.084 86.8716 193.135 86.4601C193.037 86.773 192.947 87.0814 192.852 87.3944C192.805 87.7973 192.762 88.2046 192.72 88.6075C192.81 88.2989 192.908 87.9903 193.002 87.6816Z" fill="#DEFB48"/>
<path d="M193.002 87.6816C193.049 87.2744 193.084 86.8716 193.135 86.4601C193.037 86.773 192.947 87.0814 192.852 87.3944C192.805 87.7973 192.762 88.2046 192.72 88.6075C192.81 88.2989 192.908 87.9903 193.002 87.6816Z" fill="#DEFB48"/>
</g>
</svg>
