<svg viewBox="0 0 119 137" fill="none" xmlns="http://www.w3.org/2000/svg">
<path d="M55.2605 8.88474C55.1765 8.88474 55.0913 8.86318 55.012 8.81665C54.7712 8.67926 54.6898 8.37273 54.8282 8.13435L57.8334 2.93053C57.9707 2.691 58.2757 2.60922 58.5164 2.74886C58.7561 2.88624 58.8375 3.19162 58.6991 3.43115L55.6955 8.63383C55.6036 8.79503 55.4344 8.88474 55.2605 8.88474ZM64.2746 9.72933C64.1007 9.72933 63.9325 9.63967 63.8406 9.47847L60.837 4.27574C60.697 4.03621 60.779 3.73083 61.0198 3.5935C61.2568 3.45386 61.5644 3.53559 61.7033 3.77626L64.7069 8.97894C64.8453 9.21847 64.7639 9.52385 64.5242 9.66348C64.4448 9.70891 64.3597 9.72933 64.2746 9.72933ZM49.2533 19.2913C49.1692 19.2913 49.0841 19.2686 49.0031 19.2232C48.764 19.0847 48.682 18.7782 48.8204 18.5398L51.8256 13.3359C51.9619 13.0976 52.2684 13.0135 52.5091 13.1532C52.7483 13.2917 52.8303 13.597 52.6903 13.8366L49.6877 19.0404C49.5958 19.2005 49.4266 19.2913 49.2533 19.2913ZM70.2818 20.1359C70.1085 20.1359 69.9403 20.0451 69.8484 19.885L66.8443 14.6823C66.7059 14.4428 66.7879 14.1363 67.027 13.9989C67.2667 13.8604 67.5722 13.9421 67.7106 14.1817L70.7142 19.3844C70.8531 19.6239 70.7711 19.9293 70.5314 20.0689C70.4521 20.1143 70.367 20.1359 70.2818 20.1359ZM43.2455 29.6956C43.1614 29.6956 43.0763 29.6741 42.9959 29.6275C42.7562 29.4901 42.6747 29.1848 42.8131 28.9452L45.8178 23.7413C45.9541 23.5018 46.2606 23.4201 46.5003 23.5597C46.74 23.6971 46.8214 24.0036 46.683 24.242L43.6804 29.4447C43.5885 29.6071 43.4194 29.6956 43.2455 29.6956ZM76.2896 30.5414C76.1157 30.5414 75.9476 30.4516 75.8573 30.2904L72.8521 25.0866C72.7137 24.8493 72.7951 24.5417 73.0348 24.4043C73.2719 24.2647 73.581 24.3465 73.7184 24.5871L76.722 29.791C76.8604 30.0293 76.7789 30.3359 76.5392 30.4744C76.4599 30.5209 76.3747 30.5414 76.2896 30.5414ZM37.2377 40.102C37.1541 40.102 37.069 40.0795 36.9881 40.0341C36.7489 39.8957 36.6669 39.5902 36.8053 39.3505L39.8105 34.148C39.9478 33.9072 40.2533 33.8258 40.4925 33.9641C40.7322 34.1025 40.8136 34.408 40.6752 34.6487L37.6727 39.8513C37.5807 40.0111 37.4116 40.102 37.2377 40.102ZM82.2969 40.9469C82.1235 40.9469 81.9564 40.8571 81.8645 40.6957L78.8598 35.4931C78.7209 35.255 78.8029 34.9469 79.0426 34.8096C79.2797 34.6712 79.5873 34.7532 79.7256 34.9923L82.7298 40.1954C82.8682 40.4346 82.7862 40.7411 82.547 40.88C82.4687 40.9255 82.382 40.9469 82.2969 40.9469ZM31.2303 50.5066C31.1463 50.5066 31.0601 50.4862 30.9806 50.4398C30.7411 50.3009 30.6593 49.9969 30.7978 49.7562L33.8028 44.5536C33.9401 44.3129 34.2455 44.2309 34.485 44.3709C34.7245 44.5092 34.8063 44.8147 34.6678 45.0539L31.6651 50.2554C31.5732 50.4178 31.404 50.5066 31.2303 50.5066ZM88.3036 51.352C88.1308 51.352 87.9642 51.2638 87.8713 51.1014L84.8661 45.8988C84.7287 45.6602 84.8107 45.3536 85.0488 45.2152C85.2875 45.0769 85.595 45.1573 85.7345 45.3991L88.7371 50.6016C88.876 50.8413 88.794 51.1478 88.5533 51.2852C88.476 51.3317 88.3898 51.352 88.3036 51.352ZM25.2239 60.9128C25.1387 60.9128 25.0525 60.8914 24.9741 60.846C24.7335 60.7065 24.6517 60.4021 24.7902 60.1614L27.794 54.9598C27.9337 54.7191 28.2379 54.6376 28.4786 54.776C28.7169 54.9144 28.7987 55.2188 28.6613 55.4606L25.6575 60.6621C25.5656 60.8224 25.3964 60.9128 25.2239 60.9128ZM94.3125 61.7577C94.1396 61.7577 93.9715 61.6679 93.8785 61.5065L90.8739 56.305C90.7365 56.0669 90.818 55.7593 91.0566 55.6204C91.2947 55.4831 91.6039 55.564 91.7423 55.8047L94.7449 61.0063C94.8843 61.247 94.8028 61.5519 94.561 61.6919C94.4838 61.7363 94.3976 61.7577 94.3125 61.7577ZM19.2152 71.3185C19.1312 71.3185 19.0449 71.2981 18.9666 71.2516C18.7259 71.1132 18.643 70.8078 18.7826 70.5681L21.7864 65.3655C21.9249 65.1248 22.2303 65.0428 22.471 65.1817C22.7094 65.3211 22.7911 65.6256 22.6537 65.8658L19.65 71.0678C19.5569 71.2286 19.3889 71.3185 19.2152 71.3185ZM100.32 72.1628C100.147 72.1628 99.9793 72.0746 99.8863 71.9132L96.8827 66.7107C96.7438 66.471 96.8258 66.1655 97.0639 66.0271C97.3036 65.8877 97.6112 65.9692 97.7495 66.2099L100.753 71.4125C100.892 71.6532 100.81 71.9587 100.57 72.097C100.492 72.1425 100.405 72.1628 100.32 72.1628ZM13.2075 81.7241C13.1236 81.7241 13.0373 81.7032 12.9578 81.6568C12.7183 81.5184 12.6354 81.2129 12.7751 80.9737L15.7789 75.7706C15.9173 75.5315 16.2227 75.4495 16.4634 75.5879C16.7018 75.7252 16.7835 76.0307 16.645 76.2714L13.6424 81.474C13.5493 81.6343 13.3813 81.7241 13.2075 81.7241ZM106.328 82.5696C106.155 82.5696 105.987 82.4787 105.894 82.32L102.89 77.1158C102.752 76.8777 102.833 76.5712 103.073 76.4328C103.311 76.2954 103.619 76.3759 103.757 76.6166L106.76 81.8181C106.9 82.0578 106.818 82.3643 106.577 82.5038C106.499 82.5481 106.413 82.5696 106.328 82.5696ZM7.19996 92.1303C7.11599 92.1303 7.02968 92.11 6.95025 92.0635C6.70957 91.9251 6.62785 91.6186 6.76748 91.3799L9.77128 86.1763C9.90976 85.9356 10.2162 85.8552 10.4547 85.9936C10.6942 86.1319 10.7759 86.4374 10.6386 86.6771L7.63479 91.8797C7.54168 92.041 7.37254 92.1303 7.19996 92.1303ZM112.335 92.9752C112.162 92.9752 111.994 92.8854 111.901 92.7251L108.898 87.5225C108.759 87.2828 108.842 86.9768 109.081 86.839C109.319 86.6996 109.626 86.78 109.765 87.0207L112.769 92.2248C112.907 92.464 112.826 92.7705 112.585 92.9094C112.507 92.9549 112.421 92.9752 112.335 92.9752ZM2.73289 102.536H1.19353C1.01415 102.536 0.84956 102.44 0.758751 102.286C0.669039 102.131 0.669039 101.94 0.758751 101.786L3.76364 96.5815C3.90218 96.3423 4.20641 96.2593 4.44708 96.3987C4.68661 96.536 4.76833 96.8426 4.62985 97.0823L2.06083 101.534H2.73289C3.00876 101.534 3.23351 101.758 3.23351 102.036C3.23351 102.311 3.00876 102.536 2.73289 102.536ZM14.7481 102.536H8.74047C8.46235 102.536 8.23985 102.311 8.23985 102.036C8.23985 101.758 8.46235 101.534 8.74047 101.534H14.7481C15.0239 101.534 15.2487 101.758 15.2487 102.036C15.2487 102.311 15.0239 102.536 14.7481 102.536ZM26.7632 102.536H20.7556C20.4775 102.536 20.255 102.311 20.255 102.036C20.255 101.758 20.4775 101.534 20.7556 101.534H26.7632C27.0402 101.534 27.2638 101.758 27.2638 102.036C27.2638 102.311 27.0402 102.536 26.7632 102.536ZM38.7787 102.536H32.7708C32.4938 102.536 32.2702 102.311 32.2702 102.036C32.2702 101.758 32.4938 101.534 32.7708 101.534H38.7787C39.0554 101.534 39.28 101.758 39.28 102.036C39.28 102.311 39.0554 102.536 38.7787 102.536ZM50.7937 102.536H44.7859C44.5092 102.536 44.2867 102.311 44.2867 102.036C44.2867 101.758 44.5092 101.534 44.7859 101.534H50.7937C51.0705 101.534 51.2955 101.758 51.2955 102.036C51.2955 102.311 51.0705 102.536 50.7937 102.536ZM62.8098 102.536H56.801C56.5242 102.536 56.3018 102.311 56.3018 102.036C56.3018 101.758 56.5242 101.534 56.801 101.534H62.8098C63.0855 101.534 63.3106 101.758 63.3106 102.036C63.3106 102.311 63.0855 102.536 62.8098 102.536ZM74.8249 102.536H68.8176C68.5393 102.536 68.3168 102.311 68.3168 102.036C68.3168 101.758 68.5393 101.534 68.8176 101.534H74.8249C75.1011 101.534 75.3257 101.758 75.3257 102.036C75.3257 102.311 75.1011 102.536 74.8249 102.536ZM86.8405 102.536H80.8327C80.5543 102.536 80.3319 102.311 80.3319 102.036C80.3319 101.758 80.5543 101.534 80.8327 101.534H86.8405C87.1172 101.534 87.3423 101.758 87.3423 102.036C87.3423 102.311 87.1172 102.536 86.8405 102.536ZM98.8555 102.536H92.8477C92.571 102.536 92.3485 102.311 92.3485 102.036C92.3485 101.758 92.571 101.534 92.8477 101.534H98.8555C99.1323 101.534 99.3574 101.758 99.3574 102.036C99.3574 102.311 99.1323 102.536 98.8555 102.536ZM110.871 102.536H104.863C104.586 102.536 104.364 102.311 104.364 102.036C104.364 101.758 104.586 101.534 104.863 101.534H110.871C111.146 101.534 111.372 101.758 111.372 102.036C111.372 102.311 111.146 102.536 110.871 102.536ZM117.855 102.536H116.879C116.601 102.536 116.379 102.311 116.379 102.036C116.379 101.758 116.601 101.534 116.879 101.534H116.987L114.905 97.9282C114.767 97.6885 114.85 97.382 115.088 97.2447C115.326 97.1052 115.634 97.1867 115.772 97.4274L118.289 101.786C118.378 101.94 118.378 102.131 118.289 102.286C118.198 102.44 118.033 102.536 117.855 102.536Z" fill="white"/>
<path d="M14.1839 35.4184H8.17625C7.89928 35.4184 7.67677 35.1939 7.67677 34.9177C7.67677 34.6399 7.89928 34.4158 8.17625 34.4158H14.1839C14.4597 34.4158 14.6845 34.6399 14.6845 34.9177C14.6845 35.1939 14.4597 35.4184 14.1839 35.4184ZM26.2002 35.4184H20.1926C19.9144 35.4184 19.6919 35.1939 19.6919 34.9177C19.6919 34.6399 19.9144 34.4158 20.1926 34.4158H26.2002C26.476 34.4158 26.6997 34.6399 26.6997 34.9177C26.6997 35.1939 26.476 35.4184 26.2002 35.4184ZM38.2152 35.4184H32.2078C31.9297 35.4184 31.7072 35.1939 31.7072 34.9177C31.7072 34.6399 31.9297 34.4158 32.2078 34.4158H38.2152C38.4914 34.4158 38.716 34.6399 38.716 34.9177C38.716 35.1939 38.4914 35.4184 38.2152 35.4184ZM50.2308 35.4184H44.223C43.9457 35.4184 43.7222 35.1939 43.7222 34.9177C43.7222 34.6399 43.9457 34.4158 44.223 34.4158H50.2308C50.5065 34.4158 50.731 34.6399 50.731 34.9177C50.731 35.1939 50.5065 35.4184 50.2308 35.4184ZM62.2469 35.4184H56.2381C55.9613 35.4184 55.7373 35.1939 55.7373 34.9177C55.7373 34.6399 55.9613 34.4158 56.2381 34.4158H62.2469C62.5216 34.4158 62.7461 34.6399 62.7461 34.9177C62.7461 35.1939 62.5216 35.4184 62.2469 35.4184ZM74.262 35.4184H68.2547C67.9764 35.4184 67.7529 35.1939 67.7529 34.9177C67.7529 34.6399 67.9764 34.4158 68.2547 34.4158H74.262C74.5366 34.4158 74.7617 34.6399 74.7617 34.9177C74.7617 35.1939 74.5366 35.4184 74.262 35.4184ZM86.277 35.4184H80.2698C79.9914 35.4184 79.7679 35.1939 79.7679 34.9177C79.7679 34.6399 79.9914 34.4158 80.2698 34.4158H86.277C86.5533 34.4158 86.7778 34.6399 86.7778 34.9177C86.7778 35.1939 86.5533 35.4184 86.277 35.4184ZM98.2926 35.4184H92.2848C92.0081 35.4184 91.784 35.1939 91.784 34.9177C91.784 34.6399 92.0081 34.4158 92.2848 34.4158H98.2926C98.5683 34.4158 98.7929 34.6399 98.7929 34.9177C98.7929 35.1939 98.5683 35.4184 98.2926 35.4184ZM110.308 35.4184H104.3C104.023 35.4184 103.8 35.1939 103.8 34.9177C103.8 34.6399 104.023 34.4158 104.3 34.4158H110.308C110.583 34.4158 110.808 34.6399 110.808 34.9177C110.808 35.1939 110.583 35.4184 110.308 35.4184ZM3.70918 39.7756C3.5355 39.7756 3.3686 39.6858 3.2755 39.5244L0.758751 35.1678C0.669039 35.0132 0.669039 34.8226 0.758751 34.667C0.84956 34.5114 1.01301 34.4158 1.19353 34.4158H2.16866C2.44454 34.4158 2.66934 34.6399 2.66934 34.9177C2.66934 35.1939 2.44454 35.4184 2.16866 35.4184H2.05968L4.14171 39.0252C4.28019 39.2644 4.19847 39.5698 3.95779 39.7082C3.88061 39.7537 3.79429 39.7756 3.70918 39.7756ZM114.851 40.62C114.766 40.62 114.678 40.5986 114.601 40.5531C114.36 40.4147 114.278 40.1103 114.417 39.8696L116.987 35.4184H116.317C116.038 35.4184 115.815 35.1939 115.815 34.9177C115.815 34.6399 116.038 34.4158 116.317 34.4158H117.854C118.033 34.4158 118.198 34.5114 118.288 34.667C118.377 34.8226 118.377 35.0132 118.288 35.1678L115.284 40.3693C115.191 40.5302 115.023 40.62 114.851 40.62ZM9.71676 50.1807C9.54308 50.1807 9.37619 50.0909 9.28313 49.9311L6.27819 44.7275C6.1408 44.4878 6.22258 44.1823 6.46096 44.045C6.70049 43.9066 7.00701 43.987 7.14665 44.2278L10.1493 49.4303C10.2878 49.67 10.2061 49.9755 9.96652 50.1139C9.88819 50.1593 9.80193 50.1807 9.71676 50.1807ZM108.842 51.0256C108.758 51.0256 108.671 51.0037 108.593 50.9583C108.352 50.8199 108.27 50.5144 108.41 50.2753L111.412 45.0737C111.552 44.833 111.857 44.7521 112.098 44.8894C112.336 45.0283 112.418 45.3322 112.281 45.5729L109.277 50.7755C109.184 50.9358 109.015 51.0256 108.842 51.0256ZM15.7243 60.5875C15.5518 60.5875 15.3838 60.4976 15.2907 60.3368L12.2858 55.1337C12.1484 54.8945 12.2302 54.5891 12.4697 54.4507C12.7081 54.3118 13.0157 54.3927 13.1542 54.6334L16.1569 59.8371C16.2965 60.0757 16.2148 60.3817 15.9741 60.5196C15.8958 60.566 15.8095 60.5875 15.7243 60.5875ZM102.835 61.4318C102.749 61.4318 102.663 61.4104 102.584 61.365C102.344 61.2266 102.262 60.9211 102.401 60.6814L105.404 55.4778C105.543 55.2381 105.849 55.1567 106.09 55.2951C106.329 55.4334 106.411 55.7389 106.272 55.9786L103.269 61.1812C103.176 61.3425 103.007 61.4318 102.835 61.4318ZM21.7319 70.9926C21.5594 70.9926 21.3914 70.9033 21.2983 70.743L18.2945 65.5383C18.156 65.2997 18.2377 64.9932 18.4773 64.8558C18.7157 64.7164 19.0233 64.7989 19.1618 65.0386L22.1656 70.2427C22.3041 70.4809 22.2224 70.7874 21.9817 70.9247C21.9034 70.9712 21.8182 70.9926 21.7319 70.9926ZM96.8268 71.8375C96.7417 71.8375 96.6555 71.8171 96.5772 71.7691C96.3365 71.6318 96.2545 71.3252 96.3934 71.0871L99.397 65.8845C99.5365 65.6438 99.8419 65.5618 100.082 65.7018C100.321 65.8391 100.403 66.1446 100.264 66.3838L97.2618 71.5879C97.1683 71.7477 96.9991 71.8375 96.8268 71.8375ZM27.7396 81.3983C27.567 81.3983 27.399 81.3095 27.3059 81.1476L24.3021 75.9445C24.1636 75.7064 24.2453 75.3999 24.4849 75.2615C24.7232 75.1242 25.0309 75.2046 25.1694 75.4443L28.1732 80.6479C28.3117 80.8876 28.2299 81.1931 27.9893 81.3304C27.9109 81.3769 27.8258 81.3983 27.7396 81.3983ZM90.819 82.2442C90.7339 82.2442 90.6478 82.2223 90.5694 82.1758C90.3287 82.0385 90.2472 81.732 90.3856 81.4923L93.3893 76.2887C93.5292 76.0505 93.8331 75.9675 94.0738 76.1059C94.3125 76.2443 94.3939 76.5508 94.2566 76.7894L91.254 81.993C91.1611 82.1544 90.9919 82.2442 90.819 82.2442ZM33.7471 91.804C33.5746 91.804 33.4066 91.7152 33.3146 91.5538L30.3097 86.3502C30.1723 86.1105 30.2541 85.805 30.4924 85.6667C30.7308 85.5283 31.0385 85.6097 31.177 85.8505L34.1808 91.0536C34.3193 91.2927 34.2375 91.5982 33.9969 91.7355C33.9185 91.782 33.8334 91.804 33.7471 91.804ZM84.8128 92.6483C84.7266 92.6483 84.6405 92.628 84.5621 92.5815C84.3225 92.4431 84.2405 92.1376 84.3778 91.8979L87.382 86.6954C87.5214 86.4557 87.8258 86.3742 88.0666 86.5126C88.3057 86.6499 88.3877 86.9565 88.2504 87.1946L85.2462 92.3987C85.1533 92.5596 84.9841 92.6483 84.8128 92.6483ZM39.7536 102.209C39.5823 102.209 39.4142 102.121 39.3212 101.958L36.316 96.7569C36.1787 96.5172 36.2607 96.2118 36.4998 96.0723C36.7374 95.9334 37.046 96.0154 37.1844 96.2561L40.1886 101.459C40.3259 101.698 40.2439 102.004 40.0042 102.142C39.9259 102.188 39.8408 102.209 39.7536 102.209ZM78.805 103.055C78.7189 103.055 78.6317 103.033 78.5544 102.988C78.3147 102.849 78.2332 102.543 78.3706 102.304L81.3752 97.1005C81.5136 96.8614 81.8201 96.7794 82.0588 96.9167C82.2985 97.0567 82.3799 97.3616 82.2426 97.6013L79.239 102.804C79.146 102.965 78.9768 103.055 78.805 103.055ZM45.7614 112.615C45.5896 112.615 45.423 112.526 45.3285 112.365L42.3238 107.162C42.1865 106.921 42.2679 106.617 42.5076 106.479C42.7463 106.339 43.0538 106.422 43.1922 106.663L46.1958 111.864C46.3332 112.105 46.2517 112.409 46.012 112.547C45.9347 112.593 45.8486 112.615 45.7614 112.615ZM72.7967 113.459C72.7116 113.459 72.6239 113.439 72.5466 113.393C72.3074 113.254 72.2244 112.949 72.3628 112.709L75.3664 107.507C75.5063 107.267 75.8103 107.186 76.051 107.323C76.2907 107.462 76.3727 107.767 76.2348 108.007L73.2312 113.21C73.1382 113.371 72.969 113.459 72.7967 113.459ZM51.7697 123.021C51.5974 123.021 51.4303 122.932 51.3363 122.77L48.3311 117.569C48.1937 117.328 48.2757 117.024 48.5154 116.884C48.7525 116.746 49.0611 116.827 49.201 117.068L52.2036 122.27C52.342 122.509 52.2605 122.816 52.0198 122.954C51.9425 122.999 51.8564 123.021 51.7697 123.021ZM66.7889 123.866C66.7038 123.866 66.6176 123.844 66.5393 123.8C66.2996 123.66 66.2166 123.356 66.355 123.114L69.3591 117.913C69.4986 117.673 69.8051 117.591 70.0437 117.729C70.2829 117.869 70.3649 118.172 70.2265 118.413L67.2239 123.615C67.1294 123.776 66.9612 123.866 66.7889 123.866ZM57.7775 133.427C57.6062 133.427 57.4381 133.337 57.3441 133.176L54.3399 127.973C54.2015 127.734 54.2835 127.428 54.5227 127.291C54.7613 127.152 55.0699 127.233 55.2083 127.474L58.2109 132.676C58.3498 132.916 58.2678 133.221 58.0271 133.36C57.9498 133.405 57.8636 133.427 57.7775 133.427ZM60.7811 134.271C60.696 134.271 60.6098 134.251 60.5305 134.205C60.2908 134.066 60.2093 133.76 60.3477 133.521L63.3513 128.319C63.4913 128.078 63.7952 127.997 64.0359 128.135C64.2756 128.274 64.3571 128.578 64.2187 128.819L61.2161 134.02C61.1221 134.182 60.954 134.271 60.7811 134.271Z" fill="white"/>
<path d="M30.9415 84.9366H88.0634L59.5038 35.467L30.9415 84.9366ZM88.9522 85.9377H30.0754C29.8948 85.9377 29.7314 85.8437 29.6406 85.6881C29.5509 85.5325 29.5509 85.3419 29.6406 85.1873L59.0689 34.2148C59.2495 33.9062 59.7581 33.9062 59.9373 34.2148L89.3042 85.0844C89.395 85.1737 89.4519 85.2985 89.4519 85.4374C89.4519 85.7152 89.2284 85.9377 88.9522 85.9377Z" fill="white"/>
<path d="M30.9415 52.1061L59.5038 101.576L88.0634 52.1061H30.9415ZM59.5038 103.078C59.3242 103.078 59.1597 102.982 59.0689 102.828L29.6406 51.8554C29.5509 51.7019 29.5509 51.5113 29.6406 51.3557C29.7314 51.2001 29.8948 51.105 30.0754 51.105H88.9318C89.1104 51.105 89.277 51.2001 89.3658 51.3557C89.454 51.5113 89.454 51.7019 89.3658 51.8554L59.9373 102.828C59.8474 102.982 59.6809 103.078 59.5038 103.078Z" fill="white"/>
<path d="M59.4745 136.518C59.1973 136.518 58.9738 136.295 58.9738 136.018V1.0193C58.9738 0.743426 59.1973 0.518677 59.4745 0.518677C59.7503 0.518677 59.9748 0.743426 59.9748 1.0193V136.018C59.9748 136.295 59.7503 136.518 59.4745 136.518Z" fill="white"/>
<path d="M117.854 102.486C117.769 102.486 117.685 102.465 117.604 102.42L0.942963 35.3516C0.703435 35.2122 0.619467 34.9078 0.7591 34.6676C0.896436 34.4268 1.20066 34.3449 1.44134 34.4832L118.103 101.552C118.344 101.69 118.426 101.996 118.29 102.235C118.195 102.397 118.026 102.486 117.854 102.486Z" fill="white"/>
<path d="M1.19335 102.528C1.02082 102.528 0.850534 102.438 0.758576 102.277C0.620092 102.037 0.702963 101.731 0.942491 101.593L117.727 34.3103C117.968 34.1714 118.274 34.2545 118.413 34.4941C118.55 34.7333 118.467 35.0398 118.229 35.1787L1.44311 102.46C1.36364 102.506 1.27737 102.528 1.19335 102.528Z" fill="white"/>
<path d="M2.00255 101.672L59.4583 134.843L116.91 101.672V35.3307L59.4583 2.15836L2.00255 35.3307V101.672ZM59.4583 137C59.2844 137 59.1131 136.956 58.9575 136.867L0.500624 103.116C0.190705 102.937 0 102.606 0 102.248V34.7516C0 34.3929 0.190705 34.0628 0.500624 33.8853L58.9575 0.135392C59.2667 -0.0439801 59.6479 -0.0462777 59.9591 0.135392L118.411 33.8853C118.72 34.0628 118.911 34.3929 118.911 34.7516V102.248C118.911 102.606 118.72 102.937 118.411 103.116L59.9591 136.867C59.8035 136.955 59.6311 137 59.4583 137Z" fill="white"/>
</svg>
