<svg viewBox="0 0 142 127" fill="none" xmlns="http://www.w3.org/2000/svg">
<path d="M19.4502 18.7092L70.5135 107.147L121.574 18.7092H19.4502ZM70.5135 110.183C70.1508 110.183 69.8171 109.991 69.6374 109.677L16.8225 18.2029C16.642 17.8892 16.642 17.5027 16.8225 17.1916C17.0034 16.8778 17.3359 16.6865 17.6973 16.6865H123.326C123.688 16.6865 124.023 16.8778 124.203 17.1916C124.385 17.5027 124.385 17.8892 124.203 18.2029L71.3903 109.677C71.2078 109.991 70.8724 110.183 70.5135 110.183Z" fill="white"/>
<path d="M19.4502 108.225H121.574L70.5135 19.7847L19.4502 108.225ZM123.326 110.249H17.6973C17.3359 110.249 17.0034 110.057 16.8225 109.742C16.642 109.432 16.642 109.046 16.8225 108.731L69.6374 17.256C69.9979 16.6285 71.0281 16.6285 71.3903 17.256L124.203 108.731C124.385 109.046 124.385 109.432 124.203 109.742C124.023 110.057 123.688 110.249 123.326 110.249Z" fill="white"/>
<path d="M121.686 19.6445C121.545 19.6445 121.403 19.5849 121.303 19.4696C121.119 19.2594 121.143 18.9386 121.355 18.7554L122.118 18.0924C122.329 17.9118 122.65 17.9332 122.833 18.1434C123.016 18.3561 122.991 18.6759 122.78 18.8575L122.016 19.5207C121.92 19.6039 121.803 19.6445 121.686 19.6445ZM118.625 22.2932C118.486 22.2932 118.343 22.235 118.245 22.1175C118.06 21.907 118.084 21.5884 118.295 21.4045L119.061 20.7425C119.273 20.5606 119.59 20.5808 119.774 20.7936C119.955 21.0063 119.933 21.3246 119.723 21.5066L118.956 22.1686C118.862 22.2516 118.743 22.2932 118.625 22.2932ZM115.568 24.9411C115.426 24.9411 115.284 24.8815 115.184 24.7674C115.002 24.5561 115.025 24.2352 115.236 24.0544L116.002 23.3913C116.214 23.2085 116.531 23.2321 116.714 23.4438C116.896 23.654 116.875 23.9737 116.663 24.1568L115.9 24.8185C115.803 24.9018 115.686 24.9411 115.568 24.9411ZM112.508 27.591C112.367 27.591 112.225 27.5317 112.128 27.4153C111.943 27.2048 111.968 26.8851 112.18 26.7023L112.943 26.0403C113.151 25.8583 113.472 25.8797 113.655 26.0925C113.838 26.303 113.816 26.6224 113.604 26.8044L112.841 27.4675C112.744 27.5494 112.627 27.591 112.508 27.591ZM109.449 30.2401C109.308 30.2401 109.167 30.1806 109.067 30.0642C108.886 29.8539 108.906 29.5344 109.118 29.3508L109.883 28.6893C110.095 28.5063 110.414 28.5298 110.597 28.7401C110.779 28.9515 110.757 29.2716 110.545 29.453L109.779 30.1161C109.684 30.1986 109.566 30.2401 109.449 30.2401ZM106.39 32.8889C106.249 32.8889 106.11 32.8293 106.008 32.7141C105.826 32.5016 105.847 32.1831 106.059 32.0001L106.825 31.3392C107.036 31.1551 107.356 31.1764 107.538 31.3905C107.721 31.6008 107.698 31.9193 107.486 32.1034L106.723 32.7654C106.627 32.8473 106.509 32.8889 106.39 32.8889ZM103.334 35.5365C103.19 35.5365 103.05 35.477 102.948 35.3639C102.767 35.1514 102.791 34.8319 103.002 34.65L103.766 33.9868C103.977 33.8038 104.297 33.8279 104.479 34.0382C104.664 34.2485 104.638 34.5691 104.428 34.7521L103.664 35.4153C103.568 35.4972 103.449 35.5365 103.334 35.5365ZM100.272 38.1864C100.133 38.1864 99.9889 38.1274 99.8917 38.0121C99.7082 37.8002 99.7311 37.4817 99.9425 37.2976L100.707 36.6361C100.917 36.4537 101.238 36.4755 101.421 36.6869C101.605 36.8983 101.581 37.2179 101.37 37.3998L100.605 38.0629C100.507 38.1465 100.39 38.1864 100.272 38.1864ZM97.2129 40.8356C97.0742 40.8356 96.9327 40.7761 96.8327 40.6609C96.6497 40.4505 96.6721 40.131 96.8835 39.9464L97.6488 39.2849C97.858 39.103 98.1792 39.1254 98.3622 39.3357C98.543 39.5471 98.5223 39.8672 98.3109 40.0501L97.5456 40.7117C97.4494 40.7952 97.332 40.8356 97.2129 40.8356ZM94.1561 43.4844C94.0152 43.4844 93.8737 43.4249 93.7738 43.3096C93.5897 43.0982 93.6132 42.7786 93.8251 42.5957L94.5899 41.9347C94.8018 41.7528 95.1203 41.773 95.3033 41.986C95.4862 42.1974 95.4639 42.5159 95.2519 42.6989L94.4877 43.3609C94.3905 43.444 94.2752 43.4844 94.1561 43.4844ZM91.0972 46.1331C90.9562 46.1331 90.8137 46.0736 90.7159 45.9584C90.5307 45.7486 90.5569 45.4274 90.7672 45.2455L91.5314 44.5824C91.7428 44.401 92.0602 44.4223 92.2443 44.6348C92.4273 44.8451 92.4038 45.1657 92.1929 45.3482L91.4293 46.0097C91.3315 46.0927 91.2151 46.1331 91.0972 46.1331ZM88.0387 48.7835C87.8962 48.7835 87.7547 48.724 87.6547 48.6065C87.4739 48.3957 87.4952 48.0772 87.7061 47.8937L88.4724 47.2316C88.6838 47.0508 89.0034 47.0721 89.1842 47.2835C89.3683 47.4955 89.3448 47.8134 89.1329 47.9953L88.3681 48.6584C88.2725 48.7404 88.154 48.7835 88.0387 48.7835ZM84.9787 51.4312C84.8372 51.4312 84.6979 51.3716 84.5957 51.2564C84.4149 51.045 84.4357 50.7254 84.6471 50.5435L85.4135 49.8804C85.6238 49.6985 85.945 49.7209 86.1252 49.9328C86.3082 50.1431 86.2858 50.4627 86.0744 50.6457L85.3113 51.3088C85.2163 51.3908 85.0972 51.4312 84.9787 51.4312ZM81.9224 54.0799C81.7782 54.0799 81.6395 54.0204 81.5395 53.9051C81.3554 53.6937 81.3789 53.3742 81.5903 53.1923L82.3534 52.5302C82.5648 52.3472 82.8833 52.3685 83.0662 52.5816C83.252 52.7919 83.2268 53.1114 83.0154 53.2944L82.2513 53.9576C82.1562 54.0395 82.0388 54.0799 81.9224 54.0799ZM78.8607 56.7292C78.722 56.7292 78.5783 56.6691 78.4805 56.5555C78.2964 56.3441 78.3199 56.0229 78.5313 55.841L79.2944 55.1779C79.5064 54.9954 79.8259 55.0189 80.01 55.2292C80.1908 55.4406 80.1695 55.7613 79.9586 55.9437L79.1923 56.6069C79.095 56.6883 78.9787 56.7292 78.8607 56.7292ZM75.8017 59.3791C75.6619 59.3791 75.5204 59.3195 75.4204 59.2032C75.2374 58.9918 75.2609 58.6728 75.4718 58.4903L76.2382 57.8283C76.4496 57.6453 76.7669 57.6677 76.9499 57.8791C77.1318 58.091 77.1105 58.4089 76.8986 58.5925L76.1333 59.254C76.0382 59.3359 75.9219 59.3791 75.8017 59.3791ZM72.7438 62.0267C72.6029 62.0267 72.4614 61.9672 72.3615 61.853C72.1785 61.6416 72.2009 61.321 72.415 61.1391L73.1792 60.477C73.3873 60.2929 73.708 60.3153 73.8909 60.5284C74.075 60.7387 74.0515 61.0582 73.8396 61.2423L73.077 61.9044C72.9793 61.9874 72.8629 62.0267 72.7438 62.0267ZM69.6854 64.6766C69.5439 64.6766 69.4024 64.6176 69.3025 64.5012C69.1217 64.2904 69.1419 63.9708 69.3538 63.7878L70.1169 63.1258C70.3283 62.9439 70.649 62.9652 70.832 63.1771C71.015 63.3885 70.9926 63.707 70.7812 63.89L70.0159 64.552C69.9192 64.6351 69.8018 64.6766 69.6854 64.6766ZM66.6264 67.3259C66.4849 67.3259 66.3462 67.2663 66.244 67.15C66.0616 66.9397 66.0835 66.6196 66.2949 66.4366L67.0601 65.7734C67.2715 65.5932 67.5916 65.6145 67.773 65.8259C67.956 66.0373 67.9336 66.3574 67.7222 66.5393L66.9558 67.2008C66.8629 67.2838 66.7428 67.3259 66.6264 67.3259ZM63.5702 69.9746C63.4265 69.9746 63.2861 69.9151 63.184 69.7987C63.0032 69.5873 63.0245 69.2683 63.237 69.0859L64.0012 68.4238C64.2131 68.2408 64.5327 68.2632 64.714 68.4746C64.8976 68.6866 64.8735 69.0045 64.6632 69.188L63.899 69.8501C63.804 69.9331 63.6854 69.9746 63.5702 69.9746ZM60.5085 72.6223C60.3686 72.6223 60.225 72.5627 60.1272 72.4486C59.9442 72.2372 59.9666 71.9165 60.1785 71.7357L60.9422 71.0715C61.153 70.8896 61.471 70.912 61.6567 71.1239C61.8386 71.3342 61.8145 71.6549 61.6031 71.8368L60.84 72.4999C60.7428 72.5829 60.6265 72.6223 60.5085 72.6223ZM57.4484 75.2721C57.3096 75.2721 57.1682 75.2131 57.0682 75.0968C56.8852 74.8859 56.9076 74.5664 57.1196 74.3845L57.8848 73.7213C58.0962 73.5394 58.4147 73.5607 58.5977 73.7727C58.7785 73.9841 58.7583 74.3042 58.5464 74.4855L57.7816 75.1487C57.6866 75.2311 57.5675 75.2721 57.4484 75.2721ZM54.3921 77.9214C54.2507 77.9214 54.1092 77.8619 54.0092 77.7466C53.8251 77.5352 53.8486 77.2151 54.0606 77.0321L54.8259 76.3701C55.0351 76.1876 55.3557 76.2111 55.5387 76.4214C55.7195 76.6328 55.6993 76.9529 55.4879 77.1348L54.7237 77.798C54.6259 77.8799 54.5107 77.9214 54.3921 77.9214ZM51.3332 80.5701C51.1917 80.5701 51.0502 80.5106 50.9508 80.3954C50.7662 80.1829 50.7902 79.8638 51.0016 79.6825L51.7669 79.0205C51.9783 78.8375 52.2984 78.8588 52.4797 79.0718C52.6627 79.2832 52.6392 79.6006 52.4289 79.7847L51.6626 80.4467C51.567 80.5286 51.4484 80.5701 51.3332 80.5701ZM48.2742 83.2178C48.1316 83.2178 47.9901 83.1583 47.8907 83.0441C47.7099 82.8327 47.7312 82.5131 47.9415 82.3302L48.7057 81.6681C48.9193 81.4851 49.2372 81.5081 49.4197 81.7195C49.6043 81.9298 49.5803 82.2504 49.3689 82.4334L48.6036 83.0954C48.5085 83.1785 48.3894 83.2178 48.2742 83.2178ZM45.2141 85.8693C45.0732 85.8693 44.9339 85.8086 44.8317 85.6923C44.6509 85.4814 44.6711 85.1635 44.8825 84.9789L45.6489 84.3169C45.8598 84.135 46.1804 84.1568 46.3607 84.3682C46.5453 84.5796 46.5213 84.8997 46.3099 85.0811L45.5468 85.7431C45.4517 85.8267 45.3332 85.8693 45.2141 85.8693ZM42.1551 88.5169C42.0142 88.5169 41.8727 88.4574 41.7728 88.3421C41.5898 88.1307 41.6149 87.8112 41.8263 87.6276L42.5889 86.9656C42.8008 86.7832 43.1214 86.8055 43.3023 87.0169C43.4874 87.2283 43.4629 87.5484 43.2509 87.7314L42.4867 88.3935C42.3895 88.4765 42.2742 88.5169 42.1551 88.5169ZM39.0962 91.1657C38.9574 91.1657 38.8137 91.1051 38.716 90.992C38.5319 90.7795 38.5559 90.4599 38.7673 90.278L39.5299 89.6149C39.7418 89.433 40.0592 89.4543 40.246 89.6657C40.4263 89.8776 40.4061 90.1972 40.1919 90.3791L39.4283 91.0433C39.3305 91.1264 39.2152 91.1657 39.0962 91.1657ZM36.0377 93.8155C35.8984 93.8155 35.7559 93.7554 35.6559 93.6385C35.4729 93.4293 35.4969 93.1098 35.7073 92.9268L36.4736 92.2626C36.685 92.0834 37.0024 92.1036 37.187 92.3161C37.3673 92.5275 37.346 92.847 37.1357 93.0278L36.3693 93.6899C36.2743 93.7729 36.1552 93.8155 36.0377 93.8155ZM32.9798 96.4632C32.8384 96.4632 32.6969 96.4053 32.5975 96.2878C32.4139 96.0781 32.4369 95.7574 32.6483 95.5744L33.4152 94.9129C33.625 94.7294 33.944 94.7534 34.1264 94.9637C34.3083 95.1751 34.287 95.4963 34.0756 95.6766L33.3125 96.3408C33.2153 96.4222 33.0989 96.4632 32.9798 96.4632ZM29.9209 99.1125C29.7799 99.1125 29.6385 99.054 29.5385 98.9377C29.3555 98.7263 29.3779 98.4067 29.5893 98.2259L30.3535 97.5617C30.5638 97.3787 30.885 97.4033 31.0674 97.6152C31.251 97.8239 31.228 98.144 31.0144 98.327L30.2513 98.989C30.1563 99.0721 30.0378 99.1125 29.9209 99.1125ZM26.8624 101.76C26.721 101.76 26.5795 101.702 26.4795 101.586C26.2976 101.375 26.3189 101.054 26.5303 100.874L27.2956 100.212C27.5075 100.029 27.8282 100.05 28.009 100.263C28.192 100.472 28.1696 100.793 27.9577 100.976L27.1913 101.638C27.0962 101.721 26.9788 101.76 26.8624 101.76ZM23.8033 104.412C23.6619 104.412 23.5216 104.351 23.4206 104.234C23.2386 104.023 23.26 103.705 23.4717 103.522L24.2369 102.861C24.4485 102.678 24.7682 102.7 24.9499 102.912C25.133 103.123 25.1094 103.443 24.8988 103.623L24.1348 104.285C24.0398 104.368 23.9208 104.412 23.8033 104.412ZM20.7445 107.059C20.6019 107.059 20.4604 106.999 20.3629 106.886C20.1775 106.674 20.2037 106.353 20.4139 106.17L21.178 105.508C21.3873 105.325 21.7071 105.349 21.8899 105.559C22.0741 105.771 22.0504 106.089 21.8388 106.275L21.0759 106.936C20.9783 107.02 20.862 107.059 20.7445 107.059ZM17.6842 109.708C17.5453 109.708 17.4015 109.65 17.304 109.533C17.1209 109.322 17.1437 109.002 17.355 108.821L18.1191 108.157C18.3319 107.976 18.6504 107.997 18.8335 108.209C19.0152 108.42 18.9939 108.74 18.7822 108.923L18.017 109.585C17.9195 109.668 17.8031 109.708 17.6842 109.708Z" fill="white"/>
<path d="M19.3387 19.6445C19.2198 19.6445 19.1046 19.6039 19.0071 19.5207L18.243 18.8575C18.0314 18.6759 18.0111 18.3561 18.1919 18.1434C18.3736 17.9332 18.6933 17.9118 18.905 18.0924L19.6701 18.7554C19.8818 18.9386 19.9055 19.2594 19.7212 19.4696C19.6214 19.5849 19.4799 19.6445 19.3387 19.6445ZM22.3976 22.2932C22.2821 22.2932 22.1635 22.2516 22.0682 22.1686L21.3041 21.5066C21.0914 21.3246 21.0677 21.0063 21.2508 20.7936C21.4373 20.5808 21.7545 20.5606 21.9661 20.7425L22.7302 21.4045C22.9407 21.5884 22.9643 21.907 22.7801 22.1175C22.6814 22.235 22.5388 22.2932 22.3976 22.2932ZM25.4563 24.9411C25.3411 24.9411 25.2224 24.9018 25.1271 24.8185L24.3619 24.1568C24.1502 23.9737 24.1266 23.654 24.3108 23.4438C24.4914 23.2321 24.8111 23.2085 25.0227 23.3913L25.789 24.0544C25.9998 24.2352 26.0211 24.5561 25.8403 24.7674C25.7404 24.8815 25.5989 24.9411 25.4563 24.9411ZM28.5164 27.591C28.3979 27.591 28.2788 27.5494 28.1837 27.4675L27.4206 26.8044C27.2092 26.6224 27.1868 26.303 27.3698 26.0925C27.5501 25.8797 27.8713 25.8583 28.0816 26.0403L28.848 26.7023C29.0594 26.8851 29.0796 27.2048 28.8988 27.4153C28.7972 27.5317 28.6579 27.591 28.5164 27.591ZM31.5754 30.2401C31.4563 30.2401 31.341 30.1986 31.2438 30.1161L30.4796 29.453C30.2682 29.2716 30.2453 28.9515 30.4288 28.7401C30.6118 28.5298 30.9324 28.5063 31.1416 28.6893L31.9048 29.3508C32.1162 29.5344 32.1407 29.8539 31.9556 30.0642C31.8583 30.1806 31.7168 30.2401 31.5754 30.2401ZM34.6343 32.8889C34.5153 32.8889 34.4 32.8473 34.3028 32.7654L33.5364 32.1034C33.3255 31.9193 33.3042 31.6008 33.485 31.3905C33.6691 31.1764 33.9887 31.1551 34.2006 31.3392L34.9632 32.0001C35.1751 32.1831 35.1986 32.5016 35.0145 32.7141C34.9168 32.8293 34.7731 32.8889 34.6343 32.8889ZM37.6933 35.5365C37.5753 35.5365 37.4568 35.4972 37.3618 35.4153L36.5954 34.7521C36.3845 34.5691 36.3632 34.2485 36.5451 34.0382C36.7281 33.8279 37.0455 33.8038 37.2569 33.9868L38.0233 34.65C38.2341 34.8319 38.2576 35.1514 38.0746 35.3639C37.9746 35.477 37.8332 35.5365 37.6933 35.5365ZM40.7512 38.1864C40.6343 38.1864 40.5158 38.1465 40.4202 38.0629L39.6549 37.3998C39.4435 37.2179 39.42 36.8983 39.6041 36.6869C39.7871 36.4755 40.1077 36.4537 40.3159 36.6361L41.0822 37.2976C41.2942 37.4817 41.3166 37.8002 41.1336 38.0121C41.0336 38.1274 40.8949 38.1864 40.7512 38.1864ZM43.8096 40.8356C43.6933 40.8356 43.5759 40.7952 43.4792 40.7117L42.7139 40.0501C42.5025 39.8672 42.4801 39.5471 42.6631 39.3357C42.8461 39.1254 43.1667 39.103 43.3781 39.2849L44.1412 39.9464C44.3526 40.131 44.3756 40.4505 44.1926 40.6609C44.0926 40.7761 43.9511 40.8356 43.8096 40.8356ZM46.8686 43.4844C46.7523 43.4844 46.6321 43.444 46.5392 43.3609L45.7729 42.6989C45.5615 42.5159 45.5385 42.1974 45.7221 41.986C45.9034 41.773 46.2235 41.7528 46.4349 41.9347L47.2002 42.5957C47.4116 42.7786 47.4329 43.0982 47.251 43.3096C47.1516 43.4249 47.0101 43.4844 46.8686 43.4844ZM49.9271 46.1331C49.8096 46.1331 49.6911 46.0927 49.596 46.0097L48.8318 45.3482C48.6215 45.1657 48.5975 44.8451 48.781 44.6348C48.9624 44.4223 49.2819 44.401 49.4939 44.5824L50.2603 45.2455C50.4706 45.4274 50.4919 45.7486 50.31 45.9584C50.2089 46.0736 50.0685 46.1331 49.9271 46.1331ZM52.986 48.7835C52.8686 48.7835 52.7522 48.7404 52.655 48.6584L51.8919 47.9953C51.68 47.8134 51.6565 47.4955 51.8406 47.2835C52.0214 47.0721 52.3409 47.0508 52.5529 47.2316L53.3165 47.8937C53.5279 48.0772 53.553 48.3957 53.3679 48.6065C53.2701 48.724 53.1286 48.7835 52.986 48.7835ZM56.0467 51.4312C55.9276 51.4312 55.8112 51.3908 55.7134 51.3088L54.9487 50.6457C54.7367 50.4627 54.7165 50.1431 54.8973 49.9328C55.0803 49.7209 55.401 49.6985 55.6113 49.8804L56.3755 50.5435C56.5869 50.7254 56.6098 51.045 56.4268 51.2564C56.3291 51.3716 56.1854 51.4312 56.0467 51.4312ZM59.1056 54.0799C58.9844 54.0799 58.8686 54.0395 58.7735 53.9576L58.0071 53.2944C57.7957 53.1114 57.7755 52.7919 57.9558 52.5816C58.1393 52.3685 58.46 52.3472 58.6692 52.5302L59.4345 53.1923C59.6464 53.3742 59.6699 53.6937 59.4858 53.9051C59.3858 54.0204 59.2444 54.0799 59.1056 54.0799ZM62.1619 56.7292C62.0466 56.7292 61.9281 56.6883 61.8325 56.6069L61.0683 55.9437C60.8585 55.7613 60.8323 55.4406 61.0175 55.2292C61.1994 55.0189 61.5189 54.9954 61.7303 55.1779L62.4935 55.841C62.7048 56.0229 62.7289 56.3441 62.5443 56.5555C62.4448 56.6691 62.3055 56.7292 62.1619 56.7292ZM65.2209 59.3791C65.1056 59.3791 64.9865 59.3359 64.8915 59.254L64.1262 58.5925C63.9148 58.4089 63.8907 58.091 64.0754 57.8791C64.2578 57.6677 64.5752 57.6453 64.7893 57.8283L65.5535 58.4903C65.7638 58.6728 65.7851 58.9918 65.6043 59.2032C65.5049 59.3195 65.3634 59.3791 65.2209 59.3791ZM68.2804 62.0267C68.1618 62.0267 68.0428 61.9874 67.9504 61.9044L67.1852 61.2423C66.9738 61.0582 66.9497 60.7387 67.1338 60.5284C67.3146 60.3153 67.6353 60.2929 67.8456 60.477L68.6125 61.1391C68.8239 61.321 68.8441 61.6416 68.6633 61.853C68.5612 61.9672 68.4219 62.0267 68.2809 62.0267H68.2804ZM71.3399 64.6766C71.2208 64.6766 71.1056 64.6351 71.0083 64.552L70.2441 63.89C70.0322 63.707 70.0098 63.3885 70.1928 63.1771C70.3758 62.9652 70.6942 62.9439 70.9062 63.1258L71.6687 63.7878C71.8829 63.9708 71.9053 64.2904 71.7223 64.5012C71.6223 64.6176 71.4808 64.6766 71.3394 64.6766H71.3399ZM74.3983 67.3259C74.2798 67.3259 74.1645 67.2838 74.0668 67.2008L73.3031 66.5393C73.089 66.3574 73.0688 66.0373 73.249 65.8259C73.4348 65.6145 73.7532 65.5932 73.9646 65.7734L74.7277 66.4366C74.9391 66.6196 74.9632 66.9397 74.7791 67.15C74.6813 67.2663 74.5376 67.3259 74.3983 67.3259ZM77.4573 69.9746C77.3399 69.9746 77.2208 69.9331 77.1258 69.8501L76.3594 69.188C76.1491 69.0045 76.1278 68.6866 76.308 68.4746C76.4926 68.2632 76.81 68.2408 77.0214 68.4238L77.7878 69.0859C77.9981 69.2683 78.0221 69.5873 77.8391 69.7987C77.7392 69.9151 77.5966 69.9746 77.4573 69.9746ZM80.5152 72.6223C80.3988 72.6223 80.2798 72.5829 80.1847 72.4999L79.4216 71.8368C79.2102 71.6549 79.1867 71.3342 79.3708 71.1239C79.5511 70.912 79.8723 70.8896 80.0826 71.0715L80.8468 71.7357C81.0604 71.9165 81.0811 72.2372 80.9003 72.4486C80.7982 72.5627 80.6589 72.6223 80.5152 72.6223ZM83.5736 75.2721C83.4573 75.2721 83.3388 75.2311 83.2437 75.1487L82.4806 74.4855C82.267 74.3042 82.2441 73.9841 82.4271 73.7727C82.6101 73.5607 82.9313 73.5394 83.1416 73.7213L83.9058 74.3845C84.1171 74.5664 84.1395 74.8859 83.9566 75.0968C83.8566 75.2131 83.7151 75.2721 83.5736 75.2721ZM86.6326 77.9214C86.5163 77.9214 86.3988 77.8799 86.3038 77.798L85.5374 77.1348C85.3254 76.9529 85.3031 76.6328 85.486 76.4214C85.6669 76.2111 85.9875 76.1876 86.1989 76.3701L86.9647 77.0321C87.1756 77.2151 87.1974 77.5352 87.0155 77.7466C86.9156 77.8619 86.7741 77.9214 86.6326 77.9214ZM89.6916 80.5701C89.5742 80.5701 89.4573 80.5286 89.36 80.4467L88.5964 79.7847C88.3855 79.6006 88.362 79.2832 88.545 79.0718C88.7269 78.8588 89.0465 78.8375 89.2579 79.0205L90.0232 79.6825C90.2346 79.8638 90.2586 80.1829 90.0745 80.3954C89.9745 80.5106 89.8331 80.5701 89.6916 80.5701ZM92.7506 83.2178C92.6331 83.2178 92.5162 83.1785 92.419 83.0954L91.6564 82.4334C91.4445 82.2504 91.421 81.9298 91.6051 81.7195C91.7881 81.5081 92.1076 81.4851 92.3169 81.6681L93.0811 82.3302C93.2914 82.5131 93.3176 82.8327 93.1324 83.0441C93.0346 83.1583 92.8931 83.2178 92.7506 83.2178ZM95.8106 85.8693C95.6921 85.8693 95.5752 85.8267 95.478 85.7431L94.7127 85.0811C94.5013 84.8997 94.48 84.5796 94.6613 84.3682C94.8443 84.1568 95.1655 84.135 95.3758 84.3169L96.14 84.9789C96.3514 85.1635 96.3738 85.4814 96.1908 85.6923C96.0936 85.8086 95.9499 85.8693 95.8106 85.8693ZM98.8696 88.5169C98.7505 88.5169 98.6331 88.4765 98.538 88.3935L97.7711 87.7314C97.5603 87.5484 97.5401 87.2283 97.7203 87.0169C97.9033 86.8055 98.2245 86.7832 98.4332 86.9656L99.2012 87.6276C99.4126 87.8112 99.4328 88.1307 99.252 88.3421C99.1498 88.4574 99.0111 88.5169 98.8696 88.5169ZM101.926 91.1657C101.81 91.1657 101.692 91.1264 101.597 91.0433L100.833 90.3791C100.621 90.1972 100.596 89.8776 100.782 89.6657C100.963 89.4543 101.283 89.433 101.495 89.6149L102.258 90.278C102.469 90.4599 102.493 90.7795 102.309 90.992C102.209 91.1051 102.07 91.1657 101.926 91.1657ZM104.985 93.8155C104.87 93.8155 104.751 93.7729 104.656 93.6899L103.889 93.0278C103.679 92.847 103.655 92.5275 103.838 92.3161C104.025 92.1036 104.342 92.0834 104.554 92.2626L105.318 92.9268C105.528 93.1098 105.552 93.4293 105.369 93.6385C105.269 93.7554 105.126 93.8155 104.985 93.8155ZM108.045 96.4632C107.929 96.4632 107.807 96.4222 107.714 96.3408L106.95 95.6766C106.738 95.4963 106.714 95.1751 106.898 94.9637C107.079 94.7534 107.4 94.7294 107.61 94.9129L108.376 95.5744C108.588 95.7574 108.608 96.0781 108.428 96.2878C108.328 96.4053 108.186 96.4632 108.045 96.4632ZM111.104 99.1125C110.985 99.1125 110.868 99.0721 110.771 98.989L110.008 98.327C109.797 98.144 109.774 97.8239 109.957 97.6152C110.14 97.4033 110.459 97.3787 110.67 97.5617L111.435 98.2259C111.647 98.4067 111.67 98.7263 111.487 98.9377C111.387 99.054 111.245 99.1125 111.104 99.1125ZM114.163 101.76C114.044 101.76 113.929 101.721 113.831 101.638L113.067 100.976C112.856 100.793 112.833 100.472 113.016 100.263C113.199 100.05 113.52 100.029 113.729 100.212L114.492 100.874C114.704 101.054 114.73 101.375 114.543 101.586C114.446 101.702 114.304 101.76 114.163 101.76ZM117.222 104.412C117.104 104.412 116.988 104.368 116.89 104.285L116.123 103.623C115.914 103.443 115.892 103.123 116.073 102.912C116.257 102.7 116.577 102.678 116.788 102.861L117.552 103.522C117.763 103.705 117.786 104.023 117.603 104.234C117.505 104.351 117.361 104.412 117.222 104.412ZM120.28 107.059C120.163 107.059 120.044 107.02 119.949 106.936L119.186 106.275C118.975 106.089 118.951 105.771 119.135 105.559C119.316 105.349 119.635 105.325 119.847 105.508L120.614 106.17C120.824 106.353 120.845 106.674 120.664 106.886C120.562 106.999 120.423 107.059 120.28 107.059ZM123.338 109.708C123.222 109.708 123.103 109.668 123.008 109.585L122.245 108.923C122.033 108.74 122.009 108.42 122.194 108.209C122.375 107.997 122.695 107.976 122.906 108.157L123.67 108.821C123.881 109.002 123.904 109.322 123.721 109.533C123.621 109.65 123.482 109.708 123.338 109.708Z" fill="white"/>
<path d="M123.404 2.02269C117.785 2.02269 112.56 5.0471 109.765 9.91475C107.675 13.5535 107.129 17.7877 108.225 21.8389C109.32 25.89 111.927 29.2711 115.566 31.3605C117.947 32.7266 120.647 33.4471 123.373 33.4471V34.4593L123.397 33.4471C129.006 33.44 134.223 30.4177 137.012 25.5586C139.102 21.9185 139.65 17.6856 138.554 13.6345C137.458 9.58307 134.85 6.20219 131.21 4.11187C128.831 2.74516 126.132 2.02269 123.404 2.02269ZM123.373 35.471C120.295 35.471 117.246 34.6565 114.559 33.1145C110.451 30.7574 107.51 26.9396 106.272 22.3676C105.036 17.7937 105.652 13.0142 108.011 8.90714C111.165 3.41426 117.063 0 123.404 0C126.485 0 129.534 0.815382 132.217 2.35667C136.326 4.71678 139.272 8.53378 140.507 13.1054C141.743 17.6773 141.125 22.458 138.765 26.5662C135.617 32.052 129.731 35.4639 123.399 35.471H123.373Z" fill="white"/>
<path d="M123.371 10.6762C120.851 10.6762 118.506 12.0298 117.257 14.2094C115.325 17.5737 116.489 21.8815 119.855 23.8138C120.936 24.4353 122.11 24.749 123.342 24.749V25.0023L123.352 24.749C125.872 24.7456 128.211 23.3908 129.459 21.2135C131.39 17.8492 130.226 13.5403 126.863 11.608C125.8 10.9985 124.592 10.6762 123.371 10.6762ZM123.341 25.2553C122.02 25.2553 120.763 24.9167 119.602 24.2511C115.998 22.181 114.748 17.5629 116.819 13.9575C118.16 11.6211 120.672 10.1699 123.371 10.1699C124.681 10.1699 125.973 10.5159 127.112 11.1696C130.72 13.2408 131.968 17.86 129.898 21.4657C128.561 23.7996 126.05 25.2518 123.352 25.2553H123.341Z" fill="white"/>
<path d="M17.7472 2.02269C12.1274 2.02269 6.89862 5.0471 4.10583 9.91475C-0.205691 17.4263 2.39575 27.0476 9.9062 31.3605C12.2877 32.7266 14.9878 33.4471 17.7127 33.4471V34.4593L17.7378 33.4471C23.3456 33.44 28.5636 30.4177 31.3505 25.5586C33.4421 21.9185 33.99 17.6856 32.892 13.6345C31.7984 9.58307 29.1901 6.20219 25.5499 4.11187C23.171 2.74516 20.4744 2.02269 17.7472 2.02269ZM17.7127 35.471C14.635 35.471 11.5867 34.6565 8.89969 33.1145C0.420636 28.2456 -2.51817 17.3873 2.35183 8.90714C5.5057 3.41426 11.4035 0 17.7472 0C20.8252 0 23.8744 0.815382 26.5578 2.35667C30.6661 4.71678 33.6098 8.53378 34.8465 13.1054C36.0837 17.6773 35.4659 22.458 33.1056 26.5662C29.9581 32.052 24.0717 35.4639 17.7378 35.471H17.7127Z" fill="white"/>
<path d="M17.7244 10.6762C15.2037 10.6762 12.859 12.0298 11.6101 14.2094C9.6778 17.5737 10.8426 21.8815 14.2081 23.8138C15.2893 24.4353 16.4635 24.749 17.6922 24.749V25.0023L17.7053 24.749C20.2246 24.7456 22.5633 23.3908 23.8126 21.2135C25.7437 17.8492 24.5789 13.5403 21.2157 11.608C20.1522 10.9985 18.9449 10.6762 17.7244 10.6762ZM17.6922 25.2553C16.3757 25.2553 15.1159 24.9167 13.9571 24.2511C10.348 22.181 9.09911 17.5629 11.1717 13.9575C12.5134 11.6211 15.0232 10.1699 17.7244 10.1699C19.0339 10.1699 20.3258 10.5159 21.4652 11.1696C25.0732 13.2408 26.3211 17.86 24.2509 21.4657C22.9116 23.7996 20.4029 25.2518 17.7053 25.2553H17.6922Z" fill="white"/>
<path d="M123.404 93.5517C117.785 93.5517 112.56 96.5762 109.765 101.444C107.677 105.08 107.129 109.317 108.225 113.367C109.32 117.417 111.927 120.799 115.566 122.888C117.95 124.255 120.65 124.976 123.373 124.976V125.988L123.397 124.976C129.006 124.969 134.223 121.946 137.012 117.088C139.102 113.448 139.65 109.212 138.554 105.162C137.458 101.111 134.85 97.7299 131.21 95.6411C128.831 94.2755 126.132 93.5517 123.404 93.5517ZM123.373 127C120.295 127 117.249 126.186 114.559 124.642C110.451 122.285 107.51 118.468 106.272 113.896C105.036 109.323 105.652 104.544 108.011 100.436C111.165 94.9424 117.063 91.5289 123.404 91.5289C126.485 91.5289 129.532 92.3445 132.217 93.886C136.326 96.2447 139.272 100.063 140.507 104.634C141.743 109.205 141.125 113.986 138.765 118.092C135.617 123.577 129.731 126.989 123.399 127H123.373Z" fill="white"/>
<path d="M123.369 102.205C120.851 102.205 118.506 103.559 117.257 105.736C115.326 109.102 116.489 113.409 119.855 115.343C120.937 115.962 122.111 116.278 123.342 116.278V116.531L123.352 116.278C125.869 116.273 128.211 114.92 129.459 112.743C130.395 111.116 130.638 109.219 130.147 107.402C129.654 105.588 128.49 104.071 126.862 103.138C125.8 102.527 124.59 102.205 123.369 102.205ZM123.342 116.784C122.021 116.784 120.765 116.445 119.602 115.782C115.998 113.711 114.748 109.09 116.819 105.486C118.16 103.15 120.67 101.699 123.369 101.699C124.681 101.699 125.973 102.045 127.113 102.7C130.721 104.77 131.968 109.389 129.898 112.994C128.561 115.328 126.05 116.78 123.352 116.784H123.342Z" fill="white"/>
<path d="M17.7449 93.5517C12.1248 93.5517 6.89835 96.5762 4.10583 101.444C-0.205691 108.954 2.39799 118.575 9.9062 122.888C12.2902 124.255 14.9878 124.976 17.7127 124.976V125.988L17.7378 124.976C23.3456 124.969 28.5636 121.946 31.3505 117.088C33.4421 113.448 33.99 109.212 32.892 105.162C31.7984 101.111 29.1901 97.7299 25.5499 95.6411C23.171 94.2755 20.4744 93.5517 17.7449 93.5517ZM17.7127 127C14.635 127 11.5867 126.186 8.89969 124.642C0.420636 119.775 -2.51817 108.915 2.35183 100.436C5.5057 94.9424 11.4035 91.5289 17.7449 91.5289C20.8252 91.5289 23.8744 92.3445 26.5578 93.886C30.6661 96.2447 33.6098 100.063 34.8465 104.634C36.0837 109.205 35.4659 113.986 33.1056 118.092C29.9581 123.577 24.0717 126.989 17.7378 127H17.7127Z" fill="white"/>
<path d="M17.7213 102.205C15.2032 102.205 12.8585 103.559 11.6095 105.736C9.67839 109.102 10.8421 113.409 14.2075 115.343C15.2913 115.962 16.463 116.278 17.6917 116.278V116.531L17.7048 116.278C20.2218 116.273 22.5628 114.92 23.812 112.743C24.7446 111.116 24.9908 109.219 24.4988 107.402C24.0068 105.588 22.8423 104.071 21.214 103.138C20.1516 102.527 18.942 102.205 17.7213 102.205ZM17.6917 116.784C16.3752 116.784 15.1176 116.445 13.9565 115.782C10.3501 113.711 9.09855 109.09 11.1712 105.486C12.5128 103.15 15.0226 101.699 17.7213 101.699C19.0333 101.699 20.3253 102.045 21.4647 102.7C25.0726 104.77 26.3205 109.389 24.2504 112.994C22.911 115.328 20.4023 116.78 17.7048 116.784H17.6917Z" fill="white"/>
</svg>
