<svg viewBox="0 0 124 137" fill="none" xmlns="http://www.w3.org/2000/svg">
<path d="M17.7926 44.0059L61.77 120.176L105.749 44.0059H17.7926ZM61.77 124.165C61.2958 124.165 60.856 123.913 60.62 123.501L14.3383 43.3418C14.1011 42.9314 14.1011 42.4239 14.3383 42.0119C14.5754 41.6005 15.0155 41.3473 15.4908 41.3473H108.05C108.526 41.3473 108.964 41.6005 109.202 42.0119C109.441 42.4239 109.441 42.9314 109.202 43.3418L62.9216 123.501C62.6845 123.913 62.2464 124.165 61.77 124.165Z" fill="white"/>
<path d="M17.7915 94.4142H105.748L61.7699 18.2439L17.7915 94.4142ZM108.049 97.0729H15.4897C15.0144 97.0729 14.5754 96.8208 14.3383 96.4093C14.1011 95.9979 14.1011 95.492 14.3383 95.0795L60.6189 14.9198C60.8549 14.5097 61.2957 14.2543 61.7699 14.2543C62.2453 14.2543 62.6834 14.5097 62.9205 14.9198L109.202 95.0795C109.44 95.492 109.44 95.9979 109.202 96.4093C108.964 96.8208 108.527 97.0729 108.049 97.0729Z" fill="white"/>
<path d="M40.292 56.8654L61.7904 94.1016L83.2909 56.8654H40.292ZM61.7904 95.4304C61.6321 95.4304 61.4861 95.346 61.4078 95.2083L39.1415 56.6432C39.0627 56.5061 39.0627 56.3373 39.1415 56.2007C39.2182 56.0619 39.367 55.9797 39.5241 55.9797H84.0577C84.216 55.9797 84.3615 56.0619 84.4414 56.2007C84.5203 56.3373 84.5203 56.5061 84.4414 56.6432L62.1752 95.2083C62.0947 95.346 61.9497 95.4304 61.7904 95.4304Z" fill="white"/>
<path d="M40.2933 81.5037H83.2905L61.7905 44.2658L40.2933 81.5037ZM84.0573 82.3888H39.5231C39.366 82.3888 39.22 82.3055 39.1411 82.1678C39.0628 82.0312 39.0628 81.8635 39.1411 81.7258L61.4085 43.1586C61.5656 42.8837 62.0171 42.8837 62.1753 43.1586L84.4416 81.7258C84.5221 81.8635 84.5221 82.0312 84.4416 82.1678C84.3627 82.3055 84.2167 82.3888 84.0573 82.3888Z" fill="white"/>
<path d="M15.5595 82.0123C10.6364 82.0123 6.05727 84.6604 3.60698 88.9254C1.77726 92.1149 1.29657 95.8258 2.25791 99.3761C3.21708 102.925 5.50184 105.889 8.6913 107.717C10.7774 108.916 13.1423 109.549 15.5306 109.549V110.436L15.5509 109.549C20.4676 109.542 25.0392 106.893 27.4831 102.635C29.315 99.4467 29.7946 95.7352 28.8343 92.1854C27.8719 88.6372 25.5882 85.6743 22.3977 83.8436C20.3138 82.6459 17.9489 82.0123 15.5595 82.0123ZM15.5306 111.322C12.8325 111.322 10.1621 110.608 7.80798 109.257C4.20939 107.19 1.62984 103.844 0.544625 99.8387C-0.537426 95.8324 0.00412661 91.644 2.06884 88.0431C4.83318 83.23 10.0041 80.2405 15.5595 80.2405C18.2565 80.2405 20.929 80.954 23.2811 82.305C26.8807 84.3733 29.4603 87.7177 30.5444 91.724C31.6277 95.7297 31.088 99.9186 29.0223 103.517C26.2623 108.324 21.0999 111.314 15.5531 111.322H15.5306Z" fill="white"/>
<path d="M15.522 89.8122C13.3953 89.8122 11.4129 90.9538 10.3576 92.7945C8.72864 95.637 9.71452 99.2773 12.5558 100.908C13.469 101.435 14.4592 101.7 15.4985 101.7V102.144L15.5081 101.7C17.6338 101.698 19.6098 100.553 20.6672 98.7154C21.4587 97.3405 21.6628 95.738 21.2483 94.2032C20.8339 92.6685 19.8469 91.3886 18.4722 90.5996C17.5739 90.0859 16.5549 89.8122 15.522 89.8122ZM15.4985 102.587C14.3033 102.587 13.1636 102.281 12.1136 101.676C8.84825 99.8015 7.71605 95.6197 9.58847 92.3531C10.8051 90.2375 13.0781 88.9254 15.522 88.9254C16.7076 88.9254 17.8826 89.2386 18.9144 89.8316C20.4942 90.7384 21.6275 92.2093 22.1049 93.9728C22.5803 95.7352 22.3442 97.5754 21.4363 99.1562C20.2208 101.269 17.9499 102.584 15.5092 102.587H15.4985Z" fill="white"/>
<path d="M108.073 82.0123C103.149 82.0123 98.5708 84.6604 96.1204 88.9254C94.2908 92.1149 93.81 95.8258 94.7717 99.3761C95.7306 102.925 98.0156 105.889 101.205 107.717C103.29 108.916 105.656 109.549 108.044 109.549V110.436L108.064 109.549C112.98 109.542 117.553 106.893 119.997 102.635C121.829 99.4467 122.308 95.7352 121.348 92.1854C120.386 88.6372 118.102 85.6743 114.911 83.8436C112.827 82.6459 110.462 82.0123 108.073 82.0123ZM108.044 111.322C105.346 111.322 102.676 110.608 100.322 109.257C96.7229 107.19 94.1437 103.844 93.0581 99.8387C91.9759 95.8324 92.5167 91.644 94.5812 88.0431C97.347 83.23 102.517 80.2405 108.073 80.2405C110.77 80.2405 113.441 80.954 115.795 82.305C119.395 84.3733 121.974 87.7177 123.058 91.724C124.141 95.7297 123.601 99.9186 121.535 103.517C118.775 108.324 113.614 111.314 108.066 111.322H108.044Z" fill="white"/>
<path d="M108.035 89.8122C105.908 89.8122 103.926 90.9538 102.871 92.7945C101.242 95.637 102.228 99.2773 105.068 100.908C105.983 101.435 106.973 101.7 108.012 101.7V102.144L108.02 101.7C110.147 101.698 112.123 100.553 113.181 98.7154C113.97 97.3405 114.176 95.738 113.761 94.2032C113.347 92.6685 112.36 91.3886 110.986 90.5996C110.087 90.0859 109.067 89.8122 108.035 89.8122ZM108.012 102.587C106.817 102.587 105.677 102.281 104.627 101.676C101.362 99.8015 100.229 95.6197 102.102 92.3531C103.318 90.2375 105.591 88.9254 108.035 88.9254C109.221 88.9254 110.396 89.2386 111.427 89.8316C113.008 90.7384 114.14 92.2093 114.618 93.9728C115.094 95.7352 114.857 97.5754 113.95 99.1562C112.733 101.269 110.463 102.584 108.023 102.587H108.012Z" fill="white"/>
<path d="M15.5595 28.8665C10.6364 28.8665 6.05727 31.5151 3.60698 35.7813C1.77726 38.9685 1.29657 42.6805 2.25791 46.2297C3.21708 49.7785 5.50184 52.7425 8.6913 54.5721C10.7796 55.7698 13.1433 56.4028 15.5306 56.4028V57.2896L15.5509 56.4028C20.4676 56.3956 25.0392 53.7464 27.4831 49.4892C29.315 46.2997 29.7946 42.59 28.8343 39.0385C27.8719 35.4897 25.5882 32.5268 22.3977 30.6972C20.3138 29.5006 17.9489 28.8665 15.5595 28.8665ZM15.5306 58.1752C12.8347 58.1752 10.1654 57.4617 7.80798 56.1102C4.20939 54.0424 1.62984 50.698 0.544625 46.6923C-0.537426 42.686 0.00412661 38.4976 2.06884 34.8978C4.83318 30.0853 10.0041 27.0932 15.5595 27.0932C18.2565 27.0932 20.929 27.8087 23.2811 29.158C26.8807 31.2269 29.4603 34.5702 30.5444 38.577C31.6277 42.5833 31.088 46.7728 29.0223 50.3709C26.2623 55.1768 21.102 58.1675 15.5531 58.1752H15.5306Z" fill="white"/>
<path d="M15.522 36.7585C13.3953 36.7585 11.4129 37.9002 10.3576 39.7409C8.72864 42.5855 9.71452 46.2236 12.5558 47.8567C13.469 48.3808 14.4592 48.6479 15.4985 48.6479V49.0905L15.5081 48.6479C17.6348 48.6446 19.612 47.4996 20.6672 45.6617C21.4587 44.2869 21.6628 42.6844 21.2483 41.1496C20.8339 39.6148 19.8469 38.336 18.4722 37.5459C17.5739 37.0323 16.5549 36.7585 15.522 36.7585ZM15.4985 49.5336C14.3033 49.5336 13.1636 49.2282 12.1136 48.6246C8.84825 46.75 7.71605 42.5672 9.58847 39.3005C10.803 37.185 13.0781 35.8718 15.522 35.8718C16.7076 35.8718 17.8826 36.186 18.9144 36.778C20.4942 37.6847 21.6275 39.1556 22.1049 40.9192C22.5803 42.6816 22.3442 44.5217 21.4363 46.1026C20.2229 48.2165 17.951 49.5303 15.5092 49.5336H15.4985Z" fill="white"/>
<path d="M108.073 28.8665C103.149 28.8665 98.5708 31.5151 96.1204 35.7813C94.2908 38.9685 93.81 42.6805 94.7717 46.2297C95.7306 49.7785 98.0156 52.7425 101.205 54.5721C103.292 55.7698 105.657 56.4028 108.044 56.4028V57.2896L108.064 56.4028C112.98 56.3956 117.553 53.7464 119.997 49.4892C121.829 46.2997 122.308 42.59 121.348 39.0385C120.386 35.4897 118.102 32.5268 114.911 30.6972C112.827 29.5006 110.462 28.8665 108.073 28.8665ZM108.044 58.1752C105.348 58.1752 102.678 57.4617 100.322 56.1102C96.7229 54.0424 94.1437 50.698 93.0581 46.6923C91.9759 42.686 92.5167 38.4976 94.5812 34.8978C97.347 30.0853 102.517 27.0932 108.073 27.0932C110.77 27.0932 113.441 27.8087 115.795 29.158C119.395 31.2269 121.974 34.5702 123.058 38.577C124.141 42.5833 123.601 46.7728 121.535 50.3709C118.775 55.1768 113.616 58.1675 108.066 58.1752H108.044Z" fill="white"/>
<path d="M108.035 36.7585C105.908 36.7585 103.926 37.9002 102.871 39.7409C101.242 42.5855 102.228 46.2236 105.068 47.8567C105.983 48.3808 106.973 48.6479 108.012 48.6479V49.0905L108.02 48.6479C110.148 48.6446 112.126 47.4996 113.181 45.6617C113.97 44.2869 114.176 42.6844 113.761 41.1496C113.347 39.6148 112.36 38.336 110.986 37.5459C110.087 37.0323 109.067 36.7585 108.035 36.7585ZM108.012 49.5336C106.817 49.5336 105.677 49.2282 104.627 48.6246C101.362 46.75 100.229 42.5672 102.102 39.3005C103.316 37.185 105.591 35.8718 108.035 35.8718C109.221 35.8718 110.396 36.186 111.427 36.778C113.008 37.6847 114.14 39.1556 114.618 40.9192C115.094 42.6816 114.857 44.5217 113.95 46.1026C112.736 48.2165 110.465 49.5303 108.023 49.5336H108.012Z" fill="white"/>
<path d="M61.8154 1.77203C56.8913 1.77203 52.312 4.4221 49.8638 8.68828C48.0331 11.8756 47.5528 15.5884 48.5151 19.1368C49.4729 22.6852 51.7601 25.6493 54.9484 27.4801C57.0346 28.6755 59.3995 29.3085 61.7877 29.3085V30.1964L61.8082 29.3085C66.7235 29.3024 71.295 26.6533 73.7404 22.3946C75.5733 19.2062 76.0514 15.4955 75.0902 11.945C74.1302 8.39666 71.8441 5.43363 68.6547 3.60286C66.5708 2.40653 64.2048 1.77203 61.8154 1.77203ZM61.7877 31.082C59.0896 31.082 56.4204 30.3674 54.0661 29.017C50.4652 26.9503 47.886 23.6048 46.8026 19.5993C45.7188 15.5927 46.2601 11.4045 48.3257 7.80385C51.0893 2.99079 56.2589 0 61.8154 0C64.5135 0 67.1849 0.714574 69.537 2.06471C73.139 4.13264 75.7182 7.47696 76.8005 11.4836C77.8855 15.4902 77.3452 19.6784 75.2785 23.277C72.5193 28.0836 67.3581 31.0754 61.8099 31.082H61.7877Z" fill="white"/>
<path d="M61.7838 9.66555C59.6549 9.66555 57.6748 10.8085 56.6181 12.6489C55.8291 14.0236 55.6214 15.6269 56.0384 17.1607C56.4537 18.6946 57.4388 19.9742 58.8153 20.7636C59.7287 21.288 60.7199 21.5551 61.7571 21.5551V21.9973L61.7677 21.5551C63.8932 21.5518 65.8717 20.4068 66.9278 18.5686C68.5603 15.7262 67.5741 12.086 64.7339 10.4528C63.8344 9.93902 62.8143 9.66555 61.7838 9.66555ZM61.7571 22.4406C60.5616 22.4406 59.4255 22.1361 58.3744 21.5316C56.7936 20.6247 55.6592 19.1539 55.1827 17.3914C54.7052 15.628 54.9423 13.7875 55.8491 12.2067C57.0634 10.0928 59.3389 8.77901 61.7838 8.77901C62.9682 8.77901 64.142 9.09307 65.1753 9.68482C68.4392 11.5584 69.5714 15.7412 67.6968 19.0097C66.4824 21.1225 64.2097 22.4373 61.7688 22.4406H61.7571Z" fill="white"/>
<path d="M61.8167 107.69C56.8931 107.69 52.3121 110.34 49.864 114.606C48.0332 117.794 47.5524 121.505 48.5147 125.055C49.473 128.604 51.7596 131.567 54.948 133.397C57.0325 134.595 59.3979 135.228 61.7878 135.228V136.114L61.8078 135.228C66.7236 135.22 71.2951 132.571 73.7399 128.314C77.5202 121.731 75.2397 113.3 68.6548 109.52C66.5709 108.324 64.2049 107.69 61.8167 107.69ZM61.7878 137C59.0875 137 56.4178 136.287 54.0662 134.935C50.4653 132.869 47.8855 129.524 46.8028 125.517C45.7183 121.511 46.2608 117.322 48.3259 113.723C51.0889 108.91 56.259 105.918 61.8167 105.918C64.5136 105.918 67.185 106.633 69.5382 107.983C76.9699 112.25 79.5442 121.766 75.278 129.198C72.5195 134.004 67.3571 136.994 61.81 137H61.7878Z" fill="white"/>
<path d="M61.7849 115.488C59.6549 115.488 57.6759 116.633 56.6181 118.474C55.8291 119.849 55.6214 121.45 56.0384 122.984C56.4537 124.518 57.4388 125.796 58.8153 126.588C59.7276 127.113 60.7176 127.378 61.7571 127.378V127.821L61.7677 127.378C63.8955 127.376 65.8717 126.231 66.9278 124.392C68.5603 121.549 67.5741 117.91 64.7339 116.277C63.8344 115.763 62.8143 115.488 61.7849 115.488ZM61.7571 128.265C60.5616 128.265 59.4233 127.959 58.3744 127.356C56.7936 126.449 55.6592 124.979 55.1827 123.215C54.7052 121.453 54.9423 119.612 55.8491 118.033C57.0645 115.916 59.3389 114.603 61.7849 114.603C62.9704 114.603 64.142 114.917 65.1753 115.509C68.4392 117.382 69.5714 121.566 67.6968 124.834C66.4824 126.947 64.2114 128.261 61.7688 128.265H61.7571Z" fill="white"/>
</svg>
