<svg viewBox="0 0 137 137" fill="none" xmlns="http://www.w3.org/2000/svg">
<path d="M71.3204 35.0153H71.286C70.9647 34.9915 70.645 34.9768 70.3247 34.9632C70.0558 34.9521 69.8453 34.7274 69.8556 34.4632C69.8669 34.1986 70.1235 33.9921 70.3617 34.0002C70.6922 34.0139 71.0222 34.0306 71.3512 34.0534C71.6216 34.0706 71.8234 34.3018 71.8059 34.5675C71.7885 34.8205 71.5734 35.0153 71.3204 35.0153ZM66.44 35.0325C66.186 35.0325 65.973 34.8372 65.9535 34.5857C65.935 34.32 66.1378 34.0898 66.4057 34.0706C66.7346 34.0468 67.0641 34.025 67.3941 34.0114C67.6461 33.9856 67.8925 34.2031 67.9017 34.4723C67.9156 34.7365 67.7062 34.9622 67.4378 34.9733C67.118 34.9895 66.7967 35.0062 66.476 35.029C66.4642 35.0325 66.4518 35.0325 66.44 35.0325ZM75.1922 35.49C75.1645 35.49 75.1337 35.4874 75.105 35.4829C74.7883 35.4252 74.4711 35.3741 74.1555 35.3265C73.8886 35.2845 73.7043 35.0396 73.7469 34.7775C73.7885 34.5154 74.0338 34.3312 74.3028 34.3757C74.6287 34.4243 74.953 34.4754 75.28 34.5366C75.5458 34.5842 75.7203 34.8341 75.67 35.0947C75.6295 35.3275 75.4227 35.49 75.1922 35.49ZM62.5703 35.5304C62.3393 35.5304 62.1366 35.3705 62.0919 35.1393C62.0411 34.8792 62.2172 34.6277 62.4804 34.5776C62.8063 34.5184 63.1297 34.4617 63.4551 34.4121C63.7225 34.3666 63.9729 34.5457 64.0145 34.8088C64.0581 35.07 63.8764 35.3194 63.6106 35.3614C63.2929 35.4115 62.9778 35.4647 62.6626 35.5239C62.6313 35.5294 62.6016 35.5304 62.5703 35.5304ZM78.985 36.3942C78.9404 36.3942 78.8906 36.3871 78.8434 36.3735C78.5364 36.2804 78.228 36.1943 77.9195 36.1124C77.6583 36.042 77.5064 35.7779 77.5767 35.5203C77.6455 35.2653 77.9149 35.112 78.1736 35.1823C78.4923 35.2683 78.81 35.3584 79.1267 35.4525C79.3843 35.5274 79.5306 35.7961 79.452 36.0501C79.3899 36.2591 79.1954 36.3942 78.985 36.3942ZM58.7826 36.46C58.5742 36.46 58.3818 36.3269 58.3166 36.1215C58.237 35.8664 58.3818 35.5977 58.6384 35.5168C58.954 35.4216 59.2691 35.3295 59.5889 35.2435C59.8445 35.1757 60.1185 35.323 60.1909 35.578C60.2623 35.8335 60.1114 36.0992 59.8491 36.1716C59.5417 36.2545 59.2332 36.3461 58.9263 36.4372C58.8791 36.4529 58.8298 36.46 58.7826 36.46ZM82.651 37.7144C82.5853 37.7144 82.5212 37.7007 82.4581 37.6749C82.1619 37.5479 81.8663 37.4285 81.5696 37.3116C81.3176 37.2129 81.1955 36.9341 81.2966 36.6857C81.3957 36.4392 81.6774 36.3168 81.9294 36.4165C82.2358 36.5369 82.5417 36.6619 82.8455 36.7909C83.0929 36.8967 83.2048 37.1801 83.0975 37.424C83.0205 37.6046 82.8389 37.7144 82.651 37.7144ZM55.1243 37.804C54.938 37.804 54.7583 37.6962 54.6788 37.5171C54.5695 37.2732 54.6824 36.9898 54.9287 36.883C55.2315 36.7515 55.5364 36.6255 55.8423 36.504C56.0922 36.4064 56.3761 36.5222 56.4766 36.7707C56.5767 37.0166 56.4582 37.2969 56.2072 37.3956C55.91 37.515 55.6144 37.6375 55.3214 37.7645C55.2577 37.7903 55.191 37.804 55.1243 37.804ZM86.1426 39.4344C86.0604 39.4344 85.9752 39.4141 85.9008 39.3696C85.6185 39.2122 85.3394 39.0599 85.0571 38.9091C84.8179 38.7857 84.7291 38.4917 84.8569 38.2589C84.9847 38.0241 85.2793 37.9355 85.5185 38.0631C85.8074 38.2149 86.0964 38.3712 86.3853 38.5347C86.6188 38.6652 86.6979 38.9612 86.5644 39.1915C86.4762 39.3458 86.3114 39.4344 86.1426 39.4344ZM51.6445 39.5492C51.4788 39.5492 51.3145 39.4652 51.2222 39.3119C51.0877 39.0837 51.1647 38.7877 51.3972 38.6526L51.4926 38.5974C51.7446 38.4532 52.0038 38.31 52.2625 38.1729C52.5022 38.0448 52.7968 38.1309 52.9266 38.3646C53.0529 38.5994 52.9666 38.8909 52.7295 39.0179C52.4775 39.152 52.2281 39.2917 51.9797 39.4334L51.8919 39.4835C51.815 39.53 51.7287 39.5492 51.6445 39.5492ZM89.416 41.5323C89.3169 41.5323 89.2158 41.5025 89.1285 41.4402C88.8694 41.252 88.6071 41.0683 88.3412 40.8887C88.1216 40.7369 88.0651 40.4373 88.2191 40.2182C88.37 40.0006 88.6738 39.9439 88.896 40.0973C89.1696 40.283 89.438 40.4712 89.7059 40.6645C89.9235 40.8199 89.9697 41.1214 89.8106 41.335C89.7141 41.465 89.5658 41.5323 89.416 41.5323ZM48.3891 41.6649C48.2398 41.6649 48.0914 41.5991 47.997 41.4721C47.8369 41.2576 47.881 40.956 48.0981 40.7971C48.3619 40.6053 48.6278 40.4145 48.8993 40.2288C49.1189 40.073 49.4228 40.1276 49.5767 40.3457C49.7343 40.5623 49.6804 40.8629 49.4597 41.0162C49.1959 41.1973 48.9372 41.3825 48.6781 41.5698C48.5908 41.633 48.4897 41.6649 48.3891 41.6649ZM92.4297 43.9815C92.3101 43.9815 92.1925 43.9384 92.0997 43.8545C91.8625 43.6399 91.6229 43.4279 91.3801 43.2179C91.1779 43.0433 91.1568 42.7392 91.3344 42.5398C91.5115 42.3389 91.8199 42.3182 92.0222 42.4933C92.2721 42.7073 92.5185 42.9264 92.7597 43.1455C92.9588 43.3257 92.9696 43.6308 92.7864 43.8261C92.6919 43.9293 92.5611 43.9815 92.4297 43.9815ZM45.3965 44.1312C45.2651 44.1312 45.1362 44.0801 45.0398 43.9784C44.8555 43.7851 44.8658 43.48 45.0629 43.2988C45.3031 43.0752 45.5473 42.8571 45.7932 42.6415C45.9949 42.4659 46.3054 42.4841 46.4825 42.685C46.6621 42.8834 46.6426 43.1865 46.4399 43.3631C46.2007 43.5721 45.9651 43.7851 45.7301 44.0007C45.6356 44.0872 45.515 44.1312 45.3965 44.1312ZM95.1416 46.7519C95.0051 46.7519 94.868 46.6952 94.7726 46.5844C94.5632 46.3446 94.3492 46.1078 94.1326 45.873C93.9509 45.6776 93.9658 45.3725 94.1649 45.1944C94.3615 45.0163 94.671 45.0274 94.8542 45.2263C95.0774 45.4656 95.2971 45.7105 95.5121 45.957C95.6882 46.1578 95.6641 46.4615 95.4608 46.634C95.3674 46.7135 95.2545 46.7519 95.1416 46.7519ZM42.7051 46.9143C42.5921 46.9143 42.4808 46.8779 42.3874 46.7995C42.1826 46.6259 42.1585 46.3253 42.3345 46.1214C42.546 45.875 42.7646 45.6311 42.9858 45.3897C43.1665 45.1908 43.4749 45.1762 43.674 45.3523C43.8742 45.5324 43.8911 45.8365 43.7105 46.0329C43.4944 46.2687 43.286 46.505 43.0777 46.7463C42.9802 46.8587 42.8421 46.9143 42.7051 46.9143ZM97.5194 49.8052C97.3613 49.8052 97.2094 49.7324 97.114 49.5942C96.9333 49.3331 96.7506 49.0735 96.5607 48.818C96.4031 48.6014 96.4524 48.2993 96.67 48.144C96.8876 47.9886 97.1935 48.0377 97.3511 48.2533C97.5456 48.5164 97.7334 48.7831 97.9197 49.0508C98.0737 49.2709 98.0162 49.5689 97.7919 49.7202C97.7103 49.7769 97.6133 49.8052 97.5194 49.8052ZM40.3483 49.9808C40.2554 49.9808 40.1594 49.955 40.0758 49.8983C39.8525 49.7496 39.7935 49.451 39.9434 49.2309C40.1276 48.9597 40.316 48.6945 40.5074 48.4299C40.6634 48.2133 40.9673 48.1632 41.1874 48.3191C41.4061 48.4719 41.4589 48.7725 41.3014 48.988C41.1145 49.2456 40.9318 49.5057 40.7532 49.7688C40.6588 49.9059 40.5058 49.9808 40.3483 49.9808ZM99.5308 53.103C99.3547 53.103 99.1854 53.0078 99.1002 52.8444C98.9493 52.5656 98.7953 52.2873 98.6367 52.0115C98.5053 51.7802 98.5879 51.4888 98.822 51.3547C99.0586 51.2231 99.3557 51.3071 99.4882 51.5399C99.6493 51.8222 99.8079 52.1081 99.9634 52.394C100.089 52.6298 99.9952 52.9218 99.7571 53.0463C99.6837 53.0837 99.6088 53.103 99.5308 53.103ZM38.3575 53.2892C38.2815 53.2892 38.2055 53.2735 38.1332 53.2371C37.894 53.1131 37.8006 52.8241 37.9248 52.5868C38.0767 52.2974 38.2348 52.0115 38.3934 51.7271C38.5232 51.4943 38.8214 51.4103 39.0575 51.5399C39.2941 51.6704 39.3783 51.9629 39.2474 52.1957C39.0919 52.4735 38.939 52.7513 38.7891 53.0306C38.7054 53.1961 38.5335 53.2892 38.3575 53.2892ZM101.153 56.6006C100.957 56.6006 100.773 56.4852 100.696 56.2954C100.581 55.9994 100.46 55.7059 100.335 55.4165C100.229 55.1726 100.346 54.8887 100.594 54.7855C100.84 54.6823 101.126 54.7971 101.235 55.041C101.362 55.3391 101.487 55.6432 101.606 55.9438C101.704 56.1937 101.58 56.4715 101.329 56.5677C101.271 56.5905 101.212 56.6006 101.153 56.6006ZM36.7582 56.8004C36.7007 56.8004 36.6422 56.7903 36.5842 56.7686C36.3338 56.6745 36.206 56.3967 36.3014 56.1492C36.421 55.8441 36.5416 55.541 36.671 55.2404C36.7741 54.9955 37.061 54.8796 37.3084 54.9818C37.5568 55.084 37.6754 55.3654 37.5696 55.6093C37.4475 55.9043 37.3289 56.1968 37.214 56.4918C37.139 56.6846 36.9538 56.8004 36.7582 56.8004ZM102.362 60.2561C102.146 60.2561 101.947 60.1154 101.891 59.8998C101.809 59.5911 101.721 59.2885 101.632 58.9844C101.554 58.7314 101.702 58.4627 101.961 58.3878C102.221 58.3104 102.491 58.4592 102.567 58.7122C102.66 59.0239 102.748 59.3361 102.834 59.6539C102.903 59.9079 102.748 60.1746 102.486 60.2404C102.446 60.2515 102.404 60.2561 102.362 60.2561ZM35.5696 60.4696C35.529 60.4696 35.488 60.464 35.4474 60.4534C35.1862 60.3846 35.0297 60.1245 35.0979 59.8659C35.1795 59.5517 35.2668 59.2374 35.3576 58.9232C35.4336 58.6702 35.701 58.5204 35.9617 58.5943C36.2219 58.6702 36.3702 58.9369 36.2968 59.1909C36.206 59.495 36.1228 59.8011 36.0438 60.1078C35.9863 60.3244 35.7872 60.4696 35.5696 60.4696ZM103.145 64.0239C102.907 64.0239 102.698 63.8513 102.663 63.6099C102.617 63.2977 102.566 62.986 102.51 62.6774C102.462 62.4142 102.641 62.1668 102.904 62.1202C103.173 62.0701 103.422 62.2482 103.472 62.5104C103.529 62.8307 103.582 63.1515 103.627 63.4738C103.667 63.7359 103.482 63.9809 103.216 64.0173C103.19 64.0203 103.169 64.0239 103.145 64.0239ZM34.811 64.2465C34.7884 64.2465 34.7643 64.244 34.7422 64.2404C34.4743 64.2045 34.2875 63.9606 34.327 63.696C34.3717 63.3736 34.4225 63.0518 34.4774 62.7305C34.5226 62.4684 34.7746 62.2963 35.0404 62.3348C35.3063 62.3813 35.4854 62.6298 35.4408 62.8919C35.3863 63.2026 35.3371 63.5158 35.2924 63.8291C35.2591 64.0704 35.0497 64.2465 34.811 64.2465ZM103.492 67.8519C103.23 67.8519 103.014 67.6475 103.007 67.3869C102.994 67.0711 102.98 66.7559 102.961 66.4391C102.944 66.175 103.15 65.9467 103.419 65.93C103.684 65.9219 103.917 66.1173 103.934 66.3804C103.954 66.7048 103.97 67.0306 103.982 67.354C103.991 67.6201 103.779 67.8428 103.51 67.8519H103.492ZM34.4877 68.0822H34.4743C34.2059 68.0766 33.9945 67.8555 34.0001 67.5908C34.0083 67.2629 34.0206 66.9385 34.0391 66.6127C34.054 66.3475 34.3003 66.1238 34.5534 66.1567C34.8218 66.1729 35.0276 66.3971 35.0137 66.6628C34.9978 66.9816 34.984 67.2958 34.9768 67.6146C34.9691 67.8767 34.7515 68.0822 34.4877 68.0822ZM103.498 69.9372H103.486C103.214 69.9281 103.002 69.708 103.01 69.4423C103.019 69.1235 103.024 68.8058 103.024 68.4885C103.024 68.2238 103.242 68.0083 103.512 68.0083C103.782 68.0083 104 68.2238 104 68.4885C104 68.8164 103.995 69.1438 103.987 69.4686C103.978 69.7292 103.76 69.9372 103.498 69.9372ZM34.6042 71.9294C34.3542 71.9294 34.1418 71.7422 34.1197 71.4892C34.091 71.1679 34.0679 70.846 34.0473 70.5191C34.0324 70.2525 34.2357 70.0242 34.5062 70.0106C34.7664 69.9969 35.0071 70.1968 35.023 70.4625C35.0415 70.7787 35.0646 71.093 35.0943 71.4062C35.1148 71.6729 34.9173 71.9056 34.6478 71.9269C34.6329 71.9294 34.6201 71.9294 34.6042 71.9294ZM103.167 73.7729C103.142 73.7729 103.122 73.7728 103.098 73.7683C102.831 73.7309 102.646 73.4849 102.685 73.2228C102.729 72.9096 102.77 72.5953 102.805 72.2811C102.836 72.0154 103.071 71.8181 103.345 71.8565C103.613 71.8859 103.805 72.1242 103.777 72.3874C103.739 72.7143 103.696 73.0376 103.651 73.3609C103.613 73.5983 103.406 73.7729 103.167 73.7729ZM35.1646 75.7342C34.9368 75.7342 34.732 75.5768 34.6848 75.3496C34.6201 75.0308 34.559 74.712 34.5015 74.3932C34.4559 74.1291 34.6329 73.8816 34.9008 73.8366C35.1713 73.7911 35.4187 73.9656 35.4649 74.2278C35.5203 74.54 35.5788 74.8481 35.6419 75.1583C35.6948 75.4189 35.5249 75.6719 35.2601 75.7256C35.2288 75.7342 35.1954 75.7342 35.1646 75.7342ZM102.398 77.5462C102.359 77.5462 102.317 77.5427 102.276 77.5326C102.015 77.4648 101.857 77.2037 101.925 76.9461C102.008 76.6384 102.083 76.3313 102.156 76.0226C102.218 75.763 102.48 75.6006 102.742 75.6608C103.004 75.721 103.169 75.9796 103.107 76.2392C103.033 76.556 102.952 76.8747 102.871 77.188C102.813 77.4035 102.614 77.5462 102.398 77.5462ZM36.1531 79.4534C35.9468 79.4534 35.7569 79.3264 35.6902 79.121C35.5891 78.8123 35.4911 78.5016 35.3982 78.1904C35.3222 77.9343 35.4715 77.6687 35.7297 77.5918C35.9909 77.5189 36.2588 77.6641 36.3348 77.9182C36.4256 78.2223 36.5191 78.5254 36.6191 78.8239C36.7007 79.078 36.5617 79.3477 36.3035 79.4307C36.2542 79.4463 36.2024 79.4534 36.1531 79.4534ZM101.204 81.2118C101.145 81.2118 101.084 81.2027 101.025 81.1789C100.774 81.0848 100.649 80.8045 100.746 80.557C100.863 80.261 100.974 79.965 101.079 79.6654C101.169 79.417 101.449 79.2844 101.704 79.375C101.957 79.4635 102.091 79.7368 102.001 79.9878C101.891 80.2939 101.777 80.6006 101.658 80.9032C101.585 81.0939 101.399 81.2118 101.204 81.2118ZM37.565 83.0406C37.3772 83.0406 37.2011 82.9374 37.1195 82.7582C36.9825 82.4632 36.8516 82.1647 36.7238 81.8651C36.6191 81.6192 36.7341 81.3368 36.9825 81.2336C37.2309 81.1324 37.5178 81.2473 37.6235 81.4912C37.7467 81.7836 37.8755 82.0731 38.009 82.361C38.1193 82.6029 38.01 82.8888 37.7642 82.9976C37.6995 83.0269 37.6317 83.0406 37.565 83.0406ZM99.5913 84.7175C99.5169 84.7175 99.4394 84.7003 99.367 84.6644C99.1299 84.5404 99.037 84.249 99.1612 84.0142C99.3096 83.7338 99.4533 83.4489 99.5949 83.1666C99.7135 82.9272 100.006 82.8286 100.247 82.9445C100.49 83.0624 100.591 83.3503 100.473 83.5876C100.327 83.8801 100.181 84.1721 100.027 84.46C99.9393 84.6244 99.771 84.7175 99.5913 84.7175ZM39.3762 86.4486C39.2105 86.4486 39.0483 86.3661 38.9559 86.2138C38.787 85.936 38.6223 85.6547 38.4601 85.3708C38.3287 85.1385 38.4129 84.8456 38.6474 84.7165C38.8825 84.5834 39.1791 84.6674 39.3116 84.9002C39.4691 85.1745 39.6293 85.4492 39.7935 85.7194C39.9341 85.9497 39.8571 86.2432 39.6257 86.3783C39.5476 86.4258 39.4614 86.4486 39.3762 86.4486ZM97.5954 88.0234C97.5019 88.0234 97.4055 87.996 97.3223 87.9419C97.098 87.7931 97.0406 87.4936 97.1889 87.2724C97.3721 87.0103 97.5466 86.7472 97.717 86.4785C97.8622 86.2538 98.1671 86.1865 98.3904 86.3297C98.6203 86.4724 98.687 86.771 98.5423 86.9931C98.3647 87.2689 98.1856 87.5411 98.0013 87.8124C97.9059 87.9485 97.7539 88.0234 97.5954 88.0234ZM41.5667 89.6345C41.4194 89.6345 41.2747 89.5708 41.1802 89.4463C40.978 89.1862 40.782 88.9256 40.5875 88.6589C40.4325 88.4444 40.4817 88.1438 40.7014 87.9884C40.9216 87.8331 41.2264 87.8837 41.3814 88.0983C41.5693 88.3558 41.7592 88.6088 41.9557 88.8608C42.1179 89.0718 42.0779 89.3749 41.8639 89.5358C41.7741 89.6016 41.6704 89.6345 41.5667 89.6345ZM95.2304 91.0843C95.12 91.0843 95.0071 91.0458 94.9152 90.9689C94.7115 90.7963 94.6863 90.4912 94.8624 90.2913C95.0692 90.05 95.273 89.8071 95.4757 89.5606C95.6446 89.3542 95.951 89.3193 96.1624 89.4883C96.3718 89.6537 96.4052 89.9579 96.2337 90.1643C96.029 90.4183 95.816 90.6693 95.6045 90.9143C95.5065 91.0276 95.371 91.0843 95.2304 91.0843ZM44.1088 92.5558C43.9799 92.5558 43.8532 92.5072 43.7556 92.4085C43.5267 92.1722 43.302 91.9344 43.0813 91.6925C42.8996 91.4962 42.9134 91.1936 43.1126 91.0139C43.3138 90.8348 43.6207 90.8505 43.8039 91.0458C44.0189 91.2806 44.2386 91.5124 44.4588 91.7391C44.6461 91.9308 44.6394 92.236 44.447 92.4207C44.3525 92.5107 44.2309 92.5558 44.1088 92.5558ZM92.5354 93.8618C92.403 93.8618 92.2741 93.8082 92.1787 93.7085C91.9934 93.5147 92.0063 93.2106 92.2008 93.0289C92.4363 92.8133 92.6668 92.5932 92.8957 92.3721C93.0892 92.1859 93.3976 92.1894 93.586 92.3777C93.7759 92.5684 93.7738 92.871 93.5814 93.0572C93.3468 93.2844 93.1097 93.5111 92.868 93.7323C92.7735 93.8188 92.6529 93.8618 92.5354 93.8618ZM46.9685 95.1754C46.8602 95.1754 46.7499 95.1405 46.6575 95.0666C46.4034 94.8566 46.1535 94.6466 45.9051 94.4326C45.7003 94.2565 45.6828 93.9524 45.8589 93.7505C46.0365 93.5531 46.3459 93.5339 46.5481 93.7085C46.7899 93.9175 47.0352 94.1214 47.281 94.3233C47.4894 94.4948 47.5171 94.7964 47.3447 95.0009C47.2492 95.1162 47.1096 95.1754 46.9685 95.1754ZM89.5381 96.32C89.3872 96.32 89.2399 96.2543 89.1445 96.1252C88.9843 95.9117 89.0315 95.6101 89.2456 95.4522C89.5037 95.264 89.7578 95.0732 90.0108 94.8784C90.2228 94.7114 90.5286 94.7499 90.6954 94.9599C90.8623 95.1689 90.8243 95.4715 90.6138 95.6349C90.3536 95.8333 90.0914 96.0321 89.8281 96.2249C89.7403 96.2907 89.6392 96.32 89.5381 96.32ZM50.1141 97.4616C50.0212 97.4616 49.9304 97.4353 49.8462 97.3822C49.5701 97.2031 49.294 97.0204 49.0245 96.8377C48.8038 96.6844 48.7484 96.3858 48.9039 96.1672C49.0522 95.9471 49.3581 95.8925 49.5803 96.0443C49.8452 96.2249 50.111 96.403 50.381 96.5766C50.6068 96.7228 50.6699 97.0204 50.5237 97.2435C50.4308 97.3832 50.2732 97.4616 50.1141 97.4616ZM86.2745 98.4302C86.1077 98.4302 85.9445 98.3441 85.851 98.1908C85.7166 97.9585 85.7971 97.6656 86.0317 97.532C86.3094 97.3751 86.5839 97.2096 86.857 97.0452C87.0859 96.9065 87.3871 96.9769 87.5288 97.203C87.6694 97.4297 87.5991 97.7248 87.3702 97.8644C87.0895 98.0365 86.8062 98.2024 86.5198 98.3644C86.4438 98.4109 86.3586 98.4302 86.2745 98.4302ZM53.4973 99.3799C53.4234 99.3799 53.35 99.3643 53.2787 99.3288C52.9831 99.1836 52.6931 99.0328 52.4006 98.8785C52.165 98.7525 52.0741 98.461 52.2014 98.2282C52.3292 97.9924 52.6248 97.9039 52.8619 98.0299C53.1452 98.1817 53.4296 98.3284 53.717 98.4691C53.9577 98.589 54.0552 98.8785 53.9336 99.1158C53.8468 99.2833 53.6754 99.3799 53.4973 99.3799ZM82.7917 100.166C82.6028 100.166 82.4232 100.058 82.3426 99.8769C82.2348 99.6319 82.3498 99.3506 82.5961 99.2428C82.8892 99.1178 83.1827 98.9873 83.4727 98.8527C83.7155 98.7388 84.0055 98.8436 84.123 99.0839C84.2379 99.3243 84.1322 99.6102 83.8879 99.7225C83.5887 99.8612 83.2864 99.9973 82.9862 100.126C82.9225 100.153 82.8548 100.166 82.7917 100.166ZM57.0771 100.911C57.0217 100.911 56.9642 100.9 56.9103 100.883C56.6008 100.77 56.2914 100.653 55.985 100.533C55.7355 100.433 55.6134 100.153 55.7135 99.9062C55.8146 99.6593 56.0979 99.5399 56.3489 99.6385C56.6465 99.7554 56.9473 99.8688 57.2475 99.9781C57.498 100.071 57.6283 100.346 57.536 100.597C57.4646 100.791 57.2773 100.911 57.0771 100.911ZM79.1303 101.503C78.9229 101.503 78.7274 101.369 78.6627 101.162C78.5847 100.909 78.7284 100.64 78.9876 100.561C79.2945 100.468 79.5993 100.372 79.9032 100.271C80.1598 100.187 80.4349 100.321 80.5221 100.571C80.6073 100.824 80.4708 101.096 80.2152 101.181C79.9032 101.287 79.5901 101.387 79.274 101.482C79.2242 101.498 79.177 101.503 79.1303 101.503ZM60.8109 102.034C60.7729 102.034 60.7339 102.029 60.6949 102.021C60.3736 101.943 60.0564 101.86 59.7372 101.776C59.475 101.706 59.323 101.441 59.3944 101.184C59.4647 100.927 59.7341 100.78 59.9954 100.846C60.3038 100.93 60.6143 101.009 60.9284 101.083C61.1871 101.147 61.3498 101.409 61.2851 101.666C61.2297 101.885 61.0311 102.034 60.8109 102.034ZM75.3395 102.423C75.1085 102.423 74.9048 102.259 74.8612 102.029C74.8114 101.768 74.9854 101.517 75.2497 101.47C75.5653 101.411 75.8815 101.348 76.1935 101.28C76.464 101.222 76.717 101.39 76.7755 101.649C76.831 101.911 76.6652 102.167 76.3993 102.223C76.077 102.291 75.7537 102.353 75.4293 102.415C75.3985 102.419 75.3708 102.423 75.3395 102.423ZM64.6499 102.732C64.6289 102.732 64.6073 102.731 64.5862 102.729C64.2598 102.687 63.9319 102.642 63.607 102.592C63.3417 102.552 63.1574 102.307 63.2 102.042C63.2411 101.782 63.49 101.6 63.7569 101.643C64.073 101.691 64.3922 101.734 64.711 101.774C64.9763 101.808 65.1652 102.048 65.1344 102.31C65.102 102.556 64.8916 102.732 64.6499 102.732ZM71.4687 102.915C71.2147 102.915 71.0017 102.721 70.9822 102.467C70.9611 102.203 71.1659 101.972 71.4353 101.954C71.7551 101.931 72.0753 101.904 72.3941 101.873C72.6645 101.851 72.9001 102.038 72.9268 102.305C72.9545 102.569 72.7585 102.804 72.4905 102.83C72.1626 102.862 71.8326 102.89 71.5031 102.914C71.4908 102.915 71.48 102.915 71.4687 102.915ZM68.5412 103H68.5356C68.2056 102.995 67.8761 102.987 67.5461 102.973C67.2766 102.962 67.0672 102.738 67.0775 102.473C67.0883 102.208 67.3172 101.994 67.5861 102.012C67.9063 102.023 68.2271 102.034 68.5494 102.037C68.8173 102.041 69.0339 102.259 69.0293 102.526C69.0267 102.788 68.8071 103 68.5412 103Z" fill="white"/>
<path d="M68.5 6.97052C57.7158 6.97052 47.0775 9.8208 37.7365 15.214C18.761 26.1695 6.97152 46.5871 6.97152 68.499C6.97152 90.4114 18.761 110.828 37.7365 121.786C47.0775 127.178 57.7158 130.028 68.5 130.028C79.2858 130.028 89.925 127.178 99.266 121.786C118.241 110.828 130.028 90.4114 130.028 68.499C130.028 46.5871 118.241 26.1695 99.266 15.214C89.925 9.8208 79.2858 6.97052 68.5 6.97052ZM68.5 131C57.5452 131 46.7391 128.103 37.251 122.625C17.9748 111.497 6 90.756 6 68.499C6 46.2425 17.9748 25.5007 37.251 14.3742C46.7391 8.89572 57.5452 6 68.5 6C79.4563 6 90.2625 8.89572 99.7515 14.3742C119.025 25.5007 131 46.2425 131 68.499C131 90.756 119.025 111.497 99.7515 122.625C90.2625 128.103 79.4563 131 68.5 131Z" fill="white"/>
<path d="M67.3315 0.983747C67.0684 0.983747 66.8504 0.768776 66.8448 0.506205C66.8401 0.235444 67.0561 0.0148382 67.3233 0.00920798C67.6514 0.00357779 67.9774 0 68.3055 0C68.5752 0 68.7923 0.217013 68.7923 0.485727C68.7933 0.754953 68.5752 0.973 68.3081 0.973C67.9856 0.973 67.6632 0.976581 67.3417 0.983747H67.3315ZM72.2005 1.07434C72.1903 1.07434 72.181 1.07434 72.1718 1.07076C71.8504 1.05489 71.529 1.03953 71.2076 1.02623C70.9383 1.01701 70.728 0.790781 70.7408 0.521044C70.75 0.251306 70.9977 0.0414565 71.2444 0.0537406C71.5725 0.0675601 71.8985 0.083937 72.2266 0.0998039C72.4953 0.114647 72.7005 0.345488 72.6847 0.614201C72.6698 0.872167 72.4554 1.07434 72.2005 1.07434ZM63.4401 1.16135C63.1888 1.16135 62.9743 0.965322 62.9559 0.711451C62.9375 0.441714 63.1361 0.207802 63.4048 0.1904C63.7319 0.164296 64.0589 0.142285 64.3844 0.122836C64.6485 0.111575 64.884 0.313241 64.8998 0.580931C64.9147 0.849133 64.7115 1.07997 64.4407 1.09481C64.1193 1.11324 63.7994 1.1373 63.478 1.16033C63.4667 1.16135 63.4539 1.16135 63.4401 1.16135ZM76.0791 1.39526C76.0597 1.39526 76.0433 1.39526 76.0238 1.39322C75.705 1.35739 75.3835 1.32309 75.0636 1.29341C74.7949 1.26577 74.5999 1.02828 74.6265 0.7611C74.6516 0.492386 74.8891 0.297371 75.1563 0.322451C75.4833 0.354697 75.8094 0.388996 76.1344 0.425848C76.399 0.455534 76.593 0.69763 76.5633 0.962761C76.5346 1.21203 76.3222 1.39526 76.0791 1.39526ZM59.5671 1.56059C59.3276 1.56059 59.1188 1.384 59.0865 1.13832C59.0497 0.872168 59.238 0.626486 59.5042 0.59117C59.8287 0.549711 60.1527 0.507225 60.4772 0.469349C60.7525 0.438639 60.988 0.630066 61.0177 0.89622C61.0473 1.16391 60.8585 1.40703 60.5908 1.43672C60.2719 1.47357 59.9505 1.51606 59.6316 1.55752C59.6106 1.55956 59.5902 1.56059 59.5671 1.56059ZM79.9336 1.93935C79.907 1.93935 79.8799 1.9373 79.8523 1.93372C79.5344 1.87844 79.2176 1.82571 78.8972 1.7776C78.6346 1.73512 78.4499 1.48637 78.4934 1.22124C78.5348 0.957134 78.7779 0.779011 79.0477 0.815863C79.3701 0.863976 79.6936 0.918234 80.016 0.973C80.2791 1.01907 80.4583 1.26935 80.4132 1.53551C80.3733 1.77198 80.1691 1.93935 79.9336 1.93935ZM55.7244 2.18246C55.4935 2.18246 55.2914 2.02073 55.2448 1.78784C55.1951 1.52424 55.3686 1.26833 55.6338 1.21663C55.9547 1.1547 56.2751 1.09737 56.5975 1.03953C56.8627 0.992445 57.115 1.17056 57.1621 1.43672C57.2081 1.70083 57.03 1.95316 56.7659 1.9982C56.4496 2.05553 56.1302 2.11388 55.816 2.17376C55.7837 2.17837 55.7515 2.18246 55.7244 2.18246ZM83.7539 2.70352C83.716 2.70352 83.6781 2.70044 83.6423 2.69123C83.327 2.61753 83.0123 2.54741 82.699 2.48087C82.4365 2.42354 82.2701 2.16455 82.3228 1.90249C82.3802 1.63992 82.6381 1.46999 82.9022 1.52885C83.2226 1.59744 83.5415 1.66961 83.8604 1.74075C84.1219 1.80269 84.2862 2.06321 84.2263 2.32629C84.1751 2.54996 83.974 2.70352 83.7539 2.70352ZM51.9215 3.0229C51.7035 3.0229 51.5049 2.87447 51.4486 2.65438C51.3831 2.39386 51.5428 2.12975 51.8043 2.06474C52.1196 1.98439 52.4374 1.9071 52.7558 1.83135C53.0194 1.77095 53.2809 1.93116 53.3418 2.19424C53.4038 2.45374 53.241 2.71733 52.9794 2.77926C52.6672 2.85399 52.3514 2.92975 52.0392 3.00806C51.9993 3.01676 51.9604 3.0229 51.9215 3.0229ZM87.5189 3.68265C87.4738 3.68265 87.4283 3.67805 87.3822 3.66423C87.0726 3.57466 86.7639 3.48765 86.4517 3.40166C86.1933 3.32898 86.0418 3.0618 86.1119 2.8023C86.1856 2.54177 86.4517 2.39027 86.7122 2.46295C87.0275 2.54996 87.3408 2.63698 87.654 2.73013C87.9145 2.80486 88.0614 3.0746 87.9846 3.33256C87.9237 3.546 87.7287 3.68265 87.5189 3.68265ZM48.1734 4.08086C47.9646 4.08086 47.7732 3.94779 47.7087 3.73743C47.6263 3.48151 47.7706 3.2087 48.0265 3.12834C48.3377 3.03058 48.653 2.93538 48.9642 2.84274C49.2237 2.76545 49.4919 2.91132 49.5686 3.16724C49.649 3.42674 49.5021 3.6975 49.2431 3.7753C48.9355 3.86743 48.6254 3.96007 48.3183 4.05783C48.2696 4.07267 48.2205 4.08086 48.1734 4.08086ZM91.2209 4.87932C91.1692 4.87932 91.1139 4.87011 91.0602 4.84964C90.7572 4.7442 90.4516 4.63825 90.1476 4.53537C89.8917 4.44785 89.7566 4.17146 89.8436 3.91759C89.9285 3.66423 90.2049 3.52757 90.4588 3.61356C90.7685 3.71797 91.0771 3.82393 91.3857 3.93397C91.6385 4.02354 91.7716 4.30249 91.6821 4.55483C91.6099 4.75342 91.4236 4.87932 91.2209 4.87932ZM44.4888 5.35124C44.2938 5.35124 44.108 5.23198 44.0343 5.03442C43.9401 4.78413 44.0676 4.50313 44.3189 4.40691C44.6255 4.29328 44.9331 4.17965 45.2391 4.06909C45.4915 3.97645 45.7704 4.1085 45.8625 4.35981C45.9541 4.61317 45.8231 4.89213 45.5687 4.98374C45.2668 5.0943 44.9648 5.20639 44.6618 5.319C44.6045 5.34203 44.5471 5.35124 44.4888 5.35124ZM94.8513 6.28432C94.7893 6.28432 94.7274 6.27152 94.6634 6.24644C94.3671 6.12206 94.0702 5.99974 93.7718 5.87792C93.5205 5.77709 93.4023 5.49456 93.5031 5.24427C93.604 4.99398 93.8901 4.87728 94.1342 4.97453C94.4372 5.09839 94.7412 5.22124 95.0396 5.35022C95.2889 5.45208 95.4056 5.73666 95.3012 5.98438C95.2244 6.17172 95.0422 6.28432 94.8513 6.28432ZM40.8866 6.83045C40.6982 6.83045 40.5227 6.72245 40.4403 6.54126C40.3323 6.29302 40.4423 6.00742 40.688 5.89737C40.9874 5.76532 41.2894 5.6348 41.5903 5.50377C41.837 5.40037 42.1216 5.514 42.2281 5.76327C42.3325 6.011 42.2189 6.2966 41.9711 6.40102C41.6748 6.52846 41.3789 6.65693 41.0841 6.78899C41.0207 6.81662 40.9531 6.83045 40.8866 6.83045ZM98.3941 7.89404C98.323 7.89404 98.2503 7.87817 98.1807 7.8449C97.8936 7.70261 97.6023 7.5634 97.3116 7.42725C97.0675 7.31106 96.9641 7.02188 97.0787 6.77978C97.1924 6.53563 97.4826 6.43122 97.7272 6.54791C98.023 6.6856 98.3168 6.82686 98.6106 6.9712C98.8507 7.08841 98.9505 7.38016 98.8322 7.62226C98.7483 7.79423 98.5753 7.89404 98.3941 7.89404ZM37.3729 8.51285C37.1973 8.51285 37.0274 8.41714 36.9404 8.24977C36.8186 8.00869 36.9117 7.71643 37.1503 7.59359C37.442 7.44311 37.7322 7.29622 38.026 7.14932C38.2681 7.03109 38.5608 7.12885 38.6775 7.36941C38.7983 7.60946 38.7016 7.90325 38.4595 8.02251C38.1703 8.16583 37.8837 8.3117 37.5966 8.4586C37.5254 8.49545 37.4497 8.51285 37.3729 8.51285ZM101.84 9.70594C101.761 9.70594 101.677 9.68547 101.602 9.64298C101.322 9.48483 101.04 9.32974 100.757 9.17568C100.521 9.04516 100.434 8.75137 100.563 8.5149C100.689 8.27843 100.984 8.19244 101.222 8.31989C101.511 8.47497 101.795 8.63313 102.081 8.79487C102.314 8.9259 102.398 9.22276 102.265 9.45718C102.175 9.61534 102.012 9.70594 101.84 9.70594ZM33.9626 10.3944C33.7937 10.3944 33.633 10.3084 33.5424 10.1558C33.4073 9.92398 33.483 9.62558 33.7144 9.4879L34.564 8.99551C34.7979 8.86397 35.0953 8.94432 35.2268 9.17926C35.3625 9.41368 35.28 9.70952 35.0456 9.84362L34.2103 10.3278C34.13 10.3739 34.046 10.3944 33.9626 10.3944ZM105.186 11.7144C105.095 11.7144 105.005 11.6893 104.924 11.6376C104.651 11.4631 104.377 11.2896 104.104 11.1196C103.877 10.9773 103.806 10.6795 103.944 10.4486C104.088 10.2214 104.388 10.1523 104.617 10.2935C104.895 10.466 105.174 10.6416 105.449 10.8182C105.675 10.9615 105.74 11.2645 105.597 11.4917C105.503 11.6361 105.345 11.7144 105.186 11.7144ZM30.67 12.4627C30.5119 12.4627 30.3578 12.388 30.2642 12.2477C30.1147 12.023 30.1756 11.72 30.3973 11.5731C30.6701 11.3909 30.9423 11.2128 31.2151 11.0352C31.4414 10.8883 31.7433 10.9533 31.8887 11.1775C32.0356 11.4042 31.9716 11.7041 31.7444 11.851C31.4746 12.0251 31.2075 12.2032 30.9408 12.3823C30.8574 12.4351 30.7632 12.4627 30.67 12.4627ZM108.407 13.9096C108.309 13.9096 108.21 13.88 108.124 13.819C107.861 13.6297 107.599 13.4403 107.334 13.2545C107.114 13.1004 107.061 12.7954 107.217 12.5773C107.369 12.3567 107.675 12.303 107.894 12.4591C108.161 12.6475 108.428 12.8379 108.693 13.0293C108.911 13.1864 108.959 13.4894 108.802 13.709C108.708 13.8395 108.56 13.9096 108.407 13.9096ZM27.5019 14.7173C27.356 14.7173 27.2091 14.6498 27.1139 14.5233C26.9522 14.3099 26.9946 14.0038 27.2091 13.8421C27.4706 13.6466 27.7301 13.4495 27.9932 13.2576C28.2087 13.0994 28.5153 13.1465 28.6734 13.362C28.8331 13.58 28.786 13.8846 28.569 14.0438C28.3095 14.2342 28.0526 14.4261 27.7956 14.6175C27.7086 14.6841 27.6052 14.7173 27.5019 14.7173ZM111.499 16.2871C111.392 16.2871 111.282 16.2528 111.191 16.1796C110.942 15.9754 110.691 15.7722 110.436 15.5726C110.225 15.4047 110.192 15.0997 110.356 14.8883C110.523 14.6784 110.828 14.6395 111.041 14.8079C111.297 15.0121 111.553 15.2169 111.808 15.4242C112.014 15.5931 112.047 15.9017 111.878 16.1095C111.78 16.2267 111.64 16.2871 111.499 16.2871ZM24.4688 17.148C24.3301 17.148 24.1924 17.0897 24.0946 16.9761C23.9237 16.7729 23.9467 16.4642 24.1535 16.2917C24.4002 16.0798 24.6525 15.872 24.9028 15.6617C25.1106 15.4907 25.4177 15.5209 25.5876 15.7282C25.7576 15.9329 25.7289 16.2416 25.5226 16.4125C25.2754 16.6178 25.0277 16.823 24.7836 17.0334C24.6914 17.1112 24.5793 17.148 24.4688 17.148ZM114.446 18.8381C114.329 18.8381 114.212 18.7946 114.117 18.7076C113.879 18.4906 113.64 18.2751 113.4 18.0601C113.199 17.8825 113.181 17.5739 113.361 17.3727C113.54 17.1711 113.848 17.1547 114.047 17.3328C114.293 17.5519 114.536 17.7709 114.778 17.9905C114.977 18.1738 114.988 18.4824 114.806 18.681C114.709 18.7844 114.577 18.8381 114.446 18.8381ZM21.577 19.7497C21.4501 19.7497 21.319 19.699 21.2248 19.5982C21.0401 19.4042 21.0472 19.0966 21.2422 18.9093C21.4772 18.6856 21.7147 18.4599 21.9547 18.2403C22.1507 18.0571 22.4599 18.0673 22.6441 18.2679C22.8269 18.4629 22.8156 18.7716 22.617 18.9533C22.3816 19.1723 22.1451 19.3924 21.9133 19.6151C21.8181 19.7047 21.6978 19.7497 21.577 19.7497ZM117.243 21.5514C117.117 21.5514 116.991 21.5017 116.896 21.4045C116.671 21.1726 116.444 20.9428 116.216 20.7155C116.024 20.5261 116.024 20.219 116.216 20.0281C116.407 19.8367 116.714 19.8387 116.904 20.0271C117.134 20.259 117.364 20.4898 117.594 20.7247C117.78 20.9177 117.776 21.2263 117.584 21.4147C117.49 21.5063 117.367 21.5514 117.243 21.5514ZM18.8392 22.5141C18.721 22.5141 18.6007 22.4701 18.5065 22.3821C18.309 22.1973 18.2998 21.8907 18.4856 21.6936C18.7072 21.4572 18.9308 21.2182 19.1581 20.9832C19.3454 20.7903 19.6515 20.7836 19.8455 20.9694C20.0405 21.1552 20.0466 21.4638 19.8593 21.6578C19.6356 21.8907 19.415 22.1236 19.196 22.359C19.0998 22.4599 18.9687 22.5141 18.8392 22.5141ZM119.881 24.4212C119.745 24.4212 119.609 24.3639 119.513 24.2523C119.3 24.0102 119.087 23.7681 118.873 23.5286C118.693 23.3264 118.71 23.0178 118.911 22.8386C119.111 22.662 119.42 22.6794 119.598 22.8775C119.816 23.1222 120.031 23.3679 120.246 23.6156C120.424 23.8178 120.403 24.1249 120.198 24.3009C120.107 24.3808 119.995 24.4212 119.881 24.4212ZM16.2642 25.4285C16.1527 25.4285 16.0426 25.3932 15.952 25.3164C15.7468 25.1429 15.7166 24.8379 15.8891 24.629C16.0989 24.3798 16.3088 24.1295 16.5222 23.8828C16.6967 23.6765 17.0079 23.6545 17.2075 23.8316C17.4138 24.0056 17.4368 24.3132 17.2603 24.5174C17.0514 24.7621 16.8436 25.0078 16.6369 25.253C16.5406 25.3702 16.4019 25.4285 16.2642 25.4285ZM122.346 27.438C122.202 27.438 122.057 27.3714 121.96 27.2476C121.765 26.9917 121.565 26.7357 121.364 26.4855C121.197 26.2746 121.232 25.968 121.443 25.8016C121.654 25.6332 121.96 25.6696 122.128 25.88C122.331 26.1359 122.532 26.3938 122.732 26.6533C122.895 26.8668 122.857 27.1698 122.642 27.3371C122.555 27.4037 122.451 27.438 122.346 27.438ZM13.8577 28.4893C13.7568 28.4893 13.657 28.457 13.5685 28.3941C13.3515 28.2313 13.3069 27.9268 13.4666 27.7103C13.6616 27.4508 13.8577 27.1867 14.0552 26.9287C14.2205 26.7142 14.522 26.6728 14.738 26.8366C14.9514 26.9988 14.9939 27.3059 14.8286 27.5183C14.6336 27.7753 14.4416 28.0312 14.2502 28.2907C14.154 28.4202 14.0056 28.4893 13.8577 28.4893ZM124.638 30.5868C124.482 30.5868 124.33 30.5126 124.234 30.3749C124.054 30.1098 123.869 29.8446 123.682 29.5805C123.529 29.3615 123.58 29.0564 123.8 28.9034C124.022 28.7462 124.324 28.8005 124.478 29.0195C124.668 29.2867 124.855 29.5554 125.038 29.8252C125.191 30.0463 125.134 30.3508 124.912 30.4998C124.827 30.5597 124.732 30.5868 124.638 30.5868ZM11.6317 31.6806C11.5386 31.6806 11.448 31.6555 11.364 31.6012C11.1383 31.4533 11.0759 31.1503 11.2228 30.9267C11.4029 30.6533 11.5831 30.3826 11.7679 30.1108C11.9183 29.8871 12.2239 29.8318 12.443 29.9823C12.6656 30.1313 12.724 30.4343 12.5735 30.6579C12.3913 30.9256 12.2147 31.1928 12.0376 31.4605C11.945 31.6038 11.7899 31.6806 11.6317 31.6806ZM126.743 33.862C126.577 33.862 126.418 33.7786 126.324 33.6271C126.16 33.3512 125.989 33.0774 125.821 32.803C125.677 32.5758 125.748 32.2748 125.976 32.1341C126.203 31.9902 126.502 32.0593 126.645 32.2876C126.818 32.5656 126.989 32.8455 127.16 33.1245C127.298 33.3548 127.223 33.6542 126.993 33.7919C126.916 33.839 126.829 33.862 126.743 33.862ZM9.58903 34.9973C9.50765 34.9973 9.42371 34.9753 9.34438 34.9318C9.11252 34.7961 9.0337 34.5003 9.1678 34.2659C9.33312 33.9828 9.49588 33.7013 9.66479 33.4203C9.80144 33.1895 10.0998 33.1137 10.3327 33.2514C10.562 33.3881 10.6388 33.6901 10.5001 33.9194C10.3337 34.1947 10.172 34.4737 10.0113 34.7526C9.92172 34.9087 9.75742 34.9973 9.58903 34.9973ZM128.655 37.2519C128.481 37.2519 128.312 37.1577 128.226 36.9924C128.076 36.7078 127.923 36.4233 127.767 36.1433C127.64 35.9058 127.727 35.611 127.962 35.4815C128.198 35.353 128.493 35.439 128.623 35.6739C128.781 35.9621 128.935 36.2477 129.087 36.5394C129.213 36.778 129.12 37.0728 128.882 37.1972C128.809 37.235 128.734 37.2519 128.655 37.2519ZM7.7393 38.4225C7.6656 38.4225 7.59087 38.4066 7.52126 38.3718C7.28224 38.2505 7.185 37.9577 7.30528 37.7177C7.45319 37.4239 7.60162 37.1337 7.75312 36.8445C7.87698 36.607 8.17179 36.5144 8.40928 36.6367C8.64779 36.7631 8.73992 37.0579 8.61708 37.2954C8.46661 37.5815 8.31971 37.8671 8.17538 38.1553C8.08888 38.3263 7.92049 38.4225 7.7393 38.4225ZM130.374 40.7462C130.187 40.7462 130.012 40.6398 129.93 40.4606C129.797 40.1678 129.66 39.8766 129.523 39.5884C129.409 39.3438 129.513 39.0526 129.755 38.9379C129.998 38.8227 130.287 38.9261 130.403 39.1682C130.544 39.4636 130.681 39.7594 130.815 40.0588C130.929 40.3035 130.82 40.5911 130.577 40.7027C130.51 40.7334 130.442 40.7462 130.374 40.7462ZM6.08918 41.9501C6.02469 41.9501 5.96173 41.9373 5.89622 41.9112C5.64952 41.8032 5.53487 41.5176 5.64492 41.2698C5.77338 40.9699 5.90543 40.6715 6.04055 40.3731C6.15213 40.1279 6.44029 40.0209 6.68238 40.1279C6.92806 40.239 7.0381 40.5282 6.92806 40.7739C6.79601 41.0666 6.66601 41.3614 6.53652 41.6573C6.45616 41.841 6.27855 41.9501 6.08918 41.9501ZM131.889 44.3301C131.694 44.3301 131.511 44.2144 131.433 44.0215C131.319 43.721 131.197 43.4211 131.079 43.1242C130.977 42.8749 131.097 42.5893 131.346 42.4885C131.591 42.3872 131.879 42.509 131.98 42.7593C132.104 43.0623 132.223 43.3637 132.341 43.6668C132.44 43.917 132.316 44.2006 132.064 44.2968C132.006 44.3209 131.948 44.3301 131.889 44.3301ZM4.6443 45.5682C4.58902 45.5682 4.53272 45.559 4.47796 45.5385C4.22409 45.4454 4.09562 45.1664 4.18878 44.9131C4.29984 44.6055 4.41449 44.2989 4.53272 43.9928C4.62792 43.7425 4.90943 43.6186 5.16175 43.7128C5.41306 43.8101 5.53692 44.0916 5.4407 44.3429C5.32605 44.6433 5.21243 44.9463 5.10341 45.2468C5.03073 45.4454 4.84289 45.5682 4.6443 45.5682ZM133.195 47.9964C132.99 47.9964 132.798 47.8669 132.731 47.6601C132.632 47.355 132.531 47.05 132.427 46.7444C132.341 46.4885 132.477 46.2131 132.731 46.1261C132.986 46.0386 133.262 46.1763 133.349 46.4312C133.453 46.7378 133.557 47.05 133.657 47.3586C133.741 47.6166 133.6 47.8899 133.346 47.9723C133.295 47.9887 133.244 47.9964 133.195 47.9964ZM3.40927 49.2611C3.36014 49.2611 3.31304 49.2565 3.26851 49.2417C3.00902 49.1639 2.86418 48.8916 2.94351 48.6336C3.03768 48.3214 3.13545 48.0092 3.23525 47.697C3.31561 47.441 3.5884 47.2977 3.84534 47.3817C4.10125 47.463 4.24252 47.7374 4.16114 47.9933C4.06133 48.2994 3.96715 48.608 3.87298 48.9167C3.81002 49.127 3.61809 49.2611 3.40927 49.2611ZM134.289 51.7317C134.074 51.7317 133.875 51.5874 133.818 51.3678C133.738 51.0571 133.654 50.7439 133.568 50.4363C133.496 50.1747 133.647 49.9071 133.907 49.8349C134.167 49.7663 134.433 49.9152 134.504 50.1747C134.591 50.49 134.678 50.8048 134.76 51.1201C134.828 51.3796 134.673 51.6447 134.414 51.7133C134.372 51.7251 134.33 51.7317 134.289 51.7317ZM2.3846 53.0216C2.34826 53.0216 2.30885 53.0185 2.26995 53.0093C2.00739 52.9458 1.85025 52.6843 1.91218 52.4217C1.98793 52.1039 2.06778 51.786 2.14813 51.4692C2.21621 51.2086 2.48236 51.05 2.74185 51.1181C3.00083 51.1846 3.15797 51.4497 3.09399 51.7103C3.01005 52.0245 2.93327 52.3352 2.8565 52.651C2.80481 52.8737 2.60417 53.0216 2.3846 53.0216ZM135.168 55.5178C134.94 55.5178 134.737 55.3607 134.691 55.1273C134.628 54.812 134.561 54.4972 134.493 54.184C134.437 53.9224 134.604 53.6609 134.867 53.6035C135.131 53.5472 135.388 53.7161 135.443 53.9777C135.513 54.2955 135.582 54.6154 135.645 54.9348C135.699 55.1974 135.528 55.4569 135.264 55.5106C135.232 55.5152 135.2 55.5178 135.168 55.5178ZM1.57796 56.8373C1.55032 56.8373 1.52166 56.8353 1.49095 56.8291C1.22787 56.782 1.0513 56.5277 1.09941 56.2625C1.15827 55.9411 1.21866 55.6176 1.28213 55.2962C1.33228 55.0346 1.58717 54.8601 1.85434 54.9138C2.11947 54.9655 2.2894 55.2225 2.2377 55.4845C2.17577 55.8034 2.11486 56.1202 2.05754 56.4371C2.01659 56.671 1.81084 56.8373 1.57796 56.8373ZM135.828 59.3484C135.587 59.3484 135.382 59.1738 135.347 58.9328C135.3 58.6124 135.252 58.296 135.203 57.9782C135.161 57.7141 135.343 57.4648 135.608 57.4213C135.873 57.3814 136.124 57.5616 136.165 57.8251C136.214 58.1476 136.265 58.4716 136.31 58.7941C136.347 59.0592 136.163 59.3069 135.897 59.3448C135.873 59.3484 135.851 59.3484 135.828 59.3484ZM0.992944 60.6909C0.974518 60.6909 0.95251 60.6899 0.93562 60.6873C0.667936 60.6566 0.47856 60.412 0.510805 60.1458C0.551239 59.8198 0.59321 59.4953 0.635692 59.1703C0.673567 58.9041 0.919245 58.7158 1.18437 58.7536C1.45205 58.7895 1.63784 59.0382 1.60099 59.3033C1.55749 59.6237 1.51603 59.9416 1.47611 60.2641C1.44591 60.5108 1.23606 60.6909 0.992944 60.6909ZM136.268 63.2122C136.019 63.2122 135.805 63.0213 135.783 62.7669C135.756 62.4465 135.727 62.1251 135.695 61.8052C135.669 61.5401 135.863 61.3 136.131 61.2739C136.4 61.2529 136.638 61.4423 136.663 61.711C136.695 62.0335 136.726 62.358 136.752 62.685C136.776 62.9517 136.578 63.1866 136.31 63.2097C136.297 63.2122 136.282 63.2122 136.268 63.2122ZM0.630061 64.5752C0.617777 64.5752 0.609594 64.5752 0.597822 64.5732C0.328602 64.5558 0.127451 64.325 0.143829 64.0568C0.164302 63.7282 0.188362 63.4026 0.214977 63.074C0.23545 62.8068 0.472929 62.6129 0.739078 62.6303C1.00676 62.6497 1.2074 62.8852 1.18437 63.1534C1.15827 63.4738 1.13625 63.7972 1.11425 64.1197C1.09736 64.3766 0.885973 64.5752 0.630061 64.5752ZM136.487 67.093C136.225 67.093 136.008 66.8831 135.999 66.619C135.993 66.2976 135.98 65.9767 135.968 65.6562C135.957 65.3865 136.163 65.1603 136.431 65.15C136.709 65.1362 136.927 65.345 136.94 65.6138C136.953 65.9398 136.965 66.2658 136.973 66.5929C136.981 66.8601 136.77 67.0848 136.501 67.093H136.487ZM0.486751 68.4734H0.485727C0.215996 68.4724 -0.00102004 68.2523 3.60649e-06 67.9836C0.00358638 67.6539 0.00819942 67.3269 0.0163886 66.9967C0.0220187 66.729 0.237493 66.5264 0.513366 66.5218C0.781562 66.5294 0.994997 66.7521 0.989367 67.0208C0.982713 67.3432 0.979127 67.6667 0.974521 67.9902C0.973497 68.2589 0.755458 68.4734 0.486751 68.4734ZM136.505 69.9664H136.5C136.229 69.9618 136.016 69.7417 136.019 69.473C136.023 69.1505 136.026 68.826 136.026 68.501C136.026 68.2349 136.245 68.0158 136.514 68.0158C136.782 68.0158 137 68.2349 137 68.501C137 68.8317 136.998 69.1587 136.993 69.4868C136.988 69.753 136.773 69.9664 136.505 69.9664ZM0.56916 72.3659C0.312224 72.3659 0.0977628 72.1642 0.0839435 71.9037C0.0665415 71.5777 0.054261 71.2516 0.042489 70.9235C0.0332762 70.6574 0.241073 70.4337 0.511828 70.423C0.769275 70.4015 1.00677 70.6216 1.01342 70.8903C1.02622 71.2127 1.04003 71.5342 1.0559 71.8541C1.06972 72.1218 0.861917 72.35 0.594745 72.3659H0.56916ZM136.34 73.8635C136.326 73.8635 136.315 73.8635 136.302 73.8599C136.036 73.842 135.835 73.6076 135.854 73.3404C135.876 73.018 135.897 72.6965 135.917 72.3741C135.931 72.1054 136.167 71.9022 136.43 71.915C136.698 71.9298 136.903 72.1607 136.886 72.4294C136.869 72.7575 136.847 73.0845 136.826 73.4116C136.807 73.666 136.593 73.8635 136.34 73.8635ZM0.873688 76.24C0.626477 76.24 0.41561 76.0552 0.388995 75.8039C0.354703 75.4804 0.321433 75.158 0.291747 74.8335C0.267691 74.5658 0.463717 74.3283 0.731401 74.3042C0.99499 74.2802 1.23606 74.4741 1.26114 74.7429C1.29236 75.0628 1.32461 75.3816 1.35634 75.702C1.385 75.9692 1.19256 76.2093 0.924874 76.2369C0.907983 76.24 0.891602 76.24 0.873688 76.24ZM135.95 77.7448C135.93 77.7448 135.909 77.7422 135.886 77.7402C135.619 77.7054 135.43 77.4612 135.466 77.194C135.508 76.8747 135.546 76.5548 135.584 76.2323C135.614 75.9661 135.851 75.766 136.124 75.8039C136.39 75.8351 136.581 76.0762 136.551 76.3444C136.514 76.6694 136.473 76.9939 136.431 77.32C136.4 77.5646 136.19 77.7448 135.95 77.7448ZM1.39677 80.0936C1.16389 80.0936 0.956095 79.9226 0.917196 79.6862C0.864479 79.3647 0.812782 79.0423 0.764671 78.7188C0.723213 78.4526 0.907981 78.2059 1.17157 78.166C1.43823 78.1266 1.68493 78.3068 1.72741 78.5729C1.77552 78.8923 1.82466 79.2102 1.87738 79.5255C1.9214 79.7916 1.74225 80.0429 1.47611 80.0869C1.44949 80.0915 1.42185 80.0936 1.39677 80.0936ZM135.339 81.5923C135.307 81.5923 135.277 81.5902 135.247 81.5856C134.983 81.5359 134.809 81.2816 134.859 81.0164C134.916 80.6996 134.976 80.3818 135.031 80.0639C135.077 79.7998 135.329 79.6222 135.595 79.6667C135.86 79.7138 136.036 79.9651 135.99 80.2303C135.934 80.5527 135.876 80.8741 135.816 81.1966C135.772 81.4315 135.568 81.5923 135.339 81.5923ZM2.14046 83.9093C1.91679 83.9093 1.7182 83.7578 1.66549 83.5295C1.59434 83.2107 1.52524 82.8923 1.45973 82.5745C1.40343 82.3098 1.57131 82.0539 1.83644 81.9986C2.09798 81.9413 2.35594 82.1097 2.41224 82.3748C2.47673 82.6881 2.54428 83.0029 2.61543 83.3161C2.67377 83.5787 2.51102 83.8382 2.24845 83.8991C2.2116 83.9057 2.17577 83.9093 2.14046 83.9093ZM134.504 85.4024C134.466 85.4024 134.428 85.3967 134.387 85.3875C134.127 85.322 133.968 85.0579 134.034 84.7974C134.111 84.4841 134.185 84.1699 134.259 83.8566C134.32 83.5935 134.58 83.4328 134.845 83.4927C135.107 83.5536 135.269 83.8162 135.208 84.0777C135.133 84.3971 135.058 84.715 134.977 85.0302C134.923 85.2555 134.724 85.4024 134.504 85.4024ZM3.10064 87.678C2.89182 87.678 2.69579 87.5403 2.63488 87.3253C2.54429 87.0136 2.45728 86.6968 2.37334 86.3835C2.30219 86.122 2.45574 85.8569 2.71524 85.7857C2.97473 85.7146 3.2419 85.8691 3.31202 86.1276C3.39699 86.4383 3.48297 86.7485 3.57152 87.0581C3.64471 87.3166 3.49577 87.5874 3.2373 87.6606C3.19123 87.6723 3.14773 87.678 3.10064 87.678ZM133.457 89.1546C133.408 89.1546 133.36 89.1454 133.312 89.1316C133.056 89.0538 132.912 88.7794 132.992 88.5225C133.088 88.2149 133.181 87.9062 133.273 87.5976C133.347 87.3391 133.618 87.1892 133.875 87.267C134.135 87.3437 134.283 87.6135 134.206 87.873C134.113 88.1852 134.018 88.5005 133.921 88.8117C133.857 89.0205 133.664 89.1546 133.457 89.1546ZM4.27937 91.3867C4.0772 91.3867 3.89038 91.2603 3.81924 91.0622C3.71124 90.7531 3.60581 90.4434 3.50344 90.1338C3.41848 89.8778 3.5577 89.6035 3.81105 89.5185C4.06697 89.4336 4.34233 89.5713 4.42729 89.8272C4.52812 90.1322 4.63048 90.4368 4.73848 90.7398C4.82651 90.9931 4.69497 91.2711 4.43906 91.3601C4.3848 91.3775 4.33311 91.3867 4.27937 91.3867ZM132.195 92.8419C132.138 92.8419 132.081 92.8306 132.024 92.8096C131.772 92.717 131.645 92.4334 131.737 92.1832C131.853 91.8801 131.963 91.5782 132.073 91.2741C132.162 91.0218 132.443 90.8908 132.695 90.9819C132.947 91.0725 133.079 91.3499 132.99 91.6027C132.877 91.9114 132.765 92.22 132.651 92.5251C132.576 92.719 132.392 92.8419 132.195 92.8419ZM5.66539 95.0223C5.47396 95.0223 5.29278 94.9107 5.21447 94.7229C5.08959 94.4219 4.96675 94.1189 4.84596 93.8149C4.74615 93.5661 4.86899 93.2836 5.1203 93.1828C5.36956 93.085 5.65157 93.2032 5.75138 93.4556C5.86961 93.754 5.9904 94.0524 6.11426 94.3498C6.21765 94.5985 6.09942 94.8831 5.85272 94.9865C5.79079 95.0121 5.72527 95.0223 5.66539 95.0223ZM130.725 96.4488C130.661 96.4488 130.591 96.436 130.53 96.4073C130.284 96.2983 130.171 96.0091 130.279 95.7645C130.412 95.4686 130.539 95.1748 130.664 94.8775C130.77 94.6287 131.057 94.5151 131.303 94.6195C131.551 94.7249 131.666 95.0121 131.561 95.2572C131.431 95.5592 131.303 95.8586 131.17 96.1581C131.09 96.3408 130.911 96.4488 130.725 96.4488ZM7.25818 98.5739C7.077 98.5739 6.9035 98.4741 6.82007 98.3021C6.67676 98.0058 6.53754 97.711 6.39986 97.4126C6.28624 97.1695 6.3932 96.8803 6.6353 96.7666C6.87944 96.654 7.16862 96.7605 7.28225 97.0041C7.41993 97.2979 7.55555 97.5871 7.69528 97.8784C7.81249 98.1184 7.71166 98.4086 7.47059 98.5269C7.4015 98.5591 7.32933 98.5739 7.25818 98.5739ZM129.051 99.9661C128.976 99.9661 128.901 99.9487 128.829 99.9119C128.59 99.788 128.496 99.4963 128.616 99.2557C128.764 98.9696 128.908 98.6819 129.051 98.3927C129.171 98.1506 129.462 98.0539 129.704 98.1711C129.945 98.2904 130.043 98.5831 129.924 98.8217C129.78 99.118 129.633 99.4092 129.485 99.6974C129.398 99.8684 129.227 99.9661 129.051 99.9661ZM9.0506 102.03C8.87863 102.03 8.7133 101.941 8.62527 101.781C8.4666 101.495 8.30948 101.209 8.15593 100.92C8.02695 100.684 8.11549 100.389 8.35298 100.262C8.58944 100.132 8.88425 100.222 9.01272 100.461C9.16576 100.743 9.31828 101.027 9.47541 101.309C9.60746 101.542 9.5225 101.839 9.28962 101.969C9.21233 102.011 9.13198 102.03 9.0506 102.03ZM127.178 103.379C127.095 103.379 127.01 103.357 126.932 103.312C126.7 103.175 126.623 102.876 126.757 102.644C126.922 102.367 127.082 102.089 127.241 101.808C127.375 101.574 127.673 101.492 127.905 101.625C128.139 101.755 128.222 102.054 128.089 102.288C127.928 102.573 127.764 102.855 127.6 103.137C127.509 103.293 127.345 103.379 127.178 103.379ZM11.0395 105.38C10.8788 105.38 10.7202 105.296 10.6296 105.151C10.4556 104.875 10.281 104.6 10.1101 104.32C9.96881 104.092 10.0389 103.792 10.2693 103.651C10.498 103.511 10.7974 103.58 10.9382 103.809C11.1081 104.085 11.2791 104.358 11.4516 104.63C11.5959 104.858 11.5258 105.157 11.3001 105.303C11.2197 105.354 11.1291 105.38 11.0395 105.38ZM125.115 106.679C125.021 106.679 124.928 106.653 124.847 106.597C124.623 106.447 124.562 106.146 124.71 105.923C124.888 105.656 125.066 105.384 125.24 105.115C125.387 104.889 125.688 104.821 125.914 104.97C126.14 105.115 126.204 105.417 126.059 105.642C125.881 105.917 125.703 106.189 125.519 106.461C125.428 106.605 125.273 106.679 125.115 106.679ZM13.2174 108.608C13.0648 108.608 12.9154 108.538 12.8217 108.404C12.6288 108.139 12.4419 107.87 12.2546 107.602C12.0995 107.382 12.1558 107.077 12.3775 106.925C12.5965 106.77 12.9005 106.826 13.0556 107.047C13.2368 107.31 13.4241 107.575 13.612 107.836C13.7681 108.055 13.7189 108.359 13.5009 108.517C13.4149 108.578 13.3151 108.608 13.2174 108.608ZM122.868 109.858C122.764 109.858 122.662 109.825 122.575 109.76C122.36 109.598 122.316 109.293 122.478 109.077C122.672 108.821 122.864 108.562 123.053 108.303C123.21 108.085 123.514 108.038 123.732 108.196C123.948 108.354 123.999 108.656 123.839 108.877C123.647 109.138 123.454 109.401 123.257 109.663C123.159 109.79 123.013 109.858 122.868 109.858ZM15.5758 111.707C15.432 111.707 15.2908 111.646 15.1935 111.526C14.9893 111.273 14.7851 111.016 14.5829 110.759C14.4191 110.549 14.458 110.242 14.6668 110.075C14.8813 109.909 15.1863 109.947 15.3506 110.158C15.5503 110.411 15.7514 110.664 15.9531 110.915C16.123 111.125 16.0897 111.431 15.8783 111.6C15.7903 111.672 15.6813 111.707 15.5758 111.707ZM120.44 112.9C120.331 112.9 120.219 112.861 120.128 112.784C119.92 112.612 119.895 112.303 120.069 112.097C120.277 111.852 120.481 111.605 120.688 111.358C120.858 111.149 121.166 111.119 121.373 111.29C121.579 111.46 121.611 111.768 121.437 111.975C121.232 112.226 121.024 112.477 120.813 112.727C120.716 112.841 120.579 112.9 120.44 112.9ZM18.1068 114.667C17.9753 114.667 17.8422 114.615 17.7465 114.509C17.5264 114.266 17.3084 114.022 17.0939 113.776C16.9148 113.576 16.9352 113.267 17.1364 113.089C17.3381 112.911 17.6457 112.931 17.8212 113.133C18.0357 113.374 18.2506 113.615 18.4671 113.855C18.6473 114.053 18.6325 114.363 18.4328 114.543C18.3402 114.627 18.224 114.667 18.1068 114.667ZM117.845 115.799C117.725 115.799 117.606 115.755 117.512 115.666C117.317 115.481 117.307 115.173 117.491 114.977C117.714 114.744 117.933 114.506 118.151 114.271C118.333 114.074 118.642 114.063 118.839 114.243C119.038 114.425 119.048 114.734 118.867 114.932C118.645 115.171 118.423 115.409 118.198 115.647C118.104 115.748 117.974 115.799 117.845 115.799ZM20.8062 117.48C20.6823 117.48 20.5595 117.434 20.4643 117.341C20.2309 117.111 19.998 116.879 19.7687 116.647C19.5804 116.455 19.5814 116.146 19.7743 115.958C19.9637 115.768 20.2713 115.771 20.4617 115.962C20.689 116.192 20.9172 116.419 21.147 116.647C21.3385 116.835 21.341 117.144 21.1527 117.335C21.0575 117.433 20.9321 117.48 20.8062 117.48ZM115.089 118.543C114.961 118.543 114.832 118.491 114.735 118.389C114.549 118.193 114.56 117.885 114.757 117.701C114.99 117.482 115.221 117.259 115.453 117.037C115.647 116.849 115.955 116.853 116.141 117.046C116.328 117.24 116.323 117.548 116.131 117.733C115.897 117.963 115.659 118.187 115.422 118.412C115.329 118.499 115.21 118.543 115.089 118.543ZM23.6611 120.132C23.5475 120.132 23.4329 120.092 23.3407 120.011C23.094 119.796 22.8489 119.578 22.6063 119.359C22.4082 119.177 22.3908 118.87 22.5709 118.672C22.7511 118.47 23.0597 118.455 23.2593 118.634C23.4994 118.852 23.7389 119.065 23.9826 119.278C24.1822 119.455 24.2052 119.762 24.0281 119.967C23.9309 120.075 23.7963 120.132 23.6611 120.132ZM112.182 121.124C112.042 121.124 111.905 121.066 111.81 120.95C111.637 120.745 111.664 120.437 111.868 120.265C112.116 120.058 112.36 119.849 112.601 119.64C112.808 119.465 113.113 119.487 113.291 119.691C113.466 119.895 113.444 120.202 113.24 120.378C112.993 120.591 112.745 120.802 112.492 121.011C112.402 121.087 112.293 121.124 112.182 121.124ZM26.6655 122.615C26.5611 122.615 26.4542 122.584 26.3671 122.513C26.1077 122.312 25.8517 122.108 25.5958 121.904C25.386 121.736 25.3502 121.43 25.5201 121.219C25.689 121.011 25.9951 120.976 26.2054 121.144C26.4567 121.346 26.7101 121.548 26.965 121.745C27.1774 121.911 27.2152 122.217 27.0484 122.429C26.9532 122.553 26.8089 122.615 26.6655 122.615ZM109.133 123.534C108.983 123.534 108.837 123.467 108.74 123.339C108.579 123.125 108.623 122.817 108.841 122.658C109.097 122.466 109.354 122.272 109.61 122.075C109.823 121.913 110.127 121.952 110.292 122.165C110.456 122.38 110.415 122.685 110.202 122.847C109.944 123.045 109.683 123.243 109.423 123.438C109.335 123.502 109.233 123.534 109.133 123.534ZM29.8087 124.926C29.7119 124.926 29.6167 124.897 29.5318 124.839C29.261 124.653 28.9923 124.465 28.7261 124.275C28.5081 124.119 28.4564 123.813 28.6125 123.595C28.7696 123.376 29.0752 123.327 29.2922 123.48C29.5558 123.669 29.8209 123.854 30.0861 124.038C30.3067 124.192 30.3614 124.495 30.2089 124.715C30.1147 124.852 29.9632 124.926 29.8087 124.926ZM105.948 125.765C105.791 125.765 105.634 125.689 105.542 125.546C105.394 125.321 105.456 125.02 105.679 124.871C105.948 124.695 106.214 124.514 106.48 124.335C106.704 124.182 107.005 124.243 107.158 124.465C107.308 124.686 107.251 124.989 107.029 125.141C106.757 125.325 106.489 125.505 106.217 125.686C106.133 125.739 106.039 125.765 105.948 125.765ZM33.0787 127.05C32.9917 127.05 32.9047 127.028 32.8274 126.98C32.5464 126.808 32.2675 126.636 31.9885 126.462C31.7613 126.319 31.6927 126.018 31.835 125.79C31.9808 125.562 32.2802 125.495 32.5075 125.638C32.7818 125.809 33.0572 125.981 33.3315 126.149C33.5619 126.287 33.634 126.589 33.4943 126.817C33.4027 126.968 33.244 127.05 33.0787 127.05ZM102.642 127.813C102.472 127.813 102.308 127.725 102.218 127.573C102.084 127.338 102.164 127.042 102.397 126.906C102.677 126.744 102.951 126.579 103.228 126.415C103.458 126.277 103.758 126.35 103.896 126.581C104.035 126.81 103.958 127.111 103.73 127.249C103.45 127.418 103.167 127.582 102.884 127.749C102.806 127.793 102.724 127.813 102.642 127.813ZM36.4629 128.985C36.3851 128.985 36.3078 128.965 36.2336 128.928C35.9454 128.773 35.6573 128.618 35.3717 128.46C35.1362 128.329 35.0513 128.033 35.1823 127.798C35.3118 127.562 35.6071 127.477 35.8456 127.608C36.1266 127.762 36.4091 127.916 36.6937 128.068C36.9286 128.196 37.0192 128.49 36.8933 128.726C36.8048 128.891 36.6349 128.985 36.4629 128.985ZM99.2156 129.672C99.04 129.672 98.8681 129.574 98.7831 129.404C98.6613 129.165 98.7565 128.872 98.9976 128.75C99.2857 128.606 99.5713 128.458 99.8569 128.307C100.096 128.184 100.391 128.276 100.514 128.512C100.638 128.75 100.548 129.046 100.309 129.169C100.018 129.321 99.7284 129.472 99.4382 129.62C99.3671 129.657 99.2903 129.672 99.2156 129.672ZM39.9469 130.718C39.8778 130.718 39.8082 130.706 39.7416 130.676C39.4463 130.538 39.1494 130.397 38.8557 130.257C38.6146 130.14 38.5112 129.851 38.6274 129.606C38.7441 129.365 39.0379 129.264 39.2769 129.379C39.5681 129.519 39.8599 129.657 40.1501 129.791C40.3957 129.902 40.5012 130.194 40.3876 130.438C40.3062 130.614 40.1281 130.718 39.9469 130.718ZM95.6927 131.332C95.5044 131.332 95.3268 131.223 95.2449 131.038C95.1374 130.794 95.252 130.506 95.4962 130.397C95.7946 130.27 96.0883 130.14 96.3811 130.007C96.6268 129.895 96.916 130.003 97.026 130.247C97.1376 130.492 97.027 130.781 96.7819 130.892C96.4855 131.027 96.1871 131.16 95.8867 131.292C95.8232 131.318 95.7567 131.332 95.6927 131.332ZM43.5235 132.251C43.4641 132.251 43.4032 132.242 43.3459 132.218C43.0419 132.1 42.7378 131.976 42.4359 131.852C42.1892 131.75 42.0674 131.465 42.1707 131.217C42.2741 130.968 42.5577 130.85 42.8064 130.951C43.1048 131.075 43.4032 131.194 43.7016 131.311C43.9529 131.411 44.0747 131.695 43.977 131.944C43.9012 132.137 43.7165 132.251 43.5235 132.251ZM92.0792 132.785C91.8827 132.785 91.6959 132.667 91.6237 132.468C91.528 132.217 91.657 131.935 91.9093 131.843C92.2133 131.731 92.5127 131.617 92.8157 131.499C93.065 131.403 93.3481 131.53 93.4458 131.781C93.5436 132.031 93.4161 132.312 93.1658 132.409C92.8592 132.527 92.5552 132.643 92.2486 132.755C92.1913 132.778 92.134 132.785 92.0792 132.785ZM47.183 133.578C47.1329 133.578 47.0822 133.57 47.0305 133.552C46.7219 133.452 46.4122 133.348 46.1046 133.242C45.8487 133.151 45.7131 132.876 45.8016 132.621C45.8897 132.365 46.1686 132.231 46.4209 132.32C46.7265 132.426 47.0326 132.527 47.3356 132.627C47.5915 132.714 47.7291 132.989 47.6467 133.245C47.5776 133.448 47.3873 133.578 47.183 133.578ZM88.3885 134.033C88.1796 134.033 87.9882 133.898 87.9217 133.69C87.8449 133.432 87.9882 133.161 88.2441 133.08C88.5548 132.986 88.8624 132.888 89.169 132.788C89.4259 132.708 89.6977 132.852 89.7806 133.106C89.8646 133.36 89.7223 133.636 89.4674 133.718C89.1552 133.816 88.843 133.916 88.5323 134.01C88.4852 134.026 88.4356 134.033 88.3885 134.033ZM50.9147 134.692C50.8738 134.692 50.8298 134.685 50.7873 134.675C50.472 134.591 50.1578 134.506 49.842 134.415C49.5825 134.342 49.4335 134.073 49.5083 133.815C49.5815 133.554 49.8512 133.403 50.1091 133.479C50.4193 133.566 50.7279 133.651 51.0386 133.735C51.2981 133.804 51.4522 134.071 51.3856 134.331C51.3257 134.55 51.1297 134.692 50.9147 134.692ZM84.6327 135.064C84.4136 135.064 84.214 134.916 84.1588 134.694C84.0958 134.431 84.2565 134.169 84.5181 134.105C84.8303 134.028 85.1425 133.949 85.4542 133.869C85.7162 133.802 85.9808 133.957 86.0489 134.217C86.1154 134.476 85.9604 134.742 85.6999 134.809C85.383 134.893 85.0667 134.973 84.7499 135.05C84.7095 135.06 84.6695 135.064 84.6327 135.064ZM54.7028 135.59C54.6685 135.59 54.6362 135.587 54.603 135.58C54.2831 135.515 53.9637 135.447 53.6438 135.375C53.3823 135.318 53.2159 135.057 53.2743 134.794C53.3316 134.532 53.5931 134.369 53.8547 134.422C54.1705 134.494 54.4837 134.562 54.8005 134.627C55.0646 134.682 55.234 134.939 55.1777 135.201C55.1312 135.431 54.929 135.59 54.7028 135.59ZM80.8242 135.879C80.5944 135.879 80.3881 135.714 80.3446 135.48C80.2975 135.218 80.4731 134.962 80.7367 134.912C81.0515 134.855 81.3693 134.794 81.6861 134.732C81.9497 134.677 82.2067 134.848 82.2573 135.114C82.3111 135.379 82.1391 135.633 81.8765 135.686C81.5551 135.749 81.2347 135.812 80.9138 135.87C80.8836 135.877 80.8529 135.879 80.8242 135.879ZM58.5343 136.27C58.5102 136.27 58.4877 136.269 58.4631 136.266C58.1407 136.218 57.8182 136.168 57.4948 136.114C57.2307 136.07 57.0495 135.821 57.093 135.555C57.1344 135.289 57.3857 135.111 57.6509 135.153C57.9697 135.205 58.2876 135.254 58.6069 135.303C58.8731 135.342 59.0569 135.588 59.0164 135.855C58.9832 136.097 58.7723 136.27 58.5343 136.27ZM76.9743 136.473C76.7307 136.473 76.5234 136.292 76.4921 136.047C76.4599 135.781 76.6482 135.538 76.917 135.503C77.2358 135.463 77.5547 135.422 77.8725 135.379C78.1423 135.338 78.3869 135.524 78.4222 135.792C78.4601 136.059 78.2753 136.305 78.0082 136.342C77.6832 136.387 77.3587 136.429 77.0362 136.47C77.0142 136.473 76.9937 136.473 76.9743 136.473ZM62.4006 136.729H62.3571C62.0321 136.698 61.706 136.667 61.3805 136.634C61.1144 136.605 60.9189 136.366 60.9475 136.098C60.9762 135.831 61.2106 135.633 61.4824 135.664C61.8038 135.698 62.1242 135.73 62.4441 135.758C62.7128 135.783 62.9099 136.02 62.8858 136.287C62.8628 136.541 62.6509 136.729 62.4006 136.729ZM73.0987 136.85C72.8454 136.85 72.6309 136.652 72.6135 136.393C72.5961 136.125 72.7993 135.893 73.067 135.877C73.3879 135.852 73.7104 135.831 74.0318 135.804C74.3072 135.788 74.5324 135.981 74.5564 136.249C74.5769 136.517 74.3793 136.752 74.1111 136.774C73.7841 136.8 73.4591 136.825 73.131 136.85H73.0987ZM66.2874 136.968H66.272C65.9455 136.956 65.6195 136.944 65.2914 136.927C65.0227 136.914 64.8174 136.686 64.8266 136.419C64.84 136.15 65.0856 135.949 65.3369 135.955C65.6594 135.972 65.9808 135.986 66.3033 135.993C66.572 136.003 66.7818 136.228 66.7752 136.496C66.7659 136.761 66.5489 136.968 66.2874 136.968ZM69.2099 137C68.9412 137 68.7257 136.785 68.7221 136.519C68.7201 136.249 68.9345 136.028 69.2053 136.026C69.5257 136.023 69.8466 136.017 70.1691 136.01H70.1819C70.4449 136.01 70.6614 136.218 70.6696 136.482C70.6742 136.753 70.4628 136.975 70.1936 136.984C69.8686 136.992 69.5416 136.996 69.2145 137H69.2099Z" fill="white"/>
<path d="M40.3261 51.9707L68.9998 101.548L97.6746 51.9707H40.3261ZM68.9998 103C68.8258 103 68.6656 102.91 68.5789 102.758L39.0643 51.7278C38.9786 51.5781 38.9786 51.3942 39.0643 51.2435C39.1526 51.0937 39.3123 51 39.4842 51H98.5129C98.6894 51 98.8471 51.0937 98.9338 51.2435C99.0221 51.3942 99.0221 51.5781 98.9338 51.7278L69.4218 102.758C69.3335 102.91 69.1738 103 68.9998 103Z" fill="white"/>
<path d="M40.3256 85.0315H97.6746L68.9983 35.4352L40.3256 85.0315ZM98.5129 86H39.4874C39.3124 86 39.1532 85.9088 39.0654 85.757C38.9782 85.6072 38.9782 85.4243 39.0654 85.2725L68.58 34.2247C68.7535 33.9251 69.2478 33.9251 69.4208 34.2247L98.9338 85.2725C99.0221 85.4243 99.0221 85.6072 98.9338 85.757C98.8471 85.9088 98.6879 86 98.5129 86Z" fill="white"/>
<path d="M19.9518 103.779L41.1817 105.227C41.5535 105.251 41.8798 105.489 42.0186 105.836L49.9564 125.58L67.9798 114.275C68.2989 114.074 68.6995 114.074 69.0155 114.275L87.042 125.58L94.9798 105.836C95.1186 105.489 95.4449 105.251 95.8183 105.227L117.047 103.779L111.864 83.137C111.773 82.7763 111.897 82.3926 112.184 82.1538L128.507 68.4992L112.184 54.8477C111.897 54.6089 111.773 54.2262 111.864 53.8645L117.047 33.2235L95.8183 31.7742C95.4449 31.7475 95.1186 31.5124 94.9798 31.1666L87.042 11.4206L69.0155 22.7288C68.6995 22.926 68.2989 22.926 67.9798 22.7288L49.9564 11.4206L42.0186 31.1666C41.8798 31.5124 41.5535 31.7475 41.1817 31.7742L19.9518 33.2235L25.1349 53.8645C25.2256 54.2262 25.1016 54.6089 24.8143 54.8477L8.49194 68.4992L24.8143 82.1538C25.1016 82.3926 25.2256 82.7763 25.1349 83.137L19.9518 103.779ZM87.5117 127.999C87.3304 127.999 87.1501 127.95 86.9949 127.85L68.4977 116.25L50.0036 127.85C49.7577 128.006 49.4591 128.041 49.1845 127.952C48.909 127.863 48.6887 127.656 48.5832 127.39L40.4384 107.131L18.6554 105.644C18.3695 105.624 18.1052 105.478 17.9352 105.243C17.7651 105.013 17.7078 104.714 17.7779 104.435L23.0953 83.2563L6.34677 69.2492C6.12601 69.0628 6 68.7897 6 68.4992C6 68.2118 6.12601 67.9382 6.34677 67.7533L23.0953 53.7462L17.7779 32.5667C17.7078 32.2865 17.7651 31.9899 17.9352 31.7557C18.1052 31.5237 18.3695 31.3766 18.6554 31.3582L40.4384 29.8709L48.5832 9.61262C48.6887 9.34365 48.909 9.13718 49.1845 9.04753C49.4581 8.95788 49.7577 8.99681 50.0036 9.14948L68.4977 20.7528L86.9949 9.14948C87.2372 8.99681 87.5394 8.95992 87.8139 9.04753C88.0859 9.13718 88.3077 9.34365 88.4158 9.61262L96.56 29.8709L118.341 31.3582C118.629 31.3766 118.893 31.5237 119.063 31.7557C119.233 31.9899 119.291 32.2865 119.219 32.5667L113.903 53.7462L130.651 67.7533C130.872 67.9382 131 68.2118 131 68.4992C131 68.7897 130.872 69.0628 130.651 69.2492L113.903 83.2563L119.219 104.435C119.291 104.714 119.233 105.013 119.063 105.243C118.893 105.478 118.629 105.624 118.341 105.644L96.56 107.131L88.4158 127.39C88.3077 127.656 88.0859 127.863 87.8139 127.952C87.714 127.985 87.6126 127.999 87.5117 127.999Z" fill="white"/>
<path d="M58.094 101.278C58.235 101.278 58.3724 101.34 58.4649 101.449L69.0242 113.76L79.2979 101.209C79.4123 101.065 79.6034 100.998 79.7847 101.044L95.5803 104.81L96.4972 88.6294C96.508 88.4434 96.6245 88.2812 96.7966 88.2078L111.791 81.9896L103.007 68.3629C102.902 68.2038 102.901 68.006 102.997 67.8459L111.469 54.0213L96.3327 48.1508C96.1585 48.081 96.0395 47.9219 96.0247 47.7359L94.7312 31.5824L79.0297 35.7114C78.8478 35.7593 78.6588 35.6977 78.5362 35.5569L67.9759 23.2445L57.7047 35.7981C57.5852 35.9424 57.3941 36.0051 57.2133 35.9617L41.4198 32.1963L40.5023 48.3772C40.4936 48.5623 40.3766 48.7244 40.205 48.7968L25.21 55.0134L33.9956 68.6438C34.0957 68.7983 34.1013 68.9996 34.0017 69.1592L25.5318 82.9853L40.6673 88.8573C40.8415 88.9236 40.9621 89.0847 40.9769 89.2688L42.2699 105.423L57.9714 101.297C58.0138 101.284 58.0552 101.278 58.094 101.278ZM69.0318 115C68.8913 115 68.757 114.938 68.663 114.831L57.9244 102.309L41.9536 106.509C41.8162 106.545 41.666 106.518 41.5496 106.436C41.4315 106.351 41.358 106.221 41.3467 106.078L40.0308 89.6516L24.6383 83.6781C24.5045 83.6277 24.4013 83.517 24.3533 83.3809C24.3083 83.2448 24.3257 83.0975 24.3987 82.9731L33.0143 68.9124L24.0759 55.0511C23.9982 54.9298 23.9798 54.7804 24.0222 54.6443C24.0657 54.5082 24.1663 54.396 24.2991 54.3425L39.5496 48.0193L40.4829 31.5631C40.4936 31.4203 40.5631 31.2888 40.678 31.2011C40.7945 31.1175 40.9391 31.0879 41.0811 31.1185L57.1433 34.9487L67.5912 22.1825C67.6817 22.0714 67.8181 22.0066 67.9621 22.0041C68.1087 21.9801 68.2431 22.0648 68.3366 22.1744L79.0747 34.6954L95.0454 30.4971C95.1849 30.4603 95.3351 30.4889 95.4515 30.572C95.5695 30.6536 95.6431 30.7836 95.6543 30.9268L96.9693 47.355L112.361 53.3285C112.496 53.379 112.6 53.4886 112.647 53.6237C112.692 53.7608 112.675 53.9102 112.6 54.0326L103.987 68.0932L112.923 81.9545C113 82.0758 113.021 82.2242 112.978 82.3613C112.935 82.4974 112.835 82.6096 112.701 82.6651L97.4495 88.9873L96.5172 105.443C96.508 105.586 96.438 105.719 96.3235 105.804C96.2066 105.889 96.061 105.921 95.9179 105.887L79.8578 102.058L69.4088 114.823C69.3184 114.933 69.183 114.999 69.039 115H69.0318Z" fill="white"/>
</svg>
