<svg viewBox="0 0 141 137" fill="none" xmlns="http://www.w3.org/2000/svg">
<path d="M68.6922 1.35946C68.3476 1.35946 68.057 1.09 68.038 0.740539C68.018 0.378161 68.2947 0.0675035 68.656 0.0486858C69.0992 0.0227977 69.5479 0.00865487 69.9972 0.00164002C70.3173 -0.025473 70.6564 0.287525 70.6608 0.64879C70.6669 1.01117 70.3774 1.30891 70.0128 1.31475C69.583 1.32066 69.156 1.3348 68.7312 1.35946H68.6922ZM75.2355 1.6866C75.2038 1.6866 75.1665 1.68426 75.132 1.67953C74.7111 1.61367 74.2863 1.55482 73.8593 1.50538C73.5002 1.46418 73.2413 1.13944 73.2825 0.7794C73.3237 0.418135 73.646 0.153406 74.0107 0.202844C74.4555 0.253396 74.8981 0.312243 75.3391 0.384006C75.6982 0.441684 75.942 0.77706 75.8841 1.13476C75.8323 1.45834 75.5545 1.6866 75.2355 1.6866ZM63.5023 2.10081C63.2045 2.10081 62.9328 1.89487 62.8632 1.59245C62.7819 1.23826 63.0007 0.887627 63.3526 0.805286C63.789 0.701734 64.2255 0.611097 64.667 0.528756C65.0222 0.46874 65.3657 0.698171 65.4331 1.05353C65.4999 1.41007 65.2633 1.75246 64.907 1.82072C64.4872 1.89838 64.0657 1.98662 63.6504 2.08194C63.602 2.09491 63.5502 2.10081 63.5023 2.10081ZM80.3274 2.9515C80.2578 2.9515 80.186 2.93975 80.1153 2.91503C79.7105 2.77735 79.3013 2.64674 78.8882 2.52554C78.5408 2.42321 78.3421 2.05844 78.4445 1.71015C78.547 1.36419 78.9083 1.16182 79.2601 1.26654C79.6894 1.39242 80.1164 1.52893 80.5401 1.67485C80.8825 1.79132 81.0662 2.16433 80.9498 2.50789C80.8541 2.77969 80.6013 2.9515 80.3274 2.9515ZM58.519 3.72102C58.2635 3.72102 58.0202 3.57159 57.9138 3.321C57.773 2.98679 57.9305 2.60087 58.2635 2.45968C58.6732 2.28553 59.0863 2.1208 59.5039 1.9643C59.844 1.83603 60.2226 2.01134 60.3512 2.34906C60.4759 2.69028 60.305 3.0668 59.9648 3.19507C59.564 3.3445 59.1681 3.50217 58.774 3.6693C58.6905 3.70459 58.6036 3.72102 58.519 3.72102ZM85.1292 5.07182C85.0207 5.07182 84.9138 5.04716 84.8147 4.99304C84.4372 4.78477 84.057 4.58707 83.6723 4.39762C83.3477 4.23527 83.2135 3.84344 83.3761 3.51864C83.5347 3.19273 83.93 3.05856 84.2535 3.22096C84.656 3.41865 85.0524 3.62576 85.4443 3.84105C85.7622 4.01636 85.8786 4.41527 85.7043 4.73182C85.5858 4.94945 85.3608 5.07182 85.1292 5.07182ZM53.8886 6.1697C53.6721 6.1697 53.4605 6.06498 53.3347 5.86962C53.1393 5.5637 53.2261 5.15895 53.5323 4.96242C53.9065 4.72002 54.2889 4.48586 54.6725 4.26233C54.9887 4.07994 55.389 4.18467 55.57 4.49766C55.7537 4.81066 55.649 5.2119 55.335 5.39545C54.9654 5.61074 54.6007 5.83433 54.2416 6.06615C54.1325 6.13675 54.0089 6.1697 53.8886 6.1697ZM89.4935 7.98171C89.3498 7.98171 89.2062 7.93349 89.0848 7.83818C88.7497 7.57106 88.4084 7.31106 88.0627 7.05803C87.7693 6.84391 87.7058 6.43326 87.919 6.14142C88.1317 5.84846 88.5448 5.78489 88.8382 5.99789C89.199 6.26262 89.5536 6.53208 89.9038 6.81212C90.1877 7.03804 90.2334 7.45108 90.0062 7.73346C89.8782 7.89703 89.6861 7.98171 89.4935 7.98171ZM49.7376 9.37254C49.56 9.37254 49.3835 9.30078 49.2527 9.15959C49.0078 8.89247 49.0267 8.47831 49.2928 8.23235C49.6224 7.93116 49.9587 7.63698 50.301 7.3487C50.5777 7.11337 50.9908 7.14983 51.2258 7.4287C51.459 7.7064 51.4223 8.11939 51.1445 8.35238C50.8177 8.62891 50.4965 8.91128 50.1813 9.20073C50.055 9.31608 49.8952 9.37254 49.7376 9.37254ZM93.3043 11.5847C93.1234 11.5847 92.9447 11.5117 92.8138 11.367C92.5277 11.0469 92.2359 10.7328 91.937 10.4245C91.6864 10.1644 91.6903 9.74906 91.9526 9.49725C92.2126 9.24427 92.6268 9.25017 92.8812 9.51139C93.1913 9.83145 93.4953 10.1585 93.7926 10.4916C94.0353 10.7622 94.0119 11.1787 93.7414 11.4188C93.615 11.5306 93.4585 11.5847 93.3043 11.5847ZM46.1851 13.2343C46.0454 13.2343 45.904 13.1885 45.7848 13.0967C45.4981 12.8755 45.4463 12.4636 45.6673 12.1754C45.9418 11.8223 46.2218 11.4752 46.5113 11.1317C46.7429 10.854 47.1572 10.8187 47.4361 11.0528C47.7122 11.2881 47.7467 11.7011 47.5135 11.9777C47.2373 12.306 46.9679 12.6401 46.7051 12.979C46.577 13.1461 46.3827 13.2343 46.1851 13.2343ZM96.4449 15.7807C96.2272 15.7807 96.0123 15.6712 95.8898 15.4723C95.6615 15.1088 95.4271 14.7511 95.1861 14.3981C94.9812 14.098 95.0591 13.6897 95.3576 13.4861C95.6576 13.2814 96.0663 13.3591 96.2695 13.6556C96.5228 14.0251 96.7661 14.3981 97.0016 14.7782C97.1948 15.0852 97.1007 15.4912 96.7923 15.6818C96.6848 15.7489 96.5651 15.7807 96.4449 15.7807ZM43.3402 17.6421C43.2366 17.6421 43.1303 17.6162 43.0329 17.5644C42.7116 17.395 42.5903 16.9973 42.7601 16.6773C42.9705 16.2831 43.1893 15.8912 43.4165 15.5041C43.5991 15.1935 44.0027 15.0888 44.3145 15.2711C44.6262 15.4547 44.7309 15.8571 44.5472 16.1701C44.3295 16.5396 44.1213 16.915 43.9203 17.2938C43.8012 17.5151 43.5751 17.6421 43.3402 17.6421ZM98.8277 20.4473C98.5688 20.4473 98.3244 20.2919 98.2197 20.0378C98.0594 19.6401 97.889 19.2495 97.7125 18.86C97.5617 18.5329 97.7064 18.1422 98.036 17.9916C98.3639 17.8398 98.7559 17.9846 98.9056 18.314C99.0916 18.7199 99.2692 19.1306 99.4362 19.5424C99.5748 19.8778 99.4128 20.2614 99.0771 20.3991C98.9936 20.4308 98.9112 20.4473 98.8277 20.4473ZM41.2892 22.4735C41.2218 22.4735 41.1528 22.4641 41.0854 22.4417C40.7408 22.3299 40.5526 21.9581 40.6656 21.6145C40.8043 21.1874 40.9524 20.7626 41.1088 20.3461C41.2363 20.0048 41.616 19.8342 41.955 19.9613C42.2941 20.0884 42.4656 20.4649 42.3386 20.8061C42.1894 21.2062 42.0469 21.6122 41.9127 22.0228C41.822 22.2994 41.5653 22.4735 41.2892 22.4735ZM100.377 25.4563C100.074 25.4563 99.802 25.2469 99.7352 24.9386C99.6433 24.5197 99.5442 24.1032 99.4351 23.6914C99.3432 23.3407 99.5537 22.9818 99.9044 22.8889C100.254 22.7971 100.611 23.0065 100.706 23.356C100.819 23.7878 100.922 24.2232 101.017 24.6609C101.095 25.0151 100.87 25.3646 100.515 25.4422C100.468 25.4528 100.422 25.4563 100.377 25.4563ZM40.1006 27.5838C40.0688 27.5838 40.0382 27.5816 40.0065 27.5777C39.6474 27.5259 39.398 27.1941 39.4497 26.8356C39.5132 26.3896 39.5867 25.9493 39.6685 25.5104C39.7359 25.1563 40.0761 24.921 40.4357 24.988C40.7915 25.0551 41.0253 25.3987 40.9596 25.754C40.8794 26.1742 40.8104 26.5951 40.7503 27.0199C40.7029 27.3483 40.4218 27.5838 40.1006 27.5838ZM101.041 30.6581C100.693 30.6581 100.401 30.3831 100.387 30.0301C100.368 29.5992 100.341 29.1722 100.306 28.7463C100.274 28.3861 100.544 28.0687 100.905 28.0381C101.27 28.0047 101.584 28.277 101.613 28.6366C101.65 29.0792 101.68 29.5252 101.697 29.9733C101.713 30.3369 101.432 30.6442 101.069 30.6581H101.041ZM39.8005 32.8188C39.4475 32.8188 39.1547 32.5388 39.1452 32.1808C39.1357 31.8868 39.1324 31.5901 39.1335 31.2939L39.1357 30.8407C39.1419 30.4794 39.3946 30.1571 39.8016 30.1938C40.164 30.1971 40.4535 30.4961 40.4491 30.8585L40.4463 31.2939C40.4452 31.5806 40.4491 31.8634 40.4574 32.1435C40.468 32.507 40.183 32.8082 39.8205 32.8188H39.8005ZM100.816 35.8981C100.789 35.8981 100.76 35.8959 100.732 35.8931C100.372 35.8452 100.119 35.5156 100.164 35.1565C100.22 34.7328 100.266 34.3069 100.302 33.8799C100.333 33.5175 100.639 33.2414 101.012 33.2826C101.374 33.3126 101.64 33.6305 101.61 33.9918C101.572 34.4378 101.523 34.8837 101.466 35.3235C101.425 35.6542 101.141 35.8981 100.816 35.8981ZM40.3934 38.0287C40.0889 38.0287 39.815 37.8138 39.7509 37.5032C39.663 37.0667 39.5839 36.6263 39.5149 36.1826C39.4581 35.8241 39.703 35.4883 40.0605 35.4321C40.4313 35.3781 40.7547 35.6203 40.8115 35.9805C40.8772 36.4031 40.9535 36.8251 41.0398 37.2432C41.1105 37.5984 40.8794 37.9441 40.5253 38.0159C40.4808 38.0254 40.4374 38.0287 40.3934 38.0287ZM99.6995 41.0201C99.6338 41.0201 99.5693 41.0106 99.503 40.9905C99.1573 40.8825 98.963 40.5129 99.0726 40.1671C99.1996 39.7613 99.3171 39.3493 99.4267 38.9362C99.5175 38.5855 99.876 38.375 100.228 38.4669C100.579 38.5587 100.788 38.9184 100.696 39.2691C100.582 39.7034 100.459 40.1326 100.325 40.5585C100.237 40.8386 99.9785 41.0201 99.6995 41.0201ZM41.8738 43.0594C41.6104 43.0594 41.3632 42.9013 41.2619 42.6413C41.0982 42.2259 40.9468 41.8062 40.802 41.3836C40.6829 41.039 40.8666 40.6649 41.2101 40.5496C41.5525 40.4282 41.9255 40.6142 42.0447 40.9566C42.1822 41.3647 42.3281 41.7661 42.4856 42.1647C42.6164 42.5026 42.4494 42.8829 42.1115 43.0143C42.0341 43.046 41.9528 43.0594 41.8738 43.0594ZM97.717 45.8809C97.6157 45.8809 97.5132 45.8575 97.418 45.808C97.0957 45.6432 96.9676 45.2479 97.1324 44.9228C97.3273 44.542 97.516 44.1556 97.6947 43.7653C97.8451 43.4368 98.2325 43.291 98.5666 43.4452C98.8939 43.5955 99.0398 43.9863 98.8867 44.3137C98.6996 44.7218 98.5042 45.1243 98.3032 45.5207C98.1852 45.7501 97.9558 45.8809 97.717 45.8809ZM44.192 47.7577C43.9682 47.7577 43.7516 47.6446 43.628 47.4409C43.3975 47.0601 43.1765 46.6726 42.9611 46.2834C42.7857 45.9644 42.902 45.5641 43.2199 45.3915C43.5378 45.2162 43.9365 45.3314 44.1107 45.6504C44.3189 46.0245 44.5305 46.3948 44.7532 46.7633C44.9402 47.074 44.84 47.4754 44.5294 47.6647C44.4236 47.7281 44.3072 47.7577 44.192 47.7577ZM94.9317 50.3264C94.7953 50.3264 94.6566 50.2841 94.5386 50.1967C94.2497 49.9779 94.1906 49.5659 94.4083 49.2753C94.6661 48.9357 94.9166 48.5861 95.1588 48.232C95.3637 47.9341 95.7734 47.8579 96.0707 48.0622C96.3708 48.2671 96.4449 48.6768 96.2405 48.9752C95.9883 49.3449 95.7261 49.7062 95.4589 50.0664C95.3297 50.2368 95.1321 50.3264 94.9317 50.3264ZM47.2746 51.9972C47.0926 51.9972 46.9089 51.922 46.7803 51.7712C46.4863 51.4349 46.2007 51.0908 45.9229 50.7406C45.6968 50.4556 45.7453 50.0425 46.0287 49.817C46.3109 49.591 46.7251 49.6389 46.9501 49.9228C47.2184 50.2579 47.4901 50.5886 47.7701 50.911C48.0078 51.1855 47.9783 51.598 47.7067 51.8368C47.5808 51.9454 47.4277 51.9972 47.2746 51.9972ZM91.4381 54.2364C91.2628 54.2364 91.0891 54.1668 90.9594 54.0304C90.7111 53.7654 90.7227 53.3501 90.9866 53.1017C91.2984 52.8078 91.6029 52.5066 91.9019 52.2021C92.1552 51.9404 92.5705 51.9348 92.8305 52.1887C93.0917 52.4409 93.0972 52.8573 92.8422 53.1162C92.5316 53.4375 92.2137 53.7503 91.888 54.0577C91.7605 54.1762 91.5985 54.2364 91.4381 54.2364ZM51.0343 55.6555C50.8884 55.6555 50.7397 55.6059 50.6189 55.5057C50.2726 55.2223 49.933 54.9317 49.5984 54.6328C49.329 54.3928 49.3045 53.9775 49.5467 53.7069C49.7883 53.4375 50.2025 53.4141 50.4731 53.654C50.7943 53.9407 51.1189 54.2186 51.4496 54.4891C51.7319 54.7202 51.7719 55.1327 51.5426 55.4139C51.4106 55.572 51.2236 55.6555 51.0343 55.6555ZM87.3328 57.4966C87.1212 57.4966 86.9119 57.3919 86.7861 57.2027C86.5868 56.9015 86.668 56.4934 86.9692 56.2929C87.3261 56.0552 87.678 55.8119 88.0226 55.5603C88.3165 55.3482 88.7285 55.4128 88.9401 55.705C89.1533 55.999 89.0887 56.4082 88.7953 56.6225C88.4346 56.8836 88.0682 57.1392 87.6963 57.3864C87.5839 57.4615 87.4575 57.4966 87.3328 57.4966ZM55.3595 58.6229C55.2504 58.6229 55.1396 58.5956 55.0372 58.5383C54.6475 58.3167 54.2628 58.0873 53.8842 57.8512C53.5758 57.6592 53.4828 57.2533 53.676 56.9449C53.8664 56.6381 54.2711 56.5451 54.5795 56.7367C54.942 56.9649 55.3111 57.1837 55.683 57.3958C55.9987 57.5734 56.11 57.9743 55.9324 58.2911C55.8116 58.5026 55.5889 58.6229 55.3595 58.6229ZM82.7369 60.0103C82.4825 60.0103 82.2415 59.8644 82.1346 59.6172C81.9876 59.2865 82.139 58.8996 82.4708 58.752C82.8617 58.5817 83.2497 58.3991 83.6333 58.212C83.9595 58.0533 84.3526 58.1864 84.5113 58.511C84.6727 58.8372 84.5363 59.2314 84.2123 59.389C83.8137 59.5866 83.4078 59.7748 82.9992 59.9546C82.9134 59.9913 82.8238 60.0103 82.7369 60.0103ZM60.1307 60.8092C60.0578 60.8092 59.9838 60.7986 59.9097 60.7713C59.4872 60.6199 59.0685 60.4618 58.6554 60.2914C58.3202 60.155 58.1577 59.7714 58.2941 59.4346C58.4305 59.0994 58.8118 58.938 59.1509 59.0772C59.5484 59.237 59.9476 59.3912 60.3534 59.5348C60.6947 59.6584 60.8712 60.0336 60.7498 60.3749C60.6524 60.6433 60.4002 60.8092 60.1307 60.8092ZM77.7725 61.7022C77.4775 61.7022 77.208 61.5023 77.1351 61.2033C77.0477 60.8515 77.2631 60.4963 77.6161 60.41C78.0314 60.3064 78.4456 60.1951 78.8537 60.0737C79.2095 59.9713 79.568 60.17 79.6705 60.5186C79.7729 60.8654 79.573 61.2317 79.2256 61.3325C78.7964 61.46 78.3644 61.5764 77.929 61.6844C77.8772 61.6961 77.8232 61.7022 77.7725 61.7022ZM65.2048 62.1459C65.1681 62.1459 65.1308 62.1426 65.094 62.1353C64.6503 62.0602 64.2127 61.9739 63.7762 61.8798C63.4222 61.8024 63.1972 61.4505 63.2741 61.0976C63.3515 60.7435 63.7044 60.5152 64.0563 60.5971C64.4727 60.6867 64.8919 60.768 65.3151 60.842C65.6742 60.9033 65.9119 61.2434 65.8506 61.5997C65.7977 61.9199 65.5199 62.1459 65.2048 62.1459ZM72.5927 62.5167C72.252 62.5167 71.9614 62.2528 71.9374 61.9071C71.9118 61.5457 72.1846 61.2306 72.547 61.2045C72.974 61.1738 73.4027 61.136 73.8259 61.087C74.1872 61.0553 74.5123 61.3069 74.5507 61.6671C74.5919 62.0268 74.333 62.3508 73.9745 62.392C73.5308 62.4421 73.0871 62.481 72.6389 62.515C72.6222 62.515 72.6083 62.5167 72.5927 62.5167ZM70.4292 62.5918C69.9794 62.5918 69.5334 62.5813 69.0886 62.5634C68.7262 62.5473 68.4461 62.24 68.4617 61.8798C68.4767 61.5162 68.7946 61.2278 69.1465 61.2501C69.5724 61.269 69.9994 61.2785 70.4292 61.2785C70.7928 61.2785 71.0856 61.5713 71.0856 61.9354C71.0856 62.2962 70.7928 62.5918 70.4292 62.5918Z" fill="white"/>
<path d="M70.4063 15.0779C61.4768 15.0779 54.2109 22.3438 54.2109 31.2734C54.2109 40.2045 61.4768 47.4688 70.4063 47.4688C79.3374 47.4688 86.6034 40.2045 86.6034 31.2734C86.6034 22.3438 79.3374 15.0779 70.4063 15.0779ZM70.4063 50.0955C60.0282 50.0955 51.5848 41.6526 51.5848 31.2734C51.5848 20.8954 60.0282 12.4517 70.4063 12.4517C80.7861 12.4517 89.2284 20.8954 89.2284 31.2734C89.2284 41.6526 80.7861 50.0955 70.4063 50.0955Z" fill="white"/>
<path d="M107.826 29.4234C107.48 29.4234 107.191 29.1539 107.172 28.8043C107.152 28.4418 107.429 28.1312 107.791 28.1139C108.235 28.0878 108.681 28.0727 109.13 28.0655C109.478 28.0571 109.79 28.3516 109.796 28.7124C109.8 29.0765 109.51 29.3749 109.147 29.3788C108.716 29.3855 108.29 29.3989 107.863 29.4234H107.826ZM114.371 29.7518C114.335 29.7518 114.301 29.749 114.266 29.7435C113.845 29.6778 113.421 29.6199 112.994 29.5692C112.634 29.5291 112.375 29.2034 112.416 28.8444C112.458 28.483 112.773 28.2219 113.143 28.2681C113.587 28.3171 114.031 28.3773 114.472 28.448C114.831 28.5053 115.074 28.8421 115.016 29.1996C114.965 29.5225 114.687 29.7518 114.371 29.7518ZM102.636 30.1649C102.338 30.1649 102.067 29.9589 101.998 29.6566C101.916 29.302 102.135 28.9529 102.488 28.8694C102.923 28.767 103.358 28.6762 103.8 28.5927C104.158 28.5315 104.501 28.762 104.567 29.1188C104.634 29.4751 104.397 29.8175 104.041 29.886C103.621 29.9634 103.2 30.0519 102.785 30.1471C102.736 30.1599 102.685 30.1649 102.636 30.1649ZM119.462 31.0167C119.391 31.0167 119.32 31.005 119.25 30.98C118.843 30.8414 118.435 30.7105 118.022 30.5908C117.674 30.4873 117.476 30.1221 117.578 29.7752C117.681 29.4295 118.044 29.2257 118.392 29.3315C118.824 29.4562 119.251 29.5926 119.673 29.7401C120.016 29.8554 120.201 30.2295 120.084 30.573C119.988 30.8436 119.735 31.0167 119.462 31.0167ZM97.6529 31.785C97.3974 31.785 97.1541 31.6342 97.0494 31.3836C96.908 31.0496 97.0644 30.6649 97.3974 30.5246C97.8071 30.3492 98.2202 30.1844 98.6378 30.0291C98.979 29.8999 99.3565 30.0753 99.4851 30.4143C99.6109 30.7528 99.4378 31.1309 99.0998 31.2589C98.6979 31.4087 98.3021 31.5673 97.9079 31.7333C97.826 31.7672 97.7386 31.785 97.6529 31.785ZM124.262 33.1368C124.156 33.1368 124.047 33.1112 123.946 33.0572C123.571 32.8501 123.192 32.6519 122.806 32.4626C122.482 32.3006 122.349 31.9075 122.509 31.5824C122.668 31.2578 123.061 31.1247 123.386 31.2851C123.789 31.4827 124.186 31.6909 124.578 31.9047C124.897 32.0801 125.011 32.4793 124.837 32.7966C124.719 33.0132 124.494 33.1368 124.262 33.1368ZM93.0214 34.2347C92.8037 34.2347 92.5944 34.1278 92.4686 33.9323C92.2721 33.6289 92.36 33.2214 92.6662 33.0277C93.0415 32.7838 93.4217 32.5489 93.8075 32.3251C94.1204 32.1424 94.5218 32.2471 94.7056 32.5606C94.8865 32.8746 94.7818 33.2748 94.4689 33.4591C94.0993 33.6746 93.7346 33.8984 93.3766 34.1289C93.2664 34.2018 93.1428 34.2347 93.0214 34.2347ZM128.628 36.0457C128.485 36.0457 128.341 35.9984 128.219 35.9021C127.885 35.6348 127.543 35.376 127.198 35.1232C126.905 34.9089 126.84 34.4969 127.054 34.2051C127.266 33.9134 127.678 33.8488 127.97 34.0615C128.333 34.3265 128.688 34.596 129.038 34.8771C129.322 35.102 129.368 35.5151 129.14 35.7985C129.013 35.9622 128.82 36.0457 128.628 36.0457ZM88.8715 37.4375C88.6923 37.4375 88.5158 37.3646 88.3866 37.2249C88.1416 36.9576 88.1584 36.5423 88.4278 36.2962C88.7563 35.9962 89.0914 35.7011 89.4316 35.4127C89.7105 35.1783 90.1247 35.214 90.3575 35.4901C90.593 35.7679 90.5551 36.1832 90.2784 36.4165C89.9516 36.6938 89.6292 36.9755 89.3152 37.2644C89.1878 37.3813 89.028 37.4375 88.8715 37.4375ZM132.437 39.65C132.256 39.65 132.076 39.5765 131.949 39.4323C131.662 39.1111 131.369 38.7988 131.071 38.4909C130.819 38.2298 130.825 37.8139 131.086 37.5623C131.345 37.3084 131.762 37.3162 132.015 37.5751C132.326 37.8952 132.628 38.2237 132.925 38.5577C133.168 38.826 133.146 39.2425 132.874 39.4841C132.749 39.5966 132.592 39.65 132.437 39.65ZM85.319 41.2985C85.1776 41.2985 85.0379 41.2523 84.9165 41.1604C84.6309 40.9383 84.578 40.5263 84.8012 40.239C85.0729 39.8861 85.3541 39.5392 85.6414 39.1968C85.8769 38.919 86.2888 38.8828 86.5689 39.1167C86.845 39.3522 86.8806 39.7653 86.6474 40.0414C86.3712 40.371 86.1018 40.7039 85.8379 41.043C85.7087 41.21 85.5144 41.2985 85.319 41.2985ZM135.58 43.8467C135.361 43.8467 135.147 43.7376 135.023 43.5377C134.797 43.1736 134.562 42.8173 134.321 42.4632C134.115 42.1642 134.192 41.755 134.49 41.5501C134.793 41.3464 135.2 41.4243 135.403 41.7216C135.657 42.0891 135.9 42.4632 136.137 42.8418C136.329 43.1502 136.236 43.5549 135.927 43.7481C135.818 43.8138 135.698 43.8467 135.58 43.8467ZM82.4724 45.7062C82.3705 45.7062 82.2659 45.68 82.1646 45.6282C81.8455 45.4579 81.7231 45.0598 81.8951 44.7414C82.1055 44.3461 82.3232 43.9564 82.5504 43.5678C82.733 43.256 83.1349 43.1502 83.4467 43.335C83.7601 43.5188 83.8659 43.9224 83.68 44.2353C83.4634 44.6033 83.2552 44.9791 83.0542 45.3577C82.9362 45.5776 82.709 45.7062 82.4724 45.7062ZM137.962 48.5121C137.703 48.5121 137.457 48.3568 137.354 48.1018C137.192 47.7054 137.023 47.3146 136.845 46.926C136.694 46.5969 136.838 46.2072 137.169 46.0552C137.501 45.9049 137.888 46.0508 138.04 46.3804C138.223 46.784 138.399 47.1943 138.57 47.6063C138.705 47.9426 138.543 48.3278 138.208 48.4642C138.127 48.4971 138.044 48.5121 137.962 48.5121ZM80.422 50.5375C80.3546 50.5375 80.285 50.528 80.2182 50.5047C79.8725 50.3916 79.6854 50.0231 79.7979 49.6762C79.9371 49.2515 80.0852 48.8278 80.2416 48.4074C80.3702 48.069 80.7488 47.8969 81.0878 48.0239C81.4269 48.1514 81.5984 48.5299 81.4736 48.8679C81.3217 49.2715 81.1808 49.6762 81.0455 50.0843C80.9548 50.361 80.6981 50.5375 80.422 50.5375ZM139.508 53.5216C139.205 53.5216 138.934 53.3134 138.868 53.005C138.777 52.5846 138.677 52.1682 138.57 51.7551C138.477 51.4043 138.686 51.0458 139.036 50.954C139.384 50.861 139.746 51.0703 139.838 51.4222C139.952 51.8531 140.057 52.2873 140.153 52.726C140.228 53.0801 140.003 53.4297 139.649 53.5071C139.602 53.5177 139.555 53.5216 139.508 53.5216ZM79.2345 55.6478C79.2038 55.6478 79.171 55.6456 79.1393 55.6405C78.779 55.5888 78.5319 55.2558 78.5825 54.8967C78.646 54.4536 78.7189 54.0121 78.8024 53.5734C78.8698 53.2176 79.2122 52.9883 79.5685 53.0506C79.9243 53.118 80.1592 53.4615 80.0924 53.8167C80.0133 54.237 79.9454 54.6579 79.883 55.0849C79.8368 55.4112 79.5546 55.6478 79.2345 55.6478ZM140.175 58.7221C139.824 58.7221 139.534 58.447 139.518 58.0952C139.501 57.6643 139.474 57.2361 139.439 56.8114C139.408 56.45 139.676 56.1321 140.036 56.1032C140.398 56.0715 140.715 56.3409 140.747 56.7017C140.785 57.1443 140.81 57.5891 140.832 58.0384C140.845 58.4008 140.564 58.7082 140.203 58.7221H140.175ZM78.9333 60.8816C78.5803 60.8816 78.2875 60.5999 78.278 60.2447C78.2696 59.9497 78.2663 59.6529 78.2663 59.359L78.2696 58.9058C78.273 58.5422 78.5569 58.2388 78.9333 58.2561C79.2968 58.2622 79.5863 58.5601 79.583 58.9197L79.5791 59.359C79.5791 59.6412 79.583 59.9246 79.5913 60.2058C79.6019 60.5699 79.3169 60.8722 78.9544 60.8816H78.9333ZM139.949 63.9632C139.921 63.9632 139.892 63.9598 139.866 63.957C139.505 63.9114 139.252 63.5807 139.297 63.2216C139.351 62.7968 139.399 62.372 139.435 61.9439C139.466 61.5826 139.772 61.3087 140.146 61.346C140.507 61.3766 140.775 61.6956 140.744 62.0569C140.704 62.504 140.656 62.9488 140.601 63.3903C140.556 63.7204 140.275 63.9632 139.949 63.9632ZM79.5262 66.0927C79.2205 66.0927 78.9472 65.8778 78.8837 65.5671C78.7957 65.129 78.7167 64.6891 78.646 64.2465C78.5909 63.888 78.8369 63.5512 79.1933 63.4961C79.5618 63.4465 79.8875 63.6854 79.9454 64.0417C80.0111 64.4653 80.0874 64.8879 80.1709 65.3055C80.2444 65.6612 80.0133 66.0069 79.6581 66.0799C79.6136 66.0882 79.5696 66.0927 79.5262 66.0927ZM138.831 69.0851C138.767 69.0851 138.699 69.0745 138.637 69.0556C138.29 68.9476 138.097 68.579 138.205 68.2322C138.331 67.8275 138.449 67.4144 138.56 67.0013C138.651 66.6494 139.016 66.4401 139.36 66.5319C139.711 66.6238 139.921 66.9823 139.828 67.3342C139.714 67.7673 139.59 68.1977 139.457 68.6236C139.37 68.9053 139.111 69.0851 138.831 69.0851ZM81.0065 71.1233C80.7443 71.1233 80.496 70.9652 80.3958 70.7063C80.2321 70.2899 80.0796 69.8701 79.9348 69.4464C79.8157 69.1029 80.0016 68.7288 80.344 68.613C80.6875 68.4933 81.0594 68.6781 81.1775 69.0205C81.315 69.4275 81.4631 69.83 81.6184 70.2275C81.7503 70.5655 81.5833 70.9468 81.2443 71.0771C81.1669 71.1088 81.0856 71.1233 81.0065 71.1233ZM136.849 73.9449C136.747 73.9449 136.646 73.9209 136.55 73.873C136.228 73.7094 136.1 73.313 136.264 72.9895C136.459 72.6081 136.647 72.2223 136.826 71.8304C136.977 71.5008 137.365 71.3549 137.698 71.5091C138.028 71.6606 138.173 72.0503 138.019 72.3799C137.832 72.7857 137.636 73.1883 137.433 73.5869C137.318 73.814 137.088 73.9449 136.849 73.9449ZM83.3248 75.8227C83.101 75.8227 82.8866 75.7097 82.7608 75.5048C82.5326 75.1251 82.3093 74.7376 82.0938 74.3485C81.9185 74.0295 82.0337 73.6292 82.3527 73.4555C82.6706 73.2801 83.0704 73.3965 83.2446 73.7138C83.4517 74.0885 83.6661 74.4598 83.886 74.8273C84.073 75.1379 83.9739 75.5393 83.6633 75.7286C83.5575 75.7921 83.44 75.8227 83.3248 75.8227ZM134.064 78.3915C133.929 78.3915 133.789 78.3475 133.671 78.2607C133.382 78.0419 133.323 77.6299 133.541 77.3404C133.798 76.9991 134.048 76.6511 134.29 76.2971C134.498 75.9981 134.907 75.9229 135.205 76.1261C135.502 76.3321 135.579 76.7419 135.373 77.0403C135.12 77.4089 134.86 77.7713 134.589 78.1298C134.463 78.3019 134.265 78.3915 134.064 78.3915ZM86.4074 80.0611C86.2248 80.0611 86.0417 79.9843 85.9108 79.8351C85.6191 79.4972 85.3346 79.1537 85.0557 78.8029C84.8296 78.5195 84.8764 78.1064 85.1603 77.8821C85.4448 77.6549 85.8579 77.7006 86.0828 77.9856C86.3495 78.323 86.6229 78.6504 86.904 78.9727C87.1418 79.2477 87.1122 79.6631 86.8367 79.8986C86.7147 80.0082 86.5616 80.0611 86.4074 80.0611ZM130.569 82.3003C130.394 82.3003 130.22 82.233 130.092 82.0954C129.843 81.8332 129.856 81.4179 130.117 81.1668C130.429 80.874 130.736 80.5728 131.034 80.266C131.286 80.0055 131.702 79.9988 131.962 80.2527C132.222 80.506 132.228 80.9213 131.974 81.1813C131.664 81.5014 131.344 81.8143 131.021 82.1211C130.893 82.2402 130.731 82.3003 130.569 82.3003ZM90.1659 83.7183C90.0201 83.7183 89.8725 83.6699 89.7517 83.5686C89.4043 83.2852 89.0669 82.9935 88.7301 82.6967C88.4607 82.4557 88.4373 82.0403 88.6783 81.7698C88.9194 81.5003 89.3347 81.4764 89.607 81.7163C89.9243 82.0025 90.2494 82.2814 90.5835 82.5531C90.8635 82.7852 90.9047 83.1967 90.6742 83.4767C90.5434 83.6343 90.3552 83.7183 90.1659 83.7183ZM126.463 85.5606C126.25 85.5606 126.042 85.4581 125.917 85.2688C125.716 84.9665 125.798 84.5584 126.099 84.3591C126.457 84.1192 126.808 83.8759 127.154 83.6254C127.448 83.4121 127.858 83.4767 128.071 83.7684C128.285 84.0641 128.22 84.4733 127.928 84.6865C127.566 84.9487 127.2 85.2043 126.827 85.4503C126.715 85.5255 126.589 85.5606 126.463 85.5606ZM94.4923 86.6868C94.3826 86.6868 94.2713 86.6596 94.1689 86.6011C93.7791 86.3795 93.3956 86.1513 93.0159 85.9135C92.7085 85.722 92.6145 85.3173 92.8071 85.0099C92.9992 84.7015 93.4039 84.6063 93.7123 84.8006C94.0748 85.0278 94.4428 85.2466 94.8169 85.4581C95.1337 85.6374 95.2439 86.0382 95.063 86.3539C94.9427 86.5655 94.7206 86.6868 94.4923 86.6868ZM121.869 88.0742C121.614 88.0742 121.374 87.9284 121.266 87.6823C121.12 87.3505 121.271 86.9619 121.603 86.8171C121.994 86.6445 122.381 86.4641 122.764 86.2749C123.092 86.1173 123.484 86.2515 123.642 86.5738C123.803 86.8995 123.669 87.2937 123.344 87.4529C122.946 87.6494 122.541 87.8387 122.131 88.0174C122.045 88.0564 121.955 88.0742 121.869 88.0742ZM99.2646 88.8742C99.1895 88.8742 99.1154 88.8614 99.0436 88.8353C98.6199 88.6838 98.2013 88.5235 97.7871 88.3543C97.4514 88.2179 97.2894 87.8343 97.428 87.4963C97.5644 87.1623 97.9508 87.002 98.2848 87.1384C98.6812 87.302 99.0815 87.4529 99.4851 87.5988C99.8258 87.7213 100.006 88.0976 99.8815 88.4378C99.7863 88.7083 99.533 88.8742 99.2646 88.8742ZM116.904 89.7661C116.609 89.7661 116.339 89.5663 116.266 89.2662C116.179 88.9154 116.395 88.5586 116.748 88.4717C117.163 88.3693 117.577 88.2574 117.987 88.1377C118.338 88.0341 118.699 88.2351 118.801 88.5814C118.903 88.9305 118.703 89.2957 118.356 89.3976C117.928 89.5223 117.496 89.6403 117.061 89.7461C117.009 89.76 116.955 89.7661 116.904 89.7661ZM104.339 90.2087C104.303 90.2087 104.265 90.2048 104.227 90.1993C103.784 90.1224 103.346 90.0389 102.91 89.9426C102.556 89.8647 102.331 89.5156 102.409 89.1626C102.485 88.8085 102.834 88.5786 103.19 88.6588C103.606 88.7506 104.027 88.833 104.449 88.9049C104.807 88.9672 105.047 89.3074 104.985 89.6637C104.931 89.9838 104.653 90.2087 104.339 90.2087ZM111.724 90.5801C111.382 90.5801 111.092 90.3156 111.07 89.9682C111.043 89.6075 111.316 89.2929 111.678 89.2673C112.106 89.2367 112.534 89.1977 112.956 89.1509C113.327 89.1142 113.642 89.3686 113.684 89.7283C113.725 90.0896 113.465 90.4142 113.105 90.4543C112.662 90.5049 112.219 90.545 111.771 90.5767C111.755 90.5779 111.739 90.5801 111.724 90.5801ZM109.563 90.6536C109.113 90.6536 108.667 90.6441 108.221 90.6263C107.859 90.6096 107.579 90.3039 107.595 89.9415C107.608 89.5791 107.924 89.2957 108.278 89.313C108.703 89.3319 109.131 89.3413 109.563 89.3413C109.926 89.3413 110.218 89.6353 110.218 89.9966C110.218 90.3613 109.926 90.6536 109.563 90.6536Z" fill="white"/>
<path d="M109.54 43.2404C100.607 43.2404 93.3427 50.5052 93.3427 59.4369C93.3427 68.3669 100.607 75.6328 109.54 75.6328C118.47 75.6328 125.736 68.3669 125.736 59.4369C125.736 50.5052 118.47 43.2404 109.54 43.2404ZM109.54 78.259C99.1628 78.259 90.7177 69.8139 90.7177 59.4369C90.7177 49.0577 99.1628 40.6154 109.54 40.6154C119.917 40.6154 128.361 49.0577 128.361 59.4369C128.361 69.8139 119.917 78.259 109.54 78.259Z" fill="white"/>
<path d="M29.5604 29.4233C29.2152 29.4233 28.9246 29.1538 28.9057 28.8042C28.8856 28.4418 29.1623 28.1311 29.5236 28.1133C29.9673 28.0877 30.4155 28.0721 30.8637 28.0654H30.8731C31.2322 28.0654 31.524 28.3549 31.5284 28.7124C31.5334 29.0759 31.2439 29.3749 30.8804 29.3782C30.4506 29.3854 30.0225 29.3983 29.5966 29.4233H29.5604ZM36.1048 29.7512C36.0692 29.7512 36.0341 29.749 36.0001 29.7434C35.5787 29.6772 35.155 29.6198 34.7269 29.5692C34.3678 29.5291 34.1089 29.2034 34.1501 28.8443C34.1913 28.483 34.5114 28.2219 34.8772 28.2675C35.3231 28.3171 35.7657 28.3772 36.2061 28.4479C36.5646 28.5053 36.8085 28.8421 36.7517 29.1995C36.6999 29.5218 36.421 29.7512 36.1048 29.7512ZM24.3698 30.1643C24.0721 30.1643 23.8015 29.9583 23.7309 29.656C23.6497 29.3019 23.8686 28.9523 24.2228 28.8688C24.6569 28.7664 25.0948 28.6762 25.5357 28.5927C25.8948 28.5314 26.2339 28.7619 26.3007 29.1182C26.3681 29.4751 26.1326 29.8175 25.7757 29.8854C25.3548 29.9633 24.9346 30.0513 24.5193 30.1471C24.4699 30.1599 24.4193 30.1643 24.3698 30.1643ZM41.195 31.0161C41.1254 31.0161 41.0536 31.0044 40.9829 30.9799C40.577 30.8413 40.1689 30.7105 39.7558 30.5902C39.4073 30.4867 39.2097 30.122 39.3121 29.7752C39.4146 29.4289 39.7759 29.2257 40.1266 29.3314C40.5581 29.4562 40.9846 29.5926 41.4077 29.7395C41.7517 29.8548 41.9338 30.2289 41.8174 30.573C41.7233 30.8435 41.4689 31.0161 41.195 31.0161ZM19.3867 31.785C19.1325 31.785 18.8889 31.6341 18.7819 31.3836C18.6407 31.0495 18.7984 30.6643 19.1313 30.5245C19.5408 30.3492 19.955 30.1844 20.3728 30.029C20.7128 29.8999 21.0917 30.0752 21.2188 30.4137C21.3458 30.7528 21.1717 31.1303 20.8328 31.2589C20.4328 31.4081 20.0362 31.5673 19.642 31.7332C19.5585 31.7672 19.4737 31.785 19.3867 31.785ZM45.9957 33.1367C45.8888 33.1367 45.7803 33.1106 45.6806 33.0566C45.3059 32.8495 44.9251 32.6518 44.5404 32.4625C44.2153 32.3 44.0811 31.9069 44.2426 31.5823C44.4024 31.2577 44.7965 31.1247 45.1217 31.2845C45.5236 31.4821 45.9217 31.6903 46.3136 31.9047C46.631 32.08 46.7462 32.4792 46.5725 32.7966C46.4522 33.0131 46.2301 33.1367 45.9957 33.1367ZM14.7542 34.2346C14.5388 34.2346 14.3282 34.1277 14.2023 33.9323C14.0058 33.6283 14.0941 33.2213 14.4 33.027C14.7742 32.7838 15.1554 32.5483 15.5402 32.325C15.8555 32.1424 16.2579 32.2471 16.438 32.5599C16.6215 32.8745 16.5168 33.2742 16.2026 33.4591C15.8332 33.6745 15.4684 33.8978 15.1107 34.1288C15.0001 34.2018 14.8766 34.2346 14.7542 34.2346ZM50.3622 36.0457C50.2197 36.0457 50.0738 35.9983 49.953 35.902C49.6184 35.6348 49.2788 35.3759 48.9314 35.1232C48.6385 34.9088 48.574 34.4968 48.7878 34.2051C49.001 33.9134 49.4113 33.8488 49.7069 34.0615C50.0682 34.3265 50.4212 34.5959 50.7731 34.8771C51.0553 35.102 51.101 35.5145 50.8755 35.7985C50.7458 35.9616 50.5554 36.0457 50.3622 36.0457ZM10.6053 37.4375C10.4264 37.4375 10.2488 37.3646 10.1205 37.2243C9.87574 36.9576 9.89339 36.5417 10.1617 36.2962C10.4899 35.9961 10.8253 35.7005 11.1677 35.4121C11.4442 35.1783 11.8584 35.2133 12.0914 35.49C12.3255 35.7679 12.2902 36.1832 12.0137 36.4159C11.6855 36.6937 11.3642 36.9749 11.0488 37.2644C10.9218 37.3807 10.7618 37.4375 10.6053 37.4375ZM54.1714 39.6494C53.991 39.6494 53.8112 39.5765 53.6814 39.4317C53.3958 39.1105 53.1041 38.7987 52.8063 38.4903C52.5535 38.2292 52.5602 37.8139 52.8191 37.5622C53.0802 37.3078 53.4955 37.3161 53.7477 37.575C54.0595 37.8951 54.3629 38.2236 54.6607 38.5576C54.9018 38.826 54.8784 39.2424 54.609 39.4835C54.4843 39.5965 54.3278 39.6494 54.1714 39.6494ZM7.05293 41.2979C6.91174 41.2979 6.7705 41.2522 6.6517 41.1604C6.36459 40.9377 6.31164 40.5263 6.534 40.239C6.80819 39.886 7.08823 39.5392 7.37768 39.1968C7.6095 38.919 8.02365 38.8822 8.30252 39.1166C8.57905 39.3516 8.61435 39.7646 8.38136 40.0413C8.10488 40.3709 7.83542 40.7039 7.57181 41.0429C7.44237 41.2099 7.2494 41.2979 7.05293 41.2979ZM57.3141 43.8466C57.0953 43.8466 56.881 43.7375 56.7563 43.5371C56.5291 43.1735 56.2964 42.8172 56.0559 42.4631C55.8505 42.1642 55.9268 41.7544 56.2246 41.5501C56.5247 41.3463 56.9328 41.4237 57.1377 41.7216C57.3904 42.089 57.6354 42.4631 57.872 42.8417C58.0635 43.1502 57.9683 43.5549 57.661 43.7481C57.553 43.8138 57.4316 43.8466 57.3141 43.8466ZM4.20774 45.7056C4.10419 45.7056 3.9983 45.6799 3.89948 45.6282C3.57941 45.4573 3.45821 45.0597 3.62768 44.7407C3.83829 44.3455 4.05715 43.9563 4.28424 43.5677C4.46662 43.2559 4.86786 43.1502 5.18203 43.335C5.49385 43.5182 5.59858 43.9218 5.41502 44.2352C5.19734 44.6032 4.98906 44.9785 4.78786 45.3576C4.67017 45.5775 4.44191 45.7056 4.20774 45.7056ZM59.6959 48.5121C59.437 48.5121 59.192 48.3567 59.0862 48.1017C58.9259 47.7048 58.7566 47.3145 58.579 46.9259C58.4282 46.5963 58.574 46.2072 58.9025 46.0552C59.2332 45.9049 59.6224 46.0507 59.7732 46.3798C59.9581 46.7834 60.1357 47.1943 60.3038 47.6063C60.4402 47.9425 60.2793 48.3272 59.9425 48.4636C59.8601 48.497 59.7794 48.5121 59.6959 48.5121ZM2.15684 50.5369C2.08859 50.5369 2.02033 50.528 1.95325 50.5041C1.60735 50.391 1.41906 50.023 1.53202 49.6756C1.67204 49.2508 1.81913 48.8277 1.9768 48.4074C2.1039 48.0683 2.48042 47.8969 2.82164 48.0238C3.16169 48.1507 3.3335 48.5299 3.2064 48.8673C3.0558 49.2709 2.91345 49.6756 2.77927 50.0843C2.68986 50.3604 2.43215 50.5369 2.15684 50.5369ZM61.243 53.521C60.9407 53.521 60.6685 53.3128 60.6017 53.0049C60.5109 52.5846 60.4124 52.1681 60.3027 51.755C60.2108 51.4043 60.4202 51.0458 60.7709 50.9539C61.1194 50.8609 61.4807 51.0703 61.5726 51.4221C61.6867 51.8525 61.7914 52.2867 61.8855 52.726C61.9629 53.0801 61.7385 53.4291 61.3828 53.5071C61.336 53.5177 61.2887 53.521 61.243 53.521ZM0.968383 55.6472C0.936649 55.6472 0.904861 55.6449 0.874296 55.6405C0.515369 55.5887 0.265952 55.2558 0.316559 54.8967C0.381252 54.453 0.454182 54.012 0.53541 53.5728C0.60244 53.2176 0.942495 52.9882 1.30259 53.0506C1.65912 53.1174 1.89329 53.4614 1.8262 53.8166C1.74737 54.2364 1.67794 54.6579 1.61676 55.0849C1.57088 55.4111 1.28962 55.6472 0.968383 55.6472ZM61.9089 58.722C61.5581 58.722 61.2686 58.4464 61.2536 58.0951C61.2347 57.6642 61.2074 57.2361 61.1723 56.8113C61.1417 56.45 61.41 56.1321 61.7714 56.1026C62.1382 56.0708 62.4511 56.3403 62.4806 56.7016C62.5174 57.1442 62.5452 57.5891 62.5653 58.0383C62.5797 58.4008 62.2997 58.7081 61.9373 58.722H61.9089ZM0.668358 60.881C0.315333 60.881 0.0223808 60.5999 0.012972 60.2447C0.0035632 59.9491 0 59.6529 0 59.3584L0.00356157 58.9057C0.00706899 58.5444 0.301249 58.256 0.66012 58.256H0.668358C1.03079 58.2622 1.32024 58.5594 1.31668 58.9197L1.31317 59.3584C1.31317 59.6412 1.31668 59.9246 1.32608 60.2057C1.33555 60.5693 1.05078 60.8716 0.688345 60.881H0.668358ZM61.6839 63.9631C61.6561 63.9631 61.6277 63.9592 61.5993 63.957C61.2391 63.9113 60.9852 63.5806 61.0309 63.2215C61.0866 62.7967 61.1333 62.372 61.169 61.9438C61.1996 61.5825 61.5041 61.3086 61.8794 61.3459C62.2407 61.3765 62.5079 61.6955 62.4773 62.0569C62.4383 62.5039 62.3899 62.9487 62.3348 63.3897C62.2913 63.7204 62.0091 63.9631 61.6839 63.9631ZM1.26139 66.0926C0.954297 66.0926 0.682501 65.8772 0.617753 65.5665C0.52951 65.1289 0.451845 64.6891 0.381251 64.2465C0.325968 63.8874 0.570708 63.5511 0.92841 63.496C1.29435 63.4465 1.62143 63.6853 1.67794 64.0416C1.74503 64.4653 1.8203 64.8878 1.90503 65.3054C1.9768 65.6606 1.74737 66.0069 1.39317 66.0798C1.34847 66.0882 1.30376 66.0926 1.26139 66.0926ZM60.5666 69.0851C60.5003 69.0851 60.4357 69.0745 60.3701 69.0556C60.0238 68.947 59.8311 68.579 59.9391 68.2316C60.0661 67.8268 60.1841 67.4137 60.2932 67.0012C60.384 66.6494 60.7475 66.44 61.0944 66.5313C61.4451 66.6232 61.655 66.9823 61.562 67.3341C61.449 67.7673 61.3254 68.1976 61.1924 68.6235C61.1049 68.9047 60.8449 69.0851 60.5666 69.0851ZM2.74047 71.1227C2.47808 71.1227 2.22978 70.9652 2.12862 70.7063C1.96622 70.2898 1.81323 69.8695 1.66736 69.4464C1.55084 69.1023 1.73439 68.7282 2.07684 68.613C2.41923 68.4933 2.79341 68.6775 2.91105 69.0199C3.04873 69.4275 3.19582 69.83 3.35115 70.2275C3.48293 70.5649 3.31702 70.9462 2.97931 71.0771C2.90047 71.1088 2.8193 71.1227 2.74047 71.1227ZM58.5824 73.9442C58.4811 73.9442 58.3803 73.9209 58.2834 73.873C57.9622 73.7093 57.8341 73.3129 57.9989 72.9889C58.1943 72.6081 58.3814 72.2217 58.5601 71.8298C58.7121 71.5007 59.099 71.3549 59.4331 71.5085C59.7615 71.6605 59.9063 72.0502 59.7532 72.3793C59.5661 72.7857 59.3707 73.1876 59.1686 73.5868C59.0517 73.814 58.8223 73.9442 58.5824 73.9442ZM5.05849 75.8227C4.83607 75.8227 4.61956 75.7096 4.49485 75.5048C4.26542 75.1245 4.04184 74.7376 3.82889 74.3479C3.65234 74.0294 3.77004 73.6291 4.08654 73.4549C4.40427 73.2795 4.80434 73.3964 4.97849 73.7138C5.18554 74.0879 5.39854 74.4598 5.61973 74.8272C5.80685 75.1379 5.7068 75.5387 5.3962 75.7286C5.29148 75.792 5.17262 75.8227 5.05849 75.8227ZM55.7987 78.3909C55.6618 78.3909 55.5231 78.3475 55.4057 78.2606C55.1162 78.0418 55.0583 77.6298 55.2748 77.3403C55.5326 76.999 55.782 76.6511 56.0242 76.2964C56.2324 75.998 56.6399 75.9223 56.9372 76.1261C57.2373 76.3321 57.3119 76.7413 57.107 77.0402C56.8537 77.4088 56.5926 77.7712 56.3243 78.1298C56.1962 78.3018 55.9997 78.3909 55.7987 78.3909ZM8.14135 80.0605C7.95896 80.0605 7.77658 79.9843 7.64597 79.8351C7.35296 79.4971 7.06702 79.1536 6.78815 78.8029C6.56345 78.5195 6.6105 78.1064 6.89527 77.8815C7.17764 77.6543 7.59185 77.7005 7.81655 77.985C8.08367 78.323 8.35664 78.6498 8.6379 78.9721C8.8744 79.2477 8.84617 79.663 8.57198 79.8985C8.44844 80.0076 8.29428 80.0605 8.14135 80.0605ZM52.3035 82.2997C52.1298 82.2997 51.9556 82.2329 51.8275 82.0954C51.5764 81.8326 51.5881 81.4173 51.852 81.1668C52.1627 80.8739 52.4694 80.5727 52.7684 80.2654C53.0217 80.0054 53.437 79.9982 53.697 80.2526C53.957 80.5054 53.9615 80.9207 53.7087 81.1812C53.3981 81.5008 53.0779 81.8142 52.7556 82.121C52.6275 82.2401 52.465 82.2997 52.3035 82.2997ZM11.8996 83.7177C11.7537 83.7177 11.6054 83.6698 11.4842 83.5685C11.1395 83.2846 10.7994 82.9928 10.464 82.6967C10.1946 82.455 10.1711 82.0397 10.4123 81.7691C10.6547 81.4997 11.0689 81.4763 11.3395 81.7163C11.6596 82.0024 11.9855 82.2813 12.3161 82.553C12.5973 82.7846 12.6385 83.1966 12.4091 83.4767C12.2773 83.6342 12.0902 83.7177 11.8996 83.7177ZM48.1982 85.5605C47.9855 85.5605 47.7773 85.4581 47.6515 85.2688C47.4499 84.9665 47.5312 84.5578 47.8346 84.3591C48.1904 84.1191 48.5422 83.8753 48.888 83.6247C49.183 83.4121 49.5928 83.4767 49.8071 83.7684C50.0187 84.064 49.9552 84.4732 49.6613 84.6864C49.3011 84.9487 48.9336 85.2042 48.5606 85.4497C48.4504 85.5254 48.3246 85.5605 48.1982 85.5605ZM16.2262 86.6868C16.1167 86.6868 16.0061 86.6595 15.9038 86.6005C15.5131 86.3795 15.1295 86.1512 14.7495 85.9135C14.4435 85.722 14.3494 85.3167 14.5423 85.0099C14.733 84.7015 15.1378 84.6063 15.446 84.8006C15.8085 85.0277 16.1779 85.2465 16.5509 85.4581C16.8663 85.6368 16.9769 86.0382 16.798 86.3533C16.678 86.5654 16.4545 86.6868 16.2262 86.6868ZM43.6023 88.0736C43.3496 88.0736 43.1079 87.9277 43.0011 87.6822C42.8541 87.3504 43.0044 86.9618 43.3362 86.8171C43.7293 86.6445 44.1168 86.4641 44.4976 86.2748C44.826 86.1172 45.2191 86.2514 45.3778 86.5738C45.537 86.8995 45.4039 87.2936 45.0777 87.4523C44.6791 87.6488 44.2754 87.8387 43.8645 88.0174C43.7788 88.0564 43.6892 88.0736 43.6023 88.0736ZM20.9975 88.8742C20.9246 88.8742 20.8504 88.8608 20.7775 88.8352C20.3539 88.6832 19.935 88.5235 19.5208 88.3536C19.1855 88.2173 19.0243 87.8337 19.162 87.4963C19.2984 87.1617 19.6832 87.0019 20.0186 87.1383C20.4151 87.302 20.8151 87.4523 21.2199 87.5987C21.5612 87.7206 21.7388 88.0976 21.6164 88.4377C21.52 88.7083 21.267 88.8742 20.9975 88.8742ZM38.6368 89.7661C38.3429 89.7661 38.0745 89.5657 38.0005 89.2656C37.9131 88.9154 38.1285 88.5585 38.4815 88.4717C38.8979 88.3692 39.311 88.2573 39.7197 88.1376C40.0749 88.0341 40.4323 88.2351 40.5347 88.5808C40.6383 88.9304 40.4373 89.2951 40.0899 89.3975C39.6618 89.5222 39.2308 89.6397 38.7955 89.746C38.7426 89.76 38.6886 89.7661 38.6368 89.7661ZM26.0724 90.2081C26.0362 90.2081 25.9984 90.2048 25.9605 90.1987C25.5185 90.1224 25.0792 90.0389 24.644 89.9426C24.2898 89.8646 24.0651 89.515 24.1427 89.162C24.2192 88.8079 24.5711 88.5786 24.9241 88.6587C25.3403 88.7506 25.7595 88.833 26.1832 88.9048C26.5406 88.9672 26.7806 89.3068 26.7182 89.6636C26.6654 89.9838 26.3864 90.2081 26.0724 90.2081ZM33.4586 90.58C33.1162 90.58 32.8278 90.3156 32.8039 89.9682C32.7772 89.6069 33.05 89.2929 33.4113 89.2672C33.8405 89.2366 34.2681 89.1977 34.6901 89.1503C35.0587 89.1142 35.3766 89.368 35.4189 89.7282C35.4573 90.0895 35.1984 90.4141 34.8388 90.4542C34.3973 90.5049 33.9524 90.545 33.5054 90.5767C33.4876 90.5778 33.4725 90.58 33.4586 90.58ZM31.2957 90.653C30.8475 90.653 30.4016 90.6435 29.9557 90.6262C29.5932 90.6095 29.3132 90.3039 29.3282 89.9415C29.3427 89.579 29.6673 89.2951 30.0119 89.3129C30.4378 89.3318 30.8665 89.3413 31.2957 89.3413C31.6593 89.3413 31.9521 89.6352 31.9521 89.9966C31.9521 90.3612 31.6593 90.653 31.2957 90.653Z" fill="white"/>
<path d="M31.2735 43.2404C22.3438 43.2404 15.0779 50.5052 15.0779 59.4369C15.0779 68.3669 22.3438 75.6328 31.2735 75.6328C40.2046 75.6328 47.4717 68.3669 47.4717 59.4369C47.4717 50.5052 40.2046 43.2404 31.2735 43.2404ZM31.2735 78.259C20.8965 78.259 12.4517 69.8139 12.4517 59.4369C12.4517 49.0577 20.8965 40.6154 31.2735 40.6154C41.6527 40.6154 50.0967 49.0577 50.0967 59.4369C50.0967 69.8139 41.6527 78.259 31.2735 78.259Z" fill="white"/>
<path d="M92.0138 75.7697C91.6692 75.7697 91.3797 75.5003 91.3597 75.1512C91.3396 74.7888 91.6163 74.4781 91.9777 74.4603C92.4214 74.433 92.8695 74.4191 93.3188 74.4119H93.3261C93.6863 74.4119 93.978 74.7003 93.9836 75.0593C93.9886 75.4229 93.6991 75.7219 93.3344 75.7252C92.9046 75.7313 92.4787 75.7452 92.0528 75.7697H92.0138ZM98.5588 76.0982C98.5243 76.0982 98.4892 76.0949 98.4542 76.0899C98.0316 76.0242 97.609 75.9663 97.182 75.9156C96.8218 75.8761 96.5629 75.5498 96.603 75.1913C96.6453 74.8289 96.9666 74.5627 97.3323 74.6145C97.7761 74.6641 98.2186 74.7236 98.6596 74.7943C99.0198 74.8522 99.2636 75.1874 99.2046 75.5465C99.154 75.8688 98.8761 76.0982 98.5588 76.0982ZM86.824 76.5113C86.5261 76.5113 86.2555 76.3053 86.1859 76.003C86.1035 75.6489 86.3235 75.2982 86.6764 75.2158C87.1107 75.1134 87.5488 75.0226 87.9898 74.9391C88.3466 74.8806 88.689 75.1089 88.7547 75.4641C88.8215 75.8215 88.5877 76.1628 88.2297 76.2324C87.8088 76.3103 87.3885 76.3983 86.9743 76.4924C86.9236 76.5052 86.873 76.5113 86.824 76.5113ZM103.651 77.3631C103.578 77.3631 103.508 77.3514 103.438 77.3253C103.032 77.1877 102.623 77.0575 102.21 76.9361C101.862 76.8337 101.663 76.469 101.766 76.1216C101.869 75.7748 102.233 75.5699 102.581 75.6784C103.012 75.8031 103.441 75.9395 103.862 76.0854C104.205 76.2018 104.39 76.5759 104.271 76.9194C104.177 77.19 103.922 77.3631 103.651 77.3631ZM81.8406 78.1314C81.5862 78.1314 81.3429 77.9811 81.236 77.7306C81.0957 77.396 81.2522 77.0113 81.5851 76.8704C81.9949 76.6961 82.4102 76.5314 82.8266 76.376C83.1668 76.2474 83.5454 76.4217 83.6717 76.7596C83.7998 77.0998 83.6255 77.4772 83.2881 77.6053C82.8856 77.7551 82.4903 77.9137 82.0973 78.0796C82.0127 78.1141 81.9275 78.1314 81.8406 78.1314ZM108.451 79.4826C108.344 79.4826 108.235 79.4576 108.135 79.4035C107.759 79.1953 107.38 78.9988 106.994 78.8078C106.668 78.6469 106.535 78.2539 106.698 77.9293C106.855 77.6042 107.251 77.47 107.575 77.6315C107.978 77.8291 108.374 78.0373 108.766 78.2517C109.085 78.427 109.2 78.8257 109.026 79.1436C108.907 79.3601 108.681 79.4826 108.451 79.4826ZM77.2103 80.5799C76.9926 80.5799 76.7821 80.4741 76.6563 80.2787C76.4609 79.9753 76.5478 79.5683 76.8529 79.3729C77.2281 79.1291 77.6106 78.8952 77.9953 78.6714C78.3093 78.4894 78.7118 78.5952 78.8933 78.9069C79.0753 79.2209 78.9707 79.6212 78.6567 79.8049C78.287 80.0215 77.9223 80.2448 77.5644 80.4753C77.4541 80.5471 77.3305 80.5799 77.2103 80.5799ZM112.816 82.3921C112.673 82.3921 112.529 82.3453 112.408 82.2485C112.071 81.9818 111.731 81.7229 111.384 81.4696C111.093 81.2541 111.027 80.8438 111.243 80.5521C111.455 80.2604 111.866 80.1952 112.159 80.4084C112.521 80.6729 112.876 80.9424 113.225 81.2241C113.51 81.4484 113.557 81.8615 113.329 82.1449C113.2 82.3075 113.009 82.3921 112.816 82.3921ZM73.0593 83.7839C72.8817 83.7839 72.7052 83.711 72.5744 83.5701C72.3294 83.3029 72.3483 82.8887 72.6155 82.6426C72.944 82.3425 73.2792 82.0475 73.6216 81.7591C73.8983 81.5253 74.3125 81.5603 74.5452 81.837C74.7796 82.1143 74.7439 82.5285 74.4678 82.7629C74.1416 83.0396 73.817 83.3218 73.503 83.6113C73.3755 83.7277 73.2168 83.7839 73.0593 83.7839ZM116.627 85.9964C116.445 85.9964 116.265 85.9235 116.137 85.7787C115.851 85.4575 115.558 85.1457 115.259 84.8373C115.008 84.5751 115.013 84.1608 115.275 83.9092C115.533 83.6559 115.95 83.6631 116.204 83.922C116.513 84.2421 116.817 84.57 117.115 84.9046C117.357 85.1724 117.335 85.5894 117.062 85.8294C116.938 85.9435 116.781 85.9964 116.627 85.9964ZM69.5067 87.6438C69.3659 87.6438 69.2245 87.5987 69.1053 87.5074C68.8197 87.2847 68.7657 86.8727 68.989 86.586C69.2623 86.233 69.5435 85.8845 69.8319 85.5432C70.0646 85.2654 70.4788 85.2292 70.7566 85.4619C71.0328 85.6985 71.0684 86.1116 70.8351 86.3883C70.559 86.7174 70.2895 87.0508 70.0267 87.3882C69.8965 87.5553 69.7033 87.6438 69.5067 87.6438ZM119.769 90.1936C119.549 90.1936 119.335 90.0839 119.21 89.8841C118.985 89.5205 118.751 89.1637 118.509 88.8096C118.304 88.5106 118.38 88.1014 118.68 87.8965C118.98 87.6933 119.388 87.7696 119.593 88.0686C119.843 88.4354 120.087 88.8096 120.325 89.1887C120.516 89.4971 120.425 89.9019 120.116 90.0945C120.007 90.1608 119.887 90.1936 119.769 90.1936ZM66.6618 92.0526C66.5583 92.0526 66.4525 92.0269 66.3545 91.9752C66.0344 91.8042 65.9119 91.4067 66.0839 91.0866C66.2944 90.6925 66.5121 90.3016 66.7381 89.9147C66.9218 89.6052 67.3232 89.4994 67.6361 89.6803C67.9479 89.8651 68.0537 90.2688 67.8688 90.5817C67.6523 90.9502 67.4429 91.3255 67.2431 91.7046C67.125 91.9245 66.8968 92.0526 66.6618 92.0526ZM122.149 94.8591C121.89 94.8591 121.645 94.7037 121.542 94.4482C121.38 94.0518 121.211 93.661 121.034 93.2729C120.882 92.9433 121.026 92.5536 121.357 92.4022C121.686 92.2502 122.075 92.3972 122.227 92.7256C122.412 93.1304 122.589 93.5413 122.758 93.9527C122.894 94.2895 122.732 94.6731 122.397 94.8106C122.316 94.8435 122.232 94.8591 122.149 94.8591ZM64.6108 96.8839C64.5423 96.8839 64.4744 96.8744 64.4071 96.8511C64.0613 96.738 63.8731 96.3684 63.9862 96.0226C64.1259 95.5978 64.2729 95.173 64.431 94.7533C64.5579 94.4153 64.9376 94.2422 65.2756 94.3708C65.6157 94.4966 65.7872 94.8769 65.6603 95.2143C65.5099 95.6179 65.3674 96.0226 65.2344 96.4307C65.1436 96.7074 64.8858 96.8839 64.6108 96.8839ZM123.697 99.868C123.394 99.868 123.122 99.6598 123.056 99.3513C122.965 98.9316 122.865 98.5146 122.758 98.102C122.665 97.7513 122.875 97.3922 123.225 97.2992C123.572 97.2101 123.934 97.4172 124.026 97.7691C124.139 98.1995 124.245 98.6337 124.34 99.0713C124.416 99.4265 124.191 99.7761 123.837 99.8541C123.791 99.8647 123.744 99.868 123.697 99.868ZM63.4222 101.994C63.3905 101.994 63.3598 101.992 63.3281 101.987C62.9696 101.935 62.7196 101.602 62.7703 101.244C62.8354 100.8 62.9083 100.358 62.9907 99.9198C63.0575 99.5646 63.3988 99.3302 63.7579 99.3975C64.1131 99.4644 64.3469 99.8079 64.2812 100.163C64.2011 100.583 64.132 101.005 64.0708 101.432C64.0246 101.758 63.7434 101.994 63.4222 101.994ZM124.363 105.069C124.013 105.069 123.722 104.793 123.708 104.442C123.69 104.011 123.661 103.583 123.626 103.158C123.596 102.797 123.865 102.479 124.225 102.45C124.586 102.417 124.903 102.687 124.935 103.049C124.974 103.491 124.999 103.935 125.019 104.384C125.033 104.748 124.752 105.055 124.391 105.069H124.363ZM63.1221 107.228C62.7691 107.228 62.4763 106.947 62.4668 106.592C62.4574 106.296 62.4551 105.999 62.4551 105.705L62.4574 105.252C62.4635 104.891 62.7552 104.603 63.1138 104.603H63.1221C63.4857 104.609 63.7752 104.905 63.7707 105.267L63.7685 105.705C63.7685 105.988 63.7707 106.272 63.7802 106.553C63.7896 106.916 63.5046 107.219 63.1422 107.228H63.1221ZM124.137 110.308C124.11 110.308 124.081 110.306 124.053 110.304C123.693 110.258 123.439 109.927 123.485 109.567C123.54 109.144 123.585 108.719 123.624 108.29C123.656 107.928 123.961 107.656 124.335 107.693C124.696 107.724 124.963 108.043 124.932 108.402C124.893 108.851 124.844 109.295 124.789 109.737C124.744 110.067 124.463 110.308 124.137 110.308ZM63.715 112.44C63.4094 112.44 63.1366 112.223 63.0731 111.912C62.9835 111.476 62.9055 111.036 62.8354 110.593C62.7797 110.234 63.0247 109.898 63.3821 109.841C63.7496 109.791 64.0752 110.031 64.132 110.389C64.1988 110.812 64.2757 111.234 64.3603 111.652C64.4332 112.008 64.2011 112.353 63.847 112.426C63.8024 112.433 63.7579 112.44 63.715 112.44ZM123.019 115.432C122.954 115.432 122.887 115.421 122.825 115.401C122.478 115.294 122.286 114.924 122.393 114.579C122.52 114.173 122.638 113.761 122.747 113.348C122.839 112.996 123.205 112.788 123.548 112.878C123.899 112.97 124.108 113.329 124.015 113.681C123.902 114.114 123.779 114.545 123.646 114.969C123.559 115.252 123.298 115.432 123.019 115.432ZM65.1943 117.47C64.9321 117.47 64.6838 117.312 64.5835 117.052C64.4199 116.637 64.2684 116.216 64.1215 115.793C64.0045 115.449 64.1894 115.075 64.5329 114.959C64.873 114.84 65.2472 115.023 65.3663 115.367C65.5038 115.774 65.6508 116.175 65.8072 116.574C65.937 116.912 65.771 117.293 65.4331 117.424C65.3557 117.456 65.2733 117.47 65.1943 117.47ZM121.036 120.291C120.936 120.291 120.834 120.268 120.739 120.219C120.416 120.056 120.288 119.659 120.452 119.336C120.648 118.953 120.837 118.568 121.015 118.177C121.164 117.847 121.554 117.702 121.886 117.856C122.217 118.008 122.36 118.397 122.208 118.726C122.021 119.132 121.825 119.535 121.621 119.934C121.506 120.161 121.275 120.291 121.036 120.291ZM67.5125 122.169C67.2898 122.169 67.0733 122.055 66.9502 121.852C66.7192 121.472 66.4959 121.085 66.2827 120.694C66.1062 120.376 66.2237 119.976 66.5405 119.802C66.8595 119.626 67.2581 119.743 67.4323 120.061C67.6406 120.435 67.8527 120.807 68.0737 121.174C68.2608 121.484 68.1606 121.886 67.8499 122.075C67.7452 122.138 67.6278 122.169 67.5125 122.169ZM118.253 124.738C118.116 124.738 117.977 124.694 117.859 124.607C117.57 124.388 117.511 123.977 117.729 123.687C117.987 123.346 118.236 122.996 118.479 122.642C118.685 122.346 119.096 122.269 119.393 122.473C119.69 122.679 119.767 123.088 119.562 123.387C119.308 123.755 119.047 124.118 118.778 124.477C118.65 124.647 118.453 124.738 118.253 124.738ZM70.5963 126.406C70.4131 126.406 70.2305 126.33 70.0997 126.181C69.8068 125.843 69.5223 125.501 69.2423 125.15C69.0174 124.866 69.0658 124.453 69.3492 124.228C69.6326 124.001 70.0457 124.047 70.2706 124.332C70.5378 124.668 70.8117 124.997 71.0918 125.319C71.3306 125.595 71.3 126.01 71.0272 126.245C70.9025 126.355 70.7483 126.406 70.5963 126.406ZM114.756 128.647C114.582 128.647 114.41 128.58 114.28 128.442C114.03 128.18 114.044 127.764 114.305 127.514C114.618 127.221 114.923 126.92 115.222 126.612C115.474 126.352 115.889 126.345 116.151 126.6C116.41 126.852 116.416 127.268 116.163 127.528C115.852 127.847 115.533 128.161 115.209 128.467C115.081 128.587 114.92 128.647 114.756 128.647ZM74.3537 130.065C74.2078 130.065 74.0603 130.015 73.9395 129.915C73.5932 129.632 73.2547 129.34 72.9201 129.043C72.6484 128.802 72.6239 128.387 72.8661 128.116C73.1071 127.846 73.523 127.822 73.7947 128.063C74.1137 128.349 74.4394 128.628 74.7712 128.898C75.0513 129.131 75.0925 129.544 74.8631 129.824C74.7322 129.981 74.5441 130.065 74.3537 130.065ZM110.652 131.908C110.44 131.908 110.23 131.805 110.105 131.616C109.905 131.312 109.986 130.905 110.288 130.706C110.647 130.466 110.997 130.222 111.343 129.971C111.636 129.759 112.047 129.824 112.258 130.115C112.474 130.41 112.408 130.82 112.115 131.033C111.753 131.296 111.388 131.551 111.015 131.797C110.903 131.872 110.776 131.908 110.652 131.908ZM78.6801 133.033C78.572 133.033 78.459 133.005 78.3588 132.947C77.9669 132.726 77.5833 132.498 77.2047 132.26C76.8963 132.068 76.8033 131.664 76.9954 131.355C77.1869 131.048 77.5928 130.953 77.9001 131.147C78.2636 131.374 78.6316 131.593 79.0046 131.805C79.3214 131.984 79.4322 132.384 79.2518 132.7C79.1332 132.912 78.9094 133.033 78.6801 133.033ZM106.056 134.421C105.803 134.421 105.563 134.275 105.455 134.029C105.309 133.697 105.458 133.309 105.791 133.164C106.183 132.991 106.57 132.811 106.953 132.622C107.281 132.464 107.673 132.597 107.832 132.92C107.992 133.246 107.858 133.641 107.533 133.799C107.133 133.996 106.729 134.185 106.32 134.364C106.233 134.403 106.143 134.421 106.056 134.421ZM83.4513 135.221C83.3783 135.221 83.3043 135.208 83.2302 135.182C82.8077 135.03 82.389 134.87 81.9748 134.7C81.6397 134.564 81.4793 134.18 81.6146 133.843C81.7521 133.508 82.1385 133.349 82.4725 133.485C82.87 133.649 83.2692 133.799 83.674 133.945C84.0164 134.068 84.194 134.443 84.0692 134.784C83.9752 135.054 83.7207 135.221 83.4513 135.221ZM101.092 136.113C100.797 136.113 100.529 135.913 100.456 135.613C100.368 135.262 100.584 134.906 100.936 134.818C101.352 134.716 101.766 134.604 102.173 134.484C102.527 134.383 102.887 134.582 102.989 134.928C103.091 135.276 102.891 135.641 102.545 135.745C102.117 135.869 101.685 135.987 101.25 136.092C101.197 136.106 101.143 136.113 101.092 136.113ZM88.5265 136.555C88.4908 136.555 88.4524 136.552 88.4157 136.546C87.972 136.469 87.5332 136.386 87.0979 136.289C86.7438 136.212 86.5189 135.861 86.5968 135.508C86.6731 135.154 87.0238 134.928 87.3779 135.006C87.7944 135.097 88.2136 135.179 88.6372 135.251C88.9958 135.314 89.2346 135.654 89.1723 136.01C89.1183 136.33 88.8427 136.555 88.5265 136.555ZM95.9121 136.927C95.5697 136.927 95.2819 136.662 95.2579 136.315C95.2312 135.954 95.504 135.64 95.8653 135.614C96.2957 135.583 96.7216 135.545 97.1442 135.496C97.5161 135.462 97.8312 135.715 97.8724 136.075C97.9124 136.437 97.6525 136.761 97.2939 136.801C96.8513 136.852 96.4065 136.89 95.9594 136.924C95.9427 136.925 95.9266 136.927 95.9121 136.927ZM93.7509 137C93.301 137 92.8551 136.99 92.4091 136.973C92.0467 136.957 91.7683 136.65 91.7834 136.288C91.7973 135.925 92.1057 135.652 92.467 135.66C92.8918 135.678 93.3199 135.688 93.7509 135.688C94.1144 135.688 94.4061 135.982 94.4061 136.344C94.4061 136.708 94.1144 137 93.7509 137Z" fill="white"/>
<path d="M93.7297 89.4888C84.7991 89.4888 77.5332 96.7536 77.5332 105.686C77.5332 114.615 84.7991 121.88 93.7297 121.88C102.661 121.88 109.925 114.615 109.925 105.686C109.925 96.7536 102.661 89.4888 93.7297 89.4888ZM93.7297 124.507C83.3527 124.507 74.9065 116.063 74.9065 105.686C74.9065 95.305 83.3527 86.8638 93.7297 86.8638C104.108 86.8638 112.552 95.305 112.552 105.686C112.552 116.063 104.108 124.507 93.7297 124.507Z" fill="white"/>
<path d="M45.174 75.7697C44.8283 75.7697 44.5376 75.5003 44.5187 75.1512C44.4987 74.7888 44.7765 74.4781 45.1372 74.4603C45.581 74.433 46.028 74.4191 46.4779 74.4119H46.4873C46.8459 74.4119 47.1376 74.7003 47.1426 75.0593C47.147 75.4229 46.8575 75.7219 46.494 75.7252C46.0636 75.7313 45.6366 75.7452 45.2102 75.7697H45.174ZM51.7184 76.0982C51.6833 76.0982 51.6477 76.0949 51.6126 76.0899C51.1928 76.0242 50.7692 75.9663 50.3405 75.9156C49.9819 75.8761 49.7231 75.5498 49.7643 75.1913C49.8055 74.8289 50.1278 74.5627 50.4913 74.6145C50.9351 74.6641 51.3782 74.7236 51.8197 74.7943C52.1788 74.8522 52.4221 75.1874 52.3631 75.5465C52.313 75.8688 52.0352 76.0982 51.7184 76.0982ZM39.9835 76.5113C39.6846 76.5113 39.414 76.3053 39.345 76.003C39.2637 75.6489 39.4825 75.2982 39.8343 75.2158C40.2697 75.1134 40.7073 75.0226 41.1477 74.9391C41.5062 74.8806 41.8475 75.1089 41.9149 75.4641C41.9817 75.8215 41.7451 76.1628 41.3887 76.2324C40.9673 76.3103 40.5475 76.3983 40.1322 76.4924C40.0826 76.5052 40.032 76.5113 39.9835 76.5113ZM56.8086 77.3631C56.7396 77.3631 56.6678 77.3514 56.5971 77.3253C56.1912 77.1877 55.7826 77.0575 55.3695 76.9361C55.0215 76.8337 54.8239 76.469 54.9263 76.1216C55.0287 75.7748 55.3895 75.5699 55.7402 75.6784C56.1723 75.8031 56.5982 75.9395 57.0207 76.0854C57.3642 76.2018 57.548 76.5759 57.431 76.9194C57.3358 77.19 57.0831 77.3631 56.8086 77.3631ZM35.0008 78.1314C34.7452 78.1314 34.5014 77.9811 34.3956 77.7306C34.2547 77.396 34.4101 77.0113 34.7452 76.8704C35.1533 76.6961 35.5675 76.5314 35.9856 76.376C36.3264 76.2474 36.7044 76.4217 36.8302 76.7596C36.9583 77.0998 36.7857 77.4772 36.4466 77.6053C36.0441 77.7551 35.6488 77.9137 35.2558 78.0796C35.1722 78.1141 35.0854 78.1314 35.0008 78.1314ZM61.6093 79.4826C61.5024 79.4826 61.3944 79.4576 61.2942 79.4035C60.919 79.1953 60.5387 78.9988 60.154 78.8078C59.8295 78.6469 59.6953 78.2539 59.8562 77.9293C60.0165 77.6042 60.4096 77.47 60.7342 77.6315C61.1367 77.8291 61.5342 78.0373 61.9261 78.2517C62.244 78.427 62.3593 78.8257 62.185 79.1436C62.0659 79.3601 61.8415 79.4826 61.6093 79.4826ZM30.3682 80.5799C30.1516 80.5799 29.9423 80.4741 29.8159 80.2787C29.6194 79.9753 29.7068 79.5683 30.0124 79.3729C30.3882 79.1291 30.769 78.8952 31.1543 78.6714C31.4694 78.4894 31.8697 78.5952 32.0518 78.9069C32.2344 79.2209 32.1297 79.6212 31.8162 79.8049C31.4471 80.0215 31.0825 80.2448 30.7223 80.4753C30.6137 80.5471 30.4901 80.5799 30.3682 80.5799ZM65.9747 82.3921C65.8316 82.3921 65.688 82.3453 65.5666 82.2485C65.2315 81.9818 64.8902 81.7229 64.5439 81.4696C64.2522 81.2541 64.1876 80.8438 64.4008 80.5521C64.6135 80.2604 65.0266 80.1952 65.3183 80.4084C65.6807 80.6729 66.0348 80.9424 66.3856 81.2241C66.6689 81.4484 66.7151 81.8615 66.488 82.1449C66.36 82.3075 66.1679 82.3921 65.9747 82.3921ZM26.2166 83.7839C26.0401 83.7839 25.8625 83.711 25.7345 83.5701C25.4895 83.3029 25.5073 82.8887 25.7729 82.6426C26.1025 82.3425 26.4393 82.0475 26.7806 81.7591C27.0578 81.5253 27.4709 81.5603 27.7053 81.837C27.9392 82.1143 27.903 82.5285 27.6263 82.7629C27.2995 83.0396 26.9754 83.3218 26.6603 83.6113C26.5356 83.7277 26.3758 83.7839 26.2166 83.7839ZM69.785 85.9964C69.604 85.9964 69.4237 85.9235 69.2956 85.7787C69.0083 85.4575 68.7166 85.1457 68.4188 84.8373C68.1671 84.5751 68.1732 84.1608 68.4332 83.9092C68.6932 83.6559 69.1085 83.6631 69.3613 83.922C69.6731 84.2421 69.9754 84.57 70.2732 84.9046C70.5154 85.1724 70.492 85.5894 70.2215 85.8294C70.0968 85.9435 69.9392 85.9964 69.785 85.9964ZM22.6656 87.6438C22.5256 87.6438 22.3843 87.5987 22.2644 87.5074C21.9784 87.2847 21.9255 86.8727 22.1478 86.586C22.4209 86.233 22.7009 85.8845 22.9892 85.5432C23.2245 85.2654 23.6375 85.2292 23.9164 85.4619C24.1929 85.6985 24.227 86.1116 23.994 86.3883C23.7175 86.7174 23.4481 87.0508 23.1856 87.3882C23.0563 87.5553 22.8621 87.6438 22.6656 87.6438ZM72.9277 90.1936C72.709 90.1936 72.4935 90.0839 72.3699 89.8841C72.1444 89.5205 71.91 89.1637 71.669 88.8096C71.463 88.5106 71.5393 88.1014 71.8382 87.8965C72.1394 87.6933 72.5481 87.7696 72.7513 88.0686C73.0029 88.4354 73.2468 88.8096 73.4845 89.1887C73.676 89.4971 73.583 89.9019 73.2752 90.0945C73.1655 90.1608 73.0458 90.1936 72.9277 90.1936ZM19.8204 92.0526C19.7169 92.0526 19.611 92.0269 19.5121 91.9752C19.1932 91.8042 19.072 91.4067 19.2415 91.0866C19.4521 90.6925 19.671 90.3016 19.8969 89.9147C20.0805 89.6052 20.4817 89.4994 20.7947 89.6803C21.1077 89.8651 21.2112 90.2688 21.0277 90.5817C20.8112 90.9502 20.6029 91.3255 20.4017 91.7046C20.284 91.9245 20.0557 92.0526 19.8204 92.0526ZM75.3083 94.8591C75.0506 94.8591 74.8045 94.7037 74.6998 94.4482C74.5401 94.0518 74.3703 93.661 74.1915 93.2729C74.0423 92.9433 74.186 92.5536 74.5161 92.4022C74.8468 92.2502 75.2354 92.3972 75.3868 92.7256C75.5706 93.1304 75.7471 93.5413 75.918 93.9527C76.0533 94.2895 75.8907 94.6731 75.5555 94.8106C75.4743 94.8435 75.3919 94.8591 75.3083 94.8591ZM17.7683 96.8839C17.7024 96.8839 17.633 96.8744 17.5647 96.8511C17.22 96.738 17.0329 96.3684 17.1459 96.0226C17.2847 95.5978 17.433 95.173 17.5895 94.7533C17.7166 94.4153 18.0943 94.2422 18.4355 94.3708C18.7744 94.4966 18.9462 94.8769 18.8191 95.2143C18.6696 95.6179 18.5273 96.0226 18.3931 96.4307C18.3025 96.7074 18.046 96.8839 17.7683 96.8839ZM76.8555 99.868C76.5532 99.868 76.2815 99.6598 76.2142 99.3513C76.1251 98.9316 76.0249 98.5146 75.918 98.102C75.825 97.7513 76.0343 97.3922 76.384 97.2992C76.7353 97.2101 77.0944 97.4172 77.1862 97.7691C77.2992 98.1995 77.405 98.6337 77.4991 99.0713C77.577 99.4265 77.351 99.7761 76.9969 99.8541C76.9496 99.8647 76.9012 99.868 76.8555 99.868ZM16.581 101.994C16.5493 101.994 16.5187 101.992 16.487 101.987C16.128 101.935 15.8798 101.602 15.9304 101.244C15.9927 100.8 16.0668 100.358 16.1492 99.9198C16.2163 99.5646 16.5576 99.3302 16.9164 99.3975C17.2718 99.4644 17.506 99.8079 17.44 100.163C17.36 100.583 17.2906 101.005 17.2306 101.432C17.1823 101.758 16.9023 101.994 16.581 101.994ZM77.5214 105.069C77.1723 105.069 76.88 104.793 76.8661 104.442C76.8483 104.011 76.8216 103.583 76.7859 103.158C76.7553 102.797 77.0225 102.479 77.3839 102.45C77.7402 102.417 78.0642 102.687 78.0948 103.049C78.131 103.491 78.1583 103.935 78.1794 104.384C78.1933 104.748 77.9122 105.055 77.5509 105.069H77.5214ZM16.2822 107.228C15.928 107.228 15.635 106.947 15.6256 106.592C15.6174 106.296 15.6138 105.999 15.6138 105.705L15.6162 105.252C15.6209 104.891 15.9139 104.603 16.2728 104.603H16.2822C16.6446 104.609 16.9341 104.905 16.9293 105.267L16.927 105.705C16.927 105.988 16.9305 106.272 16.9376 106.553C16.9482 106.916 16.6646 107.219 16.301 107.228H16.2822ZM77.297 110.308C77.2686 110.308 77.2402 110.306 77.2118 110.304C76.8533 110.258 76.5989 109.927 76.6451 109.567C76.6991 109.144 76.7447 108.719 76.7815 108.29C76.8143 107.928 77.1155 107.656 77.4935 107.693C77.8543 107.724 78.1215 108.043 78.0909 108.402C78.0508 108.851 78.0041 109.295 77.9484 109.737C77.9038 110.067 77.6227 110.308 77.297 110.308ZM16.8741 112.44C16.5681 112.44 16.2952 112.223 16.2316 111.912C16.1433 111.476 16.0633 111.036 15.9951 110.593C15.9374 110.234 16.1834 109.898 16.5411 109.841C16.9082 109.791 17.2353 110.031 17.2918 110.389C17.3577 110.812 17.4341 111.234 17.5189 111.652C17.5906 112.008 17.36 112.353 17.0047 112.426C16.9611 112.433 16.9176 112.44 16.8741 112.44ZM76.1791 115.432C76.1156 115.432 76.0482 115.421 75.9848 115.401C75.6379 115.294 75.4447 114.924 75.5516 114.579C75.6791 114.173 75.7955 113.761 75.9057 113.348C75.9987 112.996 76.3639 112.788 76.7074 112.878C77.0582 112.97 77.2686 113.329 77.1756 113.681C77.0615 114.114 76.9379 114.545 76.8049 114.969C76.718 115.252 76.458 115.432 76.1791 115.432ZM18.3543 117.47C18.0907 117.47 17.8436 117.312 17.7425 117.052C17.5789 116.637 17.4259 116.216 17.2812 115.793C17.1635 115.449 17.3471 115.075 17.6907 114.959C18.0342 114.84 18.4072 115.023 18.5249 115.367C18.6626 115.774 18.8085 116.175 18.965 116.574C19.0968 116.912 18.9297 117.293 18.592 117.424C18.5143 117.456 18.4331 117.47 18.3543 117.47ZM74.1966 120.291C74.0952 120.291 73.9939 120.268 73.8976 120.219C73.5763 120.056 73.4466 119.659 73.6114 119.336C73.8068 118.953 73.995 118.568 74.1737 118.177C74.3246 117.847 74.7115 117.702 75.0456 117.856C75.3752 118.008 75.5199 118.397 75.3668 118.726C75.1797 119.132 74.9832 119.535 74.7811 119.934C74.6648 120.161 74.4354 120.291 74.1966 120.291ZM20.6723 122.169C20.4487 122.169 20.2322 122.055 20.1087 121.852C19.8781 121.472 19.6557 121.085 19.4404 120.694C19.2662 120.376 19.3827 119.976 19.7004 119.802C20.0181 119.626 20.417 119.743 20.5911 120.061C20.7982 120.435 21.0112 120.807 21.2336 121.174C21.4207 121.484 21.3206 121.886 21.01 122.075C20.9041 122.138 20.7865 122.169 20.6723 122.169ZM71.4112 124.738C71.2759 124.738 71.1367 124.694 71.0193 124.607C70.7298 124.388 70.6696 123.977 70.8884 123.687C71.1451 123.346 71.3956 122.996 71.6384 122.642C71.8455 122.346 72.2547 122.269 72.5514 122.473C72.8504 122.679 72.9255 123.088 72.7206 123.387C72.4679 123.755 72.2068 124.118 71.9373 124.477C71.8087 124.647 71.6111 124.738 71.4112 124.738ZM23.7552 126.406C23.5728 126.406 23.3881 126.33 23.2586 126.181C22.9668 125.843 22.6809 125.501 22.402 125.15C22.1773 124.866 22.2243 124.453 22.5079 124.228C22.7915 124.001 23.2057 124.047 23.4304 124.332C23.6975 124.668 23.9705 124.997 24.2506 125.319C24.4882 125.595 24.46 126.01 24.1846 126.245C24.0611 126.355 23.9081 126.406 23.7552 126.406ZM67.9166 128.647C67.7423 128.647 67.5681 128.58 67.44 128.442C67.1906 128.18 67.2023 127.764 67.4645 127.514C67.7763 127.221 68.0836 126.92 68.3815 126.612C68.6342 126.352 69.0495 126.345 69.3084 126.6C69.5695 126.852 69.5757 127.268 69.3212 127.528C69.0117 127.847 68.6921 128.161 68.367 128.467C68.2412 128.587 68.0775 128.647 67.9166 128.647ZM27.5133 130.065C27.3674 130.065 27.2193 130.015 27.0979 129.915C26.7522 129.632 26.412 129.34 26.078 129.043C25.8085 128.802 25.7835 128.387 26.0262 128.116C26.2673 127.846 26.6826 127.822 26.9532 128.063C27.2722 128.349 27.5979 128.628 27.9297 128.898C28.2114 129.131 28.2509 129.544 28.0204 129.824C27.8913 129.981 27.7031 130.065 27.5133 130.065ZM63.8112 131.908C63.598 131.908 63.3898 131.805 63.2651 131.616C63.0641 131.312 63.1448 130.905 63.4466 130.706C63.804 130.466 64.1558 130.222 64.5005 129.971C64.7961 129.759 65.2053 129.824 65.4196 130.115C65.6312 130.41 65.5677 130.82 65.2749 131.033C64.9136 131.296 64.5467 131.551 64.1748 131.797C64.0629 131.872 63.937 131.908 63.8112 131.908ZM31.8391 133.033C31.7305 133.033 31.6186 133.005 31.5162 132.947C31.127 132.726 30.7434 132.498 30.3632 132.26C30.0564 132.068 29.9623 131.664 30.1538 131.355C30.3459 131.048 30.7518 130.953 31.0597 131.147C31.4221 131.374 31.7906 131.593 32.1637 131.805C32.4788 131.984 32.5907 132.384 32.4108 132.7C32.2906 132.912 32.0685 133.033 31.8391 133.033ZM59.2159 134.421C58.9621 134.421 58.721 134.275 58.6124 134.029C58.4666 133.697 58.6186 133.309 58.9504 133.164C59.3423 132.991 59.7292 132.811 60.1117 132.622C60.4385 132.464 60.8316 132.597 60.9908 132.92C61.1506 133.246 61.0153 133.641 60.6918 133.799C60.2927 133.996 59.8868 134.185 59.4787 134.364C59.393 134.403 59.3033 134.421 59.2159 134.421ZM36.6114 135.221C36.5374 135.221 36.4633 135.208 36.3904 135.182C35.9667 135.03 35.5486 134.87 35.1333 134.7C34.7981 134.564 34.6367 134.18 34.7747 133.843C34.9111 133.508 35.2981 133.349 35.631 133.485C36.0291 133.649 36.4277 133.799 36.8324 133.945C37.1748 134.068 37.3513 134.443 37.2294 134.784C37.1336 135.054 36.8809 135.221 36.6114 135.221ZM54.2504 136.113C53.9565 136.113 53.687 135.913 53.6141 135.613C53.5272 135.262 53.7421 134.906 54.0956 134.818C54.511 134.716 54.9252 134.604 55.3333 134.484C55.6874 134.383 56.0464 134.582 56.1489 134.928C56.2524 135.276 56.0509 135.641 55.7041 135.745C55.2754 135.869 54.8439 135.987 54.4085 136.092C54.3568 136.106 54.3022 136.113 54.2504 136.113ZM41.686 136.555C41.6487 136.555 41.612 136.552 41.5747 136.546C41.1321 136.469 40.6923 136.386 40.2569 136.289C39.9023 136.212 39.679 135.861 39.7553 135.508C39.8321 135.154 40.1823 134.928 40.5369 135.006C40.9534 135.097 41.3732 135.179 41.7968 135.251C42.1548 135.314 42.3948 135.654 42.3324 136.01C42.2767 136.33 42.0006 136.555 41.686 136.555ZM49.0722 136.927C48.7298 136.927 48.4403 136.662 48.4181 136.315C48.3908 135.954 48.6641 135.64 49.0249 135.614C49.4536 135.583 49.8817 135.545 50.3043 135.496C50.6751 135.462 50.9902 135.715 51.0314 136.075C51.0715 136.437 50.8126 136.761 50.4524 136.801C50.0098 136.852 49.5666 136.89 49.1179 136.924C49.1017 136.925 49.0862 136.927 49.0722 136.927ZM46.9093 137C46.4612 137 46.0152 136.99 45.5681 136.973C45.2068 136.957 44.9268 136.65 44.9424 136.288C44.9563 135.925 45.2764 135.652 45.6244 135.66C46.0503 135.678 46.479 135.688 46.9093 135.688C47.2729 135.688 47.5663 135.982 47.5663 136.344C47.5663 136.708 47.2729 137 46.9093 137Z" fill="white"/>
<path d="M46.8871 89.4888C37.9566 89.4888 30.6917 96.7536 30.6917 105.686C30.6917 114.615 37.9566 121.88 46.8871 121.88C55.8183 121.88 63.0842 114.615 63.0842 105.686C63.0842 96.7536 55.8183 89.4888 46.8871 89.4888ZM46.8871 124.507C36.5079 124.507 28.0656 116.063 28.0656 105.686C28.0656 95.305 36.5079 86.8638 46.8871 86.8638C57.2658 86.8638 65.7092 95.305 65.7092 105.686C65.7092 116.063 57.2658 124.507 46.8871 124.507Z" fill="white"/>
<path d="M46.709 105.03H94.0988L108.745 59.9574L70.4036 32.1034L32.063 59.9574L46.709 105.03ZM94.5764 106.343H46.2324C45.9474 106.343 45.6946 106.16 45.6066 105.889L30.6661 59.9079C30.5793 59.6401 30.6756 59.3422 30.9049 59.1752L70.0183 30.76C70.2494 30.593 70.56 30.593 70.7905 30.76L109.903 59.1752C110.131 59.3422 110.228 59.6401 110.141 59.9079L95.2017 105.889C95.1131 106.16 94.8615 106.343 94.5764 106.343Z" fill="white"/>
<path d="M70.4242 31.9537C70.0629 31.9537 69.7678 31.6603 69.7678 31.2956V0.655388C69.7678 0.294179 70.0629 0 70.4242 0C70.7889 0 71.0812 0.294179 71.0812 0.655388V31.2956C71.0812 31.6603 70.7889 31.9537 70.4242 31.9537Z" fill="white"/>
<path d="M109.558 60.4234C109.27 60.4234 109.006 60.2346 108.926 59.9451C108.827 59.5961 109.03 59.2336 109.381 59.1356L138.954 50.8169C139.302 50.7228 139.665 50.9227 139.764 51.2723C139.862 51.6203 139.658 51.9827 139.308 52.0818L109.734 60.3994C109.675 60.415 109.617 60.4234 109.558 60.4234Z" fill="white"/>
<path d="M111.829 131.052C111.62 131.052 111.417 130.954 111.29 130.772L93.9997 106.081C93.7915 105.783 93.8633 105.376 94.1595 105.166C94.4573 104.957 94.8682 105.03 95.0764 105.329L112.365 130.019C112.572 130.316 112.501 130.725 112.203 130.932C112.091 131.014 111.958 131.052 111.829 131.052Z" fill="white"/>
<path d="M26.7445 129.403C26.5953 129.403 26.4444 129.353 26.3225 129.249C26.0447 129.015 26.0107 128.601 26.2434 128.324L45.7102 105.281C45.944 105.003 46.3583 104.966 46.6361 105.204C46.9128 105.438 46.9478 105.851 46.7129 106.129L27.2461 129.171C27.1164 129.325 26.9316 129.403 26.7445 129.403Z" fill="white"/>
<path d="M31.1889 60.3455C31.1126 60.3455 31.0324 60.3327 30.9573 60.3032L2.20328 49.3967C1.8644 49.2692 1.69376 48.8918 1.82203 48.5516C1.95147 48.2103 2.3315 48.04 2.66922 48.1691L31.4222 59.0772C31.7612 59.2042 31.9316 59.5839 31.8035 59.9229C31.7033 60.184 31.455 60.3455 31.1889 60.3455Z" fill="white"/>
</svg>
