<svg width="728" height="1068" viewBox="0 0 728 1068" fill="none" xmlns="http://www.w3.org/2000/svg">
<path d="M1213.55 728.486C1094.2 722.248 1015.25 665.517 939 650.164C887.315 638.676 848.418 645.584 816.002 650.342C786.06 654.106 756.151 660.516 722.357 628.604C677.394 586.257 663.891 510.384 673.778 462.692C682.855 407.67 716.757 363.021 714.263 308.031C711.801 258.31 678.268 220.409 655.375 184.676C629.415 144.415 635.219 110.921 665.543 82.7663C700.791 49.2024 762.574 35.6416 785.11 -4.48584C809.004 -48.0386 788.089 -111.665 768.117 -188.864C753.115 -250.487 744.083 -322.297 750.672 -404.644C757.255 -483.604 781.647 -571.89 839.628 -620.564C915.298 -685.817 1031.01 -669.182 1127.05 -642.232C1225.2 -616.782 1314.34 -599.26 1395.69 -574.735C1466.83 -553.341 1530.62 -514.719 1576.92 -461.611C1598.89 -435.963 1617.48 -407.023 1625.15 -364.083C1631.07 -331.163 1626.21 -288.612 1628.06 -253.932C1629.98 -217.587 1651.31 -210.698 1679.62 -215.546C1706.12 -219.819 1740.22 -235.951 1758.18 -219.073C1810.11 -174.206 1743.73 8.02887 1690.08 128.398C1649.38 224.829 1626.3 301.838 1603.71 378.52C1570.65 496.881 1514.16 657.703 1341.24 712.029C1297.47 725.705 1253.36 729.864 1213.55 728.486Z" stroke="url(#paint0_linear)" stroke-width="0.5" stroke-miterlimit="10"/>
<path d="M1198.8 735.751C1081.31 727.121 1003.37 668.699 928.394 651.834C877.563 639.384 839.482 646.005 807.87 650.865C778.643 654.679 749.595 661.67 715.999 629.873C671.259 587.73 656.901 511.022 666.303 462.704C674.767 406.994 708.198 361.738 705.423 306.857C702.693 257.206 668.88 220.013 645.458 185.027C618.916 145.595 624.166 112.216 654.573 83.8376C689.916 50.0057 752.414 36.2281 775.677 -2.87243C800.349 -45.3536 780.378 -107.296 762.103 -181.982C748.428 -241.615 741.149 -310.682 749.021 -389.885C756.879 -465.815 781.928 -550.866 839.578 -597.634C914.826 -660.38 1028.89 -643.559 1123.54 -616.674C1220.27 -591.255 1308.08 -573.88 1388.3 -549.827C1458.44 -528.835 1521.39 -490.761 1566.87 -437.475C1588.45 -411.776 1606.6 -382.581 1613.81 -339.456C1619.37 -306.408 1614.18 -263.876 1615.64 -229.183C1617.16 -192.813 1638.03 -185.433 1665.89 -189.63C1691.96 -193.285 1725.64 -208.593 1743.05 -191.308C1793.45 -145.133 1725.98 34.9013 1671.87 152.955C1630.74 247.664 1607.21 323.256 1584.31 398.549C1550.61 514.683 1494.48 672.042 1324.46 722.177C1281.4 734.762 1238 737.983 1198.8 735.751Z" stroke="url(#paint1_linear)" stroke-width="0.5" stroke-miterlimit="10"/>
<path d="M1184.35 742.64C1068.68 731.656 991.714 671.57 917.996 653.334C868.001 639.977 830.743 646.394 799.928 651.408C771.41 655.337 743.229 662.908 709.792 631.315C665.244 589.421 650.018 511.883 658.916 462.89C666.756 406.401 699.701 360.533 696.608 305.792C693.584 256.263 659.478 219.797 635.507 185.57C608.353 147.018 613.041 113.709 643.506 85.0692C678.92 50.861 742.138 36.8346 766.09 -1.3346C791.515 -42.8462 772.456 -103.136 755.852 -175.437C743.484 -233.118 737.96 -299.621 747.133 -375.711C756.28 -448.688 782.024 -530.544 839.38 -575.398C914.252 -635.63 1026.7 -618.536 1120 -591.663C1215.32 -566.206 1301.83 -548.895 1380.91 -525.192C1450.04 -504.455 1512.16 -466.943 1556.79 -413.459C1577.95 -387.709 1595.69 -358.265 1602.42 -315.019C1607.61 -281.85 1602.1 -239.446 1603.16 -204.734C1604.28 -168.357 1624.68 -160.543 1652.09 -164.064C1677.73 -167.068 1710.98 -181.624 1727.86 -163.93C1776.73 -116.531 1708.22 61.1433 1653.69 176.908C1612.18 269.869 1588.22 344.102 1565.04 417.908C1530.79 531.816 1475.08 685.705 1307.97 731.835C1265.62 743.393 1222.92 745.67 1184.35 742.64Z" stroke="url(#paint2_linear)" stroke-width="0.5" stroke-miterlimit="10"/>
<path d="M1170.17 749.165C1056.31 735.891 980.276 674.255 907.803 654.686C858.643 640.538 822.202 646.731 792.177 652.006C764.373 656.108 737.028 664.355 703.744 632.96C659.349 591.423 643.243 512.878 651.625 463.272C658.813 406.011 691.268 359.493 687.836 304.867C684.5 255.433 650.068 219.783 625.536 186.334C597.745 148.701 601.852 115.469 632.355 86.5036C667.82 51.9383 731.74 37.4845 756.368 0.169945C782.52 -40.4359 764.328 -99.1887 749.383 -169.181C738.304 -225.037 734.534 -288.963 745.027 -362.081C755.475 -432.162 781.959 -510.86 839.06 -553.813C913.607 -611.482 1024.49 -594.126 1116.46 -567.157C1210.41 -541.618 1295.62 -524.262 1373.56 -500.827C1441.69 -480.307 1502.95 -443.235 1546.7 -389.566C1567.44 -363.726 1584.75 -334.104 1590.99 -290.749C1595.82 -257.511 1589.98 -215.227 1590.66 -180.553C1591.36 -144.221 1611.31 -135.916 1638.26 -138.825C1663.46 -141.249 1696.28 -154.995 1712.61 -136.924C1759.98 -88.377 1690.48 86.8353 1635.56 200.265C1593.7 291.446 1569.36 364.321 1545.94 436.641C1511.17 548.342 1455.99 698.876 1291.79 741.058C1250.14 751.627 1208.15 752.998 1170.17 749.165Z" stroke="url(#paint3_linear)" stroke-width="0.5" stroke-miterlimit="10"/>
<path d="M1156.29 755.333C1044.22 739.916 969.051 676.718 897.808 655.892C849.459 640.966 813.847 647.102 784.607 652.639C757.504 656.983 730.995 665.913 697.832 634.804C653.578 593.535 636.553 514.186 644.399 463.846C650.924 405.795 682.868 358.556 679.067 304.077C675.393 254.764 640.629 219.905 615.504 187.317C587.061 150.59 590.551 117.466 621.079 88.1244C656.556 53.0934 721.185 38.1804 746.463 1.63767C773.33 -38.139 755.967 -95.4247 742.642 -163.216C732.838 -217.312 730.816 -278.802 742.649 -348.985C754.424 -416.234 781.667 -491.864 838.557 -532.885C912.83 -588.034 1022.19 -570.308 1112.85 -543.193C1205.46 -517.481 1289.38 -500.029 1366.19 -476.747C1433.32 -456.38 1493.7 -419.64 1536.57 -365.824C1556.88 -339.94 1573.73 -310.127 1579.5 -266.695C1583.97 -233.412 1577.8 -191.301 1578.09 -156.684C1578.39 -120.384 1597.87 -111.709 1624.35 -113.942C1649.12 -115.779 1681.48 -128.708 1697.3 -110.306C1743.16 -60.7254 1672.73 112.012 1617.47 223.037C1575.29 312.452 1550.59 383.872 1526.97 454.77C1491.76 564.238 1437.18 711.475 1275.89 749.854C1234.96 759.416 1193.66 759.926 1156.29 755.333Z" stroke="url(#paint4_linear)" stroke-width="0.5" stroke-miterlimit="10"/>
<path d="M1142.7 761.17C1032.38 743.693 958.048 678.906 888.023 656.983C840.477 641.362 805.701 647.44 777.233 653.36C750.826 657.978 725.139 667.718 692.072 636.865C647.907 595.965 629.957 515.647 637.254 464.637C643.11 405.744 674.518 357.797 670.334 303.445C666.303 254.247 631.182 220.326 605.457 188.536C576.332 152.752 579.209 119.711 609.731 89.9551C645.208 54.433 710.513 38.9204 736.429 3.08567C763.972 -35.9766 747.407 -91.8208 735.683 -157.52C727.129 -209.939 726.855 -269.049 740.046 -336.419C753.154 -400.919 781.207 -473.488 837.913 -512.62C911.962 -565.217 1019.84 -547.058 1109.22 -519.777C1200.52 -493.816 1283.17 -476.205 1358.84 -453C1424.96 -432.658 1484.46 -396.237 1526.42 -342.274C1546.3 -316.32 1562.69 -286.328 1567.98 -242.89C1572.07 -209.569 1565.58 -167.674 1565.48 -133.16C1565.38 -96.981 1584.39 -87.8533 1610.41 -89.4543C1634.75 -90.6918 1666.66 -102.836 1681.94 -84.1282C1726.31 -33.5782 1654.99 136.519 1599.44 245.177C1556.98 332.786 1531.96 402.74 1508.17 472.241C1472.57 579.509 1418.69 723.504 1260.32 758.204C1220.08 766.834 1179.47 766.534 1142.7 761.17Z" stroke="url(#paint5_linear)" stroke-width="0.5" stroke-miterlimit="10"/>
<path d="M1129.39 766.687C1020.79 747.201 947.261 680.851 878.43 657.952C831.681 641.693 797.721 647.823 770.032 654.144C744.313 659.075 719.443 669.669 686.446 639.135C642.338 598.682 623.445 517.388 630.187 465.632C635.341 405.923 666.22 357.12 661.614 302.96C657.207 253.89 621.716 220.9 595.36 189.983C565.54 155.188 567.772 122.173 598.268 91.9897C633.714 55.9063 699.701 39.7175 726.217 4.5079C754.417 -33.8973 738.611 -88.3893 728.462 -152.105C721.146 -202.884 722.607 -259.768 737.169 -324.396C751.636 -386.236 780.518 -455.787 837.084 -493.025C910.961 -543.103 1017.39 -524.497 1105.53 -496.942C1195.54 -470.688 1276.94 -452.84 1351.48 -429.61C1416.6 -409.269 1475.19 -373.096 1516.24 -318.955C1535.68 -292.917 1551.61 -262.798 1556.41 -219.36C1560.12 -186.064 1553.31 -144.387 1552.83 -110C1552.33 -73.9355 1570.87 -64.3868 1596.43 -65.3755C1620.33 -66.0325 1651.79 -77.3863 1666.55 -58.391C1709.42 -6.91609 1637.29 160.432 1581.47 266.705C1538.76 352.477 1513.45 421.04 1489.53 489.086C1453.57 594.173 1400.51 734.954 1245.03 766.138C1205.51 773.863 1165.59 772.734 1129.39 766.687Z" stroke="url(#paint6_linear)" stroke-width="0.5" stroke-miterlimit="10"/>
<path d="M1116.38 771.911C1009.48 750.473 936.698 682.701 869.053 658.832C823.082 641.968 789.945 648.219 763.021 655.031C737.998 660.363 713.912 671.857 680.967 641.649C636.897 601.598 617.021 519.366 623.196 466.864C627.654 406.261 657.966 356.661 652.926 302.667C648.117 253.75 612.237 221.755 585.237 191.693C554.696 157.906 556.265 124.961 586.716 94.2735C622.118 57.6096 688.761 40.6363 715.864 5.96887C744.696 -31.8687 729.604 -85.0913 721.005 -146.899C714.895 -196.174 718.097 -250.921 734.056 -312.844C749.894 -372.107 779.644 -438.724 836.107 -474.049C909.857 -521.607 1014.9 -502.51 1101.81 -474.642C1190.57 -448.056 1270.73 -429.833 1344.14 -406.551C1408.26 -386.108 1465.94 -350.184 1506.05 -295.851C1525.04 -269.789 1540.5 -239.478 1544.81 -196.104C1548.15 -162.839 1541.02 -121.455 1540.16 -87.1962C1539.25 -51.2914 1557.34 -41.3536 1582.42 -41.7045C1605.87 -41.8001 1636.88 -52.3502 1651.11 -33.0934C1692.53 19.2107 1619.61 183.771 1563.58 287.626C1520.64 371.543 1495.07 438.677 1471.05 505.326C1434.82 608.219 1382.63 745.881 1230.06 773.691C1191.25 780.529 1152.01 778.647 1116.38 771.911Z" stroke="url(#paint7_linear)" stroke-width="0.5" stroke-miterlimit="10"/>
<path d="M1103.68 776.848C998.456 753.586 926.358 684.34 859.88 659.643C814.675 642.229 782.361 648.722 756.19 656.039C731.836 661.811 708.541 674.262 675.621 644.411C631.558 604.844 610.7 521.592 616.281 468.337C620.019 406.835 649.762 356.336 644.264 302.546C639.027 253.814 602.739 222.82 575.088 193.651C543.807 160.878 544.688 128.003 575.082 96.7866C610.406 59.4912 677.707 41.6823 705.365 7.44859C734.802 -29.9042 720.386 -81.9213 713.313 -141.924C708.395 -189.738 713.332 -242.482 730.688 -301.783C747.904 -358.572 778.559 -422.23 834.959 -455.717C908.632 -500.794 1012.32 -481.11 1098.04 -452.917C1185.57 -425.942 1264.51 -407.329 1336.8 -383.869C1399.92 -363.285 1456.68 -327.463 1495.84 -272.997C1514.38 -246.858 1529.35 -216.451 1533.18 -173.141C1536.16 -139.934 1528.69 -98.8244 1527.47 -64.7693C1526.17 -29.0303 1543.78 -18.7098 1568.39 -18.4483C1591.39 -17.9699 1621.95 -27.7355 1635.67 -8.25538C1675.62 44.8333 1601.99 206.51 1545.77 307.942C1502.64 389.996 1476.85 455.739 1452.78 520.967C1416.31 621.697 1365.09 756.309 1215.42 780.867C1177.31 786.895 1138.74 784.209 1103.68 776.848Z" stroke="url(#paint8_linear)" stroke-width="0.5" stroke-miterlimit="10"/>
<path d="M1091.26 781.517C987.682 756.488 916.242 685.877 850.899 660.389C806.453 642.548 774.949 649.265 749.524 657.161C725.846 663.457 703.311 676.871 670.397 647.428C626.302 608.385 604.436 524.124 609.424 470.047C612.435 407.613 641.585 356.189 635.602 302.622C629.925 254.024 593.209 224.134 564.882 195.877C532.842 164.176 533.015 131.314 563.332 99.5549C598.561 61.577 666.5 42.8113 694.693 8.96672C724.717 -28.0161 710.933 -78.8467 705.352 -137.153C701.601 -183.602 708.267 -234.4 727.046 -291.195C745.658 -345.547 777.252 -406.417 833.619 -438.023C907.267 -480.632 1009.65 -460.335 1094.2 -431.753C1180.53 -404.35 1258.27 -385.259 1329.43 -361.589C1391.56 -340.814 1447.38 -305.049 1485.59 -250.442C1503.66 -224.246 1518.17 -193.712 1521.5 -150.522C1524.1 -117.405 1516.33 -76.6525 1514.72 -42.7569C1513.02 -7.23475 1530.18 3.48117 1554.31 4.35503C1576.86 5.3756 1606.97 -3.599 1620.17 16.1043C1658.68 69.8627 1584.37 228.65 1528.02 327.645C1484.74 407.849 1458.74 472.151 1434.65 536.007C1398.01 634.543 1347.82 766.317 1201.07 787.692C1163.67 792.884 1125.77 789.554 1091.26 781.517Z" stroke="url(#paint9_linear)" stroke-width="0.5" stroke-miterlimit="10"/>
<path d="M1079.15 785.944C977.177 759.225 906.342 687.217 842.129 661.097C798.416 642.835 767.729 649.89 743.044 658.431C720.023 665.307 698.246 679.729 665.307 650.719C621.148 612.173 598.262 526.886 602.644 472.024C604.902 408.691 633.465 356.292 626.978 302.916C620.836 254.496 583.68 225.716 554.658 198.391C521.84 167.742 521.285 134.95 551.506 102.591C586.614 63.9117 655.178 44.0616 683.882 10.5551C714.455 -26.0961 701.27 -75.8423 697.162 -132.56C694.572 -177.765 702.948 -226.682 723.161 -281.047C743.19 -333.057 775.747 -391.179 832.115 -420.935C905.781 -461.12 1006.91 -440.172 1090.32 -411.169C1175.47 -383.295 1252.03 -363.662 1322.07 -339.697C1383.22 -318.674 1438.11 -282.928 1475.33 -228.168C1492.95 -201.927 1506.96 -171.265 1509.8 -128.229C1512.02 -95.1948 1503.94 -54.8251 1501.97 -21.1527C1499.9 14.159 1516.57 25.2513 1540.24 26.6992C1562.34 28.2939 1591.98 20.04 1604.67 39.9602C1641.76 94.382 1566.83 250.127 1510.38 346.724C1466.98 425.059 1440.82 487.958 1416.74 550.442C1379.98 646.873 1330.93 775.783 1187.06 794.16C1150.36 798.58 1113.11 794.549 1079.15 785.944Z" stroke="url(#paint10_linear)" stroke-width="0.5" stroke-miterlimit="10"/>
<path d="M1067.34 790.135C966.945 761.821 896.666 688.48 833.549 661.767C790.558 643.173 760.68 650.655 736.728 659.847C714.371 667.303 693.322 682.88 660.338 654.278C616.09 616.332 592.157 529.928 595.921 474.263C597.426 409.935 625.377 356.598 618.361 303.42C611.746 255.166 574.118 227.553 544.388 201.184C510.772 171.613 509.478 138.885 539.572 105.908C574.527 66.4566 643.716 45.5222 672.904 12.2262C704.013 -24.189 691.376 -72.8892 688.704 -128.121C687.237 -172.101 697.328 -219.271 718.99 -271.332C740.441 -321.136 773.999 -376.483 830.411 -404.459C904.141 -442.169 1004.06 -420.648 1086.37 -391.147C1170.37 -362.737 1245.77 -342.523 1314.7 -318.221C1374.87 -296.878 1428.79 -261.114 1465.04 -206.207C1482.19 -179.902 1495.71 -149.177 1498.07 -106.287C1499.91 -73.3612 1491.52 -33.3932 1489.18 0.0431698C1486.73 35.0997 1502.93 46.5874 1526.12 48.6094C1547.78 50.7462 1576.95 43.2514 1589.15 63.3566C1624.82 118.359 1549.33 271.055 1492.82 365.241C1449.32 441.688 1423.04 503.183 1399.01 564.341C1362.18 658.705 1314.34 784.783 1173.36 800.341C1137.36 804.015 1100.77 799.301 1067.34 790.135Z" stroke="url(#paint11_linear)" stroke-width="0.5" stroke-miterlimit="10"/>
<path d="M1055.83 794.115C956.982 764.263 887.213 689.634 825.181 662.43C782.903 643.568 753.83 651.478 730.592 661.441C708.88 669.535 688.557 686.279 655.497 658.131C611.121 620.714 586.129 533.296 589.274 476.776C590.014 411.453 617.34 357.127 609.775 304.153C602.65 256.097 564.551 229.658 534.093 204.271C499.674 175.829 497.607 143.158 527.561 109.505C562.344 69.2757 632.138 47.123 661.786 13.9864C693.399 -22.2565 681.273 -69.9936 680.016 -123.841C679.659 -166.667 691.46 -212.254 714.569 -262.045C737.456 -309.661 772.047 -362.437 828.53 -388.589C902.381 -423.958 1001.12 -401.71 1082.35 -371.705C1165.25 -342.785 1239.51 -321.876 1307.33 -297.185C1366.51 -275.459 1419.49 -239.637 1454.75 -184.597C1471.42 -158.241 1484.45 -127.439 1486.32 -84.7407C1487.79 -51.9997 1479.08 -12.3889 1476.4 20.7732C1473.55 55.5554 1489.3 67.394 1512.02 70.0092C1533.23 72.6946 1561.94 65.9716 1573.63 86.2043C1607.91 141.742 1531.91 291.351 1475.38 383.1C1431.81 457.71 1405.43 517.79 1381.48 577.627C1344.64 669.918 1298.1 793.356 1159.98 806.17C1124.69 809.175 1088.73 803.797 1055.83 794.115Z" stroke="url(#paint12_linear)" stroke-width="0.5" stroke-miterlimit="10"/>
<path d="M1044.62 797.898C947.292 766.598 877.976 690.629 817.009 663.087C775.427 644.04 747.151 652.441 724.622 663.202C703.547 672.01 683.926 689.941 650.77 662.264C606.228 625.498 580.178 536.926 582.678 479.563C582.646 413.348 609.335 357.829 601.195 305.11C593.547 257.264 554.957 232.044 523.759 207.646C488.505 180.339 485.66 147.726 515.454 113.384C550.052 72.3439 620.427 48.8709 650.515 15.8364C682.599 -20.3109 670.952 -67.1549 671.079 -119.695C671.8 -161.506 685.297 -205.512 709.887 -253.166C734.228 -298.715 769.871 -348.94 826.469 -373.319C900.48 -406.328 998.098 -383.378 1078.28 -352.844C1160.1 -323.343 1233.24 -301.764 1299.96 -276.582C1358.18 -254.455 1410.19 -218.511 1444.45 -163.324C1460.65 -136.949 1473.18 -106.058 1474.57 -63.5638C1475.67 -30.9758 1466.67 8.17575 1463.62 41.0763C1460.4 75.5843 1475.68 87.7418 1497.93 90.9374C1518.69 94.1331 1546.93 88.1628 1558.14 108.561C1591.04 164.578 1514.57 311.029 1458.07 400.393C1414.47 473.127 1388.02 531.874 1364.19 590.384C1327.37 680.673 1282.23 801.438 1146.96 811.733C1112.34 814.054 1077 808.078 1044.62 797.898Z" stroke="url(#paint13_linear)" stroke-width="0.5" stroke-miterlimit="10"/>
<path d="M1033.72 801.501C937.859 768.881 868.963 691.605 809.024 663.769C768.124 644.519 740.632 653.544 718.805 665.16C698.355 674.696 679.423 693.901 646.139 666.703C601.413 630.575 574.272 540.842 576.128 482.637C575.311 415.376 601.349 358.785 592.623 306.322C584.433 258.687 545.338 234.703 513.375 211.332C477.278 185.187 473.63 152.592 503.239 117.574C537.62 75.6988 608.576 50.8352 639.066 17.8198C671.603 -18.2764 660.383 -64.3167 661.863 -115.651C663.636 -156.455 678.823 -199.089 704.899 -244.67C730.694 -288.242 767.422 -335.992 824.179 -358.629C898.407 -389.349 994.947 -365.665 1074.11 -334.563C1154.88 -304.456 1226.91 -282.119 1292.54 -256.445C1349.8 -233.852 1400.84 -197.756 1434.1 -142.441C1449.82 -115.958 1461.85 -85.0917 1462.75 -42.8147C1463.48 -10.3989 1454.19 28.2807 1450.78 60.8942C1447.2 95.1023 1462.01 107.623 1483.79 111.361C1504.1 115.086 1531.87 109.862 1542.61 130.369C1574.15 186.794 1497.27 330.094 1440.83 417.06C1397.23 487.964 1370.74 545.332 1347.06 602.567C1310.34 690.846 1266.64 809.181 1134.22 817.014C1100.31 818.71 1065.6 812.16 1033.72 801.501Z" stroke="url(#paint14_linear)" stroke-width="0.5" stroke-miterlimit="10"/>
<path d="M1023.12 804.952C928.705 771.005 860.173 692.594 801.248 664.483C761.011 645.15 734.298 654.794 713.153 667.316C693.322 677.668 675.053 698.149 641.629 671.455C596.679 635.933 568.441 545.122 569.64 485.999C568.026 417.691 593.413 359.991 584.069 307.776C575.317 260.37 535.693 237.656 502.965 215.319C466.001 190.334 461.542 157.829 490.947 122.071C525.086 79.2898 596.603 53.0102 627.482 19.9438C660.44 -16.2417 649.615 -61.4529 652.409 -111.703C655.222 -151.607 672.087 -192.94 699.656 -236.544C726.918 -278.241 764.775 -323.573 821.71 -344.507C896.187 -372.956 991.7 -348.513 1069.88 -316.856C1149.63 -286.125 1220.58 -263.028 1285.13 -236.767C1341.43 -213.702 1391.5 -177.364 1423.76 -121.928C1438.99 -95.4059 1450.51 -64.4636 1450.94 -22.4736C1451.3 9.74445 1441.72 47.9328 1437.97 80.253C1434.02 114.149 1448.38 126.995 1469.68 131.281C1489.54 135.51 1516.85 131.02 1527.11 151.654C1557.31 208.475 1480.08 348.528 1423.72 433.14C1380.16 502.137 1353.67 558.242 1330.16 614.214C1293.58 700.541 1251.42 816.51 1121.82 822.034C1088.6 823.163 1054.51 816.082 1023.12 804.952Z" stroke="url(#paint15_linear)" stroke-width="0.5" stroke-miterlimit="10"/>
<path d="M1012.82 808.25C919.82 773.136 851.601 693.462 793.664 665.249C754.066 645.852 728.143 656.268 707.668 669.695C688.442 680.902 670.825 702.679 637.229 676.526C592.017 641.655 562.675 549.695 563.211 489.673C560.794 420.3 585.517 361.458 575.535 309.505C566.209 262.303 526.043 240.961 492.53 219.631C454.685 195.858 449.391 163.417 478.58 126.893C512.457 83.213 584.522 55.3961 615.758 22.2213C649.112 -14.0663 638.632 -58.6013 642.72 -107.818C646.541 -146.9 665.084 -187.002 694.158 -228.749C722.893 -268.672 761.898 -311.638 819.057 -330.927C893.84 -357.13 988.371 -331.999 1065.59 -299.698C1144.37 -268.283 1214.26 -244.396 1277.72 -217.536C1333.08 -193.916 1382.17 -157.367 1413.42 -101.797C1428.18 -75.2366 1439.2 -44.256 1439.15 -2.54026C1439.13 29.4609 1429.27 67.139 1425.18 99.153C1420.87 132.685 1434.77 145.876 1455.6 150.717C1475.03 155.463 1501.87 151.699 1511.66 172.417C1540.54 229.55 1463 366.376 1406.78 448.646C1363.27 515.838 1336.8 570.566 1313.52 625.358C1277.14 709.771 1236.59 823.495 1109.79 826.837C1077.23 827.366 1043.73 819.865 1012.82 808.25Z" stroke="url(#paint16_linear)" stroke-width="0.5" stroke-miterlimit="10"/>
<path d="M1002.83 811.426C911.203 775.151 843.233 694.38 786.265 666.072C747.286 646.719 722.141 657.831 702.323 672.297C683.697 684.372 666.705 707.539 632.911 681.916C587.412 647.759 556.948 554.543 556.814 493.641C553.58 423.196 577.634 363.174 566.994 311.495C557.069 264.53 516.354 244.526 482.037 224.262C443.3 201.682 437.145 169.323 466.097 132.041C499.687 87.4291 572.288 58.0176 603.856 24.6642C637.573 -11.853 627.4 -55.68 632.751 -103.998C637.561 -142.339 657.755 -181.344 688.347 -221.299C718.569 -259.526 758.754 -300.259 816.168 -317.908C891.296 -341.981 984.895 -316.014 1061.18 -283.133C1139.01 -251.1 1207.87 -226.268 1270.27 -198.789C1324.68 -174.583 1372.8 -137.759 1403.03 -82.0808C1417.3 -55.4759 1427.83 -24.4889 1427.29 16.9397C1426.91 48.7113 1416.77 85.8982 1412.34 117.555C1407.68 150.762 1421.13 164.265 1441.49 169.629C1460.48 174.86 1486.83 171.824 1496.17 192.63C1523.76 250.063 1445.95 383.617 1389.91 463.572C1346.5 528.939 1320.07 582.398 1297.05 635.991C1260.9 718.58 1222.04 830.09 1098.03 831.429C1066.17 831.436 1033.26 823.431 1002.83 811.426Z" stroke="url(#paint17_linear)" stroke-width="0.5" stroke-miterlimit="10"/>
<path d="M993.136 814.494C902.84 777.18 835.106 695.19 779.063 666.977C740.696 647.676 716.304 659.636 697.136 675.142C679.091 688.142 662.717 712.763 628.694 687.638C582.876 654.182 551.289 559.741 550.467 497.927C546.41 426.43 569.781 365.202 558.472 313.765C547.934 267.062 506.646 248.404 471.518 229.224C431.875 207.843 424.853 175.625 453.544 137.52C486.814 91.9577 559.939 60.9133 591.819 27.2856C625.881 -9.47397 615.969 -52.7205 622.545 -100.209C628.311 -137.919 650.164 -175.871 682.274 -214.162C713.995 -250.774 755.379 -289.352 813.087 -305.419C888.616 -327.368 981.316 -300.667 1056.72 -267.129C1133.62 -234.42 1201.47 -208.721 1262.82 -180.54C1316.31 -155.734 1363.45 -118.624 1392.66 -62.7923C1406.45 -36.1491 1416.47 -5.14931 1415.46 35.9732C1414.74 67.496 1404.3 104.134 1399.54 135.466C1394.53 168.315 1407.54 182.119 1427.43 188.019C1445.98 193.766 1471.88 191.393 1480.76 212.295C1507.07 269.989 1429.06 400.258 1373.21 477.911C1329.93 541.467 1303.58 593.675 1280.84 646.107C1245 726.878 1207.88 836.373 1086.64 835.805C1055.44 835.301 1023.12 826.869 993.136 814.494Z" stroke="url(#paint18_linear)" stroke-width="0.5" stroke-miterlimit="10"/>
<path d="M983.746 817.467C894.752 779.17 827.171 696.096 772.047 667.973C734.266 648.754 710.64 661.671 692.091 678.236C674.613 692.199 658.826 718.249 624.56 693.691C578.398 660.912 545.663 565.278 544.152 502.52C539.278 429.894 561.948 367.492 549.943 316.311C538.768 269.875 496.899 252.57 460.949 234.5C420.387 214.369 412.478 182.24 440.888 143.344C473.821 96.793 547.456 64.0455 579.617 30.1053C613.991 -7.01151 604.295 -49.6712 612.071 -96.4388C618.775 -133.53 642.261 -170.577 675.908 -207.317C709.134 -242.45 751.756 -278.955 809.782 -293.447C885.752 -313.348 977.61 -285.856 1052.15 -251.686C1128.18 -218.282 1195.02 -191.683 1255.33 -162.763C1307.91 -137.319 1354.06 -99.8577 1382.26 -43.9242C1395.56 -17.2427 1405.07 13.8017 1403.6 54.5542C1402.5 85.8474 1391.82 121.95 1386.73 152.892C1381.38 185.353 1393.94 199.494 1413.37 205.898C1431.48 212.092 1456.91 210.497 1465.34 231.419C1490.41 289.285 1412.23 416.32 1356.63 491.702C1313.48 553.484 1287.27 604.436 1264.83 655.764C1229.33 734.769 1194.07 842.324 1075.55 840.015C1045.04 839.02 1013.29 830.237 983.746 817.467Z" stroke="url(#paint19_linear)" stroke-width="0.5" stroke-miterlimit="10"/>
<path d="M974.664 820.369C886.913 781.154 819.459 696.976 765.222 669.07C728.009 650.049 705.129 663.852 687.199 681.578C670.283 696.561 655.07 724.047 620.529 700.082C573.972 668.037 540.101 571.108 537.901 507.431C532.192 433.695 554.166 370.005 541.447 319.143C529.628 272.962 487.159 257.111 450.367 240.106C408.868 221.245 400.059 189.224 428.17 149.505C460.745 101.998 534.871 67.4261 567.287 33.1222C601.948 -4.38363 592.438 -46.5139 601.368 -92.6755C608.984 -129.25 634.09 -165.525 669.281 -200.76C704.019 -234.483 747.898 -268.998 806.281 -281.991C882.735 -299.883 973.796 -271.626 1047.51 -236.812C1122.68 -202.725 1188.56 -175.163 1247.84 -145.503C1299.51 -119.389 1344.68 -81.5768 1371.87 -25.5158C1384.69 1.23586 1393.71 32.2356 1391.77 72.6501C1390.31 103.682 1379.37 139.185 1373.96 169.802C1368.27 201.892 1380.39 216.308 1399.36 223.235C1417.05 229.958 1442 229.001 1450.01 249.974C1473.83 308.025 1395.56 431.762 1340.23 504.905C1297.27 564.966 1271.19 614.674 1249.1 664.917C1214 742.187 1180.62 847.975 1064.84 844.04C1034.97 842.662 1003.78 833.42 974.664 820.369Z" stroke="url(#paint20_linear)" stroke-width="0.5" stroke-miterlimit="10"/>
<path d="M965.88 823.226C879.354 783.144 811.957 697.952 758.575 670.301C721.917 651.516 699.758 666.34 682.433 685.214C666.066 701.211 651.395 730.278 616.561 706.837C569.596 675.467 534.558 577.295 531.662 512.674C525.118 437.866 546.39 372.901 532.938 322.287C520.455 276.4 477.367 261.952 439.733 246.07C397.284 228.478 387.556 196.598 415.354 156.036C447.547 107.528 522.145 71.1317 554.791 36.3877C589.707 -1.55826 580.324 -43.2421 590.39 -88.8742C598.893 -125.002 625.613 -160.569 662.353 -194.439C698.609 -226.881 743.776 -259.424 802.555 -271.007C879.539 -286.986 969.854 -257.963 1042.77 -222.473C1117.13 -187.684 1182.07 -159.166 1240.33 -128.715C1291.11 -101.918 1335.3 -63.7172 1361.47 -7.52859C1373.8 19.2549 1382.31 50.2164 1379.92 90.3056C1378.12 121.044 1366.91 156.043 1361.19 186.226C1355.18 217.908 1366.86 232.662 1385.38 240.061C1402.63 247.231 1427.12 246.988 1434.7 267.993C1457.33 326.197 1378.98 446.592 1323.97 517.579C1281.21 575.885 1255.32 624.426 1233.6 673.63C1198.93 749.299 1167.53 853.333 1054.43 847.943C1025.22 846.132 994.571 836.596 965.88 823.226Z" stroke="url(#paint21_linear)" stroke-width="0.5" stroke-miterlimit="10"/>
<path d="M957.403 826.033C872.051 785.172 804.68 698.947 752.12 671.653C715.991 653.161 694.559 669.019 677.815 689.105C661.977 706.212 647.836 736.797 612.677 713.911C565.265 683.211 529.066 583.833 525.462 518.217C518.069 442.306 538.634 375.982 524.435 325.7C511.27 280.106 467.557 267.055 429.069 252.333C385.656 236.024 375.01 204.271 402.457 162.9C434.242 113.428 509.299 75.0673 542.149 39.8513C577.295 1.36953 568.008 -39.8805 579.164 -85.0662C588.521 -120.812 616.842 -155.772 655.139 -188.386C692.914 -219.622 739.395 -250.398 798.601 -260.527C876.165 -274.662 965.778 -244.874 1037.93 -208.702C1111.5 -173.186 1175.53 -143.73 1232.77 -112.456C1282.67 -84.9386 1325.9 -46.3037 1351.05 9.9742C1362.9 36.7896 1370.91 67.7702 1368.06 107.451C1365.91 137.915 1354.46 172.264 1348.43 202.128C1342.09 233.415 1353.35 248.411 1371.41 256.333C1388.24 263.981 1412.26 264.434 1419.42 285.438C1440.87 343.706 1362.52 460.906 1307.85 529.686C1265.32 586.314 1239.63 633.662 1218.32 681.878C1184.14 755.92 1154.78 858.455 1044.35 851.694C1015.79 849.57 985.685 839.67 957.403 826.033Z" stroke="url(#paint22_linear)" stroke-width="0.5" stroke-miterlimit="10"/>
<path d="M949.219 828.82C864.996 787.302 797.593 700.018 745.837 673.164C710.219 654.973 689.495 671.959 673.325 693.302C658.01 711.525 644.366 743.711 608.869 721.354C560.972 691.394 523.612 590.664 519.3 524.104C511.066 447 530.909 379.458 515.939 329.437C502.084 284.098 457.728 272.579 418.378 258.954C373.996 243.901 362.406 212.391 389.489 170.139C420.847 119.621 496.337 79.3662 529.366 43.5825C564.716 4.52031 555.473 -36.3789 567.689 -81.1882C577.869 -116.627 607.778 -151.11 647.644 -182.537C686.956 -212.663 734.776 -241.704 794.435 -250.5C872.618 -262.817 961.581 -232.271 1033 -195.473C1105.83 -159.262 1168.96 -128.81 1225.21 -96.6945C1274.25 -68.4503 1316.48 -29.3498 1340.64 27.0238C1352.01 53.8775 1359.52 84.8198 1356.23 124.124C1353.74 154.295 1342.03 188.089 1335.71 217.519C1329.07 248.398 1339.9 263.694 1357.5 272.088C1373.9 280.176 1397.47 281.33 1404.23 302.328C1424.51 360.679 1346.2 474.607 1291.92 541.269C1249.66 596.195 1224.19 642.471 1203.32 689.704C1169.68 762.228 1142.43 863.309 1034.62 855.349C1006.7 852.855 977.106 842.732 949.219 828.82Z" stroke="url(#paint23_linear)" stroke-width="0.5" stroke-miterlimit="10"/>
<path d="M941.335 831.608C858.209 789.471 790.723 701.167 739.733 674.83C704.599 657.001 684.577 675.18 668.955 697.786C654.138 717.158 640.979 750.945 605.112 729.149C556.711 699.853 518.171 597.866 513.145 530.311C504.056 452.097 523.179 383.17 507.43 333.469C492.855 288.379 447.866 278.415 407.63 265.894C362.265 252.129 349.719 220.817 376.426 177.73C407.33 126.242 483.249 83.9144 516.424 47.5567C551.946 7.86937 542.71 -32.7173 555.952 -77.2587C566.942 -112.468 598.414 -146.562 639.85 -176.917C680.699 -206.029 729.878 -233.418 790.034 -240.945C868.88 -251.559 957.231 -220.228 1027.96 -182.792C1100.07 -145.886 1162.33 -114.401 1217.62 -81.4622C1265.8 -52.4781 1307.07 -12.8992 1330.21 43.5765C1341.11 70.494 1348.12 101.385 1344.39 140.288C1341.56 170.152 1329.62 203.34 1323.01 232.375C1316.05 262.884 1326.46 278.377 1343.63 287.282C1359.61 295.797 1382.72 297.621 1389.08 318.645C1408.24 377.028 1330 487.696 1276.14 552.304C1234.16 605.584 1208.96 650.751 1188.55 697.091C1155.49 768.167 1130.41 867.864 1025.21 858.883C997.926 856.146 968.846 845.749 941.335 831.608Z" stroke="url(#paint24_linear)" stroke-width="0.5" stroke-miterlimit="10"/>
<path d="M933.751 834.408C851.671 791.736 784.051 702.411 733.801 676.68C699.133 659.292 679.806 678.695 664.714 702.589C650.387 723.173 637.688 758.51 601.425 737.308C552.482 708.713 512.762 605.374 507.028 536.855C497.09 457.506 515.48 387.221 498.94 337.832C483.644 293.036 437.986 284.565 396.869 273.198C350.51 260.76 336.993 229.646 363.305 185.71C393.725 133.183 470.058 88.8391 503.354 51.8243C539.017 11.4418 529.736 -28.8579 543.973 -73.2207C555.735 -108.233 588.77 -142.077 631.781 -171.45C674.167 -199.669 724.73 -225.515 785.416 -231.798C864.977 -240.747 952.766 -208.746 1022.83 -170.628C1094.28 -132.994 1155.68 -100.553 1210.02 -66.7146C1257.35 -36.9778 1297.65 3.08589 1319.8 59.67C1330.22 86.613 1336.74 117.466 1332.57 155.967C1329.41 185.544 1317.23 218.088 1310.33 246.746C1303.07 276.828 1313.07 292.595 1329.8 301.972C1345.37 310.94 1368.03 313.421 1374 334.426C1392.05 392.847 1313.95 500.294 1260.53 562.848C1218.87 614.521 1193.95 658.673 1174.05 704.107C1141.61 773.755 1118.78 872.329 1016.14 862.378C989.481 859.374 960.898 848.76 933.751 834.408Z" stroke="url(#paint25_linear)" stroke-width="0.5" stroke-miterlimit="10"/>
<path d="M926.46 837.24C845.388 794.07 777.59 703.826 728.041 678.714C693.819 661.779 675.162 682.445 660.593 707.698C646.745 729.462 634.473 766.521 597.789 745.816C548.279 717.872 507.379 613.2 500.924 543.718C490.138 463.215 507.794 391.564 490.437 342.494C474.402 298.023 428.074 291.019 386.064 280.82C338.709 269.664 324.211 238.805 350.095 194.046C380.017 140.53 456.733 94.0945 490.131 56.359C525.909 15.2556 516.545 -24.8272 531.739 -69.0816C544.247 -104.017 578.819 -137.638 623.412 -166.163C667.348 -193.584 719.328 -217.95 780.562 -223.079C860.875 -230.44 948.154 -197.743 1017.6 -158.987C1088.39 -120.671 1149 -87.2221 1202.37 -52.4909C1248.87 -21.9441 1288.23 18.5852 1309.37 75.2778C1319.33 102.253 1325.37 133.067 1320.77 171.154C1317.27 200.406 1304.88 232.337 1297.7 260.594C1290.16 290.248 1299.74 306.27 1316.03 316.119C1331.19 325.521 1353.39 328.627 1358.98 349.651C1375.95 408.072 1298.03 512.304 1245.09 572.881C1203.78 622.965 1179.18 666.078 1159.79 710.728C1128.04 779.1 1107.49 876.557 1007.39 865.81C981.354 862.646 953.25 851.77 926.46 837.24Z" stroke="url(#paint26_linear)" stroke-width="0.5" stroke-miterlimit="10"/>
<path d="M919.457 840.123C839.342 796.532 771.32 705.351 722.447 680.946C688.653 664.56 670.653 686.457 656.582 713.132C643.187 736.14 631.329 774.839 594.205 754.689C544.082 727.42 502.009 621.383 494.833 550.913C483.198 469.242 500.114 396.233 481.929 347.482C465.14 303.311 418.137 297.819 375.221 288.793C326.859 278.957 311.365 248.379 336.809 202.778C366.202 148.28 443.294 99.6756 476.756 61.2193C512.617 19.3187 503.132 -20.5345 519.244 -64.8016C532.467 -99.705 568.57 -133.218 614.744 -160.99C660.224 -187.716 713.632 -210.768 775.473 -214.736C856.577 -220.63 943.402 -187.231 1012.25 -147.825C1082.44 -108.839 1142.26 -74.3567 1194.71 -38.7389C1240.4 -7.42019 1278.8 33.6513 1298.95 90.4331C1308.43 117.465 1313.98 148.21 1308.97 185.869C1305.15 214.77 1292.54 246.133 1285.09 273.963C1277.26 303.19 1286.45 319.487 1302.31 329.775C1317.07 339.63 1338.83 343.355 1344.04 364.353C1359.97 422.755 1282.26 523.779 1229.84 582.449C1188.9 630.996 1164.64 673.177 1145.81 717.004C1114.77 784.132 1096.58 880.639 998.992 869.235C973.548 865.835 945.916 854.845 919.457 840.123Z" stroke="url(#paint27_linear)" stroke-width="0.5" stroke-miterlimit="10"/>
<path d="M912.753 843.07C833.556 799.148 765.254 706.984 717.019 683.396C683.62 667.558 666.27 690.834 652.684 718.893C639.729 743.163 628.254 783.559 590.671 763.925C539.923 737.346 496.657 629.893 488.766 558.441C476.277 475.653 492.453 401.216 473.426 352.79C455.872 308.899 408.173 305.014 364.352 297.086C314.975 288.558 298.473 258.311 323.458 211.868C352.302 156.369 429.745 105.608 463.252 66.3545C499.17 23.631 489.513 -16.0882 506.505 -60.4C520.424 -95.3162 558.025 -128.867 605.795 -155.976C652.837 -182.096 707.7 -203.879 770.153 -206.813C852.092 -211.297 938.497 -177.223 1006.8 -137.21C1076.42 -97.5678 1135.47 -62.0648 1187.01 -25.5412C1231.91 6.57481 1269.35 48.1821 1288.54 105.06C1297.56 132.105 1302.62 162.798 1297.19 200.043C1293.06 228.631 1280.23 259.35 1272.53 286.784C1264.43 315.571 1273.22 332.142 1288.66 342.865C1303.02 353.147 1324.33 357.491 1329.19 378.47C1344.1 436.833 1266.66 534.725 1214.78 591.494C1174.23 638.523 1150.34 679.767 1132.09 722.886C1101.81 788.827 1086.03 884.563 990.91 872.603C966.059 869.037 938.886 857.907 912.753 843.07Z" stroke="url(#paint28_linear)" stroke-width="0.5" stroke-miterlimit="10"/>
<path d="M906.336 846.094C828.006 801.871 759.379 708.776 711.756 686.069C678.734 670.837 662.022 695.515 648.895 724.991C636.368 750.588 625.256 792.61 587.176 773.506C535.758 747.558 491.318 638.714 482.707 566.28C469.363 482.306 484.793 406.497 464.917 358.403C446.591 314.869 398.19 312.432 353.457 305.709C303.06 298.521 285.544 268.586 310.044 221.334C338.314 164.871 416.101 111.885 449.615 71.8082C485.564 28.2299 475.684 -11.3554 493.525 -55.8458C508.106 -90.8704 547.201 -124.492 596.559 -151.065C645.151 -176.7 701.493 -197.322 764.609 -199.248C847.436 -202.406 933.47 -167.668 1001.25 -127.075C1070.34 -86.7881 1128.65 -50.2582 1179.3 -12.8352C1223.42 20.1036 1259.93 62.2403 1278.14 119.201C1286.69 146.322 1291.29 176.907 1285.45 213.724C1281 242.007 1267.96 272.082 1260.01 299.101C1251.65 327.448 1260.06 344.274 1275.06 355.437C1289.04 366.127 1309.9 371.09 1314.42 392.056C1328.34 450.388 1251.2 545.109 1199.91 600.086C1159.78 645.699 1136.28 685.986 1118.64 728.441C1089.16 793.248 1075.86 888.377 983.166 875.984C958.889 872.291 932.156 861.09 906.336 846.094Z" stroke="url(#paint29_linear)" stroke-width="0.5" stroke-miterlimit="10"/>
<path d="M900.2 849.219C822.7 804.761 753.689 710.792 706.641 688.977C673.976 674.39 657.876 700.516 645.189 731.433C633.07 758.299 622.284 802.107 583.699 783.456C531.592 758.121 485.966 647.88 476.634 574.45C462.436 489.354 477.132 412.116 456.382 364.348C437.266 321.101 388.157 320.227 342.505 314.665C291.081 308.778 272.531 279.219 296.541 231.183C324.211 173.788 402.311 118.531 435.818 77.5998C471.761 33.1031 461.625 -6.41202 480.277 -51.1001C495.483 -86.2842 536.057 -120.142 587.01 -146.23C637.158 -171.476 695.006 -191.007 758.805 -192.034C842.55 -193.941 928.272 -158.604 995.56 -117.424C1064.14 -76.5122 1121.75 -39.0064 1171.53 -0.633039C1214.89 33.084 1250.47 75.8266 1267.71 132.851C1275.8 159.985 1279.93 190.507 1273.7 226.903C1268.95 254.828 1255.71 284.309 1247.52 310.908C1238.89 338.808 1246.93 355.877 1261.52 367.486C1275.11 378.604 1295.53 384.166 1299.72 405.087C1312.67 463.304 1235.89 554.99 1185.2 608.206C1145.52 652.365 1122.44 691.886 1105.43 733.665C1076.8 797.489 1066.03 891.968 975.722 879.364C952.032 875.601 925.74 864.247 900.2 849.219Z" stroke="url(#paint30_linear)" stroke-width="0.5" stroke-miterlimit="10"/>
<path d="M894.351 852.453C817.623 807.829 748.204 712.98 701.685 692.135C669.352 678.236 653.845 705.823 641.586 738.213C629.855 766.426 619.382 811.905 580.262 793.758C527.428 768.996 480.634 657.34 470.575 582.947C455.528 496.652 469.478 418.074 447.848 370.618C427.934 327.671 378.111 328.354 331.534 323.946C279.083 319.404 259.494 290.242 282.974 241.408C310.032 183.063 388.419 125.599 421.881 83.7234C457.792 38.2699 447.357 -1.17505 466.773 -46.1757C482.586 -81.5575 524.608 -115.74 577.155 -141.471C628.867 -166.411 688.232 -185.024 752.752 -185.158C837.46 -185.923 922.914 -149.993 989.756 -108.252C1057.88 -66.7146 1114.81 -28.2456 1163.73 11.059C1206.35 45.5988 1241 88.8645 1257.29 146.01C1264.94 173.189 1268.6 203.615 1261.98 239.583C1256.92 267.177 1243.51 296.021 1235.06 322.217C1226.19 349.715 1233.85 366.988 1248.05 379.025C1261.25 390.512 1281.25 396.712 1285.1 417.589C1297.11 475.724 1220.74 564.385 1170.68 615.886C1131.47 658.679 1108.83 697.372 1092.49 738.59C1064.75 801.463 1056.56 895.56 968.592 882.796C945.495 878.956 919.61 867.577 894.351 852.453Z" stroke="url(#paint31_linear)" stroke-width="0.5" stroke-miterlimit="10"/>
<path d="M888.782 855.82C812.787 811.113 742.884 715.358 696.881 695.547C664.854 682.349 649.941 711.455 638.077 745.35C626.723 774.915 616.523 822.097 576.848 804.416C523.262 780.241 475.295 667.086 464.515 591.755C448.626 504.299 461.823 424.331 439.313 377.206C418.589 334.604 368.038 336.779 320.537 333.545C267.046 330.311 246.411 301.595 269.355 252.008C295.769 192.764 374.43 133.016 407.822 90.1969C443.663 43.7547 432.89 4.33527 453.033 -41.0353C469.42 -76.6851 512.871 -111.257 567.019 -136.758C620.293 -161.494 681.196 -179.239 746.468 -178.602C832.178 -178.283 917.415 -141.848 983.842 -99.5394C1051.54 -57.4218 1107.82 -17.9386 1155.91 22.2653C1197.79 57.6025 1231.54 101.455 1246.89 158.683C1254.09 185.901 1257.29 216.301 1250.29 251.766C1244.94 279.034 1231.35 307.272 1222.68 333.035C1213.57 360.099 1220.86 377.614 1234.66 390.059C1247.49 401.949 1267.06 408.748 1270.6 429.574C1281.7 487.593 1205.78 573.295 1156.38 623.144C1117.67 664.675 1095.5 702.518 1079.84 743.233C1053.02 805.226 1047.48 899.073 961.81 886.284C939.268 882.438 913.779 871.008 888.782 855.82Z" stroke="url(#paint32_linear)" stroke-width="0.5" stroke-miterlimit="10"/>
<path d="M883.488 859.329C808.176 814.584 737.756 717.943 692.225 699.228C660.485 686.777 646.134 717.464 634.652 752.84C623.649 783.788 613.705 832.622 573.456 815.426C519.091 791.755 469.956 677.228 458.456 600.864C441.724 512.266 454.182 430.927 430.766 384.102C409.232 341.819 357.941 345.55 309.515 343.445C254.991 341.519 233.297 313.307 255.679 262.967C281.417 202.894 360.346 140.748 393.636 97.0037C429.388 49.5282 418.219 10.1279 439.058 -35.6956C455.981 -71.6961 500.854 -106.746 556.603 -132.095C611.44 -156.729 673.906 -173.766 739.957 -172.369C826.712 -171.087 911.784 -134.11 977.828 -91.2974C1045.14 -48.6249 1100.8 -8.20405 1148.07 32.9503C1189.25 69.0848 1222.08 113.556 1236.51 170.829C1243.27 198.053 1246.02 228.357 1238.64 263.426C1233.01 290.35 1219.25 317.944 1210.35 343.324C1201.02 369.961 1207.95 387.693 1221.35 400.565C1233.81 412.812 1252.97 420.237 1256.2 441.005C1266.44 498.942 1190.99 581.69 1142.29 629.951C1104.09 670.135 1082.42 707.386 1067.47 747.571C1041.63 808.767 1038.76 902.499 955.356 889.806C933.343 885.966 908.237 874.587 883.488 859.329Z" stroke="url(#paint33_linear)" stroke-width="0.5" stroke-miterlimit="10"/>
<path d="M878.474 863.009C803.793 818.219 732.8 720.761 687.709 703.195C656.231 691.522 642.427 723.753 631.309 760.691C620.644 792.979 610.93 843.625 570.068 826.786C514.893 803.619 464.592 687.631 452.383 610.298C434.81 520.558 446.527 437.822 422.199 391.329C399.83 349.37 347.812 354.588 298.454 353.67C242.89 353.089 220.131 325.362 241.933 274.314C266.989 213.361 346.141 148.95 379.31 104.192C414.934 55.6639 403.338 16.2508 424.827 -30.0957C442.267 -66.4789 488.537 -102.084 545.881 -127.42C602.274 -152.066 666.322 -168.44 733.189 -166.386C821.041 -164.224 905.979 -126.775 971.679 -83.4713C1038.65 -40.2694 1093.71 1.10822 1140.19 43.1747C1180.67 80.1129 1212.62 125.158 1226.13 182.52C1232.46 209.782 1234.75 240.004 1227.01 274.614C1221.1 301.225 1207.17 328.175 1198.07 353.153C1188.51 379.343 1195.1 397.312 1208.11 410.598C1220.21 423.221 1238.95 431.22 1241.89 451.95C1251.29 509.772 1176.36 589.599 1128.38 636.38C1090.72 675.34 1069.57 711.895 1055.36 751.678C1030.51 812.179 1030.39 905.892 949.194 893.448C927.73 889.672 902.994 878.26 878.474 863.009Z" stroke="url(#paint34_linear)" stroke-width="0.5" stroke-miterlimit="10"/>
<path d="M873.729 866.856C799.641 822.117 728.022 723.817 683.333 707.443C652.085 696.593 638.817 730.463 628.037 768.9C617.691 802.617 608.168 854.896 566.688 838.471C510.683 815.757 459.221 698.29 446.298 620.012C427.895 529.131 438.867 445.017 413.62 398.855C390.421 357.222 337.657 363.99 287.368 364.175C230.771 364.915 206.928 337.73 228.136 286.012C252.471 224.274 331.846 157.555 364.856 111.731C400.327 62.1444 388.252 22.6612 410.354 -24.2658C428.272 -61.0828 475.914 -97.3895 534.865 -122.763C592.814 -147.531 658.469 -163.331 726.172 -160.709C815.147 -157.756 900.015 -119.88 965.408 -76.1043C1032.06 -32.3921 1086.56 9.91046 1132.27 52.8827C1172.08 90.6438 1203.16 136.218 1215.76 193.689C1221.66 220.983 1223.51 251.115 1215.42 285.292C1209.24 311.539 1195.15 337.857 1185.85 362.478C1176.07 388.248 1182.33 406.458 1194.96 420.115C1206.7 433.146 1225.04 441.655 1227.69 462.367C1236.28 520.035 1161.91 597.069 1114.69 642.401C1077.59 680.194 1056.97 716.124 1043.53 755.537C1019.73 815.419 1022.38 909.311 943.357 897.186C922.41 893.467 898.031 882.081 873.729 866.856Z" stroke="url(#paint35_linear)" stroke-width="0.5" stroke-miterlimit="10"/>
<path d="M869.244 870.894C795.68 826.269 723.41 727.166 679.085 711.991C648.047 701.977 635.296 737.493 624.829 777.474C614.776 812.613 605.425 866.556 563.307 850.508C506.435 828.234 453.824 709.268 440.2 630.027C420.968 538.023 431.206 452.518 405.028 406.701C380.987 365.426 327.477 373.622 276.256 374.987C218.619 376.996 193.698 350.455 214.282 298.087C237.883 235.603 317.437 166.491 350.268 119.66C385.554 68.9697 372.956 29.4036 395.639 -18.1485C414.009 -55.4567 463.003 -92.4841 523.549 -118.056C583.061 -143.028 650.33 -158.419 718.907 -155.249C809.049 -151.607 893.891 -113.355 959.017 -69.1259C1025.4 -24.9608 1079.36 18.2922 1124.32 62.1383C1163.48 100.665 1193.69 146.865 1205.4 204.393C1210.88 231.699 1212.31 261.787 1203.87 295.491C1197.42 321.401 1183.19 347.145 1173.69 371.332C1163.71 396.732 1169.63 415.07 1181.9 429.16C1193.3 442.536 1211.23 451.613 1213.62 472.285C1221.42 529.839 1147.66 604.105 1101.22 648.053C1064.7 684.666 1044.66 720.105 1031.99 759.174C1009.27 818.475 1014.75 912.699 937.84 901.039C917.396 897.429 893.355 886.1 869.244 870.894Z" stroke="url(#paint36_linear)" stroke-width="0.5" stroke-miterlimit="10"/>
<path d="M865.028 875.136C791.954 830.677 718.964 730.687 674.971 716.846C644.117 707.718 631.858 744.892 621.69 786.416C611.918 822.985 602.707 878.606 559.92 862.876C502.161 840.959 448.415 720.488 434.082 640.341C414.028 547.227 423.538 460.339 396.423 414.86C371.534 373.89 317.271 383.643 265.126 386.079C206.455 389.428 180.443 363.506 200.389 310.526C223.225 247.321 302.957 175.868 335.571 127.978C370.641 76.1905 357.475 36.5159 380.693 -11.7442C399.478 -49.6073 449.806 -87.4895 511.952 -113.304C573.021 -138.582 641.929 -153.578 711.412 -150.031C802.76 -145.821 887.621 -107.174 952.517 -62.5621C1018.66 -17.9761 1072.12 26.1954 1116.36 70.9154C1154.88 110.22 1184.25 157.013 1195.08 214.605C1200.14 241.963 1201.14 271.923 1192.38 305.206C1185.67 330.809 1171.3 355.922 1161.61 379.714C1151.43 404.698 1157.03 423.286 1168.94 437.72C1180 451.479 1197.54 461.11 1199.66 481.707C1206.72 539.133 1133.6 610.738 1087.96 653.328C1052.04 688.914 1032.59 723.754 1020.73 762.593C999.132 821.473 1007.48 916.092 932.641 905.013C912.682 901.536 888.954 890.348 865.028 875.136Z" stroke="url(#paint37_linear)" stroke-width="0.5" stroke-miterlimit="10"/>
<path d="M861.073 879.6C788.434 835.372 714.69 734.52 670.978 722.018C640.277 713.777 628.503 752.648 618.603 795.723C609.092 833.681 599.99 891.012 556.52 875.563C497.843 853.997 442.961 732.001 427.94 650.923C407.075 556.661 415.846 468.522 387.793 423.317C362.049 382.68 307.033 393.81 253.963 397.452C194.253 402.07 167.15 376.862 186.433 323.314C208.484 259.414 288.357 185.665 320.728 136.684C355.555 83.7233 341.784 43.9977 365.487 -5.04696C384.661 -43.4905 436.289 -82.3103 500.037 -108.488C562.662 -134.142 633.229 -148.953 703.636 -145.018C796.228 -140.317 881.166 -101.331 945.864 -56.3815C1011.81 -11.3681 1064.8 33.6198 1108.33 79.2328C1146.24 119.284 1174.76 166.702 1184.74 224.345C1189.4 251.753 1189.98 281.58 1180.89 314.448C1173.94 339.707 1159.42 364.22 1149.56 387.648C1139.2 412.187 1144.49 431.035 1156.04 445.834C1166.77 459.937 1183.92 470.091 1185.8 490.662C1192.14 547.954 1119.7 616.906 1074.88 658.284C1039.6 692.83 1020.76 727.223 1009.72 765.858C989.277 824.362 1000.54 919.575 927.717 909.178C908.256 905.855 884.833 894.73 861.073 879.6Z" stroke="url(#paint38_linear)" stroke-width="0.5" stroke-miterlimit="10"/>
<path d="M857.373 884.295C785.123 840.315 710.563 738.673 667.112 727.498C636.546 720.207 625.217 760.775 615.573 805.399C606.305 844.793 597.285 903.731 553.107 888.569C493.486 867.258 437.488 743.801 421.772 661.773C400.11 566.407 408.147 476.967 379.15 432.069C352.544 391.724 296.776 404.354 242.781 409.074C182.044 414.968 153.838 390.544 172.438 336.448C193.679 271.967 273.673 195.858 305.777 145.78C340.323 91.7094 325.901 51.8052 350.05 1.96317C369.569 -37.1118 422.492 -76.9522 487.835 -103.595C552.01 -129.767 624.241 -144.425 695.618 -140.208C789.492 -135.093 874.551 -95.8902 939.09 -50.5897C1004.89 -5.22545 1057.43 40.6555 1100.27 87.0786C1137.59 127.889 1165.29 175.887 1174.42 233.594C1178.68 260.996 1178.86 290.778 1169.45 323.193C1162.26 348.095 1147.61 372.078 1137.59 395.092C1127.06 419.222 1132.04 438.25 1143.25 453.456C1153.67 467.897 1170.43 478.6 1172.07 499.12C1177.73 556.278 1106.01 622.685 1062.04 662.864C1027.4 696.447 1009.18 730.406 999.004 768.914C979.747 827.131 993.965 923.058 923.105 913.477C904.116 910.313 880.981 899.342 857.373 884.295Z" stroke="url(#paint39_linear)" stroke-width="0.5" stroke-miterlimit="10"/>
<path d="M853.923 889.245C782.004 845.52 706.602 743.061 663.362 733.327C632.91 726.974 622.022 769.283 612.588 815.445C603.537 856.248 594.568 916.838 549.663 901.881C489.079 880.806 431.977 755.799 415.572 672.891C393.119 576.466 400.429 485.668 370.481 441.126C343.015 401.152 286.488 415.165 231.568 420.97C169.797 428.133 140.488 404.488 158.392 349.932C178.797 284.871 258.887 206.485 290.698 155.284C324.938 100.046 309.814 60.0141 334.378 9.29187C354.222 -30.472 408.402 -71.384 475.339 -98.6013C541.071 -125.34 614.986 -140.03 687.352 -135.571C782.546 -130.162 867.771 -90.7557 932.195 -45.1554C997.862 0.585136 1050 47.1486 1092.19 94.4838C1128.94 136.027 1155.83 184.606 1164.13 242.383C1168.01 269.811 1167.78 299.478 1158.07 331.492C1150.64 356.055 1135.89 379.458 1125.7 402.109C1115.01 425.888 1119.7 445.081 1130.56 460.644C1140.66 475.455 1157.05 486.663 1158.47 507.119C1163.48 564.162 1092.51 628.037 1049.43 667.156C1015.45 699.821 997.888 733.436 988.575 771.828C970.53 829.822 987.752 926.642 918.799 917.974C900.263 915.02 877.396 904.241 853.923 889.245Z" stroke="url(#paint40_linear)" stroke-width="0.5" stroke-miterlimit="10"/>
<path d="M850.714 894.443C779.076 851.056 702.769 747.775 659.713 739.47C629.345 734.086 618.865 778.137 609.635 825.848C600.769 868.068 591.838 930.278 546.18 915.48C484.601 894.603 426.409 768.027 409.334 684.238C386.103 586.742 392.692 494.693 361.787 450.445C333.454 410.796 276.167 426.149 220.335 433.083C157.544 441.502 127.118 418.725 144.309 363.729C163.859 298.189 244.019 217.475 275.498 165.177C309.394 108.778 293.53 68.5932 318.464 16.9525C338.595 -23.5322 394.019 -65.6115 462.538 -93.4985C529.813 -120.907 605.438 -135.712 678.817 -131.113C775.37 -125.493 860.812 -85.9399 925.153 -40.0909C990.738 5.92397 1042.49 53.2592 1084.05 101.424C1120.26 143.675 1146.36 192.86 1153.85 250.682C1157.33 278.135 1156.72 307.744 1146.72 339.293C1139.07 363.582 1124.2 386.328 1113.86 408.653C1103.01 432.017 1107.42 451.485 1117.96 467.355C1127.75 482.497 1143.77 494.183 1144.98 514.639C1149.37 571.548 1079.2 633.05 1037.01 671.105C1003.72 702.902 986.828 736.21 978.408 774.59C961.613 832.482 981.865 930.303 914.768 922.649C896.685 919.97 874.079 909.305 850.714 894.443Z" stroke="url(#paint41_linear)" stroke-width="0.5" stroke-miterlimit="10"/>
<path d="M847.755 899.922C776.353 856.893 699.095 752.852 656.18 745.97C625.868 741.549 615.771 787.373 606.726 836.628C598.039 880.289 589.096 944.017 542.679 929.378C480.085 908.584 420.822 780.497 403.07 695.841C379.061 597.318 384.948 504.012 353.081 460.057C323.873 420.689 265.84 437.433 209.096 445.451C145.291 455.108 113.749 433.293 130.199 377.87C148.869 311.928 229.08 228.937 260.202 175.498C293.734 117.925 277.073 77.5805 302.339 24.983C322.731 -16.2607 379.361 -59.5838 449.468 -88.2363C518.28 -116.449 595.627 -131.387 670.053 -126.763C768.003 -121.054 853.712 -81.4048 918.003 -35.3326C983.543 10.8928 1034.95 59.0253 1075.9 107.962C1111.57 150.921 1136.9 200.667 1143.6 258.546C1146.71 286.012 1145.72 315.507 1135.44 346.672C1127.57 370.605 1112.59 392.866 1102.13 414.795C1091.12 437.835 1095.27 457.398 1105.48 473.669C1114.98 489.112 1130.65 501.339 1131.65 521.732C1135.46 578.564 1066.11 637.643 1024.84 674.791C992.256 705.817 976.061 738.845 968.547 777.244C953.04 835.129 976.354 934.105 911.056 927.548C893.394 925.124 871.018 914.682 847.755 899.922Z" stroke="url(#paint42_linear)" stroke-width="0.5" stroke-miterlimit="10"/>
<path d="M845.025 905.688C773.801 863.092 695.561 758.178 652.741 752.807C622.456 749.401 612.741 797.011 603.843 847.758C595.308 892.778 586.327 958.114 539.126 943.545C475.493 922.821 415.17 793.164 396.761 707.653C371.993 608.072 377.173 513.567 344.348 469.918C314.273 430.926 255.475 448.914 197.832 458.01C133.019 468.885 100.36 447.976 116.051 392.311C133.822 325.993 214.046 240.731 244.785 186.213C277.902 127.473 260.431 87.027 285.971 33.3642C306.574 -8.66403 364.409 -53.333 436.092 -82.8338C506.442 -111.926 585.517 -127.19 661.015 -122.553C760.4 -116.87 846.415 -77.1314 910.705 -30.9188C976.246 15.5425 1027.33 64.3321 1067.7 114.053C1102.86 157.676 1127.44 208.003 1133.36 265.945C1136.11 293.456 1134.75 322.842 1124.19 353.587C1116.11 377.187 1101.06 398.9 1090.45 420.497C1079.31 443.173 1083.18 462.928 1093.1 479.544C1102.31 495.292 1117.61 508.011 1118.43 528.384C1121.68 585.064 1053.2 641.948 1012.88 678.197C981.01 708.451 965.529 741.326 958.947 779.788C944.754 837.718 971.168 938.002 907.612 932.67C890.37 930.545 868.205 920.333 845.025 905.688Z" stroke="url(#paint43_linear)" stroke-width="0.5" stroke-miterlimit="10"/>
<path d="M842.531 911.748C771.428 869.567 692.155 763.868 649.399 760.003C619.107 757.623 609.749 806.949 600.979 859.266C592.578 905.689 583.527 972.536 535.522 957.986C470.823 937.256 409.455 806.024 390.408 719.69C364.894 619.088 369.391 523.429 335.597 480.054C304.654 441.381 245.097 460.657 186.56 470.786C120.746 482.855 86.9712 463.03 101.878 407.071C118.718 340.46 198.941 253.01 229.259 197.357C261.949 137.463 243.592 96.8632 269.374 42.1288C290.168 -0.715875 349.158 -46.7945 422.416 -77.2521C494.297 -107.301 575.12 -122.929 651.721 -118.438C752.567 -112.883 838.959 -73.1443 903.268 -26.7978C968.84 19.8167 1019.65 69.2377 1059.45 119.743C1094.13 164.068 1117.97 214.892 1123.14 272.898C1125.52 300.428 1123.81 329.725 1112.98 360.074C1104.7 383.375 1089.56 404.532 1078.84 425.799C1067.58 448.079 1071.2 468.101 1080.8 485.017C1089.73 501.091 1104.71 514.275 1105.34 534.623C1108.08 591.233 1040.5 645.941 1001.13 681.361C970.001 710.939 955.26 743.642 949.621 782.264C936.775 840.43 966.314 942.034 904.441 938.066C887.608 936.267 865.647 926.202 842.531 911.748Z" stroke="url(#paint44_linear)" stroke-width="0.5" stroke-miterlimit="10"/>
<path d="M840.26 918.12C769.24 876.456 688.876 769.851 646.152 767.555C615.841 766.183 606.809 817.339 598.134 871.11C589.842 918.905 580.688 987.187 531.873 972.67C466.097 951.78 403.701 819.074 384.017 731.905C357.775 630.358 361.57 533.449 326.82 490.426C295.003 452.046 234.7 472.579 175.27 483.728C108.473 496.983 73.5632 478.23 87.6791 422.112C103.568 355.303 183.754 265.639 213.631 208.902C245.85 147.872 226.58 107.069 252.56 51.2627C273.507 7.56968 333.632 -40.0143 408.466 -71.4925C481.871 -102.601 564.455 -118.783 642.185 -114.42C744.536 -109.068 831.336 -69.4258 895.715 -22.9836C961.358 23.7521 1011.91 73.8109 1051.18 125.024C1085.41 169.974 1108.52 221.334 1112.96 279.411C1115 306.96 1112.93 336.199 1101.86 366.121C1093.39 389.134 1078.17 409.75 1067.33 430.691C1055.96 452.633 1059.33 472.834 1068.65 490.081C1077.3 506.506 1091.94 520.118 1092.42 540.44C1094.67 596.954 1028.02 649.526 989.634 684.27C959.259 713.184 945.258 745.836 940.589 784.656C929.114 843.019 961.811 946.263 901.565 943.692C885.101 942.219 863.331 932.453 840.26 918.12Z" stroke="url(#paint45_linear)" stroke-width="0.5" stroke-miterlimit="10"/>
<path d="M838.213 924.811C767.206 883.612 685.732 776.216 642.982 775.464C612.62 775.151 603.888 828.061 595.29 883.319C587.08 932.497 577.806 1002.2 528.148 987.595C461.256 966.533 397.871 832.252 377.556 744.311C350.593 641.82 353.712 543.801 318.005 501.039C285.321 462.985 224.271 484.678 163.961 496.855C96.1886 511.226 60.1558 493.704 73.4489 437.445C88.3557 370.534 168.49 278.696 197.883 220.887C229.61 158.696 209.371 117.752 235.504 60.8176C256.572 16.2251 317.801 -32.9152 394.197 -65.516C469.121 -97.7787 553.471 -114.561 632.362 -110.459C736.25 -105.458 823.51 -65.9115 887.991 -19.4373C953.742 27.3557 1004.08 77.9822 1042.84 129.91C1076.64 175.459 1099.05 227.406 1102.77 285.496C1104.48 313.083 1102.05 342.163 1090.75 371.746C1082.1 394.454 1066.81 414.578 1055.87 435.187C1044.39 456.823 1047.53 477.177 1056.57 494.757C1064.96 511.468 1079.27 525.559 1079.6 545.855C1081.4 602.241 1015.71 652.881 978.332 686.949C948.735 715.346 935.493 747.921 931.806 787.003C921.728 845.717 957.608 950.651 898.931 949.598C882.869 948.463 861.259 938.965 838.213 924.811Z" stroke="url(#paint46_linear)" stroke-width="0.5" stroke-miterlimit="10"/>
<path d="M836.382 931.841C765.343 891.146 682.709 782.972 639.902 783.75C609.457 784.477 601.005 839.167 592.464 895.885C584.325 946.39 574.878 1017.54 524.372 1002.76C456.357 981.472 391.984 845.584 371.062 756.896C343.398 653.481 345.854 554.358 309.183 511.896C275.626 474.174 213.836 496.964 152.665 510.142C83.9228 525.655 46.7674 509.377 59.2184 453.048C73.1302 386.099 153.169 292.193 182.064 233.281C213.256 169.955 192.008 128.909 218.25 70.7749C239.401 25.2449 301.727 -25.4646 379.667 -59.3155C456.096 -92.822 542.245 -110.306 622.303 -106.549C727.773 -101.975 815.53 -62.6069 880.158 -16.1519C946.062 30.6475 996.205 81.8353 1034.5 134.42C1067.87 180.582 1089.61 233.02 1092.63 291.16C1094.01 318.754 1091.26 347.789 1079.73 376.964C1070.9 399.36 1055.56 419.012 1044.53 439.315C1032.95 460.6 1035.87 481.184 1044.64 499.063C1052.79 516.068 1066.78 530.579 1066.96 550.888C1068.35 607.236 1003.65 655.943 967.29 689.43C938.478 717.311 926.021 749.931 923.335 789.318C914.686 848.448 953.787 955.256 896.596 955.792C880.879 955.065 859.409 945.803 836.382 931.841Z" stroke="url(#paint47_linear)" stroke-width="0.5" stroke-miterlimit="10"/>
<path d="M834.755 939.201C763.634 899.087 679.793 790.013 636.891 792.386C606.344 794.153 598.147 850.616 589.632 908.769C581.537 960.659 571.899 1033.02 520.519 1018.1C451.35 996.493 386.033 859.049 364.505 769.609C336.165 665.262 337.951 565.125 300.33 522.937C265.904 485.514 203.381 509.37 141.356 523.543C71.6693 540.191 33.3785 525.151 44.9748 468.898C57.866 402.019 137.784 306.047 166.137 246.083C196.76 181.685 174.473 140.46 200.779 81.1399C221.981 34.6913 285.353 -17.7212 364.849 -52.8798C442.777 -87.7131 530.725 -105.962 611.995 -102.671C719.066 -98.614 807.385 -59.5135 872.191 -13.1223C938.287 33.6516 988.276 85.3114 1026.11 138.547C1059.1 185.231 1080.17 238.237 1082.52 296.397C1083.58 324.022 1080.52 352.943 1068.77 381.761C1059.78 403.914 1044.37 423.024 1033.26 443.046C1021.6 464.025 1024.31 484.781 1032.82 502.972C1040.72 520.265 1054.42 535.235 1054.47 555.519C1055.47 611.784 991.784 658.686 956.472 691.688C928.457 719.116 916.81 751.825 915.139 791.583C907.937 851.235 950.272 960.034 894.523 962.247C879.131 961.915 857.795 952.979 834.755 939.201Z" stroke="url(#paint48_linear)" stroke-width="0.5" stroke-miterlimit="10"/>
<path d="M833.339 946.92C762.071 907.373 676.987 797.432 633.95 801.4C603.269 804.225 595.309 862.449 586.787 921.992C578.711 975.126 568.844 1048.86 516.577 1033.65C446.247 1011.65 379.999 872.584 357.877 782.468C328.868 677.235 330.009 576.186 291.431 534.196C256.139 497.079 192.895 521.987 130.027 537.072C59.4031 554.76 19.9896 541.212 30.7057 485.004C42.5444 418.272 122.322 320.317 150.107 259.319C180.131 193.83 156.76 152.497 183.072 91.9454C204.287 44.5082 268.692 -9.62658 349.719 -46.1757C429.146 -82.4122 518.899 -101.618 601.394 -98.7987C710.111 -95.4117 799.029 -56.5918 864.052 -10.3154C930.377 36.3819 980.239 88.45 1017.65 142.317C1050.28 189.544 1070.71 243.021 1072.4 301.238C1073.16 328.87 1069.78 357.733 1057.83 386.175C1048.68 408.034 1033.23 426.685 1022.06 446.433C1010.31 467.125 1012.83 488.047 1021.08 506.551C1028.75 524.15 1042.14 539.535 1042.09 559.812C1042.74 616.045 980.111 661.161 945.852 693.793C918.653 720.851 907.822 753.688 907.178 793.879C901.456 854.131 947.044 965.067 892.673 969.047C877.626 969.162 856.404 960.519 833.339 946.92Z" stroke="url(#paint49_linear)" stroke-width="0.5" stroke-miterlimit="10"/>
<path d="M832.114 954.995C760.648 916.06 674.275 805.227 631.067 810.782C600.226 814.635 592.47 874.644 583.922 935.547C575.841 989.969 565.711 1064.91 512.552 1049.37C441.035 1026.84 373.881 886.292 351.192 795.429C321.538 689.373 322.048 587.335 282.52 545.632C246.373 508.86 182.401 534.693 118.717 550.684C47.1749 569.488 6.63239 557.299 16.4491 501.321C27.2225 434.85 106.815 334.987 134.007 272.962C163.406 206.427 138.887 164.96 165.179 103.184C186.375 54.7647 251.775 -1.16248 334.334 -39.2169C415.24 -76.9205 506.818 -97.1787 590.569 -94.9271C700.957 -92.2864 790.526 -53.8429 855.804 -7.72598C922.397 38.8438 972.169 91.2946 1009.18 145.742C1041.47 193.46 1061.28 247.41 1062.34 305.684C1062.8 333.329 1059.12 362.077 1046.99 390.206C1037.7 411.804 1022.22 430.008 1010.97 449.469C999.164 469.862 1001.48 491.026 1009.5 509.779C1016.95 527.651 1030.05 543.483 1029.88 563.735C1030.23 619.962 968.674 663.431 935.492 695.72C909.123 722.446 899.128 755.468 899.523 796.169C895.301 857.135 944.167 970.342 891.104 976.146C876.356 976.733 855.218 968.409 832.114 954.995Z" stroke="url(#paint50_linear)" stroke-width="0.5" stroke-miterlimit="10"/>
<path d="M831.087 963.446C759.373 925.137 671.673 813.404 628.248 820.535C597.222 825.434 589.651 887.146 581.039 949.413C572.932 1005.1 562.516 1081.14 508.444 1065.25C435.728 1042.09 367.688 899.986 344.444 808.479C314.165 701.626 314.05 598.702 273.578 557.228C236.582 520.737 171.896 547.469 107.402 564.372C34.96 584.146 -6.70508 573.557 2.18671 517.847C11.8567 451.753 91.2449 350.021 117.812 287.014C146.547 219.452 120.848 177.947 147.071 114.863C168.209 65.4549 234.572 7.65246 318.655 -31.9647C401.035 -71.2566 494.437 -92.5928 579.477 -91.0364C691.568 -89.2696 781.845 -51.2789 847.404 -5.347C914.29 41.0187 964.018 93.8522 1000.66 148.823C1032.63 197.012 1051.84 251.453 1052.3 309.741C1052.48 337.385 1048.51 366.101 1036.2 393.861C1026.77 415.216 1011.26 432.981 999.961 452.174C988.097 472.349 990.24 493.583 998.029 512.681C1005.27 530.828 1018.09 547.035 1017.83 567.332C1017.9 623.501 957.454 665.491 925.357 697.512C899.836 723.995 890.683 757.234 892.137 798.503C889.439 860.248 941.603 975.872 889.771 983.596C875.31 984.623 854.255 976.637 831.087 963.446Z" stroke="url(#paint51_linear)" stroke-width="0.5" stroke-miterlimit="10"/>
<defs>
<linearGradient id="paint0_linear" x1="1642.23" y1="575.315" x2="684.318" y2="-501.183" gradientUnits="userSpaceOnUse">
<stop stop-color="#DEFB48"/>
<stop offset="1" stop-color="#03B3FF"/>
</linearGradient>
<linearGradient id="paint1_linear" x1="1626.69" y1="584.916" x2="681.719" y2="-485.298" gradientUnits="userSpaceOnUse">
<stop stop-color="#DEFB48"/>
<stop offset="1" stop-color="#03B3FF"/>
</linearGradient>
<linearGradient id="paint2_linear" x1="1611.12" y1="594.251" x2="678.808" y2="-469.695" gradientUnits="userSpaceOnUse">
<stop stop-color="#DEFB48"/>
<stop offset="1" stop-color="#03B3FF"/>
</linearGradient>
<linearGradient id="paint3_linear" x1="1595.55" y1="603.347" x2="675.601" y2="-454.355" gradientUnits="userSpaceOnUse">
<stop stop-color="#DEFB48"/>
<stop offset="1" stop-color="#03B3FF"/>
</linearGradient>
<linearGradient id="paint4_linear" x1="1579.93" y1="612.164" x2="672.069" y2="-439.334" gradientUnits="userSpaceOnUse">
<stop stop-color="#DEFB48"/>
<stop offset="1" stop-color="#03B3FF"/>
</linearGradient>
<linearGradient id="paint5_linear" x1="1564.3" y1="620.742" x2="668.223" y2="-424.582" gradientUnits="userSpaceOnUse">
<stop stop-color="#DEFB48"/>
<stop offset="1" stop-color="#03B3FF"/>
</linearGradient>
<linearGradient id="paint6_linear" x1="1548.66" y1="629.027" x2="664.037" y2="-410.194" gradientUnits="userSpaceOnUse">
<stop stop-color="#DEFB48"/>
<stop offset="1" stop-color="#03B3FF"/>
</linearGradient>
<linearGradient id="paint7_linear" x1="1533.01" y1="637.07" x2="659.538" y2="-396.108" gradientUnits="userSpaceOnUse">
<stop stop-color="#DEFB48"/>
<stop offset="1" stop-color="#03B3FF"/>
</linearGradient>
<linearGradient id="paint8_linear" x1="1517.37" y1="644.859" x2="654.716" y2="-382.362" gradientUnits="userSpaceOnUse">
<stop stop-color="#DEFB48"/>
<stop offset="1" stop-color="#03B3FF"/>
</linearGradient>
<linearGradient id="paint9_linear" x1="1501.71" y1="652.393" x2="649.52" y2="-368.953" gradientUnits="userSpaceOnUse">
<stop stop-color="#DEFB48"/>
<stop offset="1" stop-color="#03B3FF"/>
</linearGradient>
<linearGradient id="paint10_linear" x1="1486.07" y1="659.66" x2="644.02" y2="-355.911" gradientUnits="userSpaceOnUse">
<stop stop-color="#DEFB48"/>
<stop offset="1" stop-color="#03B3FF"/>
</linearGradient>
<linearGradient id="paint11_linear" x1="1470.43" y1="666.711" x2="638.153" y2="-343.187" gradientUnits="userSpaceOnUse">
<stop stop-color="#DEFB48"/>
<stop offset="1" stop-color="#03B3FF"/>
</linearGradient>
<linearGradient id="paint12_linear" x1="1454.82" y1="673.494" x2="631.944" y2="-330.855" gradientUnits="userSpaceOnUse">
<stop stop-color="#DEFB48"/>
<stop offset="1" stop-color="#03B3FF"/>
</linearGradient>
<linearGradient id="paint13_linear" x1="1439.24" y1="680.042" x2="625.421" y2="-318.905" gradientUnits="userSpaceOnUse">
<stop stop-color="#DEFB48"/>
<stop offset="1" stop-color="#03B3FF"/>
</linearGradient>
<linearGradient id="paint14_linear" x1="1423.65" y1="686.354" x2="618.495" y2="-307.308" gradientUnits="userSpaceOnUse">
<stop stop-color="#DEFB48"/>
<stop offset="1" stop-color="#03B3FF"/>
</linearGradient>
<linearGradient id="paint15_linear" x1="1408.1" y1="692.436" x2="611.265" y2="-296.092" gradientUnits="userSpaceOnUse">
<stop stop-color="#DEFB48"/>
<stop offset="1" stop-color="#03B3FF"/>
</linearGradient>
<linearGradient id="paint16_linear" x1="1392.61" y1="698.305" x2="603.731" y2="-285.261" gradientUnits="userSpaceOnUse">
<stop stop-color="#DEFB48"/>
<stop offset="1" stop-color="#03B3FF"/>
</linearGradient>
<linearGradient id="paint17_linear" x1="1377.11" y1="703.968" x2="595.76" y2="-274.781" gradientUnits="userSpaceOnUse">
<stop stop-color="#DEFB48"/>
<stop offset="1" stop-color="#03B3FF"/>
</linearGradient>
<linearGradient id="paint18_linear" x1="1361.68" y1="709.393" x2="587.536" y2="-264.72" gradientUnits="userSpaceOnUse">
<stop stop-color="#DEFB48"/>
<stop offset="1" stop-color="#03B3FF"/>
</linearGradient>
<linearGradient id="paint19_linear" x1="1346.27" y1="714.629" x2="578.941" y2="-255.015" gradientUnits="userSpaceOnUse">
<stop stop-color="#DEFB48"/>
<stop offset="1" stop-color="#03B3FF"/>
</linearGradient>
<linearGradient id="paint20_linear" x1="1330.95" y1="719.663" x2="570.068" y2="-245.707" gradientUnits="userSpaceOnUse">
<stop stop-color="#DEFB48"/>
<stop offset="1" stop-color="#03B3FF"/>
</linearGradient>
<linearGradient id="paint21_linear" x1="1315.65" y1="724.543" x2="560.838" y2="-236.748" gradientUnits="userSpaceOnUse">
<stop stop-color="#DEFB48"/>
<stop offset="1" stop-color="#03B3FF"/>
</linearGradient>
<linearGradient id="paint22_linear" x1="1300.4" y1="729.238" x2="551.267" y2="-228.15" gradientUnits="userSpaceOnUse">
<stop stop-color="#DEFB48"/>
<stop offset="1" stop-color="#03B3FF"/>
</linearGradient>
<linearGradient id="paint23_linear" x1="1285.24" y1="733.794" x2="541.428" y2="-219.9" gradientUnits="userSpaceOnUse">
<stop stop-color="#DEFB48"/>
<stop offset="1" stop-color="#03B3FF"/>
</linearGradient>
<linearGradient id="paint24_linear" x1="1270.12" y1="738.176" x2="531.272" y2="-212.036" gradientUnits="userSpaceOnUse">
<stop stop-color="#DEFB48"/>
<stop offset="1" stop-color="#03B3FF"/>
</linearGradient>
<linearGradient id="paint25_linear" x1="1255.07" y1="742.474" x2="520.813" y2="-204.451" gradientUnits="userSpaceOnUse">
<stop stop-color="#DEFB48"/>
<stop offset="1" stop-color="#03B3FF"/>
</linearGradient>
<linearGradient id="paint26_linear" x1="1240.09" y1="746.645" x2="510.076" y2="-197.203" gradientUnits="userSpaceOnUse">
<stop stop-color="#DEFB48"/>
<stop offset="1" stop-color="#03B3FF"/>
</linearGradient>
<linearGradient id="paint27_linear" x1="1225.19" y1="750.747" x2="499.063" y2="-190.249" gradientUnits="userSpaceOnUse">
<stop stop-color="#DEFB48"/>
<stop offset="1" stop-color="#03B3FF"/>
</linearGradient>
<linearGradient id="paint28_linear" x1="1210.38" y1="754.732" x2="487.804" y2="-183.623" gradientUnits="userSpaceOnUse">
<stop stop-color="#DEFB48"/>
<stop offset="1" stop-color="#03B3FF"/>
</linearGradient>
<linearGradient id="paint29_linear" x1="1195.64" y1="758.665" x2="476.289" y2="-177.255" gradientUnits="userSpaceOnUse">
<stop stop-color="#DEFB48"/>
<stop offset="1" stop-color="#03B3FF"/>
</linearGradient>
<linearGradient id="paint30_linear" x1="1180.97" y1="762.519" x2="464.55" y2="-171.178" gradientUnits="userSpaceOnUse">
<stop stop-color="#DEFB48"/>
<stop offset="1" stop-color="#03B3FF"/>
</linearGradient>
<linearGradient id="paint31_linear" x1="1166.38" y1="766.365" x2="452.549" y2="-165.315" gradientUnits="userSpaceOnUse">
<stop stop-color="#DEFB48"/>
<stop offset="1" stop-color="#03B3FF"/>
</linearGradient>
<linearGradient id="paint32_linear" x1="1151.9" y1="770.197" x2="440.349" y2="-159.7" gradientUnits="userSpaceOnUse">
<stop stop-color="#DEFB48"/>
<stop offset="1" stop-color="#03B3FF"/>
</linearGradient>
<linearGradient id="paint33_linear" x1="1137.52" y1="773.997" x2="427.951" y2="-154.33" gradientUnits="userSpaceOnUse">
<stop stop-color="#DEFB48"/>
<stop offset="1" stop-color="#03B3FF"/>
</linearGradient>
<linearGradient id="paint34_linear" x1="1123.21" y1="777.847" x2="415.347" y2="-149.112" gradientUnits="userSpaceOnUse">
<stop stop-color="#DEFB48"/>
<stop offset="1" stop-color="#03B3FF"/>
</linearGradient>
<linearGradient id="paint35_linear" x1="1109.02" y1="781.737" x2="402.545" y2="-144.078" gradientUnits="userSpaceOnUse">
<stop stop-color="#DEFB48"/>
<stop offset="1" stop-color="#03B3FF"/>
</linearGradient>
<linearGradient id="paint36_linear" x1="1094.94" y1="785.681" x2="389.621" y2="-139.202" gradientUnits="userSpaceOnUse">
<stop stop-color="#DEFB48"/>
<stop offset="1" stop-color="#03B3FF"/>
</linearGradient>
<linearGradient id="paint37_linear" x1="1080.96" y1="789.695" x2="376.565" y2="-134.454" gradientUnits="userSpaceOnUse">
<stop stop-color="#DEFB48"/>
<stop offset="1" stop-color="#03B3FF"/>
</linearGradient>
<linearGradient id="paint38_linear" x1="1068.71" y1="793.846" x2="365.275" y2="-131.03" gradientUnits="userSpaceOnUse">
<stop stop-color="#DEFB48"/>
<stop offset="1" stop-color="#03B3FF"/>
</linearGradient>
<linearGradient id="paint39_linear" x1="1057.57" y1="798.086" x2="355.097" y2="-128.47" gradientUnits="userSpaceOnUse">
<stop stop-color="#DEFB48"/>
<stop offset="1" stop-color="#03B3FF"/>
</linearGradient>
<linearGradient id="paint40_linear" x1="1046.48" y1="802.482" x2="344.708" y2="-125.923" gradientUnits="userSpaceOnUse">
<stop stop-color="#DEFB48"/>
<stop offset="1" stop-color="#03B3FF"/>
</linearGradient>
<linearGradient id="paint41_linear" x1="1035.43" y1="807.021" x2="334.096" y2="-123.363" gradientUnits="userSpaceOnUse">
<stop stop-color="#DEFB48"/>
<stop offset="1" stop-color="#03B3FF"/>
</linearGradient>
<linearGradient id="paint42_linear" x1="1024.46" y1="815.015" x2="320.229" y2="-118.393" gradientUnits="userSpaceOnUse">
<stop stop-color="#DEFB48"/>
<stop offset="1" stop-color="#03B3FF"/>
</linearGradient>
<linearGradient id="paint43_linear" x1="1013.52" y1="828.031" x2="301.523" y2="-109.849" gradientUnits="userSpaceOnUse">
<stop stop-color="#DEFB48"/>
<stop offset="1" stop-color="#03B3FF"/>
</linearGradient>
<linearGradient id="paint44_linear" x1="1002.62" y1="841.303" x2="282.604" y2="-101.149" gradientUnits="userSpaceOnUse">
<stop stop-color="#DEFB48"/>
<stop offset="1" stop-color="#03B3FF"/>
</linearGradient>
<linearGradient id="paint45_linear" x1="991.791" y1="854.779" x2="263.514" y2="-92.3715" gradientUnits="userSpaceOnUse">
<stop stop-color="#DEFB48"/>
<stop offset="1" stop-color="#03B3FF"/>
</linearGradient>
<linearGradient id="paint46_linear" x1="980.985" y1="868.498" x2="244.226" y2="-83.4243" gradientUnits="userSpaceOnUse">
<stop stop-color="#DEFB48"/>
<stop offset="1" stop-color="#03B3FF"/>
</linearGradient>
<linearGradient id="paint47_linear" x1="970.26" y1="882.441" x2="224.813" y2="-74.3473" gradientUnits="userSpaceOnUse">
<stop stop-color="#DEFB48"/>
<stop offset="1" stop-color="#03B3FF"/>
</linearGradient>
<linearGradient id="paint48_linear" x1="959.583" y1="896.543" x2="205.322" y2="-65.1726" gradientUnits="userSpaceOnUse">
<stop stop-color="#DEFB48"/>
<stop offset="1" stop-color="#03B3FF"/>
</linearGradient>
<linearGradient id="paint49_linear" x1="948.922" y1="910.853" x2="185.666" y2="-55.8422" gradientUnits="userSpaceOnUse">
<stop stop-color="#DEFB48"/>
<stop offset="1" stop-color="#03B3FF"/>
</linearGradient>
<linearGradient id="paint50_linear" x1="938.349" y1="925.33" x2="165.979" y2="-46.4137" gradientUnits="userSpaceOnUse">
<stop stop-color="#DEFB48"/>
<stop offset="1" stop-color="#03B3FF"/>
</linearGradient>
<linearGradient id="paint51_linear" x1="927.813" y1="939.955" x2="146.232" y2="-36.8703" gradientUnits="userSpaceOnUse">
<stop stop-color="#DEFB48"/>
<stop offset="1" stop-color="#03B3FF"/>
</linearGradient>
</defs>
</svg>
