<svg width="684" height="168" viewBox="0 0 684 168" fill="none" xmlns="http://www.w3.org/2000/svg">
<g opacity="0.3" filter="url(#filter0_d)">
<path d="M24.2647 26.1082L44.6285 26.1082L82.5417 94.981L119.627 26.1082L139.991 26.1082L139.991 142H117.64L117.64 68.6571L93.3031 112.696C91.6475 115.676 89.9367 117.828 88.1707 119.153C86.5151 120.367 84.5836 120.974 82.3762 120.974H76.0849L46.6153 68.6571L46.6153 142H24.2647L24.2647 26.1082ZM157.249 26.1082L180.096 26.1082L180.096 142H157.249L157.249 26.1082ZM232.12 143.324C219.979 143.324 210.487 139.958 203.643 133.225C196.8 126.382 193.379 116.89 193.379 104.749H215.895C215.895 110.488 217.33 115.014 220.199 118.325C223.18 121.526 227.263 123.126 232.451 123.126H250.828C255.684 123.126 259.603 122.133 262.583 120.146C265.673 118.049 267.218 115.29 267.218 111.868V106.239C267.218 100.831 263.245 97.4644 255.298 96.14L224.835 91.0076C214.902 89.352 207.341 86.2064 202.153 81.5707C197.076 76.8247 194.538 70.8093 194.538 63.5247V54.2534C194.538 48.4036 196.083 43.2712 199.173 38.8563C202.374 34.331 206.844 30.8543 212.584 28.426C218.433 25.9978 225.166 24.7837 232.782 24.7837H251.49C258.664 24.7837 265.011 26.2738 270.53 29.2538C276.048 32.2339 280.298 36.4281 283.278 41.8364C286.368 47.1343 287.913 53.3152 287.913 60.3791H265.397C265.397 55.7434 264.128 52.0459 261.589 49.2866C259.051 46.4169 255.684 44.982 251.49 44.982H232.782C228.146 44.982 224.394 45.9754 221.524 47.9621C218.765 49.9488 217.385 52.5978 217.385 55.909V60.3791C217.385 65.8977 221.193 69.3193 228.809 70.6438L259.106 75.9417C269.15 77.7076 276.821 80.8533 282.119 85.3786C287.417 89.7935 290.066 95.5329 290.066 102.597V113.524C290.066 119.374 288.41 124.561 285.099 129.086C281.898 133.612 277.373 137.144 271.523 139.682C265.673 142.11 258.885 143.324 251.159 143.324H232.12ZM335.801 143.324C323.66 143.324 314.168 139.958 307.325 133.225C300.482 126.382 297.061 116.89 297.061 104.749H319.577C319.577 110.488 321.011 115.014 323.881 118.325C326.861 121.526 330.945 123.126 336.133 123.126H354.51C359.366 123.126 363.284 122.133 366.264 120.146C369.355 118.049 370.9 115.29 370.9 111.868V106.239C370.9 100.831 366.927 97.4644 358.98 96.14L328.517 91.0076C318.583 89.352 311.023 86.2064 305.835 81.5707C300.758 76.8247 298.219 70.8093 298.219 63.5247V54.2534C298.219 48.4036 299.765 43.2712 302.855 38.8563C306.056 34.331 310.526 30.8543 316.265 28.426C322.115 25.9978 328.848 24.7837 336.464 24.7837L355.172 24.7837C362.346 24.7837 368.693 26.2738 374.211 29.2538C379.73 32.2339 383.979 36.4281 386.959 41.8364C390.05 47.1343 391.595 53.3152 391.595 60.3791H369.079C369.079 55.7434 367.81 52.0459 365.271 49.2866C362.733 46.4169 359.366 44.982 355.172 44.982L336.464 44.982C331.828 44.982 328.075 45.9754 325.206 47.9621C322.446 49.9488 321.067 52.5978 321.067 55.909V60.3791C321.067 65.8977 324.875 69.3193 332.49 70.6438L362.788 75.9417C372.832 77.7076 380.503 80.8533 385.801 85.3786C391.098 89.7935 393.747 95.5329 393.747 102.597V113.524C393.747 119.374 392.092 124.561 388.781 129.086C385.58 133.612 381.054 137.144 375.205 139.682C369.355 142.11 362.567 143.324 354.841 143.324H335.801ZM406.371 26.1082H429.219V142H406.371V26.1082ZM487.368 143.324C478.648 143.324 470.922 141.503 464.189 137.861C457.567 134.108 452.379 128.921 448.627 122.298C444.984 115.566 443.163 107.784 443.163 98.9545V69.1537C443.163 60.3239 444.984 52.5978 448.627 45.9754C452.379 39.2426 457.567 34.0551 464.189 30.4128C470.922 26.6601 478.648 24.7837 487.368 24.7837H504.917C513.636 24.7837 521.307 26.6601 527.93 30.4128C534.662 34.0551 539.85 39.2426 543.492 45.9754C547.245 52.5978 549.121 60.3239 549.121 69.1537V98.9545C549.121 107.784 547.245 115.566 543.492 122.298C539.85 128.921 534.662 134.108 527.93 137.861C521.307 141.503 513.636 143.324 504.917 143.324H487.368ZM504.917 123.126C511.318 123.126 516.451 120.808 520.314 116.173C524.287 111.537 526.274 105.466 526.274 97.9611V70.1471C526.274 62.6417 524.287 56.5712 520.314 51.9355C516.451 47.2999 511.318 44.982 504.917 44.982H487.368C480.966 44.982 475.778 47.2999 471.805 51.9355C467.942 56.5712 466.01 62.6417 466.01 70.1471V97.9611C466.01 105.466 467.942 111.537 471.805 116.173C475.778 120.808 480.966 123.126 487.368 123.126H504.917ZM561.312 26.1082L581.676 26.1082L637.304 104.915V26.1082L659.654 26.1082V142H639.291L583.662 63.1936V142H561.312V26.1082Z" fill="#0B0A15"/>
</g>
<defs>
<filter id="filter0_d" x="0.264709" y="0.783737" width="683.39" height="166.541" filterUnits="userSpaceOnUse" color-interpolation-filters="sRGB">
<feFlood flood-opacity="0" result="BackgroundImageFix"/>
<feColorMatrix in="SourceAlpha" type="matrix" values="0 0 0 0 0 0 0 0 0 0 0 0 0 0 0 0 0 0 127 0"/>
<feOffset/>
<feGaussianBlur stdDeviation="12"/>
<feColorMatrix type="matrix" values="0 0 0 0 0.282353 0 0 0 0 0.942196 0 0 0 0 0.984314 0 0 0 0.6 0"/>
<feBlend mode="normal" in2="BackgroundImageFix" result="effect1_dropShadow"/>
<feBlend mode="normal" in="SourceGraphic" in2="effect1_dropShadow" result="shape"/>
</filter>
</defs>
</svg>
