<svg viewBox="0 0 138 137" fill="none" xmlns="http://www.w3.org/2000/svg">
<path d="M68.7562 1.5278C65.8523 1.5278 62.9882 2.29593 60.4726 3.74801C55.3627 6.69736 52.1883 12.1962 52.1883 18.0949C52.1883 23.9957 55.3627 29.4935 60.4726 32.4439C62.9882 33.896 65.8523 34.6631 68.7562 34.6631C71.6607 34.6631 74.5248 33.896 77.0405 32.4439C82.1503 29.4935 85.3236 23.9957 85.3236 18.0949C85.3236 12.1962 82.1503 6.69736 77.0405 3.74801C74.5248 2.29593 71.6607 1.5278 68.7562 1.5278ZM68.7562 36.1909C65.584 36.1909 62.4555 35.3523 59.7076 33.7676C54.1287 30.5447 50.6606 24.5408 50.6606 18.0949C50.6606 11.6511 54.1287 5.64619 59.7076 2.42431C62.4555 0.839706 65.584 0 68.7562 0C71.9279 0 75.057 0.839706 77.8044 2.42431C83.3854 5.64619 86.8513 11.6511 86.8513 18.0949C86.8513 24.5408 83.3854 30.5447 77.8044 33.7676C75.057 35.3523 71.9279 36.1909 68.7562 36.1909Z" fill="white"/>
<path d="M69.6247 8.82125C69.612 8.82125 69.6015 8.8202 69.5899 8.81915C69.3471 8.79702 69.1031 8.78546 68.8575 8.78231C68.6463 8.77916 68.4781 8.60658 68.4798 8.39611C68.482 8.1857 68.6368 8.00787 68.8653 8.01733C69.1313 8.02048 69.3946 8.03525 69.6585 8.05837C69.867 8.07729 70.0224 8.26248 70.0047 8.47294C69.9876 8.67074 69.8205 8.82125 69.6247 8.82125ZM65.8518 9.22526C65.6898 9.22526 65.5382 9.12005 65.4862 8.95909C65.4243 8.75703 65.5349 8.54137 65.7368 8.47925C65.9896 8.40032 66.2462 8.3309 66.5029 8.27199C66.7081 8.22149 66.9144 8.35402 66.9609 8.55923C67.0079 8.76439 66.8796 8.9696 66.6732 9.01695C66.4354 9.0706 66.1987 9.13581 65.9641 9.20844C65.9276 9.22 65.8883 9.22526 65.8518 9.22526ZM72.574 9.56726C72.5237 9.56726 72.4734 9.55675 72.4236 9.53672C72.1973 9.43993 71.97 9.35259 71.7399 9.27365C71.5386 9.20634 71.4313 8.98957 71.4987 8.78967C71.5684 8.58871 71.7853 8.4845 71.9827 8.54977C72.2333 8.63501 72.4828 8.72971 72.7245 8.83491C72.9192 8.917 73.0088 9.14112 72.9258 9.33577C72.8633 9.48097 72.7217 9.56726 72.574 9.56726ZM63.1266 10.5805C63.0087 10.5805 62.8909 10.5248 62.8157 10.4206C62.6929 10.248 62.7338 10.0102 62.9042 9.88818C63.1177 9.73452 63.3401 9.58828 63.5685 9.45254C63.7494 9.34313 63.9839 9.40204 64.0923 9.58302C64.2018 9.764 64.1416 9.99759 63.9618 10.1071C63.7505 10.2333 63.5464 10.368 63.3473 10.509C63.2809 10.5563 63.2029 10.5805 63.1266 10.5805ZM75.1466 11.1929C75.0565 11.1929 74.9669 11.1613 74.8955 11.0961C74.7113 10.9362 74.5216 10.7815 74.3252 10.6342C74.1554 10.5079 74.1211 10.268 74.2495 10.0996C74.3767 9.93133 74.6134 9.89554 74.7816 10.0239C74.9951 10.1828 75.2014 10.3491 75.3983 10.5237C75.556 10.6637 75.572 10.9036 75.4332 11.0635C75.3585 11.1477 75.2528 11.1929 75.1466 11.1929ZM60.9588 12.7144C60.8798 12.7144 60.8012 12.6913 60.7326 12.6408C60.5634 12.5156 60.5274 12.2757 60.6524 12.1062C60.8084 11.8937 60.9743 11.6875 61.1469 11.4865C61.2852 11.3265 61.5258 11.3097 61.6857 11.4476C61.845 11.5854 61.8627 11.8253 61.7249 11.9863C61.5651 12.1725 61.4124 12.363 61.2669 12.5597C61.1912 12.6607 61.0767 12.7144 60.9588 12.7144ZM77.087 13.5362C76.9565 13.5362 76.8304 13.4699 76.7579 13.3499C76.6346 13.1395 76.5013 12.9322 76.3591 12.7334C76.238 12.5597 76.2811 12.323 76.4526 12.1999C76.6252 12.0799 76.863 12.122 76.9852 12.2935C77.1368 12.5103 77.2817 12.7334 77.4156 12.9607C77.524 13.1416 77.4626 13.3763 77.2817 13.4836C77.2209 13.5194 77.1534 13.5362 77.087 13.5362ZM59.5572 15.4154C59.5185 15.4154 59.4765 15.4102 59.435 15.3965C59.2364 15.3292 59.128 15.1124 59.1955 14.9125C59.2795 14.6621 59.373 14.4127 59.4753 14.1707C59.5572 13.976 59.7834 13.8855 59.9759 13.9676C60.1706 14.0507 60.2613 14.2748 60.1789 14.4674C60.0832 14.6936 59.9981 14.9219 59.919 15.1555C59.8653 15.3134 59.7171 15.4154 59.5572 15.4154ZM78.2088 16.3635C78.034 16.3635 77.8763 16.2435 77.8371 16.0657C77.7834 15.8269 77.7192 15.5901 77.649 15.3576C77.5859 15.1566 77.6993 14.9409 77.9007 14.8809C78.1026 14.8188 78.3161 14.9314 78.378 15.1324C78.456 15.3839 78.5246 15.6396 78.5821 15.8994C78.6286 16.1046 78.4981 16.3098 78.2928 16.3551C78.2657 16.3614 78.237 16.3635 78.2088 16.3635ZM59.0594 18.4174H59.0566C58.847 18.4163 58.6777 18.2448 58.6777 18.0344C58.6788 17.7682 58.6905 17.503 58.7142 17.2411C58.7303 17.0306 58.9134 16.8696 59.1269 16.8917C59.3371 16.9106 59.493 17.0948 59.4753 17.3052C59.4543 17.5472 59.4427 17.7924 59.4405 18.0386C59.4405 18.248 59.269 18.4174 59.0594 18.4174ZM78.3979 19.4023C78.3858 19.4023 78.373 19.4012 78.3614 19.4012C78.1518 19.3791 77.9975 19.1929 78.0185 18.9824C78.0406 18.7415 78.0561 18.4963 78.0605 18.2501C78.0644 18.0407 78.2552 17.8702 78.4488 17.8755C78.659 17.8786 78.8277 18.0523 78.8233 18.2648C78.8172 18.53 78.8045 18.7951 78.7779 19.0582C78.7591 19.2539 78.5926 19.4023 78.3979 19.4023ZM59.5224 21.4257C59.3614 21.4257 59.211 21.3215 59.1584 21.1595C59.0788 20.9069 59.008 20.6534 58.9482 20.3956C58.8984 20.1904 59.0251 19.9831 59.2298 19.9357C59.4322 19.8863 59.6402 20.0136 59.69 20.2188C59.7464 20.4577 59.8117 20.6944 59.8863 20.9269C59.9516 21.1269 59.8404 21.3415 59.6391 21.4067C59.6015 21.4193 59.5616 21.4257 59.5224 21.4257ZM77.6313 22.3464C77.5815 22.3464 77.5301 22.3369 77.4809 22.3148C77.2861 22.2306 77.1965 22.0065 77.2817 21.8129C77.3785 21.5877 77.4681 21.3594 77.5478 21.129C77.6175 20.9291 77.8343 20.8227 78.0351 20.8933C78.2353 20.9606 78.3393 21.1795 78.2707 21.3794C78.1844 21.6288 78.0876 21.8739 77.9814 22.1181C77.9206 22.2601 77.7795 22.3464 77.6313 22.3464ZM60.8947 24.1404C60.7758 24.1404 60.6591 24.0857 60.5833 23.9826C60.4306 23.7668 60.2835 23.547 60.1463 23.3197C60.0373 23.1387 60.0938 22.9051 60.2746 22.7946C60.4549 22.6873 60.6906 22.742 60.8001 22.924C60.9262 23.1345 61.0601 23.3386 61.2039 23.5364C61.3272 23.7058 61.288 23.9447 61.1176 24.0688C61.0501 24.1172 60.9705 24.1404 60.8947 24.1404ZM75.9929 24.9106C75.9033 24.9106 75.8121 24.8791 75.7401 24.8148C75.5825 24.6739 75.5665 24.4329 75.7064 24.2751C75.8696 24.0909 76.0245 23.9026 76.1716 23.7079C76.2988 23.5374 76.5367 23.5049 76.707 23.6333C76.8768 23.7605 76.9095 23.9994 76.7828 24.1667C76.6218 24.3782 76.4548 24.5834 76.2789 24.7823C76.2042 24.8675 76.098 24.9106 75.9929 24.9106ZM63.0358 26.3006C62.959 26.3006 62.8799 26.2774 62.8107 26.2269C62.5961 26.0712 62.3887 25.905 62.189 25.7324C62.0292 25.5945 62.0109 25.3536 62.1497 25.1947C62.2858 25.0327 62.5275 25.0169 62.6885 25.1537C62.8716 25.3136 63.0641 25.4651 63.2621 25.6104C63.4324 25.7345 63.4684 25.9733 63.3439 26.1448C63.2704 26.248 63.1548 26.3006 63.0358 26.3006ZM73.6421 26.8414C73.5105 26.8414 73.3822 26.7741 73.313 26.652C73.2046 26.47 73.2666 26.2374 73.4496 26.1291C73.6609 26.0049 73.8672 25.8723 74.0675 25.7334C74.2417 25.6146 74.4785 25.6566 74.5996 25.8292C74.7207 26.0028 74.6776 26.2416 74.5039 26.3616C74.2871 26.511 74.0653 26.6541 73.8346 26.7888C73.7738 26.8235 73.7085 26.8414 73.6421 26.8414ZM65.7451 27.6874C65.7064 27.6874 65.6665 27.6811 65.6273 27.6695C65.375 27.5874 65.1267 27.4948 64.8828 27.3928C64.6892 27.3107 64.5962 27.0866 64.6775 26.894C64.7583 26.6983 64.9834 26.6047 65.1748 26.6868C65.4021 26.7804 65.6317 26.8667 65.864 26.9435C66.0642 27.0066 66.1749 27.2234 66.1085 27.4244C66.0559 27.5843 65.906 27.6874 65.7451 27.6874ZM70.8062 27.9452C70.6309 27.9452 70.4727 27.8232 70.434 27.6443C70.3897 27.438 70.5192 27.2339 70.7255 27.1887C70.9644 27.1371 71.2012 27.0771 71.4368 27.0045C71.6354 26.9435 71.85 27.0592 71.9114 27.2602C71.9711 27.4633 71.8588 27.6769 71.6558 27.7369C71.4019 27.8136 71.1464 27.8789 70.8875 27.9357C70.8599 27.942 70.8328 27.9452 70.8062 27.9452ZM68.7513 28.1651C68.4864 28.1651 68.2209 28.1535 67.9582 28.1335C67.7485 28.1167 67.5898 27.9326 67.6075 27.7232C67.6246 27.5127 67.8149 27.357 68.0179 27.3728C68.2613 27.3917 68.5063 27.4012 68.7513 27.4012C68.9621 27.4012 69.1336 27.5727 69.1336 27.7832C69.1336 27.9946 68.9621 28.1651 68.7513 28.1651Z" fill="white"/>
<path d="M109.696 20.8015C106.792 20.8015 103.928 21.5686 101.412 23.0206C96.3023 25.971 93.1273 31.4689 93.1273 37.3676C93.1273 43.2692 96.3023 48.7674 101.412 51.7167C103.928 53.1697 106.792 53.9369 109.696 53.9369C112.601 53.9369 115.465 53.1697 117.979 51.7167C123.089 48.7674 126.261 43.2692 126.261 37.3676C126.261 31.4689 123.089 25.971 117.979 23.0206C115.465 21.5686 112.601 20.8015 109.696 20.8015ZM109.696 55.4647C106.522 55.4647 103.395 54.6261 100.648 53.0414C95.0666 49.8194 91.5984 43.8135 91.5984 37.3676C91.5984 30.9238 95.0666 24.9199 100.648 21.699C103.395 20.1123 106.522 19.2748 109.696 19.2748C112.867 19.2748 115.996 20.1123 118.743 21.699C124.323 24.9199 127.791 30.9238 127.791 37.3676C127.791 43.8135 124.323 49.8194 118.743 53.0414C115.996 54.6261 112.867 55.4647 109.696 55.4647Z" fill="white"/>
<path d="M110.733 28.0951C110.721 28.0951 110.71 28.094 110.698 28.0929C110.453 28.0719 110.21 28.0582 109.966 28.0551C109.752 28.053 109.583 27.8793 109.588 27.6699C109.589 27.4585 109.757 27.2817 109.973 27.2922C110.237 27.2953 110.503 27.308 110.766 27.3311C110.977 27.35 111.131 27.5363 111.111 27.7468C111.095 27.9456 110.928 28.0951 110.733 28.0951ZM106.958 28.4991C106.796 28.4991 106.645 28.3949 106.594 28.2319C106.532 28.0298 106.643 27.8151 106.845 27.7531C107.097 27.6752 107.351 27.6037 107.61 27.5469C107.818 27.4974 108.02 27.6257 108.068 27.832C108.115 28.0371 107.988 28.2424 107.782 28.2908C107.543 28.3444 107.306 28.4086 107.073 28.4812C107.035 28.4938 106.995 28.4991 106.958 28.4991ZM113.682 28.84C113.631 28.84 113.58 28.8295 113.53 28.8095C113.307 28.7127 113.078 28.6264 112.845 28.5475C112.645 28.4791 112.538 28.2623 112.606 28.0624C112.675 27.8625 112.893 27.7562 113.09 27.8236C113.341 27.9077 113.588 28.0035 113.833 28.1077C114.026 28.1898 114.115 28.4149 114.034 28.6075C113.97 28.7537 113.829 28.84 113.682 28.84ZM104.233 29.8543C104.115 29.8543 103.997 29.7986 103.922 29.6933C103.8 29.5208 103.841 29.283 104.011 29.1609C104.226 29.0073 104.448 28.8621 104.677 28.7253C104.855 28.6169 105.092 28.6758 105.201 28.8568C105.309 29.0378 105.251 29.2714 105.069 29.3819C104.857 29.5081 104.654 29.6418 104.454 29.7828C104.388 29.8301 104.31 29.8543 104.233 29.8543ZM116.255 30.4657C116.166 30.4657 116.074 30.4351 116.003 30.371C115.819 30.2111 115.629 30.0553 115.434 29.908C115.265 29.7817 115.23 29.5418 115.356 29.3735C115.484 29.2051 115.723 29.1704 115.891 29.2977C116.103 29.4566 116.309 29.6218 116.507 29.7965C116.666 29.9364 116.679 30.1774 116.542 30.3362C116.465 30.4225 116.362 30.4657 116.255 30.4657ZM102.069 31.9893C101.989 31.9893 101.91 31.9651 101.841 31.9146C101.671 31.7894 101.635 31.5495 101.76 31.38C101.917 31.1675 102.082 30.9613 102.257 30.7592C102.395 30.6004 102.637 30.5835 102.796 30.7214C102.954 30.8613 102.972 31.1023 102.832 31.2611C102.673 31.4453 102.52 31.6368 102.375 31.8336C102.3 31.9346 102.184 31.9893 102.069 31.9893ZM118.195 32.81C118.066 32.81 117.938 32.7427 117.866 32.6238C117.741 32.4133 117.608 32.206 117.468 32.0072C117.345 31.8336 117.389 31.5947 117.56 31.4737C117.732 31.3537 117.973 31.3948 118.093 31.5673C118.244 31.7852 118.386 32.0061 118.523 32.2334C118.631 32.4133 118.572 32.6479 118.389 32.7574C118.328 32.7932 118.261 32.81 118.195 32.81ZM100.665 34.6893C100.625 34.6893 100.585 34.683 100.544 34.6703C100.344 34.603 100.237 34.3862 100.303 34.1863C100.388 33.9358 100.482 33.6865 100.585 33.4434C100.668 33.2488 100.892 33.1594 101.086 33.2424C101.28 33.3245 101.371 33.5497 101.287 33.7433C101.193 33.9685 101.106 34.1979 101.027 34.4283C100.974 34.5883 100.825 34.6893 100.665 34.6893ZM119.316 35.6383C119.142 35.6383 118.984 35.5184 118.944 35.3406C118.89 35.1017 118.827 34.865 118.755 34.6304C118.695 34.4293 118.806 34.2147 119.008 34.1537C119.209 34.0927 119.424 34.2052 119.484 34.4062C119.563 34.6577 119.631 34.9144 119.69 35.1733C119.735 35.3785 119.606 35.5826 119.4 35.6289C119.373 35.6352 119.345 35.6383 119.316 35.6383ZM100.166 37.6902H100.165C99.9534 37.6902 99.7841 37.5176 99.7852 37.3082C99.7874 37.0409 99.799 36.7768 99.8223 36.5138C99.8389 36.3044 100.029 36.1487 100.235 36.1666C100.444 36.1834 100.601 36.3686 100.583 36.579C100.563 36.821 100.55 37.0651 100.548 37.3124C100.547 37.5218 100.377 37.6902 100.166 37.6902ZM119.506 38.6761C119.494 38.6761 119.479 38.675 119.469 38.6738C119.259 38.6528 119.104 38.4659 119.126 38.2562C119.149 38.0145 119.163 37.7701 119.168 37.5239C119.172 37.3135 119.341 37.1609 119.556 37.1483C119.767 37.1525 119.935 37.3261 119.931 37.5376C119.927 37.8038 119.912 38.0682 119.886 38.3309C119.868 38.5278 119.7 38.6761 119.506 38.6761ZM100.63 40.6983C100.468 40.6983 100.319 40.5954 100.267 40.4345C100.187 40.1806 100.114 39.9261 100.053 39.6673C100.006 39.4632 100.135 39.2568 100.338 39.2087C100.551 39.1623 100.75 39.2895 100.799 39.4925C100.853 39.7325 100.921 39.9682 100.994 40.1999C101.06 40.3996 100.948 40.6164 100.747 40.6806C100.709 40.6933 100.67 40.6983 100.63 40.6983ZM118.739 41.6215C118.687 41.6215 118.635 41.611 118.584 41.5877C118.391 41.5026 118.303 41.2769 118.389 41.0844C118.488 40.8604 118.577 40.633 118.657 40.4018C118.727 40.2016 118.944 40.0965 119.143 40.1673C119.343 40.2342 119.448 40.4522 119.379 40.6524C119.291 40.9035 119.196 41.1486 119.087 41.393C119.026 41.5352 118.885 41.6215 118.739 41.6215ZM102.001 43.4153C101.884 43.4153 101.767 43.3605 101.692 43.2554C101.537 43.0419 101.391 42.8207 101.252 42.5933C101.144 42.4125 101.201 42.179 101.38 42.0695C101.562 41.9622 101.797 42.0181 101.905 42.1989C102.033 42.4075 102.168 42.6116 102.311 42.809C102.435 42.9794 102.395 43.2184 102.226 43.3428C102.157 43.392 102.079 43.4153 102.001 43.4153ZM117.1 44.1836C117.011 44.1836 116.921 44.1537 116.847 44.0879C116.691 43.9479 116.674 43.7068 116.816 43.5491C116.978 43.3661 117.132 43.1763 117.28 42.9805C117.407 42.8124 117.647 42.7797 117.814 42.9058C117.982 43.0331 118.017 43.2731 117.891 43.4407C117.73 43.652 117.563 43.8561 117.387 44.0558C117.311 44.1415 117.205 44.1836 117.1 44.1836ZM104.144 45.5741C104.067 45.5741 103.988 45.5515 103.919 45.5017C103.704 45.3452 103.498 45.1798 103.298 45.0083C103.138 44.8695 103.119 44.6294 103.257 44.4695C103.394 44.3086 103.634 44.292 103.795 44.4275C103.981 44.5874 104.172 44.7389 104.37 44.8844C104.539 45.0094 104.577 45.2484 104.454 45.4176C104.378 45.5216 104.262 45.5741 104.144 45.5741ZM114.749 46.114C114.62 46.114 114.491 46.0476 114.422 45.927C114.313 45.744 114.375 45.5111 114.556 45.4027C114.767 45.2799 114.975 45.1471 115.175 45.0083C115.344 44.8883 115.585 44.9292 115.707 45.1029C115.826 45.2755 115.785 45.5133 115.612 45.6344C115.396 45.7849 115.172 45.9282 114.943 46.0626C114.882 46.0974 114.816 46.114 114.749 46.114ZM106.853 46.9614C106.814 46.9614 106.774 46.9548 106.735 46.942C106.485 46.8613 106.236 46.7678 105.991 46.6655C105.797 46.5858 105.706 46.3624 105.785 46.1665C105.866 45.9713 106.09 45.8795 106.285 45.9613C106.511 46.0554 106.74 46.1394 106.974 46.2163C107.173 46.2816 107.282 46.4962 107.217 46.697C107.163 46.858 107.015 46.9614 106.853 46.9614ZM111.913 47.2181C111.738 47.2181 111.581 47.0969 111.543 46.9171C111.497 46.7119 111.627 46.5078 111.832 46.4625C112.071 46.411 112.308 46.3496 112.543 46.2783C112.747 46.2185 112.959 46.333 113.019 46.5338C113.08 46.7368 112.965 46.9498 112.764 47.0106C112.509 47.0875 112.253 47.1528 111.995 47.2098C111.969 47.2158 111.941 47.2181 111.913 47.2181ZM109.859 47.4387C109.594 47.4387 109.329 47.4271 109.065 47.4072C108.857 47.3906 108.697 47.2075 108.717 46.9957C108.733 46.7866 108.92 46.6328 109.126 46.6456C109.37 46.6655 109.615 46.6738 109.859 46.6738C110.071 46.6738 110.241 46.8452 110.241 47.0571C110.241 47.2684 110.071 47.4387 109.859 47.4387Z" fill="white"/>
<path d="M27.8184 20.8015C24.9143 20.8015 22.0502 21.5686 19.5343 23.0206C14.4248 25.971 11.2503 31.4689 11.2503 37.3676C11.2503 43.2692 14.4248 48.7674 19.5343 51.7167C22.0502 53.1697 24.9143 53.9369 27.8184 53.9369C30.7225 53.9369 33.5866 53.1697 36.1025 51.7167C41.212 48.7674 44.3853 43.2692 44.3853 37.3676C44.3853 31.4689 41.212 25.971 36.1025 23.0206C33.5866 21.5686 30.7225 20.8015 27.8184 20.8015ZM27.8184 55.4647C24.646 55.4647 21.5177 54.6261 18.7704 53.0414C13.1905 49.8194 9.72246 43.8135 9.72246 37.3676C9.72246 30.9238 13.1905 24.9199 18.7704 21.699C21.5177 20.1123 24.646 19.2748 27.8184 19.2748C30.9908 19.2748 34.119 20.1123 36.8664 21.699C42.4465 24.9199 45.9141 30.9238 45.9141 37.3676C45.9141 43.8135 42.4465 49.8194 36.8664 53.0414C34.119 54.6261 30.9908 55.4647 27.8184 55.4647Z" fill="white"/>
<path d="M28.6858 28.0951C28.6742 28.0951 28.6626 28.094 28.6511 28.0929C28.408 28.0719 28.1639 28.0582 27.9187 28.0551C27.7073 28.053 27.5389 27.8793 27.541 27.6699C27.5431 27.4585 27.6914 27.2817 27.9261 27.2922C28.1923 27.2953 28.4554 27.308 28.7195 27.3311C28.9288 27.35 29.0846 27.5363 29.0656 27.7478C29.0488 27.9456 28.8815 28.0951 28.6858 28.0951ZM24.9115 28.4991C24.7505 28.4991 24.599 28.3949 24.5474 28.2319C24.4843 28.0298 24.5958 27.8151 24.7978 27.7531C25.0504 27.6752 25.3072 27.6037 25.5649 27.5469C25.7691 27.4974 25.9753 27.6278 26.0216 27.832C26.0689 28.0382 25.9395 28.2434 25.7343 28.2908C25.4966 28.3444 25.2598 28.4086 25.0262 28.4812C24.9883 28.4938 24.9494 28.4991 24.9115 28.4991ZM31.6362 28.84C31.5846 28.84 31.5331 28.8306 31.4836 28.8095C31.2595 28.7137 31.0312 28.6264 30.8007 28.5475C30.5998 28.4791 30.4935 28.2634 30.5598 28.0635C30.6292 27.8625 30.847 27.7562 31.0448 27.8236C31.2953 27.9088 31.5436 28.0035 31.7856 28.1077C31.9803 28.1908 32.0697 28.416 31.9855 28.6085C31.9245 28.7537 31.7835 28.84 31.6362 28.84ZM22.1884 29.8543C22.0695 29.8543 21.9506 29.7986 21.8759 29.6944C21.7538 29.5219 21.7948 29.283 21.9664 29.1609C22.1789 29.0073 22.402 28.8621 22.6303 28.7263C22.8102 28.6169 23.0459 28.6758 23.1533 28.8568C23.2627 29.0378 23.2038 29.2714 23.0228 29.3819C22.8113 29.5071 22.6072 29.6407 22.4083 29.7828C22.342 29.8301 22.2641 29.8543 22.1884 29.8543ZM34.2078 30.4657C34.1184 30.4657 34.0279 30.4351 33.9564 30.3699C33.7722 30.2089 33.5828 30.0553 33.386 29.908C33.2166 29.7817 33.1819 29.5418 33.3102 29.3735C33.4376 29.2051 33.6754 29.1704 33.8427 29.2977C34.0563 29.4566 34.2625 29.6229 34.4593 29.7975C34.6182 29.9364 34.6329 30.1774 34.495 30.3362C34.4183 30.4225 34.3141 30.4657 34.2078 30.4657ZM20.0208 31.9893C19.9409 31.9893 19.8619 31.9651 19.7946 31.9146C19.6241 31.7894 19.5883 31.5495 19.7136 31.38C19.8703 31.1675 20.0356 30.9613 20.2081 30.7613C20.3449 30.6004 20.5869 30.5835 20.7479 30.7214C20.9057 30.8592 20.9247 31.1002 20.7868 31.2601C20.6259 31.4453 20.4733 31.6368 20.3281 31.8336C20.2523 31.9346 20.1376 31.9893 20.0208 31.9893ZM36.1491 32.81C36.0176 32.81 35.8914 32.7427 35.8187 32.6227C35.6956 32.4133 35.562 32.206 35.421 32.0072C35.299 31.8336 35.3421 31.5958 35.5136 31.4737C35.6872 31.3537 35.925 31.3948 36.046 31.5673C36.1986 31.7852 36.3427 32.0072 36.4774 32.2344C36.5848 32.4154 36.5248 32.649 36.3427 32.7574C36.2817 32.7932 36.2144 32.81 36.1491 32.81ZM18.6182 34.6893C18.5793 34.6893 18.5372 34.683 18.4962 34.6703C18.2973 34.603 18.1889 34.3862 18.2562 34.1863C18.3394 33.9358 18.4341 33.6865 18.5361 33.4445C18.6193 33.2488 18.8444 33.1594 19.037 33.2424C19.2317 33.3235 19.3221 33.5476 19.2401 33.7422C19.1444 33.9674 19.0591 34.1958 18.9802 34.4283C18.9276 34.5883 18.7782 34.6893 18.6182 34.6893ZM37.2698 35.6383C37.0951 35.6383 36.9372 35.5174 36.8983 35.3395C36.8446 35.1017 36.7805 34.8639 36.7099 34.6304C36.6468 34.4293 36.7604 34.2147 36.9615 34.1537C37.1624 34.0927 37.3772 34.2042 37.4392 34.4052C37.5172 34.6577 37.5852 34.9144 37.6433 35.1733C37.6898 35.3785 37.5592 35.5826 37.3529 35.6289C37.3264 35.6352 37.2981 35.6383 37.2698 35.6383ZM18.1205 37.6902H18.1184C17.908 37.6902 17.7375 37.5176 17.7396 37.3082C17.7396 37.0409 17.7512 36.7768 17.7754 36.5138C17.7912 36.3044 17.9795 36.1455 18.1868 36.1666C18.3983 36.1834 18.5541 36.3686 18.5361 36.579C18.5162 36.821 18.5036 37.0651 18.5025 37.3124C18.5014 37.5218 18.3299 37.6902 18.1205 37.6902ZM37.4591 38.6761C37.4464 38.6761 37.4337 38.675 37.422 38.675C37.2129 38.6528 37.0583 38.4659 37.0803 38.2562C37.1024 38.0145 37.1172 37.7701 37.1214 37.5239C37.1256 37.3135 37.3076 37.1609 37.5094 37.1493C37.7202 37.1525 37.8883 37.3271 37.8845 37.5376C37.8789 37.8049 37.8651 38.0687 37.8391 38.332C37.8203 38.5278 37.6527 38.6761 37.4591 38.6761ZM18.5835 40.6983C18.4225 40.6983 18.2721 40.5954 18.2195 40.4345C18.1384 40.1806 18.069 39.9261 18.009 39.6684C17.9595 39.4643 18.0858 39.2568 18.291 39.2098C18.4951 39.1589 18.7013 39.2884 18.7508 39.4914C18.8076 39.7314 18.8729 39.9682 18.9475 40.1999C19.0128 40.3996 18.9013 40.6164 18.7003 40.6806C18.6624 40.6933 18.6224 40.6983 18.5835 40.6983ZM36.6921 41.6215C36.6426 41.6215 36.5911 41.611 36.5416 41.5888C36.3469 41.5042 36.2575 41.2791 36.3427 41.0877C36.4395 40.8615 36.529 40.633 36.6089 40.4018C36.6784 40.2016 36.8951 40.0932 37.0961 40.1673C37.296 40.2342 37.401 40.4522 37.3319 40.6524C37.2455 40.9013 37.1487 41.148 37.0435 41.3919C36.9814 41.5341 36.8404 41.6215 36.6921 41.6215ZM19.9556 43.4142C19.8378 43.4142 19.7199 43.3594 19.6441 43.2554C19.4916 43.0419 19.3443 42.8207 19.2075 42.5933C19.0981 42.4125 19.1549 42.1779 19.3358 42.0684C19.5168 41.96 19.7515 42.0159 19.8609 42.1989C19.9872 42.4075 20.1208 42.6116 20.2649 42.809C20.3881 42.9794 20.3491 43.2184 20.1786 43.3428C20.1113 43.3909 20.0324 43.4142 19.9556 43.4142ZM35.0538 44.1836C34.9643 44.1836 34.8728 44.1537 34.8013 44.0879C34.6423 43.9479 34.6276 43.7068 34.7676 43.5491C34.9307 43.3661 35.0853 43.1763 35.2326 42.9805C35.36 42.8124 35.5978 42.7786 35.7682 42.907C35.9377 43.0331 35.9702 43.2731 35.844 43.4407C35.683 43.652 35.5157 43.8561 35.34 44.0558C35.2653 44.1415 35.159 44.1836 35.0538 44.1836ZM22.0969 45.5741C22.02 45.5741 21.9411 45.5515 21.8717 45.5006C21.657 45.344 21.4487 45.1798 21.2498 45.0061C21.0899 44.8684 21.0731 44.6272 21.2109 44.4673C21.3477 44.3064 21.5886 44.2898 21.7496 44.4275C21.9327 44.5863 22.1252 44.7389 22.3231 44.8844C22.4935 45.0083 22.5293 45.2472 22.4051 45.4176C22.3315 45.5205 22.2157 45.5741 22.0969 45.5741ZM32.7042 46.114C32.5716 46.114 32.4433 46.0476 32.3738 45.9259C32.2654 45.744 32.3275 45.5111 32.5106 45.4027C32.7221 45.2799 32.9283 45.146 33.1293 45.0083C33.3029 44.8861 33.5386 44.9303 33.6606 45.1029C33.7817 45.2766 33.7385 45.5155 33.5659 45.6355C33.3481 45.7849 33.1261 45.9282 32.8957 46.0626C32.8347 46.0974 32.7694 46.114 32.7042 46.114ZM24.8063 46.9614C24.7674 46.9614 24.7274 46.9548 24.6884 46.942C24.437 46.8613 24.1876 46.7678 23.9435 46.6655C23.7499 46.5847 23.6562 46.3601 23.7383 46.1665C23.8193 45.9713 24.0455 45.8795 24.237 45.9613C24.4632 46.0554 24.6926 46.1394 24.9252 46.2163C25.1251 46.2816 25.2356 46.4962 25.1693 46.697C25.1167 46.858 24.9673 46.9614 24.8063 46.9614ZM29.8674 47.2181C29.6917 47.2181 29.5339 47.0969 29.495 46.9171C29.4508 46.7119 29.5802 46.5078 29.7864 46.4625C30.0253 46.411 30.262 46.3496 30.4977 46.2783C30.6987 46.2174 30.9112 46.333 30.9723 46.5338C31.0333 46.7368 30.9197 46.9498 30.7166 47.0106C30.463 47.0875 30.2073 47.1528 29.9484 47.2098C29.9211 47.2158 29.8937 47.2181 29.8674 47.2181ZM27.8125 47.4387C27.5473 47.4387 27.2821 47.4271 27.0202 47.4072C26.8097 47.3906 26.6508 47.2075 26.6687 46.9957C26.6856 46.7866 26.8739 46.6328 27.0791 46.6456C27.3221 46.6655 27.5684 46.6738 27.8125 46.6738C28.0229 46.6738 28.1944 46.8452 28.1944 47.0571C28.1944 47.2684 28.0229 47.4387 27.8125 47.4387Z" fill="white"/>
<path d="M119.417 65.9195C116.513 65.9195 113.65 66.6867 111.134 68.1386C106.023 71.089 102.848 76.5866 102.848 82.4879C102.848 88.3887 106.023 93.8863 111.134 96.8356C113.65 98.2887 116.513 99.0558 119.417 99.0558C122.322 99.0558 125.186 98.2887 127.7 96.8356C132.81 93.8863 135.983 88.3887 135.983 82.4879C135.983 76.5866 132.81 71.089 127.7 68.1386C125.186 66.6867 122.322 65.9195 119.417 65.9195ZM119.417 100.582C116.245 100.582 113.116 99.7451 110.369 98.1592C104.788 94.9361 101.321 88.9314 101.321 82.4879C101.321 76.0418 104.788 70.037 110.369 66.8161C113.116 65.2292 116.245 64.3917 119.417 64.3917C122.588 64.3917 125.718 65.2292 128.464 66.8161C134.045 70.037 137.511 76.0418 137.511 82.4879C137.511 88.9314 134.045 94.9361 128.464 98.1592C125.718 99.7451 122.588 100.582 119.417 100.582Z" fill="white"/>
<path d="M120.286 73.2977C120.274 73.2977 120.263 73.2977 120.249 73.2954C120.007 73.2744 119.763 73.2606 119.517 73.2573C119.306 73.2556 119.138 73.083 119.14 72.8723C119.141 72.6621 119.313 72.4934 119.521 72.4934H119.526C119.79 72.4967 120.056 72.5117 120.318 72.5338C120.528 72.5548 120.684 72.7384 120.665 72.9492C120.647 73.1472 120.482 73.2977 120.286 73.2977ZM116.511 73.7025C116.349 73.7025 116.198 73.5975 116.147 73.4343C116.084 73.2324 116.197 73.0183 116.398 72.9553C116.65 72.8767 116.905 72.807 117.162 72.7484C117.372 72.7019 117.574 72.8303 117.621 73.0333C117.667 73.2396 117.541 73.4459 117.334 73.4929C117.096 73.5466 116.858 73.6107 116.626 73.6848C116.587 73.6965 116.548 73.7025 116.511 73.7025ZM123.235 74.0433C123.183 74.0433 123.133 74.0339 123.083 74.0129C122.857 73.9161 122.63 73.8287 122.399 73.7507C122.198 73.6804 122.092 73.4647 122.159 73.2661C122.227 73.0659 122.445 72.9575 122.643 73.0272C122.895 73.1113 123.142 73.2058 123.384 73.3098C123.578 73.3945 123.668 73.6196 123.585 73.8121C123.524 73.957 123.381 74.0433 123.235 74.0433ZM113.787 75.0566C113.67 75.0566 113.551 75.0007 113.475 74.8968C113.354 74.7242 113.394 74.4863 113.566 74.3635C113.781 74.2087 114.001 74.0643 114.23 73.9288C114.409 73.8204 114.646 73.8795 114.753 74.0593C114.864 74.2402 114.804 74.4758 114.622 74.5853C114.412 74.7104 114.208 74.8442 114.009 74.9853C113.943 75.0334 113.865 75.0566 113.787 75.0566ZM125.808 75.6689C125.718 75.6689 125.627 75.6374 125.556 75.5732C125.372 75.4134 125.181 75.2579 124.986 75.1114C124.817 74.9853 124.782 74.7441 124.908 74.577C125.036 74.4078 125.275 74.374 125.443 74.5002C125.656 74.6589 125.861 74.8265 126.06 75.0007C126.218 75.1401 126.234 75.3807 126.095 75.5384C126.018 75.6247 125.913 75.6689 125.808 75.6689ZM111.621 77.1906C111.54 77.1906 111.462 77.1674 111.393 77.1181C111.224 76.9926 111.188 76.7531 111.313 76.5827C111.47 76.3697 111.635 76.1634 111.81 75.9626C111.946 75.8039 112.19 75.7867 112.348 75.925C112.506 76.0639 112.524 76.3034 112.387 76.4643C112.225 76.6485 112.072 76.8393 111.929 77.0357C111.853 77.1369 111.737 77.1906 111.621 77.1906ZM127.748 78.0125C127.618 78.0125 127.491 77.9473 127.419 77.8261C127.293 77.6159 127.161 77.4096 127.021 77.2083C126.899 77.0368 126.942 76.7984 127.113 76.6773C127.285 76.5561 127.525 76.5971 127.646 76.7697C127.797 76.9865 127.939 77.2083 128.075 77.4356C128.185 77.6165 128.124 77.8516 127.942 77.96C127.883 77.9965 127.815 78.0125 127.748 78.0125ZM110.219 79.8915C110.179 79.8915 110.137 79.8854 110.097 79.8716C109.897 79.8052 109.79 79.5884 109.856 79.3887C109.94 79.1382 110.035 78.8887 110.137 78.6459C110.221 78.4512 110.444 78.3605 110.639 78.4451C110.833 78.527 110.924 78.751 110.84 78.9457C110.745 79.1697 110.659 79.3992 110.581 79.6304C110.527 79.7909 110.378 79.8915 110.219 79.8915ZM128.872 80.8407C128.695 80.8407 128.539 80.7207 128.498 80.5431C128.444 80.3031 128.381 80.0674 128.31 79.8329C128.247 79.6316 128.361 79.418 128.562 79.3561C128.764 79.293 128.978 79.4075 129.039 79.6089C129.118 79.8611 129.186 80.1155 129.245 80.3755C129.29 80.5796 129.161 80.7848 128.953 80.8302C128.926 80.8374 128.899 80.8407 128.872 80.8407ZM109.72 82.8934H109.718C109.506 82.8928 109.336 82.7202 109.338 82.5106C109.339 82.2445 109.353 81.979 109.376 81.7152C109.393 81.5067 109.58 81.349 109.787 81.3678C109.998 81.3855 110.154 81.5708 110.136 81.7816C110.115 82.0244 110.103 82.2678 110.102 82.5139C110.1 82.7241 109.931 82.8934 109.72 82.8934ZM129.059 83.8785C129.046 83.8785 129.034 83.8785 129.022 83.8763C128.811 83.8553 128.658 83.6683 128.679 83.4598C128.702 83.2164 128.716 82.9714 128.72 82.7263C128.725 82.5161 128.915 82.3729 129.111 82.3507C129.321 82.3546 129.488 82.5283 129.484 82.7401C129.478 83.0073 129.465 83.2712 129.44 83.5344C129.421 83.7303 129.252 83.8785 129.059 83.8785ZM110.184 85.9007C110.021 85.9007 109.873 85.7978 109.82 85.6369C109.739 85.3841 109.667 85.1286 109.608 84.8708C109.559 84.6667 109.686 84.4593 109.89 84.4117C110.106 84.3658 110.304 84.493 110.352 84.696C110.406 84.9361 110.473 85.1706 110.548 85.4024C110.612 85.6043 110.502 85.8189 110.301 85.883C110.261 85.8958 110.223 85.9007 110.184 85.9007ZM128.292 86.8228C128.24 86.8228 128.188 86.8128 128.137 86.7902C127.945 86.705 127.856 86.4793 127.942 86.2868C128.041 86.0639 128.129 85.8355 128.209 85.6043C128.28 85.4051 128.496 85.3 128.697 85.3697C128.895 85.4389 129 85.6557 128.932 85.8543C128.844 86.1048 128.748 86.3521 128.641 86.5966C128.579 86.7376 128.438 86.8228 128.292 86.8228ZM111.555 88.6177C111.436 88.6177 111.32 88.563 111.244 88.459C111.089 88.2443 110.943 88.0231 110.806 87.7958C110.697 87.6149 110.753 87.3826 110.934 87.2719C111.114 87.1646 111.351 87.2194 111.46 87.4003C111.587 87.6105 111.72 87.814 111.863 88.0115C111.988 88.1829 111.949 88.4219 111.778 88.5441C111.711 88.5934 111.632 88.6177 111.555 88.6177ZM126.655 89.386C126.564 89.386 126.473 89.355 126.401 89.2898C126.243 89.1498 126.228 88.9092 126.368 88.7521C126.532 88.5679 126.686 88.3799 126.833 88.1829C126.961 88.0148 127.199 87.9822 127.367 88.1094C127.536 88.2355 127.57 88.4756 127.443 88.6432C127.284 88.8556 127.117 89.0586 126.94 89.2582C126.864 89.3429 126.76 89.386 126.655 89.386ZM113.696 90.7766C113.621 90.7766 113.542 90.7539 113.471 90.7041C113.257 90.5476 113.052 90.3822 112.85 90.2096C112.69 90.0719 112.67 89.8307 112.81 89.672C112.946 89.511 113.187 89.4939 113.347 89.6299C113.533 89.7909 113.724 89.9414 113.923 90.0863C114.093 90.2118 114.129 90.4508 114.006 90.62C113.932 90.7229 113.816 90.7766 113.696 90.7766ZM124.303 91.3175C124.172 91.3175 124.044 91.2501 123.974 91.1284C123.866 90.9464 123.928 90.7135 124.11 90.6051C124.32 90.4812 124.528 90.3496 124.728 90.2107C124.9 90.0918 125.137 90.1327 125.259 90.3053C125.38 90.4779 125.337 90.7179 125.165 90.838C124.949 90.9884 124.725 91.1306 124.496 91.265C124.434 91.2998 124.368 91.3175 124.303 91.3175ZM116.406 92.1638C116.368 92.1638 116.328 92.1572 116.289 92.1456C116.038 92.0626 115.789 91.9708 115.544 91.8679C115.349 91.7877 115.258 91.5648 115.339 91.369C115.419 91.1737 115.643 91.083 115.838 91.1638C116.063 91.2578 116.293 91.3419 116.527 91.4188C116.726 91.484 116.835 91.6986 116.771 91.9005C116.716 92.0615 116.568 92.1638 116.406 92.1638ZM121.466 92.4216C121.293 92.4216 121.133 92.2982 121.096 92.1218C121.05 91.9133 121.18 91.7114 121.386 91.666C121.624 91.6146 121.862 91.5532 122.096 91.4818C122.302 91.421 122.512 91.5355 122.572 91.7374C122.632 91.9393 122.518 92.1522 122.317 92.2142C122.063 92.2899 121.806 92.3563 121.549 92.4122C121.52 92.4183 121.494 92.4216 121.466 92.4216ZM119.412 92.6423C119.146 92.6423 118.881 92.6307 118.618 92.6097C118.409 92.5942 118.25 92.4089 118.268 92.1981C118.286 91.989 118.476 91.8364 118.68 91.848C118.922 91.8668 119.167 91.8773 119.412 91.8773C119.624 91.8773 119.793 92.0466 119.793 92.2595C119.793 92.4708 119.624 92.6423 119.412 92.6423Z" fill="white"/>
<path d="M18.0949 65.9195C15.1908 65.9195 12.3267 66.6867 9.80982 68.1386C4.70133 71.089 1.52786 76.5866 1.52786 82.4879C1.52786 88.3887 4.70133 93.8863 9.80982 96.8356C12.3267 98.2887 15.1908 99.0558 18.0949 99.0558C21.0001 99.0558 23.8632 98.2887 26.379 96.8356C31.4886 93.8863 34.6631 88.3887 34.6631 82.4879C34.6631 76.5866 31.4886 71.089 26.379 68.1386C23.8632 66.6867 21.0001 65.9195 18.0949 65.9195ZM18.0949 100.582C14.9225 100.582 11.7943 99.7451 9.04695 98.1592C3.46708 94.9361 0 88.9314 0 82.4879C0 76.0418 3.46708 70.037 9.04695 66.8161C11.7943 65.2292 14.9225 64.3917 18.0949 64.3917C21.2674 64.3917 24.3945 65.2292 27.1429 66.8161C32.7228 70.037 36.1898 76.0418 36.1898 82.4879C36.1898 88.9314 32.7228 94.9361 27.1429 98.1592C24.3945 99.7451 21.2674 100.582 18.0949 100.582Z" fill="white"/>
<path d="M18.9641 73.217C18.9514 73.217 18.9399 73.217 18.9294 73.2148C18.6874 73.1937 18.4422 73.1799 18.197 73.1766C17.9845 73.1749 17.8161 73.0024 17.8193 72.7916C17.8214 72.5814 17.9845 72.3773 18.2054 72.4127C18.4695 72.416 18.7347 72.431 18.9977 72.4531C19.2071 72.4741 19.3618 72.6583 19.3429 72.8685C19.3261 73.0665 19.1609 73.217 18.9641 73.217ZM15.1909 73.6208C15.0288 73.6208 14.8773 73.5157 14.8257 73.3536C14.7626 73.1517 14.8741 72.9371 15.0761 72.8746C15.3277 72.796 15.5833 72.7263 15.8422 72.6677C16.0484 72.6212 16.2525 72.7474 16.2999 72.9526C16.3483 73.1589 16.2199 73.3641 16.0127 73.4122C15.7748 73.4659 15.5381 73.5306 15.3034 73.6042C15.2666 73.6158 15.2277 73.6208 15.1909 73.6208ZM21.9145 73.9637C21.864 73.9637 21.8114 73.9532 21.7619 73.9322C21.5378 73.8354 21.3095 73.748 21.078 73.6705C20.878 73.6019 20.7707 73.384 20.8391 73.1854C20.9065 72.9852 21.1243 72.879 21.3221 72.9465C21.5725 73.0306 21.8219 73.1252 22.0649 73.2302C22.2585 73.3138 22.348 73.5389 22.2649 73.7314C22.2007 73.8774 22.0607 73.9637 21.9145 73.9637ZM12.4667 74.9759C12.3467 74.9759 12.231 74.9201 12.1552 74.8161C12.0321 74.6435 12.0721 74.4057 12.2436 74.2829C12.4593 74.1302 12.6792 73.9836 12.9086 73.8481C13.0896 73.7386 13.3242 73.7989 13.4316 73.9786C13.541 74.1595 13.4831 74.394 13.3011 74.5024C13.0906 74.6297 12.8865 74.7635 12.6887 74.9046C12.6214 74.9527 12.5424 74.9759 12.4667 74.9759ZM24.4851 75.5882C24.3967 75.5882 24.3062 75.5567 24.2336 75.4926C24.0505 75.3327 23.86 75.1773 23.6643 75.0307C23.496 74.9046 23.4602 74.6634 23.5885 74.4964C23.7148 74.3271 23.9526 74.2934 24.122 74.4195C24.3346 74.5782 24.5408 74.7458 24.7376 74.9201C24.8965 75.0594 24.9112 75.3001 24.7734 75.4583C24.6965 75.5451 24.5924 75.5882 24.4851 75.5882ZM10.2991 77.1099C10.2192 77.1099 10.1402 77.0867 10.0718 77.0363C9.90349 76.9113 9.86666 76.6713 9.99188 76.502C10.1486 76.2891 10.3128 76.0838 10.4853 75.882C10.6243 75.7232 10.8652 75.7044 11.0251 75.8432C11.184 75.981 11.203 76.2221 11.0641 76.3831C10.9052 76.5673 10.7526 76.7587 10.6074 76.955C10.5316 77.0562 10.4159 77.1099 10.2991 77.1099ZM26.4274 77.9319C26.2959 77.9319 26.1696 77.8644 26.0971 77.7454C25.9739 77.5353 25.8403 77.3289 25.6982 77.1287C25.5783 76.9572 25.6193 76.7177 25.7919 76.5966C25.9634 76.4755 26.2033 76.5175 26.3243 76.689C26.4769 76.9058 26.621 77.1287 26.7557 77.3572C26.863 77.538 26.802 77.772 26.621 77.8804C26.5611 77.9158 26.4926 77.9319 26.4274 77.9319ZM8.89652 79.8108C8.85653 79.8108 8.81549 79.8048 8.7755 79.7909C8.57559 79.7245 8.46829 79.5077 8.53455 79.308C8.61874 79.0575 8.71238 78.808 8.81444 78.5663C8.89862 78.3705 9.12275 78.2809 9.31529 78.3633C9.50889 78.4463 9.60148 78.6703 9.51835 78.8628C9.42365 79.0879 9.33637 79.3174 9.25849 79.5503C9.20589 79.7091 9.05643 79.8108 8.89652 79.8108ZM27.548 80.76C27.3723 80.76 27.2166 80.64 27.1766 80.4613C27.1219 80.2224 27.0598 79.9867 26.9883 79.7533C26.9251 79.552 27.0398 79.3374 27.2408 79.2754C27.4407 79.2157 27.6564 79.3268 27.7174 79.5282C27.7953 79.7804 27.8637 80.0349 27.9216 80.2959C27.9689 80.5011 27.8385 80.7041 27.6322 80.7495C27.6049 80.7567 27.5765 80.76 27.548 80.76ZM8.39881 82.8127H8.39776C8.18525 82.8121 8.01688 82.6395 8.01688 82.4299C8.01898 82.1639 8.02949 81.8984 8.05266 81.6345C8.07053 81.426 8.25572 81.2661 8.46513 81.2871C8.67554 81.3054 8.83131 81.4901 8.81444 81.7009C8.79342 81.9437 8.7818 82.1871 8.7797 82.4332C8.7797 82.6434 8.60823 82.8127 8.39881 82.8127ZM27.7385 83.7989C27.7248 83.7989 27.7132 83.7978 27.7006 83.7956C27.4912 83.7757 27.3376 83.5882 27.3576 83.3802C27.3808 83.1357 27.3955 82.8918 27.3997 82.6467C27.4039 82.436 27.568 82.2922 27.7879 82.2701C27.9973 82.275 28.1657 82.4476 28.1636 82.6617C28.1573 82.9266 28.1436 83.1905 28.1184 83.4537C28.0983 83.6507 27.9321 83.7989 27.7385 83.7989ZM8.86073 85.82C8.70082 85.82 8.55032 85.7172 8.49876 85.5551C8.41779 85.3023 8.34726 85.049 8.28625 84.7901C8.2368 84.586 8.36408 84.3786 8.56929 84.331C8.77234 84.2829 8.97966 84.409 9.02911 84.6153C9.08486 84.8543 9.15223 85.0899 9.22585 85.3217C9.29007 85.5225 9.17851 85.7382 8.97755 85.8023C8.93966 85.8151 8.90177 85.82 8.86073 85.82ZM26.9704 86.7421C26.9199 86.7421 26.8683 86.7327 26.8188 86.7106C26.6252 86.6248 26.5358 86.4008 26.621 86.2083C26.7178 85.9843 26.8073 85.7559 26.8873 85.5236C26.9577 85.3244 27.1745 85.2193 27.3744 85.289C27.5733 85.3582 27.6785 85.575 27.6112 85.7741C27.5238 86.0242 27.4271 86.2714 27.3207 86.5137C27.2597 86.6558 27.1187 86.7421 26.9704 86.7421ZM10.2328 88.537C10.115 88.537 9.99819 88.4812 9.92346 88.3783C9.76986 88.1625 9.62361 87.9424 9.48472 87.7151C9.37631 87.5342 9.43317 87.3019 9.6131 87.1901C9.79508 87.0806 10.0298 87.1387 10.1381 87.3196C10.2655 87.5292 10.4002 87.7333 10.5432 87.9308C10.6663 88.1023 10.6274 88.3412 10.457 88.4635C10.3896 88.5127 10.3097 88.537 10.2328 88.537ZM25.3321 89.307C25.2426 89.307 25.1521 89.2743 25.0796 89.2091C24.9217 89.0702 24.9059 88.8307 25.0459 88.6714C25.2089 88.4883 25.3637 88.2992 25.511 88.1023C25.6372 87.9341 25.8771 87.9015 26.0466 88.0287C26.2149 88.1548 26.2486 88.396 26.1212 88.5641C25.9603 88.7749 25.7929 88.9779 25.6183 89.1775C25.5436 89.2622 25.4373 89.307 25.3321 89.307ZM12.3752 90.6959C12.2983 90.6959 12.2183 90.6732 12.15 90.6234C11.9364 90.4669 11.7291 90.3004 11.5291 90.1278C11.3682 89.9901 11.3513 89.75 11.4892 89.5891C11.6249 89.4281 11.8669 89.4115 12.0279 89.5504C12.212 89.7102 12.4046 89.8596 12.6013 90.0061C12.7718 90.1311 12.8086 90.3701 12.6845 90.5394C12.6098 90.6422 12.494 90.6959 12.3752 90.6959ZM22.9814 91.2368C22.8509 91.2368 22.7226 91.1694 22.6521 91.0477C22.5448 90.8657 22.6058 90.6328 22.7878 90.5244C22.9993 90.4005 23.2056 90.2678 23.4065 90.1289C23.5801 90.0078 23.8179 90.0532 23.939 90.2246C24.0589 90.3983 24.0158 90.6373 23.8432 90.7584C23.6264 90.9077 23.4044 91.0499 23.174 91.1843C23.113 91.2192 23.0487 91.2368 22.9814 91.2368ZM15.0846 92.0831C15.0467 92.0831 15.0057 92.0765 14.9678 92.0649C14.7152 91.9819 14.4669 91.8907 14.2218 91.7872C14.0271 91.7076 13.9355 91.483 14.0176 91.2883C14.0966 91.093 14.3238 91.0023 14.5153 91.0831C14.7416 91.1771 14.9709 91.2612 15.2024 91.3381C15.4034 91.4033 15.5139 91.618 15.4486 91.8198C15.395 91.9808 15.2466 92.0831 15.0846 92.0831ZM20.1457 92.3409C19.969 92.3409 19.8122 92.2176 19.7732 92.0411C19.728 91.8326 19.8595 91.6307 20.0647 91.5853C20.3036 91.5339 20.5414 91.4725 20.776 91.4011C20.9748 91.3381 21.1906 91.4548 21.2505 91.6567C21.3116 91.8586 21.1969 92.0715 20.9959 92.1335C20.7423 92.2093 20.4856 92.2756 20.2267 92.3315C20.1994 92.3376 20.172 92.3409 20.1457 92.3409ZM18.0908 92.5616C17.8266 92.5616 17.5594 92.55 17.2974 92.529C17.0869 92.5135 16.9302 92.3282 16.947 92.1174C16.9638 91.9084 17.1511 91.7524 17.3584 91.7673C17.6004 91.7861 17.8456 91.7966 18.0908 91.7966C18.3022 91.7966 18.4727 91.9659 18.4727 92.1788C18.4727 92.3901 18.3022 92.5616 18.0908 92.5616Z" fill="white"/>
<path d="M91.2726 102.336C88.3664 102.336 85.5023 103.103 82.9878 104.555C77.878 107.505 74.7035 113.004 74.7035 118.904C74.7035 124.805 77.878 130.304 82.9878 133.253C85.5023 134.705 88.3664 135.472 91.2726 135.472C94.176 135.472 97.0401 134.705 99.5546 133.253C104.667 130.304 107.839 124.805 107.839 118.904C107.839 113.004 104.667 107.505 99.5546 104.555C97.0401 103.103 94.176 102.336 91.2726 102.336ZM91.2726 137C88.0993 137 84.9724 136.163 82.2228 134.577C76.6439 131.354 73.1758 125.349 73.1758 118.904C73.1758 112.458 76.6439 106.454 82.2228 103.233C84.9724 101.647 88.0993 100.809 91.2726 100.809C94.4442 100.809 97.5716 101.647 100.32 103.233C105.9 106.454 109.365 112.458 109.365 118.904C109.365 125.349 105.9 131.354 100.32 134.577C97.5716 136.163 94.4442 137 91.2726 137Z" fill="white"/>
<path d="M92.1411 109.629C92.1283 109.629 92.1178 109.629 92.1057 109.627C91.8612 109.606 91.6184 109.594 91.3733 109.59C91.1604 109.588 90.9922 109.415 90.9944 109.204C90.9966 108.995 91.1692 108.826 91.3761 108.826H91.3816C91.6455 108.829 91.911 108.843 92.1726 108.866C92.3844 108.886 92.5399 109.07 92.52 109.282C92.5023 109.48 92.3369 109.629 92.1411 109.629ZM88.3659 110.034C88.2039 110.034 88.0534 109.929 88.0009 109.767C87.9389 109.565 88.0501 109.35 88.252 109.288C88.5059 109.209 88.7603 109.139 89.0159 109.081C89.2266 109.034 89.4274 109.162 89.475 109.366C89.5231 109.571 89.3948 109.777 89.1879 109.825C88.9517 109.879 88.7144 109.943 88.4804 110.017C88.4417 110.029 88.4036 110.034 88.3659 110.034ZM95.0892 110.375C95.0378 110.375 94.9875 110.365 94.9382 110.344C94.7126 110.247 94.4858 110.16 94.254 110.083C94.0543 110.014 93.947 109.797 94.0151 109.597C94.0825 109.397 94.3005 109.29 94.4979 109.358C94.7496 109.444 94.9969 109.538 95.2391 109.643C95.4338 109.726 95.524 109.951 95.4399 110.144C95.3791 110.289 95.2369 110.375 95.0892 110.375ZM85.6418 111.389C85.5218 111.389 85.4061 111.332 85.3304 111.228C85.2081 111.055 85.248 110.818 85.4194 110.696C85.6346 110.543 85.8553 110.396 86.0848 110.26C86.2646 110.152 86.5002 110.211 86.6087 110.392C86.7182 110.573 86.6579 110.807 86.477 110.917C86.2657 111.042 86.0616 111.175 85.8636 111.318C85.7972 111.365 85.7187 111.389 85.6418 111.389ZM97.663 112C97.5728 112 97.4821 111.97 97.4118 111.905C97.2277 111.745 97.0363 111.59 96.8405 111.444C96.6729 111.317 96.6375 111.076 96.7636 110.908C96.8919 110.739 97.132 110.705 97.2979 110.831C97.512 110.991 97.7166 111.158 97.9135 111.332C98.0734 111.471 98.0883 111.712 97.9495 111.872C97.8726 111.957 97.7686 112 97.663 112ZM83.4741 113.523C83.395 113.523 83.3164 113.499 83.2478 113.448C83.0797 113.323 83.0426 113.083 83.1671 112.914C83.3236 112.703 83.4901 112.496 83.6627 112.295C83.7993 112.135 84.0421 112.119 84.2003 112.256C84.3602 112.393 84.3779 112.635 84.2413 112.795C84.0814 112.979 83.9276 113.171 83.7822 113.368C83.7069 113.468 83.5919 113.523 83.4741 113.523ZM99.6022 114.345C99.4717 114.345 99.3467 114.279 99.2742 114.159C99.1481 113.948 99.0165 113.741 98.8732 113.541C98.7532 113.368 98.7952 113.129 98.9678 113.009C99.1382 112.889 99.3782 112.929 99.4994 113.102C99.652 113.319 99.7947 113.541 99.9297 113.768C100.038 113.948 99.9778 114.183 99.798 114.291C99.7372 114.328 99.6697 114.345 99.6022 114.345ZM82.0724 116.223C82.0337 116.223 81.9917 116.217 81.9519 116.204C81.7516 116.138 81.6432 115.92 81.7118 115.72C81.7937 115.469 81.8882 115.221 81.9917 114.979C82.0735 114.782 82.2987 114.693 82.49 114.776C82.6859 114.859 82.7766 115.082 82.6936 115.276C82.5985 115.501 82.5122 115.731 82.4347 115.963C82.3822 116.122 82.2334 116.223 82.0724 116.223ZM100.725 117.172C100.55 117.172 100.393 117.053 100.352 116.876C100.298 116.635 100.235 116.4 100.163 116.165C100.101 115.964 100.215 115.749 100.417 115.687C100.619 115.627 100.832 115.74 100.893 115.941C100.971 116.192 101.04 116.448 101.098 116.707C101.144 116.913 101.014 117.117 100.807 117.164C100.781 117.17 100.753 117.172 100.725 117.172ZM81.5746 119.226H81.5718C81.3611 119.226 81.1918 119.053 81.193 118.842C81.1952 118.576 81.2068 118.311 81.2289 118.048C81.2466 117.838 81.4341 117.674 81.641 117.7C81.8528 117.717 82.0083 117.902 81.9895 118.114C81.9684 118.356 81.959 118.599 81.9568 118.846C81.9546 119.057 81.7854 119.226 81.5746 119.226ZM100.914 120.21C100.9 120.21 100.888 120.21 100.876 120.209C100.667 120.187 100.513 120.001 100.533 119.791C100.556 119.549 100.571 119.304 100.576 119.059C100.578 118.849 100.743 118.703 100.963 118.683C101.175 118.687 101.342 118.861 101.339 119.073C101.335 119.339 101.319 119.602 101.292 119.866C101.274 120.063 101.107 120.21 100.914 120.21ZM82.0376 122.233C81.8761 122.233 81.7262 122.13 81.6747 121.968C81.594 121.715 81.5221 121.461 81.4612 121.204C81.412 120.998 81.5392 120.791 81.7444 120.744C81.9474 120.694 82.1565 120.822 82.2052 121.027C82.261 121.266 82.3274 121.502 82.401 121.735C82.4663 121.934 82.3556 122.151 82.1548 122.214C82.1156 122.227 82.0769 122.233 82.0376 122.233ZM100.145 123.155C100.096 123.155 100.041 123.145 99.9916 123.123C99.798 123.036 99.7107 122.812 99.7958 122.618C99.8948 122.395 99.9844 122.167 100.064 121.937C100.134 121.736 100.352 121.632 100.55 121.702C100.751 121.77 100.853 121.987 100.786 122.187C100.699 122.437 100.602 122.684 100.495 122.928C100.431 123.069 100.291 123.155 100.145 123.155ZM83.4099 124.949C83.2899 124.949 83.1743 124.894 83.0985 124.79C82.9447 124.576 82.7976 124.354 82.6621 124.127C82.5514 123.946 82.6084 123.713 82.7904 123.603C82.9691 123.494 83.2047 123.552 83.3142 123.733C83.4414 123.941 83.5753 124.145 83.7191 124.343C83.8424 124.514 83.8026 124.753 83.6317 124.877C83.5659 124.926 83.4857 124.949 83.4099 124.949ZM98.5081 125.718C98.4174 125.718 98.3273 125.687 98.2548 125.622C98.0955 125.482 98.0822 125.24 98.2222 125.083C98.3859 124.9 98.5408 124.71 98.6868 124.515C98.8151 124.346 99.0541 124.315 99.2217 124.442C99.3909 124.567 99.4236 124.808 99.2975 124.976C99.1365 125.187 98.97 125.391 98.7925 125.591C98.7178 125.675 98.6132 125.718 98.5081 125.718ZM85.5511 127.108C85.4725 127.108 85.3945 127.085 85.3259 127.035C85.1124 126.879 84.905 126.713 84.7042 126.541C84.5455 126.402 84.5272 126.163 84.6655 126.002C84.801 125.842 85.0427 125.826 85.2031 125.962C85.3879 126.123 85.5798 126.273 85.7773 126.419C85.9477 126.543 85.9847 126.782 85.8608 126.951C85.785 127.055 85.67 127.108 85.5511 127.108ZM96.1573 127.649C96.0257 127.649 95.8985 127.582 95.8282 127.461C95.7198 127.278 95.7818 127.045 95.9638 126.937C96.1773 126.814 96.3825 126.681 96.5838 126.542C96.7564 126.423 96.9942 126.464 97.1148 126.637C97.2348 126.81 97.1917 127.05 97.018 127.17C96.8034 127.32 96.5805 127.462 96.3498 127.596C96.289 127.632 96.2226 127.649 96.1573 127.649ZM88.262 128.496C88.2227 128.496 88.1829 128.49 88.1419 128.477C87.8925 128.395 87.6452 128.303 87.398 128.2C87.2055 128.12 87.1114 127.896 87.1928 127.701C87.2746 127.505 87.497 127.413 87.6911 127.496C87.9185 127.59 88.1469 127.675 88.3803 127.751C88.5795 127.815 88.6901 128.03 88.6248 128.232C88.5723 128.394 88.4235 128.496 88.262 128.496ZM93.322 128.754C93.145 128.754 92.9873 128.631 92.9492 128.453C92.9038 128.246 93.0344 128.043 93.2407 127.998C93.4785 127.946 93.7164 127.884 93.952 127.814C94.155 127.753 94.3658 127.868 94.4277 128.07C94.4874 128.272 94.3729 128.485 94.1722 128.547C93.9172 128.622 93.6605 128.688 93.4028 128.745C93.3745 128.751 93.348 128.754 93.322 128.754ZM91.2677 128.974C91.0005 128.974 90.7378 128.963 90.4734 128.942C90.2632 128.925 90.1061 128.741 90.1221 128.529C90.1398 128.32 90.3285 128.168 90.5342 128.18C90.7776 128.199 91.0226 128.21 91.2677 128.21C91.4773 128.21 91.6477 128.379 91.6477 128.591C91.6477 128.803 91.4773 128.974 91.2677 128.974Z" fill="white"/>
<path d="M46.2393 102.336C43.3354 102.336 40.4713 103.103 37.9573 104.555C32.8458 107.505 29.6724 113.004 29.6724 118.904C29.6724 124.805 32.8458 130.304 37.9573 133.253C40.4713 134.705 43.3354 135.472 46.2393 135.472C49.1433 135.472 52.0079 134.705 54.5236 133.253C59.6328 130.304 62.8078 124.805 62.8078 118.904C62.8078 113.004 59.6328 107.505 54.5236 104.555C52.0079 103.103 49.1433 102.336 46.2393 102.336ZM46.2393 137C43.0682 137 39.9386 136.163 37.1925 134.577C31.6116 131.354 28.1446 125.349 28.1446 118.904C28.1446 112.458 31.6116 106.454 37.1925 103.233C39.9386 101.647 43.0682 100.809 46.2393 100.809C49.4121 100.809 52.54 101.647 55.2874 103.233C60.8685 106.454 64.3355 112.458 64.3355 118.904C64.3355 125.349 60.8685 131.354 55.2874 134.577C52.54 136.163 49.4121 137 46.2393 137Z" fill="white"/>
<path d="M47.108 109.629C47.0963 109.629 47.0847 109.629 47.0731 109.627C46.8303 109.606 46.5847 109.594 46.3408 109.59C46.1295 109.588 45.9597 109.415 45.963 109.204C45.9663 108.995 46.1356 108.826 46.3452 108.826H46.3502C46.6146 108.829 46.8795 108.843 47.1417 108.866C47.3519 108.886 47.5068 109.07 47.488 109.282C47.4697 109.48 47.3038 109.629 47.108 109.629ZM43.3345 110.034C43.1713 110.034 43.0198 109.929 42.9694 109.767C42.9075 109.565 43.0198 109.349 43.2211 109.288C43.4722 109.209 43.7283 109.139 43.9861 109.081C44.1924 109.032 44.3976 109.162 44.4446 109.366C44.4922 109.571 44.3628 109.777 44.1565 109.825C43.9186 109.879 43.6819 109.943 43.4484 110.015C43.4103 110.028 43.3716 110.034 43.3345 110.034ZM50.0573 110.376C50.0069 110.376 49.956 110.365 49.9068 110.344C49.6817 110.247 49.4532 110.161 49.222 110.083C49.0218 110.014 48.9156 109.797 48.9831 109.597C49.0511 109.397 49.2679 109.292 49.4671 109.358C49.7176 109.444 49.9654 109.538 50.2088 109.643C50.4013 109.727 50.492 109.951 50.4085 110.144C50.3465 110.29 50.2044 110.376 50.0573 110.376ZM40.6114 111.389C40.4914 111.389 40.3747 111.332 40.2989 111.228C40.1767 111.055 40.216 110.818 40.3874 110.696C40.602 110.543 40.8238 110.396 41.0523 110.26C41.2343 110.151 41.4682 110.211 41.5767 110.392C41.6856 110.571 41.6259 110.806 41.445 110.916C41.2354 111.042 41.0313 111.175 40.8327 111.318C40.7652 111.365 40.6872 111.389 40.6114 111.389ZM52.6299 112C52.5391 112 52.4512 111.97 52.3776 111.905C52.1945 111.745 52.0037 111.59 51.809 111.444C51.6398 111.317 51.6049 111.076 51.7321 110.908C51.8588 110.74 52.0972 110.704 52.267 110.831C52.4783 110.991 52.6846 111.158 52.8826 111.332C53.0414 111.471 53.0558 111.712 52.9169 111.872C52.8412 111.957 52.7361 112 52.6299 112ZM38.4437 113.523C38.3641 113.523 38.2839 113.499 38.2169 113.448C38.0471 113.323 38.0106 113.083 38.1367 112.914C38.2933 112.703 38.4576 112.496 38.6301 112.295C38.7679 112.135 39.009 112.119 39.17 112.256C39.3287 112.393 39.347 112.635 39.2087 112.795C39.05 112.979 38.8956 113.171 38.7524 113.368C38.6755 113.468 38.5599 113.523 38.4437 113.523ZM54.5713 114.345C54.4408 114.345 54.3136 114.279 54.2417 114.159C54.1167 113.947 53.9839 113.742 53.844 113.542C53.7223 113.369 53.7632 113.13 53.9358 113.01C54.1084 112.887 54.3479 112.929 54.469 113.102C54.6217 113.319 54.7638 113.542 54.8994 113.769C55.0067 113.95 54.9458 114.185 54.7638 114.293C54.7047 114.329 54.6366 114.345 54.5713 114.345ZM37.0424 116.223C37.0014 116.223 36.9603 116.217 36.9203 116.204C36.7204 116.138 36.611 115.92 36.6784 115.72C36.7625 115.469 36.8562 115.221 36.9582 114.978C37.0424 114.782 37.2676 114.693 37.4603 114.776C37.655 114.859 37.7451 115.082 37.6622 115.276C37.5676 115.501 37.4802 115.729 37.4022 115.963C37.3507 116.122 37.2002 116.223 37.0424 116.223ZM55.692 117.172C55.5172 117.172 55.3596 117.052 55.3203 116.874C55.2666 116.635 55.2036 116.4 55.1322 116.165C55.0692 115.964 55.1826 115.749 55.3833 115.69C55.5858 115.627 55.8004 115.739 55.8601 115.94C55.9392 116.192 56.0073 116.448 56.0654 116.709C56.1118 116.914 55.9824 117.117 55.7761 117.164C55.7479 117.17 55.7202 117.172 55.692 117.172ZM36.5437 119.226H36.5405C36.329 119.226 36.1596 119.053 36.1617 118.842C36.1628 118.576 36.1733 118.311 36.1975 118.048C36.2143 117.838 36.4016 117.674 36.6099 117.7C36.8215 117.717 36.9751 117.902 36.9582 118.114C36.9372 118.356 36.9256 118.599 36.9246 118.846C36.9225 119.057 36.7531 119.226 36.5437 119.226ZM55.8823 120.211C55.8695 120.211 55.8557 120.21 55.8447 120.209C55.635 120.188 55.4812 120.001 55.5023 119.792C55.5255 119.549 55.5382 119.304 55.5432 119.06C55.5476 118.849 55.7224 118.703 55.9326 118.683C56.1433 118.688 56.3115 118.861 56.3076 119.073C56.3021 119.339 56.2883 119.602 56.2612 119.866C56.2435 120.063 56.0759 120.211 55.8823 120.211ZM37.0056 122.233C36.8446 122.233 36.6952 122.13 36.6436 121.968C36.5626 121.715 36.4911 121.461 36.43 121.204C36.3816 120.998 36.5079 120.791 36.7131 120.744C36.9172 120.694 37.1245 120.822 37.1719 121.027C37.2287 121.266 37.2949 121.502 37.3695 121.735C37.4348 121.934 37.3231 122.151 37.1224 122.214C37.0845 122.227 37.0445 122.233 37.0056 122.233ZM55.114 123.155C55.0647 123.155 55.0122 123.145 54.9624 123.124C54.7688 123.038 54.6809 122.813 54.7649 122.621C54.8629 122.396 54.9519 122.169 55.0321 121.937C55.1024 121.736 55.3181 121.63 55.5172 121.702C55.718 121.77 55.8231 121.987 55.7539 122.187C55.6665 122.437 55.5709 122.683 55.4647 122.926C55.4033 123.069 55.2628 123.155 55.114 123.155ZM38.3779 124.949C38.2601 124.949 38.1417 124.894 38.067 124.79C37.9127 124.576 37.7661 124.354 37.6284 124.127C37.5211 123.946 37.5781 123.713 37.7578 123.603C37.9387 123.494 38.1744 123.552 38.2817 123.733C38.4094 123.941 38.5449 124.145 38.6871 124.343C38.8099 124.514 38.7723 124.753 38.6008 124.877C38.5333 124.926 38.4542 124.949 38.3779 124.949ZM53.4767 125.719C53.3865 125.719 53.2969 125.687 53.2234 125.622C53.0646 125.482 53.0497 125.243 53.1907 125.083C53.3539 124.9 53.5077 124.711 53.6559 124.515C53.782 124.346 54.021 124.313 54.1891 124.442C54.3589 124.568 54.3921 124.809 54.2649 124.976C54.1051 125.187 53.938 125.391 53.7621 125.591C53.6874 125.675 53.5812 125.719 53.4767 125.719ZM40.5202 127.108C40.4422 127.108 40.3631 127.085 40.2951 127.035C40.0799 126.879 39.873 126.713 39.6739 126.54C39.5129 126.402 39.4963 126.162 39.633 126.001C39.7707 125.842 40.0119 125.825 40.1706 125.962C40.357 126.121 40.5473 126.273 40.7453 126.418C40.9157 126.543 40.9522 126.782 40.8294 126.951C40.7547 127.055 40.6391 127.108 40.5202 127.108ZM51.1253 127.649C50.9937 127.649 50.8676 127.582 50.7968 127.461C50.6895 127.278 50.7509 127.045 50.9329 126.937C51.1441 126.814 51.3505 126.681 51.5502 126.542C51.7238 126.423 51.9628 126.464 52.0828 126.637C52.2028 126.81 52.1608 127.05 51.9871 127.17C51.7714 127.32 51.5474 127.462 51.3189 127.596C51.2575 127.632 51.1917 127.649 51.1253 127.649ZM43.2283 128.496C43.1896 128.496 43.1503 128.49 43.1105 128.477C42.8588 128.395 42.6116 128.303 42.3665 128.2C42.1707 128.12 42.0806 127.895 42.1602 127.701C42.2415 127.506 42.4678 127.413 42.6602 127.496C42.8854 127.59 43.1149 127.675 43.3472 127.751C43.5475 127.815 43.6586 128.03 43.5923 128.232C43.5397 128.394 43.3915 128.496 43.2283 128.496ZM48.2883 128.754C48.1136 128.754 47.9559 128.631 47.9161 128.453C47.8718 128.246 48.0035 128.043 48.2098 127.998C48.4465 127.946 48.6849 127.884 48.9189 127.814C49.1208 127.753 49.3332 127.868 49.3946 128.07C49.4554 128.272 49.3415 128.485 49.1407 128.547C48.8863 128.622 48.6296 128.688 48.3719 128.745C48.3442 128.751 48.316 128.754 48.2883 128.754ZM46.2346 128.974C45.9696 128.974 45.7041 128.963 45.4414 128.942C45.2306 128.925 45.073 128.741 45.0907 128.529C45.1089 128.321 45.2937 128.17 45.5033 128.18C45.745 128.199 45.9906 128.21 46.2346 128.21C46.4459 128.21 46.6162 128.379 46.6162 128.591C46.6162 128.803 46.4459 128.974 46.2346 128.974Z" fill="white"/>
<path d="M46.2642 117.817H91.1955L119.209 82.687L109.212 38.8835L68.7307 19.3901L28.249 38.8835L18.2498 82.687L46.2642 117.817ZM91.7481 120.109H45.7127C45.3631 120.109 45.0329 119.95 44.8161 119.678L16.1138 83.6854C15.8971 83.4138 15.815 83.0576 15.8918 82.7163L26.1362 37.8353C26.214 37.4955 26.4424 37.2103 26.7569 37.0578L68.2329 17.0847C68.5476 16.9342 68.9127 16.9342 69.2274 17.0847L110.703 37.0578C111.018 37.2103 111.245 37.4955 111.322 37.8353L121.568 82.7163C121.645 83.0576 121.563 83.4138 121.347 83.6854L92.6436 119.678C92.4246 119.95 92.0949 120.109 91.7481 120.109Z" fill="white"/>
<path d="M61.3553 53.6449L68.6904 57.1761L76.0243 53.6449L68.6904 21.5105L61.3553 53.6449ZM70.4521 58.0257L77.8353 61.5806L76.3717 55.1726L70.4521 58.0257ZM61.0074 55.1726L59.5438 61.5806L66.9292 58.0257L61.0074 55.1726ZM79.5964 62.4303L86.9326 65.9614L107.483 40.1916L77.7838 54.4923L79.5964 62.4303ZM29.8986 40.1916L50.4481 65.9614L57.7832 62.4303L59.5941 54.4923L29.8986 40.1916ZM80.0312 64.3347L81.8549 72.3269L85.9552 67.1861L80.0312 64.3347ZM51.425 67.1861L55.5242 72.3269L57.3484 64.3347L51.425 67.1861ZM20.316 82.1687H53.2785L55.0894 74.2318L50.0139 67.867L20.316 82.1687ZM54.8455 82.1687H61.4195L56.308 75.7596L54.8455 82.1687ZM63.3726 82.1687H74.0065L80.6374 73.8541L78.2706 63.4862L68.6904 58.8725L59.109 63.4862L56.7428 73.8541L63.3726 82.1687ZM75.9613 82.1687H82.5352L81.0705 75.7596L75.9613 82.1687ZM84.1011 82.1687H117.063L87.3663 67.867L82.2902 74.2307L84.1011 82.1687ZM64.59 83.6976L68.6904 88.835L72.788 83.6976H64.59ZM54.4959 83.6976L47.1609 115.831L67.713 90.0613L62.6369 83.6976H54.4959ZM69.6661 90.0613L90.2177 115.831L82.8826 83.6976H74.7427L69.6661 90.0613ZM91.7078 119.687C91.4805 119.687 91.2581 119.586 91.1087 119.401L68.6904 91.2849L46.2698 119.401C46.0469 119.678 45.663 119.767 45.3411 119.611C45.0208 119.458 44.8482 119.1 44.9284 118.753L52.9295 83.6976H16.97C16.6144 83.6976 16.3039 83.4503 16.224 83.1018C16.1451 82.7545 16.3176 82.3966 16.6385 82.2445L49.036 66.6418L26.6167 38.5267C26.3936 38.2491 26.3936 37.8536 26.6167 37.5746C26.8387 37.2958 27.2227 37.2084 27.5447 37.3621L59.9432 52.9645L67.9442 17.9067C68.0244 17.5594 68.3347 17.3132 68.6904 17.3132C69.0471 17.3132 69.3552 17.5594 69.4354 17.9067L77.4365 52.9645L109.835 37.3621C110.156 37.2084 110.54 37.2958 110.763 37.5746C110.986 37.8536 110.986 38.2491 110.763 38.5267L88.3425 66.6418L120.741 82.2445C121.064 82.3966 121.235 82.7545 121.155 83.1018C121.077 83.4503 120.768 83.6976 120.41 83.6976H84.4507L92.4191 118.609C92.4623 118.706 92.486 118.812 92.486 118.922C92.486 119.345 92.1453 119.687 91.7222 119.687H91.7078Z" fill="white"/>
<path d="M74.4331 45.3369C74.4066 45.3369 74.3806 45.3346 74.3529 45.3297C72.8832 45.0172 71.3765 44.8319 69.8748 44.7721C69.6635 44.7644 69.4992 44.5868 69.5075 44.3761C69.5158 44.1648 69.7044 43.9922 69.903 44.0088C71.449 44.0691 72.9988 44.2616 74.5111 44.5813C74.718 44.6255 74.8496 44.8285 74.8054 45.0349C74.7678 45.2141 74.6096 45.3369 74.4331 45.3369ZM60.8449 45.9619C60.6817 45.9619 60.5313 45.8568 60.4799 45.6925C60.4174 45.4906 60.5302 45.2771 60.7321 45.2146C62.2073 44.7572 63.7328 44.4236 65.2672 44.2206C65.4746 44.1913 65.6682 44.3418 65.6942 44.5509C65.723 44.7594 65.5753 44.9519 65.3662 44.979C63.8761 45.1748 62.3937 45.5 60.9572 45.9442C60.9207 45.9558 60.8814 45.9619 60.8449 45.9619ZM82.9104 48.7071C82.8424 48.7071 82.7738 48.6905 82.7118 48.6501C82.5265 48.5389 82.3401 48.4272 82.1509 48.3188C81.0375 47.676 79.8676 47.1102 78.6734 46.6334C78.4765 46.5565 78.3808 46.3347 78.4577 46.1389C78.5357 45.9409 78.7575 45.8463 78.9544 45.9243C80.1857 46.4133 81.3893 46.9963 82.5337 47.6572C82.7273 47.7706 82.9181 47.8835 83.1095 47.998C83.2893 48.1097 83.3485 48.3442 83.2367 48.5229C83.1654 48.6429 83.0393 48.7071 82.9104 48.7071ZM52.7122 50.0949C52.5944 50.0949 52.4805 50.0423 52.4047 49.9417C52.2786 49.7719 52.3145 49.5324 52.4849 49.4057C53.3295 48.7768 54.2251 48.1882 55.1438 47.6572C55.5681 47.4128 55.9973 47.1793 56.4287 46.9603C56.6168 46.8657 56.8474 46.9393 56.942 47.1279C57.0377 47.316 56.963 47.5455 56.7755 47.6412C56.3541 47.8558 55.937 48.0809 55.526 48.3188C54.6333 48.8343 53.7632 49.4057 52.9396 50.0191C52.871 50.07 52.7913 50.0949 52.7122 50.0949ZM89.7836 54.708C89.673 54.708 89.564 54.6593 89.4882 54.5658C88.5368 53.4009 87.4837 52.3102 86.3514 51.3206C86.1927 51.1818 86.1766 50.9412 86.3144 50.7813C86.4554 50.6231 86.6966 50.6065 86.8542 50.7465C88.018 51.762 89.1027 52.8854 90.0795 54.0852C90.2139 54.2495 90.189 54.489 90.0236 54.6217C89.9539 54.6803 89.8688 54.708 89.7836 54.708ZM46.4198 56.6976C46.3485 56.6976 46.2727 56.6755 46.2085 56.6323C46.0337 56.5156 45.9862 56.2778 46.1034 56.1019C46.9658 54.8197 47.9426 53.6012 49.0085 52.4833C49.1556 52.3301 49.3968 52.3257 49.5494 52.47C49.7016 52.615 49.7082 52.8572 49.5611 53.011C48.5267 54.0968 47.5775 55.2816 46.7379 56.5283C46.6643 56.6379 46.5443 56.6976 46.4198 56.6976ZM94.265 62.6521C94.1085 62.6521 93.9619 62.5553 93.905 62.3998C93.3989 60.9855 92.7688 59.6038 92.0293 58.295C91.9259 58.112 91.9911 57.8791 92.1742 57.7751C92.3551 57.6722 92.5913 57.7353 92.6953 57.9217C93.4547 59.2663 94.103 60.6879 94.624 62.1426C94.6954 62.3395 94.5925 62.5597 94.3945 62.6299C94.3513 62.6449 94.3082 62.6521 94.265 62.6521ZM42.6856 65.0195C42.6541 65.0195 42.6215 65.0167 42.5888 65.0073C42.3847 64.9553 42.2614 64.7462 42.3151 64.5421C42.7011 63.047 43.2172 61.5735 43.8516 60.1624C43.9379 59.9688 44.1631 59.8847 44.3555 59.9688C44.548 60.0551 44.6343 60.2813 44.5469 60.4738C43.9324 61.845 43.4296 63.2793 43.0562 64.7335C43.0109 64.9061 42.8549 65.0195 42.6856 65.0195ZM41.9323 74.1129C41.7365 74.1129 41.5711 73.9625 41.5534 73.7644C41.4843 72.9724 41.4494 72.1692 41.4494 71.376C41.4494 70.6282 41.4798 69.8682 41.5418 69.1209C41.5589 68.9107 41.7431 68.757 41.9544 68.7708C42.1646 68.7874 42.3206 68.9727 42.3034 69.1845C42.2437 69.9102 42.2122 70.6498 42.2122 71.376C42.2122 72.1465 42.2459 72.927 42.3139 73.697C42.3322 73.9066 42.1773 74.0919 41.9671 74.1107C41.9566 74.1118 41.9439 74.1129 41.9323 74.1129ZM95.4593 76.3205C95.4382 76.3205 95.415 76.3194 95.3951 76.3149C95.1877 76.2806 95.0477 76.0826 95.0826 75.8741C95.3354 74.3928 95.4637 72.8794 95.4637 71.376C95.4637 71.3561 95.4648 71.3351 95.4698 71.3152C95.4648 71.2953 95.4637 71.2742 95.4637 71.2549C95.4582 69.7504 95.3226 68.2392 95.0616 66.7613C95.0251 66.5527 95.1639 66.3547 95.3708 66.3171C95.576 66.28 95.7773 66.4189 95.8138 66.6274C96.081 68.1491 96.2209 69.7039 96.2276 71.251C96.2276 71.272 96.2265 71.2953 96.2231 71.3152C96.2265 71.3351 96.2276 71.3561 96.2276 71.376C96.2276 72.9226 96.097 74.4791 95.8359 76.0035C95.8044 76.1899 95.6401 76.3205 95.4593 76.3205ZM44.2505 82.9326C44.1061 82.9326 43.9661 82.8496 43.902 82.7097C43.2631 81.3025 42.7404 79.8295 42.3477 78.3355C42.294 78.1314 42.4152 77.9229 42.6193 77.8692C42.8245 77.8156 43.033 77.9378 43.0867 78.1419C43.4672 79.595 43.9778 81.0248 44.5984 82.3916C44.6858 82.5852 44.6006 82.8114 44.4092 82.8977C44.3578 82.9221 44.3041 82.9326 44.2505 82.9326ZM92.4204 84.9233C92.3573 84.9233 92.2943 84.9072 92.2334 84.8746C92.0492 84.7728 91.9851 84.5405 92.0868 84.3563C92.8203 83.0432 93.4453 81.6593 93.9453 80.2421C94.0156 80.043 94.2335 79.9401 94.4332 80.0093C94.6312 80.0812 94.7352 80.2986 94.6661 80.4977C94.1517 81.9552 93.5073 83.3778 92.7539 84.7275C92.6848 84.8531 92.5542 84.9233 92.4204 84.9233ZM49.3724 90.4823C49.2723 90.4823 49.1728 90.4419 49.097 90.3644C48.0267 89.251 47.0438 88.0369 46.1748 86.7575C46.0548 86.5827 46.1012 86.3459 46.276 86.227C46.4503 86.1081 46.6881 86.1546 46.8059 86.3282C47.6511 87.5728 48.6064 88.7532 49.6468 89.834C49.7934 89.9866 49.7878 90.2284 49.6374 90.3749C49.5627 90.4452 49.467 90.4823 49.3724 90.4823ZM86.6932 92.0216C86.5882 92.0216 86.4831 91.9785 86.4084 91.8933C86.2696 91.7351 86.2839 91.4923 86.4421 91.3534C87.57 90.3611 88.6176 89.2637 89.5618 88.0944C89.6962 87.9307 89.9363 87.9041 90.0994 88.0369C90.2648 88.1696 90.2897 88.4102 90.1564 88.5745C89.1873 89.777 88.1076 90.9059 86.9471 91.927C86.8741 91.9912 86.784 92.0216 86.6932 92.0216ZM56.7169 95.8946C56.6577 95.8946 56.6013 95.8819 56.5454 95.8548C56.0742 95.6148 55.6046 95.3642 55.1449 95.0981C54.2632 94.5898 53.4025 94.0262 52.5867 93.426C52.4163 93.301 52.382 93.0609 52.507 92.8906C52.632 92.7213 52.871 92.6854 53.0414 92.8109C53.8329 93.3945 54.6692 93.9421 55.526 94.4366C55.9752 94.6954 56.4287 94.9405 56.8884 95.1706C57.077 95.2657 57.1533 95.4958 57.0587 95.6844C56.9913 95.8166 56.858 95.8946 56.7169 95.8946ZM78.9323 96.8112C78.7818 96.8112 78.6386 96.7205 78.5777 96.5711C78.5008 96.3753 78.5943 96.1535 78.7901 96.0744C79.9423 95.6087 81.0746 95.0594 82.1521 94.4366C82.3761 94.3071 82.599 94.1744 82.818 94.0389C82.9978 93.9283 83.2329 93.983 83.344 94.1617C83.4536 94.3426 83.3988 94.5771 83.2201 94.6877C82.9928 94.8277 82.7644 94.9654 82.5337 95.0981C81.4247 95.737 80.2614 96.3051 79.0766 96.783C79.028 96.8018 78.9804 96.8112 78.9323 96.8112ZM65.4442 98.5524C65.427 98.5524 65.4116 98.5513 65.3944 98.5508C63.8606 98.3561 62.3334 98.0286 60.8565 97.5795C60.653 97.517 60.5396 97.3046 60.6004 97.1016C60.6629 96.9008 60.8753 96.7857 61.0783 96.8482C62.5154 97.2858 64.0005 97.6033 65.4912 97.793C65.7008 97.8184 65.848 98.0109 65.8214 98.2189C65.7976 98.4114 65.6345 98.5524 65.4442 98.5524ZM70.0169 98.741C69.8139 98.741 69.6441 98.5812 69.6347 98.376C69.6264 98.1652 69.7907 97.9866 69.9998 97.9772C71.5015 97.913 73.0083 97.7172 74.4763 97.3992C74.6837 97.356 74.8867 97.4877 74.9309 97.6918C74.9746 97.8981 74.8447 98.1011 74.6383 98.1453C73.1283 98.4739 71.5784 98.6725 70.0335 98.741H70.0169Z" fill="white"/>
</svg>
